<svg width="794" height="204" xmlns="http://www.w3.org/2000/svg" xmlns:xlink="http://www.w3.org/1999/xlink" overflow="hidden"><defs><filter id="fx0" x="-10%" y="-10%" width="120%" height="120%" filterUnits="userSpaceOnUse" primitiveUnits="userSpaceOnUse"><feComponentTransfer color-interpolation-filters="sRGB"><feFuncR type="discrete" tableValues="0 0"/><feFuncG type="discrete" tableValues="0 0"/><feFuncB type="discrete" tableValues="0 0"/><feFuncA type="linear" slope="0.380392" intercept="0"/></feComponentTransfer><feGaussianBlur stdDeviation="1.40041 1.39868"/></filter><filter id="fx1" x="-10%" y="-10%" width="120%" height="120%" filterUnits="userSpaceOnUse" primitiveUnits="userSpaceOnUse"><feComponentTransfer color-interpolation-filters="sRGB"><feFuncR type="discrete" tableValues="0 0"/><feFuncG type="discrete" tableValues="0 0"/><feFuncB type="discrete" tableValues="0 0"/><feFuncA type="linear" slope="0.380392" intercept="0"/></feComponentTransfer><feGaussianBlur stdDeviation="1.40041 1.39868"/></filter><filter id="fx2" x="-10%" y="-10%" width="120%" height="120%" filterUnits="userSpaceOnUse" primitiveUnits="userSpaceOnUse"><feComponentTransfer color-interpolation-filters="sRGB"><feFuncR type="discrete" tableValues="0 0"/><feFuncG type="discrete" tableValues="0 0"/><feFuncB type="discrete" tableValues="0 0"/><feFuncA type="linear" slope="0.380392" intercept="0"/></feComponentTransfer><feGaussianBlur stdDeviation="1.40041 1.39868"/></filter><filter id="fx3" x="-10%" y="-10%" width="120%" height="120%" filterUnits="userSpaceOnUse" primitiveUnits="userSpaceOnUse"><feComponentTransfer color-interpolation-filters="sRGB"><feFuncR type="discrete" tableValues="0 0"/><feFuncG type="discrete" tableValues="0 0"/><feFuncB type="discrete" tableValues="0 0"/><feFuncA type="linear" slope="0.380392" intercept="0"/></feComponentTransfer><feGaussianBlur stdDeviation="1.40041 1.39868"/></filter><filter id="fx4" x="-10%" y="-10%" width="120%" height="120%" filterUnits="userSpaceOnUse" primitiveUnits="userSpaceOnUse"><feComponentTransfer color-interpolation-filters="sRGB"><feFuncR type="discrete" tableValues="0 0"/><feFuncG type="discrete" tableValues="0 0"/><feFuncB type="discrete" tableValues="0 0"/><feFuncA type="linear" slope="0.380392" intercept="0"/></feComponentTransfer><feGaussianBlur stdDeviation="1.40041 1.39868"/></filter><filter id="fx5" x="-10%" y="-10%" width="120%" height="120%" filterUnits="userSpaceOnUse" primitiveUnits="userSpaceOnUse"><feComponentTransfer color-interpolation-filters="sRGB"><feFuncR type="discrete" tableValues="0 0"/><feFuncG type="discrete" tableValues="0 0"/><feFuncB type="discrete" tableValues="0 0"/><feFuncA type="linear" slope="0.380392" intercept="0"/></feComponentTransfer><feGaussianBlur stdDeviation="1.40041 1.39868"/></filter><filter id="fx6" x="-10%" y="-10%" width="120%" height="120%" filterUnits="userSpaceOnUse" primitiveUnits="userSpaceOnUse"><feComponentTransfer color-interpolation-filters="sRGB"><feFuncR type="discrete" tableValues="0 0"/><feFuncG type="discrete" tableValues="0 0"/><feFuncB type="discrete" tableValues="0 0"/><feFuncA type="linear" slope="0.380392" intercept="0"/></feComponentTransfer><feGaussianBlur stdDeviation="1.40041 1.39868"/></filter><filter id="fx7" x="-10%" y="-10%" width="120%" height="120%" filterUnits="userSpaceOnUse" primitiveUnits="userSpaceOnUse"><feComponentTransfer color-interpolation-filters="sRGB"><feFuncR type="discrete" tableValues="0 0"/><feFuncG type="discrete" tableValues="0 0"/><feFuncB type="discrete" tableValues="0 0"/><feFuncA type="linear" slope="0.380392" intercept="0"/></feComponentTransfer><feGaussianBlur stdDeviation="1.40041 1.39868"/></filter><filter id="fx8" x="-10%" y="-10%" width="120%" height="120%" filterUnits="userSpaceOnUse" primitiveUnits="userSpaceOnUse"><feComponentTransfer color-interpolation-filters="sRGB"><feFuncR type="discrete" tableValues="0 0"/><feFuncG type="discrete" tableValues="0 0"/><feFuncB type="discrete" tableValues="0 0"/><feFuncA type="linear" slope="0.380392" intercept="0"/></feComponentTransfer><feGaussianBlur stdDeviation="1.40041 1.39868"/></filter><filter id="fx9" x="-10%" y="-10%" width="120%" height="120%" filterUnits="userSpaceOnUse" primitiveUnits="userSpaceOnUse"><feComponentTransfer color-interpolation-filters="sRGB"><feFuncR type="discrete" tableValues="0 0"/><feFuncG type="discrete" tableValues="0 0"/><feFuncB type="discrete" tableValues="0 0"/><feFuncA type="linear" slope="0.380392" intercept="0"/></feComponentTransfer><feGaussianBlur stdDeviation="1.40041 1.39868"/></filter><filter id="fx10" x="-10%" y="-10%" width="120%" height="120%" filterUnits="userSpaceOnUse" primitiveUnits="userSpaceOnUse"><feComponentTransfer color-interpolation-filters="sRGB"><feFuncR type="discrete" tableValues="0 0"/><feFuncG type="discrete" tableValues="0 0"/><feFuncB type="discrete" tableValues="0 0"/><feFuncA type="linear" slope="0.380392" intercept="0"/></feComponentTransfer><feGaussianBlur stdDeviation="1.40041 1.39868"/></filter><filter id="fx11" x="-10%" y="-10%" width="120%" height="120%" filterUnits="userSpaceOnUse" primitiveUnits="userSpaceOnUse"><feComponentTransfer color-interpolation-filters="sRGB"><feFuncR type="discrete" tableValues="0 0"/><feFuncG type="discrete" tableValues="0 0"/><feFuncB type="discrete" tableValues="0 0"/><feFuncA type="linear" slope="0.380392" intercept="0"/></feComponentTransfer><feGaussianBlur stdDeviation="1.40041 1.39868"/></filter><filter id="fx12" x="-10%" y="-10%" width="120%" height="120%" filterUnits="userSpaceOnUse" primitiveUnits="userSpaceOnUse"><feComponentTransfer color-interpolation-filters="sRGB"><feFuncR type="discrete" tableValues="0 0"/><feFuncG type="discrete" tableValues="0 0"/><feFuncB type="discrete" tableValues="0 0"/><feFuncA type="linear" slope="0.380392" intercept="0"/></feComponentTransfer><feGaussianBlur stdDeviation="1.40041 1.39868"/></filter><filter id="fx13" x="-10%" y="-10%" width="120%" height="120%" filterUnits="userSpaceOnUse" primitiveUnits="userSpaceOnUse"><feComponentTransfer color-interpolation-filters="sRGB"><feFuncR type="discrete" tableValues="0 0"/><feFuncG type="discrete" tableValues="0 0"/><feFuncB type="discrete" tableValues="0 0"/><feFuncA type="linear" slope="0.380392" intercept="0"/></feComponentTransfer><feGaussianBlur stdDeviation="1.40041 1.39868"/></filter><filter id="fx14" x="-10%" y="-10%" width="120%" height="120%" filterUnits="userSpaceOnUse" primitiveUnits="userSpaceOnUse"><feComponentTransfer color-interpolation-filters="sRGB"><feFuncR type="discrete" tableValues="0 0"/><feFuncG type="discrete" tableValues="0 0"/><feFuncB type="discrete" tableValues="0 0"/><feFuncA type="linear" slope="0.380392" intercept="0"/></feComponentTransfer><feGaussianBlur stdDeviation="1.40041 1.39868"/></filter><filter id="fx15" x="-10%" y="-10%" width="120%" height="120%" filterUnits="userSpaceOnUse" primitiveUnits="userSpaceOnUse"><feComponentTransfer color-interpolation-filters="sRGB"><feFuncR type="discrete" tableValues="0 0"/><feFuncG type="discrete" tableValues="0 0"/><feFuncB type="discrete" tableValues="0 0"/><feFuncA type="linear" slope="0.380392" intercept="0"/></feComponentTransfer><feGaussianBlur stdDeviation="1.40041 1.39868"/></filter><filter id="fx16" x="-10%" y="-10%" width="120%" height="120%" filterUnits="userSpaceOnUse" primitiveUnits="userSpaceOnUse"><feComponentTransfer color-interpolation-filters="sRGB"><feFuncR type="discrete" tableValues="0 0"/><feFuncG type="discrete" tableValues="0 0"/><feFuncB type="discrete" tableValues="0 0"/><feFuncA type="linear" slope="0.380392" intercept="0"/></feComponentTransfer><feGaussianBlur stdDeviation="1.40041 1.39868"/></filter><filter id="fx17" x="-10%" y="-10%" width="120%" height="120%" filterUnits="userSpaceOnUse" primitiveUnits="userSpaceOnUse"><feComponentTransfer color-interpolation-filters="sRGB"><feFuncR type="discrete" tableValues="0 0"/><feFuncG type="discrete" tableValues="0 0"/><feFuncB type="discrete" tableValues="0 0"/><feFuncA type="linear" slope="0.380392" intercept="0"/></feComponentTransfer><feGaussianBlur stdDeviation="1.40041 1.39868"/></filter><filter id="fx18" x="-10%" y="-10%" width="120%" height="120%" filterUnits="userSpaceOnUse" primitiveUnits="userSpaceOnUse"><feComponentTransfer color-interpolation-filters="sRGB"><feFuncR type="discrete" tableValues="0 0"/><feFuncG type="discrete" tableValues="0 0"/><feFuncB type="discrete" tableValues="0 0"/><feFuncA type="linear" slope="0.380392" intercept="0"/></feComponentTransfer><feGaussianBlur stdDeviation="1.40041 1.39868"/></filter><filter id="fx19" x="-10%" y="-10%" width="120%" height="120%" filterUnits="userSpaceOnUse" primitiveUnits="userSpaceOnUse"><feComponentTransfer color-interpolation-filters="sRGB"><feFuncR type="discrete" tableValues="0 0"/><feFuncG type="discrete" tableValues="0 0"/><feFuncB type="discrete" tableValues="0 0"/><feFuncA type="linear" slope="0.380392" intercept="0"/></feComponentTransfer><feGaussianBlur stdDeviation="1.40041 1.39868"/></filter><filter id="fx20" x="-10%" y="-10%" width="120%" height="120%" filterUnits="userSpaceOnUse" primitiveUnits="userSpaceOnUse"><feComponentTransfer color-interpolation-filters="sRGB"><feFuncR type="discrete" tableValues="0 0"/><feFuncG type="discrete" tableValues="0 0"/><feFuncB type="discrete" tableValues="0 0"/><feFuncA type="linear" slope="0.380392" intercept="0"/></feComponentTransfer><feGaussianBlur stdDeviation="1.40041 1.39868"/></filter><filter id="fx21" x="-10%" y="-10%" width="120%" height="120%" filterUnits="userSpaceOnUse" primitiveUnits="userSpaceOnUse"><feComponentTransfer color-interpolation-filters="sRGB"><feFuncR type="discrete" tableValues="0 0"/><feFuncG type="discrete" tableValues="0 0"/><feFuncB type="discrete" tableValues="0 0"/><feFuncA type="linear" slope="0.380392" intercept="0"/></feComponentTransfer><feGaussianBlur stdDeviation="1.40041 1.39868"/></filter><filter id="fx22" x="-10%" y="-10%" width="120%" height="120%" filterUnits="userSpaceOnUse" primitiveUnits="userSpaceOnUse"><feComponentTransfer color-interpolation-filters="sRGB"><feFuncR type="discrete" tableValues="0 0"/><feFuncG type="discrete" tableValues="0 0"/><feFuncB type="discrete" tableValues="0 0"/><feFuncA type="linear" slope="0.380392" intercept="0"/></feComponentTransfer><feGaussianBlur stdDeviation="1.40041 1.39868"/></filter><filter id="fx23" x="-10%" y="-10%" width="120%" height="120%" filterUnits="userSpaceOnUse" primitiveUnits="userSpaceOnUse"><feComponentTransfer color-interpolation-filters="sRGB"><feFuncR type="discrete" tableValues="0 0"/><feFuncG type="discrete" tableValues="0 0"/><feFuncB type="discrete" tableValues="0 0"/><feFuncA type="linear" slope="0.380392" intercept="0"/></feComponentTransfer><feGaussianBlur stdDeviation="1.40041 1.39868"/></filter><clipPath id="clip24"><rect x="0" y="0" width="794" height="204"/></clipPath><clipPath id="clip25"><path d="M85.5001 79.4018 85.5001 135.333 141.5 135.333 141.5 79.4018ZM1.18315e-05 3.03984e-06 794 3.03984e-06 794 204 1.18315e-05 204Z" fill-rule="evenodd" clip-rule="evenodd"/></clipPath><clipPath id="clip26"><rect x="1" y="1" width="69" height="67"/></clipPath><clipPath id="clip27"><rect x="0" y="0" width="69" height="69"/></clipPath><clipPath id="clip28"><rect x="17" y="19" width="23" height="23"/></clipPath><clipPath id="clip29"><rect x="0" y="0" width="55" height="62"/></clipPath><linearGradient x1="113.5" y1="135.333" x2="113.5" y2="79.4018" gradientUnits="userSpaceOnUse" spreadMethod="reflect" id="fill30"><stop offset="0" stop-color="#BCBCBC"/><stop offset="0.35" stop-color="#D0D0D0"/><stop offset="1" stop-color="#EDEDED"/></linearGradient><clipPath id="clip31"><path d="M141.5 79.4018 141.5 135.333 197.5 135.333 197.5 79.4018ZM1.18315e-05 3.03984e-06 794 3.03984e-06 794 204 1.18315e-05 204Z" fill-rule="evenodd" clip-rule="evenodd"/></clipPath><clipPath id="clip32"><rect x="1" y="1" width="69" height="67"/></clipPath><clipPath id="clip33"><rect x="0" y="0" width="69" height="69"/></clipPath><clipPath id="clip34"><rect x="17" y="15" width="21" height="31"/></clipPath><clipPath id="clip35"><rect x="0" y="0" width="54" height="62"/></clipPath><linearGradient x1="169.5" y1="135.333" x2="169.5" y2="79.4018" gradientUnits="userSpaceOnUse" spreadMethod="reflect" id="fill36"><stop offset="0" stop-color="#BCBCBC"/><stop offset="0.35" stop-color="#D0D0D0"/><stop offset="1" stop-color="#EDEDED"/></linearGradient><clipPath id="clip37"><path d="M196.5 79.4018 196.5 135.333 252.5 135.333 252.5 79.4018ZM1.18315e-05 3.03984e-06 794 3.03984e-06 794 204 1.18315e-05 204Z" fill-rule="evenodd" clip-rule="evenodd"/></clipPath><clipPath id="clip38"><rect x="1" y="1" width="69" height="67"/></clipPath><clipPath id="clip39"><rect x="0" y="0" width="69" height="69"/></clipPath><clipPath id="clip40"><rect x="15" y="19" width="25" height="23"/></clipPath><clipPath id="clip41"><rect x="0" y="0" width="54" height="62"/></clipPath><linearGradient x1="224.5" y1="135.333" x2="224.5" y2="79.4018" gradientUnits="userSpaceOnUse" spreadMethod="reflect" id="fill42"><stop offset="0" stop-color="#BCBCBC"/><stop offset="0.35" stop-color="#D0D0D0"/><stop offset="1" stop-color="#EDEDED"/></linearGradient><clipPath id="clip43"><path d="M252.5 79.4018 252.5 135.333 308.5 135.333 308.5 79.4018ZM1.18315e-05 3.03984e-06 794 3.03984e-06 794 204 1.18315e-05 204Z" fill-rule="evenodd" clip-rule="evenodd"/></clipPath><clipPath id="clip44"><rect x="1" y="1" width="69" height="67"/></clipPath><clipPath id="clip45"><rect x="0" y="0" width="69" height="69"/></clipPath><clipPath id="clip46"><rect x="17" y="15" width="21" height="31"/></clipPath><clipPath id="clip47"><rect x="0" y="0" width="54" height="62"/></clipPath><linearGradient x1="280.5" y1="135.333" x2="280.5" y2="79.4018" gradientUnits="userSpaceOnUse" spreadMethod="reflect" id="fill48"><stop offset="0" stop-color="#BCBCBC"/><stop offset="0.35" stop-color="#D0D0D0"/><stop offset="1" stop-color="#EDEDED"/></linearGradient><clipPath id="clip49"><path d="M308.5 79.4018 308.5 135.333 364.5 135.333 364.5 79.4018ZM1.18315e-05 3.03984e-06 794 3.03984e-06 794 204 1.18315e-05 204Z" fill-rule="evenodd" clip-rule="evenodd"/></clipPath><clipPath id="clip50"><rect x="1" y="1" width="69" height="67"/></clipPath><clipPath id="clip51"><rect x="0" y="0" width="69" height="69"/></clipPath><clipPath id="clip52"><rect x="15" y="19" width="25" height="23"/></clipPath><clipPath id="clip53"><rect x="0" y="0" width="55" height="62"/></clipPath><linearGradient x1="336.5" y1="135.333" x2="336.5" y2="79.4018" gradientUnits="userSpaceOnUse" spreadMethod="reflect" id="fill54"><stop offset="0" stop-color="#BCBCBC"/><stop offset="0.35" stop-color="#D0D0D0"/><stop offset="1" stop-color="#EDEDED"/></linearGradient><clipPath id="clip55"><path d="M364.5 79.4018 364.5 135.333 420.5 135.333 420.5 79.4018ZM1.18315e-05 3.03984e-06 794 3.03984e-06 794 204 1.18315e-05 204Z" fill-rule="evenodd" clip-rule="evenodd"/></clipPath><clipPath id="clip56"><rect x="1" y="1" width="67" height="67"/></clipPath><clipPath id="clip57"><rect x="0" y="0" width="69" height="69"/></clipPath><clipPath id="clip58"><rect x="17" y="15" width="21" height="31"/></clipPath><clipPath id="clip59"><rect x="0" y="0" width="54" height="62"/></clipPath><linearGradient x1="392.5" y1="135.333" x2="392.5" y2="79.4018" gradientUnits="userSpaceOnUse" spreadMethod="reflect" id="fill60"><stop offset="0" stop-color="#BCBCBC"/><stop offset="0.35" stop-color="#D0D0D0"/><stop offset="1" stop-color="#EDEDED"/></linearGradient><clipPath id="clip61"><path d="M419.5 79.4018 419.5 135.333 475.5 135.333 475.5 79.4018ZM1.18315e-05 3.03984e-06 794 3.03984e-06 794 204 1.18315e-05 204Z" fill-rule="evenodd" clip-rule="evenodd"/></clipPath><clipPath id="clip62"><rect x="-1" y="1" width="69" height="67"/></clipPath><clipPath id="clip63"><rect x="0" y="0" width="69" height="69"/></clipPath><clipPath id="clip64"><rect x="17" y="19" width="23" height="23"/></clipPath><clipPath id="clip65"><rect x="0" y="0" width="55" height="62"/></clipPath><linearGradient x1="447.5" y1="135.333" x2="447.5" y2="79.4018" gradientUnits="userSpaceOnUse" spreadMethod="reflect" id="fill66"><stop offset="0" stop-color="#BCBCBC"/><stop offset="0.35" stop-color="#D0D0D0"/><stop offset="1" stop-color="#EDEDED"/></linearGradient><clipPath id="clip67"><path d="M475.5 79.4018 475.5 135.333 532.5 135.333 532.5 79.4018ZM1.18315e-05 3.03984e-06 794 3.03984e-06 794 204 1.18315e-05 204Z" fill-rule="evenodd" clip-rule="evenodd"/></clipPath><clipPath id="clip68"><rect x="-1" y="1" width="71" height="67"/></clipPath><clipPath id="clip69"><rect x="0" y="0" width="70" height="69"/></clipPath><clipPath id="clip70"><rect x="17" y="19" width="23" height="23"/></clipPath><clipPath id="clip71"><rect x="0" y="0" width="55" height="62"/></clipPath><linearGradient x1="504" y1="135.333" x2="504" y2="79.4018" gradientUnits="userSpaceOnUse" spreadMethod="reflect" id="fill72"><stop offset="0" stop-color="#BCBCBC"/><stop offset="0.35" stop-color="#D0D0D0"/><stop offset="1" stop-color="#EDEDED"/></linearGradient><clipPath id="clip73"><path d="M532.5 79.4018 532.5 135.333 588.5 135.333 588.5 79.4018ZM1.18315e-05 3.03984e-06 794 3.03984e-06 794 204 1.18315e-05 204Z" fill-rule="evenodd" clip-rule="evenodd"/></clipPath><clipPath id="clip74"><rect x="-1" y="1" width="69" height="67"/></clipPath><clipPath id="clip75"><rect x="0" y="0" width="69" height="69"/></clipPath><clipPath id="clip76"><rect x="15" y="15" width="23" height="31"/></clipPath><clipPath id="clip77"><rect x="0" y="0" width="53" height="62"/></clipPath><linearGradient x1="560.5" y1="135.333" x2="560.5" y2="79.4018" gradientUnits="userSpaceOnUse" spreadMethod="reflect" id="fill78"><stop offset="0" stop-color="#BCBCBC"/><stop offset="0.35" stop-color="#D0D0D0"/><stop offset="1" stop-color="#EDEDED"/></linearGradient><clipPath id="clip79"><path d="M588.5 79.4018 588.5 135.333 644.5 135.333 644.5 79.4018ZM1.18315e-05 3.03984e-06 794 3.03984e-06 794 204 1.18315e-05 204Z" fill-rule="evenodd" clip-rule="evenodd"/></clipPath><clipPath id="clip80"><rect x="-1" y="1" width="69" height="67"/></clipPath><clipPath id="clip81"><rect x="0" y="0" width="69" height="69"/></clipPath><clipPath id="clip82"><rect x="15" y="19" width="21" height="27"/></clipPath><clipPath id="clip83"><rect x="0" y="0" width="51" height="62"/></clipPath><linearGradient x1="616.5" y1="135.333" x2="616.5" y2="79.4018" gradientUnits="userSpaceOnUse" spreadMethod="reflect" id="fill84"><stop offset="0" stop-color="#BCBCBC"/><stop offset="0.35" stop-color="#D0D0D0"/><stop offset="1" stop-color="#EDEDED"/></linearGradient><clipPath id="clip85"><path d="M643.5 79.4018 643.5 135.333 699.5 135.333 699.5 79.4018ZM1.18315e-05 3.03984e-06 794 3.03984e-06 794 204 1.18315e-05 204Z" fill-rule="evenodd" clip-rule="evenodd"/></clipPath><clipPath id="clip86"><rect x="-1" y="1" width="69" height="67"/></clipPath><clipPath id="clip87"><rect x="0" y="0" width="69" height="69"/></clipPath><clipPath id="clip88"><rect x="17" y="19" width="23" height="23"/></clipPath><clipPath id="clip89"><rect x="0" y="0" width="55" height="62"/></clipPath><linearGradient x1="671.5" y1="135.333" x2="671.5" y2="79.4018" gradientUnits="userSpaceOnUse" spreadMethod="reflect" id="fill90"><stop offset="0" stop-color="#BCBCBC"/><stop offset="0.35" stop-color="#D0D0D0"/><stop offset="1" stop-color="#EDEDED"/></linearGradient><clipPath id="clip91"><path d="M699.5 79.4018 699.5 135.333 755.5 135.333 755.5 79.4018ZM1.18315e-05 3.03984e-06 794 3.03984e-06 794 204 1.18315e-05 204Z" fill-rule="evenodd" clip-rule="evenodd"/></clipPath><clipPath id="clip92"><rect x="-1" y="1" width="69" height="67"/></clipPath><clipPath id="clip93"><rect x="0" y="0" width="69" height="69"/></clipPath><clipPath id="clip94"><rect x="17" y="15" width="21" height="31"/></clipPath><clipPath id="clip95"><rect x="0" y="0" width="54" height="62"/></clipPath><linearGradient x1="727.5" y1="135.333" x2="727.5" y2="79.4018" gradientUnits="userSpaceOnUse" spreadMethod="reflect" id="fill96"><stop offset="0" stop-color="#BCBCBC"/><stop offset="0.35" stop-color="#D0D0D0"/><stop offset="1" stop-color="#EDEDED"/></linearGradient></defs><g clip-path="url(#clip24)"><rect x="0" y="0" width="794" height="203.748" fill="#FFFFFF"/><rect x="421.5" y="3.49573" width="12" height="19.9753" stroke="#FFFFFF" stroke-width="2.66779" stroke-linejoin="round" stroke-miterlimit="10" fill="#C3D69B"/><text font-family="Calibri,Calibri_MSFontService,sans-serif" font-weight="400" font-size="19" transform="matrix(1 0 0 0.998764 421.973 19)">α</text><rect x="433.5" y="3.49573" width="13" height="19.9753" stroke="#FFFFFF" stroke-width="2.66779" stroke-linejoin="round" stroke-miterlimit="10" fill="#FFFFFF"/><text font-family="Calibri,Calibri_MSFontService,sans-serif" font-weight="400" font-size="19" transform="matrix(1 0 0 0.998764 434.507 19)">β</text><rect x="445.5" y="3.49573" width="13" height="19.9753" stroke="#FFFFFF" stroke-width="2.66779" stroke-linejoin="round" stroke-miterlimit="10" fill="#FFFFFF"/><text font-family="Calibri,Calibri_MSFontService,sans-serif" font-weight="400" font-size="19" transform="matrix(1 0 0 0.998764 446.213 19)">α</text><rect x="458.5" y="3.49573" width="12" height="19.9753" stroke="#FFFFFF" stroke-width="2.66779" stroke-linejoin="round" stroke-miterlimit="10" fill="#FFFFFF"/><text font-family="Calibri,Calibri_MSFontService,sans-serif" font-weight="400" font-size="19" transform="matrix(1 0 0 0.998764 458.747 19)">β</text><rect x="470.5" y="3.49573" width="12" height="19.9753" stroke="#FFFFFF" stroke-width="2.66779" stroke-linejoin="round" stroke-miterlimit="10" fill="#FFFFFF"/><text font-family="Calibri,Calibri_MSFontService,sans-serif" font-weight="400" font-size="19" transform="matrix(1 0 0 0.998764 470.614 19)">α</text><rect x="482.5" y="3.49573" width="12" height="19.9753" stroke="#FFFFFF" stroke-width="2.66779" stroke-linejoin="round" stroke-miterlimit="10" fill="#FFFFFF"/><text font-family="Calibri,Calibri_MSFontService,sans-serif" font-weight="400" font-size="19" transform="matrix(1 0 0 0.998764 483.148 19)">β</text><rect x="494.5" y="3.49573" width="12" height="19.9753" stroke="#FFFFFF" stroke-width="2.66779" stroke-linejoin="round" stroke-miterlimit="10" fill="#FFFFFF"/><text font-family="Calibri,Calibri_MSFontService,sans-serif" font-weight="400" font-size="19" transform="matrix(1 0 0 0.998764 494.854 19)">α</text><rect x="506.5" y="3.49573" width="12" height="19.9753" stroke="#FFFFFF" stroke-width="2.66779" stroke-linejoin="round" stroke-miterlimit="10" fill="#FFFFFF"/><text font-family="Calibri,Calibri_MSFontService,sans-serif" font-weight="400" font-size="19" transform="matrix(1 0 0 0.998764 507.054 19)">α</text><rect x="518.5" y="3.49573" width="13" height="19.9753" stroke="#FFFFFF" stroke-width="2.66779" stroke-linejoin="round" stroke-miterlimit="10" fill="#FFFFFF"/><text font-family="Calibri,Calibri_MSFontService,sans-serif" font-weight="400" font-size="19" transform="matrix(1 0 0 0.998764 519.588 19)">β</text><rect x="531.5" y="3.49573" width="12" height="19.9753" stroke="#FFFFFF" stroke-width="2.66779" stroke-linejoin="round" stroke-miterlimit="10" fill="#FFFFFF"/><text font-family="Calibri,Calibri_MSFontService,sans-serif" font-weight="400" font-size="19" transform="matrix(1 0 0 0.998764 532.622 19)">γ</text><rect x="543.5" y="3.49573" width="12" height="19.9753" stroke="#FFFFFF" stroke-width="2.66779" stroke-linejoin="round" stroke-miterlimit="10" fill="#FFFFFF"/><text font-family="Calibri,Calibri_MSFontService,sans-serif" font-weight="400" font-size="19" transform="matrix(1 0 0 0.998764 543.495 19)">α</text><rect x="555.5" y="3.49573" width="12" height="19.9753" stroke="#FFFFFF" stroke-width="2.66779" stroke-linejoin="round" stroke-miterlimit="10" fill="#FFFFFF"/><text font-family="Calibri,Calibri_MSFontService,sans-serif" font-weight="400" font-size="19" transform="matrix(1 0 0 0.998764 556.028 19)">β</text><rect x="476.5" y="48.4401" width="12" height="19.9753" stroke="#FFFFFF" stroke-width="2.66779" stroke-linejoin="round" stroke-miterlimit="10" fill="#C3D69B"/><text font-family="Calibri,Calibri_MSFontService,sans-serif" font-weight="400" font-size="19" transform="matrix(1 0 0 0.998764 476.8 63)">α</text><rect x="488.5" y="48.4401" width="12" height="19.9753" stroke="#FFFFFF" stroke-width="2.66779" stroke-linejoin="round" stroke-miterlimit="10" fill="#C3D69B"/><text font-family="Calibri,Calibri_MSFontService,sans-serif" font-weight="400" font-size="19" transform="matrix(1 0 0 0.998764 489.333 63)">β</text><rect x="500.5" y="48.4401" width="12" height="19.9753" stroke="#FFFFFF" stroke-width="2.66779" stroke-linejoin="round" stroke-miterlimit="10" fill="#FFFFFF"/><text font-family="Calibri,Calibri_MSFontService,sans-serif" font-weight="400" font-size="19" transform="matrix(1 0 0 0.998764 501.04 63)">α</text><rect x="512.5" y="48.4401" width="13" height="19.9753" stroke="#FFFFFF" stroke-width="2.66779" stroke-linejoin="round" stroke-miterlimit="10" fill="#FFFFFF"/><text font-family="Calibri,Calibri_MSFontService,sans-serif" font-weight="400" font-size="19" transform="matrix(1 0 0 0.998764 513.573 63)">β</text><rect x="525.5" y="48.4401" width="12" height="19.9753" stroke="#FFFFFF" stroke-width="2.66779" stroke-linejoin="round" stroke-miterlimit="10" fill="#FFFFFF"/><text font-family="Calibri,Calibri_MSFontService,sans-serif" font-weight="400" font-size="19" transform="matrix(1 0 0 0.998764 525.44 63)">α</text><rect x="537.5" y="48.4401" width="12" height="19.9753" stroke="#FFFFFF" stroke-width="2.66779" stroke-linejoin="round" stroke-miterlimit="10" fill="#FFFFFF"/><text font-family="Calibri,Calibri_MSFontService,sans-serif" font-weight="400" font-size="19" transform="matrix(1 0 0 0.998764 537.974 63)">β</text><rect x="549.5" y="48.4401" width="12" height="19.9753" stroke="#FFFFFF" stroke-width="2.66779" stroke-linejoin="round" stroke-miterlimit="10" fill="#FFFFFF"/><text font-family="Calibri,Calibri_MSFontService,sans-serif" font-weight="400" font-size="19" transform="matrix(1 0 0 0.998764 549.68 63)">α</text><rect x="561.5" y="48.4401" width="12" height="19.9753" stroke="#FFFFFF" stroke-width="2.66779" stroke-linejoin="round" stroke-miterlimit="10" fill="#FFFFFF"/><text font-family="Calibri,Calibri_MSFontService,sans-serif" font-weight="400" font-size="19" transform="matrix(1 0 0 0.998764 561.881 63)">α</text><rect x="573.5" y="48.4401" width="13" height="19.9753" stroke="#FFFFFF" stroke-width="2.66779" stroke-linejoin="round" stroke-miterlimit="10" fill="#FFFFFF"/><text font-family="Calibri,Calibri_MSFontService,sans-serif" font-weight="400" font-size="19" transform="matrix(1 0 0 0.998764 574.414 63)">β</text><rect x="586.5" y="48.4401" width="12" height="19.9753" stroke="#FFFFFF" stroke-width="2.66779" stroke-linejoin="round" stroke-miterlimit="10" fill="#FFFFFF"/><text font-family="Calibri,Calibri_MSFontService,sans-serif" font-weight="400" font-size="19" transform="matrix(1 0 0 0.998764 587.448 63)">γ</text><rect x="598.5" y="48.4401" width="12" height="19.9753" stroke="#FFFFFF" stroke-width="2.66779" stroke-linejoin="round" stroke-miterlimit="10" fill="#FFFFFF"/><text font-family="Calibri,Calibri_MSFontService,sans-serif" font-weight="400" font-size="19" transform="matrix(1 0 0 0.998764 598.321 63)">α</text><rect x="610.5" y="48.4401" width="12" height="19.9753" stroke="#FFFFFF" stroke-width="2.66779" stroke-linejoin="round" stroke-miterlimit="10" fill="#FFFFFF"/><text font-family="Calibri,Calibri_MSFontService,sans-serif" font-weight="400" font-size="19" transform="matrix(1 0 0 0.998764 610.855 63)">β</text><rect x="646.5" y="48.4401" width="12" height="19.9753" stroke="#FFFFFF" stroke-width="2.66779" stroke-linejoin="round" stroke-miterlimit="10" fill="#C3D69B"/><text font-family="Calibri,Calibri_MSFontService,sans-serif" font-weight="400" font-size="19" transform="matrix(1 0 0 0.998764 646.732 63)">α</text><rect x="658.5" y="48.4401" width="12" height="19.9753" stroke="#FFFFFF" stroke-width="2.66779" stroke-linejoin="round" stroke-miterlimit="10" fill="#C3D69B"/><text font-family="Calibri,Calibri_MSFontService,sans-serif" font-weight="400" font-size="19" transform="matrix(1 0 0 0.998764 659.266 63)">β</text><rect x="670.5" y="48.4401" width="12" height="19.9753" stroke="#FFFFFF" stroke-width="2.66779" stroke-linejoin="round" stroke-miterlimit="10" fill="#FFFFFF"/><text font-family="Calibri,Calibri_MSFontService,sans-serif" font-weight="400" font-size="19" transform="matrix(1 0 0 0.998764 670.972 63)">α</text><rect x="682.5" y="48.4401" width="13" height="19.9753" stroke="#FFFFFF" stroke-width="2.66779" stroke-linejoin="round" stroke-miterlimit="10" fill="#FFFFFF"/><text font-family="Calibri,Calibri_MSFontService,sans-serif" font-weight="400" font-size="19" transform="matrix(1 0 0 0.998764 683.506 63)">β</text><rect x="695.5" y="48.4401" width="12" height="19.9753" stroke="#FFFFFF" stroke-width="2.66779" stroke-linejoin="round" stroke-miterlimit="10" fill="#FFFFFF"/><text font-family="Calibri,Calibri_MSFontService,sans-serif" font-weight="400" font-size="19" transform="matrix(1 0 0 0.998764 695.372 63)">α</text><rect x="707.5" y="48.4401" width="12" height="19.9753" stroke="#FFFFFF" stroke-width="2.66779" stroke-linejoin="round" stroke-miterlimit="10" fill="#FFFFFF"/><text font-family="Calibri,Calibri_MSFontService,sans-serif" font-weight="400" font-size="19" transform="matrix(1 0 0 0.998764 707.906 63)">β</text><rect x="719.5" y="48.4401" width="12" height="19.9753" stroke="#FFFFFF" stroke-width="2.66779" stroke-linejoin="round" stroke-miterlimit="10" fill="#FFFFFF"/><text font-family="Calibri,Calibri_MSFontService,sans-serif" font-weight="400" font-size="19" transform="matrix(1 0 0 0.998764 719.612 63)">α</text><rect x="731.5" y="48.4401" width="12" height="19.9753" stroke="#FFFFFF" stroke-width="2.66779" stroke-linejoin="round" stroke-miterlimit="10" fill="#FFFFFF"/><text font-family="Calibri,Calibri_MSFontService,sans-serif" font-weight="400" font-size="19" transform="matrix(1 0 0 0.998764 731.813 63)">α</text><rect x="743.5" y="48.4401" width="12" height="19.9753" stroke="#FFFFFF" stroke-width="2.66779" stroke-linejoin="round" stroke-miterlimit="10" fill="#FFFFFF"/><text font-family="Calibri,Calibri_MSFontService,sans-serif" font-weight="400" font-size="19" transform="matrix(1 0 0 0.998764 744.347 63)">β</text><rect x="755.5" y="48.4401" width="13" height="19.9753" stroke="#FFFFFF" stroke-width="2.66779" stroke-linejoin="round" stroke-miterlimit="10" fill="#FFFFFF"/><text font-family="Calibri,Calibri_MSFontService,sans-serif" font-weight="400" font-size="19" transform="matrix(1 0 0 0.998764 757.381 63)">γ</text><rect x="767.5" y="48.4401" width="13" height="19.9753" stroke="#FFFFFF" stroke-width="2.66779" stroke-linejoin="round" stroke-miterlimit="10" fill="#FFFFFF"/><text font-family="Calibri,Calibri_MSFontService,sans-serif" font-weight="400" font-size="19" transform="matrix(1 0 0 0.998764 768.253 63)">α</text><rect x="780.5" y="48.4401" width="12" height="19.9753" stroke="#FFFFFF" stroke-width="2.66779" stroke-linejoin="round" stroke-miterlimit="10" fill="#FFFFFF"/><text font-family="Calibri,Calibri_MSFontService,sans-serif" font-weight="400" font-size="19" transform="matrix(1 0 0 0.998764 780.787 63)">β</text><path d="M0 0 0.000104901 31.9739" stroke="#000000" stroke-width="0.999184" stroke-linejoin="round" stroke-miterlimit="10" fill="none" fill-rule="evenodd" transform="matrix(1.00124 0 0 -1 202.5 79.4152)"/><path d="M0 0 0.000104901 76.7373" stroke="#000000" stroke-width="0.999184" stroke-linejoin="round" stroke-miterlimit="10" fill="none" fill-rule="evenodd" transform="matrix(1.00124 0 0 -1 421.5 80.233)"/><g clip-path="url(#clip25)"><g clip-path="url(#clip26)" filter="url(#fx0)" transform="translate(79 75)"><g clip-path="url(#clip27)"><rect x="6.50004" y="6.49982" width="56" height="55.9308" stroke="#000000" stroke-linejoin="round" stroke-miterlimit="10" fill="#FF0000"/></g></g><g clip-path="url(#clip28)" filter="url(#fx1)" transform="translate(85 81)"><g clip-path="url(#clip29)"><path d="M13.1367-0.902344C13.1367-0.660156 13.123-0.480469 13.0957-0.363281 13.0684-0.246094 13.0293-0.164062 12.9785-0.117188 12.9277-0.0703125 12.8555-0.0273437 12.7617 0.0117188 12.668 0.0507812 12.5508 0.0839844 12.4102 0.111328 12.2695 0.138672 12.1289 0.162109 11.9883 0.181641 11.8477 0.201172 11.6992 0.210937 11.543 0.210938 11.2539 0.210937 10.9727 0.175781 10.6992 0.105469 10.4258 0.0351562 10.1816-0.0878906 9.9668-0.263672 9.75195-0.439453 9.57031-0.673828 9.42188-0.966797 9.27344-1.25977 9.17578-1.63281 9.12891-2.08594 8.98047-1.75 8.78906-1.44141 8.55469-1.16016 8.32031-0.878906 8.04883-0.634766 7.74023-0.427734 7.43164-0.220703 7.08984-0.0605469 6.71484 0.0527344 6.33984 0.166016 5.9375 0.222656 5.50781 0.222656 4.72656 0.222656 4.05859 0.078125 3.50391-0.210938 2.94922-0.5 2.49805-0.898438 2.15039-1.40625 1.80273-1.91406 1.54687-2.51562 1.38281-3.21094 1.21875-3.90625 1.13672-4.65234 1.13672-5.44922 1.13672-6.35547 1.23828-7.17187 1.44141-7.89844 1.64453-8.625 1.94727-9.24609 2.34961-9.76172 2.75195-10.2773 3.24609-10.6738 3.83203-10.9512 4.41797-11.2285 5.09766-11.3672 5.87109-11.3672 6.37109-11.3672 6.83984-11.2871 7.27734-11.127 7.71484-10.9668 8.10156-10.7305 8.4375-10.418 8.77344-10.1055 9.05078-9.7168 9.26953-9.25195 9.48828-8.78711 9.63281-8.24609 9.70312-7.62891 9.83594-8.19141 9.93945-8.67969 10.0137-9.09375 10.0879-9.50781 10.1426-9.85352 10.1777-10.1309 10.2129-10.4082 10.2402-10.623 10.2598-10.7754 10.2793-10.9277 10.3047-11.0195 10.3359-11.0508 10.3594-11.0664 10.3906-11.084 10.4297-11.1035 10.4688-11.123 10.5215-11.1406 10.5879-11.1562 10.6543-11.1719 10.7363-11.1836 10.834-11.1914 10.9316-11.1992 11.0469-11.2031 11.1797-11.2031 11.3672-11.2031 11.5215-11.1973 11.6426-11.1855 11.7637-11.1738 11.8594-11.1523 11.9297-11.1211 12-11.0898 12.0508-11.0508 12.082-11.0039 12.1133-10.957 12.1289-10.9062 12.1289-10.8516 12.1289-10.7266 12.1094-10.5332 12.0703-10.2715 12.0312-10.0098 11.9766-9.70117 11.9062-9.3457 11.8359-8.99023 11.75-8.60352 11.6484-8.18555 11.5469-7.76758 11.4395-7.3418 11.3262-6.9082 11.2129-6.47461 11.0898-6.05273 10.957-5.64258 10.8242-5.23242 10.6875-4.85547 10.5469-4.51172 10.5547-3.84766 10.5938-3.31445 10.6641-2.91211 10.7344-2.50977 10.8301-2.19727 10.9512-1.97461 11.0723-1.75195 11.207-1.60352 11.3555-1.5293 11.5039-1.45508 11.6602-1.41797 11.8242-1.41797 11.9648-1.41797 12.0937-1.43164 12.2109-1.45898 12.3281-1.48633 12.4316-1.51172 12.5215-1.53516 12.6113-1.55859 12.6895-1.58398 12.7559-1.61133 12.8223-1.63867 12.8789-1.65234 12.9258-1.65234 12.9648-1.65234 12.9961-1.64258 13.0195-1.62305 13.043-1.60352 13.0645-1.56641 13.084-1.51172 13.1035-1.45703 13.1172-1.38086 13.125-1.2832 13.1328-1.18555 13.1367-1.05859 13.1367-0.902344ZM8.60156-5.63672C8.60156-6.37109 8.52539-7 8.37305-7.52344 8.2207-8.04688 8.01953-8.47461 7.76953-8.80664 7.51953-9.13867 7.23242-9.38086 6.9082-9.5332 6.58398-9.68555 6.24609-9.76172 5.89453-9.76172 5.40234-9.76172 4.98242-9.64453 4.63477-9.41016 4.28711-9.17578 4.00195-8.86523 3.7793-8.47852 3.55664-8.0918 3.39453-7.65234 3.29297-7.16016 3.19141-6.66797 3.14062-6.16406 3.14062-5.64844 3.14062-5.09375 3.17969-4.56055 3.25781-4.04883 3.33594-3.53711 3.47656-3.08398 3.67969-2.68945 3.88281-2.29492 4.15039-1.97852 4.48242-1.74023 4.81445-1.50195 5.23828-1.38281 5.75391-1.38281 6.21484-1.38281 6.62305-1.48828 6.97852-1.69922 7.33398-1.91016 7.63086-2.20508 7.86914-2.58398 8.10742-2.96289 8.28906-3.4082 8.41406-3.91992 8.53906-4.43164 8.60156-4.98828 8.60156-5.58984Z" transform="matrix(1 0 0 0.998764 20.9759 36)"/></g></g></g><rect x="85.5" y="79.4018" width="56" height="55.9308" stroke="#000000" stroke-width="1.00042" stroke-linejoin="round" stroke-miterlimit="10" fill="url(#fill30)"/><text font-family="Calibri,Calibri_MSFontService,sans-serif" font-weight="400" font-size="24" transform="matrix(1 0 0 0.998764 105.976 115)">α</text><g clip-path="url(#clip31)"><g clip-path="url(#clip32)" filter="url(#fx2)" transform="translate(135 75)"><g clip-path="url(#clip33)"><rect x="6.50003" y="6.49982" width="56" height="55.9308" stroke="#000000" stroke-linejoin="round" stroke-miterlimit="10" fill="#FF0000"/></g></g><g clip-path="url(#clip34)" filter="url(#fx3)" transform="translate(142 81)"><g clip-path="url(#clip35)"><path d="M11.6016-4.78125C11.6016-4.09375 11.5039-3.44727 11.3086-2.8418 11.1133-2.23633 10.8125-1.70703 10.4062-1.25391 10-0.800781 9.48242-0.443359 8.85352-0.181641 8.22461 0.0800781 7.47266 0.210937 6.59766 0.210938 6.29297 0.210937 6 0.189453 5.71875 0.146484 5.4375 0.103516 5.17383 0.0429687 4.92773-0.0351562 4.68164-0.113281 4.45312-0.208984 4.24219-0.322266 4.03125-0.435547 3.83594-0.5625 3.65625-0.703125 3.67969-0.46875 3.69727-0.220703 3.70898 0.0410156 3.7207 0.302734 3.72656 0.558594 3.72656 0.808594L3.72656 3.89062C3.72656 3.95312 3.71094 4.00781 3.67969 4.05469 3.64844 4.10156 3.59766 4.14062 3.52734 4.17188 3.45703 4.20312 3.35937 4.22656 3.23438 4.24219 3.10937 4.25781 2.94922 4.26562 2.75391 4.26562 2.56641 4.26562 2.41016 4.25781 2.28516 4.24219 2.16016 4.22656 2.06055 4.20312 1.98633 4.17188 1.91211 4.14062 1.86133 4.10156 1.83398 4.05469 1.80664 4.00781 1.79297 3.95312 1.79297 3.89062L1.79297-11.4023C1.79297-12.1992 1.90234-12.9082 2.12109-13.5293 2.33984-14.1504 2.64844-14.6738 3.04688-15.0996 3.44531-15.5254 3.92578-15.8516 4.48828-16.0781 5.05078-16.3047 5.67188-16.418 6.35156-16.418 7.07031-16.418 7.69336-16.3105 8.2207-16.0957 8.74805-15.8809 9.18164-15.5898 9.52148-15.2227 9.86133-14.8555 10.1113-14.4375 10.2715-13.9688 10.4316-13.5 10.5117-13.0117 10.5117-12.5039 10.5117-11.6758 10.3262-10.9512 9.95508-10.3301 9.58398-9.70898 9.03516-9.25781 8.30859-8.97656 8.84766-8.90625 9.32227-8.74609 9.73242-8.49609 10.1426-8.24609 10.4863-7.93359 10.7637-7.55859 11.041-7.18359 11.25-6.75586 11.3906-6.27539 11.5312-5.79492 11.6016-5.29688 11.6016-4.78125ZM9.53906-4.62891C9.53906-5.08984 9.48242-5.51367 9.36914-5.90039 9.25586-6.28711 9.07812-6.62109 8.83594-6.90234 8.59375-7.18359 8.27539-7.40234 7.88086-7.55859 7.48633-7.71484 7.00781-7.79297 6.44531-7.79297L5.4375-7.79297C5.30469-7.79297 5.20508-7.85547 5.13867-7.98047 5.07227-8.10547 5.03906-8.30859 5.03906-8.58984 5.03906-8.73047 5.04883-8.85156 5.06836-8.95312 5.08789-9.05469 5.11328-9.13672 5.14453-9.19922 5.17578-9.26172 5.21484-9.30859 5.26172-9.33984 5.30859-9.37109 5.36328-9.38672 5.42578-9.38672L5.66016-9.38672C6.17578-9.38672 6.61523-9.4668 6.97852-9.62695 7.3418-9.78711 7.63672-10.002 7.86328-10.2715 8.08984-10.541 8.25391-10.8516 8.35547-11.2031 8.45703-11.5547 8.50781-11.9219 8.50781-12.3047 8.50781-12.6406 8.46875-12.9609 8.39062-13.2656 8.3125-13.5703 8.18555-13.8359 8.00977-14.0625 7.83398-14.2891 7.60156-14.4687 7.3125-14.6016 7.02344-14.7344 6.67578-14.8008 6.26953-14.8008 5.83984-14.8008 5.46484-14.7227 5.14453-14.5664 4.82422-14.4102 4.56055-14.1855 4.35352-13.8926 4.14648-13.5996 3.99023-13.2441 3.88477-12.8262 3.7793-12.4082 3.72656-11.9375 3.72656-11.4141L3.72656-2.49609C4.15625-2.13672 4.60938-1.87305 5.08594-1.70508 5.5625-1.53711 6.03516-1.45312 6.50391-1.45312 7.03516-1.45312 7.49414-1.5293 7.88086-1.68164 8.26758-1.83398 8.58203-2.04883 8.82422-2.32617 9.06641-2.60352 9.24609-2.93555 9.36328-3.32227 9.48047-3.70898 9.53906-4.14453 9.53906-4.62891Z" transform="matrix(1 0 0 0.998764 20.4163 36)"/></g></g></g><rect x="141.5" y="79.4018" width="56" height="55.9308" stroke="#000000" stroke-width="1.00042" stroke-linejoin="round" stroke-miterlimit="10" fill="url(#fill36)"/><text font-family="Calibri,Calibri_MSFontService,sans-serif" font-weight="400" font-size="24" transform="matrix(1 0 0 0.998764 162.416 115)">β</text><g clip-path="url(#clip37)"><g clip-path="url(#clip38)" filter="url(#fx4)" transform="translate(190 75)"><g clip-path="url(#clip39)"><rect x="6.50003" y="6.49982" width="56" height="55.9308" stroke="#000000" stroke-linejoin="round" stroke-miterlimit="10" fill="#FF0000"/></g></g><g clip-path="url(#clip40)" filter="url(#fx5)" transform="translate(197 81)"><g clip-path="url(#clip41)"><path d="M13.1367-0.902344C13.1367-0.660156 13.123-0.480469 13.0957-0.363281 13.0684-0.246094 13.0293-0.164062 12.9785-0.117188 12.9277-0.0703125 12.8555-0.0273437 12.7617 0.0117188 12.668 0.0507812 12.5508 0.0839844 12.4102 0.111328 12.2695 0.138672 12.1289 0.162109 11.9883 0.181641 11.8477 0.201172 11.6992 0.210937 11.543 0.210938 11.2539 0.210937 10.9727 0.175781 10.6992 0.105469 10.4258 0.0351562 10.1816-0.0878906 9.9668-0.263672 9.75195-0.439453 9.57031-0.673828 9.42188-0.966797 9.27344-1.25977 9.17578-1.63281 9.12891-2.08594 8.98047-1.75 8.78906-1.44141 8.55469-1.16016 8.32031-0.878906 8.04883-0.634766 7.74023-0.427734 7.43164-0.220703 7.08984-0.0605469 6.71484 0.0527344 6.33984 0.166016 5.9375 0.222656 5.50781 0.222656 4.72656 0.222656 4.05859 0.078125 3.50391-0.210938 2.94922-0.5 2.49805-0.898438 2.15039-1.40625 1.80273-1.91406 1.54687-2.51562 1.38281-3.21094 1.21875-3.90625 1.13672-4.65234 1.13672-5.44922 1.13672-6.35547 1.23828-7.17187 1.44141-7.89844 1.64453-8.625 1.94727-9.24609 2.34961-9.76172 2.75195-10.2773 3.24609-10.6738 3.83203-10.9512 4.41797-11.2285 5.09766-11.3672 5.87109-11.3672 6.37109-11.3672 6.83984-11.2871 7.27734-11.127 7.71484-10.9668 8.10156-10.7305 8.4375-10.418 8.77344-10.1055 9.05078-9.7168 9.26953-9.25195 9.48828-8.78711 9.63281-8.24609 9.70312-7.62891 9.83594-8.19141 9.93945-8.67969 10.0137-9.09375 10.0879-9.50781 10.1426-9.85352 10.1777-10.1309 10.2129-10.4082 10.2402-10.623 10.2598-10.7754 10.2793-10.9277 10.3047-11.0195 10.3359-11.0508 10.3594-11.0664 10.3906-11.084 10.4297-11.1035 10.4688-11.123 10.5215-11.1406 10.5879-11.1562 10.6543-11.1719 10.7363-11.1836 10.834-11.1914 10.9316-11.1992 11.0469-11.2031 11.1797-11.2031 11.3672-11.2031 11.5215-11.1973 11.6426-11.1855 11.7637-11.1738 11.8594-11.1523 11.9297-11.1211 12-11.0898 12.0508-11.0508 12.082-11.0039 12.1133-10.957 12.1289-10.9062 12.1289-10.8516 12.1289-10.7266 12.1094-10.5332 12.0703-10.2715 12.0312-10.0098 11.9766-9.70117 11.9062-9.3457 11.8359-8.99023 11.75-8.60352 11.6484-8.18555 11.5469-7.76758 11.4395-7.3418 11.3262-6.9082 11.2129-6.47461 11.0898-6.05273 10.957-5.64258 10.8242-5.23242 10.6875-4.85547 10.5469-4.51172 10.5547-3.84766 10.5938-3.31445 10.6641-2.91211 10.7344-2.50977 10.8301-2.19727 10.9512-1.97461 11.0723-1.75195 11.207-1.60352 11.3555-1.5293 11.5039-1.45508 11.6602-1.41797 11.8242-1.41797 11.9648-1.41797 12.0937-1.43164 12.2109-1.45898 12.3281-1.48633 12.4316-1.51172 12.5215-1.53516 12.6113-1.55859 12.6895-1.58398 12.7559-1.61133 12.8223-1.63867 12.8789-1.65234 12.9258-1.65234 12.9648-1.65234 12.9961-1.64258 13.0195-1.62305 13.043-1.60352 13.0645-1.56641 13.084-1.51172 13.1035-1.45703 13.1172-1.38086 13.125-1.2832 13.1328-1.18555 13.1367-1.05859 13.1367-0.902344ZM8.60156-5.63672C8.60156-6.37109 8.52539-7 8.37305-7.52344 8.2207-8.04688 8.01953-8.47461 7.76953-8.80664 7.51953-9.13867 7.23242-9.38086 6.9082-9.5332 6.58398-9.68555 6.24609-9.76172 5.89453-9.76172 5.40234-9.76172 4.98242-9.64453 4.63477-9.41016 4.28711-9.17578 4.00195-8.86523 3.7793-8.47852 3.55664-8.0918 3.39453-7.65234 3.29297-7.16016 3.19141-6.66797 3.14062-6.16406 3.14062-5.64844 3.14062-5.09375 3.17969-4.56055 3.25781-4.04883 3.33594-3.53711 3.47656-3.08398 3.67969-2.68945 3.88281-2.29492 4.15039-1.97852 4.48242-1.74023 4.81445-1.50195 5.23828-1.38281 5.75391-1.38281 6.21484-1.38281 6.62305-1.48828 6.97852-1.69922 7.33398-1.91016 7.63086-2.20508 7.86914-2.58398 8.10742-2.96289 8.28906-3.4082 8.41406-3.91992 8.53906-4.43164 8.60156-4.98828 8.60156-5.58984Z" transform="matrix(1 0 0 0.998764 20.2848 36)"/></g></g></g><rect x="196.5" y="79.4018" width="56" height="55.9308" stroke="#000000" stroke-width="1.00042" stroke-linejoin="round" stroke-miterlimit="10" fill="url(#fill42)"/><text font-family="Calibri,Calibri_MSFontService,sans-serif" font-weight="400" font-size="24" transform="matrix(1 0 0 0.998764 217.285 115)">α</text><g clip-path="url(#clip43)"><g clip-path="url(#clip44)" filter="url(#fx6)" transform="translate(246 75)"><g clip-path="url(#clip45)"><rect x="6.50002" y="6.49982" width="56" height="55.9308" stroke="#000000" stroke-linejoin="round" stroke-miterlimit="10" fill="#FF0000"/></g></g><g clip-path="url(#clip46)" filter="url(#fx7)" transform="translate(253 81)"><g clip-path="url(#clip47)"><path d="M11.6016-4.78125C11.6016-4.09375 11.5039-3.44727 11.3086-2.8418 11.1133-2.23633 10.8125-1.70703 10.4062-1.25391 10-0.800781 9.48242-0.443359 8.85352-0.181641 8.22461 0.0800781 7.47266 0.210937 6.59766 0.210938 6.29297 0.210937 6 0.189453 5.71875 0.146484 5.4375 0.103516 5.17383 0.0429687 4.92773-0.0351562 4.68164-0.113281 4.45312-0.208984 4.24219-0.322266 4.03125-0.435547 3.83594-0.5625 3.65625-0.703125 3.67969-0.46875 3.69727-0.220703 3.70898 0.0410156 3.7207 0.302734 3.72656 0.558594 3.72656 0.808594L3.72656 3.89062C3.72656 3.95312 3.71094 4.00781 3.67969 4.05469 3.64844 4.10156 3.59766 4.14062 3.52734 4.17188 3.45703 4.20312 3.35937 4.22656 3.23438 4.24219 3.10937 4.25781 2.94922 4.26562 2.75391 4.26562 2.56641 4.26562 2.41016 4.25781 2.28516 4.24219 2.16016 4.22656 2.06055 4.20312 1.98633 4.17188 1.91211 4.14062 1.86133 4.10156 1.83398 4.05469 1.80664 4.00781 1.79297 3.95312 1.79297 3.89062L1.79297-11.4023C1.79297-12.1992 1.90234-12.9082 2.12109-13.5293 2.33984-14.1504 2.64844-14.6738 3.04688-15.0996 3.44531-15.5254 3.92578-15.8516 4.48828-16.0781 5.05078-16.3047 5.67188-16.418 6.35156-16.418 7.07031-16.418 7.69336-16.3105 8.2207-16.0957 8.74805-15.8809 9.18164-15.5898 9.52148-15.2227 9.86133-14.8555 10.1113-14.4375 10.2715-13.9688 10.4316-13.5 10.5117-13.0117 10.5117-12.5039 10.5117-11.6758 10.3262-10.9512 9.95508-10.3301 9.58398-9.70898 9.03516-9.25781 8.30859-8.97656 8.84766-8.90625 9.32227-8.74609 9.73242-8.49609 10.1426-8.24609 10.4863-7.93359 10.7637-7.55859 11.041-7.18359 11.25-6.75586 11.3906-6.27539 11.5312-5.79492 11.6016-5.29688 11.6016-4.78125ZM9.53906-4.62891C9.53906-5.08984 9.48242-5.51367 9.36914-5.90039 9.25586-6.28711 9.07812-6.62109 8.83594-6.90234 8.59375-7.18359 8.27539-7.40234 7.88086-7.55859 7.48633-7.71484 7.00781-7.79297 6.44531-7.79297L5.4375-7.79297C5.30469-7.79297 5.20508-7.85547 5.13867-7.98047 5.07227-8.10547 5.03906-8.30859 5.03906-8.58984 5.03906-8.73047 5.04883-8.85156 5.06836-8.95312 5.08789-9.05469 5.11328-9.13672 5.14453-9.19922 5.17578-9.26172 5.21484-9.30859 5.26172-9.33984 5.30859-9.37109 5.36328-9.38672 5.42578-9.38672L5.66016-9.38672C6.17578-9.38672 6.61523-9.4668 6.97852-9.62695 7.3418-9.78711 7.63672-10.002 7.86328-10.2715 8.08984-10.541 8.25391-10.8516 8.35547-11.2031 8.45703-11.5547 8.50781-11.9219 8.50781-12.3047 8.50781-12.6406 8.46875-12.9609 8.39062-13.2656 8.3125-13.5703 8.18555-13.8359 8.00977-14.0625 7.83398-14.2891 7.60156-14.4687 7.3125-14.6016 7.02344-14.7344 6.67578-14.8008 6.26953-14.8008 5.83984-14.8008 5.46484-14.7227 5.14453-14.5664 4.82422-14.4102 4.56055-14.1855 4.35352-13.8926 4.14648-13.5996 3.99023-13.2441 3.88477-12.8262 3.7793-12.4082 3.72656-11.9375 3.72656-11.4141L3.72656-2.49609C4.15625-2.13672 4.60938-1.87305 5.08594-1.70508 5.5625-1.53711 6.03516-1.45312 6.50391-1.45312 7.03516-1.45312 7.49414-1.5293 7.88086-1.68164 8.26758-1.83398 8.58203-2.04883 8.82422-2.32617 9.06641-2.60352 9.24609-2.93555 9.36328-3.32227 9.48047-3.70898 9.53906-4.14453 9.53906-4.62891Z" transform="matrix(1 0 0 0.998764 20.7252 36)"/></g></g></g><rect x="252.5" y="79.4018" width="56" height="55.9308" stroke="#000000" stroke-width="1.00042" stroke-linejoin="round" stroke-miterlimit="10" fill="url(#fill48)"/><text font-family="Calibri,Calibri_MSFontService,sans-serif" font-weight="400" font-size="24" transform="matrix(1 0 0 0.998764 273.725 115)">β</text><g clip-path="url(#clip49)"><g clip-path="url(#clip50)" filter="url(#fx8)" transform="translate(302 75)"><g clip-path="url(#clip51)"><rect x="6.5" y="6.49982" width="56" height="55.9308" stroke="#000000" stroke-linejoin="round" stroke-miterlimit="10" fill="#FF0000"/></g></g><g clip-path="url(#clip52)" filter="url(#fx9)" transform="translate(309 81)"><g clip-path="url(#clip53)"><path d="M13.1367-0.902344C13.1367-0.660156 13.123-0.480469 13.0957-0.363281 13.0684-0.246094 13.0293-0.164062 12.9785-0.117188 12.9277-0.0703125 12.8555-0.0273437 12.7617 0.0117188 12.668 0.0507812 12.5508 0.0839844 12.4102 0.111328 12.2695 0.138672 12.1289 0.162109 11.9883 0.181641 11.8477 0.201172 11.6992 0.210937 11.543 0.210938 11.2539 0.210937 10.9727 0.175781 10.6992 0.105469 10.4258 0.0351562 10.1816-0.0878906 9.9668-0.263672 9.75195-0.439453 9.57031-0.673828 9.42188-0.966797 9.27344-1.25977 9.17578-1.63281 9.12891-2.08594 8.98047-1.75 8.78906-1.44141 8.55469-1.16016 8.32031-0.878906 8.04883-0.634766 7.74023-0.427734 7.43164-0.220703 7.08984-0.0605469 6.71484 0.0527344 6.33984 0.166016 5.9375 0.222656 5.50781 0.222656 4.72656 0.222656 4.05859 0.078125 3.50391-0.210938 2.94922-0.5 2.49805-0.898438 2.15039-1.40625 1.80273-1.91406 1.54687-2.51562 1.38281-3.21094 1.21875-3.90625 1.13672-4.65234 1.13672-5.44922 1.13672-6.35547 1.23828-7.17187 1.44141-7.89844 1.64453-8.625 1.94727-9.24609 2.34961-9.76172 2.75195-10.2773 3.24609-10.6738 3.83203-10.9512 4.41797-11.2285 5.09766-11.3672 5.87109-11.3672 6.37109-11.3672 6.83984-11.2871 7.27734-11.127 7.71484-10.9668 8.10156-10.7305 8.4375-10.418 8.77344-10.1055 9.05078-9.7168 9.26953-9.25195 9.48828-8.78711 9.63281-8.24609 9.70312-7.62891 9.83594-8.19141 9.93945-8.67969 10.0137-9.09375 10.0879-9.50781 10.1426-9.85352 10.1777-10.1309 10.2129-10.4082 10.2402-10.623 10.2598-10.7754 10.2793-10.9277 10.3047-11.0195 10.3359-11.0508 10.3594-11.0664 10.3906-11.084 10.4297-11.1035 10.4688-11.123 10.5215-11.1406 10.5879-11.1562 10.6543-11.1719 10.7363-11.1836 10.834-11.1914 10.9316-11.1992 11.0469-11.2031 11.1797-11.2031 11.3672-11.2031 11.5215-11.1973 11.6426-11.1855 11.7637-11.1738 11.8594-11.1523 11.9297-11.1211 12-11.0898 12.0508-11.0508 12.082-11.0039 12.1133-10.957 12.1289-10.9062 12.1289-10.8516 12.1289-10.7266 12.1094-10.5332 12.0703-10.2715 12.0312-10.0098 11.9766-9.70117 11.9062-9.3457 11.8359-8.99023 11.75-8.60352 11.6484-8.18555 11.5469-7.76758 11.4395-7.3418 11.3262-6.9082 11.2129-6.47461 11.0898-6.05273 10.957-5.64258 10.8242-5.23242 10.6875-4.85547 10.5469-4.51172 10.5547-3.84766 10.5938-3.31445 10.6641-2.91211 10.7344-2.50977 10.8301-2.19727 10.9512-1.97461 11.0723-1.75195 11.207-1.60352 11.3555-1.5293 11.5039-1.45508 11.6602-1.41797 11.8242-1.41797 11.9648-1.41797 12.0937-1.43164 12.2109-1.45898 12.3281-1.48633 12.4316-1.51172 12.5215-1.53516 12.6113-1.55859 12.6895-1.58398 12.7559-1.61133 12.8223-1.63867 12.8789-1.65234 12.9258-1.65234 12.9648-1.65234 12.9961-1.64258 13.0195-1.62305 13.043-1.60352 13.0645-1.56641 13.084-1.51172 13.1035-1.45703 13.1172-1.38086 13.125-1.2832 13.1328-1.18555 13.1367-1.05859 13.1367-0.902344ZM8.60156-5.63672C8.60156-6.37109 8.52539-7 8.37305-7.52344 8.2207-8.04688 8.01953-8.47461 7.76953-8.80664 7.51953-9.13867 7.23242-9.38086 6.9082-9.5332 6.58398-9.68555 6.24609-9.76172 5.89453-9.76172 5.40234-9.76172 4.98242-9.64453 4.63477-9.41016 4.28711-9.17578 4.00195-8.86523 3.7793-8.47852 3.55664-8.0918 3.39453-7.65234 3.29297-7.16016 3.19141-6.66797 3.14062-6.16406 3.14062-5.64844 3.14062-5.09375 3.17969-4.56055 3.25781-4.04883 3.33594-3.53711 3.47656-3.08398 3.67969-2.68945 3.88281-2.29492 4.15039-1.97852 4.48242-1.74023 4.81445-1.50195 5.23828-1.38281 5.75391-1.38281 6.21484-1.38281 6.62305-1.48828 6.97852-1.69922 7.33398-1.91016 7.63086-2.20508 7.86914-2.58398 8.10742-2.96289 8.28906-3.4082 8.41406-3.91992 8.53906-4.43164 8.60156-4.98828 8.60156-5.58984Z" transform="matrix(1 0 0 0.998764 20.3318 36)"/></g></g></g><rect x="308.5" y="79.4018" width="56" height="55.9308" stroke="#000000" stroke-width="1.00042" stroke-linejoin="round" stroke-miterlimit="10" fill="url(#fill54)"/><text font-family="Calibri,Calibri_MSFontService,sans-serif" font-weight="400" font-size="24" transform="matrix(1 0 0 0.998764 329.332 115)">α</text><g clip-path="url(#clip55)"><g clip-path="url(#clip56)" filter="url(#fx10)" transform="translate(358 75)"><g clip-path="url(#clip57)"><rect x="6.5" y="6.49982" width="56" height="55.9308" stroke="#000000" stroke-linejoin="round" stroke-miterlimit="10" fill="#FF0000"/></g></g><g clip-path="url(#clip58)" filter="url(#fx11)" transform="translate(365 81)"><g clip-path="url(#clip59)"><path d="M11.6016-4.78125C11.6016-4.09375 11.5039-3.44727 11.3086-2.8418 11.1133-2.23633 10.8125-1.70703 10.4062-1.25391 10-0.800781 9.48242-0.443359 8.85352-0.181641 8.22461 0.0800781 7.47266 0.210937 6.59766 0.210938 6.29297 0.210937 6 0.189453 5.71875 0.146484 5.4375 0.103516 5.17383 0.0429687 4.92773-0.0351562 4.68164-0.113281 4.45312-0.208984 4.24219-0.322266 4.03125-0.435547 3.83594-0.5625 3.65625-0.703125 3.67969-0.46875 3.69727-0.220703 3.70898 0.0410156 3.7207 0.302734 3.72656 0.558594 3.72656 0.808594L3.72656 3.89062C3.72656 3.95312 3.71094 4.00781 3.67969 4.05469 3.64844 4.10156 3.59766 4.14062 3.52734 4.17188 3.45703 4.20312 3.35937 4.22656 3.23438 4.24219 3.10937 4.25781 2.94922 4.26562 2.75391 4.26562 2.56641 4.26562 2.41016 4.25781 2.28516 4.24219 2.16016 4.22656 2.06055 4.20312 1.98633 4.17188 1.91211 4.14062 1.86133 4.10156 1.83398 4.05469 1.80664 4.00781 1.79297 3.95312 1.79297 3.89062L1.79297-11.4023C1.79297-12.1992 1.90234-12.9082 2.12109-13.5293 2.33984-14.1504 2.64844-14.6738 3.04688-15.0996 3.44531-15.5254 3.92578-15.8516 4.48828-16.0781 5.05078-16.3047 5.67188-16.418 6.35156-16.418 7.07031-16.418 7.69336-16.3105 8.2207-16.0957 8.74805-15.8809 9.18164-15.5898 9.52148-15.2227 9.86133-14.8555 10.1113-14.4375 10.2715-13.9688 10.4316-13.5 10.5117-13.0117 10.5117-12.5039 10.5117-11.6758 10.3262-10.9512 9.95508-10.3301 9.58398-9.70898 9.03516-9.25781 8.30859-8.97656 8.84766-8.90625 9.32227-8.74609 9.73242-8.49609 10.1426-8.24609 10.4863-7.93359 10.7637-7.55859 11.041-7.18359 11.25-6.75586 11.3906-6.27539 11.5312-5.79492 11.6016-5.29688 11.6016-4.78125ZM9.53906-4.62891C9.53906-5.08984 9.48242-5.51367 9.36914-5.90039 9.25586-6.28711 9.07812-6.62109 8.83594-6.90234 8.59375-7.18359 8.27539-7.40234 7.88086-7.55859 7.48633-7.71484 7.00781-7.79297 6.44531-7.79297L5.4375-7.79297C5.30469-7.79297 5.20508-7.85547 5.13867-7.98047 5.07227-8.10547 5.03906-8.30859 5.03906-8.58984 5.03906-8.73047 5.04883-8.85156 5.06836-8.95312 5.08789-9.05469 5.11328-9.13672 5.14453-9.19922 5.17578-9.26172 5.21484-9.30859 5.26172-9.33984 5.30859-9.37109 5.36328-9.38672 5.42578-9.38672L5.66016-9.38672C6.17578-9.38672 6.61523-9.4668 6.97852-9.62695 7.3418-9.78711 7.63672-10.002 7.86328-10.2715 8.08984-10.541 8.25391-10.8516 8.35547-11.2031 8.45703-11.5547 8.50781-11.9219 8.50781-12.3047 8.50781-12.6406 8.46875-12.9609 8.39062-13.2656 8.3125-13.5703 8.18555-13.8359 8.00977-14.0625 7.83398-14.2891 7.60156-14.4687 7.3125-14.6016 7.02344-14.7344 6.67578-14.8008 6.26953-14.8008 5.83984-14.8008 5.46484-14.7227 5.14453-14.5664 4.82422-14.4102 4.56055-14.1855 4.35352-13.8926 4.14648-13.5996 3.99023-13.2441 3.88477-12.8262 3.7793-12.4082 3.72656-11.9375 3.72656-11.4141L3.72656-2.49609C4.15625-2.13672 4.60938-1.87305 5.08594-1.70508 5.5625-1.53711 6.03516-1.45312 6.50391-1.45312 7.03516-1.45312 7.49414-1.5293 7.88086-1.68164 8.26758-1.83398 8.58203-2.04883 8.82422-2.32617 9.06641-2.60352 9.24609-2.93555 9.36328-3.32227 9.48047-3.70898 9.53906-4.14453 9.53906-4.62891Z" transform="matrix(1 0 0 0.998764 20.7722 36)"/></g></g></g><rect x="364.5" y="79.4018" width="56" height="55.9308" stroke="#000000" stroke-width="1.00042" stroke-linejoin="round" stroke-miterlimit="10" fill="url(#fill60)"/><text font-family="Calibri,Calibri_MSFontService,sans-serif" font-weight="400" font-size="24" transform="matrix(1 0 0 0.998764 385.772 115)">β</text><g clip-path="url(#clip61)"><g clip-path="url(#clip62)" filter="url(#fx12)" transform="translate(413 75)"><g clip-path="url(#clip63)"><rect x="6.5" y="6.49982" width="56" height="55.9308" stroke="#000000" stroke-linejoin="round" stroke-miterlimit="10" fill="#FF0000"/></g></g><g clip-path="url(#clip64)" filter="url(#fx13)" transform="translate(420 81)"><g clip-path="url(#clip65)"><path d="M13.1367-0.902344C13.1367-0.660156 13.123-0.480469 13.0957-0.363281 13.0684-0.246094 13.0293-0.164062 12.9785-0.117188 12.9277-0.0703125 12.8555-0.0273437 12.7617 0.0117188 12.668 0.0507812 12.5508 0.0839844 12.4102 0.111328 12.2695 0.138672 12.1289 0.162109 11.9883 0.181641 11.8477 0.201172 11.6992 0.210937 11.543 0.210938 11.2539 0.210937 10.9727 0.175781 10.6992 0.105469 10.4258 0.0351562 10.1816-0.0878906 9.9668-0.263672 9.75195-0.439453 9.57031-0.673828 9.42188-0.966797 9.27344-1.25977 9.17578-1.63281 9.12891-2.08594 8.98047-1.75 8.78906-1.44141 8.55469-1.16016 8.32031-0.878906 8.04883-0.634766 7.74023-0.427734 7.43164-0.220703 7.08984-0.0605469 6.71484 0.0527344 6.33984 0.166016 5.9375 0.222656 5.50781 0.222656 4.72656 0.222656 4.05859 0.078125 3.50391-0.210938 2.94922-0.5 2.49805-0.898438 2.15039-1.40625 1.80273-1.91406 1.54687-2.51562 1.38281-3.21094 1.21875-3.90625 1.13672-4.65234 1.13672-5.44922 1.13672-6.35547 1.23828-7.17187 1.44141-7.89844 1.64453-8.625 1.94727-9.24609 2.34961-9.76172 2.75195-10.2773 3.24609-10.6738 3.83203-10.9512 4.41797-11.2285 5.09766-11.3672 5.87109-11.3672 6.37109-11.3672 6.83984-11.2871 7.27734-11.127 7.71484-10.9668 8.10156-10.7305 8.4375-10.418 8.77344-10.1055 9.05078-9.7168 9.26953-9.25195 9.48828-8.78711 9.63281-8.24609 9.70312-7.62891 9.83594-8.19141 9.93945-8.67969 10.0137-9.09375 10.0879-9.50781 10.1426-9.85352 10.1777-10.1309 10.2129-10.4082 10.2402-10.623 10.2598-10.7754 10.2793-10.9277 10.3047-11.0195 10.3359-11.0508 10.3594-11.0664 10.3906-11.084 10.4297-11.1035 10.4688-11.123 10.5215-11.1406 10.5879-11.1562 10.6543-11.1719 10.7363-11.1836 10.834-11.1914 10.9316-11.1992 11.0469-11.2031 11.1797-11.2031 11.3672-11.2031 11.5215-11.1973 11.6426-11.1855 11.7637-11.1738 11.8594-11.1523 11.9297-11.1211 12-11.0898 12.0508-11.0508 12.082-11.0039 12.1133-10.957 12.1289-10.9062 12.1289-10.8516 12.1289-10.7266 12.1094-10.5332 12.0703-10.2715 12.0312-10.0098 11.9766-9.70117 11.9062-9.3457 11.8359-8.99023 11.75-8.60352 11.6484-8.18555 11.5469-7.76758 11.4395-7.3418 11.3262-6.9082 11.2129-6.47461 11.0898-6.05273 10.957-5.64258 10.8242-5.23242 10.6875-4.85547 10.5469-4.51172 10.5547-3.84766 10.5938-3.31445 10.6641-2.91211 10.7344-2.50977 10.8301-2.19727 10.9512-1.97461 11.0723-1.75195 11.207-1.60352 11.3555-1.5293 11.5039-1.45508 11.6602-1.41797 11.8242-1.41797 11.9648-1.41797 12.0937-1.43164 12.2109-1.45898 12.3281-1.48633 12.4316-1.51172 12.5215-1.53516 12.6113-1.55859 12.6895-1.58398 12.7559-1.61133 12.8223-1.63867 12.8789-1.65234 12.9258-1.65234 12.9648-1.65234 12.9961-1.64258 13.0195-1.62305 13.043-1.60352 13.0645-1.56641 13.084-1.51172 13.1035-1.45703 13.1172-1.38086 13.125-1.2832 13.1328-1.18555 13.1367-1.05859 13.1367-0.902344ZM8.60156-5.63672C8.60156-6.37109 8.52539-7 8.37305-7.52344 8.2207-8.04688 8.01953-8.47461 7.76953-8.80664 7.51953-9.13867 7.23242-9.38086 6.9082-9.5332 6.58398-9.68555 6.24609-9.76172 5.89453-9.76172 5.40234-9.76172 4.98242-9.64453 4.63477-9.41016 4.28711-9.17578 4.00195-8.86523 3.7793-8.47852 3.55664-8.0918 3.39453-7.65234 3.29297-7.16016 3.19141-6.66797 3.14062-6.16406 3.14062-5.64844 3.14062-5.09375 3.17969-4.56055 3.25781-4.04883 3.33594-3.53711 3.47656-3.08398 3.67969-2.68945 3.88281-2.29492 4.15039-1.97852 4.48242-1.74023 4.81445-1.50195 5.23828-1.38281 5.75391-1.38281 6.21484-1.38281 6.62305-1.48828 6.97852-1.69922 7.33398-1.91016 7.63086-2.20508 7.86914-2.58398 8.10742-2.96289 8.28906-3.4082 8.41406-3.91992 8.53906-4.43164 8.60156-4.98828 8.60156-5.58984Z" transform="matrix(1 0 0 0.998764 20.6407 36)"/></g></g></g><rect x="419.5" y="79.4018" width="56" height="55.9308" stroke="#000000" stroke-width="1.00042" stroke-linejoin="round" stroke-miterlimit="10" fill="url(#fill66)"/><text font-family="Calibri,Calibri_MSFontService,sans-serif" font-weight="400" font-size="24" transform="matrix(1 0 0 0.998764 440.641 115)">α</text><g clip-path="url(#clip67)"><g clip-path="url(#clip68)" filter="url(#fx14)" transform="translate(469 75)"><g clip-path="url(#clip69)"><rect x="6.5" y="6.49982" width="57" height="55.9308" stroke="#000000" stroke-linejoin="round" stroke-miterlimit="10" fill="#FF0000"/></g></g><g clip-path="url(#clip70)" filter="url(#fx15)" transform="translate(476 81)"><g clip-path="url(#clip71)"><path d="M13.1367-0.902344C13.1367-0.660156 13.123-0.480469 13.0957-0.363281 13.0684-0.246094 13.0293-0.164062 12.9785-0.117188 12.9277-0.0703125 12.8555-0.0273437 12.7617 0.0117188 12.668 0.0507812 12.5508 0.0839844 12.4102 0.111328 12.2695 0.138672 12.1289 0.162109 11.9883 0.181641 11.8477 0.201172 11.6992 0.210937 11.543 0.210938 11.2539 0.210937 10.9727 0.175781 10.6992 0.105469 10.4258 0.0351562 10.1816-0.0878906 9.9668-0.263672 9.75195-0.439453 9.57031-0.673828 9.42188-0.966797 9.27344-1.25977 9.17578-1.63281 9.12891-2.08594 8.98047-1.75 8.78906-1.44141 8.55469-1.16016 8.32031-0.878906 8.04883-0.634766 7.74023-0.427734 7.43164-0.220703 7.08984-0.0605469 6.71484 0.0527344 6.33984 0.166016 5.9375 0.222656 5.50781 0.222656 4.72656 0.222656 4.05859 0.078125 3.50391-0.210938 2.94922-0.5 2.49805-0.898438 2.15039-1.40625 1.80273-1.91406 1.54687-2.51562 1.38281-3.21094 1.21875-3.90625 1.13672-4.65234 1.13672-5.44922 1.13672-6.35547 1.23828-7.17187 1.44141-7.89844 1.64453-8.625 1.94727-9.24609 2.34961-9.76172 2.75195-10.2773 3.24609-10.6738 3.83203-10.9512 4.41797-11.2285 5.09766-11.3672 5.87109-11.3672 6.37109-11.3672 6.83984-11.2871 7.27734-11.127 7.71484-10.9668 8.10156-10.7305 8.4375-10.418 8.77344-10.1055 9.05078-9.7168 9.26953-9.25195 9.48828-8.78711 9.63281-8.24609 9.70312-7.62891 9.83594-8.19141 9.93945-8.67969 10.0137-9.09375 10.0879-9.50781 10.1426-9.85352 10.1777-10.1309 10.2129-10.4082 10.2402-10.623 10.2598-10.7754 10.2793-10.9277 10.3047-11.0195 10.3359-11.0508 10.3594-11.0664 10.3906-11.084 10.4297-11.1035 10.4688-11.123 10.5215-11.1406 10.5879-11.1562 10.6543-11.1719 10.7363-11.1836 10.834-11.1914 10.9316-11.1992 11.0469-11.2031 11.1797-11.2031 11.3672-11.2031 11.5215-11.1973 11.6426-11.1855 11.7637-11.1738 11.8594-11.1523 11.9297-11.1211 12-11.0898 12.0508-11.0508 12.082-11.0039 12.1133-10.957 12.1289-10.9062 12.1289-10.8516 12.1289-10.7266 12.1094-10.5332 12.0703-10.2715 12.0312-10.0098 11.9766-9.70117 11.9062-9.3457 11.8359-8.99023 11.75-8.60352 11.6484-8.18555 11.5469-7.76758 11.4395-7.3418 11.3262-6.9082 11.2129-6.47461 11.0898-6.05273 10.957-5.64258 10.8242-5.23242 10.6875-4.85547 10.5469-4.51172 10.5547-3.84766 10.5938-3.31445 10.6641-2.91211 10.7344-2.50977 10.8301-2.19727 10.9512-1.97461 11.0723-1.75195 11.207-1.60352 11.3555-1.5293 11.5039-1.45508 11.6602-1.41797 11.8242-1.41797 11.9648-1.41797 12.0937-1.43164 12.2109-1.45898 12.3281-1.48633 12.4316-1.51172 12.5215-1.53516 12.6113-1.55859 12.6895-1.58398 12.7559-1.61133 12.8223-1.63867 12.8789-1.65234 12.9258-1.65234 12.9648-1.65234 12.9961-1.64258 13.0195-1.62305 13.043-1.60352 13.0645-1.56641 13.084-1.51172 13.1035-1.45703 13.1172-1.38086 13.125-1.2832 13.1328-1.18555 13.1367-1.05859 13.1367-0.902344ZM8.60156-5.63672C8.60156-6.37109 8.52539-7 8.37305-7.52344 8.2207-8.04688 8.01953-8.47461 7.76953-8.80664 7.51953-9.13867 7.23242-9.38086 6.9082-9.5332 6.58398-9.68555 6.24609-9.76172 5.89453-9.76172 5.40234-9.76172 4.98242-9.64453 4.63477-9.41016 4.28711-9.17578 4.00195-8.86523 3.7793-8.47852 3.55664-8.0918 3.39453-7.65234 3.29297-7.16016 3.19141-6.66797 3.14062-6.16406 3.14062-5.64844 3.14062-5.09375 3.17969-4.56055 3.25781-4.04883 3.33594-3.53711 3.47656-3.08398 3.67969-2.68945 3.88281-2.29492 4.15039-1.97852 4.48242-1.74023 4.81445-1.50195 5.23828-1.38281 5.75391-1.38281 6.21484-1.38281 6.62305-1.48828 6.97852-1.69922 7.33398-1.91016 7.63086-2.20508 7.86914-2.58398 8.10742-2.96289 8.28906-3.4082 8.41406-3.91992 8.53906-4.43164 8.60156-4.98828 8.60156-5.58984Z" transform="matrix(1 0 0 0.998764 20.6642 36)"/></g></g></g><rect x="475.5" y="79.4018" width="57" height="55.9308" stroke="#000000" stroke-width="1.00042" stroke-linejoin="round" stroke-miterlimit="10" fill="url(#fill72)"/><text font-family="Calibri,Calibri_MSFontService,sans-serif" font-weight="400" font-size="24" transform="matrix(1 0 0 0.998764 496.664 115)">α</text><g clip-path="url(#clip73)"><g clip-path="url(#clip74)" filter="url(#fx16)" transform="translate(526 75)"><g clip-path="url(#clip75)"><rect x="6.5" y="6.49982" width="56" height="55.9308" stroke="#000000" stroke-linejoin="round" stroke-miterlimit="10" fill="#FF0000"/></g></g><g clip-path="url(#clip76)" filter="url(#fx17)" transform="translate(533 81)"><g clip-path="url(#clip77)"><path d="M11.6016-4.78125C11.6016-4.09375 11.5039-3.44727 11.3086-2.8418 11.1133-2.23633 10.8125-1.70703 10.4062-1.25391 10-0.800781 9.48242-0.443359 8.85352-0.181641 8.22461 0.0800781 7.47266 0.210937 6.59766 0.210938 6.29297 0.210937 6 0.189453 5.71875 0.146484 5.4375 0.103516 5.17383 0.0429687 4.92773-0.0351562 4.68164-0.113281 4.45312-0.208984 4.24219-0.322266 4.03125-0.435547 3.83594-0.5625 3.65625-0.703125 3.67969-0.46875 3.69727-0.220703 3.70898 0.0410156 3.7207 0.302734 3.72656 0.558594 3.72656 0.808594L3.72656 3.89062C3.72656 3.95312 3.71094 4.00781 3.67969 4.05469 3.64844 4.10156 3.59766 4.14062 3.52734 4.17188 3.45703 4.20312 3.35937 4.22656 3.23438 4.24219 3.10937 4.25781 2.94922 4.26562 2.75391 4.26562 2.56641 4.26562 2.41016 4.25781 2.28516 4.24219 2.16016 4.22656 2.06055 4.20312 1.98633 4.17188 1.91211 4.14062 1.86133 4.10156 1.83398 4.05469 1.80664 4.00781 1.79297 3.95312 1.79297 3.89062L1.79297-11.4023C1.79297-12.1992 1.90234-12.9082 2.12109-13.5293 2.33984-14.1504 2.64844-14.6738 3.04688-15.0996 3.44531-15.5254 3.92578-15.8516 4.48828-16.0781 5.05078-16.3047 5.67188-16.418 6.35156-16.418 7.07031-16.418 7.69336-16.3105 8.2207-16.0957 8.74805-15.8809 9.18164-15.5898 9.52148-15.2227 9.86133-14.8555 10.1113-14.4375 10.2715-13.9688 10.4316-13.5 10.5117-13.0117 10.5117-12.5039 10.5117-11.6758 10.3262-10.9512 9.95508-10.3301 9.58398-9.70898 9.03516-9.25781 8.30859-8.97656 8.84766-8.90625 9.32227-8.74609 9.73242-8.49609 10.1426-8.24609 10.4863-7.93359 10.7637-7.55859 11.041-7.18359 11.25-6.75586 11.3906-6.27539 11.5312-5.79492 11.6016-5.29688 11.6016-4.78125ZM9.53906-4.62891C9.53906-5.08984 9.48242-5.51367 9.36914-5.90039 9.25586-6.28711 9.07812-6.62109 8.83594-6.90234 8.59375-7.18359 8.27539-7.40234 7.88086-7.55859 7.48633-7.71484 7.00781-7.79297 6.44531-7.79297L5.4375-7.79297C5.30469-7.79297 5.20508-7.85547 5.13867-7.98047 5.07227-8.10547 5.03906-8.30859 5.03906-8.58984 5.03906-8.73047 5.04883-8.85156 5.06836-8.95312 5.08789-9.05469 5.11328-9.13672 5.14453-9.19922 5.17578-9.26172 5.21484-9.30859 5.26172-9.33984 5.30859-9.37109 5.36328-9.38672 5.42578-9.38672L5.66016-9.38672C6.17578-9.38672 6.61523-9.4668 6.97852-9.62695 7.3418-9.78711 7.63672-10.002 7.86328-10.2715 8.08984-10.541 8.25391-10.8516 8.35547-11.2031 8.45703-11.5547 8.50781-11.9219 8.50781-12.3047 8.50781-12.6406 8.46875-12.9609 8.39062-13.2656 8.3125-13.5703 8.18555-13.8359 8.00977-14.0625 7.83398-14.2891 7.60156-14.4687 7.3125-14.6016 7.02344-14.7344 6.67578-14.8008 6.26953-14.8008 5.83984-14.8008 5.46484-14.7227 5.14453-14.5664 4.82422-14.4102 4.56055-14.1855 4.35352-13.8926 4.14648-13.5996 3.99023-13.2441 3.88477-12.8262 3.7793-12.4082 3.72656-11.9375 3.72656-11.4141L3.72656-2.49609C4.15625-2.13672 4.60938-1.87305 5.08594-1.70508 5.5625-1.53711 6.03516-1.45312 6.50391-1.45312 7.03516-1.45312 7.49414-1.5293 7.88086-1.68164 8.26758-1.83398 8.58203-2.04883 8.82422-2.32617 9.06641-2.60352 9.24609-2.93555 9.36328-3.32227 9.48047-3.70898 9.53906-4.14453 9.53906-4.62891Z" transform="matrix(1 0 0 0.998764 20.1046 36)"/></g></g></g><rect x="532.5" y="79.4018" width="56" height="55.9308" stroke="#000000" stroke-width="1.00042" stroke-linejoin="round" stroke-miterlimit="10" fill="url(#fill78)"/><text font-family="Calibri,Calibri_MSFontService,sans-serif" font-weight="400" font-size="24" transform="matrix(1 0 0 0.998764 553.105 115)">β</text><g clip-path="url(#clip79)"><g clip-path="url(#clip80)" filter="url(#fx18)" transform="translate(582 75)"><g clip-path="url(#clip81)"><rect x="6.5" y="6.49982" width="56" height="55.9308" stroke="#000000" stroke-linejoin="round" stroke-miterlimit="10" fill="#FF0000"/></g></g><g clip-path="url(#clip82)" filter="url(#fx19)" transform="translate(590 81)"><g clip-path="url(#clip83)"><path d="M9.84375-10.8398C9.84375-9.94141 9.76172-9.05273 9.59766-8.17383 9.43359-7.29492 9.17188-6.4082 8.8125-5.51367 8.45312-4.61914 7.99023-3.71289 7.42383-2.79492 6.85742-1.87695 6.17187-0.9375 5.36719 0.0234375 5.40625 0.375 5.43945 0.720703 5.4668 1.06055 5.49414 1.40039 5.51562 1.73437 5.53125 2.0625 5.54688 2.39062 5.55664 2.70898 5.56055 3.01758 5.56445 3.32617 5.56641 3.61719 5.56641 3.89062 5.56641 3.95312 5.55078 4.00586 5.51953 4.04883 5.48828 4.0918 5.4375 4.125 5.36719 4.14844 5.29688 4.17188 5.19922 4.18945 5.07422 4.20117 4.94922 4.21289 4.79297 4.21875 4.60547 4.21875 4.41797 4.21875 4.26172 4.21289 4.13672 4.20117 4.01172 4.18945 3.91211 4.17188 3.83789 4.14844 3.76367 4.125 3.71289 4.0918 3.68555 4.04883 3.6582 4.00586 3.64453 3.95312 3.64453 3.89062 3.64453 3.32031 3.63086 2.79102 3.60352 2.30273 3.57617 1.81445 3.53906 1.33984 3.49219 0.878906 3.44531 0.417969 3.38867-0.0371094 3.32227-0.486328 3.25586-0.935547 3.17383-1.41016 3.07617-1.91016 2.97852-2.41016 2.85742-2.94922 2.71289-3.52734 2.56836-4.10547 2.39258-4.74414 2.18555-5.44336 1.97852-6.14258 1.73242-6.91797 1.44727-7.76953 1.16211-8.62109 0.824219-9.55469 0.433594-10.5703 0.332031-10.8281 0.341797-10.998 0.462891-11.0801 0.583984-11.1621 0.875-11.2031 1.33594-11.2031 1.55469-11.2031 1.73437-11.1973 1.875-11.1855 2.01562-11.1738 2.12891-11.1523 2.21484-11.1211 2.30078-11.0898 2.36523-11.0527 2.4082-11.0098 2.45117-10.9668 2.48828-10.9102 2.51953-10.8398 2.92578-9.76172 3.27344-8.76758 3.5625-7.85742 3.85156-6.94727 4.09375-6.12891 4.28906-5.40234 4.48438-4.67578 4.62891-4.04492 4.72266-3.50977 4.81641-2.97461 4.87891-2.55078 4.91016-2.23828 5.41797-2.93359 5.85938-3.63281 6.23438-4.33594 6.60937-5.03906 6.91992-5.74805 7.16602-6.46289 7.41211-7.17773 7.5957-7.89844 7.7168-8.625 7.83789-9.35156 7.89844-10.0898 7.89844-10.8398 7.89844-10.9648 7.97656-11.0566 8.13281-11.1152 8.28906-11.1738 8.55469-11.2031 8.92969-11.2031 9.125-11.2031 9.28125-11.1973 9.39844-11.1855 9.51562-11.1738 9.60742-11.1523 9.67383-11.1211 9.74023-11.0898 9.78516-11.0508 9.80859-11.0039 9.83203-10.957 9.84375-10.9023 9.84375-10.8398Z" transform="matrix(1 0 0 0.998764 20.212 36)"/></g></g></g><rect x="588.5" y="79.4018" width="56" height="55.9308" stroke="#000000" stroke-width="1.00042" stroke-linejoin="round" stroke-miterlimit="10" fill="url(#fill84)"/><text font-family="Calibri,Calibri_MSFontService,sans-serif" font-weight="400" font-size="24" transform="matrix(1 0 0 0.998764 610.212 115)">γ</text><g clip-path="url(#clip85)"><g clip-path="url(#clip86)" filter="url(#fx20)" transform="translate(637 75)"><g clip-path="url(#clip87)"><rect x="6.49994" y="6.49982" width="56" height="55.9308" stroke="#000000" stroke-linejoin="round" stroke-miterlimit="10" fill="#FF0000"/></g></g><g clip-path="url(#clip88)" filter="url(#fx21)" transform="translate(643 81)"><g clip-path="url(#clip89)"><path d="M13.1367-0.902344C13.1367-0.660156 13.123-0.480469 13.0957-0.363281 13.0684-0.246094 13.0293-0.164062 12.9785-0.117188 12.9277-0.0703125 12.8555-0.0273437 12.7617 0.0117188 12.668 0.0507812 12.5508 0.0839844 12.4102 0.111328 12.2695 0.138672 12.1289 0.162109 11.9883 0.181641 11.8477 0.201172 11.6992 0.210937 11.543 0.210938 11.2539 0.210937 10.9727 0.175781 10.6992 0.105469 10.4258 0.0351562 10.1816-0.0878906 9.9668-0.263672 9.75195-0.439453 9.57031-0.673828 9.42188-0.966797 9.27344-1.25977 9.17578-1.63281 9.12891-2.08594 8.98047-1.75 8.78906-1.44141 8.55469-1.16016 8.32031-0.878906 8.04883-0.634766 7.74023-0.427734 7.43164-0.220703 7.08984-0.0605469 6.71484 0.0527344 6.33984 0.166016 5.9375 0.222656 5.50781 0.222656 4.72656 0.222656 4.05859 0.078125 3.50391-0.210938 2.94922-0.5 2.49805-0.898438 2.15039-1.40625 1.80273-1.91406 1.54687-2.51562 1.38281-3.21094 1.21875-3.90625 1.13672-4.65234 1.13672-5.44922 1.13672-6.35547 1.23828-7.17187 1.44141-7.89844 1.64453-8.625 1.94727-9.24609 2.34961-9.76172 2.75195-10.2773 3.24609-10.6738 3.83203-10.9512 4.41797-11.2285 5.09766-11.3672 5.87109-11.3672 6.37109-11.3672 6.83984-11.2871 7.27734-11.127 7.71484-10.9668 8.10156-10.7305 8.4375-10.418 8.77344-10.1055 9.05078-9.7168 9.26953-9.25195 9.48828-8.78711 9.63281-8.24609 9.70312-7.62891 9.83594-8.19141 9.93945-8.67969 10.0137-9.09375 10.0879-9.50781 10.1426-9.85352 10.1777-10.1309 10.2129-10.4082 10.2402-10.623 10.2598-10.7754 10.2793-10.9277 10.3047-11.0195 10.3359-11.0508 10.3594-11.0664 10.3906-11.084 10.4297-11.1035 10.4688-11.123 10.5215-11.1406 10.5879-11.1562 10.6543-11.1719 10.7363-11.1836 10.834-11.1914 10.9316-11.1992 11.0469-11.2031 11.1797-11.2031 11.3672-11.2031 11.5215-11.1973 11.6426-11.1855 11.7637-11.1738 11.8594-11.1523 11.9297-11.1211 12-11.0898 12.0508-11.0508 12.082-11.0039 12.1133-10.957 12.1289-10.9062 12.1289-10.8516 12.1289-10.7266 12.1094-10.5332 12.0703-10.2715 12.0312-10.0098 11.9766-9.70117 11.9062-9.3457 11.8359-8.99023 11.75-8.60352 11.6484-8.18555 11.5469-7.76758 11.4395-7.3418 11.3262-6.9082 11.2129-6.47461 11.0898-6.05273 10.957-5.64258 10.8242-5.23242 10.6875-4.85547 10.5469-4.51172 10.5547-3.84766 10.5938-3.31445 10.6641-2.91211 10.7344-2.50977 10.8301-2.19727 10.9512-1.97461 11.0723-1.75195 11.207-1.60352 11.3555-1.5293 11.5039-1.45508 11.6602-1.41797 11.8242-1.41797 11.9648-1.41797 12.0937-1.43164 12.2109-1.45898 12.3281-1.48633 12.4316-1.51172 12.5215-1.53516 12.6113-1.55859 12.6895-1.58398 12.7559-1.61133 12.8223-1.63867 12.8789-1.65234 12.9258-1.65234 12.9648-1.65234 12.9961-1.64258 13.0195-1.62305 13.043-1.60352 13.0645-1.56641 13.084-1.51172 13.1035-1.45703 13.1172-1.38086 13.125-1.2832 13.1328-1.18555 13.1367-1.05859 13.1367-0.902344ZM8.60156-5.63672C8.60156-6.37109 8.52539-7 8.37305-7.52344 8.2207-8.04688 8.01953-8.47461 7.76953-8.80664 7.51953-9.13867 7.23242-9.38086 6.9082-9.5332 6.58398-9.68555 6.24609-9.76172 5.89453-9.76172 5.40234-9.76172 4.98242-9.64453 4.63477-9.41016 4.28711-9.17578 4.00195-8.86523 3.7793-8.47852 3.55664-8.0918 3.39453-7.65234 3.29297-7.16016 3.19141-6.66797 3.14062-6.16406 3.14062-5.64844 3.14062-5.09375 3.17969-4.56055 3.25781-4.04883 3.33594-3.53711 3.47656-3.08398 3.67969-2.68945 3.88281-2.29492 4.15039-1.97852 4.48242-1.74023 4.81445-1.50195 5.23828-1.38281 5.75391-1.38281 6.21484-1.38281 6.62305-1.48828 6.97852-1.69922 7.33398-1.91016 7.63086-2.20508 7.86914-2.58398 8.10742-2.96289 8.28906-3.4082 8.41406-3.91992 8.53906-4.43164 8.60156-4.98828 8.60156-5.58984Z" transform="matrix(1 0 0 0.998764 20.9966 36)"/></g></g></g><rect x="643.5" y="79.4018" width="56" height="55.9308" stroke="#000000" stroke-width="1.00042" stroke-linejoin="round" stroke-miterlimit="10" fill="url(#fill90)"/><text font-family="Calibri,Calibri_MSFontService,sans-serif" font-weight="400" font-size="24" transform="matrix(1 0 0 0.998764 663.997 115)">α</text><g clip-path="url(#clip91)"><g clip-path="url(#clip92)" filter="url(#fx22)" transform="translate(693 75)"><g clip-path="url(#clip93)"><rect x="6.49994" y="6.49982" width="56" height="55.9308" stroke="#000000" stroke-linejoin="round" stroke-miterlimit="10" fill="#FF0000"/></g></g><g clip-path="url(#clip94)" filter="url(#fx23)" transform="translate(700 81)"><g clip-path="url(#clip95)"><path d="M11.6016-4.78125C11.6016-4.09375 11.5039-3.44727 11.3086-2.8418 11.1133-2.23633 10.8125-1.70703 10.4062-1.25391 10-0.800781 9.48242-0.443359 8.85352-0.181641 8.22461 0.0800781 7.47266 0.210937 6.59766 0.210938 6.29297 0.210937 6 0.189453 5.71875 0.146484 5.4375 0.103516 5.17383 0.0429687 4.92773-0.0351562 4.68164-0.113281 4.45312-0.208984 4.24219-0.322266 4.03125-0.435547 3.83594-0.5625 3.65625-0.703125 3.67969-0.46875 3.69727-0.220703 3.70898 0.0410156 3.7207 0.302734 3.72656 0.558594 3.72656 0.808594L3.72656 3.89062C3.72656 3.95312 3.71094 4.00781 3.67969 4.05469 3.64844 4.10156 3.59766 4.14062 3.52734 4.17188 3.45703 4.20312 3.35937 4.22656 3.23438 4.24219 3.10937 4.25781 2.94922 4.26562 2.75391 4.26562 2.56641 4.26562 2.41016 4.25781 2.28516 4.24219 2.16016 4.22656 2.06055 4.20312 1.98633 4.17188 1.91211 4.14062 1.86133 4.10156 1.83398 4.05469 1.80664 4.00781 1.79297 3.95312 1.79297 3.89062L1.79297-11.4023C1.79297-12.1992 1.90234-12.9082 2.12109-13.5293 2.33984-14.1504 2.64844-14.6738 3.04688-15.0996 3.44531-15.5254 3.92578-15.8516 4.48828-16.0781 5.05078-16.3047 5.67188-16.418 6.35156-16.418 7.07031-16.418 7.69336-16.3105 8.2207-16.0957 8.74805-15.8809 9.18164-15.5898 9.52148-15.2227 9.86133-14.8555 10.1113-14.4375 10.2715-13.9688 10.4316-13.5 10.5117-13.0117 10.5117-12.5039 10.5117-11.6758 10.3262-10.9512 9.95508-10.3301 9.58398-9.70898 9.03516-9.25781 8.30859-8.97656 8.84766-8.90625 9.32227-8.74609 9.73242-8.49609 10.1426-8.24609 10.4863-7.93359 10.7637-7.55859 11.041-7.18359 11.25-6.75586 11.3906-6.27539 11.5312-5.79492 11.6016-5.29688 11.6016-4.78125ZM9.53906-4.62891C9.53906-5.08984 9.48242-5.51367 9.36914-5.90039 9.25586-6.28711 9.07812-6.62109 8.83594-6.90234 8.59375-7.18359 8.27539-7.40234 7.88086-7.55859 7.48633-7.71484 7.00781-7.79297 6.44531-7.79297L5.4375-7.79297C5.30469-7.79297 5.20508-7.85547 5.13867-7.98047 5.07227-8.10547 5.03906-8.30859 5.03906-8.58984 5.03906-8.73047 5.04883-8.85156 5.06836-8.95312 5.08789-9.05469 5.11328-9.13672 5.14453-9.19922 5.17578-9.26172 5.21484-9.30859 5.26172-9.33984 5.30859-9.37109 5.36328-9.38672 5.42578-9.38672L5.66016-9.38672C6.17578-9.38672 6.61523-9.4668 6.97852-9.62695 7.3418-9.78711 7.63672-10.002 7.86328-10.2715 8.08984-10.541 8.25391-10.8516 8.35547-11.2031 8.45703-11.5547 8.50781-11.9219 8.50781-12.3047 8.50781-12.6406 8.46875-12.9609 8.39062-13.2656 8.3125-13.5703 8.18555-13.8359 8.00977-14.0625 7.83398-14.2891 7.60156-14.4687 7.3125-14.6016 7.02344-14.7344 6.67578-14.8008 6.26953-14.8008 5.83984-14.8008 5.46484-14.7227 5.14453-14.5664 4.82422-14.4102 4.56055-14.1855 4.35352-13.8926 4.14648-13.5996 3.99023-13.2441 3.88477-12.8262 3.7793-12.4082 3.72656-11.9375 3.72656-11.4141L3.72656-2.49609C4.15625-2.13672 4.60938-1.87305 5.08594-1.70508 5.5625-1.53711 6.03516-1.45312 6.50391-1.45312 7.03516-1.45312 7.49414-1.5293 7.88086-1.68164 8.26758-1.83398 8.58203-2.04883 8.82422-2.32617 9.06641-2.60352 9.24609-2.93555 9.36328-3.32227 9.48047-3.70898 9.53906-4.14453 9.53906-4.62891Z" transform="matrix(1 0 0 0.998764 20.437 36)"/></g></g></g><rect x="699.5" y="79.4018" width="56" height="55.9308" stroke="#000000" stroke-width="1.00042" stroke-linejoin="round" stroke-miterlimit="10" fill="url(#fill96)"/><text font-family="Calibri,Calibri_MSFontService,sans-serif" font-weight="400" font-size="24" transform="matrix(1 0 0 0.998764 720.437 115)">β</text><rect x="85.5" y="143.323" width="56" height="55.9308" stroke="#000000" stroke-width="2.66779" stroke-linejoin="round" stroke-miterlimit="10" fill="#FFFFFF"/><text font-family="Calibri,Calibri_MSFontService,sans-serif" font-weight="700" font-size="24" transform="matrix(1 0 0 0.998764 101.009 178)">12</text><rect x="141.5" y="143.323" width="56" height="55.9308" stroke="#000000" stroke-width="2.66779" stroke-linejoin="round" stroke-miterlimit="10" fill="#FFFFFF"/><text font-family="Calibri,Calibri_MSFontService,sans-serif" font-weight="400" font-size="24" transform="matrix(1 0 0 0.998764 163.119 178)">0</text><rect x="196.5" y="143.323" width="57" height="55.9308" stroke="#000000" stroke-width="2.66779" stroke-linejoin="round" stroke-miterlimit="10" fill="#FFFFFF"/><text font-family="Calibri,Calibri_MSFontService,sans-serif" font-weight="700" font-size="24" transform="matrix(1 0 0 0.998764 218.404 178)">5</text><rect x="253.5" y="143.323" width="56" height="55.9308" stroke="#000000" stroke-width="2.66779" stroke-linejoin="round" stroke-miterlimit="10" fill="#FFFFFF"/><text font-family="Calibri,Calibri_MSFontService,sans-serif" font-weight="400" font-size="24" transform="matrix(1 0 0 0.998764 274.428 178)">0</text><rect x="309.5" y="143.323" width="56" height="55.9308" stroke="#000000" stroke-width="2.66779" stroke-linejoin="round" stroke-miterlimit="10" fill="#FFFFFF"/><text font-family="Calibri,Calibri_MSFontService,sans-serif" font-weight="700" font-size="24" transform="matrix(1 0 0 0.998764 330.451 178)">3</text><rect x="365.5" y="143.323" width="56" height="55.9308" stroke="#000000" stroke-width="2.66779" stroke-linejoin="round" stroke-miterlimit="10" fill="#FFFFFF"/><text font-family="Calibri,Calibri_MSFontService,sans-serif" font-weight="400" font-size="24" transform="matrix(1 0 0 0.998764 386.475 178)">0</text><rect x="420.5" y="143.323" width="56" height="55.9308" stroke="#000000" stroke-width="2.66779" stroke-linejoin="round" stroke-miterlimit="10" fill="#FFFFFF"/><text font-family="Calibri,Calibri_MSFontService,sans-serif" font-weight="700" font-size="24" transform="matrix(1 0 0 0.998764 441.76 178)">1</text><rect x="476.5" y="143.323" width="56" height="55.9308" stroke="#000000" stroke-width="2.66779" stroke-linejoin="round" stroke-miterlimit="10" fill="#FFFFFF"/><text font-family="Calibri,Calibri_MSFontService,sans-serif" font-weight="700" font-size="24" transform="matrix(1 0 0 0.998764 497.784 178)">2</text><rect x="532.5" y="143.323" width="56" height="55.9308" stroke="#000000" stroke-width="2.66779" stroke-linejoin="round" stroke-miterlimit="10" fill="#FFFFFF"/><text font-family="Calibri,Calibri_MSFontService,sans-serif" font-weight="400" font-size="24" transform="matrix(1 0 0 0.998764 553.807 178)">0</text><rect x="588.5" y="143.323" width="56" height="55.9308" stroke="#000000" stroke-width="2.66779" stroke-linejoin="round" stroke-miterlimit="10" fill="#FFFFFF"/><text font-family="Calibri,Calibri_MSFontService,sans-serif" font-weight="400" font-size="24" transform="matrix(1 0 0 0.998764 609.831 178)">0</text><rect x="643.5" y="143.323" width="56" height="55.9308" stroke="#000000" stroke-width="2.66779" stroke-linejoin="round" stroke-miterlimit="10" fill="#FFFFFF"/><text font-family="Calibri,Calibri_MSFontService,sans-serif" font-weight="700" font-size="24" transform="matrix(1 0 0 0.998764 665.116 178)">2</text><rect x="699.5" y="143.323" width="56" height="55.9308" stroke="#000000" stroke-width="2.66779" stroke-linejoin="round" stroke-miterlimit="10" fill="#FFFFFF"/><text font-family="Calibri,Calibri_MSFontService,sans-serif" font-weight="400" font-size="24" transform="matrix(1 0 0 0.998764 721.14 178)">0<tspan font-weight="700" font-size="27" x="-672.519" y="-63.078">S</tspan><tspan font-weight="700" font-size="27" x="-659.847" y="-63.078">:</tspan><tspan font-weight="700" font-size="27" x="-693.93" y="1.00124">Z[i]</tspan><tspan font-weight="700" font-size="27" x="-657.415" y="1.00124">:</tspan></text><path d="M0 0 0.000104901 31.9739" stroke="#000000" stroke-width="0.999184" stroke-linejoin="round" stroke-miterlimit="10" fill="none" fill-rule="evenodd" transform="matrix(1.00124 0 0 -1 476.5 79.4152)"/><path d="M0 0 0.000104901 31.9739" stroke="#000000" stroke-width="0.999184" stroke-linejoin="round" stroke-miterlimit="10" fill="none" fill-rule="evenodd" transform="matrix(1.00124 0 0 -1 644.5 79.4152)"/><rect x="310.5" y="23.471" width="12" height="20.974" stroke="#FFFFFF" stroke-width="2.66779" stroke-linejoin="round" stroke-miterlimit="10" fill="#C3D69B"/><text font-family="Calibri,Calibri_MSFontService,sans-serif" font-weight="400" font-size="19" transform="matrix(1 0 0 0.998764 310.591 39)">α</text><rect x="322.5" y="23.471" width="12" height="20.974" stroke="#FFFFFF" stroke-width="2.66779" stroke-linejoin="round" stroke-miterlimit="10" fill="#C3D69B"/><text font-family="Calibri,Calibri_MSFontService,sans-serif" font-weight="400" font-size="19" transform="matrix(1 0 0 0.998764 323.125 39)">β</text><rect x="334.5" y="23.471" width="12" height="20.974" stroke="#FFFFFF" stroke-width="2.66779" stroke-linejoin="round" stroke-miterlimit="10" fill="#C3D69B"/><text font-family="Calibri,Calibri_MSFontService,sans-serif" font-weight="400" font-size="19" transform="matrix(1 0 0 0.998764 334.831 39)">α</text><rect x="346.5" y="23.471" width="12" height="20.974" stroke="#FFFFFF" stroke-width="2.66779" stroke-linejoin="round" stroke-miterlimit="10" fill="#FFFFFF"/><text font-family="Calibri,Calibri_MSFontService,sans-serif" font-weight="400" font-size="19" transform="matrix(1 0 0 0.998764 347.365 39)">β</text><rect x="358.5" y="23.471" width="13" height="20.974" stroke="#FFFFFF" stroke-width="2.66779" stroke-linejoin="round" stroke-miterlimit="10" fill="#FFFFFF"/><text font-family="Calibri,Calibri_MSFontService,sans-serif" font-weight="400" font-size="19" transform="matrix(1 0 0 0.998764 359.231 39)">α</text><rect x="371.5" y="23.471" width="12" height="20.974" stroke="#FFFFFF" stroke-width="2.66779" stroke-linejoin="round" stroke-miterlimit="10" fill="#FFFFFF"/><text font-family="Calibri,Calibri_MSFontService,sans-serif" font-weight="400" font-size="19" transform="matrix(1 0 0 0.998764 371.765 39)">β</text><rect x="383.5" y="23.471" width="12" height="20.974" stroke="#FFFFFF" stroke-width="2.66779" stroke-linejoin="round" stroke-miterlimit="10" fill="#FFFFFF"/><text font-family="Calibri,Calibri_MSFontService,sans-serif" font-weight="400" font-size="19" transform="matrix(1 0 0 0.998764 383.471 39)">α</text><rect x="395.5" y="23.471" width="12" height="20.974" stroke="#FFFFFF" stroke-width="2.66779" stroke-linejoin="round" stroke-miterlimit="10" fill="#FFFFFF"/><text font-family="Calibri,Calibri_MSFontService,sans-serif" font-weight="400" font-size="19" transform="matrix(1 0 0 0.998764 395.672 39)">α</text><rect x="407.5" y="23.471" width="12" height="20.974" stroke="#FFFFFF" stroke-width="2.66779" stroke-linejoin="round" stroke-miterlimit="10" fill="#FFFFFF"/><text font-family="Calibri,Calibri_MSFontService,sans-serif" font-weight="400" font-size="19" transform="matrix(1 0 0 0.998764 408.206 39)">β</text><rect x="419.5" y="23.471" width="13" height="20.974" stroke="#FFFFFF" stroke-width="2.66779" stroke-linejoin="round" stroke-miterlimit="10" fill="#FFFFFF"/><text font-family="Calibri,Calibri_MSFontService,sans-serif" font-weight="400" font-size="19" transform="matrix(1 0 0 0.998764 421.24 39)">γ</text><rect x="431.5" y="23.471" width="13" height="20.974" stroke="#FFFFFF" stroke-width="2.66779" stroke-linejoin="round" stroke-miterlimit="10" fill="#FFFFFF"/><text font-family="Calibri,Calibri_MSFontService,sans-serif" font-weight="400" font-size="19" transform="matrix(1 0 0 0.998764 432.112 39)">α</text><rect x="444.5" y="23.471" width="12" height="20.974" stroke="#FFFFFF" stroke-width="2.66779" stroke-linejoin="round" stroke-miterlimit="10" fill="#FFFFFF"/><text font-family="Calibri,Calibri_MSFontService,sans-serif" font-weight="400" font-size="19" transform="matrix(1 0 0 0.998764 444.646 39)">β</text><path d="M0 0 0.000104901 55.9543" stroke="#000000" stroke-width="0.999184" stroke-linejoin="round" stroke-miterlimit="10" fill="none" fill-rule="evenodd" transform="matrix(1.00124 0 0 -1 310.5 79.4253)"/><rect x="204.5" y="47.4413" width="12" height="20.974" stroke="#FFFFFF" stroke-width="2.66779" stroke-linejoin="round" stroke-miterlimit="10" fill="#C3D69B"/><text font-family="Calibri,Calibri_MSFontService,sans-serif" font-weight="400" font-size="19" transform="matrix(1 0 0 0.998764 204.685 63)">α</text><rect x="216.5" y="47.4413" width="12" height="20.974" stroke="#FFFFFF" stroke-width="2.66779" stroke-linejoin="round" stroke-miterlimit="10" fill="#C3D69B"/><text font-family="Calibri,Calibri_MSFontService,sans-serif" font-weight="400" font-size="19" transform="matrix(1 0 0 0.998764 217.219 63)">β</text><rect x="228.5" y="47.4413" width="12" height="20.974" stroke="#FFFFFF" stroke-width="2.66779" stroke-linejoin="round" stroke-miterlimit="10" fill="#C3D69B"/><text font-family="Calibri,Calibri_MSFontService,sans-serif" font-weight="400" font-size="19" transform="matrix(1 0 0 0.998764 228.925 63)">α</text><rect x="240.5" y="47.4413" width="13" height="20.974" stroke="#FFFFFF" stroke-width="2.66779" stroke-linejoin="round" stroke-miterlimit="10" fill="#C3D69B"/><text font-family="Calibri,Calibri_MSFontService,sans-serif" font-weight="400" font-size="19" transform="matrix(1 0 0 0.998764 241.459 63)">β</text><rect x="253.5" y="47.4413" width="12" height="20.974" stroke="#FFFFFF" stroke-width="2.66779" stroke-linejoin="round" stroke-miterlimit="10" fill="#C3D69B"/><text font-family="Calibri,Calibri_MSFontService,sans-serif" font-weight="400" font-size="19" transform="matrix(1 0 0 0.998764 253.326 63)">α</text><rect x="265.5" y="47.4413" width="12" height="20.974" stroke="#FFFFFF" stroke-width="2.66779" stroke-linejoin="round" stroke-miterlimit="10" fill="#FFFFFF"/><text font-family="Calibri,Calibri_MSFontService,sans-serif" font-weight="400" font-size="19" transform="matrix(1 0 0 0.998764 265.86 63)">β</text><rect x="277.5" y="47.4413" width="12" height="20.974" stroke="#FFFFFF" stroke-width="2.66779" stroke-linejoin="round" stroke-miterlimit="10" fill="#FFFFFF"/><text font-family="Calibri,Calibri_MSFontService,sans-serif" font-weight="400" font-size="19" transform="matrix(1 0 0 0.998764 277.566 63)">α</text><rect x="289.5" y="47.4413" width="12" height="20.974" stroke="#FFFFFF" stroke-width="2.66779" stroke-linejoin="round" stroke-miterlimit="10" fill="#FFFFFF"/><text font-family="Calibri,Calibri_MSFontService,sans-serif" font-weight="400" font-size="19" transform="matrix(1 0 0 0.998764 289.766 63)">α</text><rect x="301.5" y="47.4413" width="12" height="20.974" stroke="#FFFFFF" stroke-width="2.66779" stroke-linejoin="round" stroke-miterlimit="10" fill="#FFFFFF"/><text font-family="Calibri,Calibri_MSFontService,sans-serif" font-weight="400" font-size="19" transform="matrix(1 0 0 0.998764 302.3 63)">β</text><rect x="313.5" y="47.4413" width="13" height="20.974" stroke="#FFFFFF" stroke-width="2.66779" stroke-linejoin="round" stroke-miterlimit="10" fill="#FFFFFF"/><text font-family="Calibri,Calibri_MSFontService,sans-serif" font-weight="400" font-size="19" transform="matrix(1 0 0 0.998764 315.334 63)">γ</text><rect x="325.5" y="47.4413" width="13" height="20.974" stroke="#FFFFFF" stroke-width="2.66779" stroke-linejoin="round" stroke-miterlimit="10" fill="#FFFFFF"/><text font-family="Calibri,Calibri_MSFontService,sans-serif" font-weight="400" font-size="19" transform="matrix(1 0 0 0.998764 326.207 63)">α</text><rect x="338.5" y="47.4413" width="12" height="20.974" stroke="#FFFFFF" stroke-width="2.66779" stroke-linejoin="round" stroke-miterlimit="10" fill="#FFFFFF"/><text font-family="Calibri,Calibri_MSFontService,sans-serif" font-weight="400" font-size="19" transform="matrix(1 0 0 0.998764 338.741 63)">β</text></g></svg>