<svg width="1512" height="682" xmlns="http://www.w3.org/2000/svg" xmlns:xlink="http://www.w3.org/1999/xlink" overflow="hidden"><defs><clipPath id="clip0"><rect x="0" y="0" width="1512" height="682"/></clipPath></defs><g clip-path="url(#clip0)"><rect x="0" y="0" width="1512" height="681.758" fill="#FFFFFF"/><rect x="644.5" y="6.49773" width="45" height="45.9836" stroke="#000000" stroke-width="3.00033" stroke-miterlimit="8" fill="#FFFFFF"/><rect x="689.5" y="6.49773" width="45.9999" height="45.9836" stroke="#000000" stroke-width="3.00033" stroke-miterlimit="8" fill="#FFFFFF"/><rect x="735.5" y="6.49773" width="46" height="45.9836" stroke="#000000" stroke-width="3.00033" stroke-miterlimit="8" fill="#FFFFFF"/><rect x="781.5" y="6.49773" width="45" height="45.9836" stroke="#000000" stroke-width="3.00033" stroke-miterlimit="8" fill="#FFFFFF"/><rect x="826.5" y="6.49773" width="45.9999" height="45.9836" stroke="#000000" stroke-width="3.00033" stroke-miterlimit="8" fill="#FFFFFF"/><rect x="644.5" y="52.4813" width="45" height="45.9837" stroke="#000000" stroke-width="3.00033" stroke-miterlimit="8" fill="#FFFFFF"/><rect x="689.5" y="52.4813" width="45.9999" height="45.9837" stroke="#000000" stroke-width="3.00033" stroke-miterlimit="8" fill="#FFFFFF"/><rect x="735.5" y="52.4813" width="46" height="45.9837" stroke="#000000" stroke-width="3.00033" stroke-miterlimit="8" fill="#FFFFFF"/><rect x="781.5" y="52.4813" width="45" height="45.9837" stroke="#000000" stroke-width="3.00033" stroke-miterlimit="8" fill="#FFFFFF"/><rect x="826.5" y="52.4813" width="45.9999" height="45.9837" stroke="#000000" stroke-width="3.00033" stroke-miterlimit="8" fill="#FFFFFF"/><rect x="644.5" y="98.4651" width="45" height="45.9837" stroke="#000000" stroke-width="3.00033" stroke-miterlimit="8" fill="#FFFFFF"/><rect x="689.5" y="98.4651" width="45.9999" height="45.9837" stroke="#000000" stroke-width="3.00033" stroke-miterlimit="8" fill="#FFFFFF"/><rect x="735.5" y="98.4651" width="46" height="45.9837" stroke="#000000" stroke-width="3.00033" stroke-miterlimit="8" fill="#FFFFFF"/><rect x="781.5" y="98.4651" width="45" height="45.9837" stroke="#000000" stroke-width="3.00033" stroke-miterlimit="8" fill="#FFFFFF"/><rect x="826.5" y="98.4651" width="45.9999" height="45.9837" stroke="#000000" stroke-width="3.00033" stroke-miterlimit="8" fill="#FFFFFF"/><rect x="644.5" y="144.449" width="45" height="44.9841" stroke="#000000" stroke-width="3.00033" stroke-miterlimit="8" fill="#FFFFFF"/><rect x="689.5" y="144.449" width="45.9999" height="44.9841" stroke="#000000" stroke-width="3.00033" stroke-miterlimit="8" fill="#FFFFFF"/><rect x="735.5" y="144.449" width="46" height="44.9841" stroke="#000000" stroke-width="3.00033" stroke-miterlimit="8" fill="#FFFFFF"/><rect x="781.5" y="144.449" width="45" height="44.9841" stroke="#000000" stroke-width="3.00033" stroke-miterlimit="8" fill="#FFFFFF"/><rect x="826.5" y="144.449" width="45.9999" height="44.9841" stroke="#000000" stroke-width="3.00033" stroke-miterlimit="8" fill="#FFFFFF"/><rect x="644.5" y="189.433" width="45" height="45.9836" stroke="#000000" stroke-width="3.00033" stroke-miterlimit="8" fill="#FFFFFF"/><rect x="689.5" y="189.433" width="45.9999" height="45.9836" stroke="#000000" stroke-width="3.00033" stroke-miterlimit="8" fill="#FFFFFF"/><rect x="735.5" y="189.433" width="46" height="45.9836" stroke="#000000" stroke-width="3.00033" stroke-miterlimit="8" fill="#FFFFFF"/><rect x="781.5" y="189.433" width="45" height="45.9836" stroke="#000000" stroke-width="3.00033" stroke-miterlimit="8" fill="#FFFFFF"/><rect x="826.5" y="189.433" width="45.9999" height="45.9836" stroke="#000000" stroke-width="3.00033" stroke-miterlimit="8" fill="#FFFFFF"/><path d="M648 62.9778C648 59.6652 650.686 56.9798 654 56.9798L678 56.9798C681.314 56.9798 684 59.6652 684 62.9778L684 131.953C684 135.266 681.314 137.951 678 137.951L654 137.951C650.686 137.951 648 135.266 648 131.953Z" stroke="#7F7F7F" stroke-width="2.00022" stroke-miterlimit="8" fill="#D9D9D9" fill-rule="evenodd"/><path d="M739 17.1606C739 13.756 741.761 10.9961 745.167 10.9961L769.833 10.9961C773.239 10.9961 776 13.756 776 17.1606L776 86.8024C776 90.207 773.239 92.967 769.833 92.967L745.167 92.967C741.761 92.967 739 90.207 739 86.8024Z" stroke="#C55A11" stroke-width="2.00022" stroke-miterlimit="8" fill="#F8CBAD" fill-rule="evenodd"/><path d="M768.833 101.964C772.239 101.964 775 104.724 775 108.128L775 132.786C775 136.191 772.239 138.951 768.833 138.951L699.167 138.951C695.761 138.951 693 136.191 693 132.786L693 108.128C693 104.724 695.761 101.964 699.167 101.964Z" stroke="#DF7BC7" stroke-width="1.99951" stroke-miterlimit="8" fill="#F3CDEA" fill-rule="evenodd"/><path d="M785 63.1444C785 59.7398 787.761 56.9798 791.167 56.9798L815.833 56.9798C819.239 56.9798 822 59.7398 822 63.1444L822 131.786C822 135.191 819.239 137.951 815.833 137.951L791.167 137.951C787.761 137.951 785 135.191 785 131.786Z" stroke="#548235" stroke-width="2.00022" stroke-miterlimit="8" fill="#C5E0B4" fill-rule="evenodd"/><path d="M768.833 193.931C772.239 193.931 775 196.691 775 200.096L775 224.753C775 228.158 772.239 230.918 768.833 230.918L699.167 230.918C695.761 230.918 693 228.158 693 224.753L693 200.096C693 196.691 695.761 193.931 699.167 193.931Z" stroke="#BF9000" stroke-width="1.99951" stroke-miterlimit="8" fill="#FFF2CC" fill-rule="evenodd"/><path d="M860.833 193.931C864.239 193.931 867 196.691 867 200.096L867 224.753C867 228.158 864.239 230.918 860.833 230.918L791.167 230.918C787.761 230.918 785 228.158 785 224.753L785 200.096C785 196.691 787.761 193.931 791.167 193.931Z" stroke="#2E75B6" stroke-width="1.99951" stroke-miterlimit="8" fill="#DEEBF7" fill-rule="evenodd"/><rect x="18.5" y="388.362" width="46" height="44.984" stroke="#000000" stroke-width="3.00033" stroke-miterlimit="8" fill="#FFFFFF"/><rect x="64.5" y="388.362" width="45" height="44.984" stroke="#000000" stroke-width="3.00033" stroke-miterlimit="8" fill="#FFFFFF"/><rect x="109.5" y="388.362" width="45.9999" height="44.984" stroke="#000000" stroke-width="3.00033" stroke-miterlimit="8" fill="#FFFFFF"/><rect x="155.5" y="388.362" width="46" height="44.984" stroke="#000000" stroke-width="3.00033" stroke-miterlimit="8" fill="#FFFFFF"/><rect x="201.5" y="388.362" width="45" height="44.984" stroke="#000000" stroke-width="3.00033" stroke-miterlimit="8" fill="#FFFFFF"/><rect x="18.5" y="433.346" width="46" height="45.9837" stroke="#000000" stroke-width="3.00033" stroke-miterlimit="8" fill="#FFFFFF"/><rect x="64.5" y="433.346" width="45" height="45.9837" stroke="#000000" stroke-width="3.00033" stroke-miterlimit="8" fill="#FFFFFF"/><rect x="109.5" y="433.346" width="45.9999" height="45.9837" stroke="#000000" stroke-width="3.00033" stroke-miterlimit="8" fill="#FFFFFF"/><rect x="155.5" y="433.346" width="46" height="45.9837" stroke="#000000" stroke-width="3.00033" stroke-miterlimit="8" fill="#FFFFFF"/><rect x="201.5" y="433.346" width="45" height="45.9837" stroke="#000000" stroke-width="3.00033" stroke-miterlimit="8" fill="#FFFFFF"/><rect x="18.5" y="479.33" width="46" height="45.9837" stroke="#000000" stroke-width="3.00033" stroke-miterlimit="8" fill="#FFFFFF"/><rect x="64.5" y="479.33" width="45" height="45.9837" stroke="#000000" stroke-width="3.00033" stroke-miterlimit="8" fill="#FFFFFF"/><rect x="109.5" y="479.33" width="45.9999" height="45.9837" stroke="#000000" stroke-width="3.00033" stroke-miterlimit="8" fill="#FFFFFF"/><rect x="155.5" y="479.33" width="46" height="45.9837" stroke="#000000" stroke-width="3.00033" stroke-miterlimit="8" fill="#FFFFFF"/><rect x="201.5" y="479.33" width="45" height="45.9837" stroke="#000000" stroke-width="3.00033" stroke-miterlimit="8" fill="#FFFFFF"/><rect x="18.5" y="525.314" width="46" height="44.9841" stroke="#000000" stroke-width="3.00033" stroke-miterlimit="8" fill="#FFFFFF"/><rect x="64.5" y="525.314" width="45" height="44.9841" stroke="#000000" stroke-width="3.00033" stroke-miterlimit="8" fill="#FFFFFF"/><rect x="109.5" y="525.314" width="45.9999" height="44.9841" stroke="#000000" stroke-width="3.00033" stroke-miterlimit="8" fill="#FFFFFF"/><rect x="155.5" y="525.314" width="46" height="44.9841" stroke="#000000" stroke-width="3.00033" stroke-miterlimit="8" fill="#FFFFFF"/><rect x="201.5" y="525.314" width="45" height="44.9841" stroke="#000000" stroke-width="3.00033" stroke-miterlimit="8" fill="#FFFFFF"/><rect x="18.5" y="570.298" width="46" height="45.9836" stroke="#000000" stroke-width="3.00033" stroke-miterlimit="8" fill="#FFFFFF"/><rect x="64.5" y="570.298" width="45" height="45.9836" stroke="#000000" stroke-width="3.00033" stroke-miterlimit="8" fill="#FFFFFF"/><rect x="109.5" y="570.298" width="45.9999" height="45.9836" stroke="#000000" stroke-width="3.00033" stroke-miterlimit="8" fill="#FFFFFF"/><rect x="155.5" y="570.298" width="46" height="45.9836" stroke="#000000" stroke-width="3.00033" stroke-miterlimit="8" fill="#FFFFFF"/><rect x="201.5" y="570.298" width="45" height="45.9836" stroke="#000000" stroke-width="3.00033" stroke-miterlimit="8" fill="#FFFFFF"/><path d="M22 399.025C22 395.621 24.761 392.861 28.1668 392.861L52.8332 392.861C56.239 392.861 59 395.621 59 399.025L59 467.667C59 471.072 56.239 473.832 52.8332 473.832L28.1668 473.832C24.761 473.832 22 471.072 22 467.667Z" stroke="#7F7F7F" stroke-width="2.00022" stroke-miterlimit="8" fill="#D9D9D9" fill-rule="evenodd"/><path d="M114 397.859C114 394.546 116.686 391.861 120 391.861L144 391.861C147.314 391.861 150 394.546 150 397.859L150 467.834C150 471.147 147.314 473.832 144 473.832L120 473.832C116.686 473.832 114 471.147 114 467.834Z" stroke="#C55A11" stroke-width="2.00022" stroke-miterlimit="8" fill="#F8CBAD" fill-rule="evenodd"/><path d="M142.833 482.829C146.239 482.829 149 485.589 149 488.993L149 513.651C149 517.056 146.239 519.816 142.833 519.816L74.1668 519.816C70.761 519.816 68 517.056 68 513.651L68 488.993C68 485.589 70.761 482.829 74.1668 482.829Z" stroke="#DF7BC7" stroke-width="1.99951" stroke-miterlimit="8" fill="#F3CDEA" fill-rule="evenodd"/><path d="M159 444.009C159 440.605 161.761 437.845 165.167 437.845L189.833 437.845C193.239 437.845 196 440.605 196 444.009L196 512.651C196 516.056 193.239 518.816 189.833 518.816L165.167 518.816C161.761 518.816 159 516.056 159 512.651Z" stroke="#548235" stroke-width="2.00022" stroke-miterlimit="8" fill="#C5E0B4" fill-rule="evenodd"/><path d="M142.833 574.796C146.239 574.796 149 577.556 149 580.961L149 605.618C149 609.023 146.239 611.783 142.833 611.783L74.1668 611.783C70.761 611.783 68 609.023 68 605.618L68 580.961C68 577.556 70.761 574.796 74.1668 574.796Z" stroke="#BF9000" stroke-width="1.99951" stroke-miterlimit="8" fill="#FFF2CC" fill-rule="evenodd"/><path d="M234.833 574.796C238.239 574.796 241 577.556 241 580.961L241 605.618C241 609.023 238.239 611.783 234.833 611.783L165.167 611.783C161.761 611.783 159 609.023 159 605.618L159 580.961C159 577.556 161.761 574.796 165.167 574.796Z" stroke="#2E75B6" stroke-width="1.99951" stroke-miterlimit="8" fill="#DEEBF7" fill-rule="evenodd"/><rect x="267.5" y="388.362" width="45.9999" height="44.984" stroke="#000000" stroke-width="3.00033" stroke-miterlimit="8" fill="#FFFFFF"/><rect x="313.5" y="388.362" width="46" height="44.984" stroke="#000000" stroke-width="3.00033" stroke-miterlimit="8" fill="#FFFFFF"/><rect x="359.5" y="388.362" width="46" height="44.984" stroke="#000000" stroke-width="3.00033" stroke-miterlimit="8" fill="#FFFFFF"/><rect x="405.5" y="388.362" width="45" height="44.984" stroke="#000000" stroke-width="3.00033" stroke-miterlimit="8" fill="#FFFFFF"/><rect x="450.5" y="388.362" width="45.9999" height="44.984" stroke="#000000" stroke-width="3.00033" stroke-miterlimit="8" fill="#FFFFFF"/><rect x="267.5" y="433.346" width="45.9999" height="45.9837" stroke="#000000" stroke-width="3.00033" stroke-miterlimit="8" fill="#FFFFFF"/><rect x="313.5" y="433.346" width="46" height="45.9837" stroke="#000000" stroke-width="3.00033" stroke-miterlimit="8" fill="#FFFFFF"/><rect x="359.5" y="433.346" width="46" height="45.9837" stroke="#000000" stroke-width="3.00033" stroke-miterlimit="8" fill="#FFFFFF"/><rect x="405.5" y="433.346" width="45" height="45.9837" stroke="#000000" stroke-width="3.00033" stroke-miterlimit="8" fill="#FFFFFF"/><rect x="450.5" y="433.346" width="45.9999" height="45.9837" stroke="#000000" stroke-width="3.00033" stroke-miterlimit="8" fill="#FFFFFF"/><rect x="267.5" y="479.33" width="45.9999" height="45.9837" stroke="#000000" stroke-width="3.00033" stroke-miterlimit="8" fill="#FFFFFF"/><rect x="313.5" y="479.33" width="46" height="45.9837" stroke="#000000" stroke-width="3.00033" stroke-miterlimit="8" fill="#FFFFFF"/><rect x="359.5" y="479.33" width="46" height="45.9837" stroke="#000000" stroke-width="3.00033" stroke-miterlimit="8" fill="#FFFFFF"/><rect x="405.5" y="479.33" width="45" height="45.9837" stroke="#000000" stroke-width="3.00033" stroke-miterlimit="8" fill="#FFFFFF"/><rect x="450.5" y="479.33" width="45.9999" height="45.9837" stroke="#000000" stroke-width="3.00033" stroke-miterlimit="8" fill="#FFFFFF"/><rect x="267.5" y="525.314" width="45.9999" height="44.9841" stroke="#000000" stroke-width="3.00033" stroke-miterlimit="8" fill="#FFFFFF"/><rect x="313.5" y="525.314" width="46" height="44.9841" stroke="#000000" stroke-width="3.00033" stroke-miterlimit="8" fill="#FFFFFF"/><rect x="359.5" y="525.314" width="46" height="44.9841" stroke="#000000" stroke-width="3.00033" stroke-miterlimit="8" fill="#FFFFFF"/><rect x="405.5" y="525.314" width="45" height="44.9841" stroke="#000000" stroke-width="3.00033" stroke-miterlimit="8" fill="#FFFFFF"/><rect x="450.5" y="525.314" width="45.9999" height="44.9841" stroke="#000000" stroke-width="3.00033" stroke-miterlimit="8" fill="#FFFFFF"/><rect x="267.5" y="570.298" width="45.9999" height="45.9836" stroke="#000000" stroke-width="3.00033" stroke-miterlimit="8" fill="#FFFFFF"/><rect x="313.5" y="570.298" width="46" height="45.9836" stroke="#000000" stroke-width="3.00033" stroke-miterlimit="8" fill="#FFFFFF"/><rect x="359.5" y="570.298" width="46" height="45.9836" stroke="#000000" stroke-width="3.00033" stroke-miterlimit="8" fill="#FFFFFF"/><rect x="405.5" y="570.298" width="45" height="45.9836" stroke="#000000" stroke-width="3.00033" stroke-miterlimit="8" fill="#FFFFFF"/><rect x="450.5" y="570.298" width="45.9999" height="45.9836" stroke="#000000" stroke-width="3.00033" stroke-miterlimit="8" fill="#FFFFFF"/><path d="M272 488.993C272 485.589 274.761 482.829 278.167 482.829L302.833 482.829C306.239 482.829 309 485.589 309 488.993L309 558.635C309 562.04 306.239 564.8 302.833 564.8L278.167 564.8C274.761 564.8 272 562.04 272 558.635Z" stroke="#7F7F7F" stroke-width="2.00022" stroke-miterlimit="8" fill="#D9D9D9" fill-rule="evenodd"/><path d="M363 398.026C363 394.621 365.761 391.861 369.167 391.861L393.833 391.861C397.239 391.861 400 394.621 400 398.026L400 467.667C400 471.072 397.239 473.832 393.833 473.832L369.167 473.832C365.761 473.832 363 471.072 363 467.667Z" stroke="#C55A11" stroke-width="2.00022" stroke-miterlimit="8" fill="#F8CBAD" fill-rule="evenodd"/><path d="M392.833 482.829C396.239 482.829 399 485.589 399 488.993L399 513.651C399 517.056 396.239 519.816 392.833 519.816L323.167 519.816C319.761 519.816 317 517.056 317 513.651L317 488.993C317 485.589 319.761 482.829 323.167 482.829Z" stroke="#DF7BC7" stroke-width="1.99951" stroke-miterlimit="8" fill="#F3CDEA" fill-rule="evenodd"/><path d="M409 444.009C409 440.605 411.761 437.845 415.167 437.845L439.833 437.845C443.239 437.845 446 440.605 446 444.009L446 512.651C446 516.056 443.239 518.816 439.833 518.816L415.167 518.816C411.761 518.816 409 516.056 409 512.651Z" stroke="#548235" stroke-width="2.00022" stroke-miterlimit="8" fill="#C5E0B4" fill-rule="evenodd"/><path d="M392.833 574.796C396.239 574.796 399 577.556 399 580.961L399 605.618C399 609.023 396.239 611.783 392.833 611.783L323.167 611.783C319.761 611.783 317 609.023 317 605.618L317 580.961C317 577.556 319.761 574.796 323.167 574.796Z" stroke="#BF9000" stroke-width="1.99951" stroke-miterlimit="8" fill="#FFF2CC" fill-rule="evenodd"/><path d="M483.833 574.796C487.239 574.796 490 577.556 490 580.961L490 605.618C490 609.023 487.239 611.783 483.833 611.783L415.167 611.783C411.761 611.783 409 609.023 409 605.618L409 580.961C409 577.556 411.761 574.796 415.167 574.796Z" stroke="#2E75B6" stroke-width="1.99951" stroke-miterlimit="8" fill="#DEEBF7" fill-rule="evenodd"/><rect x="517.5" y="388.362" width="46" height="44.984" stroke="#000000" stroke-width="3.00033" stroke-miterlimit="8" fill="#FFFFFF"/><rect x="563.5" y="388.362" width="45" height="44.984" stroke="#000000" stroke-width="3.00033" stroke-miterlimit="8" fill="#FFFFFF"/><rect x="608.5" y="388.362" width="45.9999" height="44.984" stroke="#000000" stroke-width="3.00033" stroke-miterlimit="8" fill="#FFFFFF"/><rect x="654.5" y="388.362" width="46.0001" height="44.984" stroke="#000000" stroke-width="3.00033" stroke-miterlimit="8" fill="#FFFFFF"/><rect x="700.5" y="388.362" width="46" height="44.984" stroke="#000000" stroke-width="3.00033" stroke-miterlimit="8" fill="#FFFFFF"/><rect x="517.5" y="433.346" width="46" height="45.9837" stroke="#000000" stroke-width="3.00033" stroke-miterlimit="8" fill="#FFFFFF"/><rect x="563.5" y="433.346" width="45" height="45.9837" stroke="#000000" stroke-width="3.00033" stroke-miterlimit="8" fill="#FFFFFF"/><rect x="608.5" y="433.346" width="45.9999" height="45.9837" stroke="#000000" stroke-width="3.00033" stroke-miterlimit="8" fill="#FFFFFF"/><rect x="654.5" y="433.346" width="46.0001" height="45.9837" stroke="#000000" stroke-width="3.00033" stroke-miterlimit="8" fill="#FFFFFF"/><rect x="700.5" y="433.346" width="46" height="45.9837" stroke="#000000" stroke-width="3.00033" stroke-miterlimit="8" fill="#FFFFFF"/><rect x="517.5" y="479.33" width="46" height="45.9837" stroke="#000000" stroke-width="3.00033" stroke-miterlimit="8" fill="#FFFFFF"/><rect x="563.5" y="479.33" width="45" height="45.9837" stroke="#000000" stroke-width="3.00033" stroke-miterlimit="8" fill="#FFFFFF"/><rect x="608.5" y="479.33" width="45.9999" height="45.9837" stroke="#000000" stroke-width="3.00033" stroke-miterlimit="8" fill="#FFFFFF"/><rect x="654.5" y="479.33" width="46.0001" height="45.9837" stroke="#000000" stroke-width="3.00033" stroke-miterlimit="8" fill="#FFFFFF"/><rect x="700.5" y="479.33" width="46" height="45.9837" stroke="#000000" stroke-width="3.00033" stroke-miterlimit="8" fill="#FFFFFF"/><rect x="517.5" y="525.314" width="46" height="44.9841" stroke="#000000" stroke-width="3.00033" stroke-miterlimit="8" fill="#FFFFFF"/><rect x="563.5" y="525.314" width="45" height="44.9841" stroke="#000000" stroke-width="3.00033" stroke-miterlimit="8" fill="#FFFFFF"/><rect x="608.5" y="525.314" width="45.9999" height="44.9841" stroke="#000000" stroke-width="3.00033" stroke-miterlimit="8" fill="#FFFFFF"/><rect x="654.5" y="525.314" width="46.0001" height="44.9841" stroke="#000000" stroke-width="3.00033" stroke-miterlimit="8" fill="#FFFFFF"/><rect x="700.5" y="525.314" width="46" height="44.9841" stroke="#000000" stroke-width="3.00033" stroke-miterlimit="8" fill="#FFFFFF"/><rect x="517.5" y="570.298" width="46" height="45.9836" stroke="#000000" stroke-width="3.00033" stroke-miterlimit="8" fill="#FFFFFF"/><rect x="563.5" y="570.298" width="45" height="45.9836" stroke="#000000" stroke-width="3.00033" stroke-miterlimit="8" fill="#FFFFFF"/><rect x="608.5" y="570.298" width="45.9999" height="45.9836" stroke="#000000" stroke-width="3.00033" stroke-miterlimit="8" fill="#FFFFFF"/><rect x="654.5" y="570.298" width="46.0001" height="45.9836" stroke="#000000" stroke-width="3.00033" stroke-miterlimit="8" fill="#FFFFFF"/><rect x="700.5" y="570.298" width="46" height="45.9836" stroke="#000000" stroke-width="3.00033" stroke-miterlimit="8" fill="#FFFFFF"/><path d="M521 535.977C521 532.572 523.761 529.812 527.167 529.812L551.833 529.812C555.239 529.812 558 532.572 558 535.977L558 604.619C558 608.023 555.239 610.783 551.833 610.783L527.167 610.783C523.761 610.783 521 608.023 521 604.619Z" stroke="#7F7F7F" stroke-width="2.00022" stroke-miterlimit="8" fill="#D9D9D9" fill-rule="evenodd"/><path d="M613 398.026C613 394.621 615.761 391.861 619.167 391.861L643.833 391.861C647.239 391.861 650 394.621 650 398.026L650 467.667C650 471.072 647.239 473.832 643.833 473.832L619.167 473.832C615.761 473.832 613 471.072 613 467.667Z" stroke="#C55A11" stroke-width="2.00022" stroke-miterlimit="8" fill="#F8CBAD" fill-rule="evenodd"/><path d="M641.833 482.829C645.239 482.829 648 485.589 648 488.993L648 513.651C648 517.056 645.239 519.816 641.833 519.816L573.167 519.816C569.761 519.816 567 517.056 567 513.651L567 488.993C567 485.589 569.761 482.829 573.167 482.829Z" stroke="#DF7BC7" stroke-width="1.99951" stroke-miterlimit="8" fill="#F3CDEA" fill-rule="evenodd"/><path d="M658 444.009C658 440.605 660.761 437.845 664.167 437.845L688.833 437.845C692.239 437.845 695 440.605 695 444.009L695 512.651C695 516.056 692.239 518.816 688.833 518.816L664.167 518.816C660.761 518.816 658 516.056 658 512.651Z" stroke="#548235" stroke-width="2.00022" stroke-miterlimit="8" fill="#C5E0B4" fill-rule="evenodd"/><path d="M641.833 574.796C645.239 574.796 648 577.556 648 580.961L648 605.618C648 609.023 645.239 611.783 641.833 611.783L573.167 611.783C569.761 611.783 567 609.023 567 605.618L567 580.961C567 577.556 569.761 574.796 573.167 574.796Z" stroke="#BF9000" stroke-width="1.99951" stroke-miterlimit="8" fill="#FFF2CC" fill-rule="evenodd"/><path d="M733.833 574.796C737.239 574.796 740 577.556 740 580.961L740 605.618C740 609.023 737.239 611.783 733.833 611.783L664.167 611.783C660.761 611.783 658 609.023 658 605.618L658 580.961C658 577.556 660.761 574.796 664.167 574.796Z" stroke="#2E75B6" stroke-width="1.99951" stroke-miterlimit="8" fill="#DEEBF7" fill-rule="evenodd"/><rect x="766.5" y="388.362" width="45.9999" height="44.984" stroke="#000000" stroke-width="3.00033" stroke-miterlimit="8" fill="#FFFFFF"/><rect x="812.5" y="388.362" width="46.0001" height="44.984" stroke="#000000" stroke-width="3.00033" stroke-miterlimit="8" fill="#FFFFFF"/><rect x="858.5" y="388.362" width="46" height="44.984" stroke="#000000" stroke-width="3.00033" stroke-miterlimit="8" fill="#FFFFFF"/><rect x="904.5" y="388.362" width="45" height="44.984" stroke="#000000" stroke-width="3.00033" stroke-miterlimit="8" fill="#FFFFFF"/><rect x="949.5" y="388.362" width="45.9999" height="44.984" stroke="#000000" stroke-width="3.00033" stroke-miterlimit="8" fill="#FFFFFF"/><rect x="766.5" y="433.346" width="45.9999" height="45.9837" stroke="#000000" stroke-width="3.00033" stroke-miterlimit="8" fill="#FFFFFF"/><rect x="812.5" y="433.346" width="46.0001" height="45.9837" stroke="#000000" stroke-width="3.00033" stroke-miterlimit="8" fill="#FFFFFF"/><rect x="858.5" y="433.346" width="46" height="45.9837" stroke="#000000" stroke-width="3.00033" stroke-miterlimit="8" fill="#FFFFFF"/><rect x="904.5" y="433.346" width="45" height="45.9837" stroke="#000000" stroke-width="3.00033" stroke-miterlimit="8" fill="#FFFFFF"/><rect x="949.5" y="433.346" width="45.9999" height="45.9837" stroke="#000000" stroke-width="3.00033" stroke-miterlimit="8" fill="#FFFFFF"/><rect x="766.5" y="479.33" width="45.9999" height="45.9837" stroke="#000000" stroke-width="3.00033" stroke-miterlimit="8" fill="#FFFFFF"/><rect x="812.5" y="479.33" width="46.0001" height="45.9837" stroke="#000000" stroke-width="3.00033" stroke-miterlimit="8" fill="#FFFFFF"/><rect x="858.5" y="479.33" width="46" height="45.9837" stroke="#000000" stroke-width="3.00033" stroke-miterlimit="8" fill="#FFFFFF"/><rect x="904.5" y="479.33" width="45" height="45.9837" stroke="#000000" stroke-width="3.00033" stroke-miterlimit="8" fill="#FFFFFF"/><rect x="949.5" y="479.33" width="45.9999" height="45.9837" stroke="#000000" stroke-width="3.00033" stroke-miterlimit="8" fill="#FFFFFF"/><rect x="766.5" y="525.314" width="45.9999" height="44.9841" stroke="#000000" stroke-width="3.00033" stroke-miterlimit="8" fill="#FFFFFF"/><rect x="812.5" y="525.314" width="46.0001" height="44.9841" stroke="#000000" stroke-width="3.00033" stroke-miterlimit="8" fill="#FFFFFF"/><rect x="858.5" y="525.314" width="46" height="44.9841" stroke="#000000" stroke-width="3.00033" stroke-miterlimit="8" fill="#FFFFFF"/><rect x="904.5" y="525.314" width="45" height="44.9841" stroke="#000000" stroke-width="3.00033" stroke-miterlimit="8" fill="#FFFFFF"/><rect x="949.5" y="525.314" width="45.9999" height="44.9841" stroke="#000000" stroke-width="3.00033" stroke-miterlimit="8" fill="#FFFFFF"/><rect x="766.5" y="570.298" width="45.9999" height="45.9836" stroke="#000000" stroke-width="3.00033" stroke-miterlimit="8" fill="#FFFFFF"/><rect x="812.5" y="570.298" width="46.0001" height="45.9836" stroke="#000000" stroke-width="3.00033" stroke-miterlimit="8" fill="#FFFFFF"/><rect x="858.5" y="570.298" width="46" height="45.9836" stroke="#000000" stroke-width="3.00033" stroke-miterlimit="8" fill="#FFFFFF"/><rect x="904.5" y="570.298" width="45" height="45.9836" stroke="#000000" stroke-width="3.00033" stroke-miterlimit="8" fill="#FFFFFF"/><rect x="949.5" y="570.298" width="45.9999" height="45.9836" stroke="#000000" stroke-width="3.00033" stroke-miterlimit="8" fill="#FFFFFF"/><path d="M771 443.843C771 440.53 773.686 437.845 777 437.845L801 437.845C804.314 437.845 807 440.53 807 443.843L807 512.818C807 516.131 804.314 518.816 801 518.816L777 518.816C773.686 518.816 771 516.131 771 512.818Z" stroke="#7F7F7F" stroke-width="2.00022" stroke-miterlimit="8" fill="#D9D9D9" fill-rule="evenodd"/><path d="M862 398.026C862 394.621 864.761 391.861 868.167 391.861L892.833 391.861C896.239 391.861 899 394.621 899 398.026L899 467.667C899 471.072 896.239 473.832 892.833 473.832L868.167 473.832C864.761 473.832 862 471.072 862 467.667Z" stroke="#C55A11" stroke-width="2.00022" stroke-miterlimit="8" fill="#F8CBAD" fill-rule="evenodd"/><path d="M891.833 482.829C895.239 482.829 898 485.589 898 488.993L898 513.651C898 517.056 895.239 519.816 891.833 519.816L822.167 519.816C818.761 519.816 816 517.056 816 513.651L816 488.993C816 485.589 818.761 482.829 822.167 482.829Z" stroke="#DF7BC7" stroke-width="1.99951" stroke-miterlimit="8" fill="#F3CDEA" fill-rule="evenodd"/><path d="M908 444.009C908 440.605 910.761 437.845 914.167 437.845L938.833 437.845C942.239 437.845 945 440.605 945 444.009L945 512.651C945 516.056 942.239 518.816 938.833 518.816L914.167 518.816C910.761 518.816 908 516.056 908 512.651Z" stroke="#548235" stroke-width="2.00022" stroke-miterlimit="8" fill="#C5E0B4" fill-rule="evenodd"/><path d="M845.833 574.796C849.239 574.796 852 577.556 852 580.961L852 605.618C852 609.023 849.239 611.783 845.833 611.783L777.167 611.783C773.761 611.783 771 609.023 771 605.618L771 580.961C771 577.556 773.761 574.796 777.167 574.796Z" stroke="#BF9000" stroke-width="1.99951" stroke-miterlimit="8" fill="#FFF2CC" fill-rule="evenodd"/><path d="M983.833 574.796C987.239 574.796 990 577.556 990 580.961L990 605.618C990 609.023 987.239 611.783 983.833 611.783L914.167 611.783C910.761 611.783 908 609.023 908 605.618L908 580.961C908 577.556 910.761 574.796 914.167 574.796Z" stroke="#2E75B6" stroke-width="1.99951" stroke-miterlimit="8" fill="#DEEBF7" fill-rule="evenodd"/><rect x="1016.5" y="388.362" width="46" height="44.984" stroke="#000000" stroke-width="3.00033" stroke-miterlimit="8" fill="#FFFFFF"/><rect x="1062.5" y="388.362" width="45" height="44.984" stroke="#000000" stroke-width="3.00033" stroke-miterlimit="8" fill="#FFFFFF"/><rect x="1107.5" y="388.362" width="45.9999" height="44.984" stroke="#000000" stroke-width="3.00033" stroke-miterlimit="8" fill="#FFFFFF"/><rect x="1153.5" y="388.362" width="46" height="44.984" stroke="#000000" stroke-width="3.00033" stroke-miterlimit="8" fill="#FFFFFF"/><rect x="1199.5" y="388.362" width="46" height="44.984" stroke="#000000" stroke-width="3.00033" stroke-miterlimit="8" fill="#FFFFFF"/><rect x="1016.5" y="433.346" width="46" height="45.9837" stroke="#000000" stroke-width="3.00033" stroke-miterlimit="8" fill="#FFFFFF"/><rect x="1062.5" y="433.346" width="45" height="45.9837" stroke="#000000" stroke-width="3.00033" stroke-miterlimit="8" fill="#FFFFFF"/><rect x="1107.5" y="433.346" width="45.9999" height="45.9837" stroke="#000000" stroke-width="3.00033" stroke-miterlimit="8" fill="#FFFFFF"/><rect x="1153.5" y="433.346" width="46" height="45.9837" stroke="#000000" stroke-width="3.00033" stroke-miterlimit="8" fill="#FFFFFF"/><rect x="1199.5" y="433.346" width="46" height="45.9837" stroke="#000000" stroke-width="3.00033" stroke-miterlimit="8" fill="#FFFFFF"/><rect x="1016.5" y="479.33" width="46" height="45.9837" stroke="#000000" stroke-width="3.00033" stroke-miterlimit="8" fill="#FFFFFF"/><rect x="1062.5" y="479.33" width="45" height="45.9837" stroke="#000000" stroke-width="3.00033" stroke-miterlimit="8" fill="#FFFFFF"/><rect x="1107.5" y="479.33" width="45.9999" height="45.9837" stroke="#000000" stroke-width="3.00033" stroke-miterlimit="8" fill="#FFFFFF"/><rect x="1153.5" y="479.33" width="46" height="45.9837" stroke="#000000" stroke-width="3.00033" stroke-miterlimit="8" fill="#FFFFFF"/><rect x="1199.5" y="479.33" width="46" height="45.9837" stroke="#000000" stroke-width="3.00033" stroke-miterlimit="8" fill="#FFFFFF"/><rect x="1016.5" y="525.314" width="46" height="44.9841" stroke="#000000" stroke-width="3.00033" stroke-miterlimit="8" fill="#FFFFFF"/><rect x="1062.5" y="525.314" width="45" height="44.9841" stroke="#000000" stroke-width="3.00033" stroke-miterlimit="8" fill="#FFFFFF"/><rect x="1107.5" y="525.314" width="45.9999" height="44.9841" stroke="#000000" stroke-width="3.00033" stroke-miterlimit="8" fill="#FFFFFF"/><rect x="1153.5" y="525.314" width="46" height="44.9841" stroke="#000000" stroke-width="3.00033" stroke-miterlimit="8" fill="#FFFFFF"/><rect x="1199.5" y="525.314" width="46" height="44.9841" stroke="#000000" stroke-width="3.00033" stroke-miterlimit="8" fill="#FFFFFF"/><rect x="1016.5" y="570.298" width="46" height="45.9836" stroke="#000000" stroke-width="3.00033" stroke-miterlimit="8" fill="#FFFFFF"/><rect x="1062.5" y="570.298" width="45" height="45.9836" stroke="#000000" stroke-width="3.00033" stroke-miterlimit="8" fill="#FFFFFF"/><rect x="1107.5" y="570.298" width="45.9999" height="45.9836" stroke="#000000" stroke-width="3.00033" stroke-miterlimit="8" fill="#FFFFFF"/><rect x="1153.5" y="570.298" width="46" height="45.9836" stroke="#000000" stroke-width="3.00033" stroke-miterlimit="8" fill="#FFFFFF"/><rect x="1199.5" y="570.298" width="46" height="45.9836" stroke="#000000" stroke-width="3.00033" stroke-miterlimit="8" fill="#FFFFFF"/><path d="M1020 444.009C1020 440.605 1022.76 437.845 1026.17 437.845L1050.83 437.845C1054.24 437.845 1057 440.605 1057 444.009L1057 512.651C1057 516.056 1054.24 518.816 1050.83 518.816L1026.17 518.816C1022.76 518.816 1020 516.056 1020 512.651Z" stroke="#7F7F7F" stroke-width="2.00022" stroke-miterlimit="8" fill="#D9D9D9" fill-rule="evenodd"/><path d="M1112 398.026C1112 394.621 1114.76 391.861 1118.17 391.861L1142.83 391.861C1146.24 391.861 1149 394.621 1149 398.026L1149 467.667C1149 471.072 1146.24 473.832 1142.83 473.832L1118.17 473.832C1114.76 473.832 1112 471.072 1112 467.667Z" stroke="#C55A11" stroke-width="2.00022" stroke-miterlimit="8" fill="#F8CBAD" fill-rule="evenodd"/><path d="M1140.83 482.829C1144.24 482.829 1147 485.589 1147 488.993L1147 513.651C1147 517.056 1144.24 519.816 1140.83 519.816L1072.17 519.816C1068.76 519.816 1066 517.056 1066 513.651L1066 488.993C1066 485.589 1068.76 482.829 1072.17 482.829Z" stroke="#DF7BC7" stroke-width="1.99951" stroke-miterlimit="8" fill="#F3CDEA" fill-rule="evenodd"/><path d="M1158 489.826C1158 486.514 1160.69 483.828 1164 483.828L1188 483.828C1191.31 483.828 1194 486.514 1194 489.826L1194 559.801C1194 563.114 1191.31 565.799 1188 565.799L1164 565.799C1160.69 565.799 1158 563.114 1158 559.801Z" stroke="#548235" stroke-width="2.00022" stroke-miterlimit="8" fill="#C5E0B4" fill-rule="evenodd"/><path d="M1140.83 574.796C1144.24 574.796 1147 577.556 1147 580.961L1147 605.618C1147 609.023 1144.24 611.783 1140.83 611.783L1072.17 611.783C1068.76 611.783 1066 609.023 1066 605.618L1066 580.961C1066 577.556 1068.76 574.796 1072.17 574.796Z" stroke="#BF9000" stroke-width="1.99951" stroke-miterlimit="8" fill="#FFF2CC" fill-rule="evenodd"/><path d="M1232.83 574.796C1236.24 574.796 1239 577.556 1239 580.961L1239 605.618C1239 609.023 1236.24 611.783 1232.83 611.783L1164.17 611.783C1160.76 611.783 1158 609.023 1158 605.618L1158 580.961C1158 577.556 1160.76 574.796 1164.17 574.796Z" stroke="#2E75B6" stroke-width="1.99951" stroke-miterlimit="8" fill="#DEEBF7" fill-rule="evenodd"/><rect x="1266.5" y="388.362" width="45" height="44.984" stroke="#000000" stroke-width="3.00033" stroke-miterlimit="8" fill="#FFFFFF"/><rect x="1311.5" y="388.362" width="45.9999" height="44.984" stroke="#000000" stroke-width="3.00033" stroke-miterlimit="8" fill="#FFFFFF"/><rect x="1357.5" y="388.362" width="46" height="44.984" stroke="#000000" stroke-width="3.00033" stroke-miterlimit="8" fill="#FFFFFF"/><rect x="1403.5" y="388.362" width="45" height="44.984" stroke="#000000" stroke-width="3.00033" stroke-miterlimit="8" fill="#FFFFFF"/><rect x="1448.5" y="388.362" width="45.9999" height="44.984" stroke="#000000" stroke-width="3.00033" stroke-miterlimit="8" fill="#FFFFFF"/><rect x="1266.5" y="433.346" width="45" height="45.9837" stroke="#000000" stroke-width="3.00033" stroke-miterlimit="8" fill="#FFFFFF"/><rect x="1311.5" y="433.346" width="45.9999" height="45.9837" stroke="#000000" stroke-width="3.00033" stroke-miterlimit="8" fill="#FFFFFF"/><rect x="1357.5" y="433.346" width="46" height="45.9837" stroke="#000000" stroke-width="3.00033" stroke-miterlimit="8" fill="#FFFFFF"/><rect x="1403.5" y="433.346" width="45" height="45.9837" stroke="#000000" stroke-width="3.00033" stroke-miterlimit="8" fill="#FFFFFF"/><rect x="1448.5" y="433.346" width="45.9999" height="45.9837" stroke="#000000" stroke-width="3.00033" stroke-miterlimit="8" fill="#FFFFFF"/><rect x="1266.5" y="479.33" width="45" height="45.9837" stroke="#000000" stroke-width="3.00033" stroke-miterlimit="8" fill="#FFFFFF"/><rect x="1311.5" y="479.33" width="45.9999" height="45.9837" stroke="#000000" stroke-width="3.00033" stroke-miterlimit="8" fill="#FFFFFF"/><rect x="1357.5" y="479.33" width="46" height="45.9837" stroke="#000000" stroke-width="3.00033" stroke-miterlimit="8" fill="#FFFFFF"/><rect x="1403.5" y="479.33" width="45" height="45.9837" stroke="#000000" stroke-width="3.00033" stroke-miterlimit="8" fill="#FFFFFF"/><rect x="1448.5" y="479.33" width="45.9999" height="45.9837" stroke="#000000" stroke-width="3.00033" stroke-miterlimit="8" fill="#FFFFFF"/><rect x="1266.5" y="525.314" width="45" height="44.9841" stroke="#000000" stroke-width="3.00033" stroke-miterlimit="8" fill="#FFFFFF"/><rect x="1311.5" y="525.314" width="45.9999" height="44.9841" stroke="#000000" stroke-width="3.00033" stroke-miterlimit="8" fill="#FFFFFF"/><rect x="1357.5" y="525.314" width="46" height="44.9841" stroke="#000000" stroke-width="3.00033" stroke-miterlimit="8" fill="#FFFFFF"/><rect x="1403.5" y="525.314" width="45" height="44.9841" stroke="#000000" stroke-width="3.00033" stroke-miterlimit="8" fill="#FFFFFF"/><rect x="1448.5" y="525.314" width="45.9999" height="44.9841" stroke="#000000" stroke-width="3.00033" stroke-miterlimit="8" fill="#FFFFFF"/><rect x="1266.5" y="570.298" width="45" height="45.9836" stroke="#000000" stroke-width="3.00033" stroke-miterlimit="8" fill="#FFFFFF"/><rect x="1311.5" y="570.298" width="45.9999" height="45.9836" stroke="#000000" stroke-width="3.00033" stroke-miterlimit="8" fill="#FFFFFF"/><rect x="1357.5" y="570.298" width="46" height="45.9836" stroke="#000000" stroke-width="3.00033" stroke-miterlimit="8" fill="#FFFFFF"/><rect x="1403.5" y="570.298" width="45" height="45.9836" stroke="#000000" stroke-width="3.00033" stroke-miterlimit="8" fill="#FFFFFF"/><rect x="1448.5" y="570.298" width="45.9999" height="45.9836" stroke="#000000" stroke-width="3.00033" stroke-miterlimit="8" fill="#FFFFFF"/><path d="M1270 443.843C1270 440.53 1272.69 437.845 1276 437.845L1300 437.845C1303.31 437.845 1306 440.53 1306 443.843L1306 512.818C1306 516.131 1303.31 518.816 1300 518.816L1276 518.816C1272.69 518.816 1270 516.131 1270 512.818Z" stroke="#7F7F7F" stroke-width="2.00022" stroke-miterlimit="8" fill="#D9D9D9" fill-rule="evenodd"/><path d="M1362 397.859C1362 394.546 1364.69 391.861 1368 391.861L1392 391.861C1395.31 391.861 1398 394.546 1398 397.859L1398 467.834C1398 471.147 1395.31 473.832 1392 473.832L1368 473.832C1364.69 473.832 1362 471.147 1362 467.834Z" stroke="#C55A11" stroke-width="2.00022" stroke-miterlimit="8" fill="#F8CBAD" fill-rule="evenodd"/><path d="M1390.83 482.829C1394.24 482.829 1397 485.589 1397 488.993L1397 513.651C1397 517.056 1394.24 519.816 1390.83 519.816L1321.17 519.816C1317.76 519.816 1315 517.056 1315 513.651L1315 488.993C1315 485.589 1317.76 482.829 1321.17 482.829Z" stroke="#DF7BC7" stroke-width="1.99951" stroke-miterlimit="8" fill="#F3CDEA" fill-rule="evenodd"/><path d="M1407 398.026C1407 394.621 1409.76 391.861 1413.17 391.861L1437.83 391.861C1441.24 391.861 1444 394.621 1444 398.026L1444 467.667C1444 471.072 1441.24 473.832 1437.83 473.832L1413.17 473.832C1409.76 473.832 1407 471.072 1407 467.667Z" stroke="#548235" stroke-width="2.00022" stroke-miterlimit="8" fill="#C5E0B4" fill-rule="evenodd"/><path d="M1390.83 574.796C1394.24 574.796 1397 577.556 1397 580.961L1397 605.618C1397 609.023 1394.24 611.783 1390.83 611.783L1321.17 611.783C1317.76 611.783 1315 609.023 1315 605.618L1315 580.961C1315 577.556 1317.76 574.796 1321.17 574.796Z" stroke="#BF9000" stroke-width="1.99951" stroke-miterlimit="8" fill="#FFF2CC" fill-rule="evenodd"/><path d="M1482.83 574.796C1486.24 574.796 1489 577.556 1489 580.961L1489 605.618C1489 609.023 1486.24 611.783 1482.83 611.783L1413.17 611.783C1409.76 611.783 1407 609.023 1407 605.618L1407 580.961C1407 577.556 1409.76 574.796 1413.17 574.796Z" stroke="#2E75B6" stroke-width="1.99951" stroke-miterlimit="8" fill="#DEEBF7" fill-rule="evenodd"/><path d="M620.888 145.897 571.888 159.018 571.895 159.016 523.52 172.199 499.711 178.758 499.725 178.754 476.35 185.439 453.353 192.061 453.367 192.057 430.992 198.742 431.006 198.738 409.193 205.485 409.207 205.481 388.082 212.229 388.099 212.223 367.662 219.033 367.682 219.026 348.182 225.836 348.21 225.826 329.522 232.761 329.549 232.751 311.924 239.686 311.962 239.671 295.337 246.731 295.374 246.714 279.937 253.774 279.986 253.751 265.673 260.936 265.721 260.911 252.596 268.096 252.65 268.065 240.525 275.374 240.577 275.341 229.515 282.651 229.569 282.614 219.319 290.049 219.37 290.01 209.995 297.445 210.051 297.398 201.488 304.895 201.53 304.857 193.593 312.355 193.641 312.307 186.328 319.867 186.369 319.824 179.556 327.446 179.585 327.413 173.21 334.973 173.25 334.923 167.312 342.608 167.339 342.573 156.214 357.88 156.239 357.844 149.969 367.022 147.491 365.33 153.773 356.135 164.924 340.792 170.895 333.065 177.304 325.464 184.151 317.803 191.508 310.198 199.49 302.658 208.102 295.118 217.53 287.64 227.833 280.167 238.949 272.822 251.127 265.48 264.303 258.267 278.664 251.058 294.145 243.978 310.807 236.902 328.464 229.955 347.179 223.009 366.703 216.191 387.159 209.375 408.3 202.622 430.126 195.87 452.515 189.181 475.525 182.555 498.907 175.868 522.73 169.305 571.109 156.121 620.112 143ZM153.293 367.475 144.5 372.368 145.86 362.4Z"/><path d="M216 167.108C216 163.703 218.761 160.943 222.167 160.943L246.833 160.943C250.239 160.943 253 163.703 253 167.108L253 236.749C253 240.154 250.239 242.914 246.833 242.914L222.167 242.914C218.761 242.914 216 240.154 216 236.749Z" stroke="#7F7F7F" stroke-width="2.00022" stroke-miterlimit="8" fill="#D9D9D9" fill-rule="evenodd"/><path d="M1.49963-2.11985e-06 1.49973 66.7538-1.49954 66.7538-1.49963 2.11985e-06ZM4.49899 65.2542 0.000104961 74.252-4.49881 65.2542Z" fill="#C00000" transform="matrix(1.00035 0 0 -1 196.5 235.695)"/><text font-family="Calibri,Calibri_MSFontService,sans-serif" font-weight="400" font-size="24" transform="matrix(1 0 0 0.999645 154.994 206)">+1</text><path d="M476.219 1.44857 427.237 14.5689 427.243 14.5672 378.885 27.75 355.085 34.3091 355.099 34.3051 331.732 40.9903 308.743 47.6122 308.758 47.608 286.391 54.2931 286.404 54.2889 264.6 61.0365 264.613 61.0323 243.495 67.78 243.513 67.7741 223.083 74.5842 223.103 74.5773 203.61 81.3874 203.637 81.3775 184.957 88.3126 184.984 88.3021 167.365 95.2371 167.402 95.222 150.783 102.282 150.821 102.265 135.389 109.325 135.438 109.302 121.13 116.487 121.178 116.462 108.057 123.647 108.111 123.616 95.9907 130.926 96.0432 130.893 84.9846 138.202 85.0384 138.165 74.792 145.6 74.8433 145.561 65.4716 152.996 65.5277 152.949 56.9682 160.447 57.0101 160.409 49.0754 167.906 49.1235 167.858 41.8136 175.418 41.8539 175.375 35.0438 182.997 35.0721 182.964 28.6993 190.524 28.7396 190.474 22.8042 198.159 22.8306 198.124 11.7095 213.431 11.7347 213.395 5.46708 222.573 2.99028 220.881 9.2702 211.686 20.417 196.343 26.3855 188.616 32.7928 181.015 39.6369 173.354 46.9909 165.749 54.9708 158.209 63.579 150.669 73.0045 143.191 83.3034 135.718 94.4152 128.373 106.589 121.031 119.76 113.819 134.116 106.609 149.592 99.5295 166.248 92.4536 183.899 85.5059 202.607 78.5607 222.124 71.7423 242.573 64.9258 263.706 58.1733 285.525 51.4215 307.906 44.7322 330.907 38.1067 354.281 31.4195 378.096 24.8563 426.457 11.6726 475.443-1.44857ZM8.78961 223.026 0 227.919 1.35922 217.952Z" transform="matrix(-1.00035 0 0 1 1374.5 139.451)"/><path d="M0 6.16458C-1.3045e-15 2.75998 2.75998 0 6.1646 0L30.8223 0C34.2269-1.3045e-15 36.9869 2.75998 36.9869 6.16458L36.9869 75.8064C36.9869 79.211 34.2269 81.9709 30.8223 81.9709L6.1646 81.9709C2.75998 81.9709 0 79.211 0 75.8064Z" stroke="#548235" stroke-width="1.99951" stroke-miterlimit="8" fill="#C5E0B4" fill-rule="evenodd" transform="matrix(-1.00035 0 0 1 1284 152.946)"/><path d="M1303 227.698 1303 160.944 1306 160.944 1306 227.698ZM1300 162.443 1304.5 153.446 1309 162.443Z" fill="#C00000"/><text font-family="Calibri,Calibri_MSFontService,sans-serif" font-weight="400" font-size="24" transform="matrix(1 0 0 0.999645 1313.22 198)">+1</text><path d="M637.136 161.801 611.636 173.735 611.641 173.732 586.391 185.665 586.411 185.656 561.849 197.714 561.87 197.703 538.245 209.762 538.274 209.746 526.899 215.869 526.917 215.859 515.917 221.982 515.942 221.968 505.317 228.153 505.347 228.135 495.16 234.383 495.185 234.367 485.435 240.615 485.475 240.589 476.287 246.899 476.329 246.869 467.704 253.242 467.749 253.208 459.686 259.643 459.737 259.6 452.3 266.098 452.348 266.053 445.473 272.613 445.529 272.558 439.279 279.18 439.32 279.135 433.507 285.82 433.55 285.769 428.237 292.454 428.279 292.4 423.404 299.147 423.439 299.096 418.939 305.906 418.971 305.856 414.846 312.666 414.886 312.596 407.511 326.403 407.547 326.331 401.11 340.138 401.137 340.077 395.387 354.009 395.395 353.988 392.649 360.945 389.858 359.844 392.609 352.876 398.376 338.902 404.845 325.027 412.258 311.147 416.42 304.277 420.953 297.417 425.867 290.616 431.221 283.878 437.075 277.145 443.373 270.471 450.301 263.861 457.788 257.32 465.898 250.846 474.567 244.442 483.795 238.103 493.578 231.834 503.793 225.57 514.445 219.369 525.467 213.234 536.866 207.098 560.516 195.027 585.099 182.959 610.361 171.019 635.864 159.085ZM395.99 360.651 388.5 367.37 387.618 357.349Z"/><path d="M345 268.072C345 264.667 347.761 261.907 351.167 261.907L375.833 261.907C379.239 261.907 382 264.667 382 268.072L382 336.714C382 340.118 379.239 342.878 375.833 342.878L351.167 342.878C347.761 342.878 345 340.118 345 336.714Z" stroke="#7F7F7F" stroke-width="2.00022" stroke-miterlimit="8" fill="#D9D9D9" fill-rule="evenodd"/><path d="M327 262.407 327 329.161 324 329.161 324 262.407ZM330.001 327.661 325.5 336.659 321 327.661Z" fill="#C00000"/><text font-family="Calibri,Calibri_MSFontService,sans-serif" font-weight="400" font-size="24" transform="matrix(1 0 0 0.999645 283.614 306)">-<tspan font-size="24" x="7.33414" y="0">1</tspan></text><path d="M247.552 1.35629 222.124 13.352 222.13 13.349 197.014 25.3447 197.032 25.3362 172.603 37.3944 172.628 37.3817 149.074 49.5649 149.099 49.5516 137.79 55.6745 137.812 55.6628 126.815 61.8481 126.838 61.835 116.28 68.0203 116.309 68.0024 106.188 74.2502 106.219 74.2305 96.5348 80.5408 96.571 80.5165 87.3867 86.8892 87.4232 86.8631 78.8012 93.2358 78.8555 93.1937 70.8584 99.6914 70.9096 99.6479 63.5372 106.208 63.5758 106.173 56.7032 112.733 56.7586 112.677 50.5108 119.3 50.5616 119.243 44.8136 125.991 44.8504 125.946 39.5398 132.693 39.5825 132.636 34.7717 139.384 34.8053 139.335 30.3069 146.207 30.335 146.163 26.2115 152.973 26.2553 152.895 18.9454 166.765 18.9814 166.692 12.6087 180.562 12.631 180.511 6.82058 194.506 6.83347 194.474 4.11257 201.48 1.31677 200.394 4.04393 193.372 9.87169 179.335 16.2731 165.403 23.6228 151.457 27.783 144.587 32.3122 137.667 37.161 130.866 42.5116 124.068 48.3031 117.269 54.6039 110.59 61.5238 103.985 68.9409 97.3849 76.9909 90.8443 85.6585 84.4378 94.8791 78.0399 104.597 71.7077 114.749 65.4411 125.334 59.2404 136.352 53.0427 147.683 46.9074 171.263 34.7112 195.713 22.6425 220.841 10.641 246.273-1.35629ZM7.4513 201.168 0 207.926-0.936095 197.91Z" transform="matrix(-1.00035 0 0 1 1129.5 163.442)"/><path d="M0 6.16459C-1.28859e-15 2.75998 2.75998 0 6.1646 0L30.8223 0C34.2269-1.28859e-15 36.9869 2.75998 36.9869 6.16459L36.9869 74.8067C36.9869 78.2113 34.2269 80.9713 30.8223 80.9713L6.1646 80.9713C2.75998 80.9713 0 78.2113 0 74.8067Z" stroke="#548235" stroke-width="1.99951" stroke-miterlimit="8" fill="#C5E0B4" fill-rule="evenodd" transform="matrix(-1.00035 0 0 1 1161 253.91)"/><path d="M1.49963-2.11985e-06 1.49973 66.7538-1.49954 66.7538-1.49963 2.11985e-06ZM4.49899 65.2542 0.000104961 74.252-4.49881 65.2542Z" fill="#C00000" transform="matrix(-1.00035 0 0 1 1181.5 254.41)"/><text font-family="Calibri,Calibri_MSFontService,sans-serif" font-weight="400" font-size="24" transform="matrix(1 0 0 0.999645 1189.98 298)">-<tspan font-size="24" x="7.33423" y="0">1</tspan></text><path d="M749.557 243.288 750.372 252.933 750.875 262.482 751.001 271.884 750.365 280.903 748.766 289.535 745.943 297.554 743.985 301.338 741.652 304.901 738.92 308.282 735.645 311.425 731.657 314.235 726.925 316.697 721.481 318.746 715.583 320.522 709.144 322.099 702.466 323.485 688.492 325.865 674.482 328.053 674.512 328.048 667.825 329.235 667.851 329.23 661.476 330.48 661.526 330.469 655.588 331.844 655.673 331.822 650.361 333.383 650.479 333.344 645.791 335.155 645.955 335.08 642.08 337.142 642.256 337.032 639.068 339.344 639.155 339.276 636.343 341.65 636.463 341.537 634.088 344.036 634.183 343.926 632.183 346.488 632.307 346.301 629.245 351.736 629.354 351.493 627.354 357.241 627.417 356.998 626.417 362.933 626.435 362.776 626.06 368.898 626.062 368.779 626.155 373.845 623.155 373.899 623.062 368.775 623.445 362.513 624.479 356.375 626.565 350.381 629.748 344.731 631.862 342.023 634.344 339.412 637.262 336.949 640.578 334.544 644.625 332.39 649.455 330.524 654.869 328.932 660.874 327.542 667.287 326.285 674.003 325.092 688.018 322.903 687.998 322.907 701.935 320.533 701.883 320.542 708.508 319.168 708.455 319.18 714.83 317.618 714.755 317.638 720.568 315.889 720.471 315.922 725.784 313.922 725.62 313.995 730.182 311.621 730.011 311.726 733.823 309.039 733.649 309.183 736.774 306.184 736.645 306.324 739.27 303.075 739.182 303.196 741.432 299.76 741.355 299.892 743.23 296.268 743.147 296.459 745.897 288.65 745.837 288.874 747.4 280.44 747.379 280.608 748.004 271.736 748 271.861 747.875 262.552 747.877 262.611 747.377 253.114 747.38 253.161 746.568 243.54ZM629.095 372.204 624.938 381.365 620.101 372.543Z"/><path d="M124.077-0.1165 124.827 9.51901 125.393 19.0688 125.456 28.4751 124.821 37.4891 123.224 46.1163 120.465 54.135 118.51 57.9158 116.237 61.4873 113.441 64.8686 110.241 68.0031 106.312 70.8188 101.579 73.2824 96.1998 75.3318 90.3039 77.1069 83.9922 78.6848 77.3141 80.0708 63.4084 82.4511 49.5286 84.6393 49.5596 84.6341 42.9369 85.8212 42.9637 85.8162 36.6534 87.0657 36.7038 87.0548 30.8309 88.4293 30.9123 88.4079 25.6017 89.9698 25.7257 89.9273 21.1024 91.7392 21.2688 91.6619 17.4576 93.7237 17.6247 93.6186 14.4383 95.9302 14.5379 95.8514 11.7889 98.2255 11.8959 98.1234 9.52174 100.623 9.61669 100.512 7.6174 103.074 7.74186 102.887 4.68045 108.323 4.79493 108.066 2.85812 113.814 2.9158 113.584 1.91615 119.519 1.93418 119.362 1.55931 125.485 1.56186 125.366 1.65406 130.431-1.34471 130.486-1.43799 125.361-1.05464 119.099-0.0220801 112.969 1.99781 106.974 5.1838 101.317 7.29712 98.6096 9.77243 96.004 12.6256 93.5399 15.9435 91.1328 19.9225 88.9802 24.6925 87.1109 30.1064 85.5186 36.0455 84.1286 42.3944 82.8714 49.0459 81.6791 62.9315 79.4899 62.9121 79.4931 76.7822 77.119 76.7304 77.1288 83.3531 75.7543 83.2941 75.7678 89.5419 74.2058 89.4733 74.2247 95.2837 72.4753 95.1822 72.5099 100.43 70.5106 100.272 70.5818 104.833 68.2076 104.652 68.3189 108.4 65.6324 108.224 65.78 111.286 62.7811 111.179 62.8967 113.866 59.6478 113.757 59.7984 115.943 56.3621 115.876 56.4783 117.751 52.8545 117.665 53.0557 120.351 45.246 120.295 45.4607 121.857 37.0262 121.835 37.1939 122.46 28.3221 122.456 28.4375 122.394 19.1283 122.397 19.2069 121.834 9.71023 121.836 9.73809 121.086 0.1165ZM4.59385 128.79 0.437345 137.951-4.39756 129.129Z" transform="matrix(-1.00035 0 0 1 888.5 242.414)"/><path d="M584 271.904C584 268.591 586.686 265.906 590 265.906L614 265.906C617.314 265.906 620 268.591 620 271.904L620 340.879C620 344.192 617.314 346.877 614 346.877L590 346.877C586.686 346.877 584 344.192 584 340.879Z" stroke="#7F7F7F" stroke-width="2.00022" stroke-miterlimit="8" fill="#D9D9D9" fill-rule="evenodd"/><path d="M565 266.406 565 333.159 562 333.159 562 266.406ZM568.001 331.66 563.5 340.658 559 331.66Z" fill="#C00000"/><text font-family="Calibri,Calibri_MSFontService,sans-serif" font-weight="400" font-size="24" transform="matrix(1 0 0 0.999645 522.32 310)">-<tspan font-size="24" x="7.33417" y="0">2</tspan></text><path d="M913.833 274.902C917.239 274.902 920 277.662 920 281.067L920 305.725C920 309.129 917.239 311.889 913.833 311.889L844.167 311.889C840.761 311.889 838 309.129 838 305.725L838 281.067C838 277.662 840.761 274.902 844.167 274.902Z" stroke="#BF9000" stroke-width="1.99951" stroke-miterlimit="8" fill="#FFF2CC" fill-rule="evenodd"/><path d="M1.49963-2.11985e-06 1.49973 66.7538-1.49954 66.7538-1.49963 2.11985e-06ZM4.49899 65.2542 0.000104961 74.252-4.49881 65.2542Z" fill="#C00000" transform="matrix(-6.12541e-17 -1 -1.00035 6.12323e-17 914.778 262.407)"/><text font-family="Calibri,Calibri_MSFontService,sans-serif" font-weight="400" font-size="24" transform="matrix(1 0 0 0.999645 865.308 252)">-<tspan font-size="24" x="7.33417" y="0">1</tspan></text><path d="M134.984 616.501 134.156 622.103 133.282 625.062 131.808 628.21 129.678 631.336 126.664 634.611 122.594 638.034 117.42 641.546 110.898 645.28 103.278 649.12 94.6182 653.135 85.0893 657.334 74.9459 661.528 64.2469 665.906 49.0282 671.905 47.9275 669.115 63.1371 663.119 63.1192 663.126 73.8067 658.753 73.8017 658.755 83.9267 654.569 83.8949 654.583 93.3949 650.397 93.3689 650.408 101.994 646.41 101.95 646.431 109.512 642.62 109.442 642.658 115.879 638.972 115.782 639.032 120.845 635.596 120.722 635.689 124.659 632.378 124.521 632.51 127.396 629.386 127.26 629.557 129.26 626.621 129.141 626.829 130.516 623.893 130.436 624.104 131.249 621.355 131.203 621.56 132.016 616.062ZM51.5245 674.145 41.5 673.261 48.2223 665.775Z"/><path d="M134.994 617.418 134.113 627.04 133.279 631.722 132.119 636.168 130.496 640.451 128.339 644.568 125.462 648.489 121.892 652.187 117.712 655.595 113.055 658.783 107.975 661.767 102.59 664.554 91.0923 669.703 86.0074 671.795 84.8658 669.021 89.9292 666.939 89.8866 666.957 101.324 661.834 101.248 661.87 106.56 659.121 106.49 659.16 111.49 656.224 111.402 656.28 115.965 653.156 115.864 653.231 119.927 649.919 119.795 650.04 123.233 646.479 123.103 646.633 125.853 642.885 125.734 643.076 127.796 639.14 127.722 639.304 129.285 635.181 129.236 635.333 130.361 631.023 130.336 631.138 131.148 626.577 131.131 626.704 132.006 617.144ZM88.5364 673.998 78.5 673.261 85.1114 665.677Z"/><path d="M94.4506 0.219158 93.6229 5.82168 92.7487 8.78043 91.2707 11.938 89.0769 15.0626 86.0671 18.334 81.932 21.7585 76.6993 25.2682 70.1187 29.0014 62.4379 32.8418 53.6562 36.8563 44.069 41.0546 33.803 45.2486 22.9832 49.6266 7.53062 55.6527 6.44092 52.8584 21.8847 46.8357 21.8671 46.8427 32.6757 42.4693 32.6711 42.4712 42.9174 38.2852 42.883 38.2997 52.4421 34.1137 52.4202 34.1235 61.1671 30.125 61.1199 30.1475 68.7422 26.3364 68.6729 26.3733 75.1706 22.6871 75.0752 22.7461 80.1984 19.3098 80.0773 19.4002 84.0759 16.0889 83.9287 16.2285 86.8027 13.1047 86.679 13.2583 88.7408 10.3218 88.6099 10.5478 89.9844 7.61132 89.9044 7.82216 90.7166 5.07314 90.6713 5.27889 91.4835-0.219158ZM10.0175 57.9021 0 56.9798 6.74837 49.5192Z" transform="matrix(-1.00035 0 0 1 226.5 617.281)"/><path d="M57.4738 0.134043 56.5934 9.94365 55.7602 14.6869 54.5989 19.203 52.9119 23.5501 50.6963 27.7859 47.8203 31.7077 44.1861 35.4717 39.8835 38.9395 35.1715 42.1869 30.0295 45.2341 24.5201 48.0837 12.8378 53.3596 7.50887 55.5347 6.37545 52.7578 11.6789 50.5931 11.6284 50.6148 23.2493 45.3667 23.1776 45.4014 28.6131 42.5899 28.5376 42.6318 33.5983 39.6329 33.5118 39.6882 38.1352 36.5018 38.0451 36.569 42.2311 33.1952 42.0933 33.3212 45.5921 29.6975 45.4616 29.8523 48.2107 26.1036 48.0912 26.2954 50.2154 22.2343 50.1462 22.3868 51.7706 18.2008 51.7163 18.3699 52.8409 13.9964 52.8162 14.1104 53.6284 9.48707 53.6118 9.6125 54.4865-0.134043ZM10.0307 57.7448 0 56.9798 6.63048 49.4143Z" transform="matrix(-1.00035 0 0 1 189.5 617.281)"/><path d="M381.984 617.5 381.156 623.103 380.282 626.061 378.808 629.209 376.678 632.336 373.664 635.611 369.594 639.034 364.42 642.545 357.899 646.28 350.278 650.12 341.618 654.135 332.089 658.334 321.946 662.527 311.247 666.905 296.028 672.905 294.927 670.115 310.137 664.119 310.119 664.126 320.807 659.753 320.802 659.755 330.927 655.569 330.895 655.582 340.395 651.396 340.369 651.408 348.994 647.409 348.95 647.431 356.512 643.62 356.442 643.657 362.879 639.971 362.782 640.032 367.845 636.596 367.722 636.689 371.659 633.377 371.521 633.51 374.396 630.386 374.26 630.557 376.26 627.621 376.141 627.829 377.516 624.892 377.436 625.103 378.249 622.354 378.203 622.56 379.016 617.062ZM298.525 675.145 288.5 674.261 295.222 666.775Z"/><path d="M381.994 617.415 381.114 627.225 380.28 631.968 379.121 636.475 377.501 640.814 375.345 645.06 372.466 648.983 368.902 652.74 364.723 656.211 360.066 659.463 354.987 662.51 349.602 665.36 338.102 670.637 333.001 672.761 331.847 669.993 336.923 667.878 336.874 667.9 348.312 662.652 348.236 662.689 353.548 659.878 353.478 659.917 358.478 656.918 358.391 656.975 362.953 653.788 362.854 653.864 366.916 650.49 366.786 650.612 370.224 646.988 370.103 647.133 372.853 643.385 372.725 643.593 374.787 639.532 374.72 639.686 376.282 635.5 376.235 635.651 377.36 631.278 377.335 631.391 378.147 626.768 378.131 626.894 379.006 617.147ZM335.54 674.953 325.5 674.261 332.078 666.647Z"/><path d="M94.4509 0.216747 93.6246 5.87415 92.7525 8.95976 91.2739 12.1187 89.0861 15.3009 86.0775 18.6365 81.9425 22.1254 76.7048 25.7024 70.1272 29.4339 62.4507 33.398 53.664 37.4776 44.0799 41.7372 33.8103 46.0579 22.9883 50.4368 7.52082 56.5979 6.41094 53.8115 21.8746 47.6519 21.8671 47.655 32.6757 43.2815 32.6566 43.2894 42.903 38.9784 42.8755 38.9903 52.4346 34.7418 52.4122 34.752 61.1591 30.691 61.1025 30.7187 68.7248 26.7826 68.6729 26.8107 75.1706 23.1245 75.0648 23.1904 80.188 19.6917 80.0667 19.7839 84.0653 16.4101 83.9188 16.5519 86.7927 13.3655 86.6706 13.5203 88.7323 10.5214 88.6099 10.7352 89.9844 7.79875 89.8995 8.02667 90.7117 5.15269 90.6709 5.34378 91.4831-0.216747ZM10.0239 58.8293 0 57.9794 6.69423 50.4702Z" transform="matrix(-1.00035 0 0 1 473.5 617.281)"/><path d="M57.4738 0.134043 56.5934 9.94365 55.7602 14.6869 54.5989 19.203 52.9119 23.5501 50.6963 27.7859 47.8203 31.7077 44.1861 35.4717 39.8835 38.9395 35.1715 42.1869 30.0295 45.2341 24.5201 48.0837 12.8378 53.3596 7.50887 55.5347 6.37545 52.7578 11.6789 50.5931 11.6284 50.6148 23.2493 45.3667 23.1776 45.4014 28.6131 42.5899 28.5376 42.6318 33.5983 39.6329 33.5118 39.6882 38.1352 36.5018 38.0451 36.569 42.2311 33.1952 42.0933 33.3212 45.5921 29.6975 45.4616 29.8523 48.2107 26.1036 48.0912 26.2954 50.2154 22.2343 50.1462 22.3868 51.7706 18.2008 51.7163 18.3699 52.8409 13.9964 52.8162 14.1104 53.6284 9.48707 53.6118 9.6125 54.4865-0.134043ZM10.0307 57.7448 0 56.9798 6.63048 49.4143Z" transform="matrix(-1.00035 0 0 1 436.5 618.281)"/><path d="M636.984 618.5 636.156 624.102 635.282 627.061 633.808 630.209 631.678 633.335 628.664 636.61 624.594 640.033 619.42 643.545 612.898 647.279 605.278 651.12 596.618 655.135 587.089 659.333 576.946 663.527 566.247 667.905 551.028 673.905 549.927 671.115 565.137 665.119 565.119 665.126 575.807 660.752 575.802 660.754 585.927 656.568 585.895 656.582 595.395 652.396 595.369 652.408 603.994 648.409 603.95 648.43 611.512 644.619 611.442 644.657 617.879 640.971 617.782 641.032 622.845 637.595 622.722 637.688 626.659 634.377 626.521 634.509 629.396 631.385 629.26 631.557 631.26 628.62 631.141 628.828 632.516 625.892 632.436 626.103 633.249 623.354 633.203 623.56 634.016 618.062ZM553.524 676.145 543.5 675.26 550.222 667.774Z"/><path d="M636.994 619.417 636.113 629.04 635.279 633.722 634.119 638.168 632.496 642.451 630.339 646.567 627.462 650.488 623.892 654.187 619.712 657.594 615.055 660.783 609.975 663.766 604.59 666.553 593.092 671.703 588.007 673.794 586.866 671.021 591.929 668.938 591.887 668.956 603.324 663.833 603.248 663.87 608.56 661.121 608.49 661.16 613.49 658.223 613.402 658.279 617.965 655.155 617.865 655.23 621.927 651.919 621.795 652.04 625.233 648.478 625.103 648.633 627.853 644.884 627.734 645.075 629.796 641.139 629.722 641.304 631.285 637.18 631.236 637.333 632.361 633.022 632.336 633.137 633.148 628.577 633.131 628.703 634.006 619.144ZM590.536 675.997 580.5 675.261 587.111 667.676Z"/><path d="M94.4506 0.219158 93.6229 5.82168 92.7487 8.78043 91.2707 11.938 89.0769 15.0626 86.0671 18.334 81.932 21.7585 76.6993 25.2682 70.1187 29.0014 62.4379 32.8418 53.6562 36.8563 44.069 41.0546 33.803 45.2486 22.9832 49.6266 7.53062 55.6527 6.44092 52.8584 21.8847 46.8357 21.8671 46.8427 32.6757 42.4693 32.6711 42.4712 42.9174 38.2852 42.883 38.2997 52.4421 34.1137 52.4202 34.1235 61.1671 30.125 61.1199 30.1475 68.7422 26.3364 68.6729 26.3733 75.1706 22.6871 75.0752 22.7461 80.1984 19.3098 80.0773 19.4002 84.0759 16.0889 83.9287 16.2285 86.8027 13.1047 86.679 13.2583 88.7408 10.3218 88.6099 10.5478 89.9844 7.61132 89.9044 7.82216 90.7166 5.07314 90.6713 5.27889 91.4835-0.219158ZM10.0175 57.9021 0 56.9798 6.74837 49.5192Z" transform="matrix(-1.00035 0 0 1 728.5 619.28)"/><path d="M57.4738 0.134043 56.5934 9.94365 55.7602 14.6869 54.5989 19.203 52.9119 23.5501 50.6963 27.7859 47.8203 31.7077 44.1861 35.4717 39.8835 38.9395 35.1715 42.1869 30.0295 45.2341 24.5201 48.0837 12.8378 53.3596 7.50887 55.5347 6.37545 52.7578 11.6789 50.5931 11.6284 50.6148 23.2493 45.3667 23.1776 45.4014 28.6131 42.5899 28.5376 42.6318 33.5983 39.6329 33.5118 39.6882 38.1352 36.5018 38.0451 36.569 42.2311 33.1952 42.0933 33.3212 45.5921 29.6975 45.4616 29.8523 48.2107 26.1036 48.0912 26.2954 50.2154 22.2343 50.1462 22.3868 51.7706 18.2008 51.7163 18.3699 52.8409 13.9964 52.8162 14.1104 53.6284 9.48707 53.6118 9.6125 54.4865-0.134043ZM10.0307 57.7448 0 56.9798 6.63048 49.4143Z" transform="matrix(-1.00035 0 0 1 691.5 619.28)"/><path d="M884.984 617.5 884.156 623.103 883.282 626.061 881.803 629.219 879.609 632.344 876.598 635.615 872.461 639.04 867.227 642.549 860.644 646.282 852.96 650.123 844.175 654.137 834.585 658.336 824.315 662.53 813.491 666.908 798.033 672.934 796.943 670.139 812.393 664.117 812.375 664.124 823.187 659.75 823.183 659.752 833.433 655.566 833.398 655.581 842.961 651.395 842.939 651.405 851.689 647.406 851.642 647.429 859.267 643.617 859.197 643.654 865.697 639.968 865.602 640.027 870.727 636.591 870.606 636.681 874.606 633.37 874.459 633.51 877.334 630.386 877.21 630.539 879.272 627.603 879.141 627.829 880.516 624.892 880.436 625.103 881.249 622.354 881.203 622.56 882.016 617.062ZM800.521 675.183 790.5 674.261 797.251 666.8Z"/><path d="M884.994 618.417 884.113 628.04 883.279 632.722 882.116 637.177 880.425 641.468 878.209 645.575 875.333 649.494 871.692 653.199 867.387 656.604 862.672 659.788 857.528 662.772 852.017 665.558 840.333 670.707 835.018 672.849 833.896 670.067 839.189 667.934 839.145 667.953 850.77 662.83 850.698 662.864 856.135 660.115 856.06 660.156 861.122 657.219 861.035 657.274 865.66 654.15 865.569 654.216 869.757 650.905 869.617 651.03 873.117 647.469 872.978 647.633 875.728 643.884 875.617 644.059 877.742 640.123 877.667 640.286 879.292 636.162 879.236 636.333 880.361 632.022 880.336 632.138 881.148 627.577 881.131 627.703 882.006 618.144ZM837.531 675.07 827.5 674.261 834.166 666.724Z"/><path d="M93.4509 0.219158 92.6233 5.82168 91.7491 8.78043 90.2757 11.9282 88.147 15.0546 85.1339 18.3298 81.0654 21.7525 75.8934 25.2643 69.3739 28.9988 61.7565 32.839 53.0993 36.8539 43.5738 41.0526 33.434 45.2463 22.7388 49.6244 7.52551 55.624 6.42517 52.8339 21.6295 46.8378 21.6115 46.845 32.2952 42.4716 32.2902 42.4737 42.4116 38.2876 42.3799 38.3012 51.8765 34.1152 51.8505 34.127 60.4724 30.1284 60.4282 30.1497 67.9881 26.3386 67.9178 26.3764 74.353 22.6902 74.256 22.7508 79.3167 19.3146 79.1937 19.4077 83.1298 16.0963 82.9915 16.2285 85.8655 13.1047 85.7296 13.276 87.7289 10.3396 87.6102 10.5478 88.9847 7.61132 88.9048 7.82216 89.717 5.07313 89.6716 5.27889 90.4838-0.219158ZM10.0209 57.864 0 56.9798 6.71991 49.4936Z" transform="matrix(-1.00035 0 0 1 975.5 618.281)"/><path d="M56.4741 0.134044 55.5938 9.94365 54.7605 14.6869 53.6017 19.1935 51.9825 23.5328 49.827 27.7785 46.9496 31.7023 43.3868 35.4594 39.2091 38.9301 34.5542 42.1821 29.4769 45.2285 24.0934 48.0786 12.5971 53.3556 7.49817 55.4802 6.3446 52.7116 11.419 50.5973 11.3701 50.6187 22.8036 45.3705 22.7275 45.4081 28.0381 42.5966 27.9683 42.636 32.9665 39.6371 32.8792 39.6936 37.4401 36.5073 37.3406 36.5831 41.4017 33.2093 41.2718 33.3309 44.7081 29.7072 44.5869 29.8523 47.336 26.1036 47.2081 26.3116 49.2699 22.2505 49.202 22.4051 50.764 18.2191 50.7166 18.3699 51.8412 13.9964 51.8166 14.1104 52.6288 9.48707 52.6122 9.6125 53.4869-0.134044ZM10.036 57.6719 0 56.9798 6.57532 49.3663Z" transform="matrix(-1.00035 0 0 1 938.5 618.281)"/><path d="M1130.98 616.501 1130.16 622.103 1129.28 625.062 1127.8 628.219 1125.61 631.344 1122.6 634.615 1118.46 638.04 1113.23 641.55 1106.64 645.283 1098.96 649.123 1090.18 653.138 1080.58 657.336 1070.32 661.53 1059.49 665.908 1044.03 671.934 1042.94 669.14 1058.39 663.117 1058.37 663.124 1069.19 658.751 1069.18 658.753 1079.43 654.567 1079.4 654.581 1088.96 650.395 1088.94 650.405 1097.69 646.406 1097.64 646.429 1105.27 642.618 1105.2 642.655 1111.7 638.969 1111.6 639.027 1116.73 635.591 1116.61 635.682 1120.61 632.37 1120.46 632.51 1123.33 629.386 1123.21 629.54 1125.27 626.603 1125.14 626.829 1126.52 623.893 1126.44 624.104 1127.25 621.355 1127.2 621.56 1128.02 616.062ZM1046.52 674.184 1036.5 673.261 1043.25 665.801Z"/><path d="M1130.99 617.418 1130.11 627.04 1129.28 631.722 1128.12 636.178 1126.43 640.469 1124.21 644.575 1121.33 648.494 1117.69 652.199 1113.39 655.604 1108.67 658.788 1103.53 661.772 1098.02 664.558 1086.33 669.707 1081.02 671.849 1079.9 669.067 1085.19 666.935 1085.14 666.953 1096.77 661.83 1096.7 661.864 1102.14 659.115 1102.06 659.156 1107.12 656.22 1107.04 656.274 1111.66 653.15 1111.57 653.217 1115.76 649.905 1115.62 650.031 1119.12 646.469 1118.98 646.633 1121.73 642.885 1121.62 643.059 1123.74 639.123 1123.67 639.286 1125.29 635.162 1125.24 635.333 1126.36 631.023 1126.34 631.138 1127.15 626.577 1127.13 626.704 1128.01 617.144ZM1083.53 674.07 1073.5 673.261 1080.17 665.725Z"/><path d="M93.4509 0.219158 92.6233 5.82168 91.7491 8.78043 90.2757 11.9282 88.147 15.0546 85.1339 18.3298 81.0654 21.7525 75.8934 25.2643 69.3739 28.9988 61.7565 32.839 53.0993 36.8539 43.5738 41.0526 33.434 45.2463 22.7388 49.6244 7.52551 55.624 6.42517 52.8339 21.6295 46.8378 21.6115 46.845 32.2952 42.4716 32.2902 42.4737 42.4116 38.2876 42.3799 38.3012 51.8765 34.1152 51.8505 34.127 60.4724 30.1284 60.4282 30.1497 67.9881 26.3386 67.9178 26.3764 74.353 22.6902 74.256 22.7508 79.3167 19.3146 79.1937 19.4077 83.1298 16.0963 82.9915 16.2285 85.8655 13.1047 85.7296 13.276 87.7289 10.3396 87.6102 10.5478 88.9847 7.61132 88.9048 7.82216 89.717 5.07313 89.6716 5.27889 90.4838-0.219158ZM10.0209 57.864 0 56.9798 6.71991 49.4936Z" transform="matrix(-1.00035 0 0 1 1221.5 617.281)"/><path d="M56.4741 0.134044 55.5938 9.94365 54.7605 14.6869 53.6017 19.1935 51.9825 23.5328 49.827 27.7785 46.9496 31.7023 43.3868 35.4594 39.2091 38.9301 34.5542 42.1821 29.4769 45.2285 24.0934 48.0786 12.5971 53.3556 7.49817 55.4802 6.3446 52.7116 11.419 50.5973 11.3701 50.6187 22.8036 45.3705 22.7275 45.4081 28.0381 42.5966 27.9683 42.636 32.9665 39.6371 32.8792 39.6936 37.4401 36.5073 37.3406 36.5831 41.4017 33.2093 41.2718 33.3309 44.7081 29.7072 44.5869 29.8523 47.336 26.1036 47.2081 26.3116 49.2699 22.2505 49.202 22.4051 50.764 18.2191 50.7166 18.3699 51.8412 13.9964 51.8166 14.1104 52.6288 9.48707 52.6122 9.6125 53.4869-0.134044ZM10.036 57.6719 0 56.9798 6.57532 49.3663Z" transform="matrix(-1.00035 0 0 1 1184.5 617.281)"/><path d="M1385.98 618.5 1385.16 624.102 1384.28 627.061 1382.8 630.219 1380.61 633.343 1377.6 636.615 1373.46 640.039 1368.23 643.549 1361.64 647.282 1353.96 651.123 1345.18 655.137 1335.58 659.335 1325.32 663.529 1314.49 667.907 1299.03 673.933 1297.94 671.139 1313.39 665.116 1313.37 665.123 1324.19 660.75 1324.18 660.752 1334.43 656.566 1334.4 656.58 1343.96 652.394 1343.94 652.404 1352.69 648.406 1352.64 648.428 1360.27 644.617 1360.2 644.654 1366.7 640.968 1366.6 641.027 1371.73 637.59 1371.61 637.681 1375.61 634.37 1375.46 634.509 1378.33 631.385 1378.21 631.539 1380.27 628.602 1380.14 628.828 1381.52 625.892 1381.44 626.103 1382.25 623.354 1382.2 623.56 1383.02 618.062ZM1301.52 676.183 1291.5 675.26 1298.25 667.8Z"/><path d="M1385.99 618.415 1385.11 628.224 1384.28 632.968 1383.12 637.484 1381.43 641.831 1379.21 646.067 1376.34 649.988 1372.7 653.752 1368.4 657.22 1363.68 660.468 1358.54 663.515 1353.03 666.364 1341.34 671.64 1336.01 673.815 1334.88 671.039 1340.18 668.874 1340.13 668.896 1351.76 663.647 1351.69 663.682 1357.12 660.871 1357.05 660.912 1362.11 657.914 1362.02 657.969 1366.65 654.783 1366.56 654.85 1370.75 651.476 1370.61 651.602 1374.11 647.978 1373.98 648.133 1376.73 644.384 1376.61 644.576 1378.73 640.515 1378.66 640.668 1380.29 636.482 1380.23 636.651 1381.36 632.277 1381.33 632.391 1382.15 627.768 1382.13 627.893 1383.01 618.147ZM1338.53 676.026 1328.5 675.26 1335.13 667.695Z"/><path d="M93.4513 0.216747 92.6249 5.87415 91.7529 8.95976 90.2788 12.1089 88.1561 15.2929 85.1442 18.6322 81.0759 22.1193 75.8989 25.6985 69.3824 29.4313 61.7694 33.3951 53.1072 37.4751 43.5848 41.7351 33.4413 46.0555 22.7439 50.4346 7.51542 56.5688 6.39477 53.7868 21.6193 47.6541 21.6115 47.6572 32.2952 43.2838 32.2757 43.292 42.3971 38.981 42.3724 38.9918 51.869 34.7433 51.8424 34.7555 60.4643 30.6945 60.4108 30.721 67.9706 26.7849 67.9178 26.8138 74.353 23.1276 74.2456 23.1953 79.3063 19.6965 79.1831 19.7915 83.1192 16.4177 82.9816 16.5519 85.8556 13.3655 85.7214 13.5381 87.7207 10.5391 87.6102 10.7352 88.9847 7.79876 88.8998 8.02667 89.7121 5.15269 89.6713 5.34378 90.4835-0.216747ZM10.0271 58.7905 0 57.9794 6.66514 50.4444Z" transform="matrix(-1.00035 0 0 1 1476.5 618.281)"/><path d="M56.4741 0.134044 55.5938 9.94365 54.7605 14.6869 53.6017 19.1935 51.9825 23.5328 49.827 27.7785 46.9496 31.7023 43.3868 35.4594 39.2091 38.9301 34.5542 42.1821 29.4769 45.2285 24.0934 48.0786 12.5971 53.3556 7.49817 55.4802 6.3446 52.7116 11.419 50.5973 11.3701 50.6187 22.8036 45.3705 22.7275 45.4081 28.0381 42.5966 27.9683 42.636 32.9665 39.6371 32.8792 39.6936 37.4401 36.5073 37.3406 36.5831 41.4017 33.2093 41.2718 33.3309 44.7081 29.7072 44.5869 29.8523 47.336 26.1036 47.2081 26.3116 49.2699 22.2505 49.202 22.4051 50.764 18.2191 50.7166 18.3699 51.8412 13.9964 51.8166 14.1104 52.6288 9.48707 52.6122 9.6125 53.4869-0.134044ZM10.036 57.6719 0 56.9798 6.57532 49.3663Z" transform="matrix(-1.00035 0 0 1 1439.5 619.28)"/></g></svg>