<svg width="1436" height="456" xmlns="http://www.w3.org/2000/svg" xmlns:xlink="http://www.w3.org/1999/xlink" overflow="hidden"><defs><clipPath id="clip0"><rect x="0" y="0" width="1436" height="456"/></clipPath></defs><g clip-path="url(#clip0)"><rect x="0" y="0" width="1436" height="455.605" fill="#FFFFFF"/><rect x="72" y="28.0373" width="219" height="166.221" stroke="#000000" stroke-width="1.99954" stroke-miterlimit="8" fill="#FFFFFF"/><rect x="72" y="194.258" width="219" height="165.219" stroke="#000000" stroke-width="1.99954" stroke-miterlimit="8" fill="#FFFFFF"/><path d="M163.5 194.258C163.5 184.027 171.783 175.733 182 175.733 192.217 175.733 200.5 184.027 200.5 194.258 200.5 204.489 192.217 212.783 182 212.783 171.783 212.783 163.5 204.489 163.5 194.258Z" stroke="#000000" stroke-width="1.33302" stroke-miterlimit="8" stroke-dasharray="3.99907 1.33302" fill="none" fill-rule="evenodd"/><path d="M276.5 359.978 313.178 359.978" stroke="#000000" stroke-width="1.33302" stroke-miterlimit="8" stroke-dasharray="3.99907 1.33302" fill="none" fill-rule="evenodd"/><path d="M276.5 194.759 313.178 194.759" stroke="#000000" stroke-width="1.33302" stroke-miterlimit="8" stroke-dasharray="3.99907 1.33302" fill="none" fill-rule="evenodd"/><path d="M276.5 28.538 313.178 28.5381" stroke="#000000" stroke-width="1.33302" stroke-miterlimit="8" stroke-dasharray="3.99907 1.33302" fill="none" fill-rule="evenodd"/><text font-family="Cambria Math,Cambria Math_MSFontService,sans-serif" font-weight="400" font-size="21" transform="matrix(1 0 0 1.00133 319.352 36)">𝐴<tspan font-size="21" x="-4.16571" y="162.783">𝐴</tspan><tspan font-size="21" x="9.53778" y="162.783">/</tspan><tspan font-size="21" x="20.0353" y="162.783">2</tspan><tspan font-size="21" x="0.933105" y="330.56">0</tspan><tspan font-size="24" x="-295.492" y="273.636">𝑥</tspan><tspan font-size="18" x="-283.448" y="278.629">1</tspan><tspan fill="#7F7F7F" font-size="24" x="-295.492" y="205.726">𝑥</tspan><tspan fill="#7F7F7F" font-size="18" x="-283.448" y="210.72">1</tspan></text><path d="M0.999768-1.55356e-06 0.999863 60.8817-0.999673 60.8817-0.999768 1.55356e-06ZM-3.99907 6.21425e-06-6.21425e-06-3.99907 3.99907-6.21425e-06 6.21425e-06 3.99907ZM3.99916 59.5487 0.000104963 67.5468-3.99898 59.5487Z" transform="matrix(1 0 0 -1.00133 60 300.947)"/><path d="M0.999768-1.55356e-06 0.999863 60.8817-0.999673 60.8817-0.999768 1.55356e-06ZM-3.99907 6.21425e-06-6.21425e-06-3.99907 3.99907-6.21425e-06 6.21425e-06 3.99907ZM3.99916 59.5487 0.000104963 67.5468-3.99898 59.5487Z" transform="matrix(1 0 0 -1.00133 145 300.947)"/><path d="M119.5 301.4C119.5 296.7 123.306 292.889 128 292.889 132.694 292.889 136.5 296.7 136.5 301.4 136.5 306.101 132.694 309.912 128 309.912 123.306 309.912 119.5 306.101 119.5 301.4Z" stroke="#767171" stroke-width="1.33302" stroke-miterlimit="8" fill="#767171" fill-rule="evenodd"/><path d="M119.5 234.311C119.5 229.611 123.306 225.8 128 225.8 132.694 225.8 136.5 229.611 136.5 234.311 136.5 239.012 132.694 242.823 128 242.823 123.306 242.823 119.5 239.012 119.5 234.311Z" stroke="#D0CECE" stroke-width="1.33302" stroke-miterlimit="8" fill="#D0CECE" fill-rule="evenodd"/><rect x="422" y="29.0386" width="219" height="165.219" stroke="#000000" stroke-width="1.99954" stroke-miterlimit="8" fill="#FFFFFF"/><rect x="422" y="194.258" width="219" height="165.219" stroke="#000000" stroke-width="1.99954" stroke-miterlimit="8" fill="#FFFFFF"/><path d="M513.5 194.759C513.5 184.251 521.783 175.733 532 175.733 542.217 175.733 550.5 184.251 550.5 194.759 550.5 205.266 542.217 213.784 532 213.784 521.783 213.784 513.5 205.266 513.5 194.759Z" stroke="#000000" stroke-width="1.33302" stroke-miterlimit="8" stroke-dasharray="3.99907 1.33302" fill="none" fill-rule="evenodd"/><path d="M626.5 359.978 663.178 359.978" stroke="#000000" stroke-width="1.33302" stroke-miterlimit="8" stroke-dasharray="3.99907 1.33302" fill="none" fill-rule="evenodd"/><path d="M626.5 194.759 663.178 194.759" stroke="#000000" stroke-width="1.33302" stroke-miterlimit="8" stroke-dasharray="3.99907 1.33302" fill="none" fill-rule="evenodd"/><path d="M626.5 29.5393 663.178 29.5394" stroke="#000000" stroke-width="1.33302" stroke-miterlimit="8" stroke-dasharray="3.99907 1.33302" fill="none" fill-rule="evenodd"/><text font-family="Cambria Math,Cambria Math_MSFontService,sans-serif" font-weight="400" font-size="21" transform="matrix(1 0 0 1.00133 669.384 36)">𝐴<tspan font-size="21" x="-4.16571" y="163.782">𝐴</tspan><tspan font-size="21" x="9.53778" y="163.782">/</tspan><tspan font-size="21" x="20.0353" y="163.782">2</tspan><tspan font-size="21" x="0.933105" y="331.559">0</tspan><tspan font-size="24" x="-295.492" y="273.636">𝑥</tspan><tspan font-size="18" x="-283.448" y="278.629">1</tspan><tspan fill="#7F7F7F" font-size="24" x="-295.492" y="165.78">𝑥</tspan><tspan fill="#7F7F7F" font-size="18" x="-283.448" y="170.773">1</tspan></text><path d="M0.999768-9.70501e-07 0.999866 101.463-0.999669 101.463-0.999768 9.70501e-07ZM-3.99907 3.882e-06-3.882e-06-3.99907 3.99907-3.882e-06 3.882e-06 3.99907ZM3.99917 100.13 0.000104963 108.128-3.99897 100.13Z" transform="matrix(1 0 0 -1.00133 410 301.528)"/><path d="M0.999768-5.79134e-07 0.999869 174.533-0.999667 174.533-0.999768 5.79134e-07ZM-3.99907 2.31654e-06-2.31654e-06-3.99907 3.99907-2.31654e-06 2.31654e-06 3.99907ZM3.99917 173.2 0.000104963 181.198-3.99897 173.2Z" transform="matrix(1 0 0 -1.00133 495 301.599)"/><path d="M469.5 301.4C469.5 296.7 473.306 292.889 478 292.889 482.694 292.889 486.5 296.7 486.5 301.4 486.5 306.101 482.694 309.912 478 309.912 473.306 309.912 469.5 306.101 469.5 301.4Z" stroke="#767171" stroke-width="1.33302" stroke-miterlimit="8" fill="#767171" fill-rule="evenodd"/><path d="M469.5 120.16C469.5 115.459 473.306 111.648 478 111.648 482.694 111.648 486.5 115.459 486.5 120.16 486.5 124.86 482.694 128.671 478 128.671 473.306 128.671 469.5 124.86 469.5 120.16Z" stroke="#D0CECE" stroke-width="1.33302" stroke-miterlimit="8" fill="#D0CECE" fill-rule="evenodd"/><rect x="777" y="28.0373" width="219" height="165.219" stroke="#000000" stroke-width="1.99954" stroke-miterlimit="8" fill="#FFFFFF"/><rect x="777" y="193.257" width="219" height="166.221" stroke="#000000" stroke-width="1.99954" stroke-miterlimit="8" fill="#FFFFFF"/><path d="M868.5 194.258C868.5 184.027 876.783 175.733 887 175.733 897.217 175.733 905.5 184.027 905.5 194.258 905.5 204.489 897.217 212.783 887 212.783 876.783 212.783 868.5 204.489 868.5 194.258Z" stroke="#000000" stroke-width="1.33302" stroke-miterlimit="8" stroke-dasharray="3.99907 1.33302" fill="none" fill-rule="evenodd"/><path d="M981.5 359.978 1018.18 359.978" stroke="#000000" stroke-width="1.33302" stroke-miterlimit="8" stroke-dasharray="3.99907 1.33302" fill="none" fill-rule="evenodd"/><path d="M981.5 193.757 1018.18 193.757" stroke="#000000" stroke-width="1.33302" stroke-miterlimit="8" stroke-dasharray="3.99907 1.33302" fill="none" fill-rule="evenodd"/><path d="M981.5 28.538 1018.18 28.5381" stroke="#000000" stroke-width="1.33302" stroke-miterlimit="8" stroke-dasharray="3.99907 1.33302" fill="none" fill-rule="evenodd"/><text font-family="Cambria Math,Cambria Math_MSFontService,sans-serif" font-weight="400" font-size="21" transform="matrix(1 0 0 1.00133 1024.23 35)">𝐴<tspan font-size="21" x="-4.16577" y="163.782">𝐴</tspan><tspan font-size="21" x="9.53772" y="163.782">/</tspan><tspan font-size="21" x="20.0353" y="163.782">2</tspan><tspan font-size="21" x="0.933105" y="331.559">0</tspan><tspan font-size="24" x="-295.492" y="165.78">𝑥</tspan><tspan font-size="18" x="-283.448" y="170.773">1</tspan></text><path d="M0.999768-2.5698e-06 0.999856 34.17-0.99968 34.17-0.999768 2.5698e-06ZM-3.99907 1.02792e-05-1.02792e-05-3.99907 3.99907-1.02792e-05 1.02792e-05 3.99907ZM3.99916 32.837 0.000104963 40.8351-3.99899 32.837Z" transform="matrix(1 0 0 -1.00133 850 160.048)"/><path d="M824.5 161.214C824.5 156.513 828.306 152.703 833 152.703 837.694 152.703 841.5 156.513 841.5 161.214 841.5 165.915 837.694 169.725 833 169.725 828.306 169.725 824.5 165.915 824.5 161.214Z" stroke="#767171" stroke-width="1.33302" stroke-miterlimit="8" fill="#767171" fill-rule="evenodd"/><path d="M824.5 119.659C824.5 114.682 828.306 110.647 833 110.647 837.694 110.647 841.5 114.682 841.5 119.659 841.5 124.636 837.694 128.671 833 128.671 828.306 128.671 824.5 124.636 824.5 119.659Z" stroke="#D0CECE" stroke-width="1.33302" stroke-miterlimit="8" fill="#D0CECE" fill-rule="evenodd"/><rect x="1119" y="29.0386" width="219" height="165.219" stroke="#000000" stroke-width="1.99954" stroke-miterlimit="8" fill="#FFFFFF"/><rect x="1119" y="194.258" width="219" height="166.221" stroke="#000000" stroke-width="1.99954" stroke-miterlimit="8" fill="#FFFFFF"/><path d="M1210.5 195.259C1210.5 185.029 1218.78 176.735 1229 176.735 1239.22 176.735 1247.5 185.029 1247.5 195.259 1247.5 205.49 1239.22 213.784 1229 213.784 1218.78 213.784 1210.5 205.49 1210.5 195.259Z" stroke="#000000" stroke-width="1.33302" stroke-miterlimit="8" stroke-dasharray="3.99907 1.33302" fill="none" fill-rule="evenodd"/><path d="M1323.5 360.98 1360.18 360.98" stroke="#000000" stroke-width="1.33302" stroke-miterlimit="8" stroke-dasharray="3.99907 1.33302" fill="none" fill-rule="evenodd"/><path d="M1323.5 194.759 1360.18 194.759" stroke="#000000" stroke-width="1.33302" stroke-miterlimit="8" stroke-dasharray="3.99907 1.33302" fill="none" fill-rule="evenodd"/><path d="M1323.5 29.5393 1360.18 29.5394" stroke="#000000" stroke-width="1.33302" stroke-miterlimit="8" stroke-dasharray="3.99907 1.33302" fill="none" fill-rule="evenodd"/><text font-family="Cambria Math,Cambria Math_MSFontService,sans-serif" font-weight="400" font-size="21" transform="matrix(1 0 0 1.00133 1366.44 36)">𝐴<tspan font-size="21" x="-4.16565" y="163.782">𝐴</tspan><tspan font-size="21" x="9.53784" y="163.782">/</tspan><tspan font-size="21" x="20.0354" y="163.782">2</tspan><tspan font-size="21" x="0.933105" y="331.559">0</tspan><tspan fill="#7F7F7F" font-size="24" x="-295.492" y="274.635">𝑥</tspan><tspan fill="#7F7F7F" font-size="18" x="-283.448" y="278.629">1</tspan><tspan font-size="24" x="-295.492" y="165.78">𝑥</tspan><tspan font-size="18" x="-283.448" y="170.773">1</tspan></text><path d="M1108 193.257 1108 294.854 1106 294.854 1106 193.257ZM1103 193.257 1107 189.252 1111 193.257 1107 197.261ZM1111 293.52 1107 301.528 1103 293.52Z"/><path d="M1193 72.0957 1193 294.836 1191 294.836 1191 72.0957ZM1188 72.0957 1192 68.0914 1196 72.0957 1192 76.1001ZM1196 293.5 1192 301.509 1188 293.5Z"/><path d="M1166.5 302.402C1166.5 297.701 1170.31 293.89 1175 293.89 1179.69 293.89 1183.5 297.701 1183.5 302.402 1183.5 307.102 1179.69 310.913 1175 310.913 1170.31 310.913 1166.5 307.102 1166.5 302.402Z" stroke="#767171" stroke-width="1.33302" stroke-miterlimit="8" fill="#767171" fill-rule="evenodd"/><path d="M1164.5 75.0998C1164.5 70.3991 1168.53 66.5885 1173.5 66.5885 1178.47 66.5885 1182.5 70.3991 1182.5 75.0998 1182.5 79.8004 1178.47 83.6111 1173.5 83.6111 1168.53 83.6111 1164.5 79.8004 1164.5 75.0998Z" stroke="#D0CECE" stroke-width="1.33302" stroke-miterlimit="8" fill="#D0CECE" fill-rule="evenodd"/><text font-family="Calibri,Calibri_MSFontService,sans-serif" font-style="italic" font-weight="400" font-size="24" transform="matrix(1 0 0 1.00133 90.3573 413)">Η μπάλα μένει στο <tspan font-size="24" x="53.2143" y="28.9615">1</tspan><tspan font-size="16" x="65.3782" y="21.9708">ο</tspan><tspan font-size="24" x="84.5404" y="28.9615">μισό</tspan><tspan font-size="24" x="348.11" y="0">Η μπάλα πηγαίνει </tspan><tspan font-size="24" x="331.134" y="28.9615">από το 1</tspan><tspan font-size="16" x="415.115" y="21.9708">ο</tspan><tspan font-size="24" x="428.778" y="28.9615">μισό στο 2</tspan><tspan font-size="16" x="531.348" y="21.9708">ο</tspan><tspan font-size="24" x="691.968" y="0">Η μπάλα μένει στο 2</tspan><tspan font-size="16" x="892.049" y="-6.9907">ο</tspan><tspan font-size="24" x="773.763" y="28.9615">μισό</tspan><tspan font-size="24" x="1057.05" y="0">Η μπάλα πηγαίνει </tspan><tspan font-size="24" x="1040.07" y="28.9615">από το 2</tspan><tspan font-size="16" x="1124.05" y="21.9708">ο</tspan><tspan font-size="24" x="1137.72" y="28.9615">μισό στο 1</tspan><tspan font-size="16" x="1240.29" y="21.9708">ο</tspan></text></g></svg>