<svg width="643" height="605" xmlns="http://www.w3.org/2000/svg" xmlns:xlink="http://www.w3.org/1999/xlink" overflow="hidden"><defs><clipPath id="clip0"><rect x="0" y="0" width="643" height="605"/></clipPath></defs><g clip-path="url(#clip0)"><rect x="0" y="0" width="643" height="604.863" fill="#FFFFFF"/><path d="M0 0 127.672 0.000105045" stroke="#000000" stroke-width="3.00165" stroke-miterlimit="8" fill="none" fill-rule="evenodd" transform="matrix(-1.00023 0 0 1 546.201 391.411)"/><path d="M0 0 192.982 0.000105045" stroke="#000000" stroke-width="3.00165" stroke-miterlimit="8" fill="none" fill-rule="evenodd" transform="matrix(-1.00023 0 0 1 545.526 154.465)"/><path d="M552.507 96.0965 482.5 95.4783" stroke="#000000" stroke-width="3.00233" stroke-miterlimit="8" fill="none" fill-rule="evenodd"/><path d="M0 0 192.247 0.000105045" stroke="#000000" stroke-width="3.00165" stroke-miterlimit="8" fill="none" fill-rule="evenodd" transform="matrix(-1.00023 0 0 1 610.79 508.385)"/><path d="M0 0 192.247 0.000105045" stroke="#000000" stroke-width="3.00165" stroke-miterlimit="8" fill="none" fill-rule="evenodd" transform="matrix(-1.00023 0 0 1 544.79 272.438)"/><path d="M486.507 216.069 416.5 215.451" stroke="#000000" stroke-width="3.00233" stroke-miterlimit="8" fill="none" fill-rule="evenodd"/><path d="M418.5 156.464 418.5 282.372" stroke="#000000" stroke-width="3.00233" stroke-miterlimit="8" fill="none" fill-rule="evenodd"/><path d="M546.5 95.4783 546.5 159.199" stroke="#000000" stroke-width="3.00233" stroke-miterlimit="8" fill="none" fill-rule="evenodd"/><path d="M354.5 92.479 354.5 156.2" stroke="#000000" stroke-width="3.00233" stroke-miterlimit="8" fill="none" fill-rule="evenodd"/><path d="M482.5 92.479 482.5 278.776" stroke="#000000" stroke-width="3.00233" stroke-miterlimit="8" fill="none" fill-rule="evenodd"/><path d="M0 0 192.247 0.000105045" stroke="#000000" stroke-width="3.00165" stroke-miterlimit="8" fill="none" fill-rule="evenodd" transform="matrix(-1.00023 0 0 1 289.79 453.397)"/><path d="M0 0 127.672 0.000105045" stroke="#000000" stroke-width="3.00165" stroke-miterlimit="8" fill="none" fill-rule="evenodd" transform="matrix(-1.00023 0 0 1 225.201 508.385)"/><path d="M224.5 446.399 224.5 510.119" stroke="#000000" stroke-width="3.00233" stroke-miterlimit="8" fill="none" fill-rule="evenodd"/><path d="M161.5 455.397 161.5 519.117" stroke="#000000" stroke-width="3.00233" stroke-miterlimit="8" fill="none" fill-rule="evenodd"/><path d="M97.5 451.398 97.5001 515.118" stroke="#000000" stroke-width="3.00233" stroke-miterlimit="8" fill="none" fill-rule="evenodd"/><path d="M127.181 65.9221 65.8539 64.4854 62.5 359.023 257.5 361.418 254.146 185.653 196.173 182.779 191.861 126.745 128.139 124.351 127.181 65.9221Z" stroke="#000000" stroke-width="3.00233" stroke-miterlimit="8" fill="#E2F0D9" fill-rule="evenodd"/><path d="M165.507 156.083 95.5 155.465" stroke="#000000" stroke-width="3.00233" stroke-miterlimit="8" fill="none" fill-rule="evenodd"/><path d="M161.5 155.465 161.5 331.031" stroke="#000000" stroke-width="3.00233" stroke-miterlimit="8" fill="none" fill-rule="evenodd"/><path d="M224.5 208.453 224.5 334.36" stroke="#000000" stroke-width="3.00233" stroke-miterlimit="8" fill="none" fill-rule="evenodd"/><path d="M0 0 127.672 0.000105045" stroke="#000000" stroke-width="3.00165" stroke-miterlimit="8" fill="none" fill-rule="evenodd" transform="matrix(-1.00023 0 0 1 225.201 213.452)"/><path d="M0 0 127.672 0.000105045" stroke="#000000" stroke-width="3.00165" stroke-miterlimit="8" fill="none" fill-rule="evenodd" transform="matrix(-1.00023 0 0 1 225.201 272.438)"/><path d="M0 0 127.672 0.000105045" stroke="#000000" stroke-width="3.00165" stroke-miterlimit="8" fill="none" fill-rule="evenodd" transform="matrix(-1.00023 0 0 1 225.201 333.424)"/><path d="M96.5 92.479 96.5001 331.417" stroke="#000000" stroke-width="3.00233" stroke-miterlimit="8" fill="none" fill-rule="evenodd"/><path d="M9.49999 36.4918C9.49999 23.7921 20.0213 13.497 33 13.497 45.9787 13.497 56.5 23.7921 56.5 36.4918 56.5 49.1914 45.9787 59.4865 33 59.4865 20.0213 59.4865 9.49999 49.1914 9.49999 36.4918Z" stroke="#404040" stroke-width="3.00233" stroke-miterlimit="8" fill="#D9D9D9" fill-rule="evenodd"/><text font-family="Calibri,Calibri_MSFontService,sans-serif" font-weight="400" font-size="24" transform="matrix(1 0 0 0.999773 21.8005 43)">@</text><path d="M74.5 36.4918C74.5 23.7921 84.7975 13.497 97.5 13.497 110.203 13.497 120.5 23.7921 120.5 36.4918 120.5 49.1914 110.203 59.4865 97.5 59.4865 84.7975 59.4865 74.5 49.1914 74.5 36.4918Z" stroke="#404040" stroke-width="3.00233" stroke-miterlimit="8" fill="#D9D9D9" fill-rule="evenodd"/><text font-family="Calibri,Calibri_MSFontService,sans-serif" font-weight="400" font-size="24" transform="matrix(1 0 0 0.999773 86.0096 43)">@</text><path d="M138.5 36.4918C138.5 23.7921 148.797 13.497 161.5 13.497 174.203 13.497 184.5 23.7921 184.5 36.4918 184.5 49.1914 174.203 59.4865 161.5 59.4865 148.797 59.4865 138.5 49.1914 138.5 36.4918Z" stroke="#404040" stroke-width="3.00233" stroke-miterlimit="8" fill="#D9D9D9" fill-rule="evenodd"/><text font-family="Calibri,Calibri_MSFontService,sans-serif" font-weight="400" font-size="24" transform="matrix(1 0 0 0.999773 150.219 43)">@</text><path d="M202.5 36.4918C202.5 23.7921 212.797 13.497 225.5 13.497 238.203 13.497 248.5 23.7921 248.5 36.4918 248.5 49.1914 238.203 59.4865 225.5 59.4865 212.797 59.4865 202.5 49.1914 202.5 36.4918Z" stroke="#404040" stroke-width="3.00233" stroke-miterlimit="8" fill="#D9D9D9" fill-rule="evenodd"/><text font-family="Calibri,Calibri_MSFontService,sans-serif" font-weight="400" font-size="24" transform="matrix(1 0 0 0.999773 214.428 43)">@</text><path d="M266.5 36.4918C266.5 23.7921 277.021 13.497 290 13.497 302.979 13.497 313.5 23.7921 313.5 36.4918 313.5 49.1914 302.979 59.4865 290 59.4865 277.021 59.4865 266.5 49.1914 266.5 36.4918Z" stroke="#404040" stroke-width="3.00233" stroke-miterlimit="8" fill="#D9D9D9" fill-rule="evenodd"/><text font-family="Calibri,Calibri_MSFontService,sans-serif" font-weight="400" font-size="24" transform="matrix(1 0 0 0.999773 278.637 43)">@</text><path d="M330.5 36.4918C330.5 23.7921 341.021 13.497 354 13.497 366.979 13.497 377.5 23.7921 377.5 36.4918 377.5 49.1914 366.979 59.4865 354 59.4865 341.021 59.4865 330.5 49.1914 330.5 36.4918Z" stroke="#404040" stroke-width="3.00233" stroke-miterlimit="8" fill="#D9D9D9" fill-rule="evenodd"/><text font-family="Calibri,Calibri_MSFontService,sans-serif" font-weight="400" font-size="24" transform="matrix(1 0 0 0.999773 342.846 43)">@</text><path d="M395.5 36.4918C395.5 23.7921 405.797 13.497 418.5 13.497 431.202 13.497 441.5 23.7921 441.5 36.4918 441.5 49.1914 431.202 59.4865 418.5 59.4865 405.797 59.4865 395.5 49.1914 395.5 36.4918Z" stroke="#404040" stroke-width="3.00233" stroke-miterlimit="8" fill="#D9D9D9" fill-rule="evenodd"/><text font-family="Calibri,Calibri_MSFontService,sans-serif" font-weight="400" font-size="24" transform="matrix(1 0 0 0.999773 407.055 43)">@</text><path d="M459.5 36.4918C459.5 23.7921 469.797 13.497 482.5 13.497 495.203 13.497 505.5 23.7921 505.5 36.4918 505.5 49.1914 495.203 59.4865 482.5 59.4865 469.797 59.4865 459.5 49.1914 459.5 36.4918Z" stroke="#404040" stroke-width="3.00233" stroke-miterlimit="8" fill="#D9D9D9" fill-rule="evenodd"/><text font-family="Calibri,Calibri_MSFontService,sans-serif" font-weight="400" font-size="24" transform="matrix(1 0 0 0.999773 471.264 43)">@</text><path d="M523.5 36.4918C523.5 23.7921 533.797 13.497 546.5 13.497 559.203 13.497 569.5 23.7921 569.5 36.4918 569.5 49.1914 559.203 59.4865 546.5 59.4865 533.797 59.4865 523.5 49.1914 523.5 36.4918Z" stroke="#404040" stroke-width="3.00233" stroke-miterlimit="8" fill="#D9D9D9" fill-rule="evenodd"/><text font-family="Calibri,Calibri_MSFontService,sans-serif" font-weight="400" font-size="24" transform="matrix(1 0 0 0.999773 535.473 43)">@</text><path d="M587.5 36.4918C587.5 23.7921 598.021 13.497 611 13.497 623.979 13.497 634.5 23.7921 634.5 36.4918 634.5 49.1914 623.979 59.4865 611 59.4865 598.021 59.4865 587.5 49.1914 587.5 36.4918Z" stroke="#404040" stroke-width="3.00233" stroke-miterlimit="8" fill="#D9D9D9" fill-rule="evenodd"/><text font-family="Calibri,Calibri_MSFontService,sans-serif" font-weight="400" font-size="24" transform="matrix(1 0 0 0.999773 599.683 43)">@</text><path d="M9.49999 95.4784C9.49999 82.7787 20.0213 72.4836 33 72.4836 45.9787 72.4836 56.5 82.7787 56.5 95.4784 56.5 108.178 45.9787 118.473 33 118.473 20.0213 118.473 9.49999 108.178 9.49999 95.4784Z" stroke="#404040" stroke-width="3.00233" stroke-miterlimit="8" fill="#D9D9D9" fill-rule="evenodd"/><text font-family="Calibri,Calibri_MSFontService,sans-serif" font-weight="400" font-size="24" transform="matrix(1 0 0 0.999773 21.8005 103)">@</text><path d="M74.5 95.4784C74.5 82.7787 84.7975 72.4836 97.5 72.4836 110.203 72.4836 120.5 82.7787 120.5 95.4784 120.5 108.178 110.203 118.473 97.5 118.473 84.7975 118.473 74.5 108.178 74.5 95.4784Z" stroke="#404040" stroke-width="3.00233" stroke-miterlimit="8" fill="#D9D9D9" fill-rule="evenodd"/><text font-family="Calibri,Calibri_MSFontService,sans-serif" font-weight="400" font-size="24" transform="matrix(1 0 0 0.999773 93.7657 103)">.</text><path d="M138.5 95.4784C138.5 82.7787 148.797 72.4836 161.5 72.4836 174.203 72.4836 184.5 82.7787 184.5 95.4784 184.5 108.178 174.203 118.473 161.5 118.473 148.797 118.473 138.5 108.178 138.5 95.4784Z" stroke="#404040" stroke-width="3.00233" stroke-miterlimit="8" fill="#D9D9D9" fill-rule="evenodd"/><text font-family="Calibri,Calibri_MSFontService,sans-serif" font-weight="400" font-size="24" transform="matrix(1 0 0 0.999773 150.219 103)">@</text><path d="M202.5 95.4784C202.5 82.7787 212.797 72.4836 225.5 72.4836 238.203 72.4836 248.5 82.7787 248.5 95.4784 248.5 108.178 238.203 118.473 225.5 118.473 212.797 118.473 202.5 108.178 202.5 95.4784Z" stroke="#404040" stroke-width="3.00233" stroke-miterlimit="8" fill="#D9D9D9" fill-rule="evenodd"/><text font-family="Calibri,Calibri_MSFontService,sans-serif" font-weight="400" font-size="24" transform="matrix(1 0 0 0.999773 214.428 103)">@</text><path d="M266.5 95.4784C266.5 82.7787 277.021 72.4836 290 72.4836 302.979 72.4836 313.5 82.7787 313.5 95.4784 313.5 108.178 302.979 118.473 290 118.473 277.021 118.473 266.5 108.178 266.5 95.4784Z" stroke="#404040" stroke-width="3.00233" stroke-miterlimit="8" fill="#D9D9D9" fill-rule="evenodd"/><text font-family="Calibri,Calibri_MSFontService,sans-serif" font-weight="400" font-size="24" transform="matrix(1 0 0 0.999773 278.637 103)">@</text><path d="M330.5 95.4784C330.5 82.7787 341.021 72.4836 354 72.4836 366.979 72.4836 377.5 82.7787 377.5 95.4784 377.5 108.178 366.979 118.473 354 118.473 341.021 118.473 330.5 108.178 330.5 95.4784Z" stroke="#404040" stroke-width="3.00233" stroke-miterlimit="8" fill="#D9D9D9" fill-rule="evenodd"/><text font-family="Calibri,Calibri_MSFontService,sans-serif" font-weight="400" font-size="24" transform="matrix(1 0 0 0.999773 350.602 103)">.</text><path d="M395.5 95.4784C395.5 82.7787 405.797 72.4836 418.5 72.4836 431.202 72.4836 441.5 82.7787 441.5 95.4784 441.5 108.178 431.202 118.473 418.5 118.473 405.797 118.473 395.5 108.178 395.5 95.4784Z" stroke="#404040" stroke-width="3.00233" stroke-miterlimit="8" fill="#D9D9D9" fill-rule="evenodd"/><text font-family="Calibri,Calibri_MSFontService,sans-serif" font-weight="400" font-size="24" transform="matrix(1 0 0 0.999773 407.055 103)">@</text><path d="M459.5 95.4784C459.5 82.7787 469.797 72.4836 482.5 72.4836 495.203 72.4836 505.5 82.7787 505.5 95.4784 505.5 108.178 495.203 118.473 482.5 118.473 469.797 118.473 459.5 108.178 459.5 95.4784Z" stroke="#404040" stroke-width="3.00233" stroke-miterlimit="8" fill="#D9D9D9" fill-rule="evenodd"/><text font-family="Calibri,Calibri_MSFontService,sans-serif" font-weight="400" font-size="24" transform="matrix(1 0 0 0.999773 479.02 103)">.</text><path d="M523.5 95.4784C523.5 82.7787 533.797 72.4836 546.5 72.4836 559.203 72.4836 569.5 82.7787 569.5 95.4784 569.5 108.178 559.203 118.473 546.5 118.473 533.797 118.473 523.5 108.178 523.5 95.4784Z" stroke="#404040" stroke-width="3.00233" stroke-miterlimit="8" fill="#D9D9D9" fill-rule="evenodd"/><text font-family="Calibri,Calibri_MSFontService,sans-serif" font-weight="400" font-size="24" transform="matrix(1 0 0 0.999773 543.229 103)">.</text><path d="M587.5 95.4784C587.5 82.7787 598.021 72.4836 611 72.4836 623.979 72.4836 634.5 82.7787 634.5 95.4784 634.5 108.178 623.979 118.473 611 118.473 598.021 118.473 587.5 108.178 587.5 95.4784Z" stroke="#404040" stroke-width="3.00233" stroke-miterlimit="8" fill="#D9D9D9" fill-rule="evenodd"/><text font-family="Calibri,Calibri_MSFontService,sans-serif" font-weight="400" font-size="24" transform="matrix(1 0 0 0.999773 599.683 103)">@</text><path d="M9.49999 154.965C9.49999 141.989 20.0213 131.47 33 131.47 45.9787 131.47 56.5 141.989 56.5 154.965 56.5 167.941 45.9787 178.459 33 178.459 20.0213 178.459 9.49999 167.941 9.49999 154.965Z" stroke="#404040" stroke-width="3.00233" stroke-miterlimit="8" fill="#D9D9D9" fill-rule="evenodd"/><text font-family="Calibri,Calibri_MSFontService,sans-serif" font-weight="400" font-size="24" transform="matrix(1 0 0 0.999773 21.8005 162)">@</text><path d="M74.5 154.965C74.5 141.989 84.7975 131.47 97.5 131.47 110.203 131.47 120.5 141.989 120.5 154.965 120.5 167.941 110.203 178.459 97.5 178.459 84.7975 178.459 74.5 167.941 74.5 154.965Z" stroke="#404040" stroke-width="3.00233" stroke-miterlimit="8" fill="#FFF2CC" fill-rule="evenodd"/><text font-family="Calibri,Calibri_MSFontService,sans-serif" font-weight="400" font-size="24" transform="matrix(1 0 0 0.999773 93.7657 162)">.</text><path d="M138.5 154.965C138.5 141.989 148.797 131.47 161.5 131.47 174.203 131.47 184.5 141.989 184.5 154.965 184.5 167.941 174.203 178.459 161.5 178.459 148.797 178.459 138.5 167.941 138.5 154.965Z" stroke="#404040" stroke-width="3.00233" stroke-miterlimit="8" fill="#D9D9D9" fill-rule="evenodd"/><text font-family="Calibri,Calibri_MSFontService,sans-serif" font-weight="400" font-size="24" transform="matrix(1 0 0 0.999773 157.975 162)">.</text><path d="M202.5 154.965C202.5 141.989 212.797 131.47 225.5 131.47 238.203 131.47 248.5 141.989 248.5 154.965 248.5 167.941 238.203 178.459 225.5 178.459 212.797 178.459 202.5 167.941 202.5 154.965Z" stroke="#404040" stroke-width="3.00233" stroke-miterlimit="8" fill="#D9D9D9" fill-rule="evenodd"/><text font-family="Calibri,Calibri_MSFontService,sans-serif" font-weight="400" font-size="24" transform="matrix(1 0 0 0.999773 214.428 162)">@</text><path d="M266.5 154.965C266.5 141.989 277.021 131.47 290 131.47 302.979 131.47 313.5 141.989 313.5 154.965 313.5 167.941 302.979 178.459 290 178.459 277.021 178.459 266.5 167.941 266.5 154.965Z" stroke="#404040" stroke-width="3.00233" stroke-miterlimit="8" fill="#D9D9D9" fill-rule="evenodd"/><text font-family="Calibri,Calibri_MSFontService,sans-serif" font-weight="400" font-size="24" transform="matrix(1 0 0 0.999773 278.637 162)">@</text><path d="M330.5 154.965C330.5 141.989 341.021 131.47 354 131.47 366.979 131.47 377.5 141.989 377.5 154.965 377.5 167.941 366.979 178.459 354 178.459 341.021 178.459 330.5 167.941 330.5 154.965Z" stroke="#404040" stroke-width="3.00233" stroke-miterlimit="8" fill="#D9D9D9" fill-rule="evenodd"/><text font-family="Calibri,Calibri_MSFontService,sans-serif" font-weight="400" font-size="24" transform="matrix(1 0 0 0.999773 350.602 162)">.</text><path d="M395.5 154.965C395.5 141.989 405.797 131.47 418.5 131.47 431.202 131.47 441.5 141.989 441.5 154.965 441.5 167.941 431.202 178.459 418.5 178.459 405.797 178.459 395.5 167.941 395.5 154.965Z" stroke="#404040" stroke-width="3.00233" stroke-miterlimit="8" fill="#D9D9D9" fill-rule="evenodd"/><text font-family="Calibri,Calibri_MSFontService,sans-serif" font-weight="400" font-size="24" transform="matrix(1 0 0 0.999773 414.811 162)">.</text><path d="M459.5 154.965C459.5 141.989 469.797 131.47 482.5 131.47 495.203 131.47 505.5 141.989 505.5 154.965 505.5 167.941 495.203 178.459 482.5 178.459 469.797 178.459 459.5 167.941 459.5 154.965Z" stroke="#404040" stroke-width="3.00233" stroke-miterlimit="8" fill="#D9D9D9" fill-rule="evenodd"/><text font-family="Calibri,Calibri_MSFontService,sans-serif" font-weight="400" font-size="24" transform="matrix(1 0 0 0.999773 479.02 162)">.</text><path d="M523.5 154.965C523.5 141.989 533.797 131.47 546.5 131.47 559.203 131.47 569.5 141.989 569.5 154.965 569.5 167.941 559.203 178.459 546.5 178.459 533.797 178.459 523.5 167.941 523.5 154.965Z" stroke="#404040" stroke-width="3.00233" stroke-miterlimit="8" fill="#D9D9D9" fill-rule="evenodd"/><text font-family="Calibri,Calibri_MSFontService,sans-serif" font-weight="400" font-size="24" transform="matrix(1 0 0 0.999773 543.229 162)">.</text><path d="M587.5 154.965C587.5 141.989 598.021 131.47 611 131.47 623.979 131.47 634.5 141.989 634.5 154.965 634.5 167.941 623.979 178.459 611 178.459 598.021 178.459 587.5 167.941 587.5 154.965Z" stroke="#404040" stroke-width="3.00233" stroke-miterlimit="8" fill="#D9D9D9" fill-rule="evenodd"/><text font-family="Calibri,Calibri_MSFontService,sans-serif" font-weight="400" font-size="24" transform="matrix(1 0 0 0.999773 599.683 162)">@</text><path d="M9.49999 213.951C9.49999 200.976 20.0213 190.457 33 190.457 45.9787 190.457 56.5 200.976 56.5 213.951 56.5 226.927 45.9787 237.446 33 237.446 20.0213 237.446 9.49999 226.927 9.49999 213.951Z" stroke="#404040" stroke-width="3.00233" stroke-miterlimit="8" fill="#D9D9D9" fill-rule="evenodd"/><text font-family="Calibri,Calibri_MSFontService,sans-serif" font-weight="400" font-size="24" transform="matrix(1 0 0 0.999773 21.8005 221)">@</text><path d="M74.5 213.951C74.5 200.976 84.7975 190.457 97.5 190.457 110.203 190.457 120.5 200.976 120.5 213.951 120.5 226.927 110.203 237.446 97.5 237.446 84.7975 237.446 74.5 226.927 74.5 213.951Z" stroke="#404040" stroke-width="3.00233" stroke-miterlimit="8" fill="#D9D9D9" fill-rule="evenodd"/><text font-family="Calibri,Calibri_MSFontService,sans-serif" font-weight="400" font-size="24" transform="matrix(1 0 0 0.999773 93.7657 221)">.</text><path d="M138.5 213.951C138.5 200.976 148.797 190.457 161.5 190.457 174.203 190.457 184.5 200.976 184.5 213.951 184.5 226.927 174.203 237.446 161.5 237.446 148.797 237.446 138.5 226.927 138.5 213.951Z" stroke="#404040" stroke-width="3.00233" stroke-miterlimit="8" fill="#D9D9D9" fill-rule="evenodd"/><text font-family="Calibri,Calibri_MSFontService,sans-serif" font-weight="400" font-size="24" transform="matrix(1 0 0 0.999773 157.975 221)">.</text><path d="M202.5 213.951C202.5 200.976 212.797 190.457 225.5 190.457 238.203 190.457 248.5 200.976 248.5 213.951 248.5 226.927 238.203 237.446 225.5 237.446 212.797 237.446 202.5 226.927 202.5 213.951Z" stroke="#404040" stroke-width="3.00233" stroke-miterlimit="8" fill="#D9D9D9" fill-rule="evenodd"/><text font-family="Calibri,Calibri_MSFontService,sans-serif" font-weight="400" font-size="24" transform="matrix(1 0 0 0.999773 222.184 221)">.</text><path d="M266.5 213.951C266.5 200.976 277.021 190.457 290 190.457 302.979 190.457 313.5 200.976 313.5 213.951 313.5 226.927 302.979 237.446 290 237.446 277.021 237.446 266.5 226.927 266.5 213.951Z" stroke="#404040" stroke-width="3.00233" stroke-miterlimit="8" fill="#D9D9D9" fill-rule="evenodd"/><text font-family="Calibri,Calibri_MSFontService,sans-serif" font-weight="400" font-size="24" transform="matrix(1 0 0 0.999773 278.637 221)">@</text><path d="M330.5 213.951C330.5 200.976 341.021 190.457 354 190.457 366.979 190.457 377.5 200.976 377.5 213.951 377.5 226.927 366.979 237.446 354 237.446 341.021 237.446 330.5 226.927 330.5 213.951Z" stroke="#404040" stroke-width="3.00233" stroke-miterlimit="8" fill="#D9D9D9" fill-rule="evenodd"/><text font-family="Calibri,Calibri_MSFontService,sans-serif" font-weight="400" font-size="24" transform="matrix(1 0 0 0.999773 342.846 221)">@</text><path d="M395.5 213.951C395.5 200.976 405.797 190.457 418.5 190.457 431.202 190.457 441.5 200.976 441.5 213.951 441.5 226.927 431.202 237.446 418.5 237.446 405.797 237.446 395.5 226.927 395.5 213.951Z" stroke="#404040" stroke-width="3.00233" stroke-miterlimit="8" fill="#D9D9D9" fill-rule="evenodd"/><text font-family="Calibri,Calibri_MSFontService,sans-serif" font-weight="400" font-size="24" transform="matrix(1 0 0 0.999773 414.811 221)">.</text><path d="M459.5 213.951C459.5 200.976 469.797 190.457 482.5 190.457 495.203 190.457 505.5 200.976 505.5 213.951 505.5 226.927 495.203 237.446 482.5 237.446 469.797 237.446 459.5 226.927 459.5 213.951Z" stroke="#404040" stroke-width="3.00233" stroke-miterlimit="8" fill="#D9D9D9" fill-rule="evenodd"/><text font-family="Calibri,Calibri_MSFontService,sans-serif" font-weight="400" font-size="24" transform="matrix(1 0 0 0.999773 479.02 221)">.</text><path d="M523.5 213.951C523.5 200.976 533.797 190.457 546.5 190.457 559.203 190.457 569.5 200.976 569.5 213.951 569.5 226.927 559.203 237.446 546.5 237.446 533.797 237.446 523.5 226.927 523.5 213.951Z" stroke="#404040" stroke-width="3.00233" stroke-miterlimit="8" fill="#D9D9D9" fill-rule="evenodd"/><text font-family="Calibri,Calibri_MSFontService,sans-serif" font-weight="400" font-size="24" transform="matrix(1 0 0 0.999773 535.473 221)">@</text><path d="M587.5 213.951C587.5 200.976 598.021 190.457 611 190.457 623.979 190.457 634.5 200.976 634.5 213.951 634.5 226.927 623.979 237.446 611 237.446 598.021 237.446 587.5 226.927 587.5 213.951Z" stroke="#404040" stroke-width="3.00233" stroke-miterlimit="8" fill="#D9D9D9" fill-rule="evenodd"/><text font-family="Calibri,Calibri_MSFontService,sans-serif" font-weight="400" font-size="24" transform="matrix(1 0 0 0.999773 599.683 221)">@</text><path d="M9.49999 273.438C9.49999 260.738 20.0213 250.443 33 250.443 45.9787 250.443 56.5 260.738 56.5 273.438 56.5 286.138 45.9787 296.433 33 296.433 20.0213 296.433 9.49999 286.138 9.49999 273.438Z" stroke="#404040" stroke-width="3.00233" stroke-miterlimit="8" fill="#D9D9D9" fill-rule="evenodd"/><text font-family="Calibri,Calibri_MSFontService,sans-serif" font-weight="400" font-size="24" transform="matrix(1 0 0 0.999773 21.8005 280)">@</text><path d="M74.5 273.438C74.5 260.738 84.7975 250.443 97.5 250.443 110.203 250.443 120.5 260.738 120.5 273.438 120.5 286.138 110.203 296.433 97.5 296.433 84.7975 296.433 74.5 286.138 74.5 273.438Z" stroke="#404040" stroke-width="3.00233" stroke-miterlimit="8" fill="#D9D9D9" fill-rule="evenodd"/><text font-family="Calibri,Calibri_MSFontService,sans-serif" font-weight="400" font-size="24" transform="matrix(1 0 0 0.999773 93.7657 280)">.</text><path d="M138.5 273.438C138.5 260.738 148.797 250.443 161.5 250.443 174.203 250.443 184.5 260.738 184.5 273.438 184.5 286.138 174.203 296.433 161.5 296.433 148.797 296.433 138.5 286.138 138.5 273.438Z" stroke="#404040" stroke-width="3.00233" stroke-miterlimit="8" fill="#D9D9D9" fill-rule="evenodd"/><text font-family="Calibri,Calibri_MSFontService,sans-serif" font-weight="400" font-size="24" transform="matrix(1 0 0 0.999773 157.975 280)">.</text><path d="M202.5 273.438C202.5 260.738 212.797 250.443 225.5 250.443 238.203 250.443 248.5 260.738 248.5 273.438 248.5 286.138 238.203 296.433 225.5 296.433 212.797 296.433 202.5 286.138 202.5 273.438Z" stroke="#404040" stroke-width="3.00233" stroke-miterlimit="8" fill="#D9D9D9" fill-rule="evenodd"/><text font-family="Calibri,Calibri_MSFontService,sans-serif" font-weight="400" font-size="24" transform="matrix(1 0 0 0.999773 222.184 280)">.</text><path d="M266.5 273.438C266.5 260.738 277.021 250.443 290 250.443 302.979 250.443 313.5 260.738 313.5 273.438 313.5 286.138 302.979 296.433 290 296.433 277.021 296.433 266.5 286.138 266.5 273.438Z" stroke="#404040" stroke-width="3.00233" stroke-miterlimit="8" fill="#D9D9D9" fill-rule="evenodd"/><text font-family="Calibri,Calibri_MSFontService,sans-serif" font-weight="400" font-size="24" transform="matrix(1 0 0 0.999773 278.637 280)">@</text><path d="M330.5 273.438C330.5 260.738 341.021 250.443 354 250.443 366.979 250.443 377.5 260.738 377.5 273.438 377.5 286.138 366.979 296.433 354 296.433 341.021 296.433 330.5 286.138 330.5 273.438Z" stroke="#404040" stroke-width="3.00233" stroke-miterlimit="8" fill="#D9D9D9" fill-rule="evenodd"/><text font-family="Calibri,Calibri_MSFontService,sans-serif" font-weight="400" font-size="24" transform="matrix(1 0 0 0.999773 350.602 280)">.</text><path d="M395.5 273.438C395.5 260.738 405.797 250.443 418.5 250.443 431.202 250.443 441.5 260.738 441.5 273.438 441.5 286.138 431.202 296.433 418.5 296.433 405.797 296.433 395.5 286.138 395.5 273.438Z" stroke="#404040" stroke-width="3.00233" stroke-miterlimit="8" fill="#D9D9D9" fill-rule="evenodd"/><text font-family="Calibri,Calibri_MSFontService,sans-serif" font-weight="400" font-size="24" transform="matrix(1 0 0 0.999773 414.811 280)">.</text><path d="M459.5 273.438C459.5 260.738 469.797 250.443 482.5 250.443 495.203 250.443 505.5 260.738 505.5 273.438 505.5 286.138 495.203 296.433 482.5 296.433 469.797 296.433 459.5 286.138 459.5 273.438Z" stroke="#404040" stroke-width="3.00233" stroke-miterlimit="8" fill="#D9D9D9" fill-rule="evenodd"/><text font-family="Calibri,Calibri_MSFontService,sans-serif" font-weight="400" font-size="24" transform="matrix(1 0 0 0.999773 479.02 280)">.</text><path d="M523.5 273.438C523.5 260.738 533.797 250.443 546.5 250.443 559.203 250.443 569.5 260.738 569.5 273.438 569.5 286.138 559.203 296.433 546.5 296.433 533.797 296.433 523.5 286.138 523.5 273.438Z" stroke="#404040" stroke-width="3.00233" stroke-miterlimit="8" fill="#D9D9D9" fill-rule="evenodd"/><text font-family="Calibri,Calibri_MSFontService,sans-serif" font-weight="400" font-size="24" transform="matrix(1 0 0 0.999773 543.229 280)">.</text><path d="M587.5 273.438C587.5 260.738 598.021 250.443 611 250.443 623.979 250.443 634.5 260.738 634.5 273.438 634.5 286.138 623.979 296.433 611 296.433 598.021 296.433 587.5 286.138 587.5 273.438Z" stroke="#404040" stroke-width="3.00233" stroke-miterlimit="8" fill="#D9D9D9" fill-rule="evenodd"/><text font-family="Calibri,Calibri_MSFontService,sans-serif" font-weight="400" font-size="24" transform="matrix(1 0 0 0.999773 599.683 280)">@</text><path d="M9.49999 332.425C9.49999 319.725 20.0213 309.43 33 309.43 45.9787 309.43 56.5 319.725 56.5 332.425 56.5 345.124 45.9787 355.419 33 355.419 20.0213 355.419 9.49999 345.124 9.49999 332.425Z" stroke="#404040" stroke-width="3.00233" stroke-miterlimit="8" fill="#D9D9D9" fill-rule="evenodd"/><text font-family="Calibri,Calibri_MSFontService,sans-serif" font-weight="400" font-size="24" transform="matrix(1 0 0 0.999773 21.8005 340)">@</text><path d="M74.5 332.425C74.5 319.725 84.7975 309.43 97.5 309.43 110.203 309.43 120.5 319.725 120.5 332.425 120.5 345.124 110.203 355.419 97.5 355.419 84.7975 355.419 74.5 345.124 74.5 332.425Z" stroke="#404040" stroke-width="3.00233" stroke-miterlimit="8" fill="#D9D9D9" fill-rule="evenodd"/><text font-family="Calibri,Calibri_MSFontService,sans-serif" font-weight="400" font-size="24" transform="matrix(1 0 0 0.999773 93.7657 340)">.</text><path d="M138.5 332.425C138.5 319.725 148.797 309.43 161.5 309.43 174.203 309.43 184.5 319.725 184.5 332.425 184.5 345.124 174.203 355.419 161.5 355.419 148.797 355.419 138.5 345.124 138.5 332.425Z" stroke="#404040" stroke-width="3.00233" stroke-miterlimit="8" fill="#D9D9D9" fill-rule="evenodd"/><text font-family="Calibri,Calibri_MSFontService,sans-serif" font-weight="400" font-size="24" transform="matrix(1 0 0 0.999773 157.975 340)">.</text><path d="M202.5 332.425C202.5 319.725 212.797 309.43 225.5 309.43 238.203 309.43 248.5 319.725 248.5 332.425 248.5 345.124 238.203 355.419 225.5 355.419 212.797 355.419 202.5 345.124 202.5 332.425Z" stroke="#404040" stroke-width="3.00233" stroke-miterlimit="8" fill="#D9D9D9" fill-rule="evenodd"/><text font-family="Calibri,Calibri_MSFontService,sans-serif" font-weight="400" font-size="24" transform="matrix(1 0 0 0.999773 222.184 340)">.</text><path d="M266.5 332.425C266.5 319.725 277.021 309.43 290 309.43 302.979 309.43 313.5 319.725 313.5 332.425 313.5 345.124 302.979 355.419 290 355.419 277.021 355.419 266.5 345.124 266.5 332.425Z" stroke="#404040" stroke-width="3.00233" stroke-miterlimit="8" fill="#D9D9D9" fill-rule="evenodd"/><text font-family="Calibri,Calibri_MSFontService,sans-serif" font-weight="400" font-size="24" transform="matrix(1 0 0 0.999773 278.637 340)">@</text><path d="M330.5 332.425C330.5 319.725 341.021 309.43 354 309.43 366.979 309.43 377.5 319.725 377.5 332.425 377.5 345.124 366.979 355.419 354 355.419 341.021 355.419 330.5 345.124 330.5 332.425Z" stroke="#404040" stroke-width="3.00233" stroke-miterlimit="8" fill="#D9D9D9" fill-rule="evenodd"/><text font-family="Calibri,Calibri_MSFontService,sans-serif" font-weight="400" font-size="24" transform="matrix(1 0 0 0.999773 342.846 340)">@</text><path d="M395.5 332.425C395.5 319.725 405.797 309.43 418.5 309.43 431.202 309.43 441.5 319.725 441.5 332.425 441.5 345.124 431.202 355.419 418.5 355.419 405.797 355.419 395.5 345.124 395.5 332.425Z" stroke="#404040" stroke-width="3.00233" stroke-miterlimit="8" fill="#D9D9D9" fill-rule="evenodd"/><text font-family="Calibri,Calibri_MSFontService,sans-serif" font-weight="400" font-size="24" transform="matrix(1 0 0 0.999773 407.055 340)">@</text><path d="M459.5 332.425C459.5 319.725 469.797 309.43 482.5 309.43 495.203 309.43 505.5 319.725 505.5 332.425 505.5 345.124 495.203 355.419 482.5 355.419 469.797 355.419 459.5 345.124 459.5 332.425Z" stroke="#404040" stroke-width="3.00233" stroke-miterlimit="8" fill="#D9D9D9" fill-rule="evenodd"/><text font-family="Calibri,Calibri_MSFontService,sans-serif" font-weight="400" font-size="24" transform="matrix(1 0 0 0.999773 471.264 340)">@</text><path d="M523.5 332.425C523.5 319.725 533.797 309.43 546.5 309.43 559.203 309.43 569.5 319.725 569.5 332.425 569.5 345.124 559.203 355.419 546.5 355.419 533.797 355.419 523.5 345.124 523.5 332.425Z" stroke="#404040" stroke-width="3.00233" stroke-miterlimit="8" fill="#D9D9D9" fill-rule="evenodd"/><text font-family="Calibri,Calibri_MSFontService,sans-serif" font-weight="400" font-size="24" transform="matrix(1 0 0 0.999773 535.473 340)">@</text><path d="M587.5 332.425C587.5 319.725 598.021 309.43 611 309.43 623.979 309.43 634.5 319.725 634.5 332.425 634.5 345.124 623.979 355.419 611 355.419 598.021 355.419 587.5 345.124 587.5 332.425Z" stroke="#404040" stroke-width="3.00233" stroke-miterlimit="8" fill="#D9D9D9" fill-rule="evenodd"/><text font-family="Calibri,Calibri_MSFontService,sans-serif" font-weight="400" font-size="24" transform="matrix(1 0 0 0.999773 599.683 340)">@</text><path d="M9.49999 391.911C9.49999 378.935 20.0213 368.416 33 368.416 45.9787 368.416 56.5 378.935 56.5 391.911 56.5 404.887 45.9787 415.406 33 415.406 20.0213 415.406 9.49999 404.887 9.49999 391.911Z" stroke="#404040" stroke-width="3.00233" stroke-miterlimit="8" fill="#D9D9D9" fill-rule="evenodd"/><text font-family="Calibri,Calibri_MSFontService,sans-serif" font-weight="400" font-size="24" transform="matrix(1 0 0 0.999773 21.8005 399)">@</text><path d="M74.5 391.911C74.5 378.935 84.7975 368.416 97.5 368.416 110.203 368.416 120.5 378.935 120.5 391.911 120.5 404.887 110.203 415.406 97.5 415.406 84.7975 415.406 74.5 404.887 74.5 391.911Z" stroke="#404040" stroke-width="3.00233" stroke-miterlimit="8" fill="#D9D9D9" fill-rule="evenodd"/><text font-family="Calibri,Calibri_MSFontService,sans-serif" font-weight="400" font-size="24" transform="matrix(1 0 0 0.999773 86.0096 399)">@</text><path d="M138.5 391.911C138.5 378.935 148.797 368.416 161.5 368.416 174.203 368.416 184.5 378.935 184.5 391.911 184.5 404.887 174.203 415.406 161.5 415.406 148.797 415.406 138.5 404.887 138.5 391.911Z" stroke="#404040" stroke-width="3.00233" stroke-miterlimit="8" fill="#D9D9D9" fill-rule="evenodd"/><text font-family="Calibri,Calibri_MSFontService,sans-serif" font-weight="400" font-size="24" transform="matrix(1 0 0 0.999773 150.219 399)">@</text><path d="M202.5 391.911C202.5 378.935 212.797 368.416 225.5 368.416 238.203 368.416 248.5 378.935 248.5 391.911 248.5 404.887 238.203 415.406 225.5 415.406 212.797 415.406 202.5 404.887 202.5 391.911Z" stroke="#404040" stroke-width="3.00233" stroke-miterlimit="8" fill="#D9D9D9" fill-rule="evenodd"/><text font-family="Calibri,Calibri_MSFontService,sans-serif" font-weight="400" font-size="24" transform="matrix(1 0 0 0.999773 214.428 399)">@</text><path d="M266.5 391.911C266.5 378.935 277.021 368.416 290 368.416 302.979 368.416 313.5 378.935 313.5 391.911 313.5 404.887 302.979 415.406 290 415.406 277.021 415.406 266.5 404.887 266.5 391.911Z" stroke="#404040" stroke-width="3.00233" stroke-miterlimit="8" fill="#D9D9D9" fill-rule="evenodd"/><text font-family="Calibri,Calibri_MSFontService,sans-serif" font-weight="400" font-size="24" transform="matrix(1 0 0 0.999773 278.637 399)">@</text><path d="M330.5 391.911C330.5 378.935 341.021 368.416 354 368.416 366.979 368.416 377.5 378.935 377.5 391.911 377.5 404.887 366.979 415.406 354 415.406 341.021 415.406 330.5 404.887 330.5 391.911Z" stroke="#404040" stroke-width="3.00233" stroke-miterlimit="8" fill="#D9D9D9" fill-rule="evenodd"/><text font-family="Calibri,Calibri_MSFontService,sans-serif" font-weight="400" font-size="24" transform="matrix(1 0 0 0.999773 342.846 399)">@</text><path d="M395.5 391.911C395.5 378.935 405.797 368.416 418.5 368.416 431.202 368.416 441.5 378.935 441.5 391.911 441.5 404.887 431.202 415.406 418.5 415.406 405.797 415.406 395.5 404.887 395.5 391.911Z" stroke="#404040" stroke-width="3.00233" stroke-miterlimit="8" fill="#D9D9D9" fill-rule="evenodd"/><text font-family="Calibri,Calibri_MSFontService,sans-serif" font-weight="400" font-size="24" transform="matrix(1 0 0 0.999773 414.811 399)">.</text><path d="M459.5 391.911C459.5 378.935 469.797 368.416 482.5 368.416 495.203 368.416 505.5 378.935 505.5 391.911 505.5 404.887 495.203 415.406 482.5 415.406 469.797 415.406 459.5 404.887 459.5 391.911Z" stroke="#404040" stroke-width="3.00233" stroke-miterlimit="8" fill="#D9D9D9" fill-rule="evenodd"/><text font-family="Calibri,Calibri_MSFontService,sans-serif" font-weight="400" font-size="24" transform="matrix(1 0 0 0.999773 479.02 399)">.</text><path d="M523.5 391.911C523.5 378.935 533.797 368.416 546.5 368.416 559.203 368.416 569.5 378.935 569.5 391.911 569.5 404.887 559.203 415.406 546.5 415.406 533.797 415.406 523.5 404.887 523.5 391.911Z" stroke="#404040" stroke-width="3.00233" stroke-miterlimit="8" fill="#D9D9D9" fill-rule="evenodd"/><text font-family="Calibri,Calibri_MSFontService,sans-serif" font-weight="400" font-size="24" transform="matrix(1 0 0 0.999773 543.229 399)">.</text><path d="M587.5 391.911C587.5 378.935 598.021 368.416 611 368.416 623.979 368.416 634.5 378.935 634.5 391.911 634.5 404.887 623.979 415.406 611 415.406 598.021 415.406 587.5 404.887 587.5 391.911Z" stroke="#404040" stroke-width="3.00233" stroke-miterlimit="8" fill="#D9D9D9" fill-rule="evenodd"/><text font-family="Calibri,Calibri_MSFontService,sans-serif" font-weight="400" font-size="24" transform="matrix(1 0 0 0.999773 599.683 399)">@</text><path d="M9.49999 451.398C9.49999 438.698 20.0213 428.403 33 428.403 45.9787 428.403 56.5 438.698 56.5 451.398 56.5 464.097 45.9787 474.392 33 474.392 20.0213 474.392 9.49999 464.097 9.49999 451.398Z" stroke="#404040" stroke-width="3.00233" stroke-miterlimit="8" fill="#D9D9D9" fill-rule="evenodd"/><text font-family="Calibri,Calibri_MSFontService,sans-serif" font-weight="400" font-size="24" transform="matrix(1 0 0 0.999773 21.8005 458)">@</text><path d="M74.5 451.398C74.5 438.698 84.7975 428.403 97.5 428.403 110.203 428.403 120.5 438.698 120.5 451.398 120.5 464.097 110.203 474.392 97.5 474.392 84.7975 474.392 74.5 464.097 74.5 451.398Z" stroke="#404040" stroke-width="3.00233" stroke-miterlimit="8" fill="#D9D9D9" fill-rule="evenodd"/><text font-family="Calibri,Calibri_MSFontService,sans-serif" font-weight="400" font-size="24" transform="matrix(1 0 0 0.999773 93.7657 458)">.</text><path d="M138.5 451.398C138.5 438.698 148.797 428.403 161.5 428.403 174.203 428.403 184.5 438.698 184.5 451.398 184.5 464.097 174.203 474.392 161.5 474.392 148.797 474.392 138.5 464.097 138.5 451.398Z" stroke="#404040" stroke-width="3.00233" stroke-miterlimit="8" fill="#D9D9D9" fill-rule="evenodd"/><text font-family="Calibri,Calibri_MSFontService,sans-serif" font-weight="400" font-size="24" transform="matrix(1 0 0 0.999773 157.975 458)">.</text><path d="M202.5 451.398C202.5 438.698 212.797 428.403 225.5 428.403 238.203 428.403 248.5 438.698 248.5 451.398 248.5 464.097 238.203 474.392 225.5 474.392 212.797 474.392 202.5 464.097 202.5 451.398Z" stroke="#404040" stroke-width="3.00233" stroke-miterlimit="8" fill="#D9D9D9" fill-rule="evenodd"/><text font-family="Calibri,Calibri_MSFontService,sans-serif" font-weight="400" font-size="24" transform="matrix(1 0 0 0.999773 222.184 458)">.</text><path d="M266.5 451.398C266.5 438.698 277.021 428.403 290 428.403 302.979 428.403 313.5 438.698 313.5 451.398 313.5 464.097 302.979 474.392 290 474.392 277.021 474.392 266.5 464.097 266.5 451.398Z" stroke="#404040" stroke-width="3.00233" stroke-miterlimit="8" fill="#D9D9D9" fill-rule="evenodd"/><text font-family="Calibri,Calibri_MSFontService,sans-serif" font-weight="400" font-size="24" transform="matrix(1 0 0 0.999773 286.393 458)">.</text><path d="M330.5 451.398C330.5 438.698 341.021 428.403 354 428.403 366.979 428.403 377.5 438.698 377.5 451.398 377.5 464.097 366.979 474.392 354 474.392 341.021 474.392 330.5 464.097 330.5 451.398Z" stroke="#404040" stroke-width="3.00233" stroke-miterlimit="8" fill="#D9D9D9" fill-rule="evenodd"/><text font-family="Calibri,Calibri_MSFontService,sans-serif" font-weight="400" font-size="24" transform="matrix(1 0 0 0.999773 342.846 458)">@</text><path d="M395.5 451.398C395.5 438.698 405.797 428.403 418.5 428.403 431.202 428.403 441.5 438.698 441.5 451.398 441.5 464.097 431.202 474.392 418.5 474.392 405.797 474.392 395.5 464.097 395.5 451.398Z" stroke="#404040" stroke-width="3.00233" stroke-miterlimit="8" fill="#D9D9D9" fill-rule="evenodd"/><text font-family="Calibri,Calibri_MSFontService,sans-serif" font-weight="400" font-size="24" transform="matrix(1 0 0 0.999773 407.055 458)">@</text><path d="M459.5 451.398C459.5 438.698 469.797 428.403 482.5 428.403 495.203 428.403 505.5 438.698 505.5 451.398 505.5 464.097 495.203 474.392 482.5 474.392 469.797 474.392 459.5 464.097 459.5 451.398Z" stroke="#404040" stroke-width="3.00233" stroke-miterlimit="8" fill="#D9D9D9" fill-rule="evenodd"/><text font-family="Calibri,Calibri_MSFontService,sans-serif" font-weight="400" font-size="24" transform="matrix(1 0 0 0.999773 471.264 458)">@</text><path d="M523.5 451.398C523.5 438.698 533.797 428.403 546.5 428.403 559.203 428.403 569.5 438.698 569.5 451.398 569.5 464.097 559.203 474.392 546.5 474.392 533.797 474.392 523.5 464.097 523.5 451.398Z" stroke="#404040" stroke-width="3.00233" stroke-miterlimit="8" fill="#D9D9D9" fill-rule="evenodd"/><text font-family="Calibri,Calibri_MSFontService,sans-serif" font-weight="400" font-size="24" transform="matrix(1 0 0 0.999773 535.473 458)">@</text><path d="M587.5 451.398C587.5 438.698 598.021 428.403 611 428.403 623.979 428.403 634.5 438.698 634.5 451.398 634.5 464.097 623.979 474.392 611 474.392 598.021 474.392 587.5 464.097 587.5 451.398Z" stroke="#404040" stroke-width="3.00233" stroke-miterlimit="8" fill="#D9D9D9" fill-rule="evenodd"/><text font-family="Calibri,Calibri_MSFontService,sans-serif" font-weight="400" font-size="24" transform="matrix(1 0 0 0.999773 599.683 458)">@</text><path d="M9.49999 510.384C9.49999 497.685 20.0213 487.389 33 487.389 45.9787 487.389 56.5 497.685 56.5 510.384 56.5 523.084 45.9787 533.379 33 533.379 20.0213 533.379 9.49999 523.084 9.49999 510.384Z" stroke="#404040" stroke-width="3.00233" stroke-miterlimit="8" fill="#D9D9D9" fill-rule="evenodd"/><text font-family="Calibri,Calibri_MSFontService,sans-serif" font-weight="400" font-size="24" transform="matrix(1 0 0 0.999773 21.8005 517)">@</text><path d="M74.5 510.384C74.5 497.685 84.7975 487.389 97.5 487.389 110.203 487.389 120.5 497.685 120.5 510.384 120.5 523.084 110.203 533.379 97.5 533.379 84.7975 533.379 74.5 523.084 74.5 510.384Z" stroke="#404040" stroke-width="3.00233" stroke-miterlimit="8" fill="#D9D9D9" fill-rule="evenodd"/><text font-family="Calibri,Calibri_MSFontService,sans-serif" font-weight="400" font-size="24" transform="matrix(1 0 0 0.999773 93.7657 517)">.</text><path d="M138.5 510.384C138.5 497.685 148.797 487.389 161.5 487.389 174.203 487.389 184.5 497.685 184.5 510.384 184.5 523.084 174.203 533.379 161.5 533.379 148.797 533.379 138.5 523.084 138.5 510.384Z" stroke="#404040" stroke-width="3.00233" stroke-miterlimit="8" fill="#D9D9D9" fill-rule="evenodd"/><text font-family="Calibri,Calibri_MSFontService,sans-serif" font-weight="400" font-size="24" transform="matrix(1 0 0 0.999773 157.975 517)">.</text><path d="M202.5 510.384C202.5 497.685 212.797 487.389 225.5 487.389 238.203 487.389 248.5 497.685 248.5 510.384 248.5 523.084 238.203 533.379 225.5 533.379 212.797 533.379 202.5 523.084 202.5 510.384Z" stroke="#404040" stroke-width="3.00233" stroke-miterlimit="8" fill="#D9D9D9" fill-rule="evenodd"/><text font-family="Calibri,Calibri_MSFontService,sans-serif" font-weight="400" font-size="24" transform="matrix(1 0 0 0.999773 222.184 517)">.</text><path d="M266.5 510.384C266.5 497.685 277.021 487.389 290 487.389 302.979 487.389 313.5 497.685 313.5 510.384 313.5 523.084 302.979 533.379 290 533.379 277.021 533.379 266.5 523.084 266.5 510.384Z" stroke="#404040" stroke-width="3.00233" stroke-miterlimit="8" fill="#D9D9D9" fill-rule="evenodd"/><text font-family="Calibri,Calibri_MSFontService,sans-serif" font-weight="400" font-size="24" transform="matrix(1 0 0 0.999773 278.637 517)">@</text><path d="M330.5 510.384C330.5 497.685 341.021 487.389 354 487.389 366.979 487.389 377.5 497.685 377.5 510.384 377.5 523.084 366.979 533.379 354 533.379 341.021 533.379 330.5 523.084 330.5 510.384Z" stroke="#404040" stroke-width="3.00233" stroke-miterlimit="8" fill="#D9D9D9" fill-rule="evenodd"/><text font-family="Calibri,Calibri_MSFontService,sans-serif" font-weight="400" font-size="24" transform="matrix(1 0 0 0.999773 342.846 517)">@</text><path d="M395.5 510.384C395.5 497.685 405.797 487.389 418.5 487.389 431.202 487.389 441.5 497.685 441.5 510.384 441.5 523.084 431.202 533.379 418.5 533.379 405.797 533.379 395.5 523.084 395.5 510.384Z" stroke="#404040" stroke-width="3.00233" stroke-miterlimit="8" fill="#D9D9D9" fill-rule="evenodd"/><text font-family="Calibri,Calibri_MSFontService,sans-serif" font-weight="400" font-size="24" transform="matrix(1 0 0 0.999773 414.811 517)">.</text><path d="M459.5 510.384C459.5 497.685 469.797 487.389 482.5 487.389 495.203 487.389 505.5 497.685 505.5 510.384 505.5 523.084 495.203 533.379 482.5 533.379 469.797 533.379 459.5 523.084 459.5 510.384Z" stroke="#404040" stroke-width="3.00233" stroke-miterlimit="8" fill="#D9D9D9" fill-rule="evenodd"/><text font-family="Calibri,Calibri_MSFontService,sans-serif" font-weight="400" font-size="24" transform="matrix(1 0 0 0.999773 479.02 517)">.</text><path d="M523.5 510.384C523.5 497.685 533.797 487.389 546.5 487.389 559.203 487.389 569.5 497.685 569.5 510.384 569.5 523.084 559.203 533.379 546.5 533.379 533.797 533.379 523.5 523.084 523.5 510.384Z" stroke="#404040" stroke-width="3.00233" stroke-miterlimit="8" fill="#D9D9D9" fill-rule="evenodd"/><text font-family="Calibri,Calibri_MSFontService,sans-serif" font-weight="400" font-size="24" transform="matrix(1 0 0 0.999773 543.229 517)">.</text><path d="M587.5 510.384C587.5 497.685 598.021 487.389 611 487.389 623.979 487.389 634.5 497.685 634.5 510.384 634.5 523.084 623.979 533.379 611 533.379 598.021 533.379 587.5 523.084 587.5 510.384Z" stroke="#404040" stroke-width="3.00233" stroke-miterlimit="8" fill="#D9D9D9" fill-rule="evenodd"/><text font-family="Calibri,Calibri_MSFontService,sans-serif" font-weight="400" font-size="24" transform="matrix(1 0 0 0.999773 607.439 517)">.</text><path d="M9.49999 569.871C9.49999 556.895 20.0213 546.376 33 546.376 45.9787 546.376 56.5 556.895 56.5 569.871 56.5 582.847 45.9787 593.365 33 593.365 20.0213 593.365 9.49999 582.847 9.49999 569.871Z" stroke="#404040" stroke-width="3.00233" stroke-miterlimit="8" fill="#D9D9D9" fill-rule="evenodd"/><text font-family="Calibri,Calibri_MSFontService,sans-serif" font-weight="400" font-size="24" transform="matrix(1 0 0 0.999773 21.8005 577)">@</text><path d="M74.5 569.871C74.5 556.895 84.7975 546.376 97.5 546.376 110.203 546.376 120.5 556.895 120.5 569.871 120.5 582.847 110.203 593.365 97.5 593.365 84.7975 593.365 74.5 582.847 74.5 569.871Z" stroke="#404040" stroke-width="3.00233" stroke-miterlimit="8" fill="#D9D9D9" fill-rule="evenodd"/><text font-family="Calibri,Calibri_MSFontService,sans-serif" font-weight="400" font-size="24" transform="matrix(1 0 0 0.999773 86.0096 577)">@</text><path d="M138.5 569.871C138.5 556.895 148.797 546.376 161.5 546.376 174.203 546.376 184.5 556.895 184.5 569.871 184.5 582.847 174.203 593.365 161.5 593.365 148.797 593.365 138.5 582.847 138.5 569.871Z" stroke="#404040" stroke-width="3.00233" stroke-miterlimit="8" fill="#D9D9D9" fill-rule="evenodd"/><text font-family="Calibri,Calibri_MSFontService,sans-serif" font-weight="400" font-size="24" transform="matrix(1 0 0 0.999773 150.219 577)">@</text><path d="M202.5 569.871C202.5 556.895 212.797 546.376 225.5 546.376 238.203 546.376 248.5 556.895 248.5 569.871 248.5 582.847 238.203 593.365 225.5 593.365 212.797 593.365 202.5 582.847 202.5 569.871Z" stroke="#404040" stroke-width="3.00233" stroke-miterlimit="8" fill="#D9D9D9" fill-rule="evenodd"/><text font-family="Calibri,Calibri_MSFontService,sans-serif" font-weight="400" font-size="24" transform="matrix(1 0 0 0.999773 214.428 577)">@</text><path d="M266.5 569.871C266.5 556.895 277.021 546.376 290 546.376 302.979 546.376 313.5 556.895 313.5 569.871 313.5 582.847 302.979 593.365 290 593.365 277.021 593.365 266.5 582.847 266.5 569.871Z" stroke="#404040" stroke-width="3.00233" stroke-miterlimit="8" fill="#D9D9D9" fill-rule="evenodd"/><text font-family="Calibri,Calibri_MSFontService,sans-serif" font-weight="400" font-size="24" transform="matrix(1 0 0 0.999773 278.637 577)">@</text><path d="M330.5 569.871C330.5 556.895 341.021 546.376 354 546.376 366.979 546.376 377.5 556.895 377.5 569.871 377.5 582.847 366.979 593.365 354 593.365 341.021 593.365 330.5 582.847 330.5 569.871Z" stroke="#404040" stroke-width="3.00233" stroke-miterlimit="8" fill="#D9D9D9" fill-rule="evenodd"/><text font-family="Calibri,Calibri_MSFontService,sans-serif" font-weight="400" font-size="24" transform="matrix(1 0 0 0.999773 342.846 577)">@</text><path d="M395.5 569.871C395.5 556.895 405.797 546.376 418.5 546.376 431.202 546.376 441.5 556.895 441.5 569.871 441.5 582.847 431.202 593.365 418.5 593.365 405.797 593.365 395.5 582.847 395.5 569.871Z" stroke="#404040" stroke-width="3.00233" stroke-miterlimit="8" fill="#D9D9D9" fill-rule="evenodd"/><text font-family="Calibri,Calibri_MSFontService,sans-serif" font-weight="400" font-size="24" transform="matrix(1 0 0 0.999773 407.055 577)">@</text><path d="M459.5 569.871C459.5 556.895 469.797 546.376 482.5 546.376 495.203 546.376 505.5 556.895 505.5 569.871 505.5 582.847 495.203 593.365 482.5 593.365 469.797 593.365 459.5 582.847 459.5 569.871Z" stroke="#404040" stroke-width="3.00233" stroke-miterlimit="8" fill="#D9D9D9" fill-rule="evenodd"/><text font-family="Calibri,Calibri_MSFontService,sans-serif" font-weight="400" font-size="24" transform="matrix(1 0 0 0.999773 471.264 577)">@</text><path d="M523.5 569.871C523.5 556.895 533.797 546.376 546.5 546.376 559.203 546.376 569.5 556.895 569.5 569.871 569.5 582.847 559.203 593.365 546.5 593.365 533.797 593.365 523.5 582.847 523.5 569.871Z" stroke="#404040" stroke-width="3.00233" stroke-miterlimit="8" fill="#D9D9D9" fill-rule="evenodd"/><text font-family="Calibri,Calibri_MSFontService,sans-serif" font-weight="400" font-size="24" transform="matrix(1 0 0 0.999773 535.473 577)">@</text><path d="M587.5 569.871C587.5 556.895 598.021 546.376 611 546.376 623.979 546.376 634.5 556.895 634.5 569.871 634.5 582.847 623.979 593.365 611 593.365 598.021 593.365 587.5 582.847 587.5 569.871Z" stroke="#404040" stroke-width="3.00233" stroke-miterlimit="8" fill="#D9D9D9" fill-rule="evenodd"/><text font-family="Calibri,Calibri_MSFontService,sans-serif" font-weight="400" font-size="24" transform="matrix(1 0 0 0.999773 599.683 577)">@</text></g></svg>