<svg width="605" height="189" xmlns="http://www.w3.org/2000/svg" xmlns:xlink="http://www.w3.org/1999/xlink" overflow="hidden"><defs><clipPath id="clip0"><rect x="0" y="0" width="605" height="189"/></clipPath></defs><g clip-path="url(#clip0)"><rect x="0" y="0" width="605" height="188.896" fill="#FFFFFF"/><path d="M378.5 130.927 454.132 130.927 454.132 133.927 378.5 133.927ZM378.5 139.927 370.996 132.427 378.5 124.927 386.004 132.427ZM454.132 124.927 461.636 132.427 454.132 139.927 446.628 132.427Z"/><path d="M38.5 130.927 378.845 130.927 378.845 133.927 38.5 133.927ZM38.4999 139.927 30.9958 132.427 38.5 124.927 46.0041 132.427ZM378.845 124.927 386.349 132.427 378.845 139.927 371.341 132.427Z"/><path d="M378.5 130.927 567.581 130.927 567.581 133.927 378.5 133.927ZM378.5 139.927 370.996 132.427 378.5 124.927 386.004 132.427ZM567.581 124.927 575.085 132.427 567.581 139.927 560.076 132.427Z"/><path d="M265.5 130.927 378.948 130.927 378.948 133.927 265.5 133.927ZM265.5 139.927 257.996 132.427 265.5 124.927 273.004 132.427ZM378.948 124.927 386.452 132.427 378.948 139.927 371.444 132.427Z"/><text font-family="Calibri,Calibri_MSFontService,sans-serif" font-weight="400" font-size="24" transform="matrix(1 0 0 0.999449 372.045 171)">0<tspan font-size="24" x="75.6322" y="0">2</tspan><tspan font-size="24" x="189.081" y="0">5</tspan><tspan font-size="24" x="-119.047" y="0">-</tspan><tspan font-size="24" x="-111.71" y="0">3</tspan><tspan font-size="24" x="-346.668" y="0">-</tspan>9</text><path d="M375.982 106.103C408.113 108.127 440.244 110.152 452.936 106.103 465.629 102.053 483.798 85.1207 452.135 81.8078 420.471 78.4949 293.817 89.906 262.955 86.225 232.093 82.544 217.597 64.3843 266.963 59.7217 316.329 55.059 511.972 61.7475 559.15 58.2492 606.328 54.751 562.389 40.4161 550.031 38.7321 537.673 37.0481 516.264 36.1631 516.264 36.1631L36.5 32.4821" stroke="#C00000" stroke-width="3.00165" stroke-miterlimit="8" fill="none" fill-rule="evenodd"/><text fill="#C00000" font-family="Calibri,Calibri_MSFontService,sans-serif" font-weight="400" font-size="24" transform="matrix(1 0 0 0.999449 412.002 129)">2<tspan font-size="24" x="-77.1774" y="-21.0116">5</tspan><tspan font-size="24" x="22.3289" y="-76.0419">8</tspan><tspan font-size="24" x="-102.768" y="-102.056">1</tspan>4</text></g></svg>