<svg width="869" height="189" xmlns="http://www.w3.org/2000/svg" xmlns:xlink="http://www.w3.org/1999/xlink" overflow="hidden"><defs><clipPath id="clip0"><rect x="0" y="0" width="869" height="189"/></clipPath></defs><g clip-path="url(#clip0)"><rect x="0" y="0" width="869" height="189.073" fill="#FFFFFF"/><path d="M53.5 132.051 431.308 132.051 431.308 135.051 53.5 135.051ZM53.5 141.051 46.0029 133.551 53.5 126.051 60.9971 133.551ZM431.308 126.051 438.805 133.551 431.308 141.051 423.811 133.551Z"/><path d="M337.5 132.051 431.952 132.051 431.952 135.051 337.5 135.051ZM337.5 141.051 330.003 133.551 337.5 126.051 344.997 133.551ZM431.952 126.051 439.449 133.551 431.952 141.051 424.455 133.551Z"/><path d="M408.5 132.051 432.113 132.051 432.113 135.051 408.5 135.051ZM408.5 141.051 401.003 133.551 408.5 126.051 415.997 133.551ZM432.113 126.051 439.61 133.551 432.113 141.051 424.616 133.551Z"/><path d="M4.16507e-07-1.49942 377.808-1.49932 377.808 1.49953-4.16507e-07 1.49942ZM-2.08253e-06 7.49712-7.49712-2.08253e-06 2.08253e-06-7.49712 7.49712 2.08253e-06ZM377.808-7.49702 385.305 0.000107029 377.808 7.49723 370.311 0.000102864Z" transform="matrix(-1 0 0 1.00038 809.308 133.551)"/><path d="M1.66603e-06-1.49942 94.452-1.49932 94.452 1.49953-1.66603e-06 1.49942ZM-8.33014e-06 7.49712-7.49712-8.33014e-06 8.33014e-06-7.49712 7.49712 8.33014e-06ZM94.452-7.49702 101.949 0.000113277 94.452 7.49723 86.9548 9.66165e-05Z" transform="matrix(-1 0 0 1.00038 525.952 133.551)"/><path d="M6.66411e-06-1.49942 23.613-1.49932 23.613 1.49953-6.66411e-06 1.49942ZM-3.33206e-05 7.49712-7.49712-3.33206e-05 3.33206e-05-7.49712 7.49712 3.33206e-05ZM23.613-7.49702 31.1101 0.000138267 23.613 7.49723 16.1159 7.16261e-05Z" transform="matrix(-1 0 0 1.00038 455.113 133.551)"/><text font-family="Calibri,Calibri_MSFontService,sans-serif" font-weight="400" font-size="24" transform="matrix(1 0 0 1.00038 394.779 165)">-<tspan font-size="24" x="7.33054" y="0">1</tspan><tspan font-size="24" x="30.3165" y="0">0</tspan><tspan font-size="24" x="53.9295" y="0">1</tspan><tspan font-size="24" x="-76.92" y="0">-</tspan><tspan font-size="24" x="-69.5895" y="0">16</tspan><tspan font-size="24" x="118.687" y="0">16</tspan><tspan font-size="24" x="-360.276" y="0">-</tspan>64<tspan font-size="24" x="402.043" y="0">64</tspan><tspan font-size="24" x="349.822" y="-125.952">M</tspan><tspan font-size="24" x="375.812" y="-125.952">=</tspan><tspan font-size="24" x="393.306" y="-125.952">3</tspan><tspan font-size="24" x="405.468" y="-125.952">00</tspan></text><path d="M431.106 117.301C441.136 117.638 451.166 117.974 454.734 115.748 458.301 113.521 472.293 106.117 452.51 103.942 432.727 101.768 355.496 105.392 336.037 102.7 316.579 100.007 304.626 90.0143 335.759 87.7878 366.893 85.5613 522.838 89.3411 522.838 89.3411L769.387 92.6808C815.485 91.1274 823.208 81.3123 773.453 78.0114 723.697 74.7105 470.856 72.8757 470.856 72.8757L52.5 68.5263" stroke="#C00000" stroke-width="2.99885" stroke-miterlimit="8" fill="none" fill-rule="evenodd"/></g></svg>