<svg width="1247" height="246" xmlns="http://www.w3.org/2000/svg" xmlns:xlink="http://www.w3.org/1999/xlink" overflow="hidden"><defs><clipPath id="clip0"><rect x="0" y="0" width="1247" height="246"/></clipPath></defs><g clip-path="url(#clip0)"><rect x="0" y="0" width="1247" height="246.367" fill="#FFFFFF"/><path d="M44.5 94.1403 195.661 94.1404 195.661 97.1445 44.5 97.1444ZM44.5 103.153 37.001 95.6423 44.5 88.1322 51.999 95.6424ZM195.661 88.1323 203.16 95.6425 195.661 103.153 188.162 95.6424Z"/><text font-family="Calibri,Calibri_MSFontService,sans-serif" font-weight="400" font-size="24" transform="matrix(1 0 0 1.00149 31.262 127)">-<tspan font-size="24" x="7.33236" y="0">4</tspan></text><path d="M120.5 94.1403 196.08 94.1404 196.08 97.1445 120.5 97.1444ZM120.5 103.153 113.001 95.6423 120.5 88.1322 127.999 95.6424ZM196.08 88.1323 203.579 95.6425 196.08 103.153 188.581 95.6424Z"/><path d="M195.5 94.1403 233.29 94.1404 233.29 97.1445 195.5 97.1444ZM195.5 103.153 188.001 95.6423 195.5 88.1322 202.999 95.6424ZM233.29 88.1323 240.789 95.6425 233.29 103.153 225.791 95.6424Z"/><path d="M195.5 94.1403 384.451 94.1404 384.451 97.1445 195.5 97.1444ZM195.5 103.153 188.001 95.6423 195.5 88.1322 202.999 95.6424ZM384.451 88.1323 391.95 95.6425 384.451 103.153 376.952 95.6424Z"/><text font-family="Calibri,Calibri_MSFontService,sans-serif" font-weight="400" font-size="24" transform="matrix(1 0 0 1.00149 105.652 127)">-<tspan font-size="24" x="7.33235" y="0">2</tspan><tspan font-size="24" x="83.4761" y="0">0</tspan><tspan font-size="24" x="121.266" y="-0.998511">1</tspan><tspan font-size="24" x="272.427" y="-0.998511">5</tspan></text><path d="M193.862 78.617 378.183 76.7554C406.24 74.3177 392.7 66.2952 362.202 63.9905 331.703 61.6857 195.194 62.9267 195.194 62.9267L116.085 63.4586 45.5 63.4586" stroke="#C00000" stroke-width="2.9996" stroke-miterlimit="8" fill="none" fill-rule="evenodd"/><path d="M462.5 94.1403 613.661 94.1404 613.661 97.1445 462.5 97.1444ZM462.5 103.153 455.001 95.6423 462.5 88.1322 469.999 95.6424ZM613.661 88.1323 621.16 95.6425 613.661 103.153 606.162 95.6424Z"/><text font-family="Calibri,Calibri_MSFontService,sans-serif" font-weight="400" font-size="24" transform="matrix(1 0 0 1.00149 449.258 127)">-<tspan font-size="24" x="7.33234" y="0">4</tspan></text><path d="M538.5 94.1403 614.08 94.1404 614.08 97.1445 538.5 97.1444ZM538.5 103.153 531.001 95.6423 538.5 88.1322 545.999 95.6424ZM614.08 88.1323 621.579 95.6425 614.08 103.153 606.581 95.6424Z"/><path d="M613.5 94.1403 651.29 94.1404 651.29 97.1445 613.5 97.1444ZM613.5 103.153 606.001 95.6423 613.5 88.1322 620.999 95.6424ZM651.29 88.1323 658.789 95.6425 651.29 103.153 643.791 95.6424Z"/><path d="M613.5 94.1403 802.451 94.1404 802.451 97.1445 613.5 97.1444ZM613.5 103.153 606.001 95.6423 613.5 88.1322 620.999 95.6424ZM802.451 88.1323 809.95 95.6425 802.451 103.153 794.952 95.6424Z"/><text font-family="Calibri,Calibri_MSFontService,sans-serif" font-weight="400" font-size="24" transform="matrix(1 0 0 1.00149 523.648 127)">-<tspan font-size="24" x="7.33234" y="0">2</tspan><tspan font-size="24" x="83.4761" y="0">0</tspan><tspan font-size="24" x="121.266" y="-0.998511">1</tspan><tspan font-size="24" x="272.427" y="-0.998511">5</tspan></text><path d="M612.664 75.6126 472.835 74.7727C448.864 72.533 446.778 64.5074 468.84 62.1743 490.902 59.8413 605.207 60.7745 605.207 60.7745L801.5 60.7745" stroke="#C00000" stroke-width="2.9996" stroke-miterlimit="8" fill="none" fill-rule="evenodd"/><path d="M859.5 94.1403 1010.66 94.1404 1010.66 97.1445 859.5 97.1444ZM859.5 103.153 852.001 95.6423 859.5 88.1322 866.999 95.6424ZM1010.66 88.1323 1018.16 95.6425 1010.66 103.153 1003.16 95.6424Z"/><text font-family="Calibri,Calibri_MSFontService,sans-serif" font-weight="400" font-size="24" transform="matrix(1 0 0 1.00149 845.953 127)">-<tspan font-size="24" x="7.33234" y="0">4</tspan></text><path d="M934.5 94.1403 1010.08 94.1404 1010.08 97.1445 934.5 97.1444ZM934.5 103.153 927.001 95.6423 934.5 88.1322 941.999 95.6424ZM1010.08 88.1323 1017.58 95.6425 1010.08 103.153 1002.58 95.6424Z"/><path d="M1010.5 94.1403 1048.29 94.1404 1048.29 97.1445 1010.5 97.1444ZM1010.5 103.153 1003 95.6423 1010.5 88.1322 1018 95.6424ZM1048.29 88.1323 1055.79 95.6425 1048.29 103.153 1040.79 95.6424Z"/><path d="M1010.5 94.1403 1199.45 94.1404 1199.45 97.1445 1010.5 97.1444ZM1010.5 103.153 1003 95.6423 1010.5 88.1322 1018 95.6424ZM1199.45 88.1323 1206.95 95.6425 1199.45 103.153 1191.95 95.6424Z"/><text font-family="Calibri,Calibri_MSFontService,sans-serif" font-weight="400" font-size="24" transform="matrix(1 0 0 1.00149 920.343 127)">-<tspan font-size="24" x="7.3324" y="0">2</tspan><tspan font-size="24" x="83.4761" y="0">0</tspan><tspan font-size="24" x="121.266" y="-0.998511">1</tspan><tspan font-size="24" x="272.427" y="-0.998511">5</tspan></text><path d="M1008.91 78.122C1023.21 78.6196 1037.52 79.1174 1044.09 77.6026 1050.67 76.0879 1061.69 70.6783 1048.36 69.0337 1035.03 67.3891 964.127 67.7354 964.127 67.7354 932.584 67.519 874.963 69.6829 859.102 67.7354 843.242 65.7879 835.423 58.2144 868.965 56.0505 902.507 53.8866 1060.35 54.7522 1060.35 54.7522L1195.5 54.7522" stroke="#548235" stroke-width="2.9996" stroke-miterlimit="8" fill="none" fill-rule="evenodd"/><rect x="48" y="138.206" width="355" height="100.149" fill="#FBE5D6"/><text font-family="Consolas,Consolas_MSFontService,sans-serif" font-weight="400" font-size="19" transform="matrix(1 0 0 1.00149 57.1946 161)">4M <tspan font-size="19" x="30.9959" y="0">-</tspan><tspan font-size="19" x="51.6598" y="0">(1 + </tspan><tspan font-size="19" x="61.9917" y="21.9673">1 + 4 + </tspan><tspan font-size="19" x="61.9917" y="43.9345">1 + 4 + 7 + </tspan><tspan font-size="19" x="61.9917" y="66.9003">1 + 4 + 7 + 2) = 4M </tspan><tspan font-size="19" x="268.631" y="66.9003">-</tspan><tspan font-size="19" x="289.295" y="66.9003">32</tspan></text><rect x="463" y="138.206" width="355" height="100.149" fill="#FBE5D6"/><text font-family="Consolas,Consolas_MSFontService,sans-serif" font-weight="400" font-size="19" transform="matrix(1 0 0 1.00149 472.152 161)">4M <tspan font-size="19" x="30.9958" y="0">-</tspan><tspan font-size="19" x="51.6598" y="0">(2 + </tspan><tspan font-size="19" x="61.9917" y="21.9673">2 + 2 +</tspan><tspan font-size="19" x="61.9917" y="43.9345">2 + 2 + 5 +</tspan><tspan font-size="19" x="61.9917" y="66.9003">2 + 2 + 5 + 4) = 4M </tspan><tspan font-size="19" x="268.631" y="66.9003">-</tspan><tspan font-size="19" x="289.295" y="66.9003">28</tspan></text><rect x="858" y="138.206" width="356" height="100.149" fill="#E2F0D9"/><text font-family="Consolas,Consolas_MSFontService,sans-serif" font-weight="400" font-size="19" transform="matrix(1 0 0 1.00149 868.026 161)">4M <tspan font-size="19" x="30.9958" y="0">-</tspan><tspan font-size="19" x="51.6597" y="0">(1 + </tspan><tspan font-size="19" x="61.9917" y="21.9673">1 + 3 + </tspan><tspan font-size="19" x="61.9917" y="43.9345">1 + 3 + 2 + </tspan><tspan font-size="19" x="61.9917" y="66.9003">1 + 3 + 2 + 9) = 4M </tspan><tspan font-size="19" x="268.631" y="66.9003">-</tspan><tspan font-size="19" x="289.295" y="66.9003">26</tspan><tspan font-family="Calibri,Calibri_MSFontService,sans-serif" font-size="24" x="255.448" y="-133.801">M</tspan><tspan font-family="Calibri,Calibri_MSFontService,sans-serif" font-size="24" x="281.444" y="-133.801">=</tspan><tspan font-family="Calibri,Calibri_MSFontService,sans-serif" font-size="24" x="298.942" y="-133.801">10</tspan></text></g></svg>