<svg width="945" height="454" xmlns="http://www.w3.org/2000/svg" xmlns:xlink="http://www.w3.org/1999/xlink" overflow="hidden"><defs><clipPath id="clip0"><path d="M0 0 945 0 945 454 0 454Z" fill-rule="evenodd" clip-rule="evenodd"/></clipPath></defs><g clip-path="url(#clip0)"><rect x="0" y="0" width="945" height="453.58" fill="#FFFFFF" transform="scale(1 1.00093)"/><path d="M0 26.975C-6.87492e-15 12.0771 12.0883 0 27 0 41.9117-6.86857e-15 54 12.0771 54 26.975 54 41.873 41.9117 53.9501 27 53.9501 12.0883 53.9501-1.03124e-14 41.873 0 26.975Z" stroke="#000000" stroke-width="3.99997" stroke-miterlimit="8" fill="#E7E6E6" fill-rule="evenodd" transform="matrix(1 0 -0 1.00093 11.0001 26)"/><text font-family="Calibri,Calibri_MSFontService,sans-serif" font-weight="400" font-size="24" transform="matrix(1 0 0 1.00093 32.3709 60)">6</text><path d="M0 26.975C-6.74761e-15 12.0771 11.8645 0 26.5 0 41.1355-6.86857e-15 53 12.0771 53 26.975 53 41.873 41.1355 53.9501 26.5 53.9501 11.8645 53.9501-1.01214e-14 41.873 0 26.975Z" stroke="#000000" stroke-width="3.99997" stroke-miterlimit="8" fill="#E7E6E6" fill-rule="evenodd" transform="matrix(1 0 -0 1.00093 102 26)"/><text font-family="Calibri,Calibri_MSFontService,sans-serif" font-weight="400" font-size="24" transform="matrix(1 0 0 1.00093 122.417 60)">8</text><path d="M0 26.975C-6.87493e-15 12.0771 12.0883 0 27 0 41.9117-6.86857e-15 54.0001 12.0771 54.0001 26.975 54.0001 41.873 41.9117 53.9501 27 53.9501 12.0883 53.9501-1.03124e-14 41.873 0 26.975Z" stroke="#000000" stroke-width="3.99997" stroke-miterlimit="8" fill="#E7E6E6" fill-rule="evenodd" transform="matrix(1 0 -0 1.00093 192 26)"/><text font-family="Calibri,Calibri_MSFontService,sans-serif" font-weight="400" font-size="24" transform="matrix(1 0 0 1.00093 212.462 60)">2</text><path d="M0 26.975C-6.87493e-15 12.0771 12.0883 0 27 0 41.9117-6.86857e-15 54.0001 12.0771 54.0001 26.975 54.0001 41.873 41.9117 53.9501 27 53.9501 12.0883 53.9501-1.03124e-14 41.873 0 26.975Z" stroke="#000000" stroke-width="3.99997" stroke-miterlimit="8" fill="#E7E6E6" fill-rule="evenodd" transform="matrix(1 0 -0 1.00093 282 26)"/><text font-family="Calibri,Calibri_MSFontService,sans-serif" font-weight="400" font-size="24" transform="matrix(1 0 0 1.00093 302.508 60)">6</text><path d="M0 26.975C-6.87492e-15 12.0771 12.0883 0 27 0 41.9117-6.86857e-15 54 12.0771 54 26.975 54 41.873 41.9117 53.9501 27 53.9501 12.0883 53.9501-1.03124e-14 41.873 0 26.975Z" stroke="#000000" stroke-width="3.99997" stroke-miterlimit="8" fill="#E7E6E6" fill-rule="evenodd" transform="matrix(1 0 -0 1.00093 372 26)"/><text font-family="Calibri,Calibri_MSFontService,sans-serif" font-weight="400" font-size="24" transform="matrix(1 0 0 1.00093 392.554 60)">2</text><path d="M0 27.4746C-6.87492e-15 12.3008 12.0883 0 27 0 41.9117-6.99576e-15 54 12.3008 54 27.4746 54 42.6483 41.9117 54.9491 27 54.9491 12.0883 54.9491-1.03124e-14 42.6483 0 27.4746Z" stroke="#000000" stroke-width="3.99997" stroke-miterlimit="8" fill="#E7E6E6" fill-rule="evenodd" transform="matrix(1 0 -0 1.00093 11.0001 114)"/><text font-family="Calibri,Calibri_MSFontService,sans-serif" font-weight="400" font-size="24" transform="matrix(1 0 0 1.00093 32.3709 149)">3</text><path d="M0 27.4746C-6.74761e-15 12.3008 11.8645 0 26.5 0 41.1355-6.99576e-15 53 12.3008 53 27.4746 53 42.6483 41.1355 54.9491 26.5 54.9491 11.8645 54.9491-1.01214e-14 42.6483 0 27.4746Z" stroke="#000000" stroke-width="3.99997" stroke-miterlimit="8" fill="#E7E6E6" fill-rule="evenodd" transform="matrix(1 0 -0 1.00093 102 114)"/><text font-family="Calibri,Calibri_MSFontService,sans-serif" font-weight="400" font-size="24" transform="matrix(1 0 0 1.00093 122.417 149)">2</text><path d="M0 27.4746C-6.87493e-15 12.3008 12.0883 0 27 0 41.9117-6.99576e-15 54.0001 12.3008 54.0001 27.4746 54.0001 42.6483 41.9117 54.9491 27 54.9491 12.0883 54.9491-1.03124e-14 42.6483 0 27.4746Z" stroke="#000000" stroke-width="3.99997" stroke-miterlimit="8" fill="#E7E6E6" fill-rule="evenodd" transform="matrix(1 0 -0 1.00093 192 114)"/><text font-family="Calibri,Calibri_MSFontService,sans-serif" font-weight="400" font-size="24" transform="matrix(1 0 0 1.00093 212.462 149)">3</text><path d="M0 27.4746C-6.87493e-15 12.3008 12.0883 0 27 0 41.9117-6.99576e-15 54.0001 12.3008 54.0001 27.4746 54.0001 42.6483 41.9117 54.9491 27 54.9491 12.0883 54.9491-1.03124e-14 42.6483 0 27.4746Z" stroke="#000000" stroke-width="3.99997" stroke-miterlimit="8" fill="#E7E6E6" fill-rule="evenodd" transform="matrix(1 0 -0 1.00093 282 114)"/><text font-family="Calibri,Calibri_MSFontService,sans-serif" font-weight="400" font-size="24" transform="matrix(1 0 0 1.00093 302.508 149)">4</text><path d="M0 27.4746C-6.87492e-15 12.3008 12.0883 0 27 0 41.9117-6.99576e-15 54 12.3008 54 27.4746 54 42.6483 41.9117 54.9491 27 54.9491 12.0883 54.9491-1.03124e-14 42.6483 0 27.4746Z" stroke="#000000" stroke-width="3.99997" stroke-miterlimit="8" fill="#E7E6E6" fill-rule="evenodd" transform="matrix(1 0 -0 1.00093 372 114)"/><text font-family="Calibri,Calibri_MSFontService,sans-serif" font-weight="400" font-size="24" transform="matrix(1 0 0 1.00093 392.554 149)">6</text><path d="M0 26.975C-6.87492e-15 12.0771 12.0883 0 27 0 41.9117-6.86855e-15 54 12.0771 54 26.975 54 41.8729 41.9117 53.95 27 53.95 12.0883 53.95-1.03124e-14 41.8729 0 26.975Z" stroke="#000000" stroke-width="3.99997" stroke-miterlimit="8" fill="#E7E6E6" fill-rule="evenodd" transform="matrix(1 0 -0 1.00093 11.0001 203)"/><text font-family="Calibri,Calibri_MSFontService,sans-serif" font-weight="400" font-size="24" transform="matrix(1 0 0 1.00093 32.3709 238)">6</text><path d="M0 26.975C-6.74761e-15 12.0771 11.8645 0 26.5 0 41.1355-6.86855e-15 53 12.0771 53 26.975 53 41.8729 41.1355 53.95 26.5 53.95 11.8645 53.95-1.01214e-14 41.8729 0 26.975Z" stroke="#000000" stroke-width="3.99997" stroke-miterlimit="8" fill="#E7E6E6" fill-rule="evenodd" transform="matrix(1 0 -0 1.00093 102 203)"/><text font-family="Calibri,Calibri_MSFontService,sans-serif" font-weight="400" font-size="24" transform="matrix(1 0 0 1.00093 122.417 238)">7</text><path d="M0 26.975C-6.87493e-15 12.0771 12.0883 0 27 0 41.9117-6.86855e-15 54.0001 12.0771 54.0001 26.975 54.0001 41.8729 41.9117 53.95 27 53.95 12.0883 53.95-1.03124e-14 41.8729 0 26.975Z" stroke="#000000" stroke-width="3.99997" stroke-miterlimit="8" fill="#E7E6E6" fill-rule="evenodd" transform="matrix(1 0 -0 1.00093 192 203)"/><text font-family="Calibri,Calibri_MSFontService,sans-serif" font-weight="400" font-size="24" transform="matrix(1 0 0 1.00093 212.462 238)">3</text><path d="M0 26.975C-6.87493e-15 12.0771 12.0883 0 27 0 41.9117-6.86855e-15 54.0001 12.0771 54.0001 26.975 54.0001 41.8729 41.9117 53.95 27 53.95 12.0883 53.95-1.03124e-14 41.8729 0 26.975Z" stroke="#000000" stroke-width="3.99997" stroke-miterlimit="8" fill="#E7E6E6" fill-rule="evenodd" transform="matrix(1 0 -0 1.00093 282 203)"/><text font-family="Calibri,Calibri_MSFontService,sans-serif" font-weight="400" font-size="24" transform="matrix(1 0 0 1.00093 302.508 238)">3</text><path d="M0 26.975C-6.87492e-15 12.0771 12.0883 0 27 0 41.9117-6.86855e-15 54 12.0771 54 26.975 54 41.8729 41.9117 53.95 27 53.95 12.0883 53.95-1.03124e-14 41.8729 0 26.975Z" stroke="#000000" stroke-width="3.99997" stroke-miterlimit="8" fill="#E7E6E6" fill-rule="evenodd" transform="matrix(1 0 -0 1.00093 372 203)"/><text font-family="Calibri,Calibri_MSFontService,sans-serif" font-weight="400" font-size="24" transform="matrix(1 0 0 1.00093 392.554 238)">2</text><path d="M0 26.975C-6.87492e-15 12.0771 12.0883 0 27 0 41.9117-6.86855e-15 54 12.0771 54 26.975 54 41.8729 41.9117 53.95 27 53.95 12.0883 53.95-1.03124e-14 41.8729 0 26.975Z" stroke="#000000" stroke-width="3.99997" stroke-miterlimit="8" fill="#E7E6E6" fill-rule="evenodd" transform="matrix(1 0 -0 1.00093 12 292)"/><text font-family="Calibri,Calibri_MSFontService,sans-serif" font-weight="400" font-size="24" transform="matrix(1 0 0 1.00093 32.6097 327)">7</text><path d="M0 26.975C-6.87492e-15 12.0771 12.0883 0 27 0 41.9117-6.86855e-15 54 12.0771 54 26.975 54 41.8729 41.9117 53.95 27 53.95 12.0883 53.95-1.03124e-14 41.8729 0 26.975Z" stroke="#000000" stroke-width="3.99997" stroke-miterlimit="8" fill="#E7E6E6" fill-rule="evenodd" transform="matrix(1 0 -0 1.00093 102 292)"/><text font-family="Calibri,Calibri_MSFontService,sans-serif" font-weight="400" font-size="24" transform="matrix(1 0 0 1.00093 122.655 327)">2</text><path d="M0 26.975C-6.87493e-15 12.0771 12.0883 0 27 0 41.9117-6.86855e-15 54.0001 12.0771 54.0001 26.975 54.0001 41.8729 41.9117 53.95 27 53.95 12.0883 53.95-1.03124e-14 41.8729 0 26.975Z" stroke="#000000" stroke-width="3.99997" stroke-miterlimit="8" fill="#E7E6E6" fill-rule="evenodd" transform="matrix(1 0 -0 1.00093 192 292)"/><text font-family="Calibri,Calibri_MSFontService,sans-serif" font-weight="400" font-size="24" transform="matrix(1 0 0 1.00093 212.701 327)">5</text><path d="M0 26.975C-6.87493e-15 12.0771 12.0883 0 27 0 41.9117-6.86855e-15 54.0001 12.0771 54.0001 26.975 54.0001 41.8729 41.9117 53.95 27 53.95 12.0883 53.95-1.03124e-14 41.8729 0 26.975Z" stroke="#000000" stroke-width="3.99997" stroke-miterlimit="8" fill="#E7E6E6" fill-rule="evenodd" transform="matrix(1 0 -0 1.00093 282 292)"/><text font-family="Calibri,Calibri_MSFontService,sans-serif" font-weight="400" font-size="24" transform="matrix(1 0 0 1.00093 302.747 327)">3</text><path d="M0 26.975C-6.87492e-15 12.0771 12.0883 0 27 0 41.9117-6.86855e-15 54 12.0771 54 26.975 54 41.8729 41.9117 53.95 27 53.95 12.0883 53.95-1.03124e-14 41.8729 0 26.975Z" stroke="#000000" stroke-width="3.99997" stroke-miterlimit="8" fill="#E7E6E6" fill-rule="evenodd" transform="matrix(1 0 -0 1.00093 372 292)"/><text font-family="Calibri,Calibri_MSFontService,sans-serif" font-weight="400" font-size="24" transform="matrix(1 0 0 1.00093 392.554 327)">6</text><path d="M0 0 36.066 0.000105005" stroke="#000000" stroke-width="3.99997" stroke-miterlimit="8" fill="none" fill-rule="evenodd" transform="matrix(1 0 -0 1.00093 65 53)"/><path d="M0 26.975C-6.87492e-15 12.0771 12.0883 0 27 0 41.9117-6.86857e-15 54 12.0771 54 26.975 54 41.873 41.9117 53.9501 27 53.9501 12.0883 53.9501-1.03124e-14 41.873 0 26.975Z" stroke="#000000" stroke-width="3.99997" stroke-miterlimit="8" fill="#E7E6E6" fill-rule="evenodd" transform="matrix(1 0 -0 1.00093 11.0001 381)"/><text font-family="Calibri,Calibri_MSFontService,sans-serif" font-weight="400" font-size="24" transform="matrix(1 0 0 1.00093 32.3709 416)">8</text><path d="M0 26.975C-6.74761e-15 12.0771 11.8645 0 26.5 0 41.1355-6.86857e-15 53 12.0771 53 26.975 53 41.873 41.1355 53.9501 26.5 53.9501 11.8645 53.9501-1.01214e-14 41.873 0 26.975Z" stroke="#000000" stroke-width="3.99997" stroke-miterlimit="8" fill="#E7E6E6" fill-rule="evenodd" transform="matrix(1 0 -0 1.00093 102 381)"/><text font-family="Calibri,Calibri_MSFontService,sans-serif" font-weight="400" font-size="24" transform="matrix(1 0 0 1.00093 122.417 416)">9</text><path d="M0 26.975C-6.87493e-15 12.0771 12.0883 0 27 0 41.9117-6.86857e-15 54.0001 12.0771 54.0001 26.975 54.0001 41.873 41.9117 53.9501 27 53.9501 12.0883 53.9501-1.03124e-14 41.873 0 26.975Z" stroke="#000000" stroke-width="3.99997" stroke-miterlimit="8" fill="#E7E6E6" fill-rule="evenodd" transform="matrix(1 0 -0 1.00093 192 381)"/><text font-family="Calibri,Calibri_MSFontService,sans-serif" font-weight="400" font-size="24" transform="matrix(1 0 0 1.00093 212.462 416)">5</text><path d="M0 26.975C-6.87493e-15 12.0771 12.0883 0 27 0 41.9117-6.86857e-15 54.0001 12.0771 54.0001 26.975 54.0001 41.873 41.9117 53.9501 27 53.9501 12.0883 53.9501-1.03124e-14 41.873 0 26.975Z" stroke="#000000" stroke-width="3.99997" stroke-miterlimit="8" fill="#E7E6E6" fill-rule="evenodd" transform="matrix(1 0 -0 1.00093 282 381)"/><text font-family="Calibri,Calibri_MSFontService,sans-serif" font-weight="400" font-size="24" transform="matrix(1 0 0 1.00093 302.508 416)">2</text><path d="M0 26.975C-6.87492e-15 12.0771 12.0883 0 27 0 41.9117-6.86857e-15 54 12.0771 54 26.975 54 41.873 41.9117 53.9501 27 53.9501 12.0883 53.9501-1.03124e-14 41.873 0 26.975Z" stroke="#000000" stroke-width="3.99997" stroke-miterlimit="8" fill="#E7E6E6" fill-rule="evenodd" transform="matrix(1 0 -0 1.00093 372 381)"/><text font-family="Calibri,Calibri_MSFontService,sans-serif" font-weight="400" font-size="24" transform="matrix(1 0 0 1.00093 392.554 416)">7</text><path d="M0 0 0.000105005 34.633" stroke="#000000" stroke-width="3.99997" stroke-miterlimit="8" fill="none" fill-rule="evenodd" transform="matrix(1 0 -0 1.00093 38 80)"/><path d="M0 0 0.000105005 34.633" stroke="#000000" stroke-width="3.99997" stroke-miterlimit="8" fill="none" fill-rule="evenodd" transform="matrix(1 0 -0 1.00093 129 80)"/><path d="M0 0 0.000105005 34.633" stroke="#000000" stroke-width="3.99997" stroke-miterlimit="8" fill="none" fill-rule="evenodd" transform="matrix(1 0 -0 1.00093 219 80)"/><path d="M0 0 0.000105005 34.633" stroke="#000000" stroke-width="3.99997" stroke-miterlimit="8" fill="none" fill-rule="evenodd" transform="matrix(1 0 -0 1.00093 309 80)"/><path d="M0 0 0.000105005 34.633" stroke="#000000" stroke-width="3.99997" stroke-miterlimit="8" fill="none" fill-rule="evenodd" transform="matrix(1 0 -0 1.00093 399 80)"/><path d="M0 0 36.066 0.000105005" stroke="#000000" stroke-width="3.99997" stroke-miterlimit="8" fill="none" fill-rule="evenodd" transform="matrix(1 0 -0 1.00093 155 53)"/><path d="M0 0 36.066 0.000105005" stroke="#000000" stroke-width="3.99997" stroke-miterlimit="8" fill="none" fill-rule="evenodd" transform="matrix(1 0 -0 1.00093 246 53)"/><path d="M0 0 36.066 0.000105005" stroke="#000000" stroke-width="3.99997" stroke-miterlimit="8" fill="none" fill-rule="evenodd" transform="matrix(1 0 -0 1.00093 336 53)"/><path d="M0 0 36.066 0.000105005" stroke="#000000" stroke-width="3.99997" stroke-miterlimit="8" fill="none" fill-rule="evenodd" transform="matrix(1 0 -0 1.00093 65 142)"/><path d="M0 0 0.000105005 34.633" stroke="#000000" stroke-width="3.99997" stroke-miterlimit="8" fill="none" fill-rule="evenodd" transform="matrix(1 0 -0 1.00093 38 169)"/><path d="M0 0 0.000105005 34.633" stroke="#000000" stroke-width="3.99997" stroke-miterlimit="8" fill="none" fill-rule="evenodd" transform="matrix(1 0 -0 1.00093 129 169)"/><path d="M0 0 0.000105005 34.633" stroke="#000000" stroke-width="3.99997" stroke-miterlimit="8" fill="none" fill-rule="evenodd" transform="matrix(1 0 -0 1.00093 219 169)"/><path d="M0 0 0.000105005 34.633" stroke="#000000" stroke-width="3.99997" stroke-miterlimit="8" fill="none" fill-rule="evenodd" transform="matrix(1 0 -0 1.00093 309 169)"/><path d="M0 0 0.000105005 34.633" stroke="#000000" stroke-width="3.99997" stroke-miterlimit="8" fill="none" fill-rule="evenodd" transform="matrix(1 0 -0 1.00093 399 169)"/><path d="M0 0 0.000105005 34.633" stroke="#000000" stroke-width="3.99997" stroke-miterlimit="8" fill="none" fill-rule="evenodd" transform="matrix(1 0 -0 1.00093 399 257)"/><path d="M0 0 0.238887 34.633" stroke="#000000" stroke-width="3.99997" stroke-miterlimit="8" fill="none" fill-rule="evenodd" transform="matrix(1 0 -0 1.00093 309 257)"/><path d="M0 0 0.000105005 34.633" stroke="#000000" stroke-width="3.99997" stroke-miterlimit="8" fill="none" fill-rule="evenodd" transform="matrix(1 0 -0 1.00093 399 346)"/><path d="M0 0 0.238887 34.633" stroke="#000000" stroke-width="3.99997" stroke-miterlimit="8" fill="none" fill-rule="evenodd" transform="matrix(-1 -8.74228e-08 8.75037e-08 -1.00093 38.2389 291.665)"/><path d="M0 0 0.238887 34.633" stroke="#000000" stroke-width="3.99997" stroke-miterlimit="8" fill="none" fill-rule="evenodd" transform="matrix(-1 -8.74228e-08 -8.75037e-08 1.00093 219.239 346)"/><path d="M0 0 36.066 0.000105005" stroke="#000000" stroke-width="3.99997" stroke-miterlimit="8" fill="none" fill-rule="evenodd" transform="matrix(1 0 -0 1.00093 246 142)"/><path d="M0 0 36.066 0.000105005" stroke="#000000" stroke-width="3.99997" stroke-miterlimit="8" fill="none" fill-rule="evenodd" transform="matrix(1 0 -0 1.00093 246 230)"/><path d="M0 0 36.066 0.000105005" stroke="#000000" stroke-width="3.99997" stroke-miterlimit="8" fill="none" fill-rule="evenodd" transform="matrix(1 0 -0 1.00093 246 319)"/><path d="M0 0 0.238887 34.633" stroke="#000000" stroke-width="3.99997" stroke-miterlimit="8" fill="none" fill-rule="evenodd" transform="matrix(-1 -8.74228e-08 8.75037e-08 -1.00093 129.239 291.665)"/><path d="M0 0 0.238887 34.633" stroke="#000000" stroke-width="3.99997" stroke-miterlimit="8" fill="none" fill-rule="evenodd" transform="matrix(-1 -8.74228e-08 8.75037e-08 -1.00093 219.239 291.665)"/><path d="M0 0 0.238887 34.633" stroke="#000000" stroke-width="3.99997" stroke-miterlimit="8" fill="none" fill-rule="evenodd" transform="matrix(1 0 0 -1.00093 309 380.665)"/><path d="M0 0 36.066 0.000105005" stroke="#000000" stroke-width="3.99997" stroke-miterlimit="8" fill="none" fill-rule="evenodd" transform="matrix(-1 -8.74228e-08 -8.75037e-08 1.00093 282.066 408)"/><path d="M0 0 36.066 0.000105005" stroke="#000000" stroke-width="3.99997" stroke-miterlimit="8" fill="none" fill-rule="evenodd" transform="matrix(-1 -8.74228e-08 -8.75037e-08 1.00093 372.066 408)"/><path d="M0 0 35.8271 0.000105005" stroke="#000000" stroke-width="3.99997" stroke-miterlimit="8" fill="none" fill-rule="evenodd" transform="matrix(-1 -8.74228e-08 -8.75037e-08 1.00093 371.827 319)"/><path d="M0 0 36.066 0.000105005" stroke="#000000" stroke-width="3.99997" stroke-miterlimit="8" fill="none" fill-rule="evenodd" transform="matrix(-1 -8.74228e-08 -8.75037e-08 1.00093 372.066 230)"/><path d="M0 0 36.066 0.000105005" stroke="#000000" stroke-width="3.99997" stroke-miterlimit="8" fill="none" fill-rule="evenodd" transform="matrix(-1 -8.74228e-08 -8.75037e-08 1.00093 372.066 142)"/><path d="M0 0 36.066 0.000105005" stroke="#000000" stroke-width="3.99997" stroke-miterlimit="8" fill="none" fill-rule="evenodd" transform="matrix(-1 -8.74228e-08 -8.75037e-08 1.00093 191.066 142)"/><path d="M0 0 36.066 0.000105005" stroke="#000000" stroke-width="3.99997" stroke-miterlimit="8" fill="none" fill-rule="evenodd" transform="matrix(-1 -8.74228e-08 -8.75037e-08 1.00093 191.066 230)"/><path d="M0 0 36.066 0.000105005" stroke="#000000" stroke-width="3.99997" stroke-miterlimit="8" fill="none" fill-rule="evenodd" transform="matrix(-1 -8.74228e-08 -8.75037e-08 1.00093 192.066 319)"/><path d="M0 0 36.066 0.000105005" stroke="#000000" stroke-width="3.99997" stroke-miterlimit="8" fill="none" fill-rule="evenodd" transform="matrix(-1 -8.74228e-08 -8.75037e-08 1.00093 102.066 319)"/><path d="M0 0 36.066 0.000105005" stroke="#000000" stroke-width="3.99997" stroke-miterlimit="8" fill="none" fill-rule="evenodd" transform="matrix(-1 -8.74228e-08 -8.75037e-08 1.00093 191.066 408)"/><path d="M0 0 0.238887 34.633" stroke="#000000" stroke-width="3.99997" stroke-miterlimit="8" fill="none" fill-rule="evenodd" transform="matrix(1 0 0 -1.00093 129 380.665)"/><path d="M0 0 36.066 0.000105005" stroke="#000000" stroke-width="3.99997" stroke-miterlimit="8" fill="none" fill-rule="evenodd" transform="matrix(-1 -8.74228e-08 -8.75037e-08 1.00093 101.066 408)"/><path d="M0 0 36.066 0.000105005" stroke="#000000" stroke-width="3.99997" stroke-miterlimit="8" fill="none" fill-rule="evenodd" transform="matrix(-1 -8.74228e-08 -8.75037e-08 1.00093 101.066 230)"/><path d="M0 0 0.238887 34.633" stroke="#000000" stroke-width="3.99997" stroke-miterlimit="8" fill="none" fill-rule="evenodd" transform="matrix(1 0 0 -1.00093 38 380.665)"/><path d="M0 0 0.000105005 34.633" stroke="#BFBFBF" stroke-width="3.99997" stroke-miterlimit="8" fill="none" fill-rule="evenodd" transform="matrix(1 0 -0 1.00093 715 169)"/><path d="M0 0 0.000105005 34.633" stroke="#BFBFBF" stroke-width="3.99997" stroke-miterlimit="8" fill="none" fill-rule="evenodd" transform="matrix(1 0 -0 1.00093 805 169)"/><path d="M0 0 0.238887 34.633" stroke="#BFBFBF" stroke-width="3.99997" stroke-miterlimit="8" fill="none" fill-rule="evenodd" transform="matrix(1 0 -0 1.00093 805 257)"/><path d="M0 0 0.238887 34.633" stroke="#BFBFBF" stroke-width="3.99997" stroke-miterlimit="8" fill="none" fill-rule="evenodd" transform="matrix(-1 -8.74228e-08 8.75037e-08 -1.00093 715.239 291.665)"/><path d="M0 0 0.238887 34.633" stroke="#BFBFBF" stroke-width="3.99997" stroke-miterlimit="8" fill="none" fill-rule="evenodd" transform="matrix(1 0 0 -1.00093 805 380.665)"/><path d="M0 0 0.000105005 34.633" stroke="#BFBFBF" stroke-width="3.99997" stroke-miterlimit="8" fill="none" fill-rule="evenodd" transform="matrix(1 0 -0 1.00093 535 80)"/><path d="M0 0 0.000105005 34.633" stroke="#BFBFBF" stroke-width="3.99997" stroke-miterlimit="8" fill="none" fill-rule="evenodd" transform="matrix(1 0 -0 1.00093 625 80)"/><path d="M0 0 0.000105005 34.633" stroke="#BFBFBF" stroke-width="3.99997" stroke-miterlimit="8" fill="none" fill-rule="evenodd" transform="matrix(1 0 -0 1.00093 715 80)"/><path d="M0 0 0.000105005 34.633" stroke="#BFBFBF" stroke-width="3.99997" stroke-miterlimit="8" fill="none" fill-rule="evenodd" transform="matrix(1 0 -0 1.00093 805 80)"/><path d="M0 0 0.000105005 34.633" stroke="#BFBFBF" stroke-width="3.99997" stroke-miterlimit="8" fill="none" fill-rule="evenodd" transform="matrix(1 0 -0 1.00093 895 80)"/><path d="M0 0 36.066 0.000105005" stroke="#BFBFBF" stroke-width="3.99997" stroke-miterlimit="8" fill="none" fill-rule="evenodd" transform="matrix(1 0 -0 1.00093 652 53)"/><path d="M0 0 36.066 0.000105005" stroke="#BFBFBF" stroke-width="3.99997" stroke-miterlimit="8" fill="none" fill-rule="evenodd" transform="matrix(1 0 -0 1.00093 742 53)"/><path d="M0 0 36.066 0.000105005" stroke="#BFBFBF" stroke-width="3.99997" stroke-miterlimit="8" fill="none" fill-rule="evenodd" transform="matrix(1 0 -0 1.00093 832 53)"/><path d="M0 0 36.066 0.000105005" stroke="#BFBFBF" stroke-width="3.99997" stroke-miterlimit="8" fill="none" fill-rule="evenodd" transform="matrix(1 0 -0 1.00093 562 142)"/><path d="M0 0 0.000105005 34.633" stroke="#BFBFBF" stroke-width="3.99997" stroke-miterlimit="8" fill="none" fill-rule="evenodd" transform="matrix(1 0 -0 1.00093 535 169)"/><path d="M0 0 0.000105005 34.633" stroke="#BFBFBF" stroke-width="3.99997" stroke-miterlimit="8" fill="none" fill-rule="evenodd" transform="matrix(1 0 -0 1.00093 625 169)"/><path d="M0 0 0.000105005 34.633" stroke="#BFBFBF" stroke-width="3.99997" stroke-miterlimit="8" fill="none" fill-rule="evenodd" transform="matrix(1 0 -0 1.00093 895 169)"/><path d="M0 0 0.000105005 34.633" stroke="#BFBFBF" stroke-width="3.99997" stroke-miterlimit="8" fill="none" fill-rule="evenodd" transform="matrix(1 0 -0 1.00093 895 257)"/><path d="M0 0 36.066 0.000105005" stroke="#BFBFBF" stroke-width="3.99997" stroke-miterlimit="8" fill="none" fill-rule="evenodd" transform="matrix(1 0 -0 1.00093 742 142)"/><path d="M0 0 36.066 0.000105005" stroke="#BFBFBF" stroke-width="3.99997" stroke-miterlimit="8" fill="none" fill-rule="evenodd" transform="matrix(1 0 -0 1.00093 742 230)"/><path d="M0 0 36.066 0.000105005" stroke="#BFBFBF" stroke-width="3.99997" stroke-miterlimit="8" fill="none" fill-rule="evenodd" transform="matrix(1 0 -0 1.00093 742 319)"/><path d="M0 0 0.238887 34.633" stroke="#BFBFBF" stroke-width="3.99997" stroke-miterlimit="8" fill="none" fill-rule="evenodd" transform="matrix(-1 -8.74228e-08 8.75037e-08 -1.00093 625.239 291.665)"/><path d="M0 0 36.066 0.000105005" stroke="#BFBFBF" stroke-width="3.99997" stroke-miterlimit="8" fill="none" fill-rule="evenodd" transform="matrix(-1 -8.74228e-08 -8.75037e-08 1.00093 778.066 408)"/><path d="M0 0 36.066 0.000105005" stroke="#BFBFBF" stroke-width="3.99997" stroke-miterlimit="8" fill="none" fill-rule="evenodd" transform="matrix(-1 -8.74228e-08 -8.75037e-08 1.00093 868.066 408)"/><path d="M0 0 35.8271 0.000105005" stroke="#BFBFBF" stroke-width="3.99997" stroke-miterlimit="8" fill="none" fill-rule="evenodd" transform="matrix(-1 -8.74228e-08 -8.75037e-08 1.00093 867.827 319)"/><path d="M0 0 36.066 0.000105005" stroke="#BFBFBF" stroke-width="3.99997" stroke-miterlimit="8" fill="none" fill-rule="evenodd" transform="matrix(-1 -8.74228e-08 -8.75037e-08 1.00093 868.066 230)"/><path d="M0 0 36.066 0.000105005" stroke="#BFBFBF" stroke-width="3.99997" stroke-miterlimit="8" fill="none" fill-rule="evenodd" transform="matrix(-1 -8.74228e-08 -8.75037e-08 1.00093 868.066 142)"/><path d="M0 0 36.066 0.000105005" stroke="#BFBFBF" stroke-width="3.99997" stroke-miterlimit="8" fill="none" fill-rule="evenodd" transform="matrix(-1 -8.74228e-08 -8.75037e-08 1.00093 688.066 142)"/><path d="M0 0 36.066 0.000105005" stroke="#BFBFBF" stroke-width="3.99997" stroke-miterlimit="8" fill="none" fill-rule="evenodd" transform="matrix(-1 -8.74228e-08 -8.75037e-08 1.00093 688.066 230)"/><path d="M0 0 36.066 0.000105005" stroke="#BFBFBF" stroke-width="3.99997" stroke-miterlimit="8" fill="none" fill-rule="evenodd" transform="matrix(-1 -8.74228e-08 -8.75037e-08 1.00093 688.066 319)"/><path d="M0 0 36.066 0.000105005" stroke="#BFBFBF" stroke-width="3.99997" stroke-miterlimit="8" fill="none" fill-rule="evenodd" transform="matrix(-1 -8.74228e-08 -8.75037e-08 1.00093 598.066 319)"/><path d="M0 0 0.238887 34.633" stroke="#BFBFBF" stroke-width="3.99997" stroke-miterlimit="8" fill="none" fill-rule="evenodd" transform="matrix(1 0 0 -1.00093 625 380.665)"/><path d="M0 26.975C-6.87492e-15 12.0771 12.0883 0 27 0 41.9117-6.86857e-15 54 12.0771 54 26.975 54 41.873 41.9117 53.9501 27 53.9501 12.0883 53.9501-1.03124e-14 41.873 0 26.975Z" stroke="#000000" stroke-width="3.99997" stroke-miterlimit="8" fill="#E7E6E6" fill-rule="evenodd" transform="matrix(1 0 -0 1.00093 508 26)"/><text font-family="Calibri,Calibri_MSFontService,sans-serif" font-weight="400" font-size="24" transform="matrix(1 0 0 1.00093 528.458 60)">6</text><path d="M0 26.975C-6.87493e-15 12.0771 12.0883 0 27 0 41.9117-6.86857e-15 54.0001 12.0771 54.0001 26.975 54.0001 41.873 41.9117 53.9501 27 53.9501 12.0883 53.9501-1.03124e-14 41.873 0 26.975Z" stroke="#000000" stroke-width="3.99997" stroke-miterlimit="8" fill="#E7E6E6" fill-rule="evenodd" transform="matrix(1 0 -0 1.00093 598 26)"/><text font-family="Calibri,Calibri_MSFontService,sans-serif" font-weight="400" font-size="24" transform="matrix(1 0 0 1.00093 618.504 60)">8</text><path d="M0 26.975C-6.87493e-15 12.0771 12.0883 0 27 0 41.9117-6.86857e-15 54.0001 12.0771 54.0001 26.975 54.0001 41.873 41.9117 53.9501 27 53.9501 12.0883 53.9501-1.03124e-14 41.873 0 26.975Z" stroke="#BFBFBF" stroke-width="3.99997" stroke-miterlimit="8" fill="#E7E6E6" fill-rule="evenodd" transform="matrix(1 0 -0 1.00093 688 26)"/><text fill="#A6A6A6" font-family="Calibri,Calibri_MSFontService,sans-serif" font-weight="400" font-size="24" transform="matrix(1 0 0 1.00093 708.55 60)">2</text><path d="M0 26.975C-6.87492e-15 12.0771 12.0883 0 27 0 41.9117-6.86857e-15 54 12.0771 54 26.975 54 41.873 41.9117 53.9501 27 53.9501 12.0883 53.9501-1.03124e-14 41.873 0 26.975Z" stroke="#000000" stroke-width="3.99997" stroke-miterlimit="8" fill="#E7E6E6" fill-rule="evenodd" transform="matrix(1 0 -0 1.00093 778 26)"/><text font-family="Calibri,Calibri_MSFontService,sans-serif" font-weight="400" font-size="24" transform="matrix(1 0 0 1.00093 798.595 60)">6</text><path d="M0 26.975C-6.87492e-15 12.0771 12.0883 0 27 0 41.9117-6.86857e-15 54 12.0771 54 26.975 54 41.873 41.9117 53.9501 27 53.9501 12.0883 53.9501-1.03124e-14 41.873 0 26.975Z" stroke="#BFBFBF" stroke-width="3.99997" stroke-miterlimit="8" fill="#E7E6E6" fill-rule="evenodd" transform="matrix(1 0 -0 1.00093 868 26)"/><text fill="#A6A6A6" font-family="Calibri,Calibri_MSFontService,sans-serif" font-weight="400" font-size="24" transform="matrix(1 0 0 1.00093 888.641 60)">2</text><path d="M0 27.4746C-6.87492e-15 12.3008 12.0883 0 27 0 41.9117-6.99576e-15 54 12.3008 54 27.4746 54 42.6483 41.9117 54.9491 27 54.9491 12.0883 54.9491-1.03124e-14 42.6483 0 27.4746Z" stroke="#BFBFBF" stroke-width="3.99997" stroke-miterlimit="8" fill="#E7E6E6" fill-rule="evenodd" transform="matrix(1 0 -0 1.00093 508 114)"/><text fill="#A6A6A6" font-family="Calibri,Calibri_MSFontService,sans-serif" font-weight="400" font-size="24" transform="matrix(1 0 0 1.00093 528.458 149)">3</text><path d="M0 27.4746C-6.87493e-15 12.3008 12.0883 0 27 0 41.9117-6.99576e-15 54.0001 12.3008 54.0001 27.4746 54.0001 42.6483 41.9117 54.9491 27 54.9491 12.0883 54.9491-1.03124e-14 42.6483 0 27.4746Z" stroke="#BFBFBF" stroke-width="3.99997" stroke-miterlimit="8" fill="#E7E6E6" fill-rule="evenodd" transform="matrix(1 0 -0 1.00093 598 114)"/><text fill="#A6A6A6" font-family="Calibri,Calibri_MSFontService,sans-serif" font-weight="400" font-size="24" transform="matrix(1 0 0 1.00093 618.504 149)">2</text><path d="M0 27.4746C-6.87493e-15 12.3008 12.0883 0 27 0 41.9117-6.99576e-15 54.0001 12.3008 54.0001 27.4746 54.0001 42.6483 41.9117 54.9491 27 54.9491 12.0883 54.9491-1.03124e-14 42.6483 0 27.4746Z" stroke="#BFBFBF" stroke-width="3.99997" stroke-miterlimit="8" fill="#E7E6E6" fill-rule="evenodd" transform="matrix(1 0 -0 1.00093 688 114)"/><text fill="#A6A6A6" font-family="Calibri,Calibri_MSFontService,sans-serif" font-weight="400" font-size="24" transform="matrix(1 0 0 1.00093 708.55 149)">3</text><path d="M0 27.4746C-6.87492e-15 12.3008 12.0883 0 27 0 41.9117-6.99576e-15 54 12.3008 54 27.4746 54 42.6483 41.9117 54.9491 27 54.9491 12.0883 54.9491-1.03124e-14 42.6483 0 27.4746Z" stroke="#BFBFBF" stroke-width="3.99997" stroke-miterlimit="8" fill="#E7E6E6" fill-rule="evenodd" transform="matrix(1 0 -0 1.00093 778 114)"/><text fill="#A6A6A6" font-family="Calibri,Calibri_MSFontService,sans-serif" font-weight="400" font-size="24" transform="matrix(1 0 0 1.00093 798.595 149)">4</text><path d="M0 27.4746C-6.87492e-15 12.3008 12.0883 0 27 0 41.9117-6.99576e-15 54 12.3008 54 27.4746 54 42.6483 41.9117 54.9491 27 54.9491 12.0883 54.9491-1.03124e-14 42.6483 0 27.4746Z" stroke="#000000" stroke-width="3.99997" stroke-miterlimit="8" fill="#E7E6E6" fill-rule="evenodd" transform="matrix(1 0 -0 1.00093 868 114)"/><text font-family="Calibri,Calibri_MSFontService,sans-serif" font-weight="400" font-size="24" transform="matrix(1 0 0 1.00093 888.641 149)">6</text><path d="M0 26.975C-6.87492e-15 12.0771 12.0883 0 27 0 41.9117-6.86855e-15 54 12.0771 54 26.975 54 41.8729 41.9117 53.95 27 53.95 12.0883 53.95-1.03124e-14 41.8729 0 26.975Z" stroke="#000000" stroke-width="3.99997" stroke-miterlimit="8" fill="#E7E6E6" fill-rule="evenodd" transform="matrix(1 0 -0 1.00093 508 203)"/><text font-family="Calibri,Calibri_MSFontService,sans-serif" font-weight="400" font-size="24" transform="matrix(1 0 0 1.00093 528.458 238)">6</text><path d="M0 26.975C-6.87493e-15 12.0771 12.0883 0 27 0 41.9117-6.86855e-15 54.0001 12.0771 54.0001 26.975 54.0001 41.8729 41.9117 53.95 27 53.95 12.0883 53.95-1.03124e-14 41.8729 0 26.975Z" stroke="#000000" stroke-width="3.99997" stroke-miterlimit="8" fill="#E7E6E6" fill-rule="evenodd" transform="matrix(1 0 -0 1.00093 598 203)"/><text font-family="Calibri,Calibri_MSFontService,sans-serif" font-weight="400" font-size="24" transform="matrix(1 0 0 1.00093 618.504 238)">7</text><path d="M0 26.975C-6.87493e-15 12.0771 12.0883 0 27 0 41.9117-6.86855e-15 54.0001 12.0771 54.0001 26.975 54.0001 41.8729 41.9117 53.95 27 53.95 12.0883 53.95-1.03124e-14 41.8729 0 26.975Z" stroke="#BFBFBF" stroke-width="3.99997" stroke-miterlimit="8" fill="#E7E6E6" fill-rule="evenodd" transform="matrix(1 0 -0 1.00093 688 203)"/><text fill="#A6A6A6" font-family="Calibri,Calibri_MSFontService,sans-serif" font-weight="400" font-size="24" transform="matrix(1 0 0 1.00093 708.55 238)">3</text><path d="M0 26.975C-6.87492e-15 12.0771 12.0883 0 27 0 41.9117-6.86855e-15 54 12.0771 54 26.975 54 41.8729 41.9117 53.95 27 53.95 12.0883 53.95-1.03124e-14 41.8729 0 26.975Z" stroke="#BFBFBF" stroke-width="3.99997" stroke-miterlimit="8" fill="#E7E6E6" fill-rule="evenodd" transform="matrix(1 0 -0 1.00093 778 203)"/><text fill="#A6A6A6" font-family="Calibri,Calibri_MSFontService,sans-serif" font-weight="400" font-size="24" transform="matrix(1 0 0 1.00093 798.595 238)">3</text><path d="M0 26.975C-6.87492e-15 12.0771 12.0883 0 27 0 41.9117-6.86855e-15 54 12.0771 54 26.975 54 41.8729 41.9117 53.95 27 53.95 12.0883 53.95-1.03124e-14 41.8729 0 26.975Z" stroke="#BFBFBF" stroke-width="3.99997" stroke-miterlimit="8" fill="#E7E6E6" fill-rule="evenodd" transform="matrix(1 0 -0 1.00093 868 203)"/><text fill="#A6A6A6" font-family="Calibri,Calibri_MSFontService,sans-serif" font-weight="400" font-size="24" transform="matrix(1 0 0 1.00093 888.641 238)">2</text><path d="M0 26.975C-6.87492e-15 12.0771 12.0883 0 27 0 41.9117-6.86855e-15 54 12.0771 54 26.975 54 41.8729 41.9117 53.95 27 53.95 12.0883 53.95-1.03124e-14 41.8729 0 26.975Z" stroke="#000000" stroke-width="3.99997" stroke-miterlimit="8" fill="#E7E6E6" fill-rule="evenodd" transform="matrix(1 0 -0 1.00093 508 292)"/><text font-family="Calibri,Calibri_MSFontService,sans-serif" font-weight="400" font-size="24" transform="matrix(1 0 0 1.00093 528.697 327)">7</text><path d="M0 26.975C-6.87493e-15 12.0771 12.0883 0 27 0 41.9117-6.86855e-15 54.0001 12.0771 54.0001 26.975 54.0001 41.8729 41.9117 53.95 27 53.95 12.0883 53.95-1.03124e-14 41.8729 0 26.975Z" stroke="#BFBFBF" stroke-width="3.99997" stroke-miterlimit="8" fill="#E7E6E6" fill-rule="evenodd" transform="matrix(1 0 -0 1.00093 598 292)"/><text fill="#A6A6A6" font-family="Calibri,Calibri_MSFontService,sans-serif" font-weight="400" font-size="24" transform="matrix(1 0 0 1.00093 618.743 327)">2</text><path d="M0 26.975C-6.87493e-15 12.0771 12.0883 0 27 0 41.9117-6.86855e-15 54.0001 12.0771 54.0001 26.975 54.0001 41.8729 41.9117 53.95 27 53.95 12.0883 53.95-1.03124e-14 41.8729 0 26.975Z" stroke="#000000" stroke-width="3.99997" stroke-miterlimit="8" fill="#E7E6E6" fill-rule="evenodd" transform="matrix(1 0 -0 1.00093 688 292)"/><text font-family="Calibri,Calibri_MSFontService,sans-serif" font-weight="400" font-size="24" transform="matrix(1 0 0 1.00093 708.789 327)">5</text><path d="M0 26.975C-6.87492e-15 12.0771 12.0883 0 27 0 41.9117-6.86855e-15 54 12.0771 54 26.975 54 41.8729 41.9117 53.95 27 53.95 12.0883 53.95-1.03124e-14 41.8729 0 26.975Z" stroke="#BFBFBF" stroke-width="3.99997" stroke-miterlimit="8" fill="#E7E6E6" fill-rule="evenodd" transform="matrix(1 0 -0 1.00093 778 292)"/><text fill="#A6A6A6" font-family="Calibri,Calibri_MSFontService,sans-serif" font-weight="400" font-size="24" transform="matrix(1 0 0 1.00093 798.834 327)">3</text><path d="M0 26.975C-6.87492e-15 12.0771 12.0883 0 27 0 41.9117-6.86855e-15 54 12.0771 54 26.975 54 41.8729 41.9117 53.95 27 53.95 12.0883 53.95-1.03124e-14 41.8729 0 26.975Z" stroke="#000000" stroke-width="3.99997" stroke-miterlimit="8" fill="#E7E6E6" fill-rule="evenodd" transform="matrix(1 0 -0 1.00093 868 292)"/><text font-family="Calibri,Calibri_MSFontService,sans-serif" font-weight="400" font-size="24" transform="matrix(1 0 0 1.00093 888.641 327)">6</text><path d="M0 0 36.066 0.000105005" stroke="#000000" stroke-width="3.99997" stroke-miterlimit="8" fill="none" fill-rule="evenodd" transform="matrix(1 0 -0 1.00093 562 53)"/><path d="M0 26.975C-6.87492e-15 12.0771 12.0883 0 27 0 41.9117-6.86857e-15 54 12.0771 54 26.975 54 41.873 41.9117 53.9501 27 53.9501 12.0883 53.9501-1.03124e-14 41.873 0 26.975Z" stroke="#000000" stroke-width="3.99997" stroke-miterlimit="8" fill="#E7E6E6" fill-rule="evenodd" transform="matrix(1 0 -0 1.00093 508 381)"/><text font-family="Calibri,Calibri_MSFontService,sans-serif" font-weight="400" font-size="24" transform="matrix(1 0 0 1.00093 528.458 416)">8</text><path d="M0 26.975C-6.87493e-15 12.0771 12.0883 0 27 0 41.9117-6.86857e-15 54.0001 12.0771 54.0001 26.975 54.0001 41.873 41.9117 53.9501 27 53.9501 12.0883 53.9501-1.03124e-14 41.873 0 26.975Z" stroke="#000000" stroke-width="3.99997" stroke-miterlimit="8" fill="#E7E6E6" fill-rule="evenodd" transform="matrix(1 0 -0 1.00093 598 381)"/><text font-family="Calibri,Calibri_MSFontService,sans-serif" font-weight="400" font-size="24" transform="matrix(1 0 0 1.00093 618.504 416)">9</text><path d="M0 26.975C-6.87493e-15 12.0771 12.0883 0 27 0 41.9117-6.86857e-15 54.0001 12.0771 54.0001 26.975 54.0001 41.873 41.9117 53.9501 27 53.9501 12.0883 53.9501-1.03124e-14 41.873 0 26.975Z" stroke="#000000" stroke-width="3.99997" stroke-miterlimit="8" fill="#E7E6E6" fill-rule="evenodd" transform="matrix(1 0 -0 1.00093 688 381)"/><text font-family="Calibri,Calibri_MSFontService,sans-serif" font-weight="400" font-size="24" transform="matrix(1 0 0 1.00093 708.55 416)">5</text><path d="M0 26.975C-6.87492e-15 12.0771 12.0883 0 27 0 41.9117-6.86857e-15 54 12.0771 54 26.975 54 41.873 41.9117 53.9501 27 53.9501 12.0883 53.9501-1.03124e-14 41.873 0 26.975Z" stroke="#BFBFBF" stroke-width="3.99997" stroke-miterlimit="8" fill="#E7E6E6" fill-rule="evenodd" transform="matrix(1 0 -0 1.00093 778 381)"/><text fill="#A6A6A6" font-family="Calibri,Calibri_MSFontService,sans-serif" font-weight="400" font-size="24" transform="matrix(1 0 0 1.00093 798.595 416)">2</text><path d="M0 26.975C-6.87492e-15 12.0771 12.0883 0 27 0 41.9117-6.86857e-15 54 12.0771 54 26.975 54 41.873 41.9117 53.9501 27 53.9501 12.0883 53.9501-1.03124e-14 41.873 0 26.975Z" stroke="#000000" stroke-width="3.99997" stroke-miterlimit="8" fill="#E7E6E6" fill-rule="evenodd" transform="matrix(1 0 -0 1.00093 868 381)"/><text font-family="Calibri,Calibri_MSFontService,sans-serif" font-weight="400" font-size="24" transform="matrix(1 0 0 1.00093 888.641 416)">7</text><path d="M0 0 0.000105005 34.633" stroke="#000000" stroke-width="3.99997" stroke-miterlimit="8" fill="none" fill-rule="evenodd" transform="matrix(1 0 -0 1.00093 895 346)"/><path d="M0 0 0.238887 34.633" stroke="#000000" stroke-width="3.99997" stroke-miterlimit="8" fill="none" fill-rule="evenodd" transform="matrix(-1 -8.74228e-08 8.75037e-08 -1.00093 535.239 291.665)"/><path d="M0 0 0.238887 34.633" stroke="#000000" stroke-width="3.99997" stroke-miterlimit="8" fill="none" fill-rule="evenodd" transform="matrix(-1 -8.74228e-08 -8.75037e-08 1.00093 715.239 346)"/><path d="M0 0 36.066 0.000105005" stroke="#000000" stroke-width="3.99997" stroke-miterlimit="8" fill="none" fill-rule="evenodd" transform="matrix(-1 -8.74228e-08 -8.75037e-08 1.00093 688.066 408)"/><path d="M0 0 36.066 0.000105005" stroke="#000000" stroke-width="3.99997" stroke-miterlimit="8" fill="none" fill-rule="evenodd" transform="matrix(-1 -8.74228e-08 -8.75037e-08 1.00093 598.066 408)"/><path d="M0 0 36.066 0.000105005" stroke="#000000" stroke-width="3.99997" stroke-miterlimit="8" fill="none" fill-rule="evenodd" transform="matrix(-1 -8.74228e-08 -8.75037e-08 1.00093 598.066 230)"/><path d="M0 0 0.238887 34.633" stroke="#000000" stroke-width="3.99997" stroke-miterlimit="8" fill="none" fill-rule="evenodd" transform="matrix(1 0 0 -1.00093 535 380.665)"/></g></svg>