<svg width="756" height="378" xmlns="http://www.w3.org/2000/svg" xmlns:xlink="http://www.w3.org/1999/xlink" overflow="hidden"><defs><clipPath id="clip0"><path d="M0 0 756 0 756 378 0 378Z" fill-rule="evenodd" clip-rule="evenodd"/></clipPath></defs><g clip-path="url(#clip0)"><rect x="0" y="0" width="756" height="378" fill="#FFFFFF"/><path d="M430.285 158.954C428.454 146.8 424.712 142.431 439.838 124.637 454.964 106.842 500.342 69.6649 521.04 52.1883 541.739 34.7118 543.729 22.0016 564.03 19.7773 584.33 17.553 616.333 29.151 642.843 38.8426 669.354 48.5341 709.477 55.1276 723.09 77.9266 736.704 100.726 734.077 141.637 724.523 175.636 714.97 209.636 689.097 261.43 665.771 281.926 642.445 302.421 610.203 311.318 584.569 298.608 558.935 285.898 534.255 222.505 511.965 205.664 489.674 188.823 464.995 205.505 450.824 197.562 436.653 189.618 432.116 171.108 430.285 158.954Z" stroke="#000000" stroke-width="3" stroke-miterlimit="8" stroke-dasharray="12 9" fill="none" fill-rule="evenodd"/><path d="M0 0 110.806 44.4181" stroke="#D9D9D9" stroke-width="4" stroke-miterlimit="8" fill="none" fill-rule="evenodd" transform="matrix(1 0 0 -1 567 162.418)"/><path d="M568 178 616.716 244.029" stroke="#D9D9D9" stroke-width="4" stroke-miterlimit="8" fill="none" fill-rule="evenodd"/><path d="M489 160 537.478 167.045" stroke="#D9D9D9" stroke-width="4" stroke-miterlimit="8" fill="none" fill-rule="evenodd"/><path d="M0 0 85.9702 72.5971" stroke="#D9D9D9" stroke-width="4" stroke-miterlimit="8" fill="none" fill-rule="evenodd" transform="matrix(1 0 0 -1 477 146.597)"/><path d="M345.064 106.558C328.743 98.2037 296.498 84.5178 274.365 76.4813 252.231 68.4448 241.085 50.7804 212.264 58.3395 183.443 65.8986 133.683 97.7263 101.438 121.836 69.1932 145.945 22.4585 177.932 18.7961 202.997 15.1337 228.061 46.0248 258.536 79.4637 272.222 112.903 285.908 175.8 293.228 219.429 285.112 263.059 276.996 313.615 241.588 341.242 223.525 368.869 205.463 380.016 192.891 385.191 176.739 390.366 160.586 378.981 138.148 372.293 126.61 365.605 115.072 361.385 114.913 345.064 106.558Z" stroke="#000000" stroke-width="3" stroke-miterlimit="8" stroke-dasharray="12 9" fill="none" fill-rule="evenodd"/><path d="M327.224 151.455 236 114" stroke="#D9D9D9" stroke-width="4" stroke-miterlimit="8" fill="none" fill-rule="evenodd"/><path d="M207.403 234.328 88 220" stroke="#D9D9D9" stroke-width="4" stroke-miterlimit="8" fill="none" fill-rule="evenodd"/><path d="M214.284 222.358 175 166" stroke="#D9D9D9" stroke-width="4" stroke-miterlimit="8" fill="none" fill-rule="evenodd"/><path d="M0 0 83.5046 52.4177" stroke="#D9D9D9" stroke-width="4" stroke-miterlimit="8" fill="none" fill-rule="evenodd" transform="matrix(1 0 0 -1 243 225.418)"/><path d="M0 0 77.373 0.000104987" stroke="#548235" stroke-width="4" stroke-miterlimit="8" fill="none" fill-rule="evenodd" transform="matrix(1 0 0 -1 366 160)"/><path d="M197 107.5C197 95.0736 207.297 85 220 85 232.703 85 243 95.0736 243 107.5 243 119.926 232.703 130 220 130 207.297 130 197 119.926 197 107.5Z" stroke="#000000" stroke-width="4" stroke-miterlimit="8" fill="#D9D9D9" fill-rule="evenodd"/><path d="M42 211C42 198.297 52.2974 188 65 188 77.7025 188 88 198.297 88 211 88 223.703 77.7025 234 65 234 52.2974 234 42 223.703 42 211Z" stroke="#000000" stroke-width="4" stroke-miterlimit="8" fill="#D9D9D9" fill-rule="evenodd"/><path d="M135 147C135 134.297 145.297 124 158 124 170.703 124 181 134.297 181 147 181 159.703 170.703 170 158 170 145.297 170 135 159.703 135 147Z" stroke="#000000" stroke-width="4" stroke-miterlimit="8" fill="#D9D9D9" fill-rule="evenodd"/><path d="M320 160C320 147.297 330.297 137 343 137 355.703 137 366 147.297 366 160 366 172.703 355.703 183 343 183 330.297 183 320 172.703 320 160Z" stroke="#000000" stroke-width="4" stroke-miterlimit="8" fill="#FFE699" fill-rule="evenodd"/><path d="M444 160C444 147.297 454.074 137 466.5 137 478.926 137 489 147.297 489 160 489 172.703 478.926 183 466.5 183 454.074 183 444 172.703 444 160Z" stroke="#000000" stroke-width="4" stroke-miterlimit="8" fill="#FFE699" fill-rule="evenodd"/><path d="M201 234C201 221.297 211.297 211 224 211 236.703 211 247 221.297 247 234 247 246.703 236.703 257 224 257 211.297 257 201 246.703 201 234Z" stroke="#000000" stroke-width="4" stroke-miterlimit="8" fill="#D9D9D9" fill-rule="evenodd"/><path d="M547 66C547 53.2974 557.297 43 570 43 582.703 43 593 53.2974 593 66 593 78.7025 582.703 89 570 89 557.297 89 547 78.7025 547 66Z" stroke="#000000" stroke-width="4" stroke-miterlimit="8" fill="#D9D9D9" fill-rule="evenodd"/><path d="M538 167C538 154.297 548.297 144 561 144 573.703 144 584 154.297 584 167 584 179.703 573.703 190 561 190 548.297 190 538 179.703 538 167Z" stroke="#000000" stroke-width="4" stroke-miterlimit="8" fill="#D9D9D9" fill-rule="evenodd"/><path d="M597 248C597 235.297 607.297 225 620 225 632.703 225 643 235.297 643 248 643 260.703 632.703 271 620 271 607.297 271 597 260.703 597 248Z" stroke="#000000" stroke-width="4" stroke-miterlimit="8" fill="#D9D9D9" fill-rule="evenodd"/><path d="M664 115.5C664 103.074 674.297 93 687 93 699.703 93 710 103.074 710 115.5 710 127.926 699.703 138 687 138 674.297 138 664 127.926 664 115.5Z" stroke="#000000" stroke-width="4" stroke-miterlimit="8" fill="#D9D9D9" fill-rule="evenodd"/><text font-family="Cambria Math,Cambria Math_MSFontService,sans-serif" font-weight="400" font-size="24" transform="translate(339.009 168)">ğ‘–<tspan x="122.897" y="-2">ğ‘—</tspan><tspan x="340.22" y="-44">ğ‘£</tspan><tspan x="-283.365" y="49">ğ‘¢</tspan></text><path d="M0 0 37.7313 0.000104987" stroke="#548235" stroke-width="4" stroke-miterlimit="8" fill="none" fill-rule="evenodd" transform="matrix(1 0 0 -1 623 342)"/><path d="M0 0 37.7313 0.000104987" stroke="#D9D9D9" stroke-width="4" stroke-miterlimit="8" fill="none" fill-rule="evenodd" transform="matrix(1 0 0 -1 695 342)"/><text font-family="Cambria Math,Cambria Math_MSFontService,sans-serif" font-weight="400" font-size="24" transform="translate(670.162 350)">&gt;</text><rect x="606.5" y="322.5" width="142" height="44" stroke="#000000" stroke-miterlimit="8" fill="none"/></g></svg>