<svg width="491" height="229" xmlns="http://www.w3.org/2000/svg" xmlns:xlink="http://www.w3.org/1999/xlink" overflow="hidden"><defs><clipPath id="clip0"><rect x="0" y="0" width="491" height="229"/></clipPath></defs><g clip-path="url(#clip0)"><rect x="0" y="0" width="491" height="229.49" fill="#FFFFFF"/><path d="M227.225 17.6772 238.596 15.5483 250.13 13.7266 261.949 12.4667 274.168 12.0879 286.944 12.7817 299.997 14.4168 313.388 16.6115 319.444 17.7407 318.896 20.6944 312.855 19.5682 312.888 19.5739 299.541 17.3864 299.597 17.3945 286.625 15.7695 286.73 15.7789 274.069 15.0914 274.197 15.0928 262.098 15.4678 262.21 15.4601 250.485 16.7101 250.56 16.7002 239.084 18.5127 239.126 18.5055 227.775 20.6305ZM318.519 14.5123 326.538 20.5914 316.874 23.3733Z" fill="#C00000"/><path d="M268.101 96.2252 272.106 85.817 276.577 75.6561 281.826 66.2754 284.906 61.9041 288.365 57.8595 292.212 54.1327 296.45 50.7868 305.678 44.9592 315.624 39.8492 319.055 38.298 320.288 41.0365 316.891 42.5723 316.959 42.5398 307.105 47.6023 307.22 47.5365 298.115 53.2865 298.243 53.1955 294.127 56.4455 294.241 56.3456 290.499 59.9706 290.595 59.8682 287.228 63.8057 287.314 63.6944 284.321 67.9444 284.403 67.8129 279.227 77.0629 279.291 76.9342 274.863 86.9967 274.89 86.931 270.899 97.306ZM316.456 36.1773 326.503 36.5781 320.155 44.3928Z" fill="#C00000"/><path d="M81.5001 75.6614C81.5001 64.0386 90.6782 54.6165 102 54.6165 113.322 54.6165 122.5 64.0386 122.5 75.6614 122.5 87.2842 113.322 96.7063 102 96.7063 90.6782 96.7063 81.5001 87.2842 81.5001 75.6614Z" stroke="#000000" stroke-width="2.99796" stroke-miterlimit="8" fill="#D9D9D9" fill-rule="evenodd"/><path d="M186.5 23.5502C186.5 11.9275 195.678 2.50538 207 2.50538 218.322 2.50538 227.5 11.9275 227.5 23.5502 227.5 35.173 218.322 44.5951 207 44.5951 195.678 44.5951 186.5 35.173 186.5 23.5502Z" stroke="#000000" stroke-width="2.99796" stroke-miterlimit="8" fill="#D9D9D9" fill-rule="evenodd"/><path d="M327.5 28.0598C327.5 16.7138 336.678 7.51603 348 7.51603 359.322 7.51603 368.5 16.7138 368.5 28.0598 368.5 39.4059 359.322 48.6037 348 48.6037 336.678 48.6037 327.5 39.4059 327.5 28.0598Z" stroke="#000000" stroke-width="2.99796" stroke-miterlimit="8" fill="#D9D9D9" fill-rule="evenodd"/><path d="M438.5 75.6614C438.5 64.0386 447.678 54.6165 459 54.6165 470.322 54.6165 479.5 64.0386 479.5 75.6614 479.5 87.2842 470.322 96.7063 459 96.7063 447.678 96.7063 438.5 87.2842 438.5 75.6614Z" stroke="#000000" stroke-width="2.99796" stroke-miterlimit="8" fill="#D9D9D9" fill-rule="evenodd"/><path d="M426.5 178.38C426.5 167.034 435.902 157.837 447.5 157.837 459.098 157.837 468.5 167.034 468.5 178.38 468.5 189.727 459.098 198.924 447.5 198.924 435.902 198.924 426.5 189.727 426.5 178.38Z" stroke="#000000" stroke-width="2.99796" stroke-miterlimit="8" fill="#D9D9D9" fill-rule="evenodd"/><path d="M311.5 198.924C311.5 187.302 320.678 177.879 332 177.879 343.322 177.879 352.5 187.302 352.5 198.924 352.5 210.547 343.322 219.969 332 219.969 320.678 219.969 311.5 210.547 311.5 198.924Z" stroke="#000000" stroke-width="2.99796" stroke-miterlimit="8" fill="#D9D9D9" fill-rule="evenodd"/><path d="M242.5 117.25C242.5 105.904 251.678 96.7063 263 96.7063 274.322 96.7063 283.5 105.904 283.5 117.25 283.5 128.596 274.322 137.794 263 137.794 251.678 137.794 242.5 128.596 242.5 117.25Z" stroke="#000000" stroke-width="2.99796" stroke-miterlimit="8" fill="#D9D9D9" fill-rule="evenodd"/><path d="M5.49999 145.811C5.49999 134.188 14.6782 124.766 26 124.766 37.3218 124.766 46.5 134.188 46.5 145.811 46.5 157.434 37.3218 166.856 26 166.856 14.6782 166.856 5.49999 157.434 5.49999 145.811Z" stroke="#000000" stroke-width="2.99796" stroke-miterlimit="8" fill="#D9D9D9" fill-rule="evenodd"/><path d="M40.2886 129.932 45.6613 122.544 51.05 115.448 56.3962 108.893 61.7181 103.115 67.0692 98.3913 72.3544 94.5624 76.2837 92.1851 77.8332 94.7571 73.957 97.1023 74.0605 97.0337 68.884 100.784 68.9967 100.693 63.7579 105.318 63.8685 105.21 58.6297 110.898 58.6889 110.829 53.3877 117.329 53.4199 117.289 48.0564 124.351 48.0749 124.326 42.7114 131.701ZM73.5001 90.3328 83.5352 89.6913 78.0262 98.1214Z"/><path d="M115.455 60.6028 122.4 53.8312 129.634 47.3379 137.286 41.3805 145.545 36.2871 154.561 32.2148 164.158 29.0514 174.079 26.4084 176.902 25.7624 177.569 28.6913 174.772 29.3314 174.824 29.3187 164.97 31.9437 165.053 31.9189 155.573 35.0439 155.721 34.9865 146.865 38.9865 147.035 38.8963 138.927 43.8963 139.061 43.8032 131.514 49.6782 131.595 49.611 124.423 56.0484 124.468 56.0061 117.545 62.7561ZM174.773 23.1679 184.542 25.5545 176.775 31.9548Z"/><path d="M368.828 31.1036 380.814 33.7939 392.459 36.6172 403.315 39.7614 408.31 41.4724 412.936 43.3138 417.203 45.2924 421.1 47.4692 427.941 51.9126 433.767 56.5928 431.892 58.937 426.125 54.3041 426.247 54.3926 419.511 50.0176 419.597 50.0691 415.793 47.9441 415.893 47.9953 411.714 46.0578 411.79 46.0906 407.238 44.2781 407.306 44.3035 402.379 42.616 402.448 42.6376 391.658 39.5126 391.722 39.5296 380.122 36.7171 380.147 36.7229 368.172 34.0354ZM434.602 53.3591 438.538 62.632 428.774 60.2238Z"/><path d="M469.07 93.3807 471.258 103.465 473.083 113.304 473.968 122.681 474.032 127.195 473.643 131.485 472.801 135.511 471.627 139.368 468.353 146.315 464.154 152.643 461.658 150.98 465.796 144.743 465.689 144.933 468.869 138.183 468.791 138.387 469.914 134.699 469.88 134.829 470.691 130.954 470.665 131.126 471.04 127.001 471.034 127.159 470.971 122.784 470.978 122.904 470.105 113.654 470.123 113.787 468.315 104.037 468.324 104.081 466.141 94.019ZM467.425 153.246 458.5 157.887 460.15 147.947Z"/><path d="M435.797 195.389 413.073 199.768 402.101 201.527 391.553 202.723 381.682 203.353 372.313 203.416 361.932 203.016 362.047 200.014 372.395 200.413 372.327 200.411 381.619 200.349 381.534 200.352 391.326 199.727 391.253 199.733 401.73 198.546 401.662 198.555 412.576 196.805 412.53 196.813 435.231 192.438ZM363.314 206.076 354.5 201.226 363.66 197.069Z"/><path d="M313.766 187.209 306.697 183.008 299.702 178.525 293.096 173.496 287.095 167.674 281.864 160.961 277.306 153.476 273.094 145.599 272.42 144.206 275.118 142.896 275.778 144.262 275.75 144.207 279.929 152.02 279.887 151.947 284.378 159.322 284.28 159.18 289.394 165.742 289.255 165.587 295.117 171.275 294.981 171.158 301.467 176.096 301.368 176.026 308.291 180.464 308.248 180.437 315.295 184.625ZM270.376 146.868 270.5 136.792 278.469 142.937Z"/></g></svg>