<?xml version="1.0" encoding="utf-8"?>
<!-- Generator: Adobe Illustrator 19.0.0, SVG Export Plug-In . SVG Version: 6.00 Build 0)  -->
<svg version="1.1" id="Layer_1" xmlns="http://www.w3.org/2000/svg" xmlns:xlink="http://www.w3.org/1999/xlink" x="0px" y="0px"
	 viewBox="0 0 663.2 67.2" style="enable-background:new 0 0 663.2 67.2;" xml:space="preserve">
<style type="text/css">
	.st0{fill:#FFFFFF;stroke:#000000;stroke-miterlimit:10;}
	.st1{fill:#FF1D25;}
</style>
<g id="XMLID_3_">
	<rect id="XMLID_1_" x="0.5" y="-158.7" class="st0" width="66.2" height="66.2"/>
	<g id="XMLID_2_">
		<path id="XMLID_384_" class="st1" d="M18.7-139.8v1.4h-7.6c0-0.3,0-0.7,0.2-1c0.2-0.5,0.5-1,0.9-1.5c0.4-0.5,1-1.1,1.8-1.7
			c1.2-1,2.1-1.8,2.5-2.4c0.4-0.6,0.7-1.2,0.7-1.7c0-0.6-0.2-1-0.6-1.4s-0.9-0.6-1.6-0.6c-0.7,0-1.2,0.2-1.6,0.6s-0.6,1-0.6,1.7
			l-1.4-0.1c0.1-1.1,0.5-1.9,1.1-2.5c0.6-0.6,1.5-0.8,2.6-0.8c1.1,0,2,0.3,2.6,0.9s1,1.4,1,2.3c0,0.5-0.1,0.9-0.3,1.4
			c-0.2,0.4-0.5,0.9-0.9,1.4c-0.4,0.5-1.2,1.2-2.2,2c-0.8,0.7-1.4,1.2-1.6,1.4c-0.2,0.3-0.4,0.5-0.6,0.8H18.7z"/>
	</g>
</g>
<g id="XMLID_5_">
	<rect id="XMLID_7_" x="66.7" y="-158.7" class="st0" width="66.2" height="66.2"/>
	<g id="XMLID_6_">
		<path id="XMLID_381_" class="st1" d="M82-138.4v-2.7h-5v-1.3l5.2-7.4h1.1v7.4H85v1.3h-1.5v2.7H82z M82-142.5v-5.2l-3.6,5.2H82z"/>
	</g>
</g>
<g id="XMLID_11_">
	<rect id="XMLID_13_" x="132.9" y="-158.7" class="st0" width="66.2" height="66.2"/>
	<g id="XMLID_12_">
		<path id="XMLID_377_" class="st1" d="M149-138.4h-1.4v-9c-0.3,0.3-0.8,0.6-1.3,1c-0.5,0.3-1,0.6-1.5,0.7v-1.4
			c0.8-0.4,1.5-0.8,2.1-1.3c0.6-0.5,1-1,1.3-1.5h0.9V-138.4z"/>
		<path id="XMLID_379_" class="st1" d="M152.6-141.4l1.5-0.1c0.1,0.7,0.4,1.3,0.8,1.6c0.4,0.4,0.9,0.5,1.4,0.5
			c0.7,0,1.3-0.3,1.7-0.8c0.5-0.5,0.7-1.2,0.7-2c0-0.8-0.2-1.4-0.7-1.9c-0.5-0.5-1-0.7-1.8-0.7c-0.5,0-0.9,0.1-1.2,0.3
			c-0.4,0.2-0.7,0.5-0.9,0.8l-1.3-0.2l1.1-5.9h5.7v1.3h-4.6l-0.6,3.1c0.7-0.5,1.4-0.7,2.2-0.7c1,0,1.8,0.3,2.5,1
			c0.7,0.7,1,1.6,1,2.7c0,1-0.3,1.9-0.9,2.7c-0.7,0.9-1.7,1.4-3,1.4c-1,0-1.9-0.3-2.6-0.9C153.1-139.7,152.7-140.5,152.6-141.4z"/>
	</g>
</g>
<g id="XMLID_8_">
	<rect id="XMLID_10_" x="199.1" y="-158.7" class="st0" width="66.2" height="66.2"/>
	<g id="XMLID_9_">
		<path id="XMLID_373_" class="st1" d="M215.2-138.4h-1.4v-9c-0.3,0.3-0.8,0.6-1.3,1c-0.5,0.3-1,0.6-1.5,0.7v-1.4
			c0.8-0.4,1.5-0.8,2.1-1.3c0.6-0.5,1-1,1.3-1.5h0.9V-138.4z"/>
		<path id="XMLID_375_" class="st1" d="M226.2-139.8v1.4h-7.6c0-0.3,0-0.7,0.2-1c0.2-0.5,0.5-1,0.9-1.5c0.4-0.5,1-1.1,1.8-1.7
			c1.2-1,2.1-1.8,2.5-2.4c0.4-0.6,0.7-1.2,0.7-1.7c0-0.6-0.2-1-0.6-1.4s-0.9-0.6-1.6-0.6c-0.7,0-1.2,0.2-1.6,0.6s-0.6,1-0.6,1.7
			l-1.4-0.1c0.1-1.1,0.5-1.9,1.1-2.5c0.6-0.6,1.5-0.8,2.6-0.8c1.1,0,2,0.3,2.6,0.9s1,1.4,1,2.3c0,0.5-0.1,0.9-0.3,1.4
			c-0.2,0.4-0.5,0.9-0.9,1.4c-0.4,0.5-1.2,1.2-2.2,2c-0.8,0.7-1.4,1.2-1.6,1.4c-0.2,0.3-0.4,0.5-0.6,0.8H226.2z"/>
	</g>
</g>
<g id="XMLID_23_">
	<rect id="XMLID_25_" x="265.4" y="-158.7" class="st0" width="66.2" height="66.2"/>
	<g id="XMLID_24_">
		<path id="XMLID_368_" class="st1" d="M281.5-138.4h-1.4v-9c-0.3,0.3-0.8,0.6-1.3,1c-0.5,0.3-1,0.6-1.5,0.7v-1.4
			c0.8-0.4,1.5-0.8,2.1-1.3c0.6-0.5,1-1,1.3-1.5h0.9V-138.4z"/>
		<path id="XMLID_370_" class="st1" d="M285.1-144.1c0-1.4,0.1-2.4,0.4-3.3c0.3-0.8,0.7-1.5,1.2-1.9c0.5-0.4,1.2-0.7,2.1-0.7
			c0.6,0,1.2,0.1,1.6,0.4c0.5,0.2,0.8,0.6,1.1,1.1c0.3,0.5,0.5,1,0.7,1.7c0.2,0.7,0.3,1.6,0.3,2.7c0,1.3-0.1,2.4-0.4,3.3
			c-0.3,0.8-0.7,1.5-1.2,1.9c-0.5,0.5-1.2,0.7-2.1,0.7c-1.1,0-2-0.4-2.6-1.2C285.4-140.4,285.1-141.9,285.1-144.1z M286.5-144.1
			c0,1.9,0.2,3.1,0.7,3.8c0.4,0.6,1,0.9,1.6,0.9s1.2-0.3,1.6-0.9s0.7-1.9,0.7-3.8c0-1.9-0.2-3.1-0.7-3.8c-0.4-0.6-1-0.9-1.6-0.9
			c-0.6,0-1.2,0.3-1.5,0.8C286.7-147.3,286.5-146,286.5-144.1z"/>
	</g>
</g>
<g id="XMLID_20_">
	<rect id="XMLID_22_" x="331.6" y="-158.7" class="st0" width="66.2" height="66.2"/>
	<g id="XMLID_21_">
		<path id="XMLID_366_" class="st1" d="M347.7-138.4h-1.4v-9c-0.3,0.3-0.8,0.6-1.3,1c-0.5,0.3-1,0.6-1.5,0.7v-1.4
			c0.8-0.4,1.5-0.8,2.1-1.3c0.6-0.5,1-1,1.3-1.5h0.9V-138.4z"/>
	</g>
</g>
<g id="XMLID_17_">
	<rect id="XMLID_19_" x="397.8" y="-158.7" class="st0" width="66.2" height="66.2"/>
	<g id="XMLID_18_">
		<path id="XMLID_364_" class="st1" d="M413.9-138.4h-1.4v-9c-0.3,0.3-0.8,0.6-1.3,1c-0.5,0.3-1,0.6-1.5,0.7v-1.4
			c0.8-0.4,1.5-0.8,2.1-1.3c0.6-0.5,1-1,1.3-1.5h0.9V-138.4z"/>
	</g>
</g>
<g id="XMLID_14_">
	<rect id="XMLID_16_" x="464" y="-158.7" class="st0" width="66.2" height="66.2"/>
	<g id="XMLID_15_">
		<path id="XMLID_359_" class="st1" d="M482.2-139.8v1.4h-7.6c0-0.3,0-0.7,0.2-1c0.2-0.5,0.5-1,0.9-1.5c0.4-0.5,1-1.1,1.8-1.7
			c1.2-1,2.1-1.8,2.5-2.4c0.4-0.6,0.7-1.2,0.7-1.7c0-0.6-0.2-1-0.6-1.4s-0.9-0.6-1.6-0.6c-0.7,0-1.2,0.2-1.6,0.6s-0.6,1-0.6,1.7
			l-1.4-0.1c0.1-1.1,0.5-1.9,1.1-2.5c0.6-0.6,1.5-0.8,2.6-0.8c1.1,0,2,0.3,2.6,0.9s1,1.4,1,2.3c0,0.5-0.1,0.9-0.3,1.4
			c-0.2,0.4-0.5,0.9-0.9,1.4c-0.4,0.5-1.2,1.2-2.2,2c-0.8,0.7-1.4,1.2-1.6,1.4c-0.2,0.3-0.4,0.5-0.6,0.8H482.2z"/>
		<path id="XMLID_361_" class="st1" d="M483.7-144.1c0-1.4,0.1-2.4,0.4-3.3c0.3-0.8,0.7-1.5,1.2-1.9c0.5-0.4,1.2-0.7,2.1-0.7
			c0.6,0,1.2,0.1,1.6,0.4c0.5,0.2,0.8,0.6,1.1,1.1c0.3,0.5,0.5,1,0.7,1.7c0.2,0.7,0.3,1.6,0.3,2.7c0,1.3-0.1,2.4-0.4,3.3
			c-0.3,0.8-0.7,1.5-1.2,1.9c-0.6,0.5-1.2,0.7-2.1,0.7c-1.1,0-2-0.4-2.6-1.2C484.1-140.4,483.7-141.9,483.7-144.1z M485.2-144.1
			c0,1.9,0.2,3.1,0.7,3.8c0.4,0.6,1,0.9,1.6,0.9c0.6,0,1.2-0.3,1.6-0.9c0.4-0.6,0.7-1.9,0.7-3.8c0-1.9-0.2-3.1-0.7-3.8
			c-0.4-0.6-1-0.9-1.6-0.9c-0.6,0-1.2,0.3-1.5,0.8C485.4-147.3,485.2-146,485.2-144.1z"/>
	</g>
</g>
<g id="XMLID_29_">
	<rect id="XMLID_31_" x="530.2" y="-158.7" class="st0" width="66.2" height="66.2"/>
	<g id="XMLID_30_">
		<path id="XMLID_356_" class="st1" d="M545.5-138.4v-2.7h-5v-1.3l5.2-7.4h1.1v7.4h1.5v1.3h-1.5v2.7H545.5z M545.5-142.5v-5.2
			l-3.6,5.2H545.5z"/>
	</g>
</g>
<g id="XMLID_26_">
	<rect id="XMLID_28_" x="596.4" y="-158.7" class="st0" width="66.2" height="66.2"/>
	<g id="XMLID_27_">
		<path id="XMLID_351_" class="st1" d="M612.5-138.4h-1.4v-9c-0.3,0.3-0.8,0.6-1.3,1c-0.5,0.3-1,0.6-1.5,0.7v-1.4
			c0.8-0.4,1.5-0.8,2.1-1.3c0.6-0.5,1-1,1.3-1.5h0.9V-138.4z"/>
		<path id="XMLID_353_" class="st1" d="M616.1-144.1c0-1.4,0.1-2.4,0.4-3.3c0.3-0.8,0.7-1.5,1.2-1.9c0.5-0.4,1.2-0.7,2.1-0.7
			c0.6,0,1.2,0.1,1.6,0.4c0.5,0.2,0.8,0.6,1.1,1.1c0.3,0.5,0.5,1,0.7,1.7c0.2,0.7,0.3,1.6,0.3,2.7c0,1.3-0.1,2.4-0.4,3.3
			c-0.3,0.8-0.7,1.5-1.2,1.9c-0.5,0.5-1.2,0.7-2.1,0.7c-1.1,0-2-0.4-2.6-1.2C616.5-140.4,616.1-141.9,616.1-144.1z M617.6-144.1
			c0,1.9,0.2,3.1,0.7,3.8c0.4,0.6,1,0.9,1.6,0.9s1.2-0.3,1.6-0.9s0.7-1.9,0.7-3.8c0-1.9-0.2-3.1-0.7-3.8c-0.4-0.6-1-0.9-1.6-0.9
			c-0.6,0-1.2,0.3-1.5,0.8C617.8-147.3,617.6-146,617.6-144.1z"/>
	</g>
</g>
<g id="XMLID_59_">
	<rect id="XMLID_61_" x="0.5" y="0.5" class="st0" width="66.2" height="66.2"/>
	<g id="XMLID_60_">
		<path id="XMLID_349_" class="st1" d="M18.7,19.4v1.4h-7.6c0-0.3,0-0.7,0.2-1c0.2-0.5,0.5-1,0.9-1.5c0.4-0.5,1-1.1,1.8-1.7
			c1.2-1,2.1-1.8,2.5-2.4c0.4-0.6,0.7-1.2,0.7-1.7c0-0.6-0.2-1-0.6-1.4s-0.9-0.6-1.6-0.6c-0.7,0-1.2,0.2-1.6,0.6s-0.6,1-0.6,1.7
			l-1.4-0.1c0.1-1.1,0.5-1.9,1.1-2.5c0.6-0.6,1.5-0.8,2.6-0.8c1.1,0,2,0.3,2.6,0.9s1,1.4,1,2.3c0,0.5-0.1,0.9-0.3,1.4
			c-0.2,0.4-0.5,0.9-0.9,1.4c-0.4,0.5-1.2,1.2-2.2,2c-0.8,0.7-1.4,1.2-1.6,1.4c-0.2,0.3-0.4,0.5-0.6,0.8H18.7z"/>
	</g>
</g>
<g id="XMLID_56_">
	<rect id="XMLID_58_" x="66.7" y="0.5" class="st0" width="66.2" height="66.2"/>
	<g id="XMLID_57_">
		<path id="XMLID_346_" class="st1" d="M82,20.8V18h-5v-1.3l5.2-7.4h1.1v7.4H85V18h-1.5v2.7H82z M82,16.7v-5.2l-3.6,5.2H82z"/>
	</g>
</g>
<g id="XMLID_50_">
	<rect id="XMLID_52_" x="199.1" y="0.5" class="st0" width="66.2" height="66.2"/>
	<g id="XMLID_51_">
		<path id="XMLID_342_" class="st1" d="M215.2,20.8h-1.4v-9c-0.3,0.3-0.8,0.6-1.3,1c-0.5,0.3-1,0.6-1.5,0.7v-1.4
			c0.8-0.4,1.5-0.8,2.1-1.3c0.6-0.5,1-1,1.3-1.5h0.9V20.8z"/>
		<path id="XMLID_344_" class="st1" d="M226.2,19.4v1.4h-7.6c0-0.3,0-0.7,0.2-1c0.2-0.5,0.5-1,0.9-1.5c0.4-0.5,1-1.1,1.8-1.7
			c1.2-1,2.1-1.8,2.5-2.4c0.4-0.6,0.7-1.2,0.7-1.7c0-0.6-0.2-1-0.6-1.4s-0.9-0.6-1.6-0.6c-0.7,0-1.2,0.2-1.6,0.6s-0.6,1-0.6,1.7
			l-1.4-0.1c0.1-1.1,0.5-1.9,1.1-2.5c0.6-0.6,1.5-0.8,2.6-0.8c1.1,0,2,0.3,2.6,0.9s1,1.4,1,2.3c0,0.5-0.1,0.9-0.3,1.4
			c-0.2,0.4-0.5,0.9-0.9,1.4c-0.4,0.5-1.2,1.2-2.2,2c-0.8,0.7-1.4,1.2-1.6,1.4c-0.2,0.3-0.4,0.5-0.6,0.8H226.2z"/>
	</g>
</g>
<g id="XMLID_47_">
	<rect id="XMLID_49_" x="265.4" y="0.5" class="st0" width="66.2" height="66.2"/>
	<g id="XMLID_48_">
		<path id="XMLID_337_" class="st1" d="M281.5,20.8h-1.4v-9c-0.3,0.3-0.8,0.6-1.3,1c-0.5,0.3-1,0.6-1.5,0.7v-1.4
			c0.8-0.4,1.5-0.8,2.1-1.3c0.6-0.5,1-1,1.3-1.5h0.9V20.8z"/>
		<path id="XMLID_339_" class="st1" d="M285.1,15.1c0-1.4,0.1-2.4,0.4-3.3c0.3-0.8,0.7-1.5,1.2-1.9c0.5-0.4,1.2-0.7,2.1-0.7
			c0.6,0,1.2,0.1,1.6,0.4c0.5,0.2,0.8,0.6,1.1,1.1c0.3,0.5,0.5,1,0.7,1.7c0.2,0.7,0.3,1.6,0.3,2.7c0,1.3-0.1,2.4-0.4,3.3
			c-0.3,0.8-0.7,1.5-1.2,1.9c-0.5,0.5-1.2,0.7-2.1,0.7c-1.1,0-2-0.4-2.6-1.2C285.4,18.8,285.1,17.3,285.1,15.1z M286.5,15.1
			c0,1.9,0.2,3.1,0.7,3.8c0.4,0.6,1,0.9,1.6,0.9s1.2-0.3,1.6-0.9s0.7-1.9,0.7-3.7c0-1.9-0.2-3.1-0.7-3.8c-0.4-0.6-1-0.9-1.6-0.9
			c-0.6,0-1.2,0.3-1.5,0.8C286.7,12,286.5,13.2,286.5,15.1z"/>
	</g>
</g>
<g id="XMLID_44_">
	<rect id="XMLID_46_" x="331.6" y="0.5" class="st0" width="66.2" height="66.2"/>
	<g id="XMLID_45_">
		<path id="XMLID_335_" class="st1" d="M347.7,20.8h-1.4v-9c-0.3,0.3-0.8,0.6-1.3,1c-0.5,0.3-1,0.6-1.5,0.7v-1.4
			c0.8-0.4,1.5-0.8,2.1-1.3c0.6-0.5,1-1,1.3-1.5h0.9V20.8z"/>
	</g>
</g>
<g id="XMLID_41_">
	<rect id="XMLID_43_" x="397.8" y="0.5" class="st0" width="66.2" height="66.2"/>
	<g id="XMLID_42_">
		<path id="XMLID_333_" class="st1" d="M413.9,20.8h-1.4v-9c-0.3,0.3-0.8,0.6-1.3,1c-0.5,0.3-1,0.6-1.5,0.7v-1.4
			c0.8-0.4,1.5-0.8,2.1-1.3c0.6-0.5,1-1,1.3-1.5h0.9V20.8z"/>
	</g>
</g>
<g id="XMLID_38_">
	<rect id="XMLID_40_" x="464" y="0.5" class="st0" width="66.2" height="66.2"/>
	<g id="XMLID_39_">
		<path id="XMLID_328_" class="st1" d="M482.2,19.4v1.4h-7.6c0-0.3,0-0.7,0.2-1c0.2-0.5,0.5-1,0.9-1.5c0.4-0.5,1-1.1,1.8-1.7
			c1.2-1,2.1-1.8,2.5-2.4c0.4-0.6,0.7-1.2,0.7-1.7c0-0.6-0.2-1-0.6-1.4s-0.9-0.6-1.6-0.6c-0.7,0-1.2,0.2-1.6,0.6s-0.6,1-0.6,1.7
			l-1.4-0.1c0.1-1.1,0.5-1.9,1.1-2.5c0.6-0.6,1.5-0.8,2.6-0.8c1.1,0,2,0.3,2.6,0.9s1,1.4,1,2.3c0,0.5-0.1,0.9-0.3,1.4
			c-0.2,0.4-0.5,0.9-0.9,1.4c-0.4,0.5-1.2,1.2-2.2,2c-0.8,0.7-1.4,1.2-1.6,1.4c-0.2,0.3-0.4,0.5-0.6,0.8H482.2z"/>
		<path id="XMLID_330_" class="st1" d="M483.7,15.1c0-1.4,0.1-2.4,0.4-3.3c0.3-0.8,0.7-1.5,1.2-1.9c0.5-0.4,1.2-0.7,2.1-0.7
			c0.6,0,1.2,0.1,1.6,0.4c0.5,0.2,0.8,0.6,1.1,1.1c0.3,0.5,0.5,1,0.7,1.7c0.2,0.7,0.3,1.6,0.3,2.7c0,1.3-0.1,2.4-0.4,3.3
			c-0.3,0.8-0.7,1.5-1.2,1.9c-0.5,0.5-1.2,0.7-2.1,0.7c-1.1,0-2-0.4-2.6-1.2C484.1,18.8,483.7,17.3,483.7,15.1z M485.2,15.1
			c0,1.9,0.2,3.1,0.7,3.8c0.4,0.6,1,0.9,1.6,0.9c0.6,0,1.2-0.3,1.6-0.9c0.4-0.6,0.7-1.9,0.7-3.7c0-1.9-0.2-3.1-0.7-3.8
			c-0.4-0.6-1-0.9-1.6-0.9c-0.6,0-1.2,0.3-1.5,0.8C485.4,12,485.2,13.2,485.2,15.1z"/>
	</g>
</g>
<g id="XMLID_35_">
	<rect id="XMLID_37_" x="530.2" y="0.5" class="st0" width="66.2" height="66.2"/>
	<g id="XMLID_36_">
		<path id="XMLID_325_" class="st1" d="M545.5,20.8V18h-5v-1.3l5.2-7.4h1.1v7.4h1.5V18h-1.5v2.7H545.5z M545.5,16.7v-5.2l-3.6,5.2
			H545.5z"/>
	</g>
</g>
<g id="XMLID_32_">
	<rect id="XMLID_34_" x="596.4" y="0.5" class="st0" width="66.2" height="66.2"/>
	<g id="XMLID_33_">
		<path id="XMLID_320_" class="st1" d="M612.5,20.8h-1.4v-9c-0.3,0.3-0.8,0.6-1.3,1c-0.5,0.3-1,0.6-1.5,0.7v-1.4
			c0.8-0.4,1.5-0.8,2.1-1.3c0.6-0.5,1-1,1.3-1.5h0.9V20.8z"/>
		<path id="XMLID_322_" class="st1" d="M616.1,15.1c0-1.4,0.1-2.4,0.4-3.3c0.3-0.8,0.7-1.5,1.2-1.9c0.5-0.4,1.2-0.7,2.1-0.7
			c0.6,0,1.2,0.1,1.6,0.4c0.5,0.2,0.8,0.6,1.1,1.1c0.3,0.5,0.5,1,0.7,1.7c0.2,0.7,0.3,1.6,0.3,2.7c0,1.3-0.1,2.4-0.4,3.3
			c-0.3,0.8-0.7,1.5-1.2,1.9c-0.5,0.5-1.2,0.7-2.1,0.7c-1.1,0-2-0.4-2.6-1.2C616.5,18.8,616.1,17.3,616.1,15.1z M617.6,15.1
			c0,1.9,0.2,3.1,0.7,3.8c0.4,0.6,1,0.9,1.6,0.9s1.2-0.3,1.6-0.9s0.7-1.9,0.7-3.7c0-1.9-0.2-3.1-0.7-3.8c-0.4-0.6-1-0.9-1.6-0.9
			c-0.6,0-1.2,0.3-1.5,0.8C617.8,12,617.6,13.2,617.6,15.1z"/>
	</g>
</g>
<g id="XMLID_53_">
	<rect id="XMLID_55_" x="132.9" y="0.5" class="st0" width="66.2" height="66.2"/>
	<g id="XMLID_54_">
		<path id="XMLID_316_" class="st1" d="M149,20.8h-1.4v-9c-0.3,0.3-0.8,0.6-1.3,1c-0.5,0.3-1,0.6-1.5,0.7v-1.4
			c0.8-0.4,1.5-0.8,2.1-1.3c0.6-0.5,1-1,1.3-1.5h0.9V20.8z"/>
		<path id="XMLID_318_" class="st1" d="M152.6,17.8l1.5-0.1c0.1,0.7,0.4,1.3,0.8,1.6c0.4,0.4,0.9,0.5,1.4,0.5c0.7,0,1.3-0.3,1.7-0.8
			c0.5-0.5,0.7-1.2,0.7-2c0-0.8-0.2-1.4-0.7-1.9c-0.5-0.5-1-0.7-1.8-0.7c-0.5,0-0.9,0.1-1.2,0.3c-0.4,0.2-0.7,0.5-0.9,0.8l-1.3-0.2
			l1.1-5.9h5.7v1.3h-4.6l-0.6,3.1c0.7-0.5,1.4-0.7,2.2-0.7c1,0,1.8,0.3,2.5,1c0.7,0.7,1,1.6,1,2.7c0,1-0.3,1.9-0.9,2.7
			c-0.7,0.9-1.7,1.4-3,1.4c-1,0-1.9-0.3-2.6-0.9C153.1,19.5,152.7,18.7,152.6,17.8z"/>
	</g>
</g>
<g id="XMLID_139_">
	<path id="XMLID_314_" d="M155.8,55V29.3h3.5l13.5,20.2V29.3h3.3V55h-3.5l-13.5-20.3V55H155.8z"/>
</g>
<g id="XMLID_141_">
	<path id="XMLID_311_" d="M220.2,55l9.9-25.8h3.7L244.3,55h-3.9l-3-7.8h-10.8l-2.8,7.8H220.2z M227.6,44.5h8.7l-2.7-7.1
		c-0.8-2.2-1.4-3.9-1.8-5.3c-0.3,1.7-0.8,3.3-1.4,4.9L227.6,44.5z"/>
</g>
<g id="XMLID_140_">
	<path id="XMLID_309_" d="M296.8,55V29.3h3.4V55H296.8z"/>
</g>
<g id="XMLID_142_">
	<path id="XMLID_306_" d="M484.9,42.5c0-4.3,1.1-7.6,3.4-10s5.3-3.6,8.9-3.6c2.4,0,4.5,0.6,6.4,1.7s3.4,2.7,4.4,4.8s1.5,4.3,1.5,6.9
		c0,2.6-0.5,5-1.6,7s-2.5,3.6-4.5,4.7s-4,1.6-6.3,1.6c-2.4,0-4.6-0.6-6.5-1.8s-3.4-2.8-4.3-4.8S484.9,44.7,484.9,42.5z M488.4,42.5
		c0,3.1,0.8,5.6,2.5,7.3s3.8,2.7,6.3,2.7c2.6,0,4.7-0.9,6.3-2.7s2.5-4.4,2.5-7.7c0-2.1-0.4-3.9-1.1-5.5s-1.7-2.8-3.1-3.6
		s-2.9-1.3-4.6-1.3c-2.4,0-4.5,0.8-6.2,2.5S488.4,38.7,488.4,42.5z"/>
</g>
<g id="XMLID_143_">
	<path id="XMLID_304_" d="M551.5,55l10-13.4l-8.8-12.3h4.1l4.7,6.6c1,1.4,1.7,2.4,2.1,3.2c0.6-0.9,1.3-1.9,2-2.9l5.2-6.8h3.7
		l-9.1,12.1l9.8,13.6h-4.2l-6.5-9.2c-0.4-0.5-0.7-1.1-1.1-1.7c-0.6,0.9-1,1.6-1.2,1.9l-6.5,9H551.5z"/>
</g>
<g id="XMLID_144_">
	<path id="XMLID_302_" d="M627.9,55V29.3h3.4V55H627.9z"/>
</g>
<g id="XMLID_301_">
</g>
<g id="XMLID_386_">
</g>
<g id="XMLID_387_">
</g>
<g id="XMLID_388_">
</g>
<g id="XMLID_389_">
</g>
<g id="XMLID_390_">
</g>
<g id="XMLID_391_">
</g>
<g id="XMLID_392_">
</g>
<g id="XMLID_393_">
</g>
<g id="XMLID_394_">
</g>
<g id="XMLID_395_">
</g>
<g id="XMLID_396_">
</g>
<g id="XMLID_397_">
</g>
<g id="XMLID_398_">
</g>
<g id="XMLID_399_">
</g>
</svg>
