<?xml version="1.0" encoding="utf-8"?>
<!-- Generator: Adobe Illustrator 19.0.0, SVG Export Plug-In . SVG Version: 6.00 Build 0)  -->
<svg version="1.1" id="Layer_1" xmlns="http://www.w3.org/2000/svg" xmlns:xlink="http://www.w3.org/1999/xlink" x="0px" y="0px"
	 viewBox="0 0 663.2 67.2" style="enable-background:new 0 0 663.2 67.2;" xml:space="preserve">
<style type="text/css">
	.st0{fill:#FFFFFF;stroke:#000000;stroke-miterlimit:10;}
	.st1{fill:#FF1D25;}
</style>
<g id="XMLID_3_">
	<rect id="XMLID_1_" x="0.5" y="0.5" class="st0" width="66.2" height="66.2"/>
	<g id="XMLID_2_">
		<path id="XMLID_358_" class="st1" d="M18.7,19.4v1.4h-7.6c0-0.3,0-0.7,0.2-1c0.2-0.5,0.5-1,0.9-1.5c0.4-0.5,1-1.1,1.8-1.7
			c1.2-1,2.1-1.8,2.5-2.4c0.4-0.6,0.7-1.2,0.7-1.7c0-0.6-0.2-1-0.6-1.4s-0.9-0.6-1.6-0.6c-0.7,0-1.2,0.2-1.6,0.6s-0.6,1-0.6,1.7
			l-1.4-0.1c0.1-1.1,0.5-1.9,1.1-2.5c0.6-0.6,1.5-0.8,2.6-0.8c1.1,0,2,0.3,2.6,0.9s1,1.4,1,2.3c0,0.5-0.1,0.9-0.3,1.4
			c-0.2,0.4-0.5,0.9-0.9,1.4c-0.4,0.5-1.2,1.2-2.2,2c-0.8,0.7-1.4,1.2-1.6,1.4c-0.2,0.3-0.4,0.5-0.6,0.8H18.7z"/>
	</g>
</g>
<g id="XMLID_5_">
	<rect id="XMLID_7_" x="66.7" y="0.5" class="st0" width="66.2" height="66.2"/>
	<g id="XMLID_6_">
		<path id="XMLID_355_" class="st1" d="M82,20.8V18h-5v-1.3l5.2-7.4h1.1v7.4H85V18h-1.5v2.7H82z M82,16.7v-5.2l-3.6,5.2H82z"/>
	</g>
</g>
<g id="XMLID_11_">
	<rect id="XMLID_13_" x="132.9" y="0.5" class="st0" width="66.2" height="66.2"/>
	<g id="XMLID_12_">
		<path id="XMLID_351_" class="st1" d="M149,20.8h-1.4v-9c-0.3,0.3-0.8,0.6-1.3,1c-0.5,0.3-1,0.6-1.5,0.7v-1.4
			c0.8-0.4,1.5-0.8,2.1-1.3c0.6-0.5,1-1,1.3-1.5h0.9V20.8z"/>
		<path id="XMLID_353_" class="st1" d="M152.6,17.8l1.5-0.1c0.1,0.7,0.4,1.3,0.8,1.6c0.4,0.4,0.9,0.5,1.4,0.5c0.7,0,1.3-0.3,1.7-0.8
			c0.5-0.5,0.7-1.2,0.7-2c0-0.8-0.2-1.4-0.7-1.9c-0.5-0.5-1-0.7-1.8-0.7c-0.5,0-0.9,0.1-1.2,0.3c-0.4,0.2-0.7,0.5-0.9,0.8l-1.3-0.2
			l1.1-5.9h5.7v1.3h-4.6l-0.6,3.1c0.7-0.5,1.4-0.7,2.2-0.7c1,0,1.8,0.3,2.5,1c0.7,0.7,1,1.6,1,2.7c0,1-0.3,1.9-0.9,2.7
			c-0.7,0.9-1.7,1.4-3,1.4c-1,0-1.9-0.3-2.6-0.9C153.1,19.5,152.7,18.7,152.6,17.8z"/>
	</g>
</g>
<g id="XMLID_8_">
	<rect id="XMLID_10_" x="199.1" y="0.5" class="st0" width="66.2" height="66.2"/>
	<g id="XMLID_9_">
		<path id="XMLID_347_" class="st1" d="M215.2,20.8h-1.4v-9c-0.3,0.3-0.8,0.6-1.3,1c-0.5,0.3-1,0.6-1.5,0.7v-1.4
			c0.8-0.4,1.5-0.8,2.1-1.3c0.6-0.5,1-1,1.3-1.5h0.9V20.8z"/>
		<path id="XMLID_349_" class="st1" d="M226.2,19.4v1.4h-7.6c0-0.3,0-0.7,0.2-1c0.2-0.5,0.5-1,0.9-1.5c0.4-0.5,1-1.1,1.8-1.7
			c1.2-1,2.1-1.8,2.5-2.4c0.4-0.6,0.7-1.2,0.7-1.7c0-0.6-0.2-1-0.6-1.4s-0.9-0.6-1.6-0.6c-0.7,0-1.2,0.2-1.6,0.6s-0.6,1-0.6,1.7
			l-1.4-0.1c0.1-1.1,0.5-1.9,1.1-2.5c0.6-0.6,1.5-0.8,2.6-0.8c1.1,0,2,0.3,2.6,0.9s1,1.4,1,2.3c0,0.5-0.1,0.9-0.3,1.4
			c-0.2,0.4-0.5,0.9-0.9,1.4c-0.4,0.5-1.2,1.2-2.2,2c-0.8,0.7-1.4,1.2-1.6,1.4c-0.2,0.3-0.4,0.5-0.6,0.8H226.2z"/>
	</g>
</g>
<g id="XMLID_23_">
	<rect id="XMLID_25_" x="265.4" y="0.5" class="st0" width="66.2" height="66.2"/>
	<g id="XMLID_24_">
		<path id="XMLID_342_" class="st1" d="M281.5,20.8h-1.4v-9c-0.3,0.3-0.8,0.6-1.3,1c-0.5,0.3-1,0.6-1.5,0.7v-1.4
			c0.8-0.4,1.5-0.8,2.1-1.3c0.6-0.5,1-1,1.3-1.5h0.9V20.8z"/>
		<path id="XMLID_344_" class="st1" d="M285.1,15.1c0-1.4,0.1-2.4,0.4-3.3c0.3-0.8,0.7-1.5,1.2-1.9c0.5-0.4,1.2-0.7,2.1-0.7
			c0.6,0,1.2,0.1,1.6,0.4c0.5,0.2,0.8,0.6,1.1,1.1c0.3,0.5,0.5,1,0.7,1.7c0.2,0.7,0.3,1.6,0.3,2.7c0,1.3-0.1,2.4-0.4,3.3
			c-0.3,0.8-0.7,1.5-1.2,1.9c-0.5,0.5-1.2,0.7-2.1,0.7c-1.1,0-2-0.4-2.6-1.2C285.4,18.8,285.1,17.3,285.1,15.1z M286.5,15.1
			c0,1.9,0.2,3.1,0.7,3.8c0.4,0.6,1,0.9,1.6,0.9c0.6,0,1.2-0.3,1.6-0.9c0.4-0.6,0.7-1.9,0.7-3.7c0-1.9-0.2-3.1-0.7-3.8
			c-0.4-0.6-1-0.9-1.6-0.9c-0.6,0-1.2,0.3-1.5,0.8C286.7,12,286.5,13.2,286.5,15.1z"/>
	</g>
</g>
<g id="XMLID_20_">
	<rect id="XMLID_22_" x="331.6" y="0.5" class="st0" width="66.2" height="66.2"/>
	<g id="XMLID_21_">
		<path id="XMLID_340_" class="st1" d="M347.7,20.8h-1.4v-9c-0.3,0.3-0.8,0.6-1.3,1c-0.5,0.3-1,0.6-1.5,0.7v-1.4
			c0.8-0.4,1.5-0.8,2.1-1.3c0.6-0.5,1-1,1.3-1.5h0.9V20.8z"/>
	</g>
</g>
<g id="XMLID_17_">
	<rect id="XMLID_19_" x="397.8" y="0.5" class="st0" width="66.2" height="66.2"/>
	<g id="XMLID_18_">
		<path id="XMLID_338_" class="st1" d="M413.9,20.8h-1.4v-9c-0.3,0.3-0.8,0.6-1.3,1c-0.5,0.3-1,0.6-1.5,0.7v-1.4
			c0.8-0.4,1.5-0.8,2.1-1.3c0.6-0.5,1-1,1.3-1.5h0.9V20.8z"/>
	</g>
</g>
<g id="XMLID_14_">
	<rect id="XMLID_16_" x="464" y="0.5" class="st0" width="66.2" height="66.2"/>
	<g id="XMLID_15_">
		<path id="XMLID_333_" class="st1" d="M482.2,19.4v1.4h-7.6c0-0.3,0-0.7,0.2-1c0.2-0.5,0.5-1,0.9-1.5s1-1.1,1.8-1.7
			c1.2-1,2.1-1.8,2.5-2.4c0.4-0.6,0.7-1.2,0.7-1.7c0-0.6-0.2-1-0.6-1.4s-0.9-0.6-1.6-0.6c-0.7,0-1.2,0.2-1.6,0.6s-0.6,1-0.6,1.7
			l-1.4-0.1c0.1-1.1,0.5-1.9,1.1-2.5c0.6-0.6,1.5-0.8,2.6-0.8c1.1,0,2,0.3,2.6,0.9s1,1.4,1,2.3c0,0.5-0.1,0.9-0.3,1.4
			c-0.2,0.4-0.5,0.9-0.9,1.4c-0.4,0.5-1.2,1.2-2.2,2c-0.8,0.7-1.4,1.2-1.6,1.4c-0.2,0.3-0.4,0.5-0.6,0.8H482.2z"/>
		<path id="XMLID_335_" class="st1" d="M483.7,15.1c0-1.4,0.1-2.4,0.4-3.3c0.3-0.8,0.7-1.5,1.2-1.9c0.5-0.4,1.2-0.7,2.1-0.7
			c0.6,0,1.2,0.1,1.6,0.4c0.5,0.2,0.8,0.6,1.1,1.1c0.3,0.5,0.5,1,0.7,1.7c0.2,0.7,0.3,1.6,0.3,2.7c0,1.3-0.1,2.4-0.4,3.3
			c-0.3,0.8-0.7,1.5-1.2,1.9c-0.5,0.5-1.2,0.7-2.1,0.7c-1.1,0-2-0.4-2.6-1.2C484.1,18.8,483.7,17.3,483.7,15.1z M485.2,15.1
			c0,1.9,0.2,3.1,0.7,3.8c0.4,0.6,1,0.9,1.6,0.9s1.2-0.3,1.6-0.9s0.7-1.9,0.7-3.7c0-1.9-0.2-3.1-0.7-3.8c-0.4-0.6-1-0.9-1.6-0.9
			c-0.6,0-1.2,0.3-1.5,0.8C485.4,12,485.2,13.2,485.2,15.1z"/>
	</g>
</g>
<g id="XMLID_29_">
	<rect id="XMLID_31_" x="530.2" y="0.5" class="st0" width="66.2" height="66.2"/>
	<g id="XMLID_30_">
		<path id="XMLID_330_" class="st1" d="M545.5,20.8V18h-5v-1.3l5.2-7.4h1.1v7.4h1.5V18h-1.5v2.7H545.5z M545.5,16.7v-5.2l-3.6,5.2
			H545.5z"/>
	</g>
</g>
<g id="XMLID_26_">
	<rect id="XMLID_28_" x="596.4" y="0.5" class="st0" width="66.2" height="66.2"/>
	<g id="XMLID_27_">
		<path id="XMLID_325_" class="st1" d="M612.5,20.8h-1.4v-9c-0.3,0.3-0.8,0.6-1.3,1c-0.5,0.3-1,0.6-1.5,0.7v-1.4
			c0.8-0.4,1.5-0.8,2.1-1.3c0.6-0.5,1-1,1.3-1.5h0.9V20.8z"/>
		<path id="XMLID_327_" class="st1" d="M616.1,15.1c0-1.4,0.1-2.4,0.4-3.3c0.3-0.8,0.7-1.5,1.2-1.9c0.5-0.4,1.2-0.7,2.1-0.7
			c0.6,0,1.2,0.1,1.6,0.4c0.5,0.2,0.8,0.6,1.1,1.1c0.3,0.5,0.5,1,0.7,1.7c0.2,0.7,0.3,1.6,0.3,2.7c0,1.3-0.1,2.4-0.4,3.3
			c-0.3,0.8-0.7,1.5-1.2,1.9c-0.5,0.5-1.2,0.7-2.1,0.7c-1.1,0-2-0.4-2.6-1.2C616.5,18.8,616.1,17.3,616.1,15.1z M617.6,15.1
			c0,1.9,0.2,3.1,0.7,3.8c0.4,0.6,1,0.9,1.6,0.9s1.2-0.3,1.6-0.9s0.7-1.9,0.7-3.7c0-1.9-0.2-3.1-0.7-3.8c-0.4-0.6-1-0.9-1.6-0.9
			c-0.6,0-1.2,0.3-1.5,0.8C617.8,12,617.6,13.2,617.6,15.1z"/>
	</g>
</g>
<g id="XMLID_59_">
	<rect id="XMLID_61_" x="193" y="201.5" class="st0" width="66.2" height="66.2"/>
	<g id="XMLID_60_">
		<path id="XMLID_323_" class="st1" d="M211.2,220.4v1.4h-7.6c0-0.3,0-0.7,0.2-1c0.2-0.5,0.5-1,0.9-1.5c0.4-0.5,1-1.1,1.8-1.7
			c1.2-1,2.1-1.8,2.5-2.4c0.4-0.6,0.7-1.2,0.7-1.7c0-0.6-0.2-1-0.6-1.4s-0.9-0.6-1.6-0.6c-0.7,0-1.2,0.2-1.6,0.6s-0.6,1-0.6,1.7
			l-1.4-0.1c0.1-1.1,0.5-1.9,1.1-2.5c0.6-0.6,1.5-0.8,2.6-0.8c1.1,0,2,0.3,2.6,0.9s1,1.4,1,2.3c0,0.5-0.1,0.9-0.3,1.4
			c-0.2,0.4-0.5,0.9-0.9,1.4c-0.4,0.5-1.2,1.2-2.2,2c-0.8,0.7-1.4,1.2-1.6,1.4c-0.2,0.3-0.4,0.5-0.6,0.8H211.2z"/>
	</g>
</g>
<g id="XMLID_56_">
	<rect id="XMLID_58_" x="259.3" y="201.5" class="st0" width="66.2" height="66.2"/>
	<g id="XMLID_57_">
		<path id="XMLID_320_" class="st1" d="M274.6,221.8V219h-5v-1.3l5.2-7.4h1.1v7.4h1.5v1.3H276v2.7H274.6z M274.6,217.7v-5.2
			l-3.6,5.2H274.6z"/>
	</g>
</g>
<g id="XMLID_50_">
	<rect id="XMLID_52_" x="391.7" y="201.5" class="st0" width="66.2" height="66.2"/>
	<g id="XMLID_51_">
		<path id="XMLID_316_" class="st1" d="M407.8,221.8h-1.4v-9c-0.3,0.3-0.8,0.6-1.3,1c-0.5,0.3-1,0.6-1.5,0.7v-1.4
			c0.8-0.4,1.5-0.8,2.1-1.3c0.6-0.5,1-1,1.3-1.5h0.9V221.8z"/>
		<path id="XMLID_318_" class="st1" d="M418.8,220.4v1.4h-7.6c0-0.3,0-0.7,0.2-1c0.2-0.5,0.5-1,0.9-1.5c0.4-0.5,1-1.1,1.8-1.7
			c1.2-1,2.1-1.8,2.5-2.4c0.4-0.6,0.7-1.2,0.7-1.7c0-0.6-0.2-1-0.6-1.4s-0.9-0.6-1.6-0.6c-0.7,0-1.2,0.2-1.6,0.6s-0.6,1-0.6,1.7
			l-1.4-0.1c0.1-1.1,0.5-1.9,1.1-2.5c0.6-0.6,1.5-0.8,2.6-0.8c1.1,0,2,0.3,2.6,0.9s1,1.4,1,2.3c0,0.5-0.1,0.9-0.3,1.4
			c-0.2,0.4-0.5,0.9-0.9,1.4c-0.4,0.5-1.2,1.2-2.2,2c-0.8,0.7-1.4,1.2-1.6,1.4c-0.2,0.3-0.4,0.5-0.6,0.8H418.8z"/>
	</g>
</g>
<g id="XMLID_47_">
	<rect id="XMLID_49_" x="457.9" y="201.5" class="st0" width="66.2" height="66.2"/>
	<g id="XMLID_48_">
		<path id="XMLID_311_" class="st1" d="M474,221.8h-1.4v-9c-0.3,0.3-0.8,0.6-1.3,1c-0.5,0.3-1,0.6-1.5,0.7v-1.4
			c0.8-0.4,1.5-0.8,2.1-1.3c0.6-0.5,1-1,1.3-1.5h0.9V221.8z"/>
		<path id="XMLID_313_" class="st1" d="M477.6,216.1c0-1.4,0.1-2.4,0.4-3.3c0.3-0.8,0.7-1.5,1.2-1.9c0.5-0.4,1.2-0.7,2.1-0.7
			c0.6,0,1.2,0.1,1.6,0.4c0.5,0.2,0.8,0.6,1.1,1.1c0.3,0.5,0.5,1,0.7,1.7c0.2,0.7,0.3,1.6,0.3,2.7c0,1.3-0.1,2.4-0.4,3.3
			c-0.3,0.8-0.7,1.5-1.2,1.9c-0.5,0.5-1.2,0.7-2.1,0.7c-1.1,0-2-0.4-2.6-1.2C478,219.8,477.6,218.3,477.6,216.1z M479,216.1
			c0,1.9,0.2,3.1,0.7,3.8c0.4,0.6,1,0.9,1.6,0.9s1.2-0.3,1.6-0.9s0.7-1.9,0.7-3.8c0-1.9-0.2-3.1-0.7-3.8c-0.4-0.6-1-0.9-1.6-0.9
			c-0.6,0-1.2,0.3-1.5,0.8C479.3,212.9,479,214.2,479,216.1z"/>
	</g>
</g>
<g id="XMLID_44_">
	<rect id="XMLID_46_" x="524.1" y="201.5" class="st0" width="66.2" height="66.2"/>
	<g id="XMLID_45_">
		<path id="XMLID_309_" class="st1" d="M540.2,221.8h-1.4v-9c-0.3,0.3-0.8,0.6-1.3,1c-0.5,0.3-1,0.6-1.5,0.7v-1.4
			c0.8-0.4,1.5-0.8,2.1-1.3c0.6-0.5,1-1,1.3-1.5h0.9V221.8z"/>
	</g>
</g>
<g id="XMLID_41_">
	<rect id="XMLID_43_" x="590.3" y="201.5" class="st0" width="66.2" height="66.2"/>
	<g id="XMLID_42_">
		<path id="XMLID_307_" class="st1" d="M606.4,221.8H605v-9c-0.3,0.3-0.8,0.6-1.3,1c-0.5,0.3-1,0.6-1.5,0.7v-1.4
			c0.8-0.4,1.5-0.8,2.1-1.3c0.6-0.5,1-1,1.3-1.5h0.9V221.8z"/>
	</g>
</g>
<g id="XMLID_38_">
	<rect id="XMLID_40_" x="656.6" y="201.5" class="st0" width="66.2" height="66.2"/>
	<g id="XMLID_39_">
		<path id="XMLID_302_" class="st1" d="M674.7,220.4v1.4h-7.6c0-0.3,0-0.7,0.2-1c0.2-0.5,0.5-1,0.9-1.5c0.4-0.5,1-1.1,1.8-1.7
			c1.2-1,2.1-1.8,2.5-2.4c0.4-0.6,0.7-1.2,0.7-1.7c0-0.6-0.2-1-0.6-1.4s-0.9-0.6-1.6-0.6c-0.7,0-1.2,0.2-1.6,0.6s-0.6,1-0.6,1.7
			l-1.4-0.1c0.1-1.1,0.5-1.9,1.1-2.5c0.6-0.6,1.5-0.8,2.6-0.8c1.1,0,2,0.3,2.6,0.9s1,1.4,1,2.3c0,0.5-0.1,0.9-0.3,1.4
			c-0.2,0.4-0.5,0.9-0.9,1.4c-0.4,0.5-1.2,1.2-2.2,2c-0.8,0.7-1.4,1.2-1.6,1.4c-0.2,0.3-0.4,0.5-0.6,0.8H674.7z"/>
		<path id="XMLID_304_" class="st1" d="M676.2,216.1c0-1.4,0.1-2.4,0.4-3.3c0.3-0.8,0.7-1.5,1.2-1.9c0.5-0.4,1.2-0.7,2.1-0.7
			c0.6,0,1.2,0.1,1.6,0.4c0.5,0.2,0.8,0.6,1.1,1.1c0.3,0.5,0.5,1,0.7,1.7c0.2,0.7,0.3,1.6,0.3,2.7c0,1.3-0.1,2.4-0.4,3.3
			c-0.3,0.8-0.7,1.5-1.2,1.9c-0.5,0.5-1.2,0.7-2.1,0.7c-1.1,0-2-0.4-2.6-1.2C676.6,219.8,676.2,218.3,676.2,216.1z M677.7,216.1
			c0,1.9,0.2,3.1,0.7,3.8c0.4,0.6,1,0.9,1.6,0.9c0.6,0,1.2-0.3,1.6-0.9c0.4-0.6,0.7-1.9,0.7-3.8c0-1.9-0.2-3.1-0.7-3.8
			c-0.4-0.6-1-0.9-1.6-0.9c-0.6,0-1.2,0.3-1.5,0.8C677.9,212.9,677.7,214.2,677.7,216.1z"/>
	</g>
</g>
<g id="XMLID_35_">
	<rect id="XMLID_37_" x="722.8" y="201.5" class="st0" width="66.2" height="66.2"/>
	<g id="XMLID_36_">
		<path id="XMLID_299_" class="st1" d="M738.1,221.8V219h-5v-1.3l5.2-7.4h1.1v7.4h1.5v1.3h-1.5v2.7H738.1z M738.1,217.7v-5.2
			l-3.6,5.2H738.1z"/>
	</g>
</g>
<g id="XMLID_32_">
	<rect id="XMLID_34_" x="789" y="201.5" class="st0" width="66.2" height="66.2"/>
	<g id="XMLID_33_">
		<path id="XMLID_294_" class="st1" d="M805.1,221.8h-1.4v-9c-0.3,0.3-0.8,0.6-1.3,1c-0.5,0.3-1,0.6-1.5,0.7v-1.4
			c0.8-0.4,1.5-0.8,2.1-1.3c0.6-0.5,1-1,1.3-1.5h0.9V221.8z"/>
		<path id="XMLID_296_" class="st1" d="M808.7,216.1c0-1.4,0.1-2.4,0.4-3.3c0.3-0.8,0.7-1.5,1.2-1.9c0.5-0.4,1.2-0.7,2.1-0.7
			c0.6,0,1.2,0.1,1.6,0.4c0.5,0.2,0.8,0.6,1.1,1.1c0.3,0.5,0.5,1,0.7,1.7c0.2,0.7,0.3,1.6,0.3,2.7c0,1.3-0.1,2.4-0.4,3.3
			c-0.3,0.8-0.7,1.5-1.2,1.9c-0.5,0.5-1.2,0.7-2.1,0.7c-1.1,0-2-0.4-2.6-1.2C809.1,219.8,808.7,218.3,808.7,216.1z M810.1,216.1
			c0,1.9,0.2,3.1,0.7,3.8c0.4,0.6,1,0.9,1.6,0.9s1.2-0.3,1.6-0.9s0.7-1.9,0.7-3.8c0-1.9-0.2-3.1-0.7-3.8c-0.4-0.6-1-0.9-1.6-0.9
			c-0.6,0-1.2,0.3-1.5,0.8C810.4,212.9,810.1,214.2,810.1,216.1z"/>
	</g>
</g>
<g id="XMLID_53_">
	<rect id="XMLID_55_" x="325.5" y="201.5" class="st0" width="66.2" height="66.2"/>
	<g id="XMLID_54_">
		<path id="XMLID_290_" class="st1" d="M341.6,221.8h-1.4v-9c-0.3,0.3-0.8,0.6-1.3,1c-0.5,0.3-1,0.6-1.5,0.7v-1.4
			c0.8-0.4,1.5-0.8,2.1-1.3c0.6-0.5,1-1,1.3-1.5h0.9V221.8z"/>
		<path id="XMLID_292_" class="st1" d="M345.2,218.8l1.5-0.1c0.1,0.7,0.4,1.3,0.8,1.6c0.4,0.4,0.9,0.5,1.4,0.5
			c0.7,0,1.3-0.3,1.7-0.8c0.5-0.5,0.7-1.2,0.7-2c0-0.8-0.2-1.4-0.7-1.9c-0.5-0.5-1-0.7-1.8-0.7c-0.5,0-0.9,0.1-1.2,0.3
			c-0.4,0.2-0.7,0.5-0.9,0.8l-1.3-0.2l1.1-5.9h5.7v1.3h-4.6l-0.6,3.1c0.7-0.5,1.4-0.7,2.2-0.7c1,0,1.8,0.3,2.5,1
			c0.7,0.7,1,1.6,1,2.7c0,1-0.3,1.9-0.9,2.7c-0.7,0.9-1.7,1.4-3,1.4c-1,0-1.9-0.3-2.6-0.9C345.6,220.5,345.3,219.7,345.2,218.8z"/>
	</g>
</g>
<g id="XMLID_139_">
	<path id="XMLID_288_" d="M348.3,256v-25.8h3.5l13.5,20.2v-20.2h3.3V256h-3.5l-13.5-20.3V256H348.3z"/>
</g>
<g id="XMLID_141_">
	<path id="XMLID_285_" d="M412.7,256l9.9-25.8h3.7l10.5,25.8H433l-3-7.8h-10.8l-2.8,7.8H412.7z M420.2,245.4h8.7l-2.7-7.1
		c-0.8-2.2-1.4-3.9-1.8-5.3c-0.3,1.7-0.8,3.3-1.4,4.9L420.2,245.4z"/>
</g>
<g id="XMLID_140_">
	<path id="XMLID_283_" d="M489.4,256v-25.8h3.4V256H489.4z"/>
</g>
<g id="XMLID_142_">
	<path id="XMLID_280_" d="M677.4,243.5c0-4.3,1.1-7.6,3.4-10s5.3-3.6,8.9-3.6c2.4,0,4.5,0.6,6.4,1.7s3.4,2.7,4.4,4.8
		s1.5,4.3,1.5,6.9c0,2.6-0.5,5-1.6,7s-2.5,3.6-4.5,4.7s-4,1.6-6.3,1.6c-2.4,0-4.6-0.6-6.5-1.8s-3.4-2.8-4.3-4.8
		S677.4,245.7,677.4,243.5z M680.9,243.5c0,3.1,0.8,5.6,2.5,7.3s3.8,2.7,6.3,2.7c2.6,0,4.7-0.9,6.3-2.7s2.5-4.4,2.5-7.7
		c0-2.1-0.4-3.9-1.1-5.5s-1.7-2.8-3.1-3.6s-2.9-1.3-4.6-1.3c-2.4,0-4.5,0.8-6.2,2.5S680.9,239.6,680.9,243.5z"/>
</g>
<g id="XMLID_143_">
	<path id="XMLID_278_" d="M744,256l10-13.4l-8.8-12.3h4.1l4.7,6.6c1,1.4,1.7,2.4,2.1,3.2c0.6-0.9,1.3-1.9,2-2.9l5.2-6.8h3.7
		l-9.1,12.1l9.8,13.6h-4.2l-6.5-9.2c-0.4-0.5-0.7-1.1-1.1-1.7c-0.6,0.9-1,1.6-1.2,1.9l-6.5,9H744z"/>
</g>
<g id="XMLID_144_">
	<path id="XMLID_276_" d="M820.4,256v-25.8h3.4V256H820.4z"/>
</g>
<g id="XMLID_275_">
</g>
<g id="XMLID_360_">
</g>
<g id="XMLID_361_">
</g>
<g id="XMLID_362_">
</g>
<g id="XMLID_363_">
</g>
<g id="XMLID_364_">
</g>
<g id="XMLID_365_">
</g>
<g id="XMLID_366_">
</g>
<g id="XMLID_367_">
</g>
<g id="XMLID_368_">
</g>
<g id="XMLID_369_">
</g>
<g id="XMLID_370_">
</g>
<g id="XMLID_371_">
</g>
<g id="XMLID_372_">
</g>
<g id="XMLID_373_">
</g>
</svg>
