<svg width="1474" height="113" xmlns="http://www.w3.org/2000/svg" xmlns:xlink="http://www.w3.org/1999/xlink" overflow="hidden"><defs><clipPath id="clip0"><rect x="0" y="0" width="1474" height="113"/></clipPath></defs><g clip-path="url(#clip0)"><rect x="0" y="0" width="1474" height="112.668" fill="#FFFFFF"/><path d="M128 27.9176 128 42.8735 89 42.8735 89 27.9176" stroke="#000000" stroke-width="4" stroke-miterlimit="8" fill="none" fill-rule="evenodd"/><text font-family="Cambria Math,Cambria Math_MSFontService,sans-serif" font-weight="400" font-size="24" transform="matrix(1 0 0 0.997059 101.855 28)">𝑎<tspan font-size="24" x="121.927" y="0">𝑀</tspan><tspan font-size="18" x="140.467" y="5.01475">1</tspan><tspan font-size="24" x="-83.1082" y="7.02065">𝑀</tspan><tspan font-size="18" x="-64.5682" y="12.0354">1</tspan><tspan font-size="18" x="-62.0215" y="-2.0059">′</tspan><tspan font-size="24" x="-46.7415" y="7.02065">=</tspan></text><path d="M324 27.9176 324 42.8735 146 42.8735 146 27.9176" stroke="#000000" stroke-width="4" stroke-miterlimit="8" fill="none" fill-rule="evenodd"/><path d="M128 83.7529 128 98.7088 89 98.7088 89 83.7529" stroke="#000000" stroke-width="4" stroke-miterlimit="8" fill="none" fill-rule="evenodd"/><text font-family="Cambria Math,Cambria Math_MSFontService,sans-serif" font-weight="400" font-size="24" transform="matrix(1 0 0 0.997059 101.855 83)">𝑎<tspan font-size="24" x="121.647" y="0">𝑀</tspan><tspan font-size="18" x="140.74" y="5.01475">2</tspan><tspan font-size="24" x="-83.3815" y="7.02065">𝑀</tspan><tspan font-size="18" x="-64.2882" y="13.0383">2</tspan><tspan font-size="18" x="-62.2949" y="-2.0059">′</tspan><tspan font-size="24" x="-46.4615" y="7.02065">=</tspan></text><path d="M324 83.7529 324 98.7088 146 98.7088 146 83.7529" stroke="#000000" stroke-width="4" stroke-miterlimit="8" fill="none" fill-rule="evenodd"/><text font-family="Cambria Math,Cambria Math_MSFontService,sans-serif" font-weight="400" font-size="43" transform="matrix(1 0 0 0.997059 399.594 75)">⟹<tspan font-size="24" x="-34.3921" y="-47.1386">𝑎</tspan><tspan font-size="24" x="-20.4721" y="-47.1386">𝑀</tspan><tspan font-size="18" x="-1.93213" y="-42.1239">1</tspan><tspan font-size="24" x="15.8946" y="-47.1386">=</tspan><tspan font-size="24" x="40.5612" y="-47.1386">𝑎</tspan><tspan font-size="24" x="54.4812" y="-47.1386">𝑀</tspan><tspan font-size="18" x="73.5746" y="-42.1239">2</tspan></text><path d="M81.4863 3.1137 88.2397 3.1137 91.7802 3.1137 94.9865 3.1137 98.5336 3.1137 101.733 3.1137 105.28 3.1137 108.48 3.1137 112.027 3.1137 115.227 3.1137 118.774 3.1137 125.521 3.1137 125.521 4.35223 118.774 4.35223 115.227 4.35223 112.027 4.35223 108.48 4.35223 105.28 4.35223 101.733 4.35223 98.5336 4.35223 94.9865 4.35223 91.7802 4.35223 88.2397 4.35223 81.4863 4.35223Z" fill-rule="evenodd" transform="matrix(1.00295 0 0 1 358.436 5.56919)"/><path d="M560 35.8941 560 49.8529 521 49.8529 521 35.8941" stroke="#000000" stroke-width="4" stroke-miterlimit="8" fill="none" fill-rule="evenodd"/><text font-family="Cambria Math,Cambria Math_MSFontService,sans-serif" font-weight="400" font-size="24" transform="matrix(1 0 0 0.997059 533.874 35)">𝑎<tspan font-size="24" x="121.927" y="0">𝑀</tspan><tspan font-size="18" x="140.467" y="5.01475">1</tspan></text><path d="M756 35.8941 756 49.8529 578 49.8529 578 35.8941" stroke="#000000" stroke-width="4" stroke-miterlimit="8" fill="none" fill-rule="evenodd"/><path d="M756 92.7265 756 106.685 717 106.685 717 92.7265" stroke="#000000" stroke-width="4" stroke-miterlimit="8" fill="none" fill-rule="evenodd"/><text font-family="Cambria Math,Cambria Math_MSFontService,sans-serif" font-weight="400" font-size="24" transform="matrix(1 0 0 0.997059 729.808 91)">𝑎</text><path d="M10.3242-14.0273 0-14.0273 0-15.2695 10.3242-15.2695Z" transform="matrix(1 0 0 0.997059 732.521 91)"/><text font-family="Cambria Math,Cambria Math_MSFontService,sans-serif" font-weight="400" font-size="24" transform="matrix(1 0 0 0.997059 598.924 90)">𝑀<tspan font-size="18" x="19.0933" y="5.01475">2</tspan></text><path d="M0.126295 3.1137 6.74677 3.1137 10.4201 3.1137 13.3672 3.1137 17.0406 3.1137 19.9877 3.1137 23.6611 3.1137 30.2816 3.1137 30.2816 4.35223 23.6611 4.35223 19.9877 4.35223 17.0406 4.35223 13.3672 4.35223 10.4201 4.35223 6.74677 4.35223 0.126295 4.35223Z" fill-rule="evenodd" transform="matrix(1.00295 0 0 1 598.804 67.5669)"/><path d="M700 91.7294 700 105.688 521 105.688 521 91.7294" stroke="#000000" stroke-width="4" stroke-miterlimit="8" fill="none" fill-rule="evenodd"/><text font-family="Cambria Math,Cambria Math_MSFontService,sans-serif" font-weight="400" font-size="43" transform="matrix(1 0 0 0.997059 778.545 75)">⟹</text><path d="M890 34.8971 890 48.8559 851 48.8559 851 34.8971" stroke="#000000" stroke-width="4" stroke-miterlimit="8" fill="none" fill-rule="evenodd"/><text font-family="Cambria Math,Cambria Math_MSFontService,sans-serif" font-weight="400" font-size="24" transform="matrix(1 0 0 0.997059 863.228 34)">𝑎<tspan font-size="24" x="121.927" y="0">𝑀</tspan><tspan font-size="18" x="140.467" y="5.01475">1</tspan></text><path d="M1086 34.8971 1086 48.8559 907 48.8559 907 34.8971" stroke="#000000" stroke-width="4" stroke-miterlimit="8" fill="none" fill-rule="evenodd"/><path d="M1086 91.7294 1086 105.688 1047 105.688 1047 91.7294" stroke="#000000" stroke-width="4" stroke-miterlimit="8" fill="none" fill-rule="evenodd"/><text font-family="Cambria Math,Cambria Math_MSFontService,sans-serif" font-weight="400" font-size="24" transform="matrix(1 0 0 0.997059 1059.16 90)">𝑎</text><path d="M10.3242-14.0273 0-14.0273 0-15.2695 10.3242-15.2695Z" transform="matrix(1 0 0 0.997059 1061.88 90)"/><text font-family="Cambria Math,Cambria Math_MSFontService,sans-serif" font-weight="400" font-size="24" transform="matrix(1 0 0 0.997059 928.278 89)">𝑀<tspan font-size="18" x="19.0933" y="5.01475">2</tspan></text><path d="M0.126295 3.1137 6.74677 3.1137 10.4201 3.1137 13.3672 3.1137 17.0406 3.1137 19.9877 3.1137 23.6611 3.1137 30.2816 3.1137 30.2816 4.35223 23.6611 4.35223 19.9877 4.35223 17.0406 4.35223 13.3672 4.35223 10.4201 4.35223 6.74677 4.35223 0.126295 4.35223Z" fill-rule="evenodd" transform="matrix(1.00295 0 0 1 928.158 66.6051)"/><path d="M1029 90.7324 1029 104.691 851 104.691 851 90.7324" stroke="#000000" stroke-width="4" stroke-miterlimit="8" fill="none" fill-rule="evenodd"/><path d="M890 90.7324 890 104.691 851 104.691 851 90.7324" stroke="#C00000" stroke-width="4" stroke-miterlimit="8" fill="none" fill-rule="evenodd"/><text fill="#C00000" font-family="Cambria Math,Cambria Math_MSFontService,sans-serif" font-weight="400" font-size="24" transform="matrix(1 0 0 0.997059 863.228 89)">𝑎</text><path d="M1269 35.8941 1269 50.85 1230 50.85 1230 35.8941" stroke="#000000" stroke-width="4" stroke-miterlimit="8" fill="none" fill-rule="evenodd"/><text font-family="Cambria Math,Cambria Math_MSFontService,sans-serif" font-weight="400" font-size="24" transform="matrix(1 0 0 0.997059 1242.67 36)">𝑎<tspan font-size="24" x="121.927" y="0">𝑀</tspan><tspan font-size="18" x="140.467" y="5.01475">1</tspan><tspan font-size="24" x="-83.1082" y="7.02065">𝑀</tspan><tspan font-size="18" x="-64.5681" y="12.0354">1</tspan><tspan font-size="18" x="-62.0215" y="-2.0059">′</tspan><tspan font-size="24" x="-46.7415" y="7.02065">=</tspan></text><path d="M1465 35.8941 1465 50.85 1287 50.85 1287 35.8941" stroke="#000000" stroke-width="4" stroke-miterlimit="8" fill="none" fill-rule="evenodd"/><path d="M1269 92.7265 1269 106.685 1230 106.685 1230 92.7265" stroke="#000000" stroke-width="4" stroke-miterlimit="8" fill="none" fill-rule="evenodd"/><text font-family="Cambria Math,Cambria Math_MSFontService,sans-serif" font-weight="400" font-size="24" transform="matrix(1 0 0 0.997059 1242.67 91)">𝑎<tspan font-size="24" x="121.647" y="0">𝑀</tspan><tspan font-size="18" x="140.74" y="5.01475">2</tspan><tspan font-size="24" x="-83.3815" y="7.02065">𝑀</tspan><tspan font-size="18" x="-64.2882" y="13.0383">2</tspan><tspan font-size="18" x="-62.2948" y="-2.0059">′</tspan><tspan font-size="24" x="-46.4615" y="7.02065">=</tspan></text><path d="M1465 92.7265 1465 106.685 1287 106.685 1287 92.7265" stroke="#000000" stroke-width="4" stroke-miterlimit="8" fill="none" fill-rule="evenodd"/><text font-family="Cambria Math,Cambria Math_MSFontService,sans-serif" font-weight="400" font-size="43" transform="matrix(1 0 0 0.997059 1098.72 74)">⟹</text><path d="M1465 92.7265 1465 106.685 1426 106.685 1426 92.7265" stroke="#C00000" stroke-width="4" stroke-miterlimit="8" fill="none" fill-rule="evenodd"/><text fill="#C00000" font-family="Cambria Math,Cambria Math_MSFontService,sans-serif" font-weight="400" font-size="24" transform="matrix(1 0 0 0.997059 1438.54 91)">𝑎</text><path d="M10.3242-14.0273 0-14.0273 0-15.2695 10.3242-15.2695Z" fill="#C00000" transform="matrix(1 0 0 0.997059 1441.26 91)"/><path d="M1086 34.8971 1086 48.8559 1047 48.8559 1047 34.8971" stroke="#C00000" stroke-width="4" stroke-miterlimit="8" fill="none" fill-rule="evenodd"/><text fill="#C00000" font-family="Cambria Math,Cambria Math_MSFontService,sans-serif" font-weight="400" font-size="24" transform="matrix(1 0 0 0.997059 1059.16 34)">𝑎</text><path d="M10.3242-14.0273 0-14.0273 0-15.2695 10.3242-15.2695Z" fill="#C00000" transform="matrix(1 0 0 0.997059 1061.88 34)"/><path d="M1465 34.8971 1465 49.8529 1426 49.8529 1426 34.8971" stroke="#C00000" stroke-width="4" stroke-miterlimit="8" fill="none" fill-rule="evenodd"/><text fill="#C00000" font-family="Cambria Math,Cambria Math_MSFontService,sans-serif" font-weight="400" font-size="24" transform="matrix(1 0 0 0.997059 1438.54 35)">𝑎</text><path d="M10.3242-14.0273 0-14.0273 0-15.2695 10.3242-15.2695Z" fill="#C00000" transform="matrix(1 0 0 0.997059 1441.26 35)"/></g></svg>