<svg width="1417" height="204" xmlns="http://www.w3.org/2000/svg" xmlns:xlink="http://www.w3.org/1999/xlink" overflow="hidden"><defs><clipPath id="clip0"><rect x="0" y="0" width="1417" height="204"/></clipPath></defs><g clip-path="url(#clip0)"><rect x="0" y="0" width="1417" height="203.881" fill="#FFFFFF"/><path d="M130 21.9872 130 35.9791 76 35.9791 76 21.9872" stroke="#000000" stroke-width="3.99906" stroke-miterlimit="8" fill="none" fill-rule="evenodd"/><text font-family="Cambria Math,Cambria Math_MSFontService,sans-serif" font-weight="400" font-size="24" transform="matrix(1 0 0 0.999419 95.9986 22)">𝑎<tspan font-size="24" x="85.4912" y="0">𝑀</tspan><tspan font-size="18" x="104.027" y="5.00291">1</tspan><tspan font-size="24" x="-90.7216" y="7.00407">𝑀</tspan><tspan font-size="18" x="-72.186" y="12.007">1</tspan><tspan font-size="18" x="-69.6399" y="-3.00174">′</tspan><tspan font-size="24" x="-54.3635" y="7.00407">=</tspan></text><path d="M235 21.9872 235 35.9791 143 35.9791 143 21.9872" stroke="#000000" stroke-width="3.99906" stroke-miterlimit="8" fill="none" fill-rule="evenodd"/><text font-family="Cambria Math,Cambria Math_MSFontService,sans-serif" font-weight="400" font-size="24" transform="matrix(1 0 0 0.999419 5.00371 85)">𝑀<tspan font-size="18" x="19.0888" y="5.00291">2</tspan><tspan font-size="18" x="21.0817" y="-10.0058">′</tspan><tspan font-size="24" x="36.9113" y="0">=</tspan><tspan font-size="43" x="381.032" y="-16.0093">⟹</tspan><tspan font-size="24" x="360.564" y="-63.0366">𝑀</tspan><tspan font-size="18" x="379.1" y="-57.0332">1</tspan><tspan font-size="18" x="381.646" y="-72.0419">′</tspan><tspan font-size="24" x="396.922" y="-63.0366">=</tspan><tspan font-size="24" x="421.583" y="-63.0366">𝑀</tspan><tspan font-size="18" x="440.672" y="-57.0332">2</tspan><tspan font-size="18" x="442.665" y="-72.0419">′</tspan></text><path d="M327 21.9872 327 35.9791 245 35.9791 245 21.9872" stroke="#000000" stroke-width="3.99906" stroke-miterlimit="8" fill="none" fill-rule="evenodd"/><text font-family="Cambria Math,Cambria Math_MSFontService,sans-serif" font-weight="400" font-size="24" transform="matrix(1 0 0 0.999419 278.241 21)">𝑏</text><path d="M130 71.9581 130 85.95 76 85.95 76 71.9581" stroke="#000000" stroke-width="3.99906" stroke-miterlimit="8" fill="none" fill-rule="evenodd"/><text font-family="Cambria Math,Cambria Math_MSFontService,sans-serif" font-weight="400" font-size="24" transform="matrix(1 0 0 0.999419 95.9986 72)">𝑎<tspan font-size="24" x="85.2113" y="0">𝑀</tspan><tspan font-size="18" x="104.3" y="5.00291">2</tspan></text><path d="M235 71.9581 235 85.95 143 85.95 143 71.9581" stroke="#000000" stroke-width="3.99906" stroke-miterlimit="8" fill="none" fill-rule="evenodd"/><path d="M327 70.9587 327 85.95 245 85.95 245 70.9587" stroke="#000000" stroke-width="3.99906" stroke-miterlimit="8" fill="none" fill-rule="evenodd"/><text font-family="Cambria Math,Cambria Math_MSFontService,sans-serif" font-weight="400" font-size="24" transform="matrix(1 0 0 0.999419 279.727 72)">𝑏</text><path d="M532 22.9867 532 36.9785 477 36.9785 477 22.9867" stroke="#000000" stroke-width="3.99906" stroke-miterlimit="8" fill="none" fill-rule="evenodd"/><text font-family="Cambria Math,Cambria Math_MSFontService,sans-serif" font-weight="400" font-size="24" transform="matrix(1 0 0 0.999419 497.304 23)">𝑎<tspan font-size="24" x="85.4912" y="0">𝑀</tspan><tspan font-size="18" x="104.027" y="5.00291">1</tspan></text><path d="M637 22.9867 637 36.9785 542 36.9785 542 22.9867" stroke="#000000" stroke-width="3.99906" stroke-miterlimit="8" fill="none" fill-rule="evenodd"/><path d="M728 21.9872 728 35.9791 647 35.9791 647 21.9872" stroke="#000000" stroke-width="3.99906" stroke-miterlimit="8" fill="none" fill-rule="evenodd"/><text font-family="Cambria Math,Cambria Math_MSFontService,sans-serif" font-weight="400" font-size="24" transform="matrix(1 0 0 0.999419 679.547 22)">𝑏</text><path d="M727 71.9581 727 85.95 673 85.95 673 71.9581" stroke="#000000" stroke-width="3.99906" stroke-miterlimit="8" fill="none" fill-rule="evenodd"/><text font-family="Cambria Math,Cambria Math_MSFontService,sans-serif" font-weight="400" font-size="24" transform="matrix(1 0 0 0.999419 692.875 72)">𝑎</text><path d="M10.3242-14.0273 0-14.0273 0-15.2695 10.3242-15.2695Z" transform="matrix(1 0 0 0.999419 695.588 72)"/><text font-family="Cambria Math,Cambria Math_MSFontService,sans-serif" font-weight="400" font-size="24" transform="matrix(1 0 0 0.999419 605.288 72)">𝑀<tspan font-size="18" x="19.0888" y="5.00291">2</tspan></text><path d="M0.126564 3.16024 6.76114 3.16024 10.4448 3.16024 13.3957 3.16024 17.0794 3.16024 20.0303 3.16024 23.7139 3.16024 30.3485 3.16024 30.3485 4.4017 23.7139 4.4017 20.0303 4.4017 17.0794 4.4017 13.3957 4.4017 10.4448 4.4017 6.76114 4.4017 0.126564 4.4017Z" fill-rule="evenodd" transform="matrix(1.00058 0 0 1 605.168 49.3727)"/><path d="M663 71.9581 663 85.95 567 85.95 567 71.9581" stroke="#000000" stroke-width="3.99906" stroke-miterlimit="8" fill="none" fill-rule="evenodd"/><path d="M559 71.9581 559 85.95 477 85.95 477 71.9581" stroke="#000000" stroke-width="3.99906" stroke-miterlimit="8" fill="none" fill-rule="evenodd"/><text font-family="Cambria Math,Cambria Math_MSFontService,sans-serif" font-weight="400" font-size="24" transform="matrix(1 0 0 0.999419 511.648 72)">𝑏</text><path d="M10.3242-14.0273 0-14.0273 0-15.2695 10.3242-15.2695Z" transform="matrix(1 0 0 0.999419 513.755 67)"/><text font-family="Cambria Math,Cambria Math_MSFontService,sans-serif" font-weight="400" font-size="43" transform="matrix(1 0 0 0.999419 747.096 65)">⟹</text><path d="M866 22.9867 866 36.9785 811 36.9785 811 22.9867" stroke="#000000" stroke-width="3.99906" stroke-miterlimit="8" fill="none" fill-rule="evenodd"/><text font-family="Cambria Math,Cambria Math_MSFontService,sans-serif" font-weight="400" font-size="24" transform="matrix(1 0 0 0.999419 841.812 23)">𝑎<tspan font-size="24" x="75.2824" y="0">𝑀</tspan><tspan font-size="18" x="93.8181" y="5.00291">1</tspan></text><path d="M971 22.9867 971 36.9785 876 36.9785 876 22.9867" stroke="#000000" stroke-width="3.99906" stroke-miterlimit="8" fill="none" fill-rule="evenodd"/><path d="M1062 21.9872 1062 35.9791 981 35.9791 981 21.9872" stroke="#000000" stroke-width="3.99906" stroke-miterlimit="8" fill="none" fill-rule="evenodd"/><text font-family="Cambria Math,Cambria Math_MSFontService,sans-serif" font-weight="400" font-size="24" transform="matrix(1 0 0 0.999419 1013.85 22)">𝑏</text><path d="M1061 71.9581 1061 85.95 1007 85.95 1007 71.9581" stroke="#000000" stroke-width="3.99906" stroke-miterlimit="8" fill="none" fill-rule="evenodd"/><text font-family="Cambria Math,Cambria Math_MSFontService,sans-serif" font-weight="400" font-size="24" transform="matrix(1 0 0 0.999419 1027.17 72)">𝑎</text><path d="M10.3242-14.0273 0-14.0273 0-15.2695 10.3242-15.2695Z" transform="matrix(1 0 0 0.999419 1029.89 72)"/><text font-family="Cambria Math,Cambria Math_MSFontService,sans-serif" font-weight="400" font-size="24" transform="matrix(1 0 0 0.999419 939.588 72)">𝑀<tspan font-size="18" x="19.0888" y="5.00291">2</tspan></text><path d="M0.126564 3.16024 6.76114 3.16024 10.4448 3.16024 13.3957 3.16024 17.0794 3.16024 20.0303 3.16024 23.7139 3.16024 30.3485 3.16024 30.3485 4.4017 23.7139 4.4017 20.0303 4.4017 17.0794 4.4017 13.3957 4.4017 10.4448 4.4017 6.76114 4.4017 0.126564 4.4017Z" fill-rule="evenodd" transform="matrix(1.00058 0 0 1 939.468 49.4058)"/><path d="M997 71.9581 997 85.95 902 85.95 902 71.9581" stroke="#000000" stroke-width="3.99906" stroke-miterlimit="8" fill="none" fill-rule="evenodd"/><path d="M893 71.9581 893 85.95 812 85.95 812 71.9581" stroke="#000000" stroke-width="3.99906" stroke-miterlimit="8" fill="none" fill-rule="evenodd"/><text font-family="Cambria Math,Cambria Math_MSFontService,sans-serif" font-weight="400" font-size="24" transform="matrix(1 0 0 0.999419 845.948 72)">𝑏</text><path d="M10.3242-14.0273 0-14.0273 0-15.2695 10.3242-15.2695Z" transform="matrix(1 0 0 0.999419 848.054 67)"/><path d="M832 22.9867 832 36.9785 811 36.9785 811 22.9867" stroke="#C00000" stroke-width="3.99906" stroke-miterlimit="8" fill="none" fill-rule="evenodd"/><text fill="#C00000" font-family="Cambria Math,Cambria Math_MSFontService,sans-serif" font-weight="400" font-size="24" transform="matrix(1 0 0 0.999419 814.773 26)">𝑘</text><path d="M833 71.9581 833 85.95 812 85.95 812 71.9581" stroke="#C00000" stroke-width="3.99906" stroke-miterlimit="8" fill="none" fill-rule="evenodd"/><text fill="#C00000" font-family="Cambria Math,Cambria Math_MSFontService,sans-serif" font-weight="400" font-size="24" transform="matrix(1 0 0 0.999419 815.411 75)">𝑘<tspan fill="#000000" font-size="43" x="258.112" y="-5.00291">⟹</tspan></text><path d="M1192 26.9843 1192 41.9756 1138 41.9756 1138 26.9843" stroke="#000000" stroke-width="3.99906" stroke-miterlimit="8" fill="none" fill-rule="evenodd"/><text font-family="Cambria Math,Cambria Math_MSFontService,sans-serif" font-weight="400" font-size="24" transform="matrix(1 0 0 0.999419 1168.24 28)">𝑎<tspan font-size="24" x="75.2823" y="0">𝑀</tspan><tspan font-size="18" x="93.818" y="5.00291">1</tspan></text><path d="M1297 26.9843 1297 41.9756 1202 41.9756 1202 26.9843" stroke="#000000" stroke-width="3.99906" stroke-miterlimit="8" fill="none" fill-rule="evenodd"/><path d="M1389 26.9843 1389 40.9762 1307 40.9762 1307 26.9843" stroke="#000000" stroke-width="3.99906" stroke-miterlimit="8" fill="none" fill-rule="evenodd"/><text font-family="Cambria Math,Cambria Math_MSFontService,sans-serif" font-weight="400" font-size="24" transform="matrix(1 0 0 0.999419 1340.27 27)">𝑏</text><path d="M1388 76.9553 1388 90.9471 1333 90.9471 1333 76.9553" stroke="#000000" stroke-width="3.99906" stroke-miterlimit="8" fill="none" fill-rule="evenodd"/><text font-family="Cambria Math,Cambria Math_MSFontService,sans-serif" font-weight="400" font-size="24" transform="matrix(1 0 0 0.999419 1342.8 77)">𝑎</text><path d="M10.3242-14.0273 0-14.0273 0-15.2695 10.3242-15.2695Z" transform="matrix(1 0 0 0.999419 1345.52 77)"/><text font-family="Cambria Math,Cambria Math_MSFontService,sans-serif" font-weight="400" font-size="24" transform="matrix(1 0 0 0.999419 1266.01 77)">𝑀<tspan font-size="18" x="19.0889" y="5.00291">2</tspan></text><path d="M0.126564 3.16024 6.76114 3.16024 10.4448 3.16024 13.3957 3.16024 17.0794 3.16024 20.0303 3.16024 23.7139 3.16024 30.3485 3.16024 30.3485 4.4017 23.7139 4.4017 20.0303 4.4017 17.0794 4.4017 13.3957 4.4017 10.4448 4.4017 6.76114 4.4017 0.126564 4.4017Z" fill-rule="evenodd" transform="matrix(1.00058 0 0 1 1265.89 53.8938)"/><path d="M1324 76.9553 1324 90.9471 1228 90.9471 1228 76.9553" stroke="#000000" stroke-width="3.99906" stroke-miterlimit="8" fill="none" fill-rule="evenodd"/><path d="M1219 76.9553 1219 90.9471 1138 90.9471 1138 76.9553" stroke="#000000" stroke-width="3.99906" stroke-miterlimit="8" fill="none" fill-rule="evenodd"/><text font-family="Cambria Math,Cambria Math_MSFontService,sans-serif" font-weight="400" font-size="24" transform="matrix(1 0 0 0.999419 1172.37 77)">𝑏</text><path d="M10.3242-14.0273 0-14.0273 0-15.2695 10.3242-15.2695Z" transform="matrix(1 0 0 0.999419 1174.48 72)"/><path d="M1159 26.9843 1159 41.9756 1138 41.9756 1138 26.9843" stroke="#C00000" stroke-width="3.99906" stroke-miterlimit="8" fill="none" fill-rule="evenodd"/><text fill="#C00000" font-family="Cambria Math,Cambria Math_MSFontService,sans-serif" font-weight="400" font-size="24" transform="matrix(1 0 0 0.999419 1141.2 31)">𝑘</text><path d="M1159 76.9553 1159 90.9471 1138 90.9471 1138 76.9553" stroke="#C00000" stroke-width="3.99906" stroke-miterlimit="8" fill="none" fill-rule="evenodd"/><text fill="#C00000" font-family="Cambria Math,Cambria Math_MSFontService,sans-serif" font-weight="400" font-size="24" transform="matrix(1 0 0 0.999419 1141.84 80)">𝑘</text><path d="M1389 26.9843 1389 40.9762 1368 40.9762 1368 26.9843" stroke="#C00000" stroke-width="3.99906" stroke-miterlimit="8" fill="none" fill-rule="evenodd"/><text fill="#C00000" font-family="Cambria Math,Cambria Math_MSFontService,sans-serif" font-weight="400" font-size="24" transform="matrix(1 0 0 0.999419 1371.32 30)">𝑘</text><path d="M1388 76.9553 1388 90.9471 1367 90.9471 1367 76.9553" stroke="#C00000" stroke-width="3.99906" stroke-miterlimit="8" fill="none" fill-rule="evenodd"/><text fill="#C00000" font-family="Cambria Math,Cambria Math_MSFontService,sans-serif" font-weight="400" font-size="24" transform="matrix(1 0 0 0.999419 1370.39 80)">𝑘<tspan fill="#000000" font-size="43" x="-983.26" y="96.0558">⟹</tspan></text><path d="M506 132.923 506 146.915 479 146.915 479 132.923" stroke="#000000" stroke-width="3.99906" stroke-miterlimit="8" fill="none" fill-rule="evenodd"/><text font-family="Cambria Math,Cambria Math_MSFontService,sans-serif" font-weight="400" font-size="24" transform="matrix(1 0 0 0.999419 486.044 133)">𝑎<tspan font-size="18" x="13.9167" y="-8.00465">′</tspan><tspan font-size="24" x="71.0849" y="0">𝑀</tspan><tspan font-size="18" x="89.6206" y="5.00291">1</tspan></text><path d="M611 132.923 611 146.915 516 146.915 516 132.923" stroke="#000000" stroke-width="3.99906" stroke-miterlimit="8" fill="none" fill-rule="evenodd"/><path d="M674 132.923 674 146.915 621 146.915 621 132.923" stroke="#000000" stroke-width="3.99906" stroke-miterlimit="8" fill="none" fill-rule="evenodd"/><text font-family="Cambria Math,Cambria Math_MSFontService,sans-serif" font-weight="400" font-size="24" transform="matrix(1 0 0 0.999419 637.48 133)">𝑏<tspan font-size="18" x="13.7568" y="-8.00465">′</tspan></text><path d="M674 182.894 674 196.885 647 196.885 647 182.894" stroke="#000000" stroke-width="3.99906" stroke-miterlimit="8" fill="none" fill-rule="evenodd"/><text font-family="Cambria Math,Cambria Math_MSFontService,sans-serif" font-weight="400" font-size="24" transform="matrix(1 0 0 0.999419 654.659 183)">𝑎<tspan font-size="18" x="13.9167" y="-8.00465">′</tspan></text><path d="M13.6055-14.0273 0-14.0273 0-15.2695 13.6055-15.2695Z" transform="matrix(1 0 0 0.999419 658.398 178)"/><text font-family="Cambria Math,Cambria Math_MSFontService,sans-serif" font-weight="400" font-size="24" transform="matrix(1 0 0 0.999419 579.622 183)">𝑀<tspan font-size="18" x="19.0888" y="5.00291">2</tspan></text><path d="M0.126564 3.16024 6.76114 3.16024 10.4448 3.16024 13.3957 3.16024 17.0794 3.16024 20.0303 3.16024 23.7139 3.16024 30.3485 3.16024 30.3485 4.4017 23.7139 4.4017 20.0303 4.4017 17.0794 4.4017 13.3957 4.4017 10.4448 4.4017 6.76114 4.4017 0.126564 4.4017Z" fill-rule="evenodd" transform="matrix(1.00058 0 0 1 579.502 159.674)"/><path d="M637 182.894 637 196.885 542 196.885 542 182.894" stroke="#000000" stroke-width="3.99906" stroke-miterlimit="8" fill="none" fill-rule="evenodd"/><path d="M533 182.894 533 196.885 479 196.885 479 182.894" stroke="#000000" stroke-width="3.99906" stroke-miterlimit="8" fill="none" fill-rule="evenodd"/><text font-family="Cambria Math,Cambria Math_MSFontService,sans-serif" font-weight="400" font-size="24" transform="matrix(1 0 0 0.999419 495.895 183)">𝑏<tspan font-size="18" x="13.7567" y="-8.00465">′</tspan></text><path d="M13.6055-14.0273 0-14.0273 0-15.2695 13.6055-15.2695Z" transform="matrix(1 0 0 0.999419 499.554 177)"/><path d="M472 132.923 472 146.915 451 146.915 451 132.923" stroke="#000000" stroke-width="3.99906" stroke-miterlimit="8" fill="none" fill-rule="evenodd"/><text font-family="Cambria Math,Cambria Math_MSFontService,sans-serif" font-weight="400" font-size="24" transform="matrix(1 0 0 0.999419 454.808 136)">𝑘</text><path d="M473 182.894 473 196.885 452 196.885 452 182.894" stroke="#000000" stroke-width="3.99906" stroke-miterlimit="8" fill="none" fill-rule="evenodd"/><text font-family="Cambria Math,Cambria Math_MSFontService,sans-serif" font-weight="400" font-size="24" transform="matrix(1 0 0 0.999419 455.445 185)">𝑘</text><path d="M702 132.923 702 146.915 681 146.915 681 132.923" stroke="#000000" stroke-width="3.99906" stroke-miterlimit="8" fill="none" fill-rule="evenodd"/><text font-family="Cambria Math,Cambria Math_MSFontService,sans-serif" font-weight="400" font-size="24" transform="matrix(1 0 0 0.999419 684.923 136)">𝑘</text><path d="M701 182.894 701 196.885 681 196.885 681 182.894" stroke="#000000" stroke-width="3.99906" stroke-miterlimit="8" fill="none" fill-rule="evenodd"/><text font-family="Cambria Math,Cambria Math_MSFontService,sans-serif" font-weight="400" font-size="24" transform="matrix(1 0 0 0.999419 683.997 186)">𝑘<tspan font-size="43" x="35.7456" y="-11.0064">⟹</tspan></text><path d="M873 131.923 873 145.915 846 145.915 846 131.923" stroke="#000000" stroke-width="3.99906" stroke-miterlimit="8" fill="none" fill-rule="evenodd"/><text font-family="Cambria Math,Cambria Math_MSFontService,sans-serif" font-weight="400" font-size="24" transform="matrix(1 0 0 0.999419 852.782 132)">𝑎<tspan font-size="18" x="13.9167" y="-9.00523">′</tspan><tspan font-size="24" x="71.0849" y="0">𝑀</tspan><tspan font-size="18" x="89.6205" y="5.00291">1</tspan></text><path d="M978 131.923 978 145.915 883 145.915 883 131.923" stroke="#000000" stroke-width="3.99906" stroke-miterlimit="8" fill="none" fill-rule="evenodd"/><path d="M1041 131.923 1041 145.915 988 145.915 988 131.923" stroke="#000000" stroke-width="3.99906" stroke-miterlimit="8" fill="none" fill-rule="evenodd"/><text font-family="Cambria Math,Cambria Math_MSFontService,sans-serif" font-weight="400" font-size="24" transform="matrix(1 0 0 0.999419 1004.22 132)">𝑏<tspan font-size="18" x="13.7568" y="-8.00465">′</tspan></text><path d="M1041 180.895 1041 194.887 1014 194.887 1014 180.895" stroke="#000000" stroke-width="3.99906" stroke-miterlimit="8" fill="none" fill-rule="evenodd"/><text font-family="Cambria Math,Cambria Math_MSFontService,sans-serif" font-weight="400" font-size="24" transform="matrix(1 0 0 0.999419 1021.4 181)">𝑎<tspan font-size="18" x="13.9167" y="-7.00407">′</tspan></text><path d="M13.6055-14.0273 0-14.0273 0-15.2695 13.6055-15.2695Z" transform="matrix(1 0 0 0.999419 1025.14 177)"/><text font-family="Cambria Math,Cambria Math_MSFontService,sans-serif" font-weight="400" font-size="24" transform="matrix(1 0 0 0.999419 946.36 181)">𝑀<tspan font-size="18" x="19.0888" y="5.00291">2</tspan></text><path d="M0.126564 3.16024 6.76114 3.16024 10.4448 3.16024 13.3957 3.16024 17.0794 3.16024 20.0303 3.16024 23.7139 3.16024 30.3485 3.16024 30.3485 4.4017 23.7139 4.4017 20.0303 4.4017 17.0794 4.4017 13.3957 4.4017 10.4448 4.4017 6.76114 4.4017 0.126564 4.4017Z" fill-rule="evenodd" transform="matrix(1.00058 0 0 1 946.24 158.492)"/><path d="M1004 180.895 1004 194.887 909 194.887 909 180.895" stroke="#000000" stroke-width="3.99906" stroke-miterlimit="8" fill="none" fill-rule="evenodd"/><path d="M900 180.895 900 194.887 846 194.887 846 180.895" stroke="#000000" stroke-width="3.99906" stroke-miterlimit="8" fill="none" fill-rule="evenodd"/><text font-family="Cambria Math,Cambria Math_MSFontService,sans-serif" font-weight="400" font-size="24" transform="matrix(1 0 0 0.999419 862.633 181)">𝑏<tspan font-size="18" x="13.7568" y="-7.00407">′</tspan></text><path d="M13.6055-14.0273 0-14.0273 0-15.2695 13.6055-15.2695Z" transform="matrix(1 0 0 0.999419 866.292 176)"/><text font-family="Cambria Math,Cambria Math_MSFontService,sans-serif" font-weight="400" font-size="24" transform="matrix(1 0 0 0.999419 773.497 140)">𝑀<tspan font-size="18" x="18.5356" y="5.00291">1</tspan><tspan font-size="18" x="21.0817" y="-9.00523">′</tspan><tspan font-size="18" x="27.2469" y="-9.00523">′</tspan><tspan font-size="24" x="41.0704" y="0">=</tspan><tspan font-size="24" x="0" y="56.0326">𝑀</tspan><tspan font-size="18" x="19.0889" y="61.0355">2</tspan><tspan font-size="18" x="21.0817" y="47.0273">′</tspan><tspan font-size="18" x="27.2469" y="47.0273">′</tspan><tspan font-size="24" x="41.0704" y="56.0326">=</tspan></text></g></svg>