<svg width="1507" height="380" xmlns="http://www.w3.org/2000/svg" xmlns:xlink="http://www.w3.org/1999/xlink" overflow="hidden"><defs><clipPath id="clip0"><path d="M0 0 1507 0 1507 380 0 380Z" fill-rule="evenodd" clip-rule="evenodd"/></clipPath></defs><g clip-path="url(#clip0)"><rect x="0" y="0" width="1507" height="379.875" fill="#FFFFFF" transform="scale(1 1.00033)"/><text font-family="Calibri,Calibri_MSFontService,sans-serif" font-weight="400" font-size="37" transform="matrix(1 0 0 1.00033 85.1525 112)">2: </text><text font-family="Cambria Math,Cambria Math_MSFontService,sans-serif" font-weight="400" font-size="37" transform="matrix(1 0 0 1.00033 122.657 112)">ğ‘ğ‘ğ‘ğ‘Ÿğ‘</text><text fill="#A6A6A6" font-family="Calibri,Calibri_MSFontService,sans-serif" font-weight="400" font-size="37" transform="matrix(1 0 0 1.00033 85.1525 57)">1: </text><text fill="#A6A6A6" font-family="Cambria Math,Cambria Math_MSFontService,sans-serif" font-weight="400" font-size="37" transform="matrix(1 0 0 1.00033 122.657 57)">ğ‘ğ‘ğ‘ğ‘ğ‘Ÿğ‘</text><text fill="#A6A6A6" font-family="Calibri,Calibri_MSFontService,sans-serif" font-weight="400" font-size="37" transform="matrix(1 0 0 1.00033 85.1525 167)">3: </text><text fill="#A6A6A6" font-family="Cambria Math,Cambria Math_MSFontService,sans-serif" font-weight="400" font-size="37" transform="matrix(1 0 0 1.00033 122.657 167)">ğ‘ğ‘ğ‘Ÿğ‘ğ‘Ÿğ‘</text><text fill="#A6A6A6" font-family="Calibri,Calibri_MSFontService,sans-serif" font-weight="400" font-size="37" transform="matrix(1 0 0 1.00033 85.1526 222)">4: </text><text fill="#A6A6A6" font-family="Cambria Math,Cambria Math_MSFontService,sans-serif" font-weight="400" font-size="37" transform="matrix(1 0 0 1.00033 122.657 222)">ğ‘ğ‘ğ‘ğ‘</text><text fill="#A6A6A6" font-family="Calibri,Calibri_MSFontService,sans-serif" font-weight="400" font-size="37" transform="matrix(1 0 0 1.00033 85.1525 277)">5: </text><text fill="#A6A6A6" font-family="Cambria Math,Cambria Math_MSFontService,sans-serif" font-weight="400" font-size="37" transform="matrix(1 0 0 1.00033 122.657 277)">ğ‘ğ‘ğ‘Ÿğ‘ğ‘</text><text font-family="Calibri,Calibri_MSFontService,sans-serif" font-weight="400" font-size="37" transform="matrix(1 0 0 1.00033 85.1525 332)">6:</text><text font-family="Cambria Math,Cambria Math_MSFontService,sans-serif" font-weight="400" font-size="37" transform="matrix(1 0 0 1.00033 122.657 332)">ğ‘ğ‘Ÿğ‘ğ‘</text><text font-family="Calibri,Calibri_MSFontService,sans-serif" font-weight="400" font-size="37" transform="matrix(1 0 0 1.00033 467.195 194)">Î’Î­Î»Ï„Î¹ÏƒÏ„Î·:</text><text font-family="Cambria Math,Cambria Math_MSFontService,sans-serif" font-weight="400" font-size="37" transform="matrix(1 0 0 1.00033 618.245 194)">ğ‘ğ‘Ÿğ‘ğ‘ğ‘</text><text font-family="Calibri,Calibri_MSFontService,sans-serif" font-weight="400" font-size="37" transform="matrix(1 0 0 1.00033 535.602 243)">ran<tspan x="49.7388" y="0">k</tspan><tspan x="66.7407" y="0">:</tspan></text><text font-family="Cambria Math,Cambria Math_MSFontService,sans-serif" font-weight="400" font-size="37" transform="matrix(1 0 0 1.00033 620.845 243)">6</text><path d="M0.0374924-1.4997 10.0626-1.24907 20.0594-0.620341 29.8706 0.448832 39.4891 1.89475 48.7368 3.65622 57.6732 5.79591 66.1097 8.18837 73.9938 10.8374 81.2624 13.7449 87.7886 16.8495 93.6462 20.1604 98.5924 23.6292 102.617 27.2638 105.738 31.0496 107.659 35.0278 108.319 38.924 108.944 42.6102 108.816 42.2087 110.565 45.8325 110.372 45.5304 113.308 49.0917 113.156 48.9328 117.03 52.4316 116.886 52.3167 121.697 55.6906 121.574 55.6128 127.322 58.8618 127.228 58.8131 133.663 61.8746 133.566 61.8322 140.751 64.6438 140.682 64.6188 148.492 67.2429 148.423 67.2217 156.795 69.5959 156.735 69.5803 165.608 71.7046 165.539 71.6898 174.723 73.4392 174.666 73.4294 184.225 74.8664 184.165 74.8586 193.911 75.9208 193.843 75.9149 203.777 76.5397 203.721 76.5372 206.219 76.5996 206.144 79.599 203.617 79.5359 193.62 78.9071 183.809 77.838 174.191 76.3921 164.943 74.6306 156.007 72.4909 147.57 70.0984 139.691 67.4512 132.423 64.6068 125.891 61.4997 120.034 58.1889 115.087 54.7201 111.063 51.0855 107.942 47.2997 106.021 43.3215 105.361 39.4253 104.736 35.739 104.864 36.1405 103.115 32.5167 103.308 32.8189 100.372 29.2576 100.524 29.4165 96.6499 25.9176 96.7941 26.0326 91.9832 22.6587 92.1064 22.7365 86.3582 19.4875 86.452 19.5362 80.0166 16.4747 80.1039 16.5129 72.9187 13.6388 72.9981 13.668 65.1881 11.0439 65.2567 11.0651 56.8844 8.69088 56.9444 8.70655 48.0723 6.58225 48.1409 6.59699 38.9564 4.84756 39.0141 4.85739 29.4548 3.42036 29.5152 3.4282 19.7684 2.36605 19.8368 2.37192 9.90255 1.74713 9.95923 1.74962-0.0374924 1.4997ZM204.794 73.5628 213.68 78.2868 204.569 82.5609Z" transform="matrix(1 0 -0 1.00033 231.5 104.5)"/><path d="M0.0516991-1.49927 10.9707-1.12276 21.8766-0.051086 32.5297 1.71393 42.9889 4.10821 53.1387 7.07121 62.785 10.6019 71.9908 14.5742 80.5184 18.9328 88.4241 23.7395 95.5874 28.8742 101.885 34.3449 107.246 40.0882 111.613 45.9973 114.852 52.1506 116.874 58.4773 117.577 64.6847 118.265 70.7452 118.202 70.4532 120.139 76.4513 120.039 76.2136 123.163 82.1491 123.046 81.9624 127.295 87.7729 127.175 87.6287 132.423 93.1894 132.316 93.0865 138.501 98.4598 138.391 98.373 145.452 103.434 145.357 103.371 153.167 108.12 153.078 108.07 161.513 112.443 161.409 112.394 170.531 116.268 170.46 116.24 180.019 119.739 179.924 119.708 189.983 122.644 189.898 122.622 200.269 124.996 200.18 124.979 210.739 126.728 210.64 126.715 221.449 127.777 221.354 127.771 224.729 127.887 224.626 130.886 221.203 130.768 210.297 129.696 199.644 127.931 189.185 125.537 179.035 122.574 169.393 119.045 160.183 115.133 151.652 110.71 143.75 105.905 136.586 100.771 130.292 95.3028 124.928 89.6197 120.559 83.6442 117.323 77.4964 115.3 71.2324 114.596 65.0227 113.909 58.9622 113.971 59.2499 112.034 53.1894 112.135 53.4314 109.011 47.4958 109.132 47.6888 104.884 41.9407 104.993 42.0726 99.7452 36.4495 99.8581 36.5584 93.6726 31.1852 93.7824 31.2719 86.7223 26.2111 86.8169 26.2736 79.007 21.5252 79.1036 21.5792 70.6688 17.2681 70.7572 17.3097 61.6352 13.3735 61.7139 13.4048 52.1546 9.90598 52.2498 9.93727 42.1906 7.00073 42.2763 7.02302 31.9047 4.64879 31.9942 4.66644 21.4352 2.91702 21.5337 2.93 10.7247 1.86785 10.8197 1.87415-0.0516991 1.49927ZM223.333 124.837 232.174 129.645 223.023 133.833Z" transform="matrix(1 0 0 -1.00033 212.5 327.157)"/><text font-family="Cambria Math,Cambria Math_MSFontService,sans-serif" font-weight="400" font-size="37" transform="matrix(1 0 0 1.00033 343.858 134)">ğ‘Ÿğ‘<tspan x="-12.6331" y="159.948">ğ‘</tspan></text><text font-family="Calibri,Calibri_MSFontService,sans-serif" font-weight="400" font-size="37" transform="matrix(1 0 0 1.00033 810.89 112)">2: </text><text font-family="Cambria Math,Cambria Math_MSFontService,sans-serif" font-weight="400" font-size="37" transform="matrix(1 0 0 1.00033 848.394 112)">ğ‘ğ‘ğ‘ğ‘Ÿğ‘</text><text fill="#A6A6A6" font-family="Calibri,Calibri_MSFontService,sans-serif" font-weight="400" font-size="37" transform="matrix(1 0 0 1.00033 810.89 57)">1: </text><text fill="#A6A6A6" font-family="Cambria Math,Cambria Math_MSFontService,sans-serif" font-weight="400" font-size="37" transform="matrix(1 0 0 1.00033 848.394 57)">ğ‘ğ‘ğ‘ğ‘ğ‘Ÿğ‘</text><text fill="#A6A6A6" font-family="Calibri,Calibri_MSFontService,sans-serif" font-weight="400" font-size="37" transform="matrix(1 0 0 1.00033 810.89 167)">3: </text><text fill="#A6A6A6" font-family="Cambria Math,Cambria Math_MSFontService,sans-serif" font-weight="400" font-size="37" transform="matrix(1 0 0 1.00033 848.394 167)">ğ‘ğ‘ğ‘Ÿğ‘ğ‘Ÿğ‘</text><text fill="#A6A6A6" font-family="Calibri,Calibri_MSFontService,sans-serif" font-weight="400" font-size="37" transform="matrix(1 0 0 1.00033 810.89 222)">4: </text><text fill="#A6A6A6" font-family="Cambria Math,Cambria Math_MSFontService,sans-serif" font-weight="400" font-size="37" transform="matrix(1 0 0 1.00033 848.394 222)">ğ‘ğ‘ğ‘ğ‘</text><text fill="#A6A6A6" font-family="Calibri,Calibri_MSFontService,sans-serif" font-weight="400" font-size="37" transform="matrix(1 0 0 1.00033 810.89 277)">5: </text><text fill="#A6A6A6" font-family="Cambria Math,Cambria Math_MSFontService,sans-serif" font-weight="400" font-size="37" transform="matrix(1 0 0 1.00033 848.394 277)">ğ‘ğ‘ğ‘Ÿğ‘ğ‘</text><text font-family="Calibri,Calibri_MSFontService,sans-serif" font-weight="400" font-size="37" transform="matrix(1 0 0 1.00033 810.89 332)">6:</text><text font-family="Cambria Math,Cambria Math_MSFontService,sans-serif" font-weight="400" font-size="37" transform="matrix(1 0 0 1.00033 848.394 332)">ğ‘ğ‘Ÿğ‘ğ‘</text><text font-family="Calibri,Calibri_MSFontService,sans-serif" font-weight="400" font-size="37" transform="matrix(1 0 0 1.00033 1192.93 194)">Î’Î­Î»Ï„Î¹ÏƒÏ„Î·:</text><text font-family="Cambria Math,Cambria Math_MSFontService,sans-serif" font-weight="400" font-size="37" transform="matrix(1 0 0 1.00033 1343.98 194)">ğ‘ğ‘ğ‘ğ‘Ÿğ‘ğ‘</text><text font-family="Calibri,Calibri_MSFontService,sans-serif" font-weight="400" font-size="37" transform="matrix(1 0 0 1.00033 1261.34 243)">ran<tspan x="49.7388" y="0">k</tspan><tspan x="66.7407" y="0">:</tspan></text><text font-family="Cambria Math,Cambria Math_MSFontService,sans-serif" font-weight="400" font-size="37" transform="matrix(1 0 0 1.00033 1346.58 243)">2</text><path d="M0.0374924-1.4997 10.0626-1.24907 20.0594-0.620341 29.8706 0.448832 39.4891 1.89475 48.7368 3.65622 57.6732 5.79591 66.1097 8.18837 73.9938 10.8374 81.2624 13.7449 87.7886 16.8495 93.6462 20.1604 98.5924 23.6292 102.617 27.2638 105.738 31.0496 107.659 35.0278 108.319 38.924 108.944 42.6102 108.816 42.2087 110.565 45.8325 110.372 45.5304 113.308 49.0917 113.156 48.9328 117.03 52.4316 116.886 52.3167 121.697 55.6906 121.574 55.6128 127.322 58.8618 127.228 58.8131 133.663 61.8746 133.566 61.8322 140.751 64.6438 140.682 64.6188 148.492 67.2429 148.423 67.2217 156.795 69.5959 156.735 69.5803 165.608 71.7046 165.539 71.6898 174.723 73.4392 174.666 73.4294 184.225 74.8664 184.165 74.8586 193.911 75.9208 193.843 75.9149 203.777 76.5397 203.721 76.5372 206.219 76.5996 206.144 79.599 203.617 79.5359 193.62 78.9071 183.809 77.838 174.191 76.3921 164.943 74.6306 156.007 72.4909 147.57 70.0984 139.691 67.4512 132.423 64.6068 125.891 61.4997 120.034 58.1889 115.087 54.7201 111.063 51.0855 107.942 47.2997 106.021 43.3215 105.361 39.4253 104.736 35.739 104.864 36.1405 103.115 32.5167 103.308 32.8189 100.372 29.2576 100.524 29.4165 96.6499 25.9176 96.7941 26.0326 91.9832 22.6587 92.1064 22.7365 86.3582 19.4875 86.452 19.5362 80.0166 16.4747 80.1039 16.5129 72.9187 13.6388 72.9981 13.668 65.1881 11.0439 65.2567 11.0651 56.8844 8.69088 56.9444 8.70655 48.0723 6.58225 48.1409 6.59699 38.9564 4.84756 39.0141 4.85739 29.4548 3.42036 29.5152 3.4282 19.7684 2.36605 19.8368 2.37192 9.90255 1.74713 9.95923 1.74962-0.0374924 1.4997ZM204.794 73.5628 213.68 78.2868 204.569 82.5609Z" transform="matrix(1 0 -0 1.00033 957.5 104.5)"/><path d="M0.0514041-1.49928 11.0331-1.12277 21.9334-0.0516431 32.703 1.64883 43.1639 3.91745 53.3123 6.817 63.0173 10.2201 72.2227 14.0662 80.811 18.2971 88.7782 22.9763 95.9413 27.9207 102.238 33.1995 107.667 38.7567 112.041 44.5452 115.281 50.5082 117.309 56.591 118.014 62.6175 118.702 68.4906 118.636 68.1951 120.573 74.0682 120.466 73.8217 123.59 79.5698 123.464 79.3754 127.713 84.936 127.594 84.7985 132.905 90.2342 132.796 90.1329 138.981 95.3187 138.872 95.2353 145.994 100.171 145.896 100.109 153.706 104.67 153.621 104.623 162.118 108.872 162.025 108.83 171.147 112.641 171.057 112.607 180.679 115.918 180.603 115.894 190.662 118.768 190.566 118.744 201 120.993 200.919 120.978 211.541 122.665 211.452 122.654 222.261 123.716 222.166 123.71 225.603 123.827 225.501 126.826 222.015 126.707 211.114 125.635 200.408 123.935 189.886 121.667 179.74 118.768 170.035 115.428 160.822 111.578 152.235 107.285 144.333 102.67 137.106 97.6622 130.811 92.3842 125.384 86.83 121.01 81.1046 117.766 75.1359 115.739 68.9904 115.034 62.9663 114.347 57.0932 114.414 57.3932 112.477 51.5826 112.582 51.8246 109.458 46.0765 109.579 46.2645 105.331 40.6413 105.454 40.7853 100.144 35.3496 100.253 35.4508 94.0675 30.265 94.1791 30.35 87.1189 25.4766 87.2114 25.5356 79.339 20.9121 79.4357 20.9643 70.9385 16.7782 71.0232 16.8166 61.9012 13.0054 61.9831 13.0368 52.3613 9.66295 52.4455 9.68974 42.3863 6.81568 42.4805 6.83932 32.1089 4.59006 32.1929 4.60578 21.5089 2.91884 21.5962 2.93 10.7872 1.86785 10.8825 1.87416-0.0514041 1.49928ZM224.207 120.777 233.048 125.584 223.899 129.773Z" transform="matrix(1 0 0 -1.00033 937.5 323.109)"/><text font-family="Cambria Math,Cambria Math_MSFontService,sans-serif" font-weight="400" font-size="37" transform="matrix(1 0 0 1.00033 1078.52 134)">ğ‘<tspan x="-10.2161" y="142.953">ğ‘Ÿğ‘</tspan></text><path d="M0 0 0.000104998 333.941" stroke="#000000" stroke-width="3.00033" stroke-miterlimit="8" fill="none" fill-rule="evenodd" transform="matrix(1 0 -0 1.00033 766.5 19.5)"/></g></svg>