<svg width="1507" height="380" xmlns="http://www.w3.org/2000/svg" xmlns:xlink="http://www.w3.org/1999/xlink" overflow="hidden"><defs><clipPath id="clip0"><path d="M0 0 1507 0 1507 380 0 380Z" fill-rule="evenodd" clip-rule="evenodd"/></clipPath></defs><g clip-path="url(#clip0)"><rect x="0" y="0" width="1507" height="379.875" fill="#FFFFFF" transform="scale(1 1.00033)"/><text font-family="Calibri,Calibri_MSFontService,sans-serif" font-weight="400" font-size="37" transform="matrix(1 0 0 1.00033 85.1525 112)">2: </text><text font-family="Cambria Math,Cambria Math_MSFontService,sans-serif" font-weight="400" font-size="37" transform="matrix(1 0 0 1.00033 122.657 112)">ğ‘ğ‘ğ‘ğ‘Ÿğ‘</text><text fill="#A6A6A6" font-family="Calibri,Calibri_MSFontService,sans-serif" font-weight="400" font-size="37" transform="matrix(1 0 0 1.00033 85.1525 57)">1: </text><text fill="#A6A6A6" font-family="Cambria Math,Cambria Math_MSFontService,sans-serif" font-weight="400" font-size="37" transform="matrix(1 0 0 1.00033 122.657 57)">ğ‘ğ‘ğ‘ğ‘ğ‘Ÿğ‘</text><text fill="#A6A6A6" font-family="Calibri,Calibri_MSFontService,sans-serif" font-weight="400" font-size="37" transform="matrix(1 0 0 1.00033 85.1525 167)">3: </text><text fill="#A6A6A6" font-family="Cambria Math,Cambria Math_MSFontService,sans-serif" font-weight="400" font-size="37" transform="matrix(1 0 0 1.00033 122.657 167)">ğ‘ğ‘ğ‘Ÿğ‘ğ‘Ÿğ‘</text><text fill="#A6A6A6" font-family="Calibri,Calibri_MSFontService,sans-serif" font-weight="400" font-size="37" transform="matrix(1 0 0 1.00033 85.1526 222)">4: </text><text fill="#A6A6A6" font-family="Cambria Math,Cambria Math_MSFontService,sans-serif" font-weight="400" font-size="37" transform="matrix(1 0 0 1.00033 122.657 222)">ğ‘ğ‘ğ‘ğ‘</text><text font-family="Calibri,Calibri_MSFontService,sans-serif" font-weight="400" font-size="37" transform="matrix(1 0 0 1.00033 85.1525 277)">5: </text><text font-family="Cambria Math,Cambria Math_MSFontService,sans-serif" font-weight="400" font-size="37" transform="matrix(1 0 0 1.00033 122.657 277)">ğ‘ğ‘Ÿğ‘ğ‘</text><text fill="#A6A6A6" font-family="Calibri,Calibri_MSFontService,sans-serif" font-weight="400" font-size="37" transform="matrix(1 0 0 1.00033 85.1525 332)">6: </text><text fill="#A6A6A6" font-family="Cambria Math,Cambria Math_MSFontService,sans-serif" font-weight="400" font-size="37" transform="matrix(1 0 0 1.00033 122.657 332)">ğ‘ğ‘Ÿğ‘ğ‘Ÿğ‘</text><text font-family="Calibri,Calibri_MSFontService,sans-serif" font-weight="400" font-size="37" transform="matrix(1 0 0 1.00033 467.195 194)">Î’Î­Î»Ï„Î¹ÏƒÏ„Î·:</text><text font-family="Cambria Math,Cambria Math_MSFontService,sans-serif" font-weight="400" font-size="37" transform="matrix(1 0 0 1.00033 618.245 194)">ğ‘ğ‘Ÿğ‘ğ‘ğ‘</text><text font-family="Calibri,Calibri_MSFontService,sans-serif" font-weight="400" font-size="37" transform="matrix(1 0 0 1.00033 535.602 243)">ran<tspan x="49.7388" y="0">k</tspan><tspan x="66.7407" y="0">:</tspan></text><text font-family="Cambria Math,Cambria Math_MSFontService,sans-serif" font-weight="400" font-size="37" transform="matrix(1 0 0 1.00033 620.845 243)">5</text><path d="M0.0374924-1.4997 10.0626-1.24907 20.0594-0.620341 29.8706 0.448832 39.4891 1.89475 48.7368 3.65622 57.6732 5.79591 66.1097 8.18837 73.9938 10.8374 81.2624 13.7449 87.7886 16.8495 93.6462 20.1604 98.5924 23.6292 102.617 27.2638 105.738 31.0496 107.659 35.0278 108.319 38.924 108.944 42.6102 108.816 42.2087 110.565 45.8325 110.372 45.5304 113.308 49.0917 113.156 48.9328 117.03 52.4316 116.886 52.3167 121.697 55.6906 121.574 55.6128 127.322 58.8618 127.228 58.8131 133.663 61.8746 133.566 61.8322 140.751 64.6438 140.682 64.6188 148.492 67.2429 148.423 67.2217 156.795 69.5959 156.735 69.5803 165.608 71.7046 165.539 71.6898 174.723 73.4392 174.666 73.4294 184.225 74.8664 184.165 74.8586 193.911 75.9208 193.843 75.9149 203.777 76.5397 203.721 76.5372 206.219 76.5996 206.144 79.599 203.617 79.5359 193.62 78.9071 183.809 77.838 174.191 76.3921 164.943 74.6306 156.007 72.4909 147.57 70.0984 139.691 67.4512 132.423 64.6068 125.891 61.4997 120.034 58.1889 115.087 54.7201 111.063 51.0855 107.942 47.2997 106.021 43.3215 105.361 39.4253 104.736 35.739 104.864 36.1405 103.115 32.5167 103.308 32.8189 100.372 29.2576 100.524 29.4165 96.6499 25.9176 96.7941 26.0326 91.9832 22.6587 92.1064 22.7365 86.3582 19.4875 86.452 19.5362 80.0166 16.4747 80.1039 16.5129 72.9187 13.6388 72.9981 13.668 65.1881 11.0439 65.2567 11.0651 56.8844 8.69088 56.9444 8.70655 48.0723 6.58225 48.1409 6.59699 38.9564 4.84756 39.0141 4.85739 29.4548 3.42036 29.5152 3.4282 19.7684 2.36605 19.8368 2.37192 9.90255 1.74713 9.95923 1.74962-0.0374924 1.4997ZM204.794 73.5628 213.68 78.2868 204.569 82.5609Z" transform="matrix(1 0 -0 1.00033 231.5 104.5)"/><path d="M0.0257134-1.49995 10.9901-1.31199 21.8683-0.683184 42.9378 1.63696 53.0629 3.27207 62.74 5.22006 71.9145 7.41943 80.5436 9.81291 88.4304 12.526 95.5744 15.3709 101.857 18.4171 107.299 21.5541 111.721 24.9361 115.046 28.4603 117.195 32.1339 117.932 35.7512 118.619 39.1251 118.444 38.6671 120.381 41.9786 120.177 41.7065 123.301 45.0179 123.121 44.8557 127.37 48.1046 127.214 48.0005 132.463 51.062 132.356 51.0054 138.604 54.0044 138.51 53.9631 145.57 56.7747 145.493 56.7464 153.303 59.3705 153.238 59.3505 161.736 61.7872 161.672 61.7704 170.794 63.9572 170.731 63.9435 180.353 65.8179 180.314 65.8109 190.373 67.4978 190.285 67.4857 211.278 69.735 211.205 69.729 222.014 70.3538 221.953 70.3515 225.387 70.4103 225.336 73.4102 221.871 73.3508 210.995 72.7222 189.921 70.4642 179.798 68.7667 170.126 66.8824 160.94 64.6804 152.379 62.2253 144.498 59.5773 137.352 56.7315 131.003 53.6841 125.622 50.5449 121.202 47.1652 117.877 43.641 115.729 39.9675 114.992 36.3501 114.305 32.9762 114.48 33.4342 112.543 30.1228 112.746 30.3948 109.622 27.0834 109.802 27.2456 105.554 23.9967 105.716 24.1047 100.405 21.0432 100.5 21.0934 94.3143 18.0944 94.4138 18.1382 87.3536 15.3266 87.4206 15.3515 79.6107 12.6649 79.6977 12.6919 71.1381 10.3177 71.1893 10.3309 62.0673 8.14414 62.121 8.15597 52.4991 6.21911 52.556 6.22942 42.4968 4.60495 42.5718 4.61513 21.5787 2.30339 21.6563 2.3099 10.8473 1.6851 10.9082 1.68738-0.0257134 1.49995ZM223.939 67.3847 232.861 72.0389 223.784 76.3844Z" transform="matrix(1 0 0 -1.00033 212.5 269.532)"/><text font-family="Cambria Math,Cambria Math_MSFontService,sans-serif" font-weight="400" font-size="37" transform="matrix(1 0 0 1.00033 343.858 134)">ğ‘Ÿğ‘<tspan x="3.32037" y="123.959">ğ‘</tspan></text><text font-family="Calibri,Calibri_MSFontService,sans-serif" font-weight="400" font-size="37" transform="matrix(1 0 0 1.00033 810.89 112)">2: </text><text font-family="Cambria Math,Cambria Math_MSFontService,sans-serif" font-weight="400" font-size="37" transform="matrix(1 0 0 1.00033 848.394 112)">ğ‘ğ‘ğ‘ğ‘Ÿğ‘</text><text fill="#A6A6A6" font-family="Calibri,Calibri_MSFontService,sans-serif" font-weight="400" font-size="37" transform="matrix(1 0 0 1.00033 810.89 57)">1: </text><text fill="#A6A6A6" font-family="Cambria Math,Cambria Math_MSFontService,sans-serif" font-weight="400" font-size="37" transform="matrix(1 0 0 1.00033 848.394 57)">ğ‘ğ‘ğ‘ğ‘ğ‘Ÿğ‘</text><text fill="#A6A6A6" font-family="Calibri,Calibri_MSFontService,sans-serif" font-weight="400" font-size="37" transform="matrix(1 0 0 1.00033 810.89 167)">3: </text><text fill="#A6A6A6" font-family="Cambria Math,Cambria Math_MSFontService,sans-serif" font-weight="400" font-size="37" transform="matrix(1 0 0 1.00033 848.394 167)">ğ‘ğ‘ğ‘Ÿğ‘ğ‘Ÿğ‘</text><text fill="#A6A6A6" font-family="Calibri,Calibri_MSFontService,sans-serif" font-weight="400" font-size="37" transform="matrix(1 0 0 1.00033 810.89 222)">4: </text><text fill="#A6A6A6" font-family="Cambria Math,Cambria Math_MSFontService,sans-serif" font-weight="400" font-size="37" transform="matrix(1 0 0 1.00033 848.394 222)">ğ‘ğ‘ğ‘ğ‘</text><text font-family="Calibri,Calibri_MSFontService,sans-serif" font-weight="400" font-size="37" transform="matrix(1 0 0 1.00033 810.89 277)">5: </text><text font-family="Cambria Math,Cambria Math_MSFontService,sans-serif" font-weight="400" font-size="37" transform="matrix(1 0 0 1.00033 848.394 277)">ğ‘ğ‘Ÿğ‘ğ‘</text><text fill="#A6A6A6" font-family="Calibri,Calibri_MSFontService,sans-serif" font-weight="400" font-size="37" transform="matrix(1 0 0 1.00033 810.89 332)">6: </text><text fill="#A6A6A6" font-family="Cambria Math,Cambria Math_MSFontService,sans-serif" font-weight="400" font-size="37" transform="matrix(1 0 0 1.00033 848.394 332)">ğ‘ğ‘Ÿğ‘ğ‘Ÿğ‘</text><text font-family="Calibri,Calibri_MSFontService,sans-serif" font-weight="400" font-size="37" transform="matrix(1 0 0 1.00033 1192.93 194)">Î’Î­Î»Ï„Î¹ÏƒÏ„Î·:</text><text font-family="Cambria Math,Cambria Math_MSFontService,sans-serif" font-weight="400" font-size="37" transform="matrix(1 0 0 1.00033 1343.98 194)">ğ‘ğ‘ğ‘ğ‘Ÿğ‘ğ‘</text><text font-family="Calibri,Calibri_MSFontService,sans-serif" font-weight="400" font-size="37" transform="matrix(1 0 0 1.00033 1261.34 243)">ran<tspan x="49.7388" y="0">k</tspan><tspan x="66.7407" y="0">:</tspan></text><text font-family="Cambria Math,Cambria Math_MSFontService,sans-serif" font-weight="400" font-size="37" transform="matrix(1 0 0 1.00033 1346.58 243)">2</text><path d="M0.0374924-1.4997 10.0626-1.24907 20.0594-0.620341 29.8706 0.448832 39.4891 1.89475 48.7368 3.65622 57.6732 5.79591 66.1097 8.18837 73.9938 10.8374 81.2624 13.7449 87.7886 16.8495 93.6462 20.1604 98.5924 23.6292 102.617 27.2638 105.738 31.0496 107.659 35.0278 108.319 38.924 108.944 42.6102 108.816 42.2087 110.565 45.8325 110.372 45.5304 113.308 49.0917 113.156 48.9328 117.03 52.4316 116.886 52.3167 121.697 55.6906 121.574 55.6128 127.322 58.8618 127.228 58.8131 133.663 61.8746 133.566 61.8322 140.751 64.6438 140.682 64.6188 148.492 67.2429 148.423 67.2217 156.795 69.5959 156.735 69.5803 165.608 71.7046 165.539 71.6898 174.723 73.4392 174.666 73.4294 184.225 74.8664 184.165 74.8586 193.911 75.9208 193.843 75.9149 203.777 76.5397 203.721 76.5372 206.219 76.5996 206.144 79.599 203.617 79.5359 193.62 78.9071 183.809 77.838 174.191 76.3921 164.943 74.6306 156.007 72.4909 147.57 70.0984 139.691 67.4512 132.423 64.6068 125.891 61.4997 120.034 58.1889 115.087 54.7201 111.063 51.0855 107.942 47.2997 106.021 43.3215 105.361 39.4253 104.736 35.739 104.864 36.1405 103.115 32.5167 103.308 32.8189 100.372 29.2576 100.524 29.4165 96.6499 25.9176 96.7941 26.0326 91.9832 22.6587 92.1064 22.7365 86.3582 19.4875 86.452 19.5362 80.0166 16.4747 80.1039 16.5129 72.9187 13.6388 72.9981 13.668 65.1881 11.0439 65.2567 11.0651 56.8844 8.69088 56.9444 8.70655 48.0723 6.58225 48.1409 6.59699 38.9564 4.84756 39.0141 4.85739 29.4548 3.42036 29.5152 3.4282 19.7684 2.36605 19.8368 2.37192 9.90255 1.74713 9.95923 1.74962-0.0374924 1.4997ZM204.794 73.5628 213.68 78.2868 204.569 82.5609Z" transform="matrix(1 0 -0 1.00033 957.5 104.5)"/><path d="M0.0257134-1.49995 10.9901-1.31199 21.8683-0.683184 42.9378 1.63696 53.0629 3.27207 62.74 5.22006 71.9145 7.41943 80.5436 9.81291 88.4304 12.526 95.5744 15.3709 101.857 18.4171 107.299 21.5541 111.721 24.9361 115.046 28.4603 117.195 32.1339 117.932 35.7512 118.619 39.1251 118.444 38.6671 120.381 41.9786 120.177 41.7065 123.301 45.0179 123.121 44.8557 127.37 48.1046 127.214 48.0005 132.463 51.062 132.356 51.0054 138.604 54.0044 138.51 53.9631 145.57 56.7747 145.493 56.7464 153.303 59.3705 153.238 59.3505 161.736 61.7872 161.672 61.7704 170.794 63.9572 170.731 63.9435 180.353 65.8179 180.314 65.8109 190.373 67.4978 190.285 67.4857 211.278 69.735 211.205 69.729 222.014 70.3538 221.953 70.3515 225.387 70.4103 225.336 73.4102 221.871 73.3508 210.995 72.7222 189.921 70.4642 179.798 68.7667 170.126 66.8824 160.94 64.6804 152.379 62.2253 144.498 59.5773 137.352 56.7315 131.003 53.6841 125.622 50.5449 121.202 47.1652 117.877 43.641 115.729 39.9675 114.992 36.3501 114.305 32.9762 114.48 33.4342 112.543 30.1228 112.746 30.3948 109.622 27.0834 109.802 27.2456 105.554 23.9967 105.716 24.1047 100.405 21.0432 100.5 21.0934 94.3143 18.0944 94.4138 18.1382 87.3536 15.3266 87.4206 15.3515 79.6107 12.6649 79.6977 12.6919 71.1381 10.3177 71.1893 10.3309 62.0673 8.14414 62.121 8.15597 52.4991 6.21911 52.556 6.22942 42.4968 4.60495 42.5718 4.61513 21.5787 2.30339 21.6563 2.3099 10.8473 1.6851 10.9082 1.68738-0.0257134 1.49995ZM223.939 67.3847 232.861 72.0389 223.784 76.3844Z" transform="matrix(1 0 0 -1.00033 937.5 269.532)"/><text font-family="Cambria Math,Cambria Math_MSFontService,sans-serif" font-weight="400" font-size="37" transform="matrix(1 0 0 1.00033 1078.52 134)">ğ‘<tspan x="-14.5216" y="123.959">ğ‘Ÿğ‘</tspan></text><path d="M0 0 0.000104998 333.941" stroke="#000000" stroke-width="3.00033" stroke-miterlimit="8" fill="none" fill-rule="evenodd" transform="matrix(1 0 -0 1.00033 766.5 19.5)"/></g></svg>