<svg width="1545" height="191" xmlns="http://www.w3.org/2000/svg" xmlns:xlink="http://www.w3.org/1999/xlink" overflow="hidden"><defs><clipPath id="clip0"><path d="M0 0 1545 0 1545 191 0 191Z" fill-rule="evenodd" clip-rule="evenodd"/></clipPath></defs><g clip-path="url(#clip0)"><rect x="0" y="0" width="1545" height="190.895" fill="#FFFFFF" transform="scale(1 1.00055)"/><rect x="0" y="0" width="55.0001" height="54.9698" stroke="#3B3838" stroke-width="4.0013" stroke-linejoin="round" stroke-miterlimit="10" fill="#F2F2F2" transform="matrix(1 0 -0 1.00055 178 60)"/><rect x="0" y="0" width="55.0001" height="54.9698" stroke="#3B3838" stroke-width="4.0013" stroke-linejoin="round" stroke-miterlimit="10" fill="#F2F2F2" transform="matrix(1 0 -0 1.00055 250 60)"/><rect x="0" y="0" width="53.9999" height="54.9698" stroke="#3B3838" stroke-width="4.0013" stroke-linejoin="round" stroke-miterlimit="10" fill="#F2F2F2" transform="matrix(1 0 -0 1.00055 305 60)"/><rect x="0" y="0" width="55.0001" height="54.9698" stroke="#3B3838" stroke-width="4.0013" stroke-linejoin="round" stroke-miterlimit="10" fill="#F2F2F2" transform="matrix(1 0 -0 1.00055 359 60)"/><rect x="0" y="0" width="55" height="54.9698" stroke="#3B3838" stroke-width="4.0013" stroke-linejoin="round" stroke-miterlimit="10" fill="#F2F2F2" transform="matrix(1 0 -0 1.00055 429 60)"/><rect x="0" y="0" width="55.0001" height="54.9698" stroke="#3B3838" stroke-width="4.0013" stroke-linejoin="round" stroke-miterlimit="10" fill="#F2F2F2" transform="matrix(1 0 -0 1.00055 484 60)"/><rect x="0" y="0" width="53.9999" height="54.9698" stroke="#3B3838" stroke-width="4.0013" stroke-linejoin="round" stroke-miterlimit="10" fill="#F2F2F2" transform="matrix(1 0 -0 1.00055 539 60)"/><rect x="0" y="0" width="55.0001" height="54.9698" stroke="#3B3838" stroke-width="4.0013" stroke-linejoin="round" stroke-miterlimit="10" fill="#F2F2F2" transform="matrix(1 0 -0 1.00055 612 60)"/><rect x="0" y="0" width="55" height="54.9698" stroke="#3B3838" stroke-width="4.0013" stroke-linejoin="round" stroke-miterlimit="10" fill="#F2F2F2" transform="matrix(1 0 -0 1.00055 667 60)"/><rect x="0" y="0" width="55.0001" height="54.9698" stroke="#3B3838" stroke-width="4.0013" stroke-linejoin="round" stroke-miterlimit="10" fill="#F2F2F2" transform="matrix(1 0 -0 1.00055 722 60)"/><rect x="0" y="0" width="55.0001" height="54.9698" stroke="#3B3838" stroke-width="4.0013" stroke-linejoin="round" stroke-miterlimit="10" fill="#F2F2F2" transform="matrix(1 0 -0 1.00055 795 60)"/><rect x="0" y="0" width="53.9999" height="54.9698" stroke="#3B3838" stroke-width="4.0013" stroke-linejoin="round" stroke-miterlimit="10" fill="#F2F2F2" transform="matrix(1 0 -0 1.00055 850 60)"/><rect x="0" y="0" width="55.0001" height="54.9698" stroke="#3B3838" stroke-width="4.0013" stroke-linejoin="round" stroke-miterlimit="10" fill="#F2F2F2" transform="matrix(1 0 -0 1.00055 904 60)"/><rect x="0" y="0" width="55.0001" height="54.9698" stroke="#3B3838" stroke-width="4.0013" stroke-linejoin="round" stroke-miterlimit="10" fill="#F2F2F2" transform="matrix(1 0 -0 1.00055 977 60)"/><rect x="0" y="0" width="55" height="54.9698" stroke="#3B3838" stroke-width="4.0013" stroke-linejoin="round" stroke-miterlimit="10" fill="#F2F2F2" transform="matrix(1 0 -0 1.00055 1032 60)"/><rect x="0" y="0" width="55.0001" height="54.9698" stroke="#3B3838" stroke-width="4.0013" stroke-linejoin="round" stroke-miterlimit="10" fill="#F2F2F2" transform="matrix(1 0 -0 1.00055 1087 60)"/><rect x="0" y="0" width="54" height="54.9698" stroke="#3B3838" stroke-width="4.0013" stroke-linejoin="round" stroke-miterlimit="10" fill="#F2F2F2" transform="matrix(1 0 -0 1.00055 1160 60)"/><rect x="0" y="0" width="55" height="54.9698" stroke="#3B3838" stroke-width="4.0013" stroke-linejoin="round" stroke-miterlimit="10" fill="#F2F2F2" transform="matrix(1 0 -0 1.00055 1214 60)"/><rect x="0" y="0" width="55.0001" height="54.9698" stroke="#3B3838" stroke-width="4.0013" stroke-linejoin="round" stroke-miterlimit="10" fill="#F2F2F2" transform="matrix(1 0 -0 1.00055 1269 60)"/><rect x="0" y="0" width="55" height="54.9698" stroke="#3B3838" stroke-width="4.0013" stroke-linejoin="round" stroke-miterlimit="10" fill="#F2F2F2" transform="matrix(1 0 -0 1.00055 1339 60)"/><rect x="0" y="0" width="54" height="54.9698" stroke="#3B3838" stroke-width="4.0013" stroke-linejoin="round" stroke-miterlimit="10" fill="#F2F2F2" transform="matrix(1 0 -0 1.00055 1394 60)"/><rect x="0" y="0" width="55" height="54.9698" stroke="#3B3838" stroke-width="4.0013" stroke-linejoin="round" stroke-miterlimit="10" fill="#F2F2F2" transform="matrix(1 0 -0 1.00055 1448 60)"/><text font-family="Calibri,Calibri_MSFontService,sans-serif" font-weight="400" font-size="32" transform="matrix(1 0 0 1.00055 195.339 47)">0<tspan x="71.5493" y="0">1</tspan><tspan x="127.313" y="0">2</tspan><tspan x="181.898" y="0">3</tspan><tspan x="250.705" y="0">4</tspan><tspan x="305.055" y="0">5</tspan><tspan x="360.818" y="0">6</tspan><tspan x="434.036" y="0">7</tspan><tspan x="490.902" y="0">8</tspan><tspan x="545.251" y="0">9</tspan><tspan x="609.123" y="0">10</tspan><tspan x="663.944" y="0">11</tspan><tspan x="719.908" y="0">12</tspan><tspan x="790.799" y="0">13</tspan><tspan x="847.941" y="0">14</tspan><tspan x="903.705" y="0">15</tspan><tspan x="977.034" y="0">16</tspan><tspan x="1031.03" y="0">17</tspan><tspan x="1085.85" y="0">18</tspan><tspan x="1153.44" y="0">19</tspan><tspan x="1208.26" y="0">20</tspan><tspan x="1262.61" y="0">21</tspan><tspan x="-185.735" y="122.932">is_complemented</tspan><tspan x="73.7059" y="122.932">rightmost</tspan><tspan x="260.495" y="122.932">leftmost</tspan><tspan x="422.191" y="122.932">positions[0]</tspan><tspan x="604.859" y="122.932">positions[1]</tspan><tspan x="792.546" y="122.932">positions[2]</tspan><tspan x="971.848" y="122.932">positions[3]</tspan><tspan x="1187.81" y="122.932">count</tspan></text></g></svg>