<svg width="1545" height="191" xmlns="http://www.w3.org/2000/svg" xmlns:xlink="http://www.w3.org/1999/xlink" overflow="hidden"><defs><clipPath id="clip0"><path d="M0 0 1545 0 1545 191 0 191Z" fill-rule="evenodd" clip-rule="evenodd"/></clipPath></defs><g clip-path="url(#clip0)"><rect x="0" y="0" width="1545" height="190.895" fill="#FFFFFF" transform="scale(1 1.00055)"/><rect x="0" y="0" width="55.0001" height="54.9698" stroke="#3B3838" stroke-width="4.0013" stroke-linejoin="round" stroke-miterlimit="10" fill="#F2F2F2" transform="matrix(1 0 -0 1.00055 178 60)"/><text font-family="Calibri,Calibri_MSFontService,sans-serif" font-weight="400" font-size="37" transform="matrix(1 0 0 1.00055 197.057 100)">x</text><rect x="0" y="0" width="55.0001" height="54.9698" stroke="#3B3838" stroke-width="4.0013" stroke-linejoin="round" stroke-miterlimit="10" fill="#F2F2F2" transform="matrix(1 0 -0 1.00055 250 60)"/><text font-family="Calibri,Calibri_MSFontService,sans-serif" font-weight="400" font-size="37" transform="matrix(1 0 0 1.00055 267.744 100)">0</text><rect x="0" y="0" width="53.9999" height="54.9698" stroke="#3B3838" stroke-width="4.0013" stroke-linejoin="round" stroke-miterlimit="10" fill="#F2F2F2" transform="matrix(1 0 -0 1.00055 305 60)"/><text font-family="Calibri,Calibri_MSFontService,sans-serif" font-weight="400" font-size="37" transform="matrix(1 0 0 1.00055 322.565 100)">0</text><rect x="0" y="0" width="55.0001" height="54.9698" stroke="#3B3838" stroke-width="4.0013" stroke-linejoin="round" stroke-miterlimit="10" fill="#F2F2F2" transform="matrix(1 0 -0 1.00055 359 60)"/><text font-family="Calibri,Calibri_MSFontService,sans-serif" font-weight="400" font-size="37" transform="matrix(1 0 0 1.00055 377.386 100)">0</text><rect x="0" y="0" width="55" height="54.9698" stroke="#3B3838" stroke-width="4.0013" stroke-linejoin="round" stroke-miterlimit="10" fill="#F2F2F2" transform="matrix(1 0 -0 1.00055 429 60)"/><text font-family="Calibri,Calibri_MSFontService,sans-serif" font-weight="400" font-size="37" transform="matrix(1 0 0 1.00055 447.018 100)">0</text><rect x="0" y="0" width="55.0001" height="54.9698" stroke="#3B3838" stroke-width="4.0013" stroke-linejoin="round" stroke-miterlimit="10" fill="#F2F2F2" transform="matrix(1 0 -0 1.00055 484 60)"/><text font-family="Calibri,Calibri_MSFontService,sans-serif" font-weight="400" font-size="37" transform="matrix(1 0 0 1.00055 501.839 100)">1</text><rect x="0" y="0" width="53.9999" height="54.9698" stroke="#3B3838" stroke-width="4.0013" stroke-linejoin="round" stroke-miterlimit="10" fill="#F2F2F2" transform="matrix(1 0 -0 1.00055 539 60)"/><text font-family="Calibri,Calibri_MSFontService,sans-serif" font-weight="400" font-size="37" transform="matrix(1 0 0 1.00055 556.659 100)">0</text><rect x="0" y="0" width="55.0001" height="54.9698" stroke="#3B3838" stroke-width="4.0013" stroke-linejoin="round" stroke-miterlimit="10" fill="#F2F2F2" transform="matrix(1 0 -0 1.00055 612 60)"/><text font-family="Calibri,Calibri_MSFontService,sans-serif" font-weight="400" font-size="37" transform="matrix(1 0 0 1.00055 630.113 100)">1</text><rect x="0" y="0" width="55" height="54.9698" stroke="#3B3838" stroke-width="4.0013" stroke-linejoin="round" stroke-miterlimit="10" fill="#F2F2F2" transform="matrix(1 0 -0 1.00055 667 60)"/><text font-family="Calibri,Calibri_MSFontService,sans-serif" font-weight="400" font-size="37" transform="matrix(1 0 0 1.00055 684.934 100)">1</text><rect x="0" y="0" width="55.0001" height="54.9698" stroke="#3B3838" stroke-width="4.0013" stroke-linejoin="round" stroke-miterlimit="10" fill="#F2F2F2" transform="matrix(1 0 -0 1.00055 722 60)"/><text font-family="Calibri,Calibri_MSFontService,sans-serif" font-weight="400" font-size="37" transform="matrix(1 0 0 1.00055 739.755 100)">0</text><rect x="0" y="0" width="55.0001" height="54.9698" stroke="#3B3838" stroke-width="4.0013" stroke-linejoin="round" stroke-miterlimit="10" fill="#F2F2F2" transform="matrix(1 0 -0 1.00055 795 60)"/><text font-family="Calibri,Calibri_MSFontService,sans-serif" font-weight="400" font-size="37" transform="matrix(1 0 0 1.00055 812.732 100)">0</text><rect x="0" y="0" width="53.9999" height="54.9698" stroke="#3B3838" stroke-width="4.0013" stroke-linejoin="round" stroke-miterlimit="10" fill="#F2F2F2" transform="matrix(1 0 -0 1.00055 850 60)"/><text font-family="Calibri,Calibri_MSFontService,sans-serif" font-weight="400" font-size="37" transform="matrix(1 0 0 1.00055 867.552 100)">0</text><rect x="0" y="0" width="55.0001" height="54.9698" stroke="#3B3838" stroke-width="4.0013" stroke-linejoin="round" stroke-miterlimit="10" fill="#F2F2F2" transform="matrix(1 0 -0 1.00055 904 60)"/><text font-family="Calibri,Calibri_MSFontService,sans-serif" font-weight="400" font-size="37" transform="matrix(1 0 0 1.00055 922.373 100)">0</text><rect x="0" y="0" width="55.0001" height="54.9698" stroke="#3B3838" stroke-width="4.0013" stroke-linejoin="round" stroke-miterlimit="10" fill="#F2F2F2" transform="matrix(1 0 -0 1.00055 977 60)"/><text font-family="Calibri,Calibri_MSFontService,sans-serif" font-weight="400" font-size="37" transform="matrix(1 0 0 1.00055 995.35 100)">1</text><rect x="0" y="0" width="55" height="54.9698" stroke="#3B3838" stroke-width="4.0013" stroke-linejoin="round" stroke-miterlimit="10" fill="#F2F2F2" transform="matrix(1 0 -0 1.00055 1032 60)"/><text font-family="Calibri,Calibri_MSFontService,sans-serif" font-weight="400" font-size="37" transform="matrix(1 0 0 1.00055 1050.17 100)">0</text><rect x="0" y="0" width="55.0001" height="54.9698" stroke="#3B3838" stroke-width="4.0013" stroke-linejoin="round" stroke-miterlimit="10" fill="#F2F2F2" transform="matrix(1 0 -0 1.00055 1087 60)"/><text font-family="Calibri,Calibri_MSFontService,sans-serif" font-weight="400" font-size="37" transform="matrix(1 0 0 1.00055 1104.99 100)">0</text><rect x="0" y="0" width="54" height="54.9698" stroke="#3B3838" stroke-width="4.0013" stroke-linejoin="round" stroke-miterlimit="10" fill="#F2F2F2" transform="matrix(1 0 -0 1.00055 1160 60)"/><text font-family="Calibri,Calibri_MSFontService,sans-serif" font-weight="400" font-size="37" transform="matrix(1 0 0 1.00055 1177.5 100)">0</text><rect x="0" y="0" width="55" height="54.9698" stroke="#3B3838" stroke-width="4.0013" stroke-linejoin="round" stroke-miterlimit="10" fill="#F2F2F2" transform="matrix(1 0 -0 1.00055 1214 60)"/><text font-family="Calibri,Calibri_MSFontService,sans-serif" font-weight="400" font-size="37" transform="matrix(1 0 0 1.00055 1232.32 100)">1</text><rect x="0" y="0" width="55.0001" height="54.9698" stroke="#3B3838" stroke-width="4.0013" stroke-linejoin="round" stroke-miterlimit="10" fill="#F2F2F2" transform="matrix(1 0 -0 1.00055 1269 60)"/><text font-family="Calibri,Calibri_MSFontService,sans-serif" font-weight="400" font-size="37" transform="matrix(1 0 0 1.00055 1287.14 100)">0</text><rect x="0" y="0" width="55" height="54.9698" stroke="#3B3838" stroke-width="4.0013" stroke-linejoin="round" stroke-miterlimit="10" fill="#F2F2F2" transform="matrix(1 0 -0 1.00055 1339 60)"/><text font-family="Calibri,Calibri_MSFontService,sans-serif" font-weight="400" font-size="37" transform="matrix(1 0 0 1.00055 1356.77 100)">1</text><rect x="0" y="0" width="54" height="54.9698" stroke="#3B3838" stroke-width="4.0013" stroke-linejoin="round" stroke-miterlimit="10" fill="#F2F2F2" transform="matrix(1 0 -0 1.00055 1394 60)"/><text font-family="Calibri,Calibri_MSFontService,sans-serif" font-weight="400" font-size="37" transform="matrix(1 0 0 1.00055 1411.59 100)">1</text><rect x="0" y="0" width="55" height="54.9698" stroke="#3B3838" stroke-width="4.0013" stroke-linejoin="round" stroke-miterlimit="10" fill="#F2F2F2" transform="matrix(1 0 -0 1.00055 1448 60)"/><text font-family="Calibri,Calibri_MSFontService,sans-serif" font-weight="400" font-size="37" transform="matrix(1 0 0 1.00055 1466.41 100)">0<tspan font-size="32" x="-1271.07" y="-52.9709">0</tspan><tspan font-size="32" x="-1199.52" y="-52.9709">1</tspan><tspan font-size="32" x="-1143.76" y="-52.9709">2</tspan><tspan font-size="32" x="-1089.17" y="-52.9709">3</tspan><tspan font-size="32" x="-1020.37" y="-52.9709">4</tspan><tspan font-size="32" x="-966.018" y="-52.9709">5</tspan><tspan font-size="32" x="-910.255" y="-52.9709">6</tspan><tspan font-size="32" x="-837.036" y="-52.9709">7</tspan><tspan font-size="32" x="-780.171" y="-52.9709">8</tspan><tspan font-size="32" x="-725.821" y="-52.9709">9</tspan><tspan font-size="32" x="-661.95" y="-52.9709">10</tspan><tspan font-size="32" x="-607.129" y="-52.9709">11</tspan><tspan font-size="32" x="-551.165" y="-52.9709">12</tspan><tspan font-size="32" x="-480.274" y="-52.9709">13</tspan><tspan font-size="32" x="-423.132" y="-52.9709">14</tspan><tspan font-size="32" x="-367.368" y="-52.9709">15</tspan><tspan font-size="32" x="-294.039" y="-52.9709">16</tspan><tspan font-size="32" x="-240.042" y="-52.9709">17</tspan><tspan font-size="32" x="-185.222" y="-52.9709">18</tspan><tspan font-size="32" x="-117.635" y="-52.9709">19</tspan><tspan font-size="32" x="-62.8136" y="-52.9709">20</tspan><tspan font-size="32" x="-8.46411" y="-52.9709">21</tspan><tspan font-size="32" x="-1412" y="69.9616">complement</tspan><tspan font-size="32" x="-1197.37" y="69.9616">rightmost</tspan><tspan font-size="32" x="-1010.58" y="69.9616">leftmost</tspan><tspan font-size="32" x="-848.882" y="69.9616">positions[0]</tspan><tspan font-size="32" x="-666.214" y="69.9616">positions[1]</tspan><tspan font-size="32" x="-478.527" y="69.9616">positions[2]</tspan><tspan font-size="32" x="-299.225" y="69.9616">positions[3]</tspan><tspan font-size="32" x="-83.2621" y="69.9616">count</tspan></text></g></svg>