<svg width="1965" height="985" xmlns="http://www.w3.org/2000/svg" xmlns:xlink="http://www.w3.org/1999/xlink" overflow="hidden"><defs><clipPath id="clip0"><rect x="0" y="0" width="1965" height="985"/></clipPath></defs><g clip-path="url(#clip0)"><rect x="0" y="0" width="1965" height="984.667" fill="#FFFFFF"/><path d="M974.101 97.8358C953.542 85.6718 966.976 91.6657 953.075 83.0274 939.174 74.3892 903.02 56.5839 890.696 46.0065 878.372 35.4291 883.045 25.6157 879.132 19.563 875.218 13.5103 874.926 11.8062 867.217 9.69075 859.507 7.57527 841.05 2.16907 832.873 6.87011 824.696 11.5712 819.031 27.3198 818.155 37.8972 817.279 48.4746 820.082 64.1644 827.617 70.3345 835.151 76.5047 844.964 68.8654 863.362 74.9181 881.76 80.9707 911.372 91.6657 938.006 106.65 964.639 121.635 1017.73 155.248 1023.16 164.826 1028.59 174.405 983.738 167.177 970.597 164.121 957.455 161.065 953.542 150.37 944.314 146.492 935.085 142.613 923.404 138.383 915.227 140.851 907.05 143.319 898.347 153.191 895.252 161.3 892.156 169.41 891.163 180.868 896.654 189.507 902.144 198.145 916.629 211.543 928.193 213.13 939.758 214.716 948.928 200.319 966.041 199.026 983.154 197.734 1030.87 205.373 1030.87 205.373 1047.52 207.018 1057.33 205.079 1065.92 208.899 1074.5 212.718 1077.31 224.353 1082.39 228.29 1087.47 232.228 1088.75 234.284 1096.41 232.521 1104.06 230.759 1122.86 226.058 1128.3 217.713 1133.73 209.369 1132.5 191.681 1129 182.455 1125.49 173.229 1116.03 166.765 1107.27 162.358 1098.51 157.951 1098.51 166.765 1076.43 156.012 1054.35 145.258 994.661 110 974.101 97.8358Z" stroke="#000000" stroke-width="1.99966" stroke-miterlimit="8" stroke-dasharray="15.9973 5.99898" fill="#FFF2CC" fill-rule="evenodd"/><path d="M887.918 302.222C866.836 296.5 885.113 300.813 862.409 303.014 839.706 305.215 840.407 299.493 835.323 291.659 830.238 283.825 828.178 264.591 831.904 256.009 835.63 247.426 848.033 240.296 857.676 240.164 867.318 240.032 882.527 248.395 889.759 255.216 896.991 262.038 895.019 275.022 901.067 281.096 907.116 287.169 899.884 283.076 926.05 291.659 952.217 300.241 1025.98 325.328 1058.07 332.59 1090.15 339.852 1105.4 329.641 1118.55 335.231 1131.7 340.821 1136.26 357.677 1136.96 366.128 1137.66 374.578 1129.29 381.972 1122.76 385.933 1116.23 389.895 1108.51 393.24 1097.77 389.895 1087.04 386.55 1076.87 372.862 1058.33 365.864 1039.79 358.866 1017.3 347.951 988.902 337.344 960.5 326.737 909 307.943 887.918 302.222Z" stroke="#000000" stroke-width="1.99966" stroke-miterlimit="8" stroke-dasharray="15.9973 5.99898" fill="#FFF2CC" fill-rule="evenodd"/><path d="M1112.73 57.4411C1108.21 57.9697 1107.77 59.2032 1104.83 62.4632 1101.89 65.7231 1096.32 69.5998 1095.09 77.0008 1093.86 84.4018 1092.68 100.217 1097.46 106.869 1102.24 113.521 1114.88 118.015 1123.78 116.913 1132.69 115.812 1146.68 107.442 1150.9 100.261 1155.11 93.0803 1152.21 80.6572 1149.05 73.829 1145.89 67.0007 1137.56 62.1548 1131.94 59.2913 1126.33 56.4278 1117.25 56.9124 1112.73 57.4411Z" stroke="#000000" stroke-width="1.99966" stroke-miterlimit="8" stroke-dasharray="15.9973 5.99898" fill="#FFF2CC" fill-rule="evenodd"/><path d="M842 59.0399 857.809 249.401" stroke="#D9D9D9" stroke-width="3.99932" stroke-miterlimit="8" fill="none" fill-rule="evenodd"/><path d="M858 58.0393 914.827 156.299" stroke="#D9D9D9" stroke-width="3.99932" stroke-miterlimit="8" fill="none" fill-rule="evenodd"/><path d="M0 0 38.8691 63.4138" stroke="#D9D9D9" stroke-width="3.99932" stroke-miterlimit="8" fill="none" fill-rule="evenodd" transform="matrix(-1 0 0 1.00068 909.869 189.128)"/><path d="M0 0 196.687 59.2038" stroke="#D9D9D9" stroke-width="3.99932" stroke-miterlimit="8" fill="none" fill-rule="evenodd" transform="matrix(-1 0 0 1.00068 1078.69 205.139)"/><path d="M0 0 12.12 68.5046" stroke="#D9D9D9" stroke-width="3.99932" stroke-miterlimit="8" fill="none" fill-rule="evenodd" transform="matrix(1 0 0 -1.00068 1103 174.623)"/><path d="M870 38.0257 1101.86 80.2109" stroke="#D9D9D9" stroke-width="3.99932" stroke-miterlimit="8" fill="none" fill-rule="evenodd"/><path d="M827 40.0271C827 28.4213 836.402 19.0129 848 19.0129 859.598 19.0129 869 28.4213 869 40.0271 869 51.633 859.598 61.0414 848 61.0414 836.402 61.0414 827 51.633 827 40.0271Z" stroke="#000000" stroke-width="3.99932" stroke-miterlimit="8" fill="#D9D9D9" fill-rule="evenodd"/><path d="M842 272.184C842 260.578 851.402 251.17 863 251.17 874.598 251.17 884 260.578 884 272.184 884 283.79 874.598 293.198 863 293.198 851.402 293.198 842 283.79 842 272.184Z" stroke="#000000" stroke-width="3.99932" stroke-miterlimit="8" fill="#D9D9D9" fill-rule="evenodd"/><path d="M905 174.118C905 162.512 914.402 153.104 926 153.104 937.598 153.104 947 162.512 947 174.118 947 185.724 937.598 195.132 926 195.132 914.402 195.132 905 185.724 905 174.118Z" stroke="#000000" stroke-width="3.99932" stroke-miterlimit="8" fill="#D9D9D9" fill-rule="evenodd"/><path d="M1077 195.132C1077 183.526 1086.4 174.118 1098 174.118 1109.6 174.118 1119 183.526 1119 195.132 1119 206.738 1109.6 216.146 1098 216.146 1086.4 216.146 1077 206.738 1077 195.132Z" stroke="#000000" stroke-width="3.99932" stroke-miterlimit="8" fill="#D9D9D9" fill-rule="evenodd"/><path d="M1101 87.059C1101 75.4532 1110.4 66.0448 1122 66.0448 1133.6 66.0448 1143 75.4532 1143 87.059 1143 98.6648 1133.6 108.073 1122 108.073 1110.4 108.073 1101 98.6648 1101 87.059Z" stroke="#000000" stroke-width="3.99932" stroke-miterlimit="8" fill="#D9D9D9" fill-rule="evenodd"/><path d="M1084 364.247C1084 352.641 1093.4 343.232 1105 343.232 1116.6 343.232 1126 352.641 1126 364.247 1126 375.852 1116.6 385.261 1105 385.261 1093.4 385.261 1084 375.852 1084 364.247Z" stroke="#000000" stroke-width="3.99932" stroke-miterlimit="8" fill="#D9D9D9" fill-rule="evenodd"/><path d="M1077.07 191.019 947 178.121" stroke="#000000" stroke-width="3.99932" stroke-miterlimit="8" fill="none" fill-rule="evenodd"/><path d="M1084.04 357.384 880 284.192" stroke="#000000" stroke-width="3.99932" stroke-miterlimit="8" fill="none" fill-rule="evenodd"/><path d="M866 51.0345 1082.05 179.7" stroke="#000000" stroke-width="3.99932" stroke-miterlimit="8" fill="none" fill-rule="evenodd"/><text fill="#D9D9D9" font-family="Calibri,Calibri_MSFontService,sans-serif" font-weight="400" font-size="27" transform="matrix(1 0 0 1.00068 1112.4 154)">7<tspan fill="#000000" font-size="27" x="-121.629" y="-27.981">4</tspan><tspan font-size="27" x="-114.713" y="-92.937">8</tspan><tspan fill="#000000" font-size="27" x="-133.665" y="25.9824">3</tspan><tspan font-size="27" x="-219.805" y="-35.9756">10</tspan><tspan font-size="27" x="-293.938" y="4.99661">12</tspan><tspan font-size="27" x="-234.983" y="64.956">6</tspan><tspan font-size="27" x="-138.426" y="106.928">8</tspan><tspan fill="#000000" font-size="27" x="-148.846" y="191.87">4</tspan></text><path d="M947.478 658.254C949.818 648.872 953.914 628.173 958.01 618.85 962.106 609.526 969.245 609.35 972.054 602.314 974.862 595.277 977.613 584.84 974.862 576.631 972.112 568.422 964.915 556.166 955.553 553.059 946.19 549.951 939.929 558.571 918.688 557.984 897.448 557.398 863.568 554.642 828.108 549.54 792.648 544.439 731.793 534.119 705.929 527.376 680.066 520.632 684.747 511.016 672.927 509.081 661.107 507.146 640.92 508.905 635.01 515.766 629.1 522.626 632.962 540.1 637.467 550.244 641.973 560.388 651.511 571.94 662.043 576.631 672.576 581.322 683.401 571.647 700.663 578.39 717.925 585.133 739.224 602.255 765.614 617.09 792.004 631.926 855.61 659.778 859.003 667.401 862.397 675.024 803.122 666.052 785.977 662.827 768.833 659.602 764.502 651.159 756.135 648.051 747.767 644.943 742.501 642.187 735.772 644.181 729.043 646.174 719.388 653.563 715.76 660.013 712.132 666.463 717.925 671.154 714.004 682.881 710.084 694.609 701.892 719.354 692.237 730.377 682.582 741.401 663.74 740.346 656.075 749.024 648.41 757.702 643.611 772.655 646.245 782.447 648.878 792.239 662.629 804.084 671.874 807.778 681.119 811.472 688.843 802.677 701.716 804.612 714.59 806.547 723.484 811.472 749.113 819.388 774.742 827.305 830.624 841.729 855.493 852.108 880.361 862.487 887.851 873.921 898.325 881.661 908.799 889.401 909.268 897.904 918.337 898.549 927.407 899.194 947.126 894.62 952.744 885.531 958.361 876.442 957.308 852.812 952.042 844.016 946.775 835.22 934.487 834.517 921.146 832.758 907.805 830.999 904.352 841.964 871.994 833.461 839.635 824.959 747.767 793.471 726.995 781.743 706.222 770.016 719.856 772.479 747.358 763.097 774.859 753.715 860.993 731.609 892.006 725.452 923.018 719.295 923.428 730.729 933.434 726.155 943.44 721.582 950.286 706.512 952.042 698.01 953.797 689.507 944.61 681.884 943.967 675.141 943.323 668.398 945.137 667.636 947.478 658.254Z" stroke="#000000" stroke-width="1.99966" stroke-miterlimit="8" stroke-dasharray="15.9973 5.99898" fill="#FFF2CC" fill-rule="evenodd"/><path d="M662 558.378 677.809 748.739" stroke="#D9D9D9" stroke-width="3.99932" stroke-miterlimit="8" fill="none" fill-rule="evenodd"/><path d="M678 557.377 734.827 655.637" stroke="#D9D9D9" stroke-width="3.99932" stroke-miterlimit="8" fill="none" fill-rule="evenodd"/><path d="M0 0 38.8691 63.4138" stroke="#000000" stroke-width="3.99932" stroke-miterlimit="8" fill="none" fill-rule="evenodd" transform="matrix(-1 0 0 1.00068 730.869 688.466)"/><path d="M0 0 196.687 59.2038" stroke="#000000" stroke-width="3.99932" stroke-miterlimit="8" fill="none" fill-rule="evenodd" transform="matrix(-1 0 0 1.00068 899.687 704.477)"/><path d="M0 0 12.12 68.5046" stroke="#000000" stroke-width="3.99932" stroke-miterlimit="8" fill="none" fill-rule="evenodd" transform="matrix(1 0 0 -1.00068 924 673.961)"/><path d="M690 537.364 921.862 579.549" stroke="#000000" stroke-width="3.99932" stroke-miterlimit="8" fill="none" fill-rule="evenodd"/><path d="M647 539.365C647 527.759 656.402 518.351 668 518.351 679.598 518.351 689 527.759 689 539.365 689 550.971 679.598 560.38 668 560.38 656.402 560.38 647 550.971 647 539.365Z" stroke="#000000" stroke-width="3.99932" stroke-miterlimit="8" fill="#D9D9D9" fill-rule="evenodd"/><path d="M662 771.522C662 759.917 671.402 750.508 683 750.508 694.598 750.508 704 759.917 704 771.522 704 783.128 694.598 792.537 683 792.537 671.402 792.537 662 783.128 662 771.522Z" stroke="#000000" stroke-width="3.99932" stroke-miterlimit="8" fill="#D9D9D9" fill-rule="evenodd"/><path d="M725 673.456C725 661.85 734.402 652.442 746 652.442 757.598 652.442 767 661.85 767 673.456 767 685.062 757.598 694.47 746 694.47 734.402 694.47 725 685.062 725 673.456Z" stroke="#000000" stroke-width="3.99932" stroke-miterlimit="8" fill="#D9D9D9" fill-rule="evenodd"/><path d="M897 694.47C897 682.864 906.402 673.456 918 673.456 929.598 673.456 939 682.864 939 694.47 939 706.076 929.598 715.484 918 715.484 906.402 715.484 897 706.076 897 694.47Z" stroke="#000000" stroke-width="3.99932" stroke-miterlimit="8" fill="#D9D9D9" fill-rule="evenodd"/><path d="M922 586.397C922 574.791 931.402 565.383 943 565.383 954.598 565.383 964 574.791 964 586.397 964 598.003 954.598 607.411 943 607.411 931.402 607.411 922 598.003 922 586.397Z" stroke="#000000" stroke-width="3.99932" stroke-miterlimit="8" fill="#D9D9D9" fill-rule="evenodd"/><path d="M904 863.585C904 851.979 913.402 842.57 925 842.57 936.598 842.57 946 851.979 946 863.585 946 875.191 936.598 884.599 925 884.599 913.402 884.599 904 875.191 904 863.585Z" stroke="#000000" stroke-width="3.99932" stroke-miterlimit="8" fill="#D9D9D9" fill-rule="evenodd"/><path d="M897.065 690.357 767 677.459" stroke="#000000" stroke-width="3.99932" stroke-miterlimit="8" fill="none" fill-rule="evenodd"/><path d="M904.038 856.722 700 783.531" stroke="#000000" stroke-width="3.99932" stroke-miterlimit="8" fill="none" fill-rule="evenodd"/><path d="M686 550.373 902.053 679.038" stroke="#000000" stroke-width="3.99932" stroke-miterlimit="8" fill="none" fill-rule="evenodd"/><text font-family="Calibri,Calibri_MSFontService,sans-serif" font-weight="400" font-size="27" transform="matrix(1 0 0 1.00068 932.584 654)">7<tspan font-size="27" x="-121.629" y="-27.981">4</tspan><tspan font-size="27" x="-114.713" y="-93.9364">8</tspan><tspan font-size="27" x="-133.665" y="25.9824">3</tspan><tspan fill="#D9D9D9" font-size="27" x="-219.805" y="-35.9756">10</tspan><tspan fill="#D9D9D9" font-size="27" x="-293.938" y="4.99661">12</tspan><tspan font-size="27" x="-234.984" y="63.9567">6</tspan><tspan font-size="27" x="-130.74" y="107.927">8</tspan><tspan font-size="27" x="-148.846" y="191.87">4</tspan></text><path d="M692.045 335.629C687.45 336.158 687.004 337.392 684.015 340.651 681.026 343.911 675.36 347.788 674.11 355.189 672.861 362.59 671.657 378.405 676.52 385.057 681.383 391.71 694.231 396.203 703.288 395.102 712.345 394 726.577 385.63 730.86 378.449 735.143 371.269 732.198 358.846 728.986 352.017 725.774 345.189 717.297 340.343 711.586 337.48 705.876 334.616 696.641 335.101 692.045 335.629Z" stroke="#000000" stroke-width="1.99966" stroke-miterlimit="8" stroke-dasharray="15.9973 5.99898" fill="#FFF2CC" fill-rule="evenodd"/><path d="M450.728 241.566C446.209 242.094 445.771 243.328 442.831 246.588 439.892 249.848 434.32 253.724 433.092 261.125 431.864 268.526 430.679 284.342 435.461 290.994 440.243 297.646 452.878 302.139 461.783 301.038 470.689 299.937 484.684 291.566 488.895 284.386 493.107 277.205 490.211 264.782 487.053 257.954 483.894 251.125 475.559 246.279 469.943 243.416 464.328 240.552 455.247 241.037 450.728 241.566Z" stroke="#000000" stroke-width="1.99966" stroke-miterlimit="8" stroke-dasharray="15.9973 5.99898" fill="#FFF2CC" fill-rule="evenodd"/><path d="M711.728 56.4403C707.209 56.969 706.771 58.2025 703.831 61.4624 700.892 64.7224 695.32 68.5991 694.092 76.0001 692.864 83.4011 691.679 99.2163 696.461 105.868 701.243 112.52 713.878 117.014 722.783 115.913 731.689 114.811 745.684 106.441 749.895 99.2603 754.107 92.0796 751.211 79.6565 748.053 72.8282 744.894 65.9999 736.559 61.1541 730.943 58.2906 725.328 55.4271 716.247 55.9117 711.728 56.4403Z" stroke="#000000" stroke-width="1.99966" stroke-miterlimit="8" stroke-dasharray="15.9973 5.99898" fill="#FFF2CC" fill-rule="evenodd"/><path d="M572.598 97.8358C551.974 85.6718 565.45 91.6657 551.505 83.0274 537.56 74.3892 501.291 56.5839 488.928 46.0065 476.564 35.4291 481.252 25.6157 477.326 19.563 473.4 13.5103 473.107 11.8062 465.373 9.69075 457.639 7.57527 439.124 2.16907 430.921 6.87011 422.718 11.5712 417.034 27.3198 416.155 37.8972 415.276 48.4746 418.089 64.1644 425.647 70.3345 433.206 76.5047 443.049 68.8654 461.506 74.9181 479.963 80.9707 509.669 91.6657 536.388 106.65 563.106 121.635 616.367 155.248 621.816 164.826 627.266 174.405 582.266 167.177 569.083 164.121 555.899 161.065 551.974 150.37 542.716 146.492 533.458 142.613 521.74 138.383 513.537 140.851 505.334 143.319 496.603 153.191 493.498 161.3 490.392 169.41 489.396 180.868 494.904 189.507 500.412 198.145 514.943 211.543 526.544 213.13 538.146 214.716 547.345 200.319 564.513 199.026 581.68 197.734 629.551 205.373 629.551 205.373 646.25 207.018 656.093 205.079 664.706 208.899 673.32 212.718 676.132 224.353 681.23 228.29 686.327 232.228 687.616 234.284 695.292 232.521 702.968 230.759 721.835 226.058 727.284 217.713 732.733 209.369 731.502 191.681 727.987 182.455 724.471 173.229 714.979 166.765 706.19 162.358 697.401 157.951 697.401 166.765 675.253 156.012 653.105 145.258 593.223 110 572.598 97.8358Z" stroke="#000000" stroke-width="1.99966" stroke-miterlimit="8" stroke-dasharray="15.9973 5.99898" fill="#FFF2CC" fill-rule="evenodd"/><path d="M440 59.0399 455.809 249.401" stroke="#D9D9D9" stroke-width="3.99932" stroke-miterlimit="8" fill="none" fill-rule="evenodd"/><path d="M456 58.0393 512.826 156.299" stroke="#D9D9D9" stroke-width="3.99932" stroke-miterlimit="8" fill="none" fill-rule="evenodd"/><path d="M0 0 38.8691 63.4138" stroke="#D9D9D9" stroke-width="3.99932" stroke-miterlimit="8" fill="none" fill-rule="evenodd" transform="matrix(-1 0 0 1.00068 508.869 189.128)"/><path d="M0 0 196.687 59.2038" stroke="#D9D9D9" stroke-width="3.99932" stroke-miterlimit="8" fill="none" fill-rule="evenodd" transform="matrix(-1 0 0 1.00068 677.687 205.139)"/><path d="M0 0 12.12 68.5046" stroke="#D9D9D9" stroke-width="3.99932" stroke-miterlimit="8" fill="none" fill-rule="evenodd" transform="matrix(1 0 0 -1.00068 702 174.623)"/><path d="M468 38.0257 699.862 80.2109" stroke="#D9D9D9" stroke-width="3.99932" stroke-miterlimit="8" fill="none" fill-rule="evenodd"/><path d="M425 40.0271C425 28.4213 434.402 19.0129 446 19.0129 457.598 19.0129 467 28.4213 467 40.0271 467 51.633 457.598 61.0414 446 61.0414 434.402 61.0414 425 51.633 425 40.0271Z" stroke="#000000" stroke-width="3.99932" stroke-miterlimit="8" fill="#D9D9D9" fill-rule="evenodd"/><path d="M440 272.184C440 260.578 449.402 251.17 461 251.17 472.598 251.17 482 260.578 482 272.184 482 283.79 472.598 293.198 461 293.198 449.402 293.198 440 283.79 440 272.184Z" stroke="#000000" stroke-width="3.99932" stroke-miterlimit="8" fill="#D9D9D9" fill-rule="evenodd"/><path d="M503 174.118C503 162.512 512.402 153.104 524 153.104 535.598 153.104 545 162.512 545 174.118 545 185.724 535.598 195.132 524 195.132 512.402 195.132 503 185.724 503 174.118Z" stroke="#000000" stroke-width="3.99932" stroke-miterlimit="8" fill="#D9D9D9" fill-rule="evenodd"/><path d="M675 195.132C675 183.526 684.402 174.118 696 174.118 707.598 174.118 717 183.526 717 195.132 717 206.738 707.598 216.146 696 216.146 684.402 216.146 675 206.738 675 195.132Z" stroke="#000000" stroke-width="3.99932" stroke-miterlimit="8" fill="#D9D9D9" fill-rule="evenodd"/><path d="M700 87.059C700 75.4532 709.402 66.0448 721 66.0448 732.598 66.0448 742 75.4532 742 87.059 742 98.6648 732.598 108.073 721 108.073 709.402 108.073 700 98.6648 700 87.059Z" stroke="#000000" stroke-width="3.99932" stroke-miterlimit="8" fill="#D9D9D9" fill-rule="evenodd"/><path d="M682 364.247C682 352.641 691.402 343.232 703 343.232 714.598 343.232 724 352.641 724 364.247 724 375.852 714.598 385.261 703 385.261 691.402 385.261 682 375.852 682 364.247Z" stroke="#000000" stroke-width="3.99932" stroke-miterlimit="8" fill="#D9D9D9" fill-rule="evenodd"/><path d="M675.065 191.019 545 178.121" stroke="#000000" stroke-width="3.99932" stroke-miterlimit="8" fill="none" fill-rule="evenodd"/><path d="M682.038 357.384 478 284.192" stroke="#D9D9D9" stroke-width="3.99932" stroke-miterlimit="8" fill="none" fill-rule="evenodd"/><path d="M464 51.0345 680.053 179.7" stroke="#000000" stroke-width="3.99932" stroke-miterlimit="8" fill="none" fill-rule="evenodd"/><text fill="#D9D9D9" font-family="Calibri,Calibri_MSFontService,sans-serif" font-weight="400" font-size="27" transform="matrix(1 0 0 1.00068 710.634 154)">7<tspan fill="#000000" font-size="27" x="-121.629" y="-27.981">4</tspan><tspan font-size="27" x="-114.713" y="-92.937">8</tspan><tspan fill="#000000" font-size="27" x="-133.665" y="25.9824">3</tspan><tspan font-size="27" x="-219.805" y="-35.9756">10</tspan><tspan font-size="27" x="-293.938" y="4.99661">12</tspan><tspan font-size="27" x="-234.983" y="64.956">6</tspan><tspan font-size="27" x="-138.426" y="106.928">8</tspan><tspan font-size="27" x="-148.846" y="191.87">4</tspan></text><path d="M201.283 168.905C182.947 166.917 167.863 165.252 157.469 160.849 147.075 156.445 146.009 146.616 138.92 142.481 131.831 138.346 122.77 132.868 114.934 136.036 107.099 139.205 94.8397 153.222 91.9081 161.493 88.9765 169.764 93.7737 179.216 97.3449 185.661 100.916 192.106 106.033 198.497 113.335 200.162 120.638 201.826 133.43 197.798 141.159 195.65 148.888 193.502 142.385 187.433 159.708 187.272 177.031 187.111 226.868 190.118 245.097 194.684 263.326 199.249 261.194 210.097 269.083 214.662 276.972 219.227 283.634 222.718 292.429 222.074 301.224 221.429 315.829 217.079 321.852 210.795 327.875 204.512 330.007 192.858 328.568 184.372 327.129 175.886 320.573 164.178 313.217 159.882 305.861 155.585 292.056 156.445 284.434 158.593 276.812 160.741 281.342 171.16 267.484 172.771 253.626 174.383 219.619 170.892 201.283 168.905Z" stroke="#000000" stroke-width="1.99966" stroke-miterlimit="8" stroke-dasharray="15.9973 5.99898" fill="#FFF2CC" fill-rule="evenodd"/><path d="M35.7279 5.40583C31.2092 5.93447 30.7705 7.16797 27.8312 10.4279 24.8918 13.6879 19.3203 17.5646 18.0919 24.9656 16.8635 32.3666 15.679 48.1818 20.4609 54.8338 25.2428 61.4859 37.8776 65.9794 46.7833 64.878 55.6891 63.7767 69.6838 55.4065 73.8954 48.2258 78.107 41.0451 75.2115 28.622 72.0528 21.7937 68.8941 14.9654 60.5587 10.1195 54.9433 7.25607 49.3278 4.3926 40.2466 4.87719 35.7279 5.40583Z" stroke="#000000" stroke-width="1.99966" stroke-miterlimit="8" stroke-dasharray="15.9973 5.99898" fill="#FFF2CC" fill-rule="evenodd"/><path d="M290.728 329.625C286.209 330.154 285.771 331.388 282.831 334.647 279.892 337.907 274.32 341.784 273.092 349.185 271.863 356.586 270.679 372.401 275.461 379.053 280.243 385.706 292.878 390.199 301.783 389.098 310.689 387.996 324.684 379.626 328.895 372.445 333.107 365.265 330.212 352.842 327.053 346.013 323.894 339.185 315.559 334.339 309.943 331.476 304.328 328.612 295.247 329.097 290.728 329.625Z" stroke="#000000" stroke-width="1.99966" stroke-miterlimit="8" stroke-dasharray="15.9973 5.99898" fill="#FFF2CC" fill-rule="evenodd"/><path d="M49.7279 235.562C45.2092 236.09 44.7705 237.324 41.8312 240.584 38.8919 243.844 33.3203 247.72 32.0919 255.121 30.8635 262.522 29.679 278.338 34.4609 284.99 39.2428 291.642 51.8776 296.135 60.7833 295.034 69.689 293.933 83.6838 285.562 87.8953 278.382 92.1069 271.201 89.2115 258.778 86.0528 251.95 82.8941 245.121 74.5587 240.275 68.9432 237.412 63.3278 234.548 54.2466 235.033 49.7279 235.562Z" stroke="#000000" stroke-width="1.99966" stroke-miterlimit="8" stroke-dasharray="15.9973 5.99898" fill="#FFF2CC" fill-rule="evenodd"/><path d="M309.728 51.4303C305.209 51.9501 304.771 53.163 301.831 56.3687 298.892 59.5743 293.32 63.3864 292.092 70.664 290.864 77.9417 289.679 93.4933 294.461 100.035 299.243 106.576 311.878 110.994 320.783 109.911 329.689 108.828 343.684 100.598 347.895 93.5366 352.107 86.4756 349.212 74.2595 346.053 67.545 342.894 60.8305 334.559 56.0654 328.943 53.2497 323.328 50.4339 314.247 50.9104 309.728 51.4303Z" stroke="#000000" stroke-width="1.99966" stroke-miterlimit="8" stroke-dasharray="15.9973 5.99898" fill="#FFF2CC" fill-rule="evenodd"/><path d="M39 54.0366 54.8088 244.397" stroke="#D9D9D9" stroke-width="3.99932" stroke-miterlimit="8" fill="none" fill-rule="evenodd"/><path d="M55 52.0352 111.826 150.295" stroke="#D9D9D9" stroke-width="3.99932" stroke-miterlimit="8" fill="none" fill-rule="evenodd"/><path d="M0 0 38.8691 63.4138" stroke="#D9D9D9" stroke-width="3.99932" stroke-miterlimit="8" fill="none" fill-rule="evenodd" transform="matrix(-1 0 0 1.00068 106.869 183.124)"/><path d="M0 0 196.687 59.2038" stroke="#D9D9D9" stroke-width="3.99932" stroke-miterlimit="8" fill="none" fill-rule="evenodd" transform="matrix(-1 0 0 1.00068 275.687 200.135)"/><path d="M0 0 12.12 68.5046" stroke="#D9D9D9" stroke-width="3.99932" stroke-miterlimit="8" fill="none" fill-rule="evenodd" transform="matrix(1 0 0 -1.00068 300 168.619)"/><path d="M66 32.0217 297.862 74.2069" stroke="#D9D9D9" stroke-width="3.99932" stroke-miterlimit="8" fill="none" fill-rule="evenodd"/><path d="M24 34.023C24 22.4172 33.402 13.0088 45 13.0088 56.598 13.0088 66 22.4172 66 34.023 66 45.6289 56.598 55.0373 45 55.0373 33.402 55.0373 24 45.6289 24 34.023Z" stroke="#000000" stroke-width="3.99932" stroke-miterlimit="8" fill="#D9D9D9" fill-rule="evenodd"/><path d="M38 266.18C38 254.574 47.402 245.166 59 245.166 70.5979 245.166 80 254.574 80 266.18 80 277.786 70.5979 287.195 59 287.195 47.402 287.195 38 277.786 38 266.18Z" stroke="#000000" stroke-width="3.99932" stroke-miterlimit="8" fill="#D9D9D9" fill-rule="evenodd"/><path d="M101 168.114C101 156.508 110.402 147.1 122 147.1 133.598 147.1 143 156.508 143 168.114 143 179.72 133.598 189.128 122 189.128 110.402 189.128 101 179.72 101 168.114Z" stroke="#000000" stroke-width="3.99932" stroke-miterlimit="8" fill="#D9D9D9" fill-rule="evenodd"/><path d="M274 189.128C274 177.522 283.402 168.114 295 168.114 306.598 168.114 316 177.522 316 189.128 316 200.734 306.598 210.142 295 210.142 283.402 210.142 274 200.734 274 189.128Z" stroke="#000000" stroke-width="3.99932" stroke-miterlimit="8" fill="#D9D9D9" fill-rule="evenodd"/><path d="M298 81.0549C298 69.4491 307.402 60.0407 319 60.0407 330.598 60.0407 340 69.4491 340 81.0549 340 92.6607 330.598 102.069 319 102.069 307.402 102.069 298 92.6607 298 81.0549Z" stroke="#000000" stroke-width="3.99932" stroke-miterlimit="8" fill="#D9D9D9" fill-rule="evenodd"/><path d="M280 358.243C280 346.637 289.402 337.228 301 337.228 312.598 337.228 322 346.637 322 358.243 322 369.848 312.598 379.257 301 379.257 289.402 379.257 280 369.848 280 358.243Z" stroke="#000000" stroke-width="3.99932" stroke-miterlimit="8" fill="#D9D9D9" fill-rule="evenodd"/><path d="M274.065 185.015 144 172.117" stroke="#000000" stroke-width="3.99932" stroke-miterlimit="8" fill="none" fill-rule="evenodd"/><path d="M280.038 351.38 76 278.188" stroke="#D9D9D9" stroke-width="3.99932" stroke-miterlimit="8" fill="none" fill-rule="evenodd"/><path d="M62 46.0311 278.053 174.696" stroke="#D9D9D9" stroke-width="3.99932" stroke-miterlimit="8" fill="none" fill-rule="evenodd"/><text fill="#D9D9D9" font-family="Calibri,Calibri_MSFontService,sans-serif" font-weight="400" font-size="27" transform="matrix(1 0 0 1.00068 308.868 148)">7<tspan font-size="27" x="-121.629" y="-26.9817">4</tspan><tspan font-size="27" x="-114.713" y="-93.9364">8</tspan><tspan fill="#000000" font-size="27" x="-118.632" y="17.9878">3</tspan><tspan font-size="27" x="-219.805" y="-35.9756">10</tspan><tspan font-size="27" x="-293.938" y="5.99594">12</tspan><tspan font-size="27" x="-234.983" y="64.956">6</tspan><tspan font-size="27" x="-138.426" y="107.927">8</tspan><tspan font-size="27" x="-148.846" y="192.869">4</tspan></text><path d="M500.478 658.254C503.262 649.406 506.914 628.173 511.01 618.85 515.106 609.526 522.245 609.35 525.054 602.314 527.862 595.277 530.613 584.84 527.862 576.631 525.112 568.422 517.915 556.166 508.553 553.059 499.19 549.951 492.929 558.571 471.688 557.984 450.448 557.398 416.568 554.642 381.108 549.54 345.648 544.439 284.793 534.119 258.929 527.376 233.066 520.632 237.747 511.016 225.927 509.081 214.107 507.146 193.92 508.905 188.01 515.766 182.1 522.626 185.962 540.1 190.467 550.244 194.973 560.388 204.511 571.94 215.043 576.631 225.576 581.322 236.401 571.647 253.663 578.39 270.925 585.133 292.224 602.255 318.614 617.09 345.004 631.926 408.61 659.778 412.003 667.401 415.397 675.024 356.122 666.052 338.977 662.827 321.833 659.602 317.502 651.159 309.135 648.051 300.767 644.943 295.501 642.187 288.772 644.181 282.043 646.174 272.388 653.563 268.76 660.013 265.132 666.463 270.925 671.154 267.004 682.881 263.084 694.609 254.892 719.354 245.237 730.377 235.582 741.401 216.74 740.346 209.075 749.024 201.41 757.702 196.611 772.655 199.244 782.447 201.878 792.239 215.629 804.084 224.874 807.778 234.119 811.472 241.843 802.677 254.716 804.612 267.59 806.547 276.484 811.472 302.113 819.388 327.743 827.305 383.624 841.729 408.493 852.108 433.361 862.487 440.851 873.921 451.325 881.661 461.799 889.401 462.268 897.904 471.337 898.549 480.407 899.194 500.126 894.62 505.744 885.531 511.361 876.442 510.308 852.812 505.042 844.016 499.775 835.22 487.487 834.517 474.146 832.758 460.805 830.999 457.352 841.964 424.994 833.461 392.635 824.959 303.965 797.788 279.995 781.743 256.024 765.699 272.877 751.766 281.173 737.197 289.469 722.627 306.773 698.329 329.771 694.325 352.769 690.32 401.62 689.395 421.824 698.75 442.028 708.105 461.862 723.342 474.976 723.218 488.091 723.095 498.756 706.512 500.512 698.01 502.267 689.507 494.308 678.563 494.302 671.937 494.296 665.311 497.693 667.102 500.478 658.254Z" stroke="#000000" stroke-width="1.99966" stroke-miterlimit="8" stroke-dasharray="15.9973 5.99898" fill="#FFF2CC" fill-rule="evenodd"/><path d="M215 558.378 230.809 748.739" stroke="#D9D9D9" stroke-width="3.99932" stroke-miterlimit="8" fill="none" fill-rule="evenodd"/><path d="M231 557.377 287.827 655.637" stroke="#D9D9D9" stroke-width="3.99932" stroke-miterlimit="8" fill="none" fill-rule="evenodd"/><path d="M0 0 38.8691 63.4138" stroke="#000000" stroke-width="3.99932" stroke-miterlimit="8" fill="none" fill-rule="evenodd" transform="matrix(-1 0 0 1.00068 283.869 688.466)"/><path d="M0 0 196.687 59.2038" stroke="#D9D9D9" stroke-width="3.99932" stroke-miterlimit="8" fill="none" fill-rule="evenodd" transform="matrix(-1 0 0 1.00068 452.687 704.477)"/><path d="M0 0 12.12 68.5046" stroke="#000000" stroke-width="3.99932" stroke-miterlimit="8" fill="none" fill-rule="evenodd" transform="matrix(1 0 0 -1.00068 477 673.961)"/><path d="M243 537.364 474.862 579.549" stroke="#000000" stroke-width="3.99932" stroke-miterlimit="8" fill="none" fill-rule="evenodd"/><path d="M200 539.365C200 527.759 209.402 518.351 221 518.351 232.598 518.351 242 527.759 242 539.365 242 550.971 232.598 560.38 221 560.38 209.402 560.38 200 550.971 200 539.365Z" stroke="#000000" stroke-width="3.99932" stroke-miterlimit="8" fill="#D9D9D9" fill-rule="evenodd"/><path d="M215 771.522C215 759.917 224.402 750.508 236 750.508 247.598 750.508 257 759.917 257 771.522 257 783.128 247.598 792.537 236 792.537 224.402 792.537 215 783.128 215 771.522Z" stroke="#000000" stroke-width="3.99932" stroke-miterlimit="8" fill="#D9D9D9" fill-rule="evenodd"/><path d="M278 673.456C278 661.85 287.402 652.442 299 652.442 310.598 652.442 320 661.85 320 673.456 320 685.062 310.598 694.47 299 694.47 287.402 694.47 278 685.062 278 673.456Z" stroke="#000000" stroke-width="3.99932" stroke-miterlimit="8" fill="#D9D9D9" fill-rule="evenodd"/><path d="M450 694.47C450 682.864 459.402 673.456 471 673.456 482.598 673.456 492 682.864 492 694.47 492 706.076 482.598 715.484 471 715.484 459.402 715.484 450 706.076 450 694.47Z" stroke="#000000" stroke-width="3.99932" stroke-miterlimit="8" fill="#D9D9D9" fill-rule="evenodd"/><path d="M475 586.397C475 574.791 484.402 565.383 496 565.383 507.598 565.383 517 574.791 517 586.397 517 598.003 507.598 607.411 496 607.411 484.402 607.411 475 598.003 475 586.397Z" stroke="#000000" stroke-width="3.99932" stroke-miterlimit="8" fill="#D9D9D9" fill-rule="evenodd"/><path d="M457 863.585C457 851.979 466.402 842.57 478 842.57 489.598 842.57 499 851.979 499 863.585 499 875.191 489.598 884.599 478 884.599 466.402 884.599 457 875.191 457 863.585Z" stroke="#000000" stroke-width="3.99932" stroke-miterlimit="8" fill="#D9D9D9" fill-rule="evenodd"/><path d="M450.065 690.357 320 677.459" stroke="#000000" stroke-width="3.99932" stroke-miterlimit="8" fill="none" fill-rule="evenodd"/><path d="M457.038 856.722 253 783.531" stroke="#000000" stroke-width="3.99932" stroke-miterlimit="8" fill="none" fill-rule="evenodd"/><path d="M239 550.373 455.053 679.038" stroke="#000000" stroke-width="3.99932" stroke-miterlimit="8" fill="none" fill-rule="evenodd"/><text font-family="Calibri,Calibri_MSFontService,sans-serif" font-weight="400" font-size="27" transform="matrix(1 0 0 1.00068 485.646 654)">7<tspan font-size="27" x="-121.629" y="-27.981">4</tspan><tspan font-size="27" x="-114.713" y="-93.9364">8</tspan><tspan font-size="27" x="-133.665" y="25.9824">3</tspan><tspan fill="#D9D9D9" font-size="27" x="-219.805" y="-35.9756">10</tspan><tspan fill="#D9D9D9" font-size="27" x="-293.938" y="4.99661">12</tspan><tspan font-size="27" x="-234.984" y="63.9567">6</tspan><tspan fill="#D9D9D9" font-size="27" x="-130.74" y="107.927">8</tspan><tspan font-size="27" x="-148.846" y="191.87">4</tspan></text><path d="M1930.08 154.756C1932.86 145.902 1936.51 124.656 1940.6 115.326 1944.69 105.997 1951.81 105.821 1954.62 98.7799 1957.42 91.7388 1961.17 80.9606 1957.42 73.0801 1953.68 65.1995 1942.44 56.4765 1932.15 51.4964 1921.87 46.5163 1899.7 60.9665 1898.13 74.4604 1896.57 87.9543 1906.23 104.892 1903.61 120.437 1901 135.982 1901.64 166.647 1887.65 156.107 1873.65 145.566 1808.28 115.842 1776.15 98.8753 1744.02 81.9089 1708.95 64.6843 1694.87 54.3081 1680.78 43.9318 1687.37 37.9414 1680.88 29.8044 1674.39 21.6674 1665.58 7.75632 1655.9 5.48607 1646.23 3.21581 1628.73 9.31789 1622.83 16.1829 1616.93 23.0479 1616.79 37.1933 1620.49 46.6762 1624.19 56.159 1634.52 68.3861 1645.04 73.0801 1655.55 77.7741 1666.36 68.0926 1683.6 74.8403 1700.84 81.588 1722.11 98.7212 1748.46 113.566 1774.82 128.411 1838.34 156.282 1841.73 163.909 1845.11 171.537 1785.92 162.56 1768.8 159.333 1751.68 156.106 1747.35 147.656 1739 144.547 1730.64 141.437 1725.38 138.679 1718.66 140.674 1711.94 142.669 1702.3 150.062 1698.68 156.516 1695.06 162.971 1700.84 167.665 1696.93 179.4 1693.01 191.135 1684.83 215.896 1675.19 226.927 1665.55 237.958 1646.73 236.902 1639.08 245.586 1631.42 254.27 1626.63 269.232 1629.26 279.031 1631.89 288.829 1645.62 300.682 1654.85 304.378 1664.09 308.075 1671.8 299.273 1684.65 301.21 1697.51 303.146 1706.39 308.075 1731.99 315.996 1757.58 323.917 1813.38 338.351 1838.22 348.737 1863.05 359.122 1870.53 370.564 1880.99 378.309 1891.45 386.054 1891.92 394.562 1900.98 395.208 1910.03 395.853 1929.73 391.276 1935.34 382.182 1940.95 373.087 1939.89 349.441 1934.64 340.64 1929.38 331.838 1917.1 331.134 1903.78 329.374 1890.46 327.614 1887.01 338.586 1854.7 330.078 1822.38 321.57 1733.83 294.381 1709.9 278.326 1685.96 262.272 1702.79 248.33 1711.07 233.75 1719.36 219.171 1736.64 194.858 1759.61 190.85 1782.57 186.843 1831.36 185.918 1851.53 195.279 1871.71 204.64 1891.51 219.887 1904.61 219.763 1917.71 219.64 1928.36 203.046 1930.11 194.538 1931.86 186.03 1923.92 175.079 1923.91 168.448 1923.9 161.818 1927.3 163.61 1930.08 154.756Z" stroke="#000000" stroke-width="1.99966" stroke-miterlimit="8" stroke-dasharray="15.9973 5.99898" fill="#FFF2CC" fill-rule="evenodd"/><path d="M1645 55.0373 1660.81 245.398" stroke="#D9D9D9" stroke-width="3.99932" stroke-miterlimit="8" fill="none" fill-rule="evenodd"/><path d="M1661 54.0366 1717.83 152.296" stroke="#D9D9D9" stroke-width="3.99932" stroke-miterlimit="8" fill="none" fill-rule="evenodd"/><path d="M0 0 38.8691 63.4139" stroke="#000000" stroke-width="3.99932" stroke-miterlimit="8" fill="none" fill-rule="evenodd" transform="matrix(-1 0 0 1.00068 1712.87 184.125)"/><path d="M0 0 196.687 59.2038" stroke="#D9D9D9" stroke-width="3.99932" stroke-miterlimit="8" fill="none" fill-rule="evenodd" transform="matrix(-1 0 0 1.00068 1881.69 201.136)"/><path d="M0 0 12.12 68.5046" stroke="#000000" stroke-width="3.99932" stroke-miterlimit="8" fill="none" fill-rule="evenodd" transform="matrix(1 0 0 -1.00068 1906 170.62)"/><path d="M1673 34.023 1904.86 76.2083" stroke="#D9D9D9" stroke-width="3.99932" stroke-miterlimit="8" fill="none" fill-rule="evenodd"/><path d="M1630 36.0244C1630 24.4185 1639.4 15.0101 1651 15.0101 1662.6 15.0101 1672 24.4185 1672 36.0244 1672 47.6302 1662.6 57.0386 1651 57.0386 1639.4 57.0386 1630 47.6302 1630 36.0244Z" stroke="#000000" stroke-width="3.99932" stroke-miterlimit="8" fill="#D9D9D9" fill-rule="evenodd"/><path d="M1644 268.182C1644 256.576 1653.4 247.167 1665 247.167 1676.6 247.167 1686 256.576 1686 268.182 1686 279.787 1676.6 289.196 1665 289.196 1653.4 289.196 1644 279.787 1644 268.182Z" stroke="#000000" stroke-width="3.99932" stroke-miterlimit="8" fill="#D9D9D9" fill-rule="evenodd"/><path d="M1708 170.115C1708 158.509 1717.4 149.101 1729 149.101 1740.6 149.101 1750 158.509 1750 170.115 1750 181.721 1740.6 191.129 1729 191.129 1717.4 191.129 1708 181.721 1708 170.115Z" stroke="#000000" stroke-width="3.99932" stroke-miterlimit="8" fill="#D9D9D9" fill-rule="evenodd"/><path d="M1880 191.129C1880 179.524 1889.4 170.115 1901 170.115 1912.6 170.115 1922 179.524 1922 191.129 1922 202.735 1912.6 212.144 1901 212.144 1889.4 212.144 1880 202.735 1880 191.129Z" stroke="#000000" stroke-width="3.99932" stroke-miterlimit="8" fill="#D9D9D9" fill-rule="evenodd"/><path d="M1904 83.0562C1904 71.4504 1913.4 62.042 1925 62.042 1936.6 62.042 1946 71.4504 1946 83.0562 1946 94.6621 1936.6 104.07 1925 104.07 1913.4 104.07 1904 94.6621 1904 83.0562Z" stroke="#000000" stroke-width="3.99932" stroke-miterlimit="8" fill="#D9D9D9" fill-rule="evenodd"/><path d="M1887 360.244C1887 348.638 1896.4 339.23 1908 339.23 1919.6 339.23 1929 348.638 1929 360.244 1929 371.85 1919.6 381.258 1908 381.258 1896.4 381.258 1887 371.85 1887 360.244Z" stroke="#000000" stroke-width="3.99932" stroke-miterlimit="8" fill="#D9D9D9" fill-rule="evenodd"/><path d="M1880.07 186.016 1750 173.117" stroke="#000000" stroke-width="3.99932" stroke-miterlimit="8" fill="none" fill-rule="evenodd"/><path d="M1887.04 353.381 1683 280.19" stroke="#000000" stroke-width="3.99932" stroke-miterlimit="8" fill="none" fill-rule="evenodd"/><path d="M1669 47.0319 1885.05 175.697" stroke="#000000" stroke-width="3.99932" stroke-miterlimit="8" fill="none" fill-rule="evenodd"/><text font-family="Calibri,Calibri_MSFontService,sans-serif" font-weight="400" font-size="27" transform="matrix(1 0 0 1.00068 1915.35 150)">7<tspan font-size="27" x="-121.629" y="-27.981">4</tspan><tspan fill="#D9D9D9" font-size="27" x="-114.713" y="-92.937">8</tspan><tspan font-size="27" x="-133.665" y="25.9824">3</tspan><tspan fill="#D9D9D9" font-size="27" x="-219.805" y="-35.9756">10</tspan><tspan fill="#D9D9D9" font-size="27" x="-293.938" y="4.99661">12</tspan><tspan font-size="27" x="-234.984" y="63.9567">6</tspan><tspan fill="#D9D9D9" font-size="27" x="-130.74" y="107.927">8</tspan><tspan font-size="27" x="-148.846" y="191.87">4</tspan></text><path d="M1514.73 53.4384C1510.21 53.967 1509.77 55.2005 1506.83 58.4605 1503.89 61.7205 1498.32 65.5972 1497.09 72.9981 1495.86 80.3991 1494.68 96.2143 1499.46 102.866 1504.24 109.518 1516.88 114.012 1525.78 112.911 1534.69 111.809 1548.68 103.439 1552.9 96.2584 1557.11 89.0777 1554.21 76.6546 1551.05 69.8263 1547.89 62.998 1539.56 58.1521 1533.94 55.2886 1528.33 52.4252 1519.25 52.9098 1514.73 53.4384Z" stroke="#000000" stroke-width="1.99966" stroke-miterlimit="8" stroke-dasharray="15.9973 5.99898" fill="#FFF2CC" fill-rule="evenodd"/><path d="M1513.85 163.96C1503.84 157.661 1499.02 168.343 1474.4 156.748 1449.78 145.152 1404.36 115.949 1374.1 98.8753 1343.84 81.802 1306.92 64.6843 1292.85 54.3081 1278.77 43.9318 1285.35 37.9414 1278.86 29.8044 1272.37 21.6674 1263.57 7.75632 1253.89 5.48607 1244.22 3.21581 1226.73 9.31789 1220.83 16.1829 1214.93 23.0479 1214.79 37.1933 1218.49 46.6762 1222.19 56.159 1232.51 68.3861 1243.03 73.0801 1253.54 77.7741 1264.35 68.0926 1281.58 74.8403 1298.82 81.588 1320.08 98.7212 1346.43 113.566 1372.78 128.411 1436.28 156.282 1439.66 163.909 1443.05 171.537 1383.87 162.56 1366.76 159.333 1349.64 156.106 1345.32 147.656 1336.96 144.547 1328.61 141.437 1323.35 138.679 1316.64 140.674 1309.92 142.669 1300.28 150.062 1296.66 156.516 1293.03 162.971 1298.82 167.665 1294.9 179.4 1290.99 191.135 1282.81 215.896 1273.17 226.927 1263.53 237.958 1244.72 236.902 1237.07 245.586 1229.42 254.27 1224.63 269.232 1227.26 279.031 1229.88 288.829 1243.61 300.682 1252.84 304.378 1262.07 308.075 1269.78 299.273 1282.64 301.21 1295.49 303.146 1304.37 308.075 1329.95 315.996 1355.54 323.917 1411.33 338.351 1436.16 348.737 1460.99 359.122 1468.46 370.564 1478.92 378.309 1489.38 386.054 1489.84 394.562 1498.9 395.208 1507.95 395.853 1527.64 391.276 1533.25 382.182 1538.86 373.087 1537.81 349.441 1532.55 340.64 1527.29 331.838 1515.02 331.134 1501.7 329.374 1488.38 327.614 1484.94 338.586 1452.63 330.078 1420.33 321.57 1331.8 294.381 1307.87 278.326 1283.94 262.272 1300.77 248.33 1309.05 233.75 1317.33 219.171 1334.61 194.858 1357.57 190.85 1380.53 186.843 1429.3 185.918 1449.47 195.279 1469.64 204.64 1488.38 219.887 1502.53 219.763 1516.69 219.64 1532.66 203.046 1534.41 194.538 1536.16 186.03 1523.85 170.258 1513.85 163.96Z" stroke="#000000" stroke-width="1.99966" stroke-miterlimit="8" stroke-dasharray="15.9973 5.99898" fill="#FFF2CC" fill-rule="evenodd"/><path d="M1243 55.0373 1258.81 245.398" stroke="#D9D9D9" stroke-width="3.99932" stroke-miterlimit="8" fill="none" fill-rule="evenodd"/><path d="M1259 54.0366 1315.83 152.296" stroke="#D9D9D9" stroke-width="3.99932" stroke-miterlimit="8" fill="none" fill-rule="evenodd"/><path d="M0 0 38.8691 63.4139" stroke="#000000" stroke-width="3.99932" stroke-miterlimit="8" fill="none" fill-rule="evenodd" transform="matrix(-1 0 0 1.00068 1310.87 184.125)"/><path d="M0 0 196.687 59.2038" stroke="#D9D9D9" stroke-width="3.99932" stroke-miterlimit="8" fill="none" fill-rule="evenodd" transform="matrix(-1 0 0 1.00068 1479.69 201.136)"/><path d="M0 0 12.12 68.5046" stroke="#D9D9D9" stroke-width="3.99932" stroke-miterlimit="8" fill="none" fill-rule="evenodd" transform="matrix(1 0 0 -1.00068 1504 170.62)"/><path d="M1271 34.023 1502.86 76.2083" stroke="#D9D9D9" stroke-width="3.99932" stroke-miterlimit="8" fill="none" fill-rule="evenodd"/><path d="M1228 36.0244C1228 24.4185 1237.4 15.0101 1249 15.0101 1260.6 15.0101 1270 24.4185 1270 36.0244 1270 47.6302 1260.6 57.0386 1249 57.0386 1237.4 57.0386 1228 47.6302 1228 36.0244Z" stroke="#000000" stroke-width="3.99932" stroke-miterlimit="8" fill="#D9D9D9" fill-rule="evenodd"/><path d="M1242 268.182C1242 256.576 1251.4 247.167 1263 247.167 1274.6 247.167 1284 256.576 1284 268.182 1284 279.787 1274.6 289.196 1263 289.196 1251.4 289.196 1242 279.787 1242 268.182Z" stroke="#000000" stroke-width="3.99932" stroke-miterlimit="8" fill="#D9D9D9" fill-rule="evenodd"/><path d="M1306 170.115C1306 158.509 1315.4 149.101 1327 149.101 1338.6 149.101 1348 158.509 1348 170.115 1348 181.721 1338.6 191.129 1327 191.129 1315.4 191.129 1306 181.721 1306 170.115Z" stroke="#000000" stroke-width="3.99932" stroke-miterlimit="8" fill="#D9D9D9" fill-rule="evenodd"/><path d="M1478 191.129C1478 179.524 1487.4 170.115 1499 170.115 1510.6 170.115 1520 179.524 1520 191.129 1520 202.735 1510.6 212.144 1499 212.144 1487.4 212.144 1478 202.735 1478 191.129Z" stroke="#000000" stroke-width="3.99932" stroke-miterlimit="8" fill="#D9D9D9" fill-rule="evenodd"/><path d="M1502 83.0562C1502 71.4504 1511.4 62.042 1523 62.042 1534.6 62.042 1544 71.4504 1544 83.0562 1544 94.6621 1534.6 104.07 1523 104.07 1511.4 104.07 1502 94.6621 1502 83.0562Z" stroke="#000000" stroke-width="3.99932" stroke-miterlimit="8" fill="#D9D9D9" fill-rule="evenodd"/><path d="M1485 360.244C1485 348.638 1494.4 339.23 1506 339.23 1517.6 339.23 1527 348.638 1527 360.244 1527 371.85 1517.6 381.258 1506 381.258 1494.4 381.258 1485 371.85 1485 360.244Z" stroke="#000000" stroke-width="3.99932" stroke-miterlimit="8" fill="#D9D9D9" fill-rule="evenodd"/><path d="M1478.07 186.016 1348 173.117" stroke="#000000" stroke-width="3.99932" stroke-miterlimit="8" fill="none" fill-rule="evenodd"/><path d="M1485.04 353.381 1281 280.19" stroke="#000000" stroke-width="3.99932" stroke-miterlimit="8" fill="none" fill-rule="evenodd"/><path d="M1267 47.0319 1483.05 175.697" stroke="#000000" stroke-width="3.99932" stroke-miterlimit="8" fill="none" fill-rule="evenodd"/><text fill="#D9D9D9" font-family="Calibri,Calibri_MSFontService,sans-serif" font-weight="400" font-size="27" transform="matrix(1 0 0 1.00068 1513.34 150)">7<tspan fill="#000000" font-size="27" x="-121.629" y="-27.981">4</tspan><tspan font-size="27" x="-114.713" y="-92.937">8</tspan><tspan fill="#000000" font-size="27" x="-133.665" y="25.9824">3</tspan><tspan font-size="27" x="-219.805" y="-35.9756">10</tspan><tspan font-size="27" x="-293.938" y="4.99661">12</tspan><tspan fill="#000000" font-size="27" x="-234.984" y="63.9567">6</tspan><tspan font-size="27" x="-130.74" y="107.927">8</tspan><tspan fill="#000000" font-size="27" x="-148.846" y="191.87">4</tspan></text><path d="M1394.48 658.254C1396.82 648.872 1400.91 628.173 1405.01 618.85 1409.11 609.526 1416.24 609.35 1419.05 602.314 1421.86 595.277 1424.61 584.84 1421.86 576.631 1419.11 568.422 1411.91 556.166 1402.55 553.059 1393.19 549.951 1386.93 558.571 1365.69 557.984 1344.45 557.398 1310.57 554.642 1275.11 549.54 1239.65 544.439 1178.79 534.119 1152.93 527.376 1127.07 520.632 1131.75 511.016 1119.93 509.081 1108.11 507.146 1087.92 508.905 1082.01 515.766 1076.1 522.626 1079.96 540.1 1084.47 550.244 1088.97 560.388 1095.99 558.336 1109.04 576.631 1122.09 594.926 1154.1 642.304 1162.76 660.013 1171.42 677.721 1164.92 671.154 1161 682.881 1157.08 694.609 1148.89 719.354 1139.24 730.377 1129.58 741.401 1110.74 740.346 1103.07 749.024 1095.41 757.702 1090.61 772.655 1093.24 782.447 1095.88 792.239 1109.63 804.084 1118.87 807.778 1128.12 811.472 1135.84 802.677 1148.72 804.612 1161.59 806.547 1170.48 811.472 1196.11 819.388 1221.74 827.305 1277.62 841.729 1302.49 852.108 1327.36 862.487 1334.85 873.921 1345.33 881.661 1355.8 889.401 1356.27 897.904 1365.34 898.549 1374.41 899.194 1394.13 894.62 1399.74 885.531 1405.36 876.442 1404.31 852.812 1399.04 844.016 1393.78 835.22 1381.49 834.517 1368.15 832.758 1354.8 830.999 1351.35 841.964 1318.99 833.461 1286.64 824.959 1194.77 793.471 1173.99 781.743 1153.22 770.016 1166.86 772.479 1194.36 763.097 1221.86 753.715 1307.99 731.609 1339.01 725.452 1370.02 719.295 1370.43 730.729 1380.43 726.155 1390.44 721.582 1397.29 706.512 1399.04 698.01 1400.8 689.507 1391.61 681.884 1390.97 675.141 1390.32 668.398 1392.14 667.636 1394.48 658.254Z" stroke="#000000" stroke-width="1.99966" stroke-miterlimit="8" stroke-dasharray="15.9973 5.99898" fill="#FFF2CC" fill-rule="evenodd"/><path d="M1109 558.378 1124.81 748.739" stroke="#D9D9D9" stroke-width="3.99932" stroke-miterlimit="8" fill="none" fill-rule="evenodd"/><path d="M1125 557.377 1181.83 655.637" stroke="#000000" stroke-width="3.99932" stroke-miterlimit="8" fill="none" fill-rule="evenodd"/><path d="M0 0 38.8691 63.4138" stroke="#000000" stroke-width="3.99932" stroke-miterlimit="8" fill="none" fill-rule="evenodd" transform="matrix(-1 0 0 1.00068 1177.87 688.466)"/><path d="M0 0 196.687 59.2038" stroke="#000000" stroke-width="3.99932" stroke-miterlimit="8" fill="none" fill-rule="evenodd" transform="matrix(-1 0 0 1.00068 1346.69 704.477)"/><path d="M0 0 12.12 68.5046" stroke="#000000" stroke-width="3.99932" stroke-miterlimit="8" fill="none" fill-rule="evenodd" transform="matrix(1 0 0 -1.00068 1371 673.961)"/><path d="M1137 537.364 1368.86 579.549" stroke="#000000" stroke-width="3.99932" stroke-miterlimit="8" fill="none" fill-rule="evenodd"/><path d="M1094 539.365C1094 527.759 1103.4 518.351 1115 518.351 1126.6 518.351 1136 527.759 1136 539.365 1136 550.971 1126.6 560.38 1115 560.38 1103.4 560.38 1094 550.971 1094 539.365Z" stroke="#000000" stroke-width="3.99932" stroke-miterlimit="8" fill="#D9D9D9" fill-rule="evenodd"/><path d="M1109 771.522C1109 759.917 1118.4 750.508 1130 750.508 1141.6 750.508 1151 759.917 1151 771.522 1151 783.128 1141.6 792.537 1130 792.537 1118.4 792.537 1109 783.128 1109 771.522Z" stroke="#000000" stroke-width="3.99932" stroke-miterlimit="8" fill="#D9D9D9" fill-rule="evenodd"/><path d="M1172 673.456C1172 661.85 1181.4 652.442 1193 652.442 1204.6 652.442 1214 661.85 1214 673.456 1214 685.062 1204.6 694.47 1193 694.47 1181.4 694.47 1172 685.062 1172 673.456Z" stroke="#000000" stroke-width="3.99932" stroke-miterlimit="8" fill="#D9D9D9" fill-rule="evenodd"/><path d="M1344 694.47C1344 682.864 1353.4 673.456 1365 673.456 1376.6 673.456 1386 682.864 1386 694.47 1386 706.076 1376.6 715.484 1365 715.484 1353.4 715.484 1344 706.076 1344 694.47Z" stroke="#000000" stroke-width="3.99932" stroke-miterlimit="8" fill="#D9D9D9" fill-rule="evenodd"/><path d="M1369 586.397C1369 574.791 1378.18 565.383 1389.5 565.383 1400.82 565.383 1410 574.791 1410 586.397 1410 598.003 1400.82 607.411 1389.5 607.411 1378.18 607.411 1369 598.003 1369 586.397Z" stroke="#000000" stroke-width="3.99932" stroke-miterlimit="8" fill="#D9D9D9" fill-rule="evenodd"/><path d="M1351 863.585C1351 851.979 1360.4 842.57 1372 842.57 1383.6 842.57 1393 851.979 1393 863.585 1393 875.191 1383.6 884.599 1372 884.599 1360.4 884.599 1351 875.191 1351 863.585Z" stroke="#000000" stroke-width="3.99932" stroke-miterlimit="8" fill="#D9D9D9" fill-rule="evenodd"/><path d="M1344.07 690.357 1214 677.459" stroke="#000000" stroke-width="3.99932" stroke-miterlimit="8" fill="none" fill-rule="evenodd"/><path d="M1351.04 856.722 1147 783.531" stroke="#000000" stroke-width="3.99932" stroke-miterlimit="8" fill="none" fill-rule="evenodd"/><path d="M1133 550.373 1349.05 679.038" stroke="#000000" stroke-width="3.99932" stroke-miterlimit="8" fill="none" fill-rule="evenodd"/><text font-family="Calibri,Calibri_MSFontService,sans-serif" font-weight="400" font-size="27" transform="matrix(1 0 0 1.00068 1379.52 654)">7<tspan font-size="27" x="-121.629" y="-27.981">4</tspan><tspan font-size="27" x="-114.713" y="-93.9364">8</tspan><tspan font-size="27" x="-133.665" y="25.9824">3</tspan><tspan font-size="27" x="-219.805" y="-35.9756">10</tspan><tspan fill="#D9D9D9" font-size="27" x="-293.938" y="4.99661">12</tspan><tspan font-size="27" x="-234.984" y="63.9567">6</tspan><tspan font-size="27" x="-130.74" y="107.927">8</tspan><tspan font-size="27" x="-148.846" y="191.87">4</tspan></text><path d="M1841.5 658.498C1843.83 649.125 1847.93 628.447 1852.02 619.134 1856.12 609.82 1863.25 609.644 1866.06 602.615 1868.86 595.585 1871.61 585.159 1868.86 576.958 1866.11 568.757 1858.92 556.514 1849.57 553.409 1840.21 550.305 1833.95 558.916 1812.72 558.33 1791.5 557.744 1757.64 554.991 1722.2 549.895 1686.76 544.799 1625.95 534.489 1600.1 527.753 1574.25 521.016 1577.55 510.593 1567.12 509.476 1556.69 508.36 1543.28 514.537 1537.54 521.053 1531.8 527.57 1531.24 539.493 1532.66 548.573 1534.08 557.652 1539.55 540.381 1546.07 575.529 1549.17 606.758 1551.21 714.67 1550.28 749.176 1549.34 783.682 1537.82 772.783 1540.45 782.565 1543.08 792.347 1556.83 804.18 1566.07 807.871 1575.31 811.561 1583.02 802.774 1595.89 804.707 1608.75 806.64 1617.64 811.561 1643.26 819.469 1668.87 827.377 1724.72 841.787 1749.57 852.155 1774.42 862.523 1781.91 873.946 1792.37 881.678 1802.84 889.411 1803.31 897.904 1812.37 898.549 1821.44 899.193 1841.14 894.624 1846.76 885.544 1852.37 876.465 1851.32 852.858 1846.06 844.071 1840.79 835.285 1828.51 834.582 1815.18 832.825 1801.85 831.067 1798.4 842.021 1766.06 833.528 1733.72 825.034 1641.91 793.578 1621.15 781.862 1600.39 770.147 1614.02 772.607 1641.5 763.234 1668.99 753.862 1755.07 731.778 1786.06 725.628 1817.05 719.477 1817.46 730.9 1827.46 726.331 1837.46 721.761 1844.3 706.707 1846.06 698.213 1847.81 689.72 1838.63 682.104 1837.99 675.368 1837.34 668.632 1839.16 667.87 1841.5 658.498Z" stroke="#000000" stroke-width="1.99966" stroke-miterlimit="8" stroke-dasharray="15.9973 5.99898" fill="#FFF2CC" fill-rule="evenodd"/><path d="M1556 558.378 1571.81 748.739" stroke="#000000" stroke-width="3.99932" stroke-miterlimit="8" fill="none" fill-rule="evenodd"/><path d="M1572 557.377 1628.83 655.637" stroke="#000000" stroke-width="3.99932" stroke-miterlimit="8" fill="none" fill-rule="evenodd"/><path d="M0 0 38.8691 63.4139" stroke="#000000" stroke-width="3.99932" stroke-miterlimit="8" fill="none" fill-rule="evenodd" transform="matrix(-1 0 0 1.00068 1623.87 688.466)"/><path d="M0 0 196.687 59.2038" stroke="#000000" stroke-width="3.99932" stroke-miterlimit="8" fill="none" fill-rule="evenodd" transform="matrix(-1 0 0 1.00068 1792.69 704.477)"/><path d="M0 0 12.12 68.5046" stroke="#000000" stroke-width="3.99932" stroke-miterlimit="8" fill="none" fill-rule="evenodd" transform="matrix(1 0 0 -1.00068 1817 673.961)"/><path d="M1584 537.364 1815.86 579.549" stroke="#000000" stroke-width="3.99932" stroke-miterlimit="8" fill="none" fill-rule="evenodd"/><path d="M1541 539.365C1541 527.759 1550.4 518.351 1562 518.351 1573.6 518.351 1583 527.759 1583 539.365 1583 550.971 1573.6 560.38 1562 560.38 1550.4 560.38 1541 550.971 1541 539.365Z" stroke="#000000" stroke-width="3.99932" stroke-miterlimit="8" fill="#D9D9D9" fill-rule="evenodd"/><path d="M1556 771.522C1556 759.917 1565.4 750.508 1577 750.508 1588.6 750.508 1598 759.917 1598 771.522 1598 783.128 1588.6 792.537 1577 792.537 1565.4 792.537 1556 783.128 1556 771.522Z" stroke="#000000" stroke-width="3.99932" stroke-miterlimit="8" fill="#D9D9D9" fill-rule="evenodd"/><path d="M1619 673.456C1619 661.85 1628.4 652.442 1640 652.442 1651.6 652.442 1661 661.85 1661 673.456 1661 685.062 1651.6 694.47 1640 694.47 1628.4 694.47 1619 685.062 1619 673.456Z" stroke="#000000" stroke-width="3.99932" stroke-miterlimit="8" fill="#D9D9D9" fill-rule="evenodd"/><path d="M1791 694.47C1791 682.864 1800.4 673.456 1812 673.456 1823.6 673.456 1833 682.864 1833 694.47 1833 706.076 1823.6 715.484 1812 715.484 1800.4 715.484 1791 706.076 1791 694.47Z" stroke="#000000" stroke-width="3.99932" stroke-miterlimit="8" fill="#D9D9D9" fill-rule="evenodd"/><path d="M1815 586.397C1815 574.791 1824.4 565.383 1836 565.383 1847.6 565.383 1857 574.791 1857 586.397 1857 598.003 1847.6 607.411 1836 607.411 1824.4 607.411 1815 598.003 1815 586.397Z" stroke="#000000" stroke-width="3.99932" stroke-miterlimit="8" fill="#D9D9D9" fill-rule="evenodd"/><path d="M1798 863.585C1798 851.979 1807.4 842.57 1819 842.57 1830.6 842.57 1840 851.979 1840 863.585 1840 875.191 1830.6 884.599 1819 884.599 1807.4 884.599 1798 875.191 1798 863.585Z" stroke="#000000" stroke-width="3.99932" stroke-miterlimit="8" fill="#D9D9D9" fill-rule="evenodd"/><path d="M1791.07 690.357 1661 677.459" stroke="#000000" stroke-width="3.99932" stroke-miterlimit="8" fill="none" fill-rule="evenodd"/><path d="M1798.04 856.722 1594 783.531" stroke="#000000" stroke-width="3.99932" stroke-miterlimit="8" fill="none" fill-rule="evenodd"/><path d="M1580 550.373 1796.05 679.038" stroke="#000000" stroke-width="3.99932" stroke-miterlimit="8" fill="none" fill-rule="evenodd"/><text font-family="Calibri,Calibri_MSFontService,sans-serif" font-weight="400" font-size="27" transform="matrix(1 0 0 1.00068 1826.46 654)">7<tspan font-size="27" x="-121.629" y="-27.981">4</tspan><tspan font-size="27" x="-114.713" y="-93.9364">8</tspan><tspan font-size="27" x="-133.665" y="25.9824">3</tspan><tspan font-size="27" x="-219.805" y="-35.9756">10</tspan><tspan font-size="27" x="-293.938" y="4.99661">12</tspan><tspan font-size="27" x="-234.984" y="63.9567">6</tspan><tspan font-size="27" x="-130.74" y="107.927">8</tspan><tspan font-size="27" x="-148.846" y="191.87">4</tspan></text><rect x="1565" y="928.629" width="293" height="50.0339" stroke="#385723" stroke-width="3.99932" stroke-miterlimit="8" fill="#E2F0D9"/><text font-family="Calibri,Calibri_MSFontService,sans-serif" font-weight="400" font-size="27" transform="matrix(1 0 0 1.00068 1634.36 963)"></text><rect x="1113" y="928.629" width="293" height="50.0339" stroke="#385723" stroke-width="3.99932" stroke-miterlimit="8" fill="#E2F0D9"/><text font-family="Calibri,Calibri_MSFontService,sans-serif" font-weight="400" font-size="27" transform="matrix(1 0 0 1.00068 1182.28 963)"></text><rect x="661" y="928.629" width="293" height="50.0339" stroke="#385723" stroke-width="3.99932" stroke-miterlimit="8" fill="#E2F0D9"/><text font-family="Calibri,Calibri_MSFontService,sans-serif" font-weight="400" font-size="27" transform="matrix(1 0 0 1.00068 730.196 963)"></text><rect x="209" y="928.629" width="293" height="50.0339" stroke="#385723" stroke-width="3.99932" stroke-miterlimit="8" fill="#E2F0D9"/><text font-family="Calibri,Calibri_MSFontService,sans-serif" font-weight="400" font-size="27" transform="matrix(1 0 0 1.00068 278.113 963)"></text><rect x="1245" y="423.287" width="292" height="49.0333" stroke="#C00000" stroke-width="3.99932" stroke-miterlimit="8" fill="#FBD7CF"/><text font-family="Calibri,Calibri_MSFontService,sans-serif" font-weight="400" font-size="27" transform="matrix(1 0 0 1.00068 1291.17 457)"><tspan font-size="27" x="37.1604" y="0">-</tspan></text><rect x="844" y="423.287" width="293" height="49.0333" stroke="#C00000" stroke-width="3.99932" stroke-miterlimit="8" fill="#FBD7CF"/><text font-family="Calibri,Calibri_MSFontService,sans-serif" font-weight="400" font-size="27" transform="matrix(1 0 0 1.00068 890.748 457)"><tspan font-size="27" x="37.1604" y="0">-</tspan></text><rect x="444" y="423.287" width="293" height="49.0333" stroke="#C00000" stroke-width="3.99932" stroke-miterlimit="8" fill="#FBD7CF"/><text font-family="Calibri,Calibri_MSFontService,sans-serif" font-weight="400" font-size="27" transform="matrix(1 0 0 1.00068 490.325 457)"><tspan font-size="27" x="37.1604" y="0">-</tspan></text><rect x="43" y="423.287" width="293" height="49.0333" stroke="#C00000" stroke-width="3.99932" stroke-miterlimit="8" fill="#FBD7CF"/><text font-family="Calibri,Calibri_MSFontService,sans-serif" font-weight="400" font-size="27" transform="matrix(1 0 0 1.00068 89.9031 457)"><tspan font-size="27" x="37.1604" y="0">-</tspan><tspan font-size="27" x="45.3257" y="0"></tspan></text><rect x="1645" y="422.286" width="293" height="50.0339" stroke="#385723" stroke-width="3.99932" stroke-miterlimit="8" fill="#E2F0D9"/><text font-family="Calibri,Calibri_MSFontService,sans-serif" font-weight="400" font-size="27" transform="matrix(1 0 0 1.00068 1714.26 456)"></text></g></svg>