<svg width="1758" height="756" xmlns="http://www.w3.org/2000/svg" xmlns:xlink="http://www.w3.org/1999/xlink" overflow="hidden"><defs><clipPath id="clip0"><rect x="0" y="0" width="1758" height="756"/></clipPath></defs><g clip-path="url(#clip0)"><rect x="0" y="0" width="1758" height="755.952" fill="#FFFFFF"/><path d="M51 105.993 75.0068 394.857" stroke="#000000" stroke-width="4.00114" stroke-miterlimit="8" fill="none" fill-rule="evenodd"/><path d="M76 104.993 162.296 254.098" stroke="#000000" stroke-width="4.00114" stroke-miterlimit="8" fill="none" fill-rule="evenodd"/><path d="M0 0 59.022 96.2927" stroke="#000000" stroke-width="4.00088" stroke-miterlimit="8" fill="none" fill-rule="evenodd" transform="matrix(-1.00006 0 0 1 155.026 302.981)"/><path d="M0 0 298.666 89.8998" stroke="#000000" stroke-width="4.00088" stroke-miterlimit="8" fill="none" fill-rule="evenodd" transform="matrix(-1.00006 0 0 1 411.685 327.979)"/><path d="M0 0 18.4041 104.023" stroke="#000000" stroke-width="4.00088" stroke-miterlimit="8" fill="none" fill-rule="evenodd" transform="matrix(1.00006 0 0 -1 448 282.012)"/><path d="M93 73.9953 445.1 138.009" stroke="#000000" stroke-width="4.00114" stroke-miterlimit="8" fill="none" fill-rule="evenodd"/><path d="M29 77.495C29 60.0992 43.3269 45.997 61 45.997 78.6731 45.997 93 60.0992 93 77.495 93 94.8909 78.6731 108.993 61 108.993 43.3269 108.993 29 94.8909 29 77.495Z" stroke="#000000" stroke-width="4.00114" stroke-miterlimit="8" fill="#D9D9D9" fill-rule="evenodd"/><path d="M51 428.973C51 411.301 65.103 396.975 82.5 396.975 99.897 396.975 114 411.301 114 428.973 114 446.645 99.897 460.971 82.5 460.971 65.103 460.971 51 446.645 51 428.973Z" stroke="#000000" stroke-width="4.00114" stroke-miterlimit="8" fill="#D9D9D9" fill-rule="evenodd"/><path d="M146 280.482C146 263.086 160.327 248.984 178 248.984 195.673 248.984 210 263.086 210 280.482 210 297.878 195.673 311.98 178 311.98 160.327 311.98 146 297.878 146 280.482Z" stroke="#000000" stroke-width="4.00114" stroke-miterlimit="8" fill="#D9D9D9" fill-rule="evenodd"/><path d="M408 312.48C408 295.084 422.327 280.982 440 280.982 457.673 280.982 472 295.084 472 312.48 472 329.876 457.673 343.978 440 343.978 422.327 343.978 408 329.876 408 312.48Z" stroke="#000000" stroke-width="4.00114" stroke-miterlimit="8" fill="#D9D9D9" fill-rule="evenodd"/><path d="M445 148.49C445 131.095 459.327 116.993 477 116.993 494.673 116.993 509 131.095 509 148.49 509 165.886 494.673 179.988 477 179.988 459.327 179.988 445 165.886 445 148.49Z" stroke="#000000" stroke-width="4.00114" stroke-miterlimit="8" fill="#D9D9D9" fill-rule="evenodd"/><path d="M418 568.964C418 551.292 432.327 536.966 450 536.966 467.673 536.966 482 551.292 482 568.964 482 586.636 467.673 600.962 450 600.962 432.327 600.962 418 586.636 418 568.964Z" stroke="#000000" stroke-width="4.00114" stroke-miterlimit="8" fill="#D9D9D9" fill-rule="evenodd"/><path d="M408.514 305.555 211 285.982" stroke="#000000" stroke-width="4.00114" stroke-miterlimit="8" fill="none" fill-rule="evenodd"/><path d="M418.848 559.036 109 447.971" stroke="#000000" stroke-width="4.00114" stroke-miterlimit="8" fill="none" fill-rule="evenodd"/><path d="M87 93.9939 415.093 289.237" stroke="#000000" stroke-width="4.00114" stroke-miterlimit="8" fill="none" fill-rule="evenodd"/><text font-family="Calibri,Calibri_MSFontService,sans-serif" font-weight="400" font-size="37" transform="matrix(1 0 0 0.999936 462.626 245)">7<tspan font-size="37" x="-184.703" y="-42.0027">4</tspan><tspan font-size="37" x="-174.2" y="-142.009">8</tspan><tspan font-size="37" x="-202.98" y="39.0025">3</tspan><tspan font-size="37" x="-333.045" y="-55.0035">10</tspan><tspan font-size="37" x="-445.621" y="8.00051">12</tspan><tspan font-size="37" x="-356.841" y="98.0063">6</tspan><tspan font-size="37" x="-210.211" y="162.01">8</tspan><tspan font-size="37" x="-226.034" y="291.019">4</tspan></text><path d="M1077.64 240.385C1081.19 226.155 1087.42 194.758 1093.65 180.616 1099.88 166.474 1110.73 166.208 1115 155.535 1119.27 144.861 1123.45 129.03 1119.27 116.578 1115.09 104.126 1104.15 85.537 1089.91 80.8231 1075.68 76.1092 1066.16 89.1837 1033.87 88.2943 1001.57 87.4048 950.064 83.2246 896.152 75.4866 842.241 67.7486 749.72 52.0948 710.398 41.8665 671.077 31.6381 678.194 17.0516 660.224 14.1165 642.253 11.1814 611.561 13.8497 602.576 24.2559 593.591 34.6621 599.462 61.1669 606.312 76.5539 613.162 91.9409 627.663 109.463 643.676 116.578 659.69 123.693 676.148 109.018 702.392 119.246 728.636 129.475 761.018 155.446 801.14 177.948 841.262 200.45 937.965 242.698 943.125 254.26 948.284 265.823 858.165 252.215 832.099 247.323 806.033 242.431 799.45 229.623 786.728 224.909 774.007 220.196 766 216.015 755.769 219.039 745.539 222.063 730.86 233.27 725.344 243.054 719.828 252.837 728.636 259.953 722.675 277.741 716.715 295.529 704.26 333.063 689.581 349.784 674.902 366.505 646.256 364.904 634.602 378.068 622.948 391.231 615.653 413.912 619.657 428.765 623.66 443.618 644.566 461.585 658.622 467.188 672.678 472.791 684.421 459.45 703.993 462.385 723.565 465.32 737.087 472.791 776.053 484.798 815.018 496.806 899.978 518.685 937.787 534.428 975.596 550.171 986.983 567.515 1002.91 579.255 1018.83 590.995 1019.54 603.892 1033.33 604.87 1047.12 605.849 1077.1 598.911 1085.64 585.125 1094.18 571.339 1092.58 535.496 1084.57 522.154 1076.57 508.813 1057.89 507.746 1037.6 505.077 1017.32 502.409 1012.07 519.041 962.874 506.145 913.678 493.248 774.007 445.486 742.425 427.698 710.843 409.909 731.572 413.645 773.384 399.414 815.196 385.183 946.149 351.652 993.299 342.313 1040.45 332.974 1041.07 350.318 1056.28 343.38 1071.5 336.443 1081.91 313.585 1084.57 300.688 1087.24 287.792 1073.28 276.229 1072.3 266.001 1071.32 255.772 1074.08 254.616 1077.64 240.385Z" stroke="#000000" stroke-width="2.00057" stroke-miterlimit="8" stroke-dasharray="16.0046 6.00171" fill="#FFF2CC" fill-rule="evenodd"/><path d="M644 91.9941 668.007 380.858" stroke="#D9D9D9" stroke-width="4.00114" stroke-miterlimit="8" fill="none" fill-rule="evenodd"/><path d="M668 89.9942 754.295 239.099" stroke="#D9D9D9" stroke-width="4.00114" stroke-miterlimit="8" fill="none" fill-rule="evenodd"/><path d="M0 0 59.022 96.2927" stroke="#000000" stroke-width="4.00088" stroke-miterlimit="8" fill="none" fill-rule="evenodd" transform="matrix(-1.00006 0 0 1 748.026 288.982)"/><path d="M0 0 298.666 89.8998" stroke="#000000" stroke-width="4.00088" stroke-miterlimit="8" fill="none" fill-rule="evenodd" transform="matrix(-1.00006 0 0 1 1003.68 313.98)"/><path d="M0 0 18.4041 104.023" stroke="#000000" stroke-width="4.00088" stroke-miterlimit="8" fill="none" fill-rule="evenodd" transform="matrix(1.00006 0 0 -1 1041 267.012)"/><path d="M686 59.9961 1038.1 124.01" stroke="#000000" stroke-width="4.00114" stroke-miterlimit="8" fill="none" fill-rule="evenodd"/><path d="M621 62.996C621 45.324 635.327 30.998 653 30.998 670.673 30.998 685 45.324 685 62.996 685 80.668 670.673 94.994 653 94.994 635.327 94.994 621 80.668 621 62.996Z" stroke="#000000" stroke-width="4.00114" stroke-miterlimit="8" fill="#D9D9D9" fill-rule="evenodd"/><path d="M643 414.973C643 397.301 657.327 382.975 675 382.975 692.673 382.975 707 397.301 707 414.973 707 432.645 692.673 446.971 675 446.971 657.327 446.971 643 432.645 643 414.973Z" stroke="#000000" stroke-width="4.00114" stroke-miterlimit="8" fill="#D9D9D9" fill-rule="evenodd"/><path d="M739 265.983C739 248.311 753.327 233.985 771 233.985 788.673 233.985 803 248.311 803 265.983 803 283.655 788.673 297.981 771 297.981 753.327 297.981 739 283.655 739 265.983Z" stroke="#000000" stroke-width="4.00114" stroke-miterlimit="8" fill="#D9D9D9" fill-rule="evenodd"/><path d="M1001 297.981C1001 280.309 1015.33 265.983 1033 265.983 1050.67 265.983 1065 280.309 1065 297.981 1065 315.653 1050.67 329.979 1033 329.979 1015.33 329.979 1001 315.653 1001 297.981Z" stroke="#000000" stroke-width="4.00114" stroke-miterlimit="8" fill="#D9D9D9" fill-rule="evenodd"/><path d="M1038 133.991C1038 116.319 1052.33 101.994 1070 101.994 1087.67 101.994 1102 116.319 1102 133.991 1102 151.663 1087.67 165.989 1070 165.989 1052.33 165.989 1038 151.663 1038 133.991Z" stroke="#000000" stroke-width="4.00114" stroke-miterlimit="8" fill="#D9D9D9" fill-rule="evenodd"/><path d="M1011 554.965C1011 537.293 1025.33 522.967 1043 522.967 1060.67 522.967 1075 537.293 1075 554.965 1075 572.637 1060.67 586.963 1043 586.963 1025.33 586.963 1011 572.637 1011 554.965Z" stroke="#000000" stroke-width="4.00114" stroke-miterlimit="8" fill="#D9D9D9" fill-rule="evenodd"/><path d="M1000.51 291.555 803 271.983" stroke="#000000" stroke-width="4.00114" stroke-miterlimit="8" fill="none" fill-rule="evenodd"/><path d="M1010.85 544.037 701 432.972" stroke="#000000" stroke-width="4.00114" stroke-miterlimit="8" fill="none" fill-rule="evenodd"/><path d="M680 79.9949 1008.09 275.238" stroke="#000000" stroke-width="4.00114" stroke-miterlimit="8" fill="none" fill-rule="evenodd"/><text font-family="Calibri,Calibri_MSFontService,sans-serif" font-weight="400" font-size="37" transform="matrix(1 0 0 0.999936 1055.22 230)">7<tspan font-size="37" x="-184.703" y="-42.0027">4</tspan><tspan font-size="37" x="-174.2" y="-141.009">8</tspan><tspan font-size="37" x="-202.98" y="40.0026">3</tspan><tspan fill="#D9D9D9" font-size="37" x="-333.045" y="-54.0035">10</tspan><tspan fill="#D9D9D9" font-size="37" x="-445.621" y="8.00051">12</tspan><tspan font-size="37" x="-356.841" y="98.0063">6</tspan><tspan font-size="37" x="-198.538" y="165.011">8</tspan><tspan font-size="37" x="-226.034" y="292.019">4</tspan></text><rect x="746" y="637.959" width="356" height="76.9951" stroke="#385723" stroke-width="4.00114" stroke-miterlimit="8" fill="#E2F0D9"/><text font-family="Calibri,Calibri_MSFontService,sans-serif" font-weight="400" font-size="37" transform="matrix(1 0 0 0.999936 815.964 689)">Συνδεδεμένος</text><path d="M1465.63 160.365C1434.33 141.972 1454.78 151.035 1433.62 137.974 1412.46 124.913 1357.43 97.9904 1338.66 81.997 1319.9 66.0036 1327.02 51.1652 1321.06 42.0134 1315.1 32.8616 1314.66 30.2849 1302.92 27.0862 1291.19 23.8875 1263.09 15.7132 1250.64 22.8213 1238.19 29.9295 1229.57 53.7419 1228.24 69.7354 1226.9 85.7288 1231.17 109.452 1242.64 118.782 1254.11 128.111 1269.05 116.561 1297.05 125.712 1325.06 134.864 1370.14 151.035 1410.68 173.693 1451.23 196.35 1532.05 247.173 1540.32 261.656 1548.59 276.139 1480.3 265.211 1460.3 260.59 1440.29 255.97 1434.33 239.799 1420.29 233.935 1406.24 228.07 1388.46 221.673 1376.01 225.405 1363.56 229.136 1350.31 244.064 1345.6 256.325 1340.89 268.587 1339.38 285.913 1347.73 298.974 1356.09 312.036 1378.14 332.294 1395.75 334.693 1413.35 337.092 1427.31 315.323 1453.36 313.369 1479.41 311.414 1552.05 322.965 1552.05 322.965 1577.39 325.453 1592.33 322.52 1605.4 328.296 1618.47 334.071 1622.74 351.664 1630.48 357.617 1638.21 363.57 1640.17 366.68 1651.81 364.014 1663.46 361.349 1692.09 354.241 1700.36 341.624 1708.63 329.007 1706.76 302.262 1701.43 288.312 1696.09 274.362 1681.69 264.589 1668.35 257.925 1655.02 251.261 1655.02 264.589 1621.41 248.329 1587.8 232.069 1496.93 178.757 1465.63 160.365Z" stroke="#000000" stroke-width="2.00057" stroke-miterlimit="8" stroke-dasharray="16.0046 6.00171" fill="#FFF2CC" fill-rule="evenodd"/><path d="M1334.1 470.022C1302.03 461.352 1329.84 467.888 1295.3 471.223 1260.76 474.558 1261.83 465.887 1254.1 454.015 1246.36 442.143 1243.23 412.996 1248.9 399.989 1254.56 386.983 1273.43 376.178 1288.1 375.978 1302.77 375.778 1325.9 388.451 1336.9 398.789 1347.91 409.127 1344.9 428.803 1354.11 438.007 1363.31 447.212 1352.31 441.009 1392.11 454.015 1431.91 467.021 1544.12 505.039 1592.93 516.044 1641.73 527.049 1664.93 511.575 1684.93 520.046 1704.94 528.516 1711.87 554.062 1712.94 566.868 1714 579.674 1701.27 590.879 1691.34 596.882 1681.4 602.885 1669.67 607.954 1653.33 602.885 1637 597.815 1621.53 577.072 1593.33 566.467 1565.12 555.862 1530.92 539.321 1487.72 523.247 1444.51 507.173 1366.17 478.693 1334.1 470.022Z" stroke="#000000" stroke-width="2.00057" stroke-miterlimit="8" stroke-dasharray="16.0046 6.00171" fill="#FFF2CC" fill-rule="evenodd"/><path d="M1675.57 99.5969C1668.68 100.389 1668.01 102.238 1663.52 107.124 1659.04 112.011 1650.54 117.822 1648.67 128.915 1646.79 140.008 1644.98 163.713 1652.28 173.684 1659.57 183.655 1678.85 190.39 1692.43 188.739 1706.02 187.088 1727.37 174.542 1733.79 163.779 1740.21 153.016 1735.8 134.395 1730.98 124.161 1726.16 113.926 1713.45 106.662 1704.88 102.37 1696.31 98.0782 1682.46 98.8045 1675.57 99.5969Z" stroke="#000000" stroke-width="2.00057" stroke-miterlimit="8" stroke-dasharray="16.0046 6.00171" fill="#FFF2CC" fill-rule="evenodd"/><path d="M1265 101.994 1289.01 390.857" stroke="#D9D9D9" stroke-width="4.00114" stroke-miterlimit="8" fill="none" fill-rule="evenodd"/><path d="M1290 99.9936 1376.3 249.098" stroke="#D9D9D9" stroke-width="4.00114" stroke-miterlimit="8" fill="none" fill-rule="evenodd"/><path d="M0 0 59.022 96.2927" stroke="#D9D9D9" stroke-width="4.00088" stroke-miterlimit="8" fill="none" fill-rule="evenodd" transform="matrix(-1.00006 0 0 1 1369.03 298.981)"/><path d="M0 0 298.666 89.8998" stroke="#D9D9D9" stroke-width="4.00088" stroke-miterlimit="8" fill="none" fill-rule="evenodd" transform="matrix(-1.00006 0 0 1 1624.68 323.979)"/><path d="M0 0 18.4041 104.023" stroke="#D9D9D9" stroke-width="4.00088" stroke-miterlimit="8" fill="none" fill-rule="evenodd" transform="matrix(1.00006 0 0 -1 1662 277.012)"/><path d="M1307 69.9955 1659.1 134.01" stroke="#D9D9D9" stroke-width="4.00114" stroke-miterlimit="8" fill="none" fill-rule="evenodd"/><path d="M1242 72.9954C1242 55.3234 1256.33 40.9974 1274 40.9974 1291.67 40.9974 1306 55.3234 1306 72.9954 1306 90.6673 1291.67 104.993 1274 104.993 1256.33 104.993 1242 90.6673 1242 72.9954Z" stroke="#000000" stroke-width="4.00114" stroke-miterlimit="8" fill="#D9D9D9" fill-rule="evenodd"/><path d="M1264 424.973C1264 407.301 1278.33 392.975 1296 392.975 1313.67 392.975 1328 407.301 1328 424.973 1328 442.645 1313.67 456.971 1296 456.971 1278.33 456.971 1264 442.645 1264 424.973Z" stroke="#000000" stroke-width="4.00114" stroke-miterlimit="8" fill="#D9D9D9" fill-rule="evenodd"/><path d="M1360 275.982C1360 258.31 1374.33 243.984 1392 243.984 1409.67 243.984 1424 258.31 1424 275.982 1424 293.654 1409.67 307.98 1392 307.98 1374.33 307.98 1360 293.654 1360 275.982Z" stroke="#000000" stroke-width="4.00114" stroke-miterlimit="8" fill="#D9D9D9" fill-rule="evenodd"/><path d="M1622 307.98C1622 290.308 1636.33 275.982 1654 275.982 1671.67 275.982 1686 290.308 1686 307.98 1686 325.652 1671.67 339.978 1654 339.978 1636.33 339.978 1622 325.652 1622 307.98Z" stroke="#000000" stroke-width="4.00114" stroke-miterlimit="8" fill="#D9D9D9" fill-rule="evenodd"/><path d="M1659 143.991C1659 126.319 1673.33 111.993 1691 111.993 1708.67 111.993 1723 126.319 1723 143.991 1723 161.663 1708.67 175.989 1691 175.989 1673.33 175.989 1659 161.663 1659 143.991Z" stroke="#000000" stroke-width="4.00114" stroke-miterlimit="8" fill="#D9D9D9" fill-rule="evenodd"/><path d="M1632 564.964C1632 547.292 1646.33 532.966 1664 532.966 1681.67 532.966 1696 547.292 1696 564.964 1696 582.636 1681.67 596.962 1664 596.962 1646.33 596.962 1632 582.636 1632 564.964Z" stroke="#000000" stroke-width="4.00114" stroke-miterlimit="8" fill="#D9D9D9" fill-rule="evenodd"/><path d="M1622.51 301.555 1425 281.982" stroke="#000000" stroke-width="4.00114" stroke-miterlimit="8" fill="none" fill-rule="evenodd"/><path d="M1631.85 554.036 1322 442.972" stroke="#000000" stroke-width="4.00114" stroke-miterlimit="8" fill="none" fill-rule="evenodd"/><path d="M1301 89.9942 1629.09 285.237" stroke="#000000" stroke-width="4.00114" stroke-miterlimit="8" fill="none" fill-rule="evenodd"/><text fill="#D9D9D9" font-family="Calibri,Calibri_MSFontService,sans-serif" font-weight="400" font-size="37" transform="matrix(1 0 0 0.999936 1676.32 240)">7<tspan fill="#000000" font-size="37" x="-184.703" y="-42.0027">4</tspan><tspan font-size="37" x="-174.2" y="-141.009">8</tspan><tspan fill="#000000" font-size="37" x="-202.98" y="40.0026">3</tspan><tspan font-size="37" x="-333.045" y="-54.0035">10</tspan><tspan font-size="37" x="-445.621" y="8.00051">12</tspan><tspan font-size="37" x="-356.841" y="98.0063">6</tspan><tspan font-size="37" x="-210.21" y="163.01">8</tspan><tspan fill="#000000" font-size="37" x="-226.034" y="292.019">4</tspan></text><rect x="1272" y="637.959" width="355" height="76.9951" stroke="#C00000" stroke-width="4.00114" stroke-miterlimit="8" fill="#FBD7CF"/><text font-family="Calibri,Calibri_MSFontService,sans-serif" font-weight="400" font-size="37" transform="matrix(1 0 0 0.999936 1309.63 689)">Μη<tspan font-size="37" x="52.0148" y="0">-</tspan><tspan font-size="37" x="63.5181" y="0">Συνδεδεμένος</tspan></text></g></svg>