<svg width="208" height="250" xmlns="http://www.w3.org/2000/svg" xmlns:xlink="http://www.w3.org/1999/xlink" overflow="hidden"><defs><clipPath id="clip0"><rect x="0" y="0" width="208" height="250"/></clipPath></defs><g clip-path="url(#clip0)"><rect x="0" y="0" width="208" height="250.3" fill="#FFFFFF"/><path d="M50 108.13C50 77.7175 74.1766 53.0636 104 53.0636 133.823 53.0636 158 77.7175 158 108.13 158 138.542 133.823 163.196 104 163.196 74.1766 163.196 50 138.542 50 108.13Z" fill="#D9D9D9" fill-rule="evenodd"/><path d="M68 213.757C68 211.268 70.0148 209.251 72.5001 209.251L135.5 209.251C137.985 209.251 140 211.268 140 213.757L140 231.778C140 234.266 137.985 236.283 135.5 236.283L72.5001 236.283C70.0148 236.283 68 234.266 68 231.778Z" fill="#595959" fill-rule="evenodd"/><path d="M77 226.772C77 224.284 79.0147 222.267 81.5001 222.267L126.5 222.267C128.985 222.267 131 224.284 131 226.772L131 244.794C131 247.282 128.985 249.299 126.5 249.299L81.5001 249.299C79.0147 249.299 77 247.282 77 244.794Z" fill="#595959" fill-rule="evenodd"/><path d="M110 0 0 0 6.32752 10.8532C14.5561 25.2443 21.9641 39.4759 26.0893 53.0688 30.9022 68.9271 30.9903 96.9225 30.937 103.674L30.9335 104 79.0664 104 79.0629 103.673C79.0098 96.9224 79.0978 68.927 83.9106 53.0687 88.036 39.4758 95.4439 25.2442 103.672 10.8531L110 0Z" fill="#D9D9D9" fill-rule="evenodd" transform="matrix(-1 0 0 1.0012 159 105.126)"/></g></svg>