<svg width="208" height="250" xmlns="http://www.w3.org/2000/svg" xmlns:xlink="http://www.w3.org/1999/xlink" overflow="hidden"><defs><clipPath id="clip0"><rect x="0" y="0" width="208" height="250"/></clipPath></defs><g clip-path="url(#clip0)"><rect x="0" y="0" width="208" height="250.3" fill="#FFFFFF"/><path d="M50 108.13C50 77.7175 74.1766 53.0636 104 53.0636 133.823 53.0636 158 77.7175 158 108.13 158 138.542 133.823 163.196 104 163.196 74.1766 163.196 50 138.542 50 108.13Z" fill="#F3D74B" fill-rule="evenodd"/><path d="M68 213.757C68 211.268 70.0148 209.251 72.5001 209.251L135.5 209.251C137.985 209.251 140 211.268 140 213.757L140 231.778C140 234.266 137.985 236.283 135.5 236.283L72.5001 236.283C70.0148 236.283 68 234.266 68 231.778Z" fill="#595959" fill-rule="evenodd"/><path d="M77 226.772C77 224.284 79.0147 222.267 81.5001 222.267L126.5 222.267C128.985 222.267 131 224.284 131 226.772L131 244.794C131 247.282 128.985 249.299 126.5 249.299L81.5001 249.299C79.0147 249.299 77 247.282 77 244.794Z" fill="#595959" fill-rule="evenodd"/><path d="M110 0 0 0 6.32752 10.8532C14.5561 25.2443 21.9641 39.4759 26.0893 53.0688 30.9022 68.9271 30.9903 96.9225 30.937 103.674L30.9335 104 79.0664 104 79.0629 103.673C79.0098 96.9224 79.0978 68.927 83.9106 53.0687 88.036 39.4758 95.4439 25.2442 103.672 10.8531L110 0Z" fill="#F3D74B" fill-rule="evenodd" transform="matrix(-1 0 0 1.0012 159 105.126)"/><path d="M93 5.5067C93 3.57134 94.567 2.00243 96.5 2.00243L110.5 2.00243C112.433 2.00243 114 3.57134 114 5.5067L114 39.5474C114 41.4828 112.433 43.0517 110.5 43.0517L96.5 43.0517C94.567 43.0517 93 41.4828 93 39.5474Z" fill="#F3D74B" fill-rule="evenodd"/><path d="M142.225 11.4236C143.13 9.73266 145.233 9.09658 146.922 10.0028L159.153 16.5664C160.842 17.4727 161.478 19.5781 160.572 21.269L144.435 51.4139C143.53 53.1048 141.427 53.7409 139.738 52.8346L127.507 46.2711C125.818 45.3648 125.182 43.2594 126.088 41.5685Z" fill="#F3D74B" fill-rule="evenodd"/><path d="M181.953 43.6277C183.582 42.6163 185.72 43.1179 186.731 44.7481L194.047 56.5547C195.057 58.1849 194.556 60.3263 192.928 61.3378L163.9 79.3688C162.272 80.3802 160.133 79.8785 159.123 78.2483L151.807 66.4417C150.796 64.8115 151.297 62.6701 152.926 61.6587Z" fill="#F3D74B" fill-rule="evenodd"/><path d="M202.667 94.113C204.508 94.113 206 95.6072 206 97.4504L206 110.8C206 112.643 204.508 114.137 202.667 114.137L168.333 114.137C166.492 114.137 165 112.643 165 110.8L165 97.4504C165 95.6072 166.492 94.113 168.333 94.113Z" fill="#F3D74B" fill-rule="evenodd"/><path d="M197.041 146.127C198.73 147.034 199.365 149.139 198.46 150.83L191.905 163.076C190.999 164.767 188.896 165.403 187.208 164.497L157.099 148.341C155.41 147.434 154.775 145.329 155.68 143.638L162.236 131.392C163.141 129.701 165.244 129.065 166.933 129.971Z" fill="#F3D74B" fill-rule="evenodd"/><path d="M0 3.47044C-6.54242e-16 1.55377 1.55377 0 3.47044 0L17.3518 0C19.2685 -6.54241e-16 20.8223 1.55377 20.8223 3.47044L20.8223 37.6402C20.8223 39.5569 19.2685 41.1106 17.3518 41.1106L3.47044 41.1106C1.55377 41.1106 0 39.5569 0 37.6402Z" fill="#F3D74B" fill-rule="evenodd" transform="matrix(-0.881152 0.472833 0.472266 0.88221 63.8948 7.55326)"/><path d="M0 3.47067C-6.54285e-16 1.55387 1.55387 0 3.47067 0L17.3529 0C19.2697 -6.54284e-16 20.8236 1.55387 20.8236 3.47067L20.8236 37.6426C20.8236 39.5594 19.2697 41.1133 17.3529 41.1133L3.47067 41.1133C1.55387 41.1133 0 39.5594 0 37.6426Z" fill="#F3D74B" fill-rule="evenodd" transform="matrix(-0.527022 0.85048 0.84946 0.527655 22.857 40.9877)"/><path d="M0 3.50006C-6.52482e-16 1.56703 1.56704 0 3.50007 0L17.5 0C19.433 -6.52481e-16 21 1.56703 21 3.50006L21 37.4999C21 39.433 19.433 41 17.5 41L3.50007 41C1.56704 41 0 39.433 0 37.4999Z" fill="#F3D74B" fill-rule="evenodd" transform="matrix(1.83697e-16 1.0012 1 -1.83918e-16 1.99998 93.1117)"/><path d="M0 3.47044C-6.54242e-16 1.55377 1.55377 0 3.47044 0L17.3518 0C19.2685 -6.54241e-16 20.8223 1.55377 20.8223 3.47044L20.8223 37.6402C20.8223 39.5568 19.2685 41.1106 17.3518 41.1106L3.47044 41.1106C1.55377 41.1106 0 39.5568 0 37.6402Z" fill="#F3D74B" fill-rule="evenodd" transform="matrix(0.472266 0.882211 0.881153 -0.472833 7.65925 146.96)"/></g></svg>