<svg width="1096" height="340" xmlns="http://www.w3.org/2000/svg" xmlns:xlink="http://www.w3.org/1999/xlink" overflow="hidden"><defs><clipPath id="clip0"><rect x="0" y="0" width="1096" height="340"/></clipPath></defs><g clip-path="url(#clip0)"><rect x="0" y="0" width="1096" height="339.833" fill="#FFFFFF"/><path d="M595.5 69.466 1089.69 69.4661" stroke="#000000" stroke-width="3" stroke-miterlimit="8" stroke-dasharray="9 3" fill="none" fill-rule="evenodd"/><path d="M595.5 180.412 1089.69 180.412" stroke="#000000" stroke-width="3" stroke-miterlimit="8" stroke-dasharray="9 3" fill="none" fill-rule="evenodd"/><path d="M595.5 295.355 1089.69 295.355" stroke="#000000" stroke-width="3" stroke-miterlimit="8" stroke-dasharray="9 3" fill="none" fill-rule="evenodd"/><path d="M6.50005 68.4665 553.061 68.4666" stroke="#000000" stroke-width="3" stroke-miterlimit="8" stroke-dasharray="9 3" fill="none" fill-rule="evenodd"/><path d="M81.0835 56.5955 92.4267 67.0193 81.9978 78.357 70.6545 67.9332Z" fill="#C00000" fill-rule="evenodd"/><path d="M160.283 56.5956 171.627 67.0194 161.198 78.3571 149.855 67.9333Z" fill="#548235" fill-rule="evenodd"/><path d="M277.083 56.5954 288.427 67.0192 277.998 78.3569 266.655 67.9331Z" fill="#548235" fill-rule="evenodd"/><path d="M417.883 56.5954 429.227 67.0192 418.798 78.3569 407.454 67.9331Z" fill="#C00000" fill-rule="evenodd"/><text fill="#C00000" font-family="Cambria Math,Cambria Math_MSFontService,sans-serif" font-weight="400" font-size="24" transform="matrix(1 0 0 0.99951 68.5406 98)">𝑎<tspan font-size="18" x="13.3333" y="4.00196">𝑖</tspan><tspan font-size="14" x="19.5" y="8.00392">1</tspan><tspan fill="#548235" font-size="24" x="79.2" y="0">𝑎</tspan><tspan fill="#548235" font-size="18" x="92.5333" y="4.00196">𝑖</tspan><tspan fill="#548235" font-size="14" x="98.7" y="8.00392">2</tspan><tspan fill="#548235" font-size="24" x="198.128" y="1.00049">𝑏</tspan><tspan fill="#548235" font-size="18" x="208.235" y="6.00294">𝑗</tspan><tspan fill="#548235" font-size="14" x="215.721" y="9.00441">2</tspan><tspan font-size="24" x="338.356" y="1.00049">𝑏</tspan><tspan font-size="18" x="348.462" y="6.00294">𝑗</tspan><tspan font-size="14" x="355.949" y="9.00441">1</tspan></text><path d="M82.5001 50.476C101.555 1.28366 168.582 5.38029 224.415 5.71335 280.249 6.0464 376.858 5.54677 417.5 52.4743" stroke="#C00000" stroke-width="3" stroke-miterlimit="8" fill="none" fill-rule="evenodd"/><path d="M161.5 50.2418C168.098 19.8891 191.308 22.4168 210.641 22.6223 229.974 22.8278 263.427 22.5195 277.5 51.4748" stroke="#548235" stroke-width="3" stroke-miterlimit="8" fill="none" fill-rule="evenodd"/><path d="M6.50005 179.412 553.061 179.412" stroke="#000000" stroke-width="3" stroke-miterlimit="8" stroke-dasharray="9 3" fill="none" fill-rule="evenodd"/><path d="M81.0835 168.197 92.4267 178.621 81.9978 189.958 70.6545 179.535Z" fill="#C00000" fill-rule="evenodd"/><path d="M160.283 168.197 171.627 178.621 161.198 189.958 149.855 179.535Z" fill="#548235" fill-rule="evenodd"/><path d="M277.083 168.197 288.427 178.621 277.998 189.958 266.655 179.534Z" fill="#548235" fill-rule="evenodd"/><path d="M417.883 168.197 429.227 178.621 418.798 189.958 407.454 179.534Z" fill="#C00000" fill-rule="evenodd"/><text fill="#C00000" font-family="Cambria Math,Cambria Math_MSFontService,sans-serif" font-weight="400" font-size="24" transform="matrix(1 0 0 0.99951 68.5406 209)">𝑎<tspan font-size="18" x="13.3333" y="5.00245">𝑖</tspan><tspan font-size="14" x="19.5" y="9.00441">1</tspan><tspan fill="#548235" font-size="24" x="79.2" y="0">𝑏</tspan><tspan fill="#548235" font-size="18" x="89.3067" y="5.00245">𝑗</tspan><tspan fill="#548235" font-size="14" x="96.7933" y="9.00441">2</tspan><tspan fill="#548235" font-size="24" x="198.128" y="1.00049">𝑎</tspan><tspan fill="#548235" font-size="18" x="211.461" y="6.00294">𝑖</tspan><tspan fill="#548235" font-size="14" x="217.628" y="10.0049">2</tspan><tspan font-size="24" x="338.356" y="1.00049">𝑏</tspan><tspan font-size="18" x="348.462" y="6.00294">𝑗</tspan><tspan font-size="14" x="355.949" y="10.0049">1</tspan></text><path d="M82.5001 162.421C101.555 113.229 168.582 117.325 224.415 117.658 280.249 117.992 376.858 117.492 417.5 164.419" stroke="#C00000" stroke-width="3" stroke-miterlimit="8" fill="none" fill-rule="evenodd"/><path d="M161.5 162.144C168.098 130.745 191.308 133.36 210.641 133.573 229.974 133.785 263.427 133.466 277.5 163.42" stroke="#548235" stroke-width="3" stroke-miterlimit="8" fill="none" fill-rule="evenodd"/><path d="M6.50005 294.356 553.061 294.356" stroke="#000000" stroke-width="3" stroke-miterlimit="8" stroke-dasharray="9 3" fill="none" fill-rule="evenodd"/><path d="M81.0835 283.156 92.4267 293.579 81.9978 304.917 70.6545 294.493Z" fill="#C00000" fill-rule="evenodd"/><path d="M160.283 283.156 171.627 293.579 161.198 304.917 149.855 294.493Z" fill="#548235" fill-rule="evenodd"/><path d="M277.083 283.155 288.427 293.579 277.998 304.917 266.655 294.493Z" fill="#C00000" fill-rule="evenodd"/><path d="M417.883 283.155 429.227 293.579 418.798 304.917 407.454 294.493Z" fill="#548235" fill-rule="evenodd"/><text fill="#C00000" font-family="Cambria Math,Cambria Math_MSFontService,sans-serif" font-weight="400" font-size="24" transform="matrix(1 0 0 0.99951 68.5406 324)">𝑎<tspan font-size="18" x="13.3333" y="5.00245">𝑖</tspan><tspan font-size="14" x="19.5" y="9.00441">1</tspan><tspan fill="#548235" font-size="24" x="79.2" y="0">𝑏</tspan><tspan fill="#548235" font-size="18" x="89.3067" y="5.00245">𝑗</tspan><tspan fill="#548235" font-size="14" x="96.7933" y="9.00441">2</tspan><tspan font-size="24" x="198.128" y="1.00049">𝑏</tspan><tspan font-size="18" x="208.235" y="6.00294">𝑗</tspan><tspan font-size="14" x="215.721" y="10.0049">1</tspan><tspan fill="#548235" font-size="24" x="338.356" y="1.00049">𝑎</tspan><tspan fill="#548235" font-size="18" x="351.689" y="6.00294">𝑖</tspan><tspan fill="#548235" font-size="14" x="357.856" y="10.0049">2</tspan></text><path d="M161.5 276.62C176.062 233.708 227.282 237.282 269.949 237.572 312.615 237.863 386.442 237.427 417.5 278.364" stroke="#548235" stroke-width="3" stroke-miterlimit="8" fill="none" fill-rule="evenodd"/><path d="M82.5001 278.619C93.5919 235.707 132.607 239.281 165.107 239.571 197.607 239.862 253.843 239.426 277.5 280.363" stroke="#C00000" stroke-width="3" stroke-miterlimit="8" fill="none" fill-rule="evenodd"/><path d="M670.12 57.7595 681.463 68.1833 671.034 79.521 659.691 69.0972Z" fill="#C00000" fill-rule="evenodd"/><path d="M749.32 57.7596 760.663 68.1834 750.234 79.5211 738.891 69.0973Z" fill="#548235" fill-rule="evenodd"/><path d="M866.12 57.7594 877.463 68.1832 867.034 79.5209 855.691 69.097Z" fill="#C00000" fill-rule="evenodd"/><path d="M1006.92 57.7594 1018.26 68.1832 1007.83 79.5209 996.491 69.097Z" fill="#548235" fill-rule="evenodd"/><text fill="#C00000" font-family="Cambria Math,Cambria Math_MSFontService,sans-serif" font-weight="400" font-size="24" transform="matrix(1 0 0 0.99951 657.577 99)">𝑎<tspan font-size="18" x="13.3333" y="5.00245">𝑖</tspan><tspan font-size="14" x="19.5" y="8.00392">1</tspan><tspan fill="#548235" font-size="24" x="79.2" y="0">𝑎</tspan><tspan fill="#548235" font-size="18" x="92.5333" y="5.00245">𝑖</tspan><tspan fill="#548235" font-size="14" x="98.7" y="8.00392">2</tspan><tspan font-size="24" x="198.128" y="1.00049">𝑏</tspan><tspan font-size="18" x="208.235" y="6.00294">𝑗</tspan><tspan font-size="14" x="215.721" y="9.00441">2</tspan><tspan fill="#548235" font-size="24" x="338.356" y="1.00049">𝑏</tspan><tspan fill="#548235" font-size="18" x="348.462" y="6.00294">𝑗</tspan><tspan fill="#548235" font-size="14" x="355.949" y="9.00441">1</tspan></text><path d="M670.12 169.361 681.463 179.785 671.034 191.122 659.691 180.699Z" fill="#C00000" fill-rule="evenodd"/><path d="M749.32 169.361 760.663 179.785 750.234 191.122 738.891 180.699Z" fill="#C00000" fill-rule="evenodd"/><path d="M866.12 169.361 877.463 179.785 867.034 191.122 855.691 180.698Z" fill="#548235" fill-rule="evenodd"/><path d="M1006.92 169.361 1018.26 179.785 1007.83 191.122 996.491 180.698Z" fill="#548235" fill-rule="evenodd"/><text fill="#C00000" font-family="Cambria Math,Cambria Math_MSFontService,sans-serif" font-weight="400" font-size="24" transform="matrix(1 0 0 0.99951 657.577 210)">𝑎<tspan font-size="18" x="13.3333" y="5.00245">𝑖</tspan><tspan font-size="14" x="19.5" y="9.00441">1</tspan><tspan font-size="24" x="79.2" y="0">𝑏</tspan><tspan font-size="18" x="89.3066" y="5.00245">𝑗</tspan><tspan font-size="14" x="96.7933" y="9.00441">2</tspan><tspan fill="#548235" font-size="24" x="198.128" y="1.00049">𝑎</tspan><tspan fill="#548235" font-size="18" x="211.461" y="6.00294">𝑖</tspan><tspan fill="#548235" font-size="14" x="217.628" y="10.0049">2</tspan><tspan fill="#548235" font-size="24" x="338.356" y="1.00049">𝑏</tspan><tspan fill="#548235" font-size="18" x="348.462" y="6.00294">𝑗</tspan><tspan fill="#548235" font-size="14" x="355.949" y="10.0049">1</tspan></text><path d="M670.12 284.319 681.463 294.743 671.034 306.081 659.691 295.657Z" fill="#C00000" fill-rule="evenodd"/><path d="M749.32 284.32 760.663 294.743 750.234 306.081 738.891 295.657Z" fill="#C00000" fill-rule="evenodd"/><path d="M866.12 284.319 877.463 294.743 867.034 306.081 855.691 295.657Z" fill="#548235" fill-rule="evenodd"/><path d="M1006.92 284.319 1018.26 294.743 1007.83 306.081 996.491 295.657Z" fill="#548235" fill-rule="evenodd"/><text fill="#C00000" font-family="Cambria Math,Cambria Math_MSFontService,sans-serif" font-weight="400" font-size="24" transform="matrix(1 0 0 0.99951 657.577 325)">𝑎<tspan font-size="18" x="13.3333" y="5.00245">𝑖</tspan><tspan font-size="14" x="19.5" y="9.00441">1</tspan><tspan font-size="24" x="79.2" y="0">𝑏</tspan><tspan font-size="18" x="89.3066" y="5.00245">𝑗</tspan><tspan font-size="14" x="96.7933" y="9.00441">2</tspan><tspan fill="#548235" font-size="24" x="198.128" y="1.00049">𝑏</tspan><tspan fill="#548235" font-size="18" x="208.235" y="6.00294">𝑗</tspan><tspan fill="#548235" font-size="14" x="215.721" y="10.0049">1</tspan><tspan fill="#548235" font-size="24" x="338.356" y="1.00049">𝑎</tspan><tspan fill="#548235" font-size="18" x="351.689" y="6.00294">𝑖</tspan><tspan fill="#548235" font-size="14" x="357.856" y="10.0049">2</tspan></text><path d="M671.5 280.384C675.994 256.311 691.8 258.316 704.967 258.479 718.133 258.642 740.916 258.398 750.5 281.362" stroke="#C00000" stroke-width="3" stroke-miterlimit="8" fill="none" fill-rule="evenodd"/><path d="M864.5 280.384C872.577 256.311 900.989 258.316 924.655 258.479 948.322 258.642 989.273 258.398 1006.5 281.362" stroke="#548235" stroke-width="3" stroke-miterlimit="8" fill="none" fill-rule="evenodd"/><path d="M671.5 164.441C675.994 140.368 691.8 142.373 704.967 142.536 718.133 142.699 740.916 142.454 750.5 165.419" stroke="#C00000" stroke-width="3" stroke-miterlimit="8" fill="none" fill-rule="evenodd"/><path d="M864.5 165.441C872.577 141.368 900.989 143.372 924.655 143.535 948.322 143.698 989.273 143.454 1006.5 166.418" stroke="#548235" stroke-width="3" stroke-miterlimit="8" fill="none" fill-rule="evenodd"/><path d="M749.5 53.7296C764.119 10.8172 815.539 14.3908 858.372 14.6814 901.206 14.9719 975.321 14.536 1006.5 55.4729" stroke="#548235" stroke-width="3" stroke-miterlimit="8" fill="none" fill-rule="evenodd"/><path d="M670.5 55.7287C681.649 12.8162 720.864 16.3898 753.531 16.6804 786.198 16.9709 842.721 16.5351 866.5 57.4719" stroke="#C00000" stroke-width="3" stroke-miterlimit="8" fill="none" fill-rule="evenodd"/><path d="M545.5 17.2416 596 17.2416 596 5.49736 619.5 28.9859 596 52.4743 596 40.7301 545.5 40.7301Z" stroke="#BF9000" stroke-width="3" stroke-miterlimit="8" fill="#FFE699" fill-rule="evenodd"/><path d="M545.5 135.184 596 135.184 596 123.44 619.5 146.928 596 170.417 596 158.672 545.5 158.672Z" stroke="#BF9000" stroke-width="3" stroke-miterlimit="8" fill="#FFE699" fill-rule="evenodd"/><path d="M545.5 251.127 596 251.127 596 239.383 619.5 262.871 596 286.36 596 274.615 545.5 274.615Z" stroke="#BF9000" stroke-width="3" stroke-miterlimit="8" fill="#FFE699" fill-rule="evenodd"/></g></svg>