<svg width="1096" height="340" xmlns="http://www.w3.org/2000/svg" xmlns:xlink="http://www.w3.org/1999/xlink" overflow="hidden"><defs><clipPath id="clip0"><rect x="0" y="0" width="1096" height="340"/></clipPath></defs><g clip-path="url(#clip0)"><rect x="0" y="0" width="1096" height="339.833" fill="#FFFFFF"/><path d="M562.5 65.468 1074.6 65.4681" stroke="#AFABAB" stroke-width="3" stroke-miterlimit="8" stroke-dasharray="9 3" fill="none" fill-rule="evenodd"/><path d="M562.5 177.413 1074.6 177.413" stroke="#AFABAB" stroke-width="3" stroke-miterlimit="8" stroke-dasharray="9 3" fill="none" fill-rule="evenodd"/><path d="M562.5 292.357 1074.6 292.357" stroke="#AFABAB" stroke-width="3" stroke-miterlimit="8" stroke-dasharray="9 3" fill="none" fill-rule="evenodd"/><path d="M6.50005 65.468 553.061 65.4681" stroke="#000000" stroke-width="3" stroke-miterlimit="8" stroke-dasharray="9 3" fill="none" fill-rule="evenodd"/><path d="M81.0835 54.4845 92.4267 64.9083 81.9978 76.246 70.6545 65.8222Z" fill="#C00000" fill-rule="evenodd"/><path d="M160.283 54.4846 171.627 64.9084 161.198 76.2461 149.855 65.8223Z" fill="#548235" fill-rule="evenodd"/><path d="M277.083 54.4844 288.427 64.9082 277.998 76.2459 266.655 65.8221Z" fill="#548235" fill-rule="evenodd"/><path d="M417.883 54.4844 429.227 64.9082 418.798 76.2459 407.454 65.8221Z" fill="#C00000" fill-rule="evenodd"/><text fill="#C00000" font-family="Cambria Math,Cambria Math_MSFontService,sans-serif" font-weight="400" font-size="24" transform="matrix(1 0 0 0.99951 68.5406 95)">𝑎<tspan font-size="18" x="13.3333" y="5.00245">𝑖</tspan><tspan font-size="14" x="19.5" y="9.00441">1</tspan><tspan fill="#548235" font-size="24" x="79.2" y="0">𝑎</tspan><tspan fill="#548235" font-size="18" x="92.5333" y="5.00245">𝑖</tspan><tspan fill="#548235" font-size="14" x="98.7" y="9.00441">2</tspan><tspan fill="#548235" font-size="24" x="198.128" y="2.00098">𝑏</tspan><tspan fill="#548235" font-size="18" x="208.235" y="7.00343">𝑗</tspan><tspan fill="#548235" font-size="14" x="215.721" y="10.0049">2</tspan><tspan font-size="24" x="338.356" y="2.00098">𝑏</tspan><tspan font-size="18" x="348.462" y="7.00343">𝑗</tspan><tspan font-size="14" x="355.949" y="10.0049">1</tspan></text><path d="M82.5001 48.477C101.555-0.715365 168.582 3.38127 224.415 3.71433 280.249 4.04738 376.858 3.54774 417.5 50.4753" stroke="#C00000" stroke-width="3" stroke-miterlimit="8" fill="none" fill-rule="evenodd"/><path d="M161.5 48.2003C168.098 16.8009 191.308 19.4158 210.641 19.6284 229.974 19.841 263.427 19.522 277.5 49.4758" stroke="#548235" stroke-width="3" stroke-miterlimit="8" fill="none" fill-rule="evenodd"/><path d="M6.50005 177.413 553.061 177.413" stroke="#000000" stroke-width="3" stroke-miterlimit="8" stroke-dasharray="9 3" fill="none" fill-rule="evenodd"/><path d="M81.0835 166.086 92.4267 176.51 81.9978 187.847 70.6545 177.424Z" fill="#C00000" fill-rule="evenodd"/><path d="M160.283 166.086 171.627 176.51 161.198 187.848 149.855 177.424Z" fill="#548235" fill-rule="evenodd"/><path d="M277.083 166.086 288.427 176.51 277.998 187.847 266.655 177.423Z" fill="#548235" fill-rule="evenodd"/><path d="M417.883 166.086 429.227 176.51 418.798 187.847 407.454 177.423Z" fill="#C00000" fill-rule="evenodd"/><text fill="#C00000" font-family="Cambria Math,Cambria Math_MSFontService,sans-serif" font-weight="400" font-size="24" transform="matrix(1 0 0 0.99951 68.5406 207)">𝑎<tspan font-size="18" x="13.3333" y="5.00245">𝑖</tspan><tspan font-size="14" x="19.5" y="8.00392">1</tspan><tspan fill="#548235" font-size="24" x="79.2" y="0">𝑏</tspan><tspan fill="#548235" font-size="18" x="89.3067" y="5.00245">𝑗</tspan><tspan fill="#548235" font-size="14" x="96.7933" y="8.00392">2</tspan><tspan fill="#548235" font-size="24" x="198.128" y="1.00049">𝑎</tspan><tspan fill="#548235" font-size="18" x="211.461" y="6.00294">𝑖</tspan><tspan fill="#548235" font-size="14" x="217.628" y="10.0049">2</tspan><tspan font-size="24" x="338.356" y="1.00049">𝑏</tspan><tspan font-size="18" x="348.462" y="6.00294">𝑗</tspan><tspan font-size="14" x="355.949" y="10.0049">1</tspan></text><path d="M82.5001 160.422C101.555 111.23 168.582 115.326 224.415 115.659 280.249 115.993 376.858 115.493 417.5 162.42" stroke="#C00000" stroke-width="3" stroke-miterlimit="8" fill="none" fill-rule="evenodd"/><path d="M161.5 160.145C168.098 128.746 191.308 131.361 210.641 131.573 229.974 131.786 263.427 131.467 277.5 161.421" stroke="#548235" stroke-width="3" stroke-miterlimit="8" fill="none" fill-rule="evenodd"/><path d="M6.50005 292.357 553.061 292.357" stroke="#000000" stroke-width="3" stroke-miterlimit="8" stroke-dasharray="9 3" fill="none" fill-rule="evenodd"/><path d="M81.0835 281.045 92.4267 291.468 81.9978 302.806 70.6545 292.382Z" fill="#C00000" fill-rule="evenodd"/><path d="M160.283 281.045 171.627 291.468 161.198 302.806 149.855 292.382Z" fill="#548235" fill-rule="evenodd"/><path d="M277.083 281.044 288.427 291.468 277.998 302.806 266.655 292.382Z" fill="#C00000" fill-rule="evenodd"/><path d="M417.883 281.044 429.227 291.468 418.798 302.806 407.454 292.382Z" fill="#548235" fill-rule="evenodd"/><text fill="#C00000" font-family="Cambria Math,Cambria Math_MSFontService,sans-serif" font-weight="400" font-size="24" transform="matrix(1 0 0 0.99951 68.5406 322)">𝑎<tspan font-size="18" x="13.3333" y="5.00245">𝑖</tspan><tspan font-size="14" x="19.5" y="8.00392">1</tspan><tspan fill="#548235" font-size="24" x="79.2" y="0">𝑏</tspan><tspan fill="#548235" font-size="18" x="89.3067" y="5.00245">𝑗</tspan><tspan fill="#548235" font-size="14" x="96.7933" y="8.00392">2</tspan><tspan font-size="24" x="198.128" y="1.00049">𝑏</tspan><tspan font-size="18" x="208.235" y="6.00294">𝑗</tspan><tspan font-size="14" x="215.721" y="10.0049">1</tspan><tspan fill="#548235" font-size="24" x="338.356" y="1.00049">𝑎</tspan><tspan fill="#548235" font-size="18" x="351.689" y="6.00294">𝑖</tspan><tspan fill="#548235" font-size="14" x="357.856" y="10.0049">2</tspan></text><path d="M161.5 274.621C176.062 231.709 227.282 235.283 269.949 235.573 312.615 235.864 386.442 235.428 417.5 276.365" stroke="#548235" stroke-width="3" stroke-miterlimit="8" fill="none" fill-rule="evenodd"/><path d="M82.5001 276.62C93.5919 233.708 132.607 237.282 165.107 237.572 197.607 237.863 253.843 237.427 277.5 278.364" stroke="#C00000" stroke-width="3" stroke-miterlimit="8" fill="none" fill-rule="evenodd"/><path d="M636.219 54.4845 647.563 64.9083 637.134 76.246 625.79 65.8222Z" fill="#BFBFBF" fill-rule="evenodd"/><path d="M715.419 54.4846 726.763 64.9084 716.334 76.2461 704.99 65.8223Z" fill="#BFBFBF" fill-rule="evenodd"/><path d="M832.219 54.4844 843.563 64.9082 833.134 76.2459 821.79 65.8221Z" fill="#BFBFBF" fill-rule="evenodd"/><path d="M973.019 54.4844 984.362 64.9082 973.934 76.2459 962.59 65.8221Z" fill="#BFBFBF" fill-rule="evenodd"/><text fill="#7F7F7F" font-family="Cambria Math,Cambria Math_MSFontService,sans-serif" font-weight="400" font-size="24" transform="matrix(1 0 0 0.99951 623.676 95)">𝑏<tspan font-size="18" x="12.24" y="5.00245">𝑖</tspan><tspan font-size="14" x="18.4066" y="9.00441">1</tspan><tspan font-size="24" x="79.2" y="0">𝑏</tspan><tspan font-size="18" x="91.44" y="5.00245">𝑖</tspan><tspan font-size="14" x="97.6066" y="9.00441">2</tspan><tspan font-size="24" x="198.128" y="2.00098">𝑎</tspan><tspan font-size="18" x="209.328" y="7.00343">𝑗</tspan><tspan font-size="14" x="216.815" y="10.0049">2</tspan><tspan font-size="24" x="338.356" y="2.00098">𝑎</tspan><tspan font-size="18" x="349.556" y="7.00343">𝑗</tspan><tspan font-size="14" x="357.042" y="10.0049">1</tspan></text><path d="M637.5 48.477C656.555-0.715365 723.582 3.38127 779.415 3.71433 835.249 4.04738 931.858 3.54774 972.5 50.4753" stroke="#AFABAB" stroke-width="3" stroke-miterlimit="8" fill="none" fill-rule="evenodd"/><path d="M716.5 48.2003C723.098 16.8009 746.308 19.4158 765.641 19.6284 784.974 19.841 818.427 19.522 832.5 49.4758" stroke="#AFABAB" stroke-width="3" stroke-miterlimit="8" fill="none" fill-rule="evenodd"/><path d="M636.219 166.086 647.563 176.51 637.134 187.847 625.79 177.424Z" fill="#BFBFBF" fill-rule="evenodd"/><path d="M715.419 166.086 726.763 176.51 716.334 187.848 704.99 177.424Z" fill="#BFBFBF" fill-rule="evenodd"/><path d="M832.219 166.086 843.563 176.51 833.134 187.847 821.79 177.423Z" fill="#BFBFBF" fill-rule="evenodd"/><path d="M973.019 166.086 984.362 176.51 973.934 187.847 962.59 177.423Z" fill="#BFBFBF" fill-rule="evenodd"/><text fill="#7F7F7F" font-family="Cambria Math,Cambria Math_MSFontService,sans-serif" font-weight="400" font-size="24" transform="matrix(1 0 0 0.99951 623.676 207)">𝑏<tspan font-size="18" x="12.24" y="5.00245">𝑖</tspan><tspan font-size="14" x="18.4066" y="8.00392">1</tspan><tspan font-size="24" x="79.2" y="0">𝑎</tspan><tspan font-size="18" x="90.4" y="5.00245">𝑗</tspan><tspan font-size="14" x="97.8867" y="8.00392">2</tspan><tspan font-size="24" x="198.128" y="1.00049">𝑏</tspan><tspan font-size="18" x="210.368" y="6.00294">𝑖</tspan><tspan font-size="14" x="216.535" y="10.0049">2</tspan><tspan font-size="24" x="338.356" y="1.00049">𝑎</tspan><tspan font-size="18" x="349.556" y="6.00294">𝑗</tspan><tspan font-size="14" x="357.042" y="10.0049">1</tspan></text><path d="M637.5 160.422C656.555 111.23 723.582 115.326 779.415 115.659 835.249 115.993 931.858 115.493 972.5 162.42" stroke="#AFABAB" stroke-width="3" stroke-miterlimit="8" fill="none" fill-rule="evenodd"/><path d="M716.5 160.145C723.098 128.746 746.308 131.361 765.641 131.573 784.974 131.786 818.427 131.467 832.5 161.421" stroke="#AFABAB" stroke-width="3" stroke-miterlimit="8" fill="none" fill-rule="evenodd"/><path d="M636.219 281.045 647.563 291.468 637.134 302.806 625.79 292.382Z" fill="#BFBFBF" fill-rule="evenodd"/><path d="M715.419 281.045 726.763 291.468 716.334 302.806 704.99 292.382Z" fill="#BFBFBF" fill-rule="evenodd"/><path d="M832.219 281.044 843.563 291.468 833.134 302.806 821.79 292.382Z" fill="#BFBFBF" fill-rule="evenodd"/><path d="M973.019 281.044 984.362 291.468 973.934 302.806 962.59 292.382Z" fill="#BFBFBF" fill-rule="evenodd"/><text fill="#7F7F7F" font-family="Cambria Math,Cambria Math_MSFontService,sans-serif" font-weight="400" font-size="24" transform="matrix(1 0 0 0.99951 623.676 322)">𝑏<tspan font-size="18" x="12.24" y="5.00245">𝑖</tspan><tspan font-size="14" x="18.4066" y="8.00392">1</tspan><tspan font-size="24" x="79.2" y="0">𝑎</tspan><tspan font-size="18" x="90.4" y="5.00245">𝑗</tspan><tspan font-size="14" x="97.8867" y="8.00392">2</tspan><tspan font-size="24" x="198.128" y="1.00049">𝑎</tspan><tspan font-size="18" x="209.328" y="6.00294">𝑗</tspan><tspan font-size="14" x="216.815" y="10.0049">1</tspan><tspan font-size="24" x="338.356" y="1.00049">𝑏</tspan><tspan font-size="18" x="350.596" y="6.00294">𝑖</tspan><tspan font-size="14" x="356.762" y="10.0049">2</tspan></text><path d="M716.5 274.621C731.062 231.709 782.282 235.283 824.949 235.573 867.615 235.864 941.442 235.428 972.5 276.365" stroke="#AFABAB" stroke-width="3" stroke-miterlimit="8" fill="none" fill-rule="evenodd"/><path d="M637.5 276.62C648.592 233.708 687.607 237.282 720.107 237.572 752.607 237.863 808.843 237.427 832.5 278.364" stroke="#AFABAB" stroke-width="3" stroke-miterlimit="8" fill="none" fill-rule="evenodd"/></g></svg>