<svg width="488" height="945" xmlns="http://www.w3.org/2000/svg" xmlns:xlink="http://www.w3.org/1999/xlink" overflow="hidden"><defs><clipPath id="clip0"><rect x="0" y="0" width="488" height="945"/></clipPath></defs><g clip-path="url(#clip0)"><rect x="0" y="0" width="488" height="945.197" fill="#FFFFFF"/><rect x="78" y="56.9517" width="58" height="57.9508" stroke="#000000" stroke-width="4.0041" stroke-miterlimit="8" fill="#FFFFFF"/><rect x="136" y="56.9517" width="58" height="57.9508" stroke="#000000" stroke-width="4.0041" stroke-miterlimit="8" fill="#FFFFFF"/><rect x="194" y="56.9517" width="59" height="57.9508" stroke="#000000" stroke-width="4.0041" stroke-miterlimit="8" fill="#FFFFFF"/><rect x="253" y="56.9517" width="58" height="57.9508" stroke="#000000" stroke-width="4.0041" stroke-miterlimit="8" fill="#FFFFFF"/><rect x="311" y="56.9517" width="58" height="57.9508" stroke="#000000" stroke-width="4.0041" stroke-miterlimit="8" fill="#FFFFFF"/><rect x="369" y="56.9517" width="59" height="57.9508" stroke="#000000" stroke-width="4.0041" stroke-miterlimit="8" fill="#FFFFFF"/><text font-family="CMU Concrete,CMU Concrete_MSFontService,sans-serif" font-weight="500" font-size="32" transform="matrix(1 0 0 0.999152 97.7374 95)">6</text><text font-family="CMU Concrete,CMU Concrete_MSFontService,sans-serif" font-weight="500" font-size="32" transform="matrix(1 0 0 0.999152 156.066 95)">7</text><text font-family="CMU Concrete,CMU Concrete_MSFontService,sans-serif" font-weight="500" font-size="32" transform="matrix(1 0 0 0.999152 213.795 95)">9</text><text font-family="CMU Concrete,CMU Concrete_MSFontService,sans-serif" font-weight="500" font-size="32" transform="matrix(1 0 0 0.999152 272.123 95)">1</text><text font-family="CMU Concrete,CMU Concrete_MSFontService,sans-serif" font-weight="500" font-size="32" transform="matrix(1 0 0 0.999152 332.28 95)">4</text><text font-family="CMU Concrete,CMU Concrete_MSFontService,sans-serif" font-weight="500" font-size="32" transform="matrix(1 0 0 0.999152 390.609 95)">5</text><text font-family="CMU Concrete,CMU Concrete_MSFontService,sans-serif" font-weight="500" font-size="32" transform="matrix(1 0 0 0.999152 75.2677 38)">Rems = { 0:1 }</text><path d="M2.00035-5.78108e-06 2.00043 26.3319-2.00028 26.3319-2.00035 5.78108e-06ZM6.00113 24.3315 0.000105005 36.3337-6.00099 24.3316Z" transform="matrix(1.00085 0 0 -1 98 151.236)"/><path d="M2.00035-5.78108e-06 2.00043 26.3319-2.00028 26.3319-2.00035 5.78108e-06ZM6.00113 24.3315 0.000105005 36.3337-6.00099 24.3316Z" transform="matrix(1.00085 0 0 -1 113 151.236)"/><path d="M15 84.9279C15 73.8916 24.1782 64.9449 35.5 64.9449 46.8218 64.9449 56 73.8916 56 84.9279 56 95.9642 46.8218 104.911 35.5 104.911 24.1782 104.911 15 95.9642 15 84.9279Z" stroke="#000000" stroke-width="4.0041" stroke-miterlimit="8" fill="#FFF2CC" fill-rule="evenodd"/><text font-family="Calibri,Calibri_MSFontService,sans-serif" font-weight="700" font-size="27" transform="matrix(1 0 0 0.999152 27.9149 92)">1</text><path d="M3.49996 160.364 481.602 160.364" stroke="#7F7F7F" stroke-width="3.00308" stroke-linecap="square" stroke-miterlimit="8" stroke-dasharray="9.00923 3.00308" fill="none" fill-rule="evenodd"/><rect x="80" y="217.815" width="58" height="57.9508" stroke="#000000" stroke-width="4.0041" stroke-miterlimit="8" fill="#FFFFFF"/><rect x="138" y="217.815" width="58" height="57.9508" stroke="#000000" stroke-width="4.0041" stroke-miterlimit="8" fill="#FFFFFF"/><rect x="196" y="217.815" width="59" height="57.9508" stroke="#000000" stroke-width="4.0041" stroke-miterlimit="8" fill="#FFFFFF"/><rect x="255" y="217.815" width="58" height="57.9508" stroke="#000000" stroke-width="4.0041" stroke-miterlimit="8" fill="#FFFFFF"/><rect x="313" y="217.815" width="58" height="57.9508" stroke="#000000" stroke-width="4.0041" stroke-miterlimit="8" fill="#FFFFFF"/><rect x="371" y="217.815" width="59.0001" height="57.9508" stroke="#000000" stroke-width="4.0041" stroke-miterlimit="8" fill="#FFFFFF"/><text font-family="CMU Concrete,CMU Concrete_MSFontService,sans-serif" font-weight="500" font-size="32" transform="matrix(1 0 0 0.999152 99.4865 256)">6</text><text font-family="CMU Concrete,CMU Concrete_MSFontService,sans-serif" font-weight="500" font-size="32" transform="matrix(1 0 0 0.999152 157.815 256)">7</text><text font-family="CMU Concrete,CMU Concrete_MSFontService,sans-serif" font-weight="500" font-size="32" transform="matrix(1 0 0 0.999152 215.544 256)">9</text><text font-family="CMU Concrete,CMU Concrete_MSFontService,sans-serif" font-weight="500" font-size="32" transform="matrix(1 0 0 0.999152 273.872 256)">1</text><text font-family="CMU Concrete,CMU Concrete_MSFontService,sans-serif" font-weight="500" font-size="32" transform="matrix(1 0 0 0.999152 334.029 256)">4</text><text font-family="CMU Concrete,CMU Concrete_MSFontService,sans-serif" font-weight="500" font-size="32" transform="matrix(1 0 0 0.999152 392.358 256)">5</text><text font-family="CMU Concrete,CMU Concrete_MSFontService,sans-serif" font-weight="500" font-size="32" transform="matrix(1 0 0 0.999152 77.0168 199)">Rems = { 0:1, 1:1 }</text><path d="M2.00035-5.78108e-06 2.00043 26.3319-2.00028 26.3319-2.00035 5.78108e-06ZM6.00113 24.3315 0.000105005 36.3337-6.00099 24.3316Z" transform="matrix(1.00085 0 0 -1 109 312.099)"/><path d="M2.00035-5.78108e-06 2.00043 26.3319-2.00028 26.3319-2.00035 5.78108e-06ZM6.00113 24.3315 0.000105005 36.3337-6.00099 24.3316Z" transform="matrix(1.00085 0 0 -1 168 312.099)"/><path d="M17 245.791C17 234.755 25.9543 225.808 37 225.808 48.0457 225.808 57 234.755 57 245.791 57 256.828 48.0457 265.774 37 265.774 25.9543 265.774 17 256.828 17 245.791Z" stroke="#000000" stroke-width="4.0041" stroke-miterlimit="8" fill="#FFF2CC" fill-rule="evenodd"/><text font-family="Calibri,Calibri_MSFontService,sans-serif" font-weight="700" font-size="27" transform="matrix(1 0 0 0.999152 29.664 253)">2</text><path d="M5.50002 321.227 483.602 321.227" stroke="#7F7F7F" stroke-width="3.00308" stroke-linecap="square" stroke-miterlimit="8" stroke-dasharray="9.00923 3.00308" fill="none" fill-rule="evenodd"/><rect x="81.0001" y="373.683" width="59" height="57.9508" stroke="#000000" stroke-width="4.0041" stroke-miterlimit="8" fill="#FFFFFF"/><rect x="140" y="373.683" width="58" height="57.9508" stroke="#000000" stroke-width="4.0041" stroke-miterlimit="8" fill="#FFFFFF"/><rect x="198" y="373.683" width="58" height="57.9508" stroke="#000000" stroke-width="4.0041" stroke-miterlimit="8" fill="#FFFFFF"/><rect x="256" y="373.683" width="59" height="57.9508" stroke="#000000" stroke-width="4.0041" stroke-miterlimit="8" fill="#FFFFFF"/><rect x="315" y="373.683" width="58" height="57.9508" stroke="#000000" stroke-width="4.0041" stroke-miterlimit="8" fill="#FFFFFF"/><rect x="373" y="373.683" width="58" height="57.9508" stroke="#000000" stroke-width="4.0041" stroke-miterlimit="8" fill="#FFFFFF"/><text font-family="CMU Concrete,CMU Concrete_MSFontService,sans-serif" font-weight="500" font-size="32" transform="matrix(1 0 0 0.999152 101.236 412)">6</text><text font-family="CMU Concrete,CMU Concrete_MSFontService,sans-serif" font-weight="500" font-size="32" transform="matrix(1 0 0 0.999152 159.564 412)">7</text><text font-family="CMU Concrete,CMU Concrete_MSFontService,sans-serif" font-weight="500" font-size="32" transform="matrix(1 0 0 0.999152 217.293 412)">9</text><text font-family="CMU Concrete,CMU Concrete_MSFontService,sans-serif" font-weight="500" font-size="32" transform="matrix(1 0 0 0.999152 275.621 412)">1</text><text font-family="CMU Concrete,CMU Concrete_MSFontService,sans-serif" font-weight="500" font-size="32" transform="matrix(1 0 0 0.999152 335.778 412)">4</text><text font-family="CMU Concrete,CMU Concrete_MSFontService,sans-serif" font-weight="500" font-size="32" transform="matrix(1 0 0 0.999152 394.107 412)">5</text><text font-family="CMU Concrete,CMU Concrete_MSFontService,sans-serif" font-weight="500" font-size="32" transform="matrix(1 0 0 0.999152 78.7659 355)">Rems = { 0:1, 1:1 }</text><path d="M2.00035-5.78108e-06 2.00043 26.3319-2.00028 26.3319-2.00035 5.78108e-06ZM6.00113 24.3315 0.000105005 36.3337-6.00099 24.3316Z" transform="matrix(1.00085 0 0 -1 168 467.967)"/><path d="M2.00035-5.78108e-06 2.00043 26.3319-2.00028 26.3319-2.00035 5.78108e-06ZM6.00113 24.3315 0.000105005 36.3337-6.00099 24.3316Z" transform="matrix(1.00085 0 0 -1 227 467.967)"/><path d="M19 401.659C19 390.623 27.9543 381.676 39 381.676 50.0457 381.676 59 390.623 59 401.659 59 412.695 50.0457 421.642 39 421.642 27.9543 421.642 19 412.695 19 401.659Z" stroke="#000000" stroke-width="4.0041" stroke-miterlimit="8" fill="#FFF2CC" fill-rule="evenodd"/><text font-family="Calibri,Calibri_MSFontService,sans-serif" font-weight="700" font-size="27" transform="matrix(1 0 0 0.999152 31.4131 409)">3</text><path d="M7.49997 477.095 485.602 477.095" stroke="#7F7F7F" stroke-width="3.00308" stroke-linecap="square" stroke-miterlimit="8" stroke-dasharray="9.00923 3.00308" fill="none" fill-rule="evenodd"/><rect x="81.0001" y="528.551" width="57.9999" height="57.9508" stroke="#000000" stroke-width="4.0041" stroke-miterlimit="8" fill="#FFFFFF"/><rect x="139" y="528.551" width="59.0001" height="57.9508" stroke="#000000" stroke-width="4.0041" stroke-miterlimit="8" fill="#FFFFFF"/><rect x="198" y="528.551" width="58" height="57.9508" stroke="#000000" stroke-width="4.0041" stroke-miterlimit="8" fill="#FFFFFF"/><rect x="256" y="528.551" width="58" height="57.9508" stroke="#000000" stroke-width="4.0041" stroke-miterlimit="8" fill="#FFFFFF"/><rect x="314" y="528.551" width="59" height="57.9508" stroke="#000000" stroke-width="4.0041" stroke-miterlimit="8" fill="#FFFFFF"/><rect x="373" y="528.551" width="58" height="57.9508" stroke="#000000" stroke-width="4.0041" stroke-miterlimit="8" fill="#FFFFFF"/><text font-family="CMU Concrete,CMU Concrete_MSFontService,sans-serif" font-weight="500" font-size="32" transform="matrix(1 0 0 0.999152 101.072 567)">6</text><text font-family="CMU Concrete,CMU Concrete_MSFontService,sans-serif" font-weight="500" font-size="32" transform="matrix(1 0 0 0.999152 159.401 567)">7</text><text font-family="CMU Concrete,CMU Concrete_MSFontService,sans-serif" font-weight="500" font-size="32" transform="matrix(1 0 0 0.999152 217.129 567)">9</text><text font-family="CMU Concrete,CMU Concrete_MSFontService,sans-serif" font-weight="500" font-size="32" transform="matrix(1 0 0 0.999152 275.458 567)">1</text><text font-family="CMU Concrete,CMU Concrete_MSFontService,sans-serif" font-weight="500" font-size="32" transform="matrix(1 0 0 0.999152 335.615 567)">4</text><text font-family="CMU Concrete,CMU Concrete_MSFontService,sans-serif" font-weight="500" font-size="32" transform="matrix(1 0 0 0.999152 393.943 567)">5</text><text font-family="CMU Concrete,CMU Concrete_MSFontService,sans-serif" font-weight="500" font-size="32" transform="matrix(1 0 0 0.999152 78.6025 510)">Rems = { 0:1, 1:2 }</text><path d="M2.00035-5.78108e-06 2.00043 26.3319-2.00028 26.3319-2.00035 5.78108e-06ZM6.00113 24.3315 0.000105005 36.3337-6.00099 24.3316Z" transform="matrix(1.00085 0 0 -1 168 622.836)"/><path d="M2.00035-5.78108e-06 2.00043 26.3319-2.00028 26.3319-2.00035 5.78108e-06ZM6.00113 24.3315 0.000105005 36.3337-6.00099 24.3316Z" transform="matrix(1.00085 0 0 -1 285 622.836)"/><path d="M19 556.527C19 545.491 27.9543 536.544 39 536.544 50.0457 536.544 59 545.491 59 556.527 59 567.564 50.0457 576.51 39 576.51 27.9543 576.51 19 567.564 19 556.527Z" stroke="#000000" stroke-width="4.0041" stroke-miterlimit="8" fill="#FFF2CC" fill-rule="evenodd"/><text font-family="Calibri,Calibri_MSFontService,sans-serif" font-weight="700" font-size="27" transform="matrix(1 0 0 0.999152 31.2498 564)">4</text><path d="M7.49997 631.963 485.602 631.964" stroke="#7F7F7F" stroke-width="3.00308" stroke-linecap="square" stroke-miterlimit="8" stroke-dasharray="9.00923 3.00308" fill="none" fill-rule="evenodd"/><rect x="83" y="684.419" width="58" height="57.9508" stroke="#000000" stroke-width="4.0041" stroke-miterlimit="8" fill="#FFFFFF"/><rect x="141" y="684.419" width="58" height="57.9508" stroke="#000000" stroke-width="4.0041" stroke-miterlimit="8" fill="#FFFFFF"/><rect x="199" y="684.419" width="59" height="57.9508" stroke="#000000" stroke-width="4.0041" stroke-miterlimit="8" fill="#FFFFFF"/><rect x="258" y="684.419" width="58" height="57.9508" stroke="#000000" stroke-width="4.0041" stroke-miterlimit="8" fill="#FFFFFF"/><rect x="316" y="684.419" width="58" height="57.9508" stroke="#000000" stroke-width="4.0041" stroke-miterlimit="8" fill="#FFFFFF"/><rect x="374" y="684.419" width="59" height="57.9508" stroke="#000000" stroke-width="4.0041" stroke-miterlimit="8" fill="#FFFFFF"/><text font-family="CMU Concrete,CMU Concrete_MSFontService,sans-serif" font-weight="500" font-size="32" transform="matrix(1 0 0 0.999152 102.7 722)">6</text><text font-family="CMU Concrete,CMU Concrete_MSFontService,sans-serif" font-weight="500" font-size="32" transform="matrix(1 0 0 0.999152 161.029 722)">7</text><text font-family="CMU Concrete,CMU Concrete_MSFontService,sans-serif" font-weight="500" font-size="32" transform="matrix(1 0 0 0.999152 218.757 722)">9</text><text font-family="CMU Concrete,CMU Concrete_MSFontService,sans-serif" font-weight="500" font-size="32" transform="matrix(1 0 0 0.999152 277.086 722)">1</text><text font-family="CMU Concrete,CMU Concrete_MSFontService,sans-serif" font-weight="500" font-size="32" transform="matrix(1 0 0 0.999152 337.243 722)">4</text><text font-family="CMU Concrete,CMU Concrete_MSFontService,sans-serif" font-weight="500" font-size="32" transform="matrix(1 0 0 0.999152 395.572 722)">5</text><text font-family="CMU Concrete,CMU Concrete_MSFontService,sans-serif" font-weight="500" font-size="32" transform="matrix(1 0 0 0.999152 80.2306 665)">Rems = { 0:1, 1:3 }</text><path d="M2.00035-5.78108e-06 2.00043 26.3319-2.00028 26.3319-2.00035 5.78108e-06ZM6.00113 24.3315 0.000105005 36.3337-6.00099 24.3316Z" transform="matrix(1.00085 0 0 -1 169 778.703)"/><path d="M2.00035-5.78108e-06 2.00043 26.3319-2.00028 26.3319-2.00035 5.78108e-06ZM6.00113 24.3315 0.000105005 36.3337-6.00099 24.3316Z" transform="matrix(1.00085 0 0 -1 350 778.703)"/><path d="M20 712.395C20 701.359 29.1782 692.412 40.5 692.412 51.8219 692.412 61 701.359 61 712.395 61 723.431 51.8219 732.378 40.5 732.378 29.1782 732.378 20 723.431 20 712.395Z" stroke="#000000" stroke-width="4.0041" stroke-miterlimit="8" fill="#FFF2CC" fill-rule="evenodd"/><text font-family="Calibri,Calibri_MSFontService,sans-serif" font-weight="700" font-size="27" transform="matrix(1 0 0 0.999152 32.8778 719)">5</text><path d="M8.50005 787.831 486.602 787.831" stroke="#7F7F7F" stroke-width="3.00308" stroke-linecap="square" stroke-miterlimit="8" stroke-dasharray="9.00923 3.00308" fill="none" fill-rule="evenodd"/><rect x="83" y="839.287" width="58" height="57.9508" stroke="#000000" stroke-width="4.0041" stroke-miterlimit="8" fill="#FFFFFF"/><rect x="141" y="839.287" width="58" height="57.9508" stroke="#000000" stroke-width="4.0041" stroke-miterlimit="8" fill="#FFFFFF"/><rect x="199" y="839.287" width="59" height="57.9508" stroke="#000000" stroke-width="4.0041" stroke-miterlimit="8" fill="#FFFFFF"/><rect x="258" y="839.287" width="58" height="57.9508" stroke="#000000" stroke-width="4.0041" stroke-miterlimit="8" fill="#FFFFFF"/><rect x="316" y="839.287" width="58" height="57.9508" stroke="#000000" stroke-width="4.0041" stroke-miterlimit="8" fill="#FFFFFF"/><rect x="374" y="839.287" width="59" height="57.9508" stroke="#000000" stroke-width="4.0041" stroke-miterlimit="8" fill="#FFFFFF"/><text font-family="CMU Concrete,CMU Concrete_MSFontService,sans-serif" font-weight="500" font-size="32" transform="matrix(1 0 0 0.999152 102.537 877)">6</text><text font-family="CMU Concrete,CMU Concrete_MSFontService,sans-serif" font-weight="500" font-size="32" transform="matrix(1 0 0 0.999152 160.865 877)">7</text><text font-family="CMU Concrete,CMU Concrete_MSFontService,sans-serif" font-weight="500" font-size="32" transform="matrix(1 0 0 0.999152 218.594 877)">9</text><text font-family="CMU Concrete,CMU Concrete_MSFontService,sans-serif" font-weight="500" font-size="32" transform="matrix(1 0 0 0.999152 276.923 877)">1</text><text font-family="CMU Concrete,CMU Concrete_MSFontService,sans-serif" font-weight="500" font-size="32" transform="matrix(1 0 0 0.999152 337.08 877)">4</text><text font-family="CMU Concrete,CMU Concrete_MSFontService,sans-serif" font-weight="500" font-size="32" transform="matrix(1 0 0 0.999152 395.408 877)">5</text><text font-family="CMU Concrete,CMU Concrete_MSFontService,sans-serif" font-weight="500" font-size="32" transform="matrix(1 0 0 0.999152 80.0672 820)">Rems = { 2:1 }</text><path d="M20 867.264C20 856.227 28.9543 847.281 40 847.281 51.0457 847.281 60 856.227 60 867.264 60 878.3 51.0457 887.247 40 887.247 28.9543 887.247 20 878.3 20 867.264Z" stroke="#000000" stroke-width="4.0041" stroke-miterlimit="8" fill="#FFF2CC" fill-rule="evenodd"/><text font-family="Calibri,Calibri_MSFontService,sans-serif" font-weight="700" font-size="27" transform="matrix(1 0 0 0.999152 32.7145 874)">4</text><path d="M8.50005 942.7 486.602 942.7" stroke="#7F7F7F" stroke-width="3.00308" stroke-linecap="square" stroke-miterlimit="8" stroke-dasharray="9.00923 3.00308" fill="none" fill-rule="evenodd"/><path d="M2.00035-5.78108e-06 2.00043 26.3319-2.00028 26.3319-2.00035 5.78108e-06ZM6.00113 24.3315 0.000105005 36.3337-6.00099 24.3316Z" transform="matrix(1.00085 0 0 -1 396 933.572)"/><path d="M2.00035-5.78108e-06 2.00043 26.3319-2.00028 26.3319-2.00035 5.78108e-06ZM6.00113 24.3315 0.000105005 36.3337-6.00099 24.3316Z" transform="matrix(1.00085 0 0 -1 412 933.572)"/></g></svg>