<svg width="624" height="416" xmlns="http://www.w3.org/2000/svg" xmlns:xlink="http://www.w3.org/1999/xlink" overflow="hidden"><defs><clipPath id="clip0"><rect x="0" y="0" width="624" height="416"/></clipPath></defs><g clip-path="url(#clip0)"><rect x="0" y="0" width="624" height="416.111" fill="#FFFFFF"/><rect x="14" y="282.075" width="55" height="49.0131" stroke="#3B3838" stroke-width="4.00214" stroke-linejoin="round" stroke-miterlimit="10" fill="#F2F2F2"/><text font-family="Calibri,Calibri_MSFontService,sans-serif" font-weight="400" font-size="32" transform="matrix(1 0 0 1.00027 23.2867 317)">20</text><rect x="68" y="282.075" width="55" height="49.0131" stroke="#3B3838" stroke-width="4.00214" stroke-linejoin="round" stroke-miterlimit="10" fill="#F2F2F2"/><text font-family="Calibri,Calibri_MSFontService,sans-serif" font-weight="400" font-size="32" transform="matrix(1 0 0 1.00027 77.9361 317)">20</text><rect x="123" y="282.075" width="55" height="49.0131" stroke="#3B3838" stroke-width="4.00214" stroke-linejoin="round" stroke-miterlimit="10" fill="#E2F0D9"/><text font-family="Calibri,Calibri_MSFontService,sans-serif" font-weight="400" font-size="32" transform="matrix(1 0 0 1.00027 132.586 317)">1</text><text font-family="Calibri,Calibri_MSFontService,sans-serif" font-weight="400" font-size="32" transform="matrix(1 0 0 1.00027 148.761 317)">4</text><rect x="178" y="282.075" width="54.0001" height="49.0131" stroke="#3B3838" stroke-width="4.00214" stroke-linejoin="round" stroke-miterlimit="10" fill="#F2F2F2"/><text font-family="Calibri,Calibri_MSFontService,sans-serif" font-weight="400" font-size="32" transform="matrix(1 0 0 1.00027 187.235 317)">10</text><rect x="232" y="282.075" width="55" height="49.0131" stroke="#3B3838" stroke-width="4.00214" stroke-linejoin="round" stroke-miterlimit="10" fill="#F2F2F2"/><text font-family="Calibri,Calibri_MSFontService,sans-serif" font-weight="400" font-size="32" transform="matrix(1 0 0 1.00027 251.608 317)">4</text><rect x="287" y="282.075" width="55" height="49.0131" stroke="#3B3838" stroke-width="4.00214" stroke-linejoin="round" stroke-miterlimit="10" fill="#FBE5D6"/><text font-family="Calibri,Calibri_MSFontService,sans-serif" font-weight="400" font-size="32" transform="matrix(1 0 0 1.00027 306.257 317)">1</text><rect x="342" y="282.075" width="54" height="49.0131" stroke="#3B3838" stroke-width="4.00214" stroke-linejoin="round" stroke-miterlimit="10" fill="#FBE5D6"/><text font-family="Calibri,Calibri_MSFontService,sans-serif" font-weight="400" font-size="32" transform="matrix(1 0 0 1.00027 360.907 317)">1</text><rect x="396" y="282.075" width="55" height="49.0131" stroke="#3B3838" stroke-width="4.00214" stroke-linejoin="round" stroke-miterlimit="10" fill="#FBE5D6"/><text font-family="Calibri,Calibri_MSFontService,sans-serif" font-weight="400" font-size="32" transform="matrix(1 0 0 1.00027 415.556 317)">3</text><rect x="451" y="282.075" width="55" height="49.0131" stroke="#3B3838" stroke-width="4.00214" stroke-linejoin="round" stroke-miterlimit="10" fill="#FBE5D6"/><text font-family="Calibri,Calibri_MSFontService,sans-serif" font-weight="400" font-size="32" transform="matrix(1 0 0 1.00027 462.118 317)">10</text><rect x="506" y="282.075" width="54.0001" height="49.0131" stroke="#3B3838" stroke-width="4.00214" stroke-linejoin="round" stroke-miterlimit="10" fill="#F2F2F2"/><text font-family="Calibri,Calibri_MSFontService,sans-serif" font-weight="400" font-size="32" transform="matrix(1 0 0 1.00027 524.855 317)">6</text><rect x="560" y="282.075" width="55" height="49.0131" stroke="#3B3838" stroke-width="4.00214" stroke-linejoin="round" stroke-miterlimit="10" fill="#F2F2F2"/><text font-family="Calibri,Calibri_MSFontService,sans-serif" font-weight="400" font-size="32" transform="matrix(1 0 0 1.00027 579.505 317)">5</text><path d="M123 336.09C123 341.614 112.464 346.093 99.4668 346.093L92.5331 346.093C79.5361 346.093 69 350.571 69 356.095 69 350.571 58.4638 346.093 45.4669 346.093L38.5331 346.093C25.5361 346.093 15 341.614 15 336.09" stroke="#000000" stroke-width="2.0016" stroke-miterlimit="8" fill="none" fill-rule="evenodd"/><text font-family="Cambria Math,Cambria Math_MSFontService,sans-serif" font-weight="400" font-size="24" transform="matrix(1 0 0 1.00027 27.494 387)">𝑆</text><text font-family="Cambria Math,Cambria Math_MSFontService,sans-serif" font-weight="400" font-size="18" transform="matrix(1 0 0 1.00027 37.9195 392)">𝐴</text><text font-family="Cambria Math,Cambria Math_MSFontService,sans-serif" font-weight="400" font-size="24" transform="matrix(1 0 0 1.00027 57.4299 387)">=</text><text font-family="Cambria Math,Cambria Math_MSFontService,sans-serif" font-weight="400" font-size="24" transform="matrix(1 0 0 1.00027 82.1098 387)">40</text><path d="M287 336.09C287 341.614 276.464 346.093 263.467 346.093L229.033 346.093C216.036 346.093 205.5 350.571 205.5 356.095 205.5 350.571 194.964 346.093 181.967 346.093L147.533 346.093C134.536 346.093 124 341.614 124 336.09" stroke="#000000" stroke-width="2.0016" stroke-miterlimit="8" fill="none" fill-rule="evenodd"/><text font-family="Cambria Math,Cambria Math_MSFontService,sans-serif" font-weight="400" font-size="24" transform="matrix(1 0 0 1.00027 163.412 387)">𝑆</text><text font-family="Cambria Math,Cambria Math_MSFontService,sans-serif" font-weight="400" font-size="18" transform="matrix(1 0 0 1.00027 175.032 392)">𝐵</text><text font-family="Cambria Math,Cambria Math_MSFontService,sans-serif" font-weight="400" font-size="24" transform="matrix(1 0 0 1.00027 195.002 387)">=</text><text font-family="Cambria Math,Cambria Math_MSFontService,sans-serif" font-weight="400" font-size="24" transform="matrix(1 0 0 1.00027 219.682 387)">2</text><text font-family="Cambria Math,Cambria Math_MSFontService,sans-serif" font-weight="400" font-size="24" transform="matrix(1 0 0 1.00027 233.023 387)">8</text><path d="M615 336.09C615 341.614 604.464 346.092 591.467 346.092L474.533 346.092C461.536 346.092 451 350.571 451 356.095 451 350.571 440.464 346.092 427.467 346.092L310.533 346.092C297.536 346.092 287 341.614 287 336.09" stroke="#000000" stroke-width="2.0016" stroke-miterlimit="8" fill="none" fill-rule="evenodd"/><text font-family="Cambria Math,Cambria Math_MSFontService,sans-serif" font-weight="400" font-size="24" transform="matrix(1 0 0 1.00027 408.284 387)">𝑆</text><text font-family="Cambria Math,Cambria Math_MSFontService,sans-serif" font-weight="400" font-size="18" transform="matrix(1 0 0 1.00027 419.904 392)">𝐶</text><text font-family="Cambria Math,Cambria Math_MSFontService,sans-serif" font-weight="400" font-size="24" transform="matrix(1 0 0 1.00027 439.007 387)">=</text><text font-family="Cambria Math,Cambria Math_MSFontService,sans-serif" font-weight="400" font-size="24" transform="matrix(1 0 0 1.00027 463.687 387)">26</text><path d="M125.001 254.568 125.001 271.427 121.999 271.427 121.999 254.568ZM128.002 269.926 123.5 278.933 118.998 269.926Z"/><text font-family="Cambria Math,Cambria Math_MSFontService,sans-serif" font-weight="400" font-size="24" transform="matrix(1 0 0 1.00027 100.968 243)">𝑖</text><text font-family="Cambria Math,Cambria Math_MSFontService,sans-serif" font-weight="400" font-size="18" transform="matrix(1 0 0 1.00027 107.445 248)">𝐴</text><text font-family="Cambria Math,Cambria Math_MSFontService,sans-serif" font-weight="400" font-size="24" transform="matrix(1 0 0 1.00027 120.285 243)">-</text><text font-family="Cambria Math,Cambria Math_MSFontService,sans-serif" font-weight="400" font-size="24" transform="matrix(1 0 0 1.00027 128.29 243)">1</text><path d="M288.001 254.568 288.001 271.427 284.999 271.427 284.999 254.568ZM291.003 269.926 286.5 278.933 281.998 269.926Z"/><text font-family="Cambria Math,Cambria Math_MSFontService,sans-serif" font-weight="400" font-size="24" transform="matrix(1 0 0 1.00027 273.692 243)">𝑖</text><text font-family="Cambria Math,Cambria Math_MSFontService,sans-serif" font-weight="400" font-size="18" transform="matrix(1 0 0 1.00027 281.362 248)">𝐵</text><text font-family="Cambria Math,Cambria Math_MSFontService,sans-serif" font-weight="400" font-size="18" transform="matrix(1 0 0 1.00027 282.59 234)">′</text><rect x="8.99998" y="70.0187" width="55" height="49.0131" stroke="#3B3838" stroke-width="4.00214" stroke-linejoin="round" stroke-miterlimit="10" fill="#F2F2F2"/><text font-family="Calibri,Calibri_MSFontService,sans-serif" font-weight="400" font-size="32" transform="matrix(1 0 0 1.00027 18.5961 105)">20</text><rect x="64" y="70.0187" width="54.0001" height="49.0131" stroke="#3B3838" stroke-width="4.00214" stroke-linejoin="round" stroke-miterlimit="10" fill="#F2F2F2"/><text font-family="Calibri,Calibri_MSFontService,sans-serif" font-weight="400" font-size="32" transform="matrix(1 0 0 1.00027 73.2455 105)">20</text><rect x="118" y="70.0187" width="55" height="49.0131" stroke="#3B3838" stroke-width="4.00214" stroke-linejoin="round" stroke-miterlimit="10" fill="#F2F2F2"/><text font-family="Calibri,Calibri_MSFontService,sans-serif" font-weight="400" font-size="32" transform="matrix(1 0 0 1.00027 127.895 105)">1</text><text font-family="Calibri,Calibri_MSFontService,sans-serif" font-weight="400" font-size="32" transform="matrix(1 0 0 1.00027 144.07 105)">4</text><rect x="173" y="70.0187" width="55" height="49.0131" stroke="#3B3838" stroke-width="4.00214" stroke-linejoin="round" stroke-miterlimit="10" fill="#F2F2F2"/><text font-family="Calibri,Calibri_MSFontService,sans-serif" font-weight="400" font-size="32" transform="matrix(1 0 0 1.00027 182.544 105)">10</text><rect x="228" y="70.0187" width="54" height="49.0131" stroke="#3B3838" stroke-width="4.00214" stroke-linejoin="round" stroke-miterlimit="10" fill="#F2F2F2"/><text font-family="Calibri,Calibri_MSFontService,sans-serif" font-weight="400" font-size="32" transform="matrix(1 0 0 1.00027 246.917 105)">4</text><rect x="282" y="70.0187" width="55" height="49.0131" stroke="#3B3838" stroke-width="4.00214" stroke-linejoin="round" stroke-miterlimit="10" fill="#F2F2F2"/><text font-family="Calibri,Calibri_MSFontService,sans-serif" font-weight="400" font-size="32" transform="matrix(1 0 0 1.00027 301.567 105)">1</text><rect x="337" y="70.0187" width="55" height="49.0131" stroke="#3B3838" stroke-width="4.00214" stroke-linejoin="round" stroke-miterlimit="10" fill="#F2F2F2"/><text font-family="Calibri,Calibri_MSFontService,sans-serif" font-weight="400" font-size="32" transform="matrix(1 0 0 1.00027 356.216 105)">1</text><rect x="392" y="70.0187" width="54.0001" height="49.0131" stroke="#3B3838" stroke-width="4.00214" stroke-linejoin="round" stroke-miterlimit="10" fill="#F2F2F2"/><text font-family="Calibri,Calibri_MSFontService,sans-serif" font-weight="400" font-size="32" transform="matrix(1 0 0 1.00027 410.866 105)">3</text><rect x="446" y="70.0187" width="55" height="49.0131" stroke="#3B3838" stroke-width="4.00214" stroke-linejoin="round" stroke-miterlimit="10" fill="#F2F2F2"/><text font-family="Calibri,Calibri_MSFontService,sans-serif" font-weight="400" font-size="32" transform="matrix(1 0 0 1.00027 457.427 105)">10</text><rect x="501" y="70.0187" width="55" height="49.0131" stroke="#3B3838" stroke-width="4.00214" stroke-linejoin="round" stroke-miterlimit="10" fill="#F2F2F2"/><text font-family="Calibri,Calibri_MSFontService,sans-serif" font-weight="400" font-size="32" transform="matrix(1 0 0 1.00027 520.165 105)">6</text><rect x="555" y="70.0187" width="55" height="49.0131" stroke="#3B3838" stroke-width="4.00214" stroke-linejoin="round" stroke-miterlimit="10" fill="#F2F2F2"/><text font-family="Calibri,Calibri_MSFontService,sans-serif" font-weight="400" font-size="32" transform="matrix(1 0 0 1.00027 574.814 105)">5</text><path d="M173 124.033C173 129.557 162.464 134.036 149.467 134.036L115.033 134.036C102.036 134.036 91.5 138.514 91.5 144.038 91.5 138.514 80.9638 134.036 67.9668 134.036L33.5332 134.036C20.5362 134.036 9.99998 129.557 9.99998 124.033" stroke="#000000" stroke-width="2.0016" stroke-miterlimit="8" fill="none" fill-rule="evenodd"/><text font-family="Cambria Math,Cambria Math_MSFontService,sans-serif" font-weight="400" font-size="24" transform="matrix(1 0 0 1.00027 50.444 175)">𝑆</text><text font-family="Cambria Math,Cambria Math_MSFontService,sans-serif" font-weight="400" font-size="18" transform="matrix(1 0 0 1.00027 60.8695 180)">𝐴</text><text font-family="Cambria Math,Cambria Math_MSFontService,sans-serif" font-weight="400" font-size="24" transform="matrix(1 0 0 1.00027 80.3799 175)">=</text><text font-family="Cambria Math,Cambria Math_MSFontService,sans-serif" font-weight="400" font-size="24" transform="matrix(1 0 0 1.00027 105.06 175)">55</text><path d="M500 124.033C500 129.561 489.457 134.042 476.453 134.042L360.047 134.042C347.042 134.042 336.5 138.523 336.5 144.051 336.5 138.523 325.957 134.042 312.953 134.042L196.547 134.042C183.542 134.042 173 129.561 173 124.033" stroke="#000000" stroke-width="2.0016" stroke-miterlimit="8" fill="none" fill-rule="evenodd"/><text font-family="Cambria Math,Cambria Math_MSFontService,sans-serif" font-weight="400" font-size="24" transform="matrix(1 0 0 1.00027 291.272 175)">𝑆</text><text font-family="Cambria Math,Cambria Math_MSFontService,sans-serif" font-weight="400" font-size="18" transform="matrix(1 0 0 1.00027 302.892 180)">𝐵</text><text font-family="Cambria Math,Cambria Math_MSFontService,sans-serif" font-weight="400" font-size="24" transform="matrix(1 0 0 1.00027 322.862 175)">=</text><text font-family="Cambria Math,Cambria Math_MSFontService,sans-serif" font-weight="400" font-size="24" transform="matrix(1 0 0 1.00027 347.542 175)">29</text><path d="M610 124.033C610 129.556 599.467 134.033 586.474 134.033L579.026 134.033C566.033 134.033 555.5 138.51 555.5 144.033 555.5 138.51 544.967 134.033 531.974 134.033L524.526 134.033C511.533 134.033 501 129.556 501 124.033" stroke="#000000" stroke-width="2.0016" stroke-miterlimit="8" fill="none" fill-rule="evenodd"/><text font-family="Cambria Math,Cambria Math_MSFontService,sans-serif" font-weight="400" font-size="24" transform="matrix(1 0 0 1.00027 511.811 175)">𝑆</text><text font-family="Cambria Math,Cambria Math_MSFontService,sans-serif" font-weight="400" font-size="18" transform="matrix(1 0 0 1.00027 523.431 180)">𝐶</text><text font-family="Cambria Math,Cambria Math_MSFontService,sans-serif" font-weight="400" font-size="24" transform="matrix(1 0 0 1.00027 542.534 175)">=</text><text font-family="Cambria Math,Cambria Math_MSFontService,sans-serif" font-weight="400" font-size="24" transform="matrix(1 0 0 1.00027 567.214 175)">11</text><path d="M174.001 42.5113 174.001 59.3702 170.999 59.3703 170.999 42.5113ZM177.002 57.869 172.5 66.8763 167.998 57.8691Z"/><text font-family="Cambria Math,Cambria Math_MSFontService,sans-serif" font-weight="400" font-size="24" transform="matrix(1 0 0 1.00027 160.739 31)">𝑖</text><text font-family="Cambria Math,Cambria Math_MSFontService,sans-serif" font-weight="400" font-size="18" transform="matrix(1 0 0 1.00027 167.216 36)">𝐴</text><path d="M502.001 42.5113 502.001 59.3702 498.999 59.3703 498.999 42.5113ZM505.002 57.869 500.5 66.8763 495.998 57.8691Z"/><text font-family="Cambria Math,Cambria Math_MSFontService,sans-serif" font-weight="400" font-size="24" transform="matrix(1 0 0 1.00027 487.678 31)">𝑖</text><text font-family="Cambria Math,Cambria Math_MSFontService,sans-serif" font-weight="400" font-size="18" transform="matrix(1 0 0 1.00027 495.349 36)">𝐵</text></g></svg>