<svg width="756" height="227" xmlns="http://www.w3.org/2000/svg" xmlns:xlink="http://www.w3.org/1999/xlink" overflow="hidden"><defs><clipPath id="clip0"><rect x="0" y="0" width="756" height="227"/></clipPath></defs><g clip-path="url(#clip0)"><rect x="0" y="0" width="756" height="227.117" fill="#FFFFFF"/><path d="M378 0 378 183.303" stroke="#C00000" stroke-width="2.00044" stroke-miterlimit="8" stroke-dasharray="8.00176 6.00132" fill="none" fill-rule="evenodd"/><rect x="17" y="85.0438" width="495" height="47.0241" stroke="#000000" stroke-width="4.00088" stroke-miterlimit="8" fill="#D9F2D0"/><path d="M378.5 134.569C378.5 147.278 367.891 157.581 354.804 157.581L221.696 157.581C208.609 157.581 198 167.884 198 180.593 198 167.884 187.391 157.581 174.304 157.581L41.1964 157.581C28.1092 157.581 17.5 147.278 17.5 134.569" stroke="#7F7F7F" stroke-width="3.0022" stroke-miterlimit="8" fill="none" fill-rule="evenodd"/><rect x="332" y="85.0438" width="46" height="47.0241" stroke="#000000" stroke-width="4.00088" stroke-miterlimit="8" fill="#B4E5A2"/><rect x="512" y="85.0438" width="228" height="47.0241" stroke="#000000" stroke-width="4.00088" stroke-miterlimit="8" fill="#CAEEFB"/><path d="M740.5 134.569C740.5 147.278 729.891 157.581 716.804 157.581L650.196 157.581C637.109 157.581 626.5 167.884 626.5 180.593 626.5 167.884 615.891 157.581 602.804 157.581L536.196 157.581C523.109 157.581 512.5 147.278 512.5 134.569" stroke="#7F7F7F" stroke-width="3.0022" stroke-miterlimit="8" fill="none" fill-rule="evenodd"/><text font-family="Cambria Math,Cambria Math_MSFontService,sans-serif" font-weight="400" font-size="27" transform="matrix(1 0 0 1.00051 566.198 211)">ℓ</text><text font-family="Cambria Math,Cambria Math_MSFontService,sans-serif" font-weight="400" font-size="20" transform="matrix(1 0 0 1.00051 580.034 216)">𝑦</text><text font-family="Calibri,Calibri_MSFontService,sans-serif" font-weight="400" font-size="27" transform="matrix(1 0 0 1.00051 599.952 211)">στοιχεία</text><text font-family="Cambria Math,Cambria Math_MSFontService,sans-serif" font-weight="400" font-size="21" transform="matrix(1 0 0 1.00051 345.915 113)">𝑥</text><text font-family="Cambria Math,Cambria Math_MSFontService,sans-serif" font-weight="400" font-size="15" transform="matrix(1 0 0 1.00051 357.044 118)">𝑖</text><rect x="378" y="85.0438" width="47.0001" height="47.0241" stroke="#000000" stroke-width="4.00088" stroke-miterlimit="8" fill="#B4E5A2"/><text font-family="Cambria Math,Cambria Math_MSFontService,sans-serif" font-weight="400" font-size="21" transform="matrix(1 0 0 1.00051 382.244 113)">𝑥</text><text font-family="Cambria Math,Cambria Math_MSFontService,sans-serif" font-weight="400" font-size="15" transform="matrix(1 0 0 1.00051 393.374 118)">𝑖</text><text font-family="Cambria Math,Cambria Math_MSFontService,sans-serif" font-weight="400" font-size="15" transform="matrix(1 0 0 1.00051 399.408 118)">+</text><text font-family="Cambria Math,Cambria Math_MSFontService,sans-serif" font-weight="400" font-size="15" transform="matrix(1 0 0 1.00051 410.744 118)">1</text><rect x="465" y="85.0438" width="46.9999" height="47.0241" stroke="#000000" stroke-width="4.00088" stroke-miterlimit="8" fill="#B4E5A2"/><text font-family="Cambria Math,Cambria Math_MSFontService,sans-serif" font-weight="400" font-size="21" transform="matrix(1 0 0 1.00051 474.121 113)">𝑥</text><text font-family="Cambria Math,Cambria Math_MSFontService,sans-serif" font-weight="400" font-size="15" transform="matrix(1 0 0 1.00051 485.25 118)">ℓ</text><text font-family="Cambria Math,Cambria Math_MSFontService,sans-serif" font-weight="400" font-size="13" transform="matrix(1 0 0 1.00051 493.251 121)">𝑥</text><rect x="17" y="85.0438" width="46.0001" height="47.0241" stroke="#000000" stroke-width="4.00088" stroke-miterlimit="8" fill="#B4E5A2"/><text font-family="Cambria Math,Cambria Math_MSFontService,sans-serif" font-weight="400" font-size="21" transform="matrix(1 0 0 1.00051 29.7458 113)">𝑥</text><text font-family="Cambria Math,Cambria Math_MSFontService,sans-serif" font-weight="400" font-size="15" transform="matrix(1 0 0 1.00051 40.3815 118)">1</text><text font-family="Cambria Math,Cambria Math_MSFontService,sans-serif" font-weight="400" font-size="21" transform="matrix(1 0 0 1.00051 183.84 114)">⋯</text><text font-family="Cambria Math,Cambria Math_MSFontService,sans-serif" font-weight="400" font-size="21" transform="matrix(1 0 0 1.00051 435.821 115)">⋯</text><rect x="510" y="85.0438" width="46.9999" height="47.0241" stroke="#000000" stroke-width="4.00088" stroke-miterlimit="8" fill="#96DCF8"/><text font-family="Cambria Math,Cambria Math_MSFontService,sans-serif" font-weight="400" font-size="21" transform="matrix(1 0 0 1.00051 523.081 113)">𝑦</text><text font-family="Cambria Math,Cambria Math_MSFontService,sans-serif" font-weight="400" font-size="15" transform="matrix(1 0 0 1.00051 533.944 118)">1</text><rect x="693" y="85.0438" width="45.9999" height="47.0241" stroke="#000000" stroke-width="4.00088" stroke-miterlimit="8" fill="#96DCF8"/><text font-family="Cambria Math,Cambria Math_MSFontService,sans-serif" font-weight="400" font-size="21" transform="matrix(1 0 0 1.00051 700.977 113)">𝑦</text><text font-family="Cambria Math,Cambria Math_MSFontService,sans-serif" font-weight="400" font-size="15" transform="matrix(1 0 0 1.00051 712.333 118)">ℓ</text><text font-family="Cambria Math,Cambria Math_MSFontService,sans-serif" font-weight="400" font-size="13" transform="matrix(1 0 0 1.00051 720.335 121)">𝑦</text><path d="M512.5 134.569C512.5 147.278 501.891 157.581 488.804 157.581L469.196 157.581C456.109 157.581 445.5 167.884 445.5 180.593 445.5 167.884 434.891 157.581 421.804 157.581L402.196 157.581C389.109 157.581 378.5 147.278 378.5 134.569" stroke="#7F7F7F" stroke-width="3.0022" stroke-miterlimit="8" fill="none" fill-rule="evenodd"/><text font-family="Cambria Math,Cambria Math_MSFontService,sans-serif" font-weight="400" font-size="27" transform="matrix(1 0 0 1.00051 367.547 213)">ℓ</text><text font-family="Cambria Math,Cambria Math_MSFontService,sans-serif" font-weight="400" font-size="20" transform="matrix(1 0 0 1.00051 381.384 219)">𝑥</text><text font-family="Cambria Math,Cambria Math_MSFontService,sans-serif" font-weight="400" font-size="27" transform="matrix(1 0 0 1.00051 400.441 213)">−</text><text font-family="Cambria Math,Cambria Math_MSFontService,sans-serif" font-weight="400" font-size="27" transform="matrix(1 0 0 1.00051 426.374 213)">𝑖</text><text font-family="Calibri,Calibri_MSFontService,sans-serif" font-weight="400" font-size="27" transform="matrix(1 0 0 1.00051 441.724 213)">στοιχεία</text><text font-family="Cambria Math,Cambria Math_MSFontService,sans-serif" font-weight="400" font-size="27" transform="matrix(1 0 0 1.00051 139.683 213)">𝑖</text><text font-family="Calibri,Calibri_MSFontService,sans-serif" font-weight="400" font-size="27" transform="matrix(1 0 0 1.00051 155.033 213)">στοιχεία</text></g></svg>