<svg width="794" height="499" xmlns="http://www.w3.org/2000/svg" xmlns:xlink="http://www.w3.org/1999/xlink" overflow="hidden"><g><rect x="0" y="0" width="794" height="498.957" fill="#FFFFFF"/><path d="M397 308.973 397 455.101" stroke="#C00000" stroke-width="2.00084" stroke-miterlimit="8" stroke-dasharray="8.00336 6.00252" fill="none" fill-rule="evenodd"/><rect x="91" y="366.968" width="691" height="45.9962" stroke="#000000" stroke-width="4.00168" stroke-miterlimit="8" fill="#FFFFFF"/><path d="M648.5 414.464C648.5 424.405 640.197 432.463 629.955 432.463L542.045 432.463C531.803 432.463 523.5 440.521 523.5 450.462 523.5 440.521 515.197 432.463 504.955 432.463L417.045 432.463C406.803 432.463 398.5 424.405 398.5 414.464" stroke="#7F7F7F" stroke-width="3.001" stroke-miterlimit="8" fill="none" fill-rule="evenodd"/><rect x="601" y="366.968" width="47" height="45.9962" stroke="#000000" stroke-width="4.00168" stroke-miterlimit="8" fill="#B4E5A2"/><text font-family="Consolas,Consolas_MSFontService,sans-serif" font-weight="400" font-size="27" transform="matrix(1 0 0 0.999914 458.045 479)">s</text><text font-family="Cambria Math,Cambria Math_MSFontService,sans-serif" font-weight="400" font-size="27" transform="matrix(1 0 0 0.999914 472.718 479)">[</text><text font-family="Cambria Math,Cambria Math_MSFontService,sans-serif" font-weight="400" font-size="27" transform="matrix(1 0 0 0.999914 482.056 479)">𝑗</text><text font-family="Cambria Math,Cambria Math_MSFontService,sans-serif" font-weight="400" font-size="27" transform="matrix(1 0 0 0.999914 492.18 479)">]</text><text font-family="Calibri,Calibri_MSFontService,sans-serif" font-weight="400" font-size="27" transform="matrix(1 0 0 0.999914 507.52 479)">στοιχεία</text><text font-family="Calibri,Calibri_MSFontService,sans-serif" font-weight="400" font-size="21" transform="matrix(1 0 0 0.999914 619.284 398)">1</text><rect x="648" y="366.968" width="46" height="45.9962" stroke="#000000" stroke-width="4.00168" stroke-miterlimit="8" fill="#DCEAF7"/><text font-family="Consolas,Consolas_MSFontService,sans-serif" font-weight="400" font-size="21" transform="matrix(1 0 0 0.999914 665.375 398)">0</text><rect x="555" y="366.968" width="46" height="45.9962" stroke="#000000" stroke-width="4.00168" stroke-miterlimit="8" fill="#B4E5A2"/><text font-family="Calibri,Calibri_MSFontService,sans-serif" font-weight="400" font-size="21" transform="matrix(1 0 0 0.999914 575.528 398)">.</text><text font-family="Cambria Math,Cambria Math_MSFontService,sans-serif" font-weight="400" font-size="21" transform="matrix(1 0 0 0.999914 514.532 398)">⋯</text><text font-family="Cambria Math,Cambria Math_MSFontService,sans-serif" font-weight="400" font-size="27" transform="matrix(1 0 0 0.999914 665.773 468)">𝑖</text><path d="M1.5005-6.78763e-06 1.50057 15.7141-1.50043 15.7141-1.5005 6.78763e-06ZM4.50157 14.2135 0.000105022 23.2166-4.50144 14.2136Z" transform="matrix(1.00009 0 0 -1 671.5 439.681)"/><rect x="446" y="366.968" width="46" height="45.9962" stroke="#000000" stroke-width="4.00168" stroke-miterlimit="8" fill="#B4E5A2"/><text font-family="Calibri,Calibri_MSFontService,sans-serif" font-weight="400" font-size="21" transform="matrix(1 0 0 0.999914 463.676 398)">1</text><rect x="398" y="366.968" width="47" height="45.9962" stroke="#000000" stroke-width="4.00168" stroke-miterlimit="8" fill="#B4E5A2"/><text font-family="Calibri,Calibri_MSFontService,sans-serif" font-weight="400" font-size="21" transform="matrix(1 0 0 0.999914 418.928 398)">.</text><rect x="353" y="366.968" width="46.0001" height="45.9962" stroke="#000000" stroke-width="4.00168" stroke-miterlimit="8" fill="#DCEAF7"/><text font-family="Consolas,Consolas_MSFontService,sans-serif" font-weight="400" font-size="21" transform="matrix(1 0 0 0.999914 370.012 398)">0</text><text font-family="Consolas,Consolas_MSFontService,sans-serif" font-weight="400" font-size="24" transform="matrix(1 0 0 0.999914 63.84 253)">Οποιοσδήποτε τρόπος να</text><text font-family="Consolas,Consolas_MSFontService,sans-serif" font-weight="400" font-size="24" transform="matrix(1 0 0 0.999914 11.1512 281)">συμπληρώσουμε</text><text font-family="Consolas,Consolas_MSFontService,sans-serif" font-weight="400" font-size="24" transform="matrix(1 0 0 0.999914 195.562 281)">αυτά</text><text font-family="Consolas,Consolas_MSFontService,sans-serif" font-weight="400" font-size="24" transform="matrix(1 0 0 0.999914 261.423 281)">τα</text><text font-family="Consolas,Consolas_MSFontService,sans-serif" font-weight="400" font-size="24" transform="matrix(1 0 0 0.999914 300.94 281)">στοιχεία</text><text font-family="Consolas,Consolas_MSFontService,sans-serif" font-weight="400" font-size="24" transform="matrix(1 0 0 0.999914 80.1402 310)">με</text><text font-family="Consolas,Consolas_MSFontService,sans-serif" font-weight="400" font-size="24" transform="matrix(1 0 0 0.999914 119.657 310)">τα μήκη</text><text font-family="Consolas,Consolas_MSFontService,sans-serif" font-weight="400" font-size="24" transform="matrix(1 0 0 0.999914 225.034 310)">s</text><text font-family="Cambria Math,Cambria Math_MSFontService,sans-serif" font-weight="400" font-size="24" transform="matrix(1 0 0 0.999914 238.207 310)">[</text><text font-family="Cambria Math,Cambria Math_MSFontService,sans-serif" font-weight="400" font-size="24" transform="matrix(1 0 0 0.999914 246.543 310)">1</text><text font-family="Cambria Math,Cambria Math_MSFontService,sans-serif" font-weight="400" font-size="24" transform="matrix(1 0 0 0.999914 259.882 310)">.</text><text font-family="Cambria Math,Cambria Math_MSFontService,sans-serif" font-weight="400" font-size="24" transform="matrix(1 0 0 0.999914 268.886 310)">.</text><text font-family="Cambria Math,Cambria Math_MSFontService,sans-serif" font-weight="400" font-size="24" transform="matrix(1 0 0 0.999914 277.89 310)">𝑗</text><text font-family="Cambria Math,Cambria Math_MSFontService,sans-serif" font-weight="400" font-size="24" transform="matrix(1 0 0 0.999914 292.309 310)">−</text><text font-family="Cambria Math,Cambria Math_MSFontService,sans-serif" font-weight="400" font-size="24" transform="matrix(1 0 0 0.999914 315.652 310)">1</text><text font-family="Cambria Math,Cambria Math_MSFontService,sans-serif" font-weight="400" font-size="24" transform="matrix(1 0 0 0.999914 328.991 310)">]</text><path d="M648 60.9948 648 207.123" stroke="#C00000" stroke-width="2.00084" stroke-miterlimit="8" stroke-dasharray="8.00336 6.00252" fill="none" fill-rule="evenodd"/><rect x="91" y="114.99" width="691" height="45.996" stroke="#000000" stroke-width="4.00168" stroke-miterlimit="8" fill="#FFFFFF"/><rect x="648" y="114.99" width="46" height="45.996" stroke="#000000" stroke-width="4.00168" stroke-miterlimit="8" fill="#DCEAF7"/><text font-family="Consolas,Consolas_MSFontService,sans-serif" font-weight="400" font-size="21" transform="matrix(1 0 0 0.999914 665.375 146)">0</text><text font-family="Cambria Math,Cambria Math_MSFontService,sans-serif" font-weight="400" font-size="27" transform="matrix(1 0 0 0.999914 665.773 216)">𝑖</text><path d="M1.5005-6.78763e-06 1.50057 15.7141-1.50043 15.7141-1.5005 6.78763e-06ZM4.50157 14.2135 0.000105022 23.2166-4.50144 14.2136Z" transform="matrix(1.00009 0 0 -1 671.5 186.703)"/><text font-family="Consolas,Consolas_MSFontService,sans-serif" font-weight="400" font-size="24" transform="matrix(1 0 0 0.999914 140.708 24)">Οποιοσδήποτε τρόπος να</text><text font-family="Consolas,Consolas_MSFontService,sans-serif" font-weight="400" font-size="24" transform="matrix(1 0 0 0.999914 443.668 24)">συμπληρώσουμε</text><text font-family="Consolas,Consolas_MSFontService,sans-serif" font-weight="400" font-size="24" transform="matrix(1 0 0 0.999914 158.255 52)">αυτά τα στοιχεία με</text><text font-family="Consolas,Consolas_MSFontService,sans-serif" font-weight="400" font-size="24" transform="matrix(1 0 0 0.999914 421.699 52)">τα μήκη</text><text font-family="Consolas,Consolas_MSFontService,sans-serif" font-weight="400" font-size="24" transform="matrix(1 0 0 0.999914 527.077 52)">s</text><text font-family="Cambria Math,Cambria Math_MSFontService,sans-serif" font-weight="400" font-size="24" transform="matrix(1 0 0 0.999914 540.249 52)">[</text><text font-family="Cambria Math,Cambria Math_MSFontService,sans-serif" font-weight="400" font-size="24" transform="matrix(1 0 0 0.999914 548.586 52)">1</text><text font-family="Cambria Math,Cambria Math_MSFontService,sans-serif" font-weight="400" font-size="24" transform="matrix(1 0 0 0.999914 561.924 52)">.</text><text font-family="Cambria Math,Cambria Math_MSFontService,sans-serif" font-weight="400" font-size="24" transform="matrix(1 0 0 0.999914 570.928 52)">.</text><text font-family="Cambria Math,Cambria Math_MSFontService,sans-serif" font-weight="400" font-size="24" transform="matrix(1 0 0 0.999914 579.932 52)">𝑗</text><text font-family="Cambria Math,Cambria Math_MSFontService,sans-serif" font-weight="400" font-size="24" transform="matrix(1 0 0 0.999914 589.016 52)">]</text><text fill="#C00000" font-family="Cambria Math,Cambria Math_MSFontService,sans-serif" font-weight="400" font-size="27" transform="matrix(1 0 0 0.999914 239.897 93)">⇝</text><text fill="#C00000" font-family="Cambria Math,Cambria Math_MSFontService,sans-serif" font-weight="400" font-size="27" transform="matrix(1 0 0 0.999914 273.485 93)">𝑑𝑝</text><path d="M101.481 4.73786 107.36 4.73786 107.36 29.8768 101.481 29.8768 101.481 28.8618 105.172 28.8618 105.172 5.75291 101.481 5.75291ZM84.4595 4.73786 90.3389 4.73786 90.3389 5.75291 86.6478 5.75291 86.6478 28.8618 90.3389 28.8618 90.3389 29.8768 84.4595 29.8768Z" fill="#C00000" fill-rule="evenodd" transform="matrix(1.00009 0 0 1 222.697 67.7416)"/><text fill="#C00000" font-family="Cambria Math,Cambria Math_MSFontService,sans-serif" font-weight="400" font-size="27" transform="matrix(1 0 0 0.999914 313.495 93)">𝑗</text><text fill="#C00000" font-family="Cambria Math,Cambria Math_MSFontService,sans-serif" font-weight="400" font-size="27" transform="matrix(1 0 0 0.999914 332.956 93)">[</text><text fill="#C00000" font-family="Cambria Math,Cambria Math_MSFontService,sans-serif" font-weight="400" font-size="27" transform="matrix(1 0 0 0.999914 342.294 93)">𝑖</text><text fill="#C00000" font-family="Cambria Math,Cambria Math_MSFontService,sans-serif" font-weight="400" font-size="27" transform="matrix(1 0 0 0.999914 357.573 93)">−</text><text fill="#C00000" font-family="Cambria Math,Cambria Math_MSFontService,sans-serif" font-weight="400" font-size="27" transform="matrix(1 0 0 0.999914 383.511 93)">1</text><text fill="#C00000" font-family="Cambria Math,Cambria Math_MSFontService,sans-serif" font-weight="400" font-size="27" transform="matrix(1 0 0 0.999914 398.35 93)">]</text><text fill="#C00000" font-family="Calibri,Calibri_MSFontService,sans-serif" font-weight="400" font-size="27" transform="matrix(1 0 0 0.999914 413.69 93)">τρόποι</text><text fill="#C00000" font-family="Cambria Math,Cambria Math_MSFontService,sans-serif" font-weight="400" font-size="27" transform="matrix(1 0 0 0.999914 20.6938 350)">⇝</text><text fill="#C00000" font-family="Cambria Math,Cambria Math_MSFontService,sans-serif" font-weight="400" font-size="27" transform="matrix(1 0 0 0.999914 54.2812 350)">𝑑𝑝</text><path d="M151.831 4.73786 157.71 4.73786 157.71 29.8768 151.831 29.8768 151.831 28.8618 155.522 28.8618 155.522 5.75291 151.831 5.75291ZM88.1074 4.73786 93.9867 4.73786 93.9867 5.75291 90.2956 5.75291 90.2956 28.8618 93.9867 28.8618 93.9867 29.8768 88.1074 29.8768Z" fill="#C00000" fill-rule="evenodd" transform="matrix(1.00009 0 0 1 -0.154973 325.374)"/><text fill="#C00000" font-family="Cambria Math,Cambria Math_MSFontService,sans-serif" font-weight="400" font-size="27" transform="matrix(1 0 0 0.999914 94.2913 350)">𝑗</text><text fill="#C00000" font-family="Cambria Math,Cambria Math_MSFontService,sans-serif" font-weight="400" font-size="27" transform="matrix(1 0 0 0.999914 110.345 350)">−</text><text fill="#C00000" font-family="Cambria Math,Cambria Math_MSFontService,sans-serif" font-weight="400" font-size="27" transform="matrix(1 0 0 0.999914 136.282 350)">1</text><text fill="#C00000" font-family="Cambria Math,Cambria Math_MSFontService,sans-serif" font-weight="400" font-size="27" transform="matrix(1 0 0 0.999914 160.459 350)">[</text><text fill="#C00000" font-family="Cambria Math,Cambria Math_MSFontService,sans-serif" font-weight="400" font-size="27" transform="matrix(1 0 0 0.999914 169.796 350)">𝑖</text><text fill="#C00000" font-family="Cambria Math,Cambria Math_MSFontService,sans-serif" font-weight="400" font-size="27" transform="matrix(1 0 0 0.999914 185.076 350)">−</text><text fill="#C00000" font-family="Cambria Math,Cambria Math_MSFontService,sans-serif" font-weight="400" font-size="27" transform="matrix(1 0 0 0.999914 211.014 350)">𝑠</text><path d="M244.062 4.73786 249.941 4.73786 249.941 29.8768 244.062 29.8768 244.062 28.8618 247.753 28.8618 247.753 5.75291 244.062 5.75291ZM227.04 4.73786 232.92 4.73786 232.92 5.75291 229.229 5.75291 229.229 28.8618 232.92 28.8618 232.92 29.8768 227.04 29.8768Z" fill="#C00000" fill-rule="evenodd" transform="matrix(1.00009 0 0 1 -0.154973 325.374)"/><text fill="#C00000" font-family="Cambria Math,Cambria Math_MSFontService,sans-serif" font-weight="400" font-size="27" transform="matrix(1 0 0 0.999914 233.236 350)">𝑗</text><text fill="#C00000" font-family="Cambria Math,Cambria Math_MSFontService,sans-serif" font-weight="400" font-size="27" transform="matrix(1 0 0 0.999914 258.627 350)">−</text><text fill="#C00000" font-family="Cambria Math,Cambria Math_MSFontService,sans-serif" font-weight="400" font-size="27" transform="matrix(1 0 0 0.999914 284.565 350)">1</text><text fill="#C00000" font-family="Cambria Math,Cambria Math_MSFontService,sans-serif" font-weight="400" font-size="27" transform="matrix(1 0 0 0.999914 299.404 350)">]</text><text fill="#C00000" font-family="Calibri,Calibri_MSFontService,sans-serif" font-weight="400" font-size="27" transform="matrix(1 0 0 0.999914 314.744 350)">τρόποι</text></g></svg>