<svg width="760" height="454" xmlns="http://www.w3.org/2000/svg" xmlns:xlink="http://www.w3.org/1999/xlink" overflow="hidden"><defs><clipPath id="clip0"><rect x="0" y="0" width="760" height="454"/></clipPath></defs><g clip-path="url(#clip0)"><rect x="0" y="0" width="760" height="454.301" fill="#FFFFFF"/><path d="M316 263.174 316 409.415" stroke="#C00000" stroke-width="2.00088" stroke-miterlimit="8" stroke-dasharray="8.00351 6.00263" fill="none" fill-rule="evenodd"/><rect x="54" y="322.214" width="691" height="46.0305" stroke="#000000" stroke-width="4.00176" stroke-miterlimit="8" fill="#FFFFFF"/><path d="M611.5 369.745C611.5 379.417 603.428 387.257 593.47 387.257L505.03 387.257C495.072 387.257 487 395.097 487 404.768 487 395.097 478.928 387.257 468.97 387.257L380.53 387.257C370.572 387.257 362.5 379.417 362.5 369.745" stroke="#7F7F7F" stroke-width="3.00331" stroke-miterlimit="8" fill="none" fill-rule="evenodd"/><rect x="565" y="322.214" width="45.9999" height="46.0305" stroke="#000000" stroke-width="4.00176" stroke-miterlimit="8" fill="#B4E5A2"/><text font-family="Consolas,Consolas_MSFontService,sans-serif" font-weight="400" font-size="27" transform="matrix(1 0 0 1.00066 421.238 435)">s</text><text font-family="Cambria Math,Cambria Math_MSFontService,sans-serif" font-weight="400" font-size="27" transform="matrix(1 0 0 1.00066 435.911 435)">[</text><text font-family="Cambria Math,Cambria Math_MSFontService,sans-serif" font-weight="400" font-size="27" transform="matrix(1 0 0 1.00066 445.248 435)">𝑗</text><text font-family="Cambria Math,Cambria Math_MSFontService,sans-serif" font-weight="400" font-size="27" transform="matrix(1 0 0 1.00066 455.373 435)">]</text><text font-family="Calibri,Calibri_MSFontService,sans-serif" font-weight="400" font-size="27" transform="matrix(1 0 0 1.00066 470.713 435)">στοιχεία</text><text font-family="Calibri,Calibri_MSFontService,sans-serif" font-weight="400" font-size="21" transform="matrix(1 0 0 1.00066 582.48 353)">1</text><rect x="611" y="322.214" width="47.0001" height="46.0305" stroke="#000000" stroke-width="4.00176" stroke-miterlimit="8" fill="#DCEAF7"/><text font-family="Consolas,Consolas_MSFontService,sans-serif" font-weight="400" font-size="21" transform="matrix(1 0 0 1.00066 628.572 353)">0</text><rect x="518" y="322.214" width="47.0001" height="46.0305" stroke="#000000" stroke-width="4.00176" stroke-miterlimit="8" fill="#B4E5A2"/><text font-family="Calibri,Calibri_MSFontService,sans-serif" font-weight="400" font-size="21" transform="matrix(1 0 0 1.00066 538.723 353)">.</text><text font-family="Cambria Math,Cambria Math_MSFontService,sans-serif" font-weight="400" font-size="21" transform="matrix(1 0 0 1.00066 477.726 353)">⋯</text><text font-family="Cambria Math,Cambria Math_MSFontService,sans-serif" font-weight="400" font-size="27" transform="matrix(1 0 0 1.00066 628.97 424)">𝑖</text><path d="M1.50066-6.78834e-06 1.50073 15.7157-1.50059 15.7157-1.50066 6.78834e-06ZM4.50204 14.215 0.000105033 23.219-4.50191 14.2151Z" transform="matrix(1 0 0 -1.00066 634.5 393.98)"/><rect x="409" y="322.214" width="47" height="46.0305" stroke="#000000" stroke-width="4.00176" stroke-miterlimit="8" fill="#B4E5A2"/><text font-family="Calibri,Calibri_MSFontService,sans-serif" font-weight="400" font-size="21" transform="matrix(1 0 0 1.00066 426.868 353)">1</text><rect x="362" y="322.214" width="46" height="46.0305" stroke="#000000" stroke-width="4.00176" stroke-miterlimit="8" fill="#B4E5A2"/><text font-family="Calibri,Calibri_MSFontService,sans-serif" font-weight="400" font-size="21" transform="matrix(1 0 0 1.00066 382.12 353)">.</text><rect x="316" y="322.214" width="46" height="46.0305" stroke="#000000" stroke-width="4.00176" stroke-miterlimit="8" fill="#DCEAF7"/><text font-family="Consolas,Consolas_MSFontService,sans-serif" font-weight="400" font-size="21" transform="matrix(1 0 0 1.00066 333.202 353)">0</text><text font-family="Consolas,Consolas_MSFontService,sans-serif" font-weight="400" font-size="24" transform="matrix(1 0 0 1.00066 14.4277 248)">Οποιοσδήποτε τρόπος να</text><text font-family="Consolas,Consolas_MSFontService,sans-serif" font-weight="400" font-size="24" transform="matrix(1 0 0 1.00066 47.3555 276)">καλύψουμε αυτά τα</text><text font-family="Consolas,Consolas_MSFontService,sans-serif" font-weight="400" font-size="24" transform="matrix(1 0 0 1.00066 4.38334 305)">στοιχεία με τα</text><text font-family="Consolas,Consolas_MSFontService,sans-serif" font-weight="400" font-size="24" transform="matrix(1 0 0 1.00066 201.97 305)">s</text><text font-family="Cambria Math,Cambria Math_MSFontService,sans-serif" font-weight="400" font-size="24" transform="matrix(1 0 0 1.00066 215.142 305)">[</text><text font-family="Cambria Math,Cambria Math_MSFontService,sans-serif" font-weight="400" font-size="24" transform="matrix(1 0 0 1.00066 223.479 305)">1</text><text font-family="Cambria Math,Cambria Math_MSFontService,sans-serif" font-weight="400" font-size="24" transform="matrix(1 0 0 1.00066 236.819 305)">.</text><text font-family="Cambria Math,Cambria Math_MSFontService,sans-serif" font-weight="400" font-size="24" transform="matrix(1 0 0 1.00066 245.823 305)">.</text><text font-family="Cambria Math,Cambria Math_MSFontService,sans-serif" font-weight="400" font-size="24" transform="matrix(1 0 0 1.00066 254.827 305)">𝑗</text><text font-family="Cambria Math,Cambria Math_MSFontService,sans-serif" font-weight="400" font-size="24" transform="matrix(1 0 0 1.00066 269.246 305)">−</text><text font-family="Cambria Math,Cambria Math_MSFontService,sans-serif" font-weight="400" font-size="24" transform="matrix(1 0 0 1.00066 292.59 305)">1</text><text font-family="Cambria Math,Cambria Math_MSFontService,sans-serif" font-weight="400" font-size="24" transform="matrix(1 0 0 1.00066 305.929 305)">]</text><path d="M611 36.0239 611 182.264" stroke="#C00000" stroke-width="2.00088" stroke-miterlimit="8" stroke-dasharray="8.00351 6.00263" fill="none" fill-rule="evenodd"/><rect x="54" y="89.059" width="691" height="47.0312" stroke="#000000" stroke-width="4.00176" stroke-miterlimit="8" fill="#FFFFFF"/><rect x="611" y="89.059" width="47.0001" height="47.0312" stroke="#000000" stroke-width="4.00176" stroke-miterlimit="8" fill="#DCEAF7"/><text font-family="Consolas,Consolas_MSFontService,sans-serif" font-weight="400" font-size="21" transform="matrix(1 0 0 1.00066 628.572 121)">0</text><text font-family="Cambria Math,Cambria Math_MSFontService,sans-serif" font-weight="400" font-size="27" transform="matrix(1 0 0 1.00066 628.97 191)">𝑖</text><path d="M1.50066-6.78834e-06 1.50073 15.7157-1.50059 15.7157-1.50066 6.78834e-06ZM4.50204 14.215 0.000105033 23.219-4.50191 14.2151Z" transform="matrix(1 0 0 -1.00066 634.5 161.826)"/><text font-family="Consolas,Consolas_MSFontService,sans-serif" font-weight="400" font-size="24" transform="matrix(1 0 0 1.00066 119.635 28)">Οποιοσδήποτε τρόπος να καλύψουμε</text><text font-family="Consolas,Consolas_MSFontService,sans-serif" font-weight="400" font-size="24" transform="matrix(1 0 0 1.00066 143.773 56)">αυτά τα στοιχεία με τα</text><text font-family="Consolas,Consolas_MSFontService,sans-serif" font-weight="400" font-size="24" transform="matrix(1 0 0 1.00066 446.739 56)">s</text><text font-family="Cambria Math,Cambria Math_MSFontService,sans-serif" font-weight="400" font-size="24" transform="matrix(1 0 0 1.00066 459.911 56)">[</text><text font-family="Cambria Math,Cambria Math_MSFontService,sans-serif" font-weight="400" font-size="24" transform="matrix(1 0 0 1.00066 468.248 56)">1</text><text font-family="Cambria Math,Cambria Math_MSFontService,sans-serif" font-weight="400" font-size="24" transform="matrix(1 0 0 1.00066 481.587 56)">.</text><text font-family="Cambria Math,Cambria Math_MSFontService,sans-serif" font-weight="400" font-size="24" transform="matrix(1 0 0 1.00066 490.591 56)">.</text><text font-family="Cambria Math,Cambria Math_MSFontService,sans-serif" font-weight="400" font-size="24" transform="matrix(1 0 0 1.00066 499.595 56)">𝑗</text><text font-family="Cambria Math,Cambria Math_MSFontService,sans-serif" font-weight="400" font-size="24" transform="matrix(1 0 0 1.00066 508.679 56)">]</text></g></svg>