<?xml version="1.0" encoding="UTF-8" standalone="no"?>
<svg
   version="1.1"
   viewBox="0 0 386.48166 264.06821"
   fill="none"
   stroke="none"
   stroke-linecap="square"
   stroke-miterlimit="10"
   id="svg277"
   sodipodi:docname="37-reviews-solution-trees.svg"
   width="386.48166"
   height="264.06821"
   inkscape:version="1.2.2 (b0a8486541, 2022-12-01)"
   xmlns:inkscape="http://www.inkscape.org/namespaces/inkscape"
   xmlns:sodipodi="http://sodipodi.sourceforge.net/DTD/sodipodi-0.dtd"
   xmlns="http://www.w3.org/2000/svg"
   xmlns:svg="http://www.w3.org/2000/svg">
  <defs
     id="defs281" />
  <sodipodi:namedview
     id="namedview279"
     pagecolor="#ffffff"
     bordercolor="#000000"
     borderopacity="0.25"
     inkscape:showpageshadow="2"
     inkscape:pageopacity="0.0"
     inkscape:pagecheckerboard="0"
     inkscape:deskcolor="#d1d1d1"
     showgrid="false"
     inkscape:zoom="2.2669963"
     inkscape:cx="286.2819"
     inkscape:cy="81.385225"
     inkscape:window-width="2256"
     inkscape:window-height="1369"
     inkscape:window-x="0"
     inkscape:window-y="0"
     inkscape:window-maximized="1"
     inkscape:current-layer="g275" />
  <clipPath
     id="p.0">
    <path
       d="M 0,0 H 960 V 540 H 0 Z"
       clip-rule="nonzero"
       id="path2" />
  </clipPath>
  <g
     clip-path="url(#p.0)"
     id="g275"
     transform="translate(-153.71635,-31.066711)">
    <path
       fill="#fff2cc"
       d="m 154.44109,81.85299 c -1.54462,14.607613 5.33945,43.62992 9.65091,54.82677 4.31146,11.19686 5.27821,11.38933 16.21785,12.35433 10.93964,0.96501 35.32721,-3.02536 49.41995,-6.5643 14.09274,-3.53893 29.40945,-7.97725 35.13648,-14.66929 5.72705,-6.69204 3.5372,-18.59712 -0.77427,-25.48294 -4.31146,-6.885826 -15.37796,-5.922135 -25.09449,-15.832025 -9.71654,-9.909881 -22.26509,-37.385387 -33.20473,-43.627293 -10.93964,-6.241909 -23.87445,-0.323272 -32.43308,6.17585 -8.5586,6.499127 -17.374,18.211285 -18.91862,32.818898 z"
       fill-rule="evenodd"
       id="path7" />
    <path
       stroke="#bf9000"
       stroke-width="1"
       stroke-linejoin="round"
       stroke-linecap="butt"
       d="m 154.44109,81.85299 c -1.54462,14.607613 5.33945,43.62992 9.65091,54.82677 4.31146,11.19686 5.27821,11.38933 16.21785,12.35433 10.93964,0.96501 35.32721,-3.02536 49.41995,-6.5643 14.09274,-3.53893 29.40945,-7.97725 35.13648,-14.66929 5.72705,-6.69204 3.5372,-18.59712 -0.77427,-25.48294 -4.31146,-6.885826 -15.37796,-5.922135 -25.09449,-15.832025 -9.71654,-9.909881 -22.26509,-37.385387 -33.20473,-43.627293 -10.93964,-6.241909 -23.87445,-0.323272 -32.43308,6.17585 -8.5586,6.499127 -17.374,18.211285 -18.91862,32.818898 z"
       fill-rule="evenodd"
       id="path9" />
    <path
       fill="#fff2cc"
       d="m 298.8424,106.94901 c -7.33597,-2.18767 -10.68286,-9.909454 -9.65353,-18.91864 1.02929,-9.009186 9.84469,-26.191597 15.82937,-35.136482 5.98471,-8.944881 12.7428,-15.444004 20.07877,-18.532806 7.33594,-3.088802 19.17541,-4.31146 23.93698,0 4.7616,4.311462 7.27078,14.736221 4.63257,25.868767 -2.63825,11.132545 -11.32459,33.139984 -20.46195,40.926511 -9.13736,7.78652 -27.02624,7.98031 -34.36221,5.79265 z"
       fill-rule="evenodd"
       id="path11" />
    <path
       stroke="#bf9000"
       stroke-width="1"
       stroke-linejoin="round"
       stroke-linecap="butt"
       d="m 298.8424,106.94901 c -7.33597,-2.18767 -10.68286,-9.909454 -9.65353,-18.91864 1.02929,-9.009186 9.84469,-26.191597 15.82937,-35.136482 5.98471,-8.944881 12.7428,-15.444004 20.07877,-18.532806 7.33594,-3.088802 19.17541,-4.31146 23.93698,0 4.7616,4.311462 7.27078,14.736221 4.63257,25.868767 -2.63825,11.132545 -11.32459,33.139984 -20.46195,40.926511 -9.13736,7.78652 -27.02624,7.98031 -34.36221,5.79265 z"
       fill-rule="evenodd"
       id="path13" />
    <path
       fill="#fff2cc"
       d="m 379.92294,72.97262 c -7.07874,10.167542 -11.77734,18.983376 -12.74277,25.868767 -0.96545,6.885393 1.15836,12.805333 6.95014,15.443573 5.79178,2.63823 19.17758,2.57392 27.8005,0.38583 8.62293,-2.18811 15.82898,-11.06913 23.93702,-13.51444 8.10806,-2.445319 19.04855,2.76772 24.7113,-1.157485 5.66272,-3.925194 10.93832,-15.444008 9.26508,-22.3937 -1.67322,-6.949692 -10.93918,-12.676292 -19.30445,-19.304462 -8.36526,-6.62817 -20.78436,-22.909885 -30.88714,-20.464565 -10.10282,2.44532 -22.65091,24.96894 -29.72968,35.136482 z"
       fill-rule="evenodd"
       id="path15" />
    <path
       stroke="#bf9000"
       stroke-width="1"
       stroke-linejoin="round"
       stroke-linecap="butt"
       d="m 379.92294,72.97262 c -7.07874,10.167542 -11.77734,18.983376 -12.74277,25.868767 -0.96545,6.885393 1.15836,12.805333 6.95014,15.443573 5.79178,2.63823 19.17758,2.57392 27.8005,0.38583 8.62293,-2.18811 15.82898,-11.06913 23.93702,-13.51444 8.10806,-2.445319 19.04855,2.76772 24.7113,-1.157485 5.66272,-3.925194 10.93832,-15.444008 9.26508,-22.3937 -1.67322,-6.949692 -10.93918,-12.676292 -19.30445,-19.304462 -8.36526,-6.62817 -20.78436,-22.909885 -30.88714,-20.464565 -10.10282,2.44532 -22.65091,24.96894 -29.72968,35.136482 z"
       fill-rule="evenodd"
       id="path17" />
    <path
       fill="#fff2cc"
       d="m 459.07477,200.38615 c 7.97943,14.15704 25.54813,53.53981 35.52231,66.02364 9.97418,12.48379 17.50174,9.78039 24.32285,8.87924 6.8211,-0.90113 17.31146,-5.85651 16.60369,-14.28607 -0.70782,-8.42959 -21.17193,-27.0897 -20.8504,-36.29135 0.32147,-9.20166 19.4978,-12.09755 22.77948,-18.91863 3.28174,-6.82109 3.53894,-16.02319 -3.08923,-22.00787 -6.62818,-5.9847 -31.78913,-6.5 -36.67978,-13.90027 -4.89063,-7.40027 10.16711,-23.10105 7.33597,-30.50131 -2.83115,-7.40027 -14.92783,-12.48426 -24.32285,-13.90027 -9.39499,-1.416 -22.71652,3.60237 -32.04724,5.4042 -9.33069,1.80184 -18.40289,0.32283 -23.93701,5.40683 -5.53412,5.08399 -12.93567,17.56824 -9.2677,25.09711 3.66797,7.52887 24.00394,13.577 31.27557,20.07611 7.27167,6.49913 4.37491,4.7616 12.35434,18.91864 z"
       fill-rule="evenodd"
       id="path19" />
    <path
       stroke="#bf9000"
       stroke-width="1"
       stroke-linejoin="round"
       stroke-linecap="butt"
       d="m 459.07477,200.38615 c 7.97943,14.15704 25.54813,53.53981 35.52231,66.02364 9.97418,12.48379 17.50174,9.78039 24.32285,8.87924 6.8211,-0.90113 17.31146,-5.85651 16.60369,-14.28607 -0.70782,-8.42959 -21.17193,-27.0897 -20.8504,-36.29135 0.32147,-9.20166 19.4978,-12.09755 22.77948,-18.91863 3.28174,-6.82109 3.53894,-16.02319 -3.08923,-22.00787 -6.62818,-5.9847 -31.78913,-6.5 -36.67978,-13.90027 -4.89063,-7.40027 10.16711,-23.10105 7.33597,-30.50131 -2.83115,-7.40027 -14.92783,-12.48426 -24.32285,-13.90027 -9.39499,-1.416 -22.71652,3.60237 -32.04724,5.4042 -9.33069,1.80184 -18.40289,0.32283 -23.93701,5.40683 -5.53412,5.08399 -12.93567,17.56824 -9.2677,25.09711 3.66797,7.52887 24.00394,13.577 31.27557,20.07611 7.27167,6.49913 4.37491,4.7616 12.35434,18.91864 z"
       fill-rule="evenodd"
       id="path21" />
    <path
       fill="#fff2cc"
       d="m 378.7632,222.77827 c 1.80185,12.22659 0.13037,27.22003 4.63516,33.20473 4.50482,5.98468 13.70648,3.86175 22.39371,2.7034 8.68722,-1.15836 21.68591,-5.21347 29.72964,-9.65354 8.04377,-4.44008 17.76075,-10.87358 18.53284,-16.98687 0.77207,-6.1133 -6.5,-12.67849 -13.90027,-19.69292 -7.40027,-7.01444 -22.97244,-16.2161 -30.50131,-22.39371 -7.52887,-6.1776 -8.49432,-13.44925 -14.67194,-14.6719 -6.17758,-1.22266 -19.6907,-0.57918 -22.39367,7.33595 -2.70298,7.91513 4.37399,27.92825 6.17584,40.15486 z"
       fill-rule="evenodd"
       id="path23" />
    <path
       stroke="#bf9000"
       stroke-width="1"
       stroke-linejoin="round"
       stroke-linecap="butt"
       d="m 378.7632,222.77827 c 1.80185,12.22659 0.13037,27.22003 4.63516,33.20473 4.50482,5.98468 13.70648,3.86175 22.39371,2.7034 8.68722,-1.15836 21.68591,-5.21347 29.72964,-9.65354 8.04377,-4.44008 17.76075,-10.87358 18.53284,-16.98687 0.77207,-6.1133 -6.5,-12.67849 -13.90027,-19.69292 -7.40027,-7.01444 -22.97244,-16.2161 -30.50131,-22.39371 -7.52887,-6.1776 -8.49432,-13.44925 -14.67194,-14.6719 -6.17758,-1.22266 -19.6907,-0.57918 -22.39367,7.33595 -2.70298,7.91513 4.37399,27.92825 6.17584,40.15486 z"
       fill-rule="evenodd"
       id="path25" />
    <path
       fill="#fff2cc"
       d="m 219.30496,195.36713 c -9.3307,9.1378 -24.12993,14.67192 -27.7979,22.00787 -3.66798,7.33596 1.15705,17.56781 5.79003,22.00788 4.63298,4.44006 18.91906,-1.3517 22.00787,4.63255 3.08881,5.98424 -7.97987,24.51619 -3.47507,31.27297 4.50481,6.75677 19.30709,8.17367 30.50394,9.2677 11.19684,1.09405 24.51532,-0.12949 36.67716,-2.7034 12.16186,-2.57395 30.11636,-6.112 36.29397,-12.74018 6.17761,-6.62814 5.46893,-17.31189 0.77167,-27.02885 -4.6973,-9.71698 -21.94141,-19.81889 -28.95538,-31.27297 -7.01401,-11.45407 -9.58927,-29.3434 -13.12864,-37.45144 -3.53936,-8.10805 -3.02404,-9.39502 -8.1076,-11.19686 -5.08356,-1.80183 -13.96368,-5.14828 -22.39369,0.38584 -8.43001,5.53412 -18.85565,23.68109 -28.18636,32.81889 z"
       fill-rule="evenodd"
       id="path27" />
    <path
       stroke="#bf9000"
       stroke-width="1"
       stroke-linejoin="round"
       stroke-linecap="butt"
       d="m 219.30496,195.36713 c -9.3307,9.1378 -24.12993,14.67192 -27.7979,22.00787 -3.66798,7.33596 1.15705,17.56781 5.79003,22.00788 4.63298,4.44006 18.91906,-1.3517 22.00787,4.63255 3.08881,5.98424 -7.97987,24.51619 -3.47507,31.27297 4.50481,6.75677 19.30709,8.17367 30.50394,9.2677 11.19684,1.09405 24.51532,-0.12949 36.67716,-2.7034 12.16186,-2.57395 30.11636,-6.112 36.29397,-12.74018 6.17761,-6.62814 5.46893,-17.31189 0.77167,-27.02885 -4.6973,-9.71698 -21.94141,-19.81889 -28.95538,-31.27297 -7.01401,-11.45407 -9.58927,-29.3434 -13.12864,-37.45144 -3.53936,-8.10805 -3.02404,-9.39502 -8.1076,-11.19686 -5.08356,-1.80183 -13.96368,-5.14828 -22.39369,0.38584 -8.43001,5.53412 -18.85565,23.68109 -28.18636,32.81889 z"
       fill-rule="evenodd"
       id="path29" />
    <path
       fill="#fff2cc"
       d="m 323.93677,229.34348 c 4.24716,6.75677 6.6929,20.39807 6.5643,27.41208 -0.1286,7.01401 -6.17761,10.36044 -7.33597,14.6719 -1.15835,4.31147 -2.96063,7.33555 0.38584,11.19687 3.34646,3.86133 12.29266,11.39194 19.6929,11.97113 7.40027,0.57917 18.66012,-5.47158 24.70868,-8.49606 6.04855,-3.02451 9.78082,-5.01794 11.58267,-9.65094 1.80185,-4.63296 5.14829,-8.55862 -0.77167,-18.14697 -5.91992,-9.58837 -28.05554,-28.05731 -34.74801,-39.38321 -6.69248,-11.3259 -0.96677,-22.58748 -5.40683,-28.57218 -4.44007,-5.98469 -14.92737,-8.75196 -21.23359,-7.33595 -6.30621,1.416 -14.54418,10.2979 -16.60369,15.83202 -2.05948,5.53412 0.38583,12.28915 4.24673,17.37271 3.8609,5.08354 14.67148,6.37182 18.91864,13.1286 z"
       fill-rule="evenodd"
       id="path31" />
    <path
       stroke="#bf9000"
       stroke-width="1"
       stroke-linejoin="round"
       stroke-linecap="butt"
       d="m 323.93677,229.34348 c 4.24716,6.75677 6.6929,20.39807 6.5643,27.41208 -0.1286,7.01401 -6.17761,10.36044 -7.33597,14.6719 -1.15835,4.31147 -2.96063,7.33555 0.38584,11.19687 3.34646,3.86133 12.29266,11.39194 19.6929,11.97113 7.40027,0.57917 18.66012,-5.47158 24.70868,-8.49606 6.04855,-3.02451 9.78082,-5.01794 11.58267,-9.65094 1.80185,-4.63296 5.14829,-8.55862 -0.77167,-18.14697 -5.91992,-9.58837 -28.05554,-28.05731 -34.74801,-39.38321 -6.69248,-11.3259 -0.96677,-22.58748 -5.40683,-28.57218 -4.44007,-5.98469 -14.92737,-8.75196 -21.23359,-7.33595 -6.30621,1.416 -14.54418,10.2979 -16.60369,15.83202 -2.05948,5.53412 0.38583,12.28915 4.24673,17.37271 3.8609,5.08354 14.67148,6.37182 18.91864,13.1286 z"
       fill-rule="evenodd"
       id="path33" />
    <path
       fill="#000000"
       fill-opacity="0"
       d="M 255.2126,183.39896 243.24409,118.1706"
       fill-rule="evenodd"
       id="path35" />
    <path
       stroke="#000000"
       stroke-width="3"
       stroke-linejoin="round"
       stroke-linecap="butt"
       d="M 255.2126,183.39896 243.24409,118.1706"
       fill-rule="evenodd"
       id="path37" />
    <path
       fill="#000000"
       fill-opacity="0"
       d="m 313.51443,86.87139 -70.26772,28.97638"
       fill-rule="evenodd"
       id="path39" />
    <path
       stroke="#000000"
       stroke-width="3"
       stroke-linejoin="round"
       stroke-linecap="butt"
       d="m 313.51443,86.87139 -70.26772,28.97638"
       fill-rule="evenodd"
       id="path41" />
    <path
       fill="#000000"
       fill-opacity="0"
       d="M 390.34647,94.5958 313.1496,86.847768"
       fill-rule="evenodd"
       id="path43" />
    <path
       stroke="#000000"
       stroke-width="3"
       stroke-linejoin="round"
       stroke-linecap="butt"
       d="M 390.34647,94.5958 313.1496,86.847768"
       fill-rule="evenodd"
       id="path45" />
    <path
       fill="#000000"
       fill-opacity="0"
       d="M 437.83728,150.96588 391.50656,94.209975"
       fill-rule="evenodd"
       id="path47" />
    <path
       stroke="#000000"
       stroke-width="3"
       stroke-linejoin="round"
       stroke-linecap="butt"
       d="M 437.83728,150.96588 391.50656,94.209975"
       fill-rule="evenodd"
       id="path49" />
    <path
       fill="#000000"
       fill-opacity="0"
       d="M 321.2362,203.86089 255.22047,183.76641"
       fill-rule="evenodd"
       id="path51" />
    <path
       stroke="#000000"
       stroke-width="3"
       stroke-linejoin="round"
       stroke-linecap="butt"
       d="M 321.2362,203.86089 255.22047,183.76641"
       fill-rule="evenodd"
       id="path53" />
    <path
       fill="#000000"
       fill-opacity="0"
       d="m 394.20734,200.77165 -71.811,2.29921"
       fill-rule="evenodd"
       id="path55" />
    <path
       stroke="#000000"
       stroke-width="3"
       stroke-linejoin="round"
       stroke-linecap="butt"
       d="m 394.20734,200.77165 -71.811,2.29921"
       fill-rule="evenodd"
       id="path57" />
    <path
       fill="#000000"
       fill-opacity="0"
       d="m 394.20734,201.5433 45.57483,-51.74803"
       fill-rule="evenodd"
       id="path59" />
    <path
       stroke="#000000"
       stroke-width="3"
       stroke-linejoin="round"
       stroke-linecap="butt"
       d="m 394.20734,201.5433 45.57483,-51.74803"
       fill-rule="evenodd"
       id="path61" />
    <path
       fill="#000000"
       fill-opacity="0"
       d="M 249.55655,124.55393 213.24159,87.703535"
       fill-rule="evenodd"
       id="path63" />
    <path
       stroke="#595959"
       stroke-width="1"
       stroke-linejoin="round"
       stroke-linecap="butt"
       d="M 249.55655,124.55393 213.24159,87.703535"
       fill-rule="evenodd"
       id="path65" />
    <path
       fill="#000000"
       fill-opacity="0"
       d="m 244.7874,116.9895 -63.33858,10.42519"
       fill-rule="evenodd"
       id="path67" />
    <path
       stroke="#595959"
       stroke-width="1"
       stroke-linejoin="round"
       stroke-linecap="butt"
       d="m 244.7874,116.9895 -63.33858,10.42519"
       fill-rule="evenodd"
       id="path69" />
    <path
       fill="#000000"
       fill-opacity="0"
       d="M 214.67192,87.64567 176.05774,81.472445"
       fill-rule="evenodd"
       id="path71" />
    <path
       stroke="#595959"
       stroke-width="1"
       stroke-linejoin="round"
       stroke-linecap="butt"
       d="M 214.67192,87.64567 176.05774,81.472445"
       fill-rule="evenodd"
       id="path73" />
    <path
       fill="#000000"
       fill-opacity="0"
       d="M 213.51443,88.41732 195.37269,59.472442"
       fill-rule="evenodd"
       id="path75" />
    <path
       stroke="#595959"
       stroke-width="1"
       stroke-linejoin="round"
       stroke-linecap="butt"
       d="M 213.51443,88.41732 195.37269,59.472442"
       fill-rule="evenodd"
       id="path77" />
    <path
       fill="#000000"
       fill-opacity="0"
       d="M 333.97638,54.82677 312.2756,87.645667"
       fill-rule="evenodd"
       id="path79" />
    <path
       stroke="#595959"
       stroke-width="1"
       stroke-linejoin="round"
       stroke-linecap="butt"
       d="M 333.97638,54.82677 312.2756,87.645667"
       fill-rule="evenodd"
       id="path81" />
    <path
       fill="#000000"
       fill-opacity="0"
       d="M 410.03937,59.459316 390.00788,95.616798"
       fill-rule="evenodd"
       id="path83" />
    <path
       stroke="#595959"
       stroke-width="1"
       stroke-linejoin="round"
       stroke-linecap="butt"
       d="M 410.03937,59.459316 390.00788,95.616798"
       fill-rule="evenodd"
       id="path85" />
    <path
       fill="#000000"
       fill-opacity="0"
       d="M 389.5748,94.5958 439.37009,83.005247"
       fill-rule="evenodd"
       id="path87" />
    <path
       stroke="#595959"
       stroke-width="1"
       stroke-linejoin="round"
       stroke-linecap="butt"
       d="M 389.5748,94.5958 439.37009,83.005247"
       fill-rule="evenodd"
       id="path89" />
    <path
       fill="#000000"
       fill-opacity="0"
       d="m 336.29398,273.7454 3.77951,-29.79526"
       fill-rule="evenodd"
       id="path91" />
    <path
       stroke="#595959"
       stroke-width="1"
       stroke-linejoin="round"
       stroke-linecap="butt"
       d="m 336.29398,273.7454 3.77951,-29.79526"
       fill-rule="evenodd"
       id="path93" />
    <path
       fill="#000000"
       fill-opacity="0"
       d="M 362.9344,271.81366 342.33598,245.04199"
       fill-rule="evenodd"
       id="path95" />
    <path
       stroke="#595959"
       stroke-width="1"
       stroke-linejoin="round"
       stroke-linecap="butt"
       d="M 362.9344,271.81366 342.33598,245.04199"
       fill-rule="evenodd"
       id="path97" />
    <path
       fill="#000000"
       fill-opacity="0"
       d="M 342.46982,246.71916 321.8714,203.16011"
       fill-rule="evenodd"
       id="path99" />
    <path
       stroke="#595959"
       stroke-width="1"
       stroke-linejoin="round"
       stroke-linecap="butt"
       d="M 342.46982,246.71916 321.8714,203.16011"
       fill-rule="evenodd"
       id="path101" />
    <path
       fill="#000000"
       fill-opacity="0"
       d="m 277.22046,223.16536 -18.70865,-41.6693"
       fill-rule="evenodd"
       id="path103" />
    <path
       stroke="#595959"
       stroke-width="1"
       stroke-linejoin="round"
       stroke-linecap="butt"
       d="m 277.22046,223.16536 -18.70865,-41.6693"
       fill-rule="evenodd"
       id="path105" />
    <path
       fill="#000000"
       fill-opacity="0"
       d="M 304.63254,256.75592 277.8924,222.99213"
       fill-rule="evenodd"
       id="path107" />
    <path
       stroke="#595959"
       stroke-width="1"
       stroke-linejoin="round"
       stroke-linecap="butt"
       d="M 304.63254,256.75592 277.8924,222.99213"
       fill-rule="evenodd"
       id="path109" />
    <path
       fill="#000000"
       fill-opacity="0"
       d="m 397.2966,242.85826 -3.49606,-44"
       fill-rule="evenodd"
       id="path111" />
    <path
       stroke="#595959"
       stroke-width="1"
       stroke-linejoin="round"
       stroke-linecap="butt"
       d="m 397.2966,242.85826 -3.49606,-44"
       fill-rule="evenodd"
       id="path113" />
    <path
       fill="#000000"
       fill-opacity="0"
       d="M 434.74802,232.04724 393.83466,198.06299"
       fill-rule="evenodd"
       id="path115" />
    <path
       stroke="#595959"
       stroke-width="1"
       stroke-linejoin="round"
       stroke-linecap="butt"
       d="M 434.74802,232.04724 393.83466,198.06299"
       fill-rule="evenodd"
       id="path117" />
    <path
       fill="#000000"
       fill-opacity="0"
       d="M 471.042,179.14961 437.15223,150.92914"
       fill-rule="evenodd"
       id="path119" />
    <path
       stroke="#595959"
       stroke-width="1"
       stroke-linejoin="round"
       stroke-linecap="butt"
       d="M 471.042,179.14961 437.15223,150.92914"
       fill-rule="evenodd"
       id="path121" />
    <path
       fill="#000000"
       fill-opacity="0"
       d="m 483.39896,146.71916 -46.23624,4.22047"
       fill-rule="evenodd"
       id="path123" />
    <path
       stroke="#595959"
       stroke-width="1"
       stroke-linejoin="round"
       stroke-linecap="butt"
       d="m 483.39896,146.71916 -46.23624,4.22047"
       fill-rule="evenodd"
       id="path125" />
    <path
       fill="#000000"
       fill-opacity="0"
       d="M 490.34647,221.62204 468.86615,176.74016"
       fill-rule="evenodd"
       id="path127" />
    <path
       stroke="#595959"
       stroke-width="1"
       stroke-linejoin="round"
       stroke-linecap="butt"
       d="M 490.34647,221.62204 468.86615,176.74016"
       fill-rule="evenodd"
       id="path129" />
    <path
       fill="#000000"
       fill-opacity="0"
       d="m 232.43307,264.86615 13.29134,-43.87402"
       fill-rule="evenodd"
       id="path131" />
    <path
       stroke="#595959"
       stroke-width="1"
       stroke-linejoin="round"
       stroke-linecap="butt"
       d="m 232.43307,264.86615 13.29134,-43.87402"
       fill-rule="evenodd"
       id="path133" />
    <path
       fill="#000000"
       fill-opacity="0"
       d="M 266.40945,265.25198 278.8189,223.92913"
       fill-rule="evenodd"
       id="path135" />
    <path
       stroke="#595959"
       stroke-width="1"
       stroke-linejoin="round"
       stroke-linecap="butt"
       d="M 266.40945,265.25198 278.8189,223.92913"
       fill-rule="evenodd"
       id="path137" />
    <path
       fill="#000000"
       fill-opacity="0"
       d="M 244.54855,224.26772 257.8399,180.39371"
       fill-rule="evenodd"
       id="path139" />
    <path
       stroke="#595959"
       stroke-width="1"
       stroke-linejoin="round"
       stroke-linecap="butt"
       d="M 244.54855,224.26772 257.8399,180.39371"
       fill-rule="evenodd"
       id="path141" />
    <path
       fill="#000000"
       fill-opacity="0"
       d="M 211.20341,224.26772 256.7467,181.46457"
       fill-rule="evenodd"
       id="path143" />
    <path
       stroke="#595959"
       stroke-width="1"
       stroke-linejoin="round"
       stroke-linecap="butt"
       d="M 211.20341,224.26772 256.7467,181.46457"
       fill-rule="evenodd"
       id="path145" />
    <path
       fill="#000000"
       fill-opacity="0"
       d="m 470.65616,178.76378 42.67715,20.15749"
       fill-rule="evenodd"
       id="path147" />
    <path
       stroke="#595959"
       stroke-width="1"
       stroke-linejoin="round"
       stroke-linecap="butt"
       d="m 470.65616,178.76378 42.67715,20.15749"
       fill-rule="evenodd"
       id="path149" />
    <path
       fill="#000000"
       fill-opacity="0"
       d="m 489.5748,223.16536 22.80313,33.19685"
       fill-rule="evenodd"
       id="path151" />
    <path
       stroke="#595959"
       stroke-width="1"
       stroke-linejoin="round"
       stroke-linecap="butt"
       d="m 489.5748,223.16536 22.80313,33.19685"
       fill-rule="evenodd"
       id="path153" />
    <path
       fill="#eeeeee"
       d="m 229.40683,115.30446 v 0 c 0,-7.85374 6.36671,-14.22047 14.22047,-14.22047 v 0 c 3.7715,0 7.38854,1.49823 10.05539,4.16508 2.66686,2.66685 4.16509,6.28389 4.16509,10.05539 v 0 c 0,7.85375 -6.36673,14.22047 -14.22048,14.22047 v 0 c -7.85376,0 -14.22047,-6.36672 -14.22047,-14.22047 z"
       fill-rule="evenodd"
       id="path155" />
    <path
       stroke="#595959"
       stroke-width="1"
       stroke-linejoin="round"
       stroke-linecap="butt"
       d="m 229.40683,115.30446 v 0 c 0,-7.85374 6.36671,-14.22047 14.22047,-14.22047 v 0 c 3.7715,0 7.38854,1.49823 10.05539,4.16508 2.66686,2.66685 4.16509,6.28389 4.16509,10.05539 v 0 c 0,7.85375 -6.36673,14.22047 -14.22048,14.22047 v 0 c -7.85376,0 -14.22047,-6.36672 -14.22047,-14.22047 z"
       fill-rule="evenodd"
       id="path157" />
    <path
       fill="#eeeeee"
       d="m 242.38058,182.7559 v 0 c 0,-7.85374 6.36671,-14.22047 14.22046,-14.22047 v 0 c 3.77151,0 7.38855,1.49823 10.05539,4.16508 2.66687,2.66686 4.1651,6.28389 4.1651,10.05539 v 0 c 0,7.85374 -6.36673,14.22047 -14.22049,14.22047 v 0 c -7.85375,0 -14.22046,-6.36673 -14.22046,-14.22047 z"
       fill-rule="evenodd"
       id="path159" />
    <path
       stroke="#595959"
       stroke-width="1"
       stroke-linejoin="round"
       stroke-linecap="butt"
       d="m 242.38058,182.7559 v 0 c 0,-7.85374 6.36671,-14.22047 14.22046,-14.22047 v 0 c 3.77151,0 7.38855,1.49823 10.05539,4.16508 2.66687,2.66686 4.1651,6.28389 4.1651,10.05539 v 0 c 0,7.85374 -6.36673,14.22047 -14.22049,14.22047 v 0 c -7.85375,0 -14.22046,-6.36673 -14.22046,-14.22047 z"
       fill-rule="evenodd"
       id="path161" />
    <path
       fill="#eeeeee"
       d="m 308.01575,204.2021 v 0 c 0,-7.85376 6.36673,-14.22047 14.22046,-14.22047 v 0 c 3.77151,0 7.38855,1.49823 10.05542,4.16508 2.66684,2.66686 4.16507,6.28389 4.16507,10.05539 v 0 c 0,7.85374 -6.36673,14.22047 -14.22049,14.22047 v 0 c -7.85373,0 -14.22046,-6.36673 -14.22046,-14.22047 z"
       fill-rule="evenodd"
       id="path163" />
    <path
       stroke="#595959"
       stroke-width="1"
       stroke-linejoin="round"
       stroke-linecap="butt"
       d="m 308.01575,204.2021 v 0 c 0,-7.85376 6.36673,-14.22047 14.22046,-14.22047 v 0 c 3.77151,0 7.38855,1.49823 10.05542,4.16508 2.66684,2.66686 4.16507,6.28389 4.16507,10.05539 v 0 c 0,7.85374 -6.36673,14.22047 -14.22049,14.22047 v 0 c -7.85373,0 -14.22046,-6.36673 -14.22046,-14.22047 z"
       fill-rule="evenodd"
       id="path165" />
    <path
       fill="#eeeeee"
       d="m 379.7034,198.41208 v 0 c 0,-7.85376 6.36673,-14.22047 14.22049,-14.22047 v 0 c 3.77148,0 7.38852,1.49821 10.05539,4.16507 2.66684,2.66687 4.16507,6.28389 4.16507,10.0554 v 0 c 0,7.85375 -6.3667,14.22047 -14.22046,14.22047 v 0 c -7.85376,0 -14.22049,-6.36673 -14.22049,-14.22047 z"
       fill-rule="evenodd"
       id="path167" />
    <path
       stroke="#595959"
       stroke-width="1"
       stroke-linejoin="round"
       stroke-linecap="butt"
       d="m 379.7034,198.41208 v 0 c 0,-7.85376 6.36673,-14.22047 14.22049,-14.22047 v 0 c 3.77148,0 7.38852,1.49821 10.05539,4.16507 2.66684,2.66687 4.16507,6.28389 4.16507,10.0554 v 0 c 0,7.85375 -6.3667,14.22047 -14.22046,14.22047 v 0 c -7.85376,0 -14.22049,-6.36673 -14.22049,-14.22047 z"
       fill-rule="evenodd"
       id="path169" />
    <path
       fill="#eeeeee"
       d="m 298.85565,86.86352 v 0 c 0,-7.853752 6.3667,-14.220474 14.22046,-14.220474 v 0 c 3.77151,0 7.38855,1.498222 10.05539,4.165085 2.66687,2.666855 4.1651,6.283882 4.1651,10.055389 v 0 c 0,7.853752 -6.36673,14.22047 -14.22049,14.22047 v 0 c -7.85376,0 -14.22046,-6.366718 -14.22046,-14.22047 z"
       fill-rule="evenodd"
       id="path171" />
    <path
       stroke="#595959"
       stroke-width="1"
       stroke-linejoin="round"
       stroke-linecap="butt"
       d="m 298.85565,86.86352 v 0 c 0,-7.853752 6.3667,-14.220474 14.22046,-14.220474 v 0 c 3.77151,0 7.38855,1.498222 10.05539,4.165085 2.66687,2.666855 4.1651,6.283882 4.1651,10.055389 v 0 c 0,7.853752 -6.36673,14.22047 -14.22049,14.22047 v 0 c -7.85376,0 -14.22046,-6.366718 -14.22046,-14.22047 z"
       fill-rule="evenodd"
       id="path173" />
    <path
       fill="#eeeeee"
       d="m 376.5958,94.21785 v 0 c 0,-7.853752 6.36673,-14.220474 14.22049,-14.220474 v 0 c 3.77148,0 7.38852,1.498222 10.05539,4.165077 2.66684,2.666855 4.16507,6.28389 4.16507,10.055397 v 0 c 0,7.85374 -6.36673,14.22047 -14.22046,14.22047 v 0 c -7.85376,0 -14.22049,-6.36673 -14.22049,-14.22047 z"
       fill-rule="evenodd"
       id="path175" />
    <path
       stroke="#595959"
       stroke-width="1"
       stroke-linejoin="round"
       stroke-linecap="butt"
       d="m 376.5958,94.21785 v 0 c 0,-7.853752 6.36673,-14.220474 14.22049,-14.220474 v 0 c 3.77148,0 7.38852,1.498222 10.05539,4.165077 2.66684,2.666855 4.16507,6.28389 4.16507,10.055397 v 0 c 0,7.85374 -6.36673,14.22047 -14.22046,14.22047 v 0 c -7.85376,0 -14.22049,-6.36673 -14.22049,-14.22047 z"
       fill-rule="evenodd"
       id="path177" />
    <path
       fill="#eeeeee"
       d="m 424.67453,150.77428 v 0 c 0,-7.85374 6.36673,-14.22047 14.22049,-14.22047 v 0 c 3.77148,0 7.38852,1.49823 10.05539,4.16508 2.66684,2.66686 4.16507,6.28389 4.16507,10.05539 v 0 c 0,7.85374 -6.36673,14.22047 -14.22046,14.22047 v 0 c -7.85376,0 -14.22049,-6.36673 -14.22049,-14.22047 z"
       fill-rule="evenodd"
       id="path179" />
    <path
       stroke="#595959"
       stroke-width="1"
       stroke-linejoin="round"
       stroke-linecap="butt"
       d="m 424.67453,150.77428 v 0 c 0,-7.85374 6.36673,-14.22047 14.22049,-14.22047 v 0 c 3.77148,0 7.38852,1.49823 10.05539,4.16508 2.66684,2.66686 4.16507,6.28389 4.16507,10.05539 v 0 c 0,7.85374 -6.36673,14.22047 -14.22046,14.22047 v 0 c -7.85376,0 -14.22049,-6.36673 -14.22049,-14.22047 z"
       fill-rule="evenodd"
       id="path181" />
    <path
       fill="#eeeeee"
       d="m 172.76903,126.82153 v 0 c 0,-5.375 4.3573,-9.73229 9.73228,-9.73229 v 0 c 2.58117,0 5.05661,1.02536 6.88176,2.85052 1.82517,1.82516 2.85053,4.3006 2.85053,6.88177 v 0 c 0,5.37499 -4.3573,9.73227 -9.73229,9.73227 v 0 c -5.37498,0 -9.73228,-4.35728 -9.73228,-9.73227 z"
       fill-rule="evenodd"
       id="path183" />
    <path
       stroke="#595959"
       stroke-width="1"
       stroke-linejoin="round"
       stroke-linecap="butt"
       d="m 172.76903,126.82153 v 0 c 0,-5.375 4.3573,-9.73229 9.73228,-9.73229 v 0 c 2.58117,0 5.05661,1.02536 6.88176,2.85052 1.82517,1.82516 2.85053,4.3006 2.85053,6.88177 v 0 c 0,5.37499 -4.3573,9.73227 -9.73229,9.73227 v 0 c -5.37498,0 -9.73228,-4.35728 -9.73228,-9.73227 z"
       fill-rule="evenodd"
       id="path185" />
    <path
       fill="#eeeeee"
       d="m 204.76903,86.86352 v 0 c 0,-5.374992 4.3573,-9.732285 9.73228,-9.732285 v 0 c 2.58117,0 5.05661,1.02536 6.88176,2.850517 1.82517,1.825157 2.85053,4.300606 2.85053,6.881768 v 0 c 0,5.374992 -4.3573,9.732285 -9.73229,9.732285 v 0 c -5.37498,0 -9.73228,-4.357292 -9.73228,-9.732285 z"
       fill-rule="evenodd"
       id="path187" />
    <path
       stroke="#595959"
       stroke-width="1"
       stroke-linejoin="round"
       stroke-linecap="butt"
       d="m 204.76903,86.86352 v 0 c 0,-5.374992 4.3573,-9.732285 9.73228,-9.732285 v 0 c 2.58117,0 5.05661,1.02536 6.88176,2.850517 1.82517,1.825157 2.85053,4.300606 2.85053,6.881768 v 0 c 0,5.374992 -4.3573,9.732285 -9.73229,9.732285 v 0 c -5.37498,0 -9.73228,-4.357292 -9.73228,-9.732285 z"
       fill-rule="evenodd"
       id="path189" />
    <path
       fill="#eeeeee"
       d="m 185.30446,58.947506 v 0 c 0,-5.374992 4.3573,-9.732285 9.73228,-9.732285 v 0 c 2.58117,0 5.05661,1.025364 6.88176,2.850521 1.82517,1.825157 2.85053,4.300602 2.85053,6.881763 v 0 c 0,5.374989 -4.35728,9.732282 -9.73229,9.732282 v 0 c -5.37498,0 -9.73228,-4.357292 -9.73228,-9.732281 z"
       fill-rule="evenodd"
       id="path191" />
    <path
       stroke="#595959"
       stroke-width="1"
       stroke-linejoin="round"
       stroke-linecap="butt"
       d="m 185.30446,58.947506 v 0 c 0,-5.374992 4.3573,-9.732285 9.73228,-9.732285 v 0 c 2.58117,0 5.05661,1.025364 6.88176,2.850521 1.82517,1.825157 2.85053,4.300602 2.85053,6.881763 v 0 c 0,5.374989 -4.35728,9.732282 -9.73229,9.732282 v 0 c -5.37498,0 -9.73228,-4.357292 -9.73228,-9.732281 z"
       fill-rule="evenodd"
       id="path193" />
    <path
       fill="#eeeeee"
       d="m 165.83989,82.37533 v 0 c 0,-5.374992 4.3573,-9.732285 9.73228,-9.732285 v 0 c 2.58117,0 5.05661,1.02536 6.88178,2.850517 1.82515,1.825158 2.85051,4.300606 2.85051,6.881768 v 0 c 0,5.374992 -4.35728,9.732285 -9.73229,9.732285 v 0 c -5.37498,0 -9.73228,-4.357292 -9.73228,-9.732285 z"
       fill-rule="evenodd"
       id="path195" />
    <path
       stroke="#595959"
       stroke-width="1"
       stroke-linejoin="round"
       stroke-linecap="butt"
       d="m 165.83989,82.37533 v 0 c 0,-5.374992 4.3573,-9.732285 9.73228,-9.732285 v 0 c 2.58117,0 5.05661,1.02536 6.88178,2.850517 1.82515,1.825158 2.85051,4.300606 2.85051,6.881768 v 0 c 0,5.374992 -4.35728,9.732285 -9.73229,9.732285 v 0 c -5.37498,0 -9.73228,-4.357292 -9.73228,-9.732285 z"
       fill-rule="evenodd"
       id="path197" />
    <path
       fill="#eeeeee"
       d="m 201.74278,222.36482 v 0 c 0,-5.37498 4.35728,-9.73227 9.73228,-9.73227 v 0 c 2.58117,0 5.05661,1.02536 6.88176,2.85051 1.82517,1.82517 2.85053,4.3006 2.85053,6.88176 v 0 c 0,5.375 -4.3573,9.73229 -9.73229,9.73229 v 0 c -5.375,0 -9.73228,-4.35729 -9.73228,-9.73229 z"
       fill-rule="evenodd"
       id="path199" />
    <path
       stroke="#595959"
       stroke-width="1"
       stroke-linejoin="round"
       stroke-linecap="butt"
       d="m 201.74278,222.36482 v 0 c 0,-5.37498 4.35728,-9.73227 9.73228,-9.73227 v 0 c 2.58117,0 5.05661,1.02536 6.88176,2.85051 1.82517,1.82517 2.85053,4.3006 2.85053,6.88176 v 0 c 0,5.375 -4.3573,9.73229 -9.73229,9.73229 v 0 c -5.375,0 -9.73228,-4.35729 -9.73228,-9.73229 z"
       fill-rule="evenodd"
       id="path201" />
    <path
       fill="#eeeeee"
       d="m 235.03674,222.36482 v 0 c 0,-5.37498 4.3573,-9.73227 9.73228,-9.73227 v 0 c 2.58117,0 5.05661,1.02536 6.88176,2.85051 1.82517,1.82517 2.85053,4.3006 2.85053,6.88176 v 0 c 0,5.375 -4.35728,9.73229 -9.73229,9.73229 v 0 c -5.37498,0 -9.73228,-4.35729 -9.73228,-9.73229 z"
       fill-rule="evenodd"
       id="path203" />
    <path
       stroke="#595959"
       stroke-width="1"
       stroke-linejoin="round"
       stroke-linecap="butt"
       d="m 235.03674,222.36482 v 0 c 0,-5.37498 4.3573,-9.73227 9.73228,-9.73227 v 0 c 2.58117,0 5.05661,1.02536 6.88176,2.85051 1.82517,1.82517 2.85053,4.3006 2.85053,6.88176 v 0 c 0,5.375 -4.35728,9.73229 -9.73229,9.73229 v 0 c -5.37498,0 -9.73228,-4.35729 -9.73228,-9.73229 z"
       fill-rule="evenodd"
       id="path205" />
    <path
       fill="#eeeeee"
       d="m 268.33072,222.36482 v 0 c 0,-5.37498 4.35727,-9.73227 9.73227,-9.73227 v 0 c 2.58118,0 5.05661,1.02536 6.88177,2.85051 1.82517,1.82517 2.85053,4.3006 2.85053,6.88176 v 0 c 0,5.375 -4.3573,9.73229 -9.7323,9.73229 v 0 c -5.375,0 -9.73227,-4.35729 -9.73227,-9.73229 z"
       fill-rule="evenodd"
       id="path207" />
    <path
       stroke="#595959"
       stroke-width="1"
       stroke-linejoin="round"
       stroke-linecap="butt"
       d="m 268.33072,222.36482 v 0 c 0,-5.37498 4.35727,-9.73227 9.73227,-9.73227 v 0 c 2.58118,0 5.05661,1.02536 6.88177,2.85051 1.82517,1.82517 2.85053,4.3006 2.85053,6.88176 v 0 c 0,5.375 -4.3573,9.73229 -9.7323,9.73229 v 0 c -5.375,0 -9.73227,-4.35729 -9.73227,-9.73229 z"
       fill-rule="evenodd"
       id="path209" />
    <path
       fill="#eeeeee"
       d="m 224.2336,264.24408 v 0 c 0,-5.37497 4.35728,-9.73227 9.73228,-9.73227 v 0 c 2.58117,0 5.05661,1.02536 6.88176,2.85053 1.82517,1.82516 2.85053,4.30059 2.85053,6.88174 v 0 c 0,5.375 -4.3573,9.7323 -9.73229,9.7323 v 0 c -5.375,0 -9.73228,-4.3573 -9.73228,-9.7323 z"
       fill-rule="evenodd"
       id="path211" />
    <path
       stroke="#595959"
       stroke-width="1"
       stroke-linejoin="round"
       stroke-linecap="butt"
       d="m 224.2336,264.24408 v 0 c 0,-5.37497 4.35728,-9.73227 9.73228,-9.73227 v 0 c 2.58117,0 5.05661,1.02536 6.88176,2.85053 1.82517,1.82516 2.85053,4.30059 2.85053,6.88174 v 0 c 0,5.375 -4.3573,9.7323 -9.73229,9.7323 v 0 c -5.375,0 -9.73228,-4.3573 -9.73228,-9.7323 z"
       fill-rule="evenodd"
       id="path213" />
    <path
       fill="#eeeeee"
       d="m 257.84778,264.24408 v 0 c 0,-5.37497 4.35727,-9.73227 9.73227,-9.73227 v 0 c 2.58118,0 5.05661,1.02536 6.88177,2.85053 1.82517,1.82516 2.85053,4.30059 2.85053,6.88174 v 0 c 0,5.375 -4.3573,9.7323 -9.7323,9.7323 v 0 c -5.375,0 -9.73227,-4.3573 -9.73227,-9.7323 z"
       fill-rule="evenodd"
       id="path215" />
    <path
       stroke="#595959"
       stroke-width="1"
       stroke-linejoin="round"
       stroke-linecap="butt"
       d="m 257.84778,264.24408 v 0 c 0,-5.37497 4.35727,-9.73227 9.73227,-9.73227 v 0 c 2.58118,0 5.05661,1.02536 6.88177,2.85053 1.82517,1.82516 2.85053,4.30059 2.85053,6.88174 v 0 c 0,5.375 -4.3573,9.7323 -9.7323,9.7323 v 0 c -5.375,0 -9.73227,-4.3573 -9.73227,-9.7323 z"
       fill-rule="evenodd"
       id="path217" />
    <path
       fill="#eeeeee"
       d="m 295.5538,255.68767 v 0 c 0,-5.375 4.3573,-9.73229 9.7323,-9.73229 v 0 c 2.58115,0 5.05658,1.02537 6.88174,2.85051 1.82517,1.82517 2.85053,4.30062 2.85053,6.88178 v 0 c 0,5.37498 -4.3573,9.73228 -9.73227,9.73228 v 0 c -5.375,0 -9.7323,-4.3573 -9.7323,-9.73228 z"
       fill-rule="evenodd"
       id="path219" />
    <path
       stroke="#595959"
       stroke-width="1"
       stroke-linejoin="round"
       stroke-linecap="butt"
       d="m 295.5538,255.68767 v 0 c 0,-5.375 4.3573,-9.73229 9.7323,-9.73229 v 0 c 2.58115,0 5.05658,1.02537 6.88174,2.85051 1.82517,1.82517 2.85053,4.30062 2.85053,6.88178 v 0 c 0,5.37498 -4.3573,9.73228 -9.73227,9.73228 v 0 c -5.375,0 -9.7323,-4.3573 -9.7323,-9.73228 z"
       fill-rule="evenodd"
       id="path221" />
    <path
       fill="#eeeeee"
       d="m 333.25986,244.77953 v 0 c 0,-5.37498 4.35727,-9.73229 9.73227,-9.73229 v 0 c 2.58118,0 5.05661,1.02537 6.88177,2.85053 1.82514,1.82515 2.8505,4.3006 2.8505,6.88176 v 0 c 0,5.375 -4.35727,9.73228 -9.73227,9.73228 v 0 c -5.375,0 -9.73227,-4.35728 -9.73227,-9.73228 z"
       fill-rule="evenodd"
       id="path223" />
    <path
       stroke="#595959"
       stroke-width="1"
       stroke-linejoin="round"
       stroke-linecap="butt"
       d="m 333.25986,244.77953 v 0 c 0,-5.37498 4.35727,-9.73229 9.73227,-9.73229 v 0 c 2.58118,0 5.05661,1.02537 6.88177,2.85053 1.82514,1.82515 2.8505,4.3006 2.8505,6.88176 v 0 c 0,5.375 -4.35727,9.73228 -9.73227,9.73228 v 0 c -5.375,0 -9.73227,-4.35728 -9.73227,-9.73228 z"
       fill-rule="evenodd"
       id="path225" />
    <path
       fill="#eeeeee"
       d="m 327.2966,272.71652 v 0 c 0,-5.37497 4.35727,-9.73227 9.73227,-9.73227 v 0 c 2.58118,0 5.05661,1.02536 6.88177,2.85053 1.82514,1.82516 2.85053,4.30059 2.85053,6.88174 v 0 c 0,5.375 -4.3573,9.7323 -9.7323,9.7323 v 0 c -5.375,0 -9.73227,-4.3573 -9.73227,-9.7323 z"
       fill-rule="evenodd"
       id="path227" />
    <path
       stroke="#595959"
       stroke-width="1"
       stroke-linejoin="round"
       stroke-linecap="butt"
       d="m 327.2966,272.71652 v 0 c 0,-5.37497 4.35727,-9.73227 9.73227,-9.73227 v 0 c 2.58118,0 5.05661,1.02536 6.88177,2.85053 1.82514,1.82516 2.85053,4.30059 2.85053,6.88174 v 0 c 0,5.375 -4.3573,9.7323 -9.7323,9.7323 v 0 c -5.375,0 -9.73227,-4.3573 -9.73227,-9.7323 z"
       fill-rule="evenodd"
       id="path229" />
    <path
       fill="#eeeeee"
       d="m 352.7244,270 v 0 c 0,-5.375 4.3573,-9.73227 9.7323,-9.73227 v 0 c 2.58115,0 5.05661,1.02536 6.88178,2.8505 1.82513,1.82516 2.85049,4.30059 2.85049,6.88177 v 0 c 0,5.375 -4.35727,9.73227 -9.73227,9.73227 v 0 c -5.375,0 -9.7323,-4.35727 -9.7323,-9.73227 z"
       fill-rule="evenodd"
       id="path231" />
    <path
       stroke="#595959"
       stroke-width="1"
       stroke-linejoin="round"
       stroke-linecap="butt"
       d="m 352.7244,270 v 0 c 0,-5.375 4.3573,-9.73227 9.7323,-9.73227 v 0 c 2.58115,0 5.05661,1.02536 6.88178,2.8505 1.82513,1.82516 2.85049,4.30059 2.85049,6.88177 v 0 c 0,5.375 -4.35727,9.73227 -9.73227,9.73227 v 0 c -5.375,0 -9.7323,-4.35727 -9.7323,-9.73227 z"
       fill-rule="evenodd"
       id="path233" />
    <path
       fill="#eeeeee"
       d="m 505.24933,198.41208 v 0 c 0,-5.375 4.3573,-9.73228 9.7323,-9.73228 v 0 c 2.58118,0 5.05658,1.02536 6.88177,2.8505 1.82514,1.82517 2.85053,4.30062 2.85053,6.88178 v 0 c 0,5.37498 -4.3573,9.73228 -9.7323,9.73228 v 0 c -5.375,0 -9.7323,-4.3573 -9.7323,-9.73228 z"
       fill-rule="evenodd"
       id="path235" />
    <path
       stroke="#595959"
       stroke-width="1"
       stroke-linejoin="round"
       stroke-linecap="butt"
       d="m 505.24933,198.41208 v 0 c 0,-5.375 4.3573,-9.73228 9.7323,-9.73228 v 0 c 2.58118,0 5.05658,1.02536 6.88177,2.8505 1.82514,1.82517 2.85053,4.30062 2.85053,6.88178 v 0 c 0,5.37498 -4.3573,9.73228 -9.7323,9.73228 v 0 c -5.375,0 -9.7323,-4.3573 -9.7323,-9.73228 z"
       fill-rule="evenodd"
       id="path237" />
    <path
       fill="#eeeeee"
       d="m 480,222.36482 v 0 c 0,-5.37498 4.3573,-9.73227 9.73227,-9.73227 v 0 c 2.58118,0 5.05661,1.02536 6.88177,2.85051 1.82517,1.82517 2.85053,4.3006 2.85053,6.88176 v 0 c 0,5.375 -4.3573,9.73229 -9.7323,9.73229 v 0 c -5.37497,0 -9.73227,-4.35729 -9.73227,-9.73229 z"
       fill-rule="evenodd"
       id="path239" />
    <path
       stroke="#595959"
       stroke-width="1"
       stroke-linejoin="round"
       stroke-linecap="butt"
       d="m 480,222.36482 v 0 c 0,-5.37498 4.3573,-9.73227 9.73227,-9.73227 v 0 c 2.58118,0 5.05661,1.02536 6.88177,2.85051 1.82517,1.82517 2.85053,4.3006 2.85053,6.88176 v 0 c 0,5.375 -4.3573,9.73229 -9.7323,9.73229 v 0 c -5.37497,0 -9.73227,-4.35729 -9.73227,-9.73229 z"
       fill-rule="evenodd"
       id="path241" />
    <path
       fill="#eeeeee"
       d="m 474.29922,146.28609 v 0 c 0,-5.37498 4.35727,-9.73229 9.73227,-9.73229 v 0 c 2.58118,0 5.05661,1.02537 6.88177,2.85053 1.82514,1.82515 2.85053,4.3006 2.85053,6.88176 v 0 c 0,5.375 -4.3573,9.73228 -9.7323,9.73228 v 0 c -5.375,0 -9.73227,-4.35728 -9.73227,-9.73228 z"
       fill-rule="evenodd"
       id="path243" />
    <path
       stroke="#595959"
       stroke-width="1"
       stroke-linejoin="round"
       stroke-linecap="butt"
       d="m 474.29922,146.28609 v 0 c 0,-5.37498 4.35727,-9.73229 9.73227,-9.73229 v 0 c 2.58118,0 5.05661,1.02537 6.88177,2.85053 1.82514,1.82515 2.85053,4.3006 2.85053,6.88176 v 0 c 0,5.375 -4.3573,9.73228 -9.7323,9.73228 v 0 c -5.375,0 -9.73227,-4.35728 -9.73227,-9.73228 z"
       fill-rule="evenodd"
       id="path245" />
    <path
       fill="#eeeeee"
       d="m 460.53543,178.26772 v 0 c 0,-5.37498 4.3573,-9.73229 9.7323,-9.73229 v 0 c 2.58115,0 5.05658,1.02537 6.88174,2.85053 1.82517,1.82515 2.85053,4.3006 2.85053,6.88176 v 0 c 0,5.375 -4.3573,9.73228 -9.73227,9.73228 v 0 c -5.375,0 -9.7323,-4.35728 -9.7323,-9.73228 z"
       fill-rule="evenodd"
       id="path247" />
    <path
       stroke="#595959"
       stroke-width="1"
       stroke-linejoin="round"
       stroke-linecap="butt"
       d="m 460.53543,178.26772 v 0 c 0,-5.37498 4.3573,-9.73229 9.7323,-9.73229 v 0 c 2.58115,0 5.05658,1.02537 6.88174,2.85053 1.82517,1.82515 2.85053,4.3006 2.85053,6.88176 v 0 c 0,5.375 -4.3573,9.73228 -9.73227,9.73228 v 0 c -5.375,0 -9.7323,-4.35728 -9.7323,-9.73228 z"
       fill-rule="evenodd"
       id="path249" />
    <path
       fill="#eeeeee"
       d="m 401.48032,58.947506 v 0 c 0,-5.374992 4.3573,-9.732285 9.73227,-9.732285 v 0 c 2.58118,0 5.05661,1.025364 6.88177,2.850521 1.82517,1.825157 2.85053,4.300602 2.85053,6.881763 v 0 c 0,5.374989 -4.3573,9.732282 -9.7323,9.732282 v 0 c -5.37497,0 -9.73227,-4.357292 -9.73227,-9.732281 z"
       fill-rule="evenodd"
       id="path251" />
    <path
       stroke="#595959"
       stroke-width="1"
       stroke-linejoin="round"
       stroke-linecap="butt"
       d="m 401.48032,58.947506 v 0 c 0,-5.374992 4.3573,-9.732285 9.73227,-9.732285 v 0 c 2.58118,0 5.05661,1.025364 6.88177,2.850521 1.82517,1.825157 2.85053,4.300602 2.85053,6.881763 v 0 c 0,5.374989 -4.3573,9.732282 -9.7323,9.732282 v 0 c -5.37497,0 -9.73227,-4.357292 -9.73227,-9.732281 z"
       fill-rule="evenodd"
       id="path253" />
    <path
       fill="#eeeeee"
       d="m 429.16272,82.37533 v 0 c 0,-5.374992 4.3573,-9.732285 9.7323,-9.732285 v 0 c 2.58115,0 5.05661,1.02536 6.88174,2.850517 1.82517,1.825158 2.85053,4.300606 2.85053,6.881768 v 0 c 0,5.374992 -4.35727,9.732285 -9.73227,9.732285 v 0 c -5.375,0 -9.7323,-4.357292 -9.7323,-9.732285 z"
       fill-rule="evenodd"
       id="path255" />
    <path
       stroke="#595959"
       stroke-width="1"
       stroke-linejoin="round"
       stroke-linecap="butt"
       d="m 429.16272,82.37533 v 0 c 0,-5.374992 4.3573,-9.732285 9.7323,-9.732285 v 0 c 2.58115,0 5.05661,1.02536 6.88174,2.850517 1.82517,1.825158 2.85053,4.300606 2.85053,6.881768 v 0 c 0,5.374992 -4.35727,9.732285 -9.73227,9.732285 v 0 c -5.375,0 -9.7323,-4.357292 -9.7323,-9.732285 z"
       fill-rule="evenodd"
       id="path257" />
    <path
       fill="#eeeeee"
       d="m 323.91864,53.15223 v 0 c 0,-5.374989 4.3573,-9.732281 9.73227,-9.732281 v 0 c 2.58118,0 5.05661,1.02536 6.88177,2.850517 1.82517,1.825158 2.85053,4.300602 2.85053,6.881764 v 0 c 0,5.374992 -4.3573,9.732285 -9.7323,9.732285 v 0 c -5.37497,0 -9.73227,-4.357292 -9.73227,-9.732285 z"
       fill-rule="evenodd"
       id="path259" />
    <path
       stroke="#595959"
       stroke-width="1"
       stroke-linejoin="round"
       stroke-linecap="butt"
       d="m 323.91864,53.15223 v 0 c 0,-5.374989 4.3573,-9.732281 9.73227,-9.732281 v 0 c 2.58118,0 5.05661,1.02536 6.88177,2.850517 1.82517,1.825158 2.85053,4.300602 2.85053,6.881764 v 0 c 0,5.374992 -4.3573,9.732285 -9.7323,9.732285 v 0 c -5.37497,0 -9.73227,-4.357292 -9.73227,-9.732285 z"
       fill-rule="evenodd"
       id="path261" />
    <path
       fill="#eeeeee"
       d="m 502.7454,255.68767 v 0 c 0,-5.375 4.3573,-9.73229 9.73227,-9.73229 v 0 c 2.58118,0 5.05664,1.02537 6.88177,2.85051 1.8252,1.82517 2.85053,4.30062 2.85053,6.88178 v 0 c 0,5.37498 -4.3573,9.73228 -9.7323,9.73228 v 0 c -5.37497,0 -9.73227,-4.3573 -9.73227,-9.73228 z"
       fill-rule="evenodd"
       id="path263" />
    <path
       stroke="#595959"
       stroke-width="1"
       stroke-linejoin="round"
       stroke-linecap="butt"
       d="m 502.7454,255.68767 v 0 c 0,-5.375 4.3573,-9.73229 9.73227,-9.73229 v 0 c 2.58118,0 5.05664,1.02537 6.88177,2.85051 1.8252,1.82517 2.85053,4.30062 2.85053,6.88178 v 0 c 0,5.37498 -4.3573,9.73228 -9.7323,9.73228 v 0 c -5.37497,0 -9.73227,-4.3573 -9.73227,-9.73228 z"
       fill-rule="evenodd"
       id="path265" />
    <path
       fill="#eeeeee"
       d="m 387.77692,241.82939 v 0 c 0,-5.37498 4.35727,-9.73229 9.73227,-9.73229 v 0 c 2.58118,0 5.05661,1.02538 6.88177,2.85053 1.82514,1.82516 2.8505,4.3006 2.8505,6.88176 v 0 c 0,5.375 -4.35727,9.73228 -9.73227,9.73228 v 0 c -5.375,0 -9.73227,-4.35728 -9.73227,-9.73228 z"
       fill-rule="evenodd"
       id="path267" />
    <path
       stroke="#595959"
       stroke-width="1"
       stroke-linejoin="round"
       stroke-linecap="butt"
       d="m 387.77692,241.82939 v 0 c 0,-5.37498 4.35727,-9.73229 9.73227,-9.73229 v 0 c 2.58118,0 5.05661,1.02538 6.88177,2.85053 1.82514,1.82516 2.8505,4.3006 2.8505,6.88176 v 0 c 0,5.375 -4.35727,9.73228 -9.73227,9.73228 v 0 c -5.375,0 -9.73227,-4.35728 -9.73227,-9.73228 z"
       fill-rule="evenodd"
       id="path269" />
    <path
       fill="#eeeeee"
       d="m 424.67453,231.89764 v 0 c 0,-5.375 4.3573,-9.73229 9.7323,-9.73229 v 0 c 2.58115,0 5.05661,1.02537 6.88174,2.85051 1.82517,1.82517 2.85053,4.30062 2.85053,6.88178 v 0 c 0,5.37498 -4.35727,9.73228 -9.73227,9.73228 v 0 c -5.375,0 -9.7323,-4.3573 -9.7323,-9.73228 z"
       fill-rule="evenodd"
       id="path271" />
    <path
       stroke="#595959"
       stroke-width="1"
       stroke-linejoin="round"
       stroke-linecap="butt"
       d="m 424.67453,231.89764 v 0 c 0,-5.375 4.3573,-9.73229 9.7323,-9.73229 v 0 c 2.58115,0 5.05661,1.02537 6.88174,2.85051 1.82517,1.82517 2.85053,4.30062 2.85053,6.88178 v 0 c 0,5.37498 -4.35727,9.73228 -9.73227,9.73228 v 0 c -5.375,0 -9.7323,-4.3573 -9.7323,-9.73228 z"
       fill-rule="evenodd"
       id="path273" />
  </g>
</svg>
