<?xml version="1.0" encoding="UTF-8" standalone="no"?>
<svg
   version="1.1"
   viewBox="0 0 359.87405 240.02887"
   fill="none"
   stroke="none"
   stroke-linecap="square"
   stroke-miterlimit="10"
   id="svg265"
   sodipodi:docname="Untitled presentation.svg"
   width="359.87405"
   height="240.02887"
   inkscape:version="1.2.2 (b0a8486541, 2022-12-01)"
   xmlns:inkscape="http://www.inkscape.org/namespaces/inkscape"
   xmlns:sodipodi="http://sodipodi.sourceforge.net/DTD/sodipodi-0.dtd"
   xmlns="http://www.w3.org/2000/svg"
   xmlns:svg="http://www.w3.org/2000/svg">
  <defs
     id="defs269" />
  <sodipodi:namedview
     id="namedview267"
     pagecolor="#ffffff"
     bordercolor="#000000"
     borderopacity="0.25"
     inkscape:showpageshadow="2"
     inkscape:pageopacity="0.0"
     inkscape:pagecheckerboard="0"
     inkscape:deskcolor="#d1d1d1"
     showgrid="false"
     inkscape:zoom="1.5140516"
     inkscape:cx="424.68829"
     inkscape:cy="71.001541"
     inkscape:window-width="2256"
     inkscape:window-height="1369"
     inkscape:window-x="0"
     inkscape:window-y="0"
     inkscape:window-maximized="1"
     inkscape:current-layer="g263" />
  <clipPath
     id="p.0">
    <path
       d="M 0,0 H 960 V 540 H 0 Z"
       clip-rule="nonzero"
       id="path2" />
  </clipPath>
  <g
     clip-path="url(#p.0)"
     id="g263"
     transform="translate(-133.79072,-10.760496)">
    <g
       id="g423"
       transform="translate(-31.549171,-32.159453)">
      <path
         fill="#000000"
         fill-opacity="0"
         d="M 255.2126,183.39896 243.24409,118.1706"
         fill-rule="evenodd"
         id="path7" />
      <path
         stroke="#000000"
         stroke-width="3"
         stroke-linejoin="round"
         stroke-linecap="butt"
         d="M 255.2126,183.39896 243.24409,118.1706"
         fill-rule="evenodd"
         id="path9" />
      <path
         fill="#000000"
         fill-opacity="0"
         d="m 313.51443,86.87139 -70.26772,28.97638"
         fill-rule="evenodd"
         id="path11" />
      <path
         stroke="#000000"
         stroke-width="3"
         stroke-linejoin="round"
         stroke-linecap="butt"
         d="m 313.51443,86.87139 -70.26772,28.97638"
         fill-rule="evenodd"
         id="path13" />
      <path
         fill="#000000"
         fill-opacity="0"
         d="M 390.34647,94.5958 313.1496,86.847768"
         fill-rule="evenodd"
         id="path15" />
      <path
         stroke="#000000"
         stroke-width="3"
         stroke-linejoin="round"
         stroke-linecap="butt"
         d="M 390.34647,94.5958 313.1496,86.847768"
         fill-rule="evenodd"
         id="path17" />
      <path
         fill="#000000"
         fill-opacity="0"
         d="M 437.83728,150.96588 391.50656,94.209975"
         fill-rule="evenodd"
         id="path19" />
      <path
         stroke="#000000"
         stroke-width="3"
         stroke-linejoin="round"
         stroke-linecap="butt"
         d="M 437.83728,150.96588 391.50656,94.209975"
         fill-rule="evenodd"
         id="path21" />
      <path
         fill="#000000"
         fill-opacity="0"
         d="M 321.2362,203.86089 255.22047,183.76641"
         fill-rule="evenodd"
         id="path23" />
      <path
         stroke="#000000"
         stroke-width="3"
         stroke-linejoin="round"
         stroke-linecap="butt"
         d="M 321.2362,203.86089 255.22047,183.76641"
         fill-rule="evenodd"
         id="path25" />
      <path
         fill="#000000"
         fill-opacity="0"
         d="m 394.20734,200.77165 -71.811,2.29921"
         fill-rule="evenodd"
         id="path27" />
      <path
         stroke="#000000"
         stroke-width="3"
         stroke-linejoin="round"
         stroke-linecap="butt"
         d="m 394.20734,200.77165 -71.811,2.29921"
         fill-rule="evenodd"
         id="path29" />
      <path
         fill="#000000"
         fill-opacity="0"
         d="m 394.20734,201.5433 45.57483,-51.74803"
         fill-rule="evenodd"
         id="path31" />
      <path
         stroke="#000000"
         stroke-width="3"
         stroke-linejoin="round"
         stroke-linecap="butt"
         d="m 394.20734,201.5433 45.57483,-51.74803"
         fill-rule="evenodd"
         id="path33" />
      <path
         fill="#000000"
         fill-opacity="0"
         d="M 249.55655,124.55393 213.24159,87.703535"
         fill-rule="evenodd"
         id="path35" />
      <path
         stroke="#595959"
         stroke-width="1"
         stroke-linejoin="round"
         stroke-linecap="butt"
         d="M 249.55655,124.55393 213.24159,87.703535"
         fill-rule="evenodd"
         id="path37" />
      <path
         fill="#000000"
         fill-opacity="0"
         d="m 244.7874,116.9895 -63.33858,10.42519"
         fill-rule="evenodd"
         id="path39" />
      <path
         stroke="#595959"
         stroke-width="1"
         stroke-linejoin="round"
         stroke-linecap="butt"
         d="m 244.7874,116.9895 -63.33858,10.42519"
         fill-rule="evenodd"
         id="path41" />
      <path
         fill="#000000"
         fill-opacity="0"
         d="M 214.67192,87.64567 176.05774,81.472445"
         fill-rule="evenodd"
         id="path43" />
      <path
         stroke="#595959"
         stroke-width="1"
         stroke-linejoin="round"
         stroke-linecap="butt"
         d="M 214.67192,87.64567 176.05774,81.472445"
         fill-rule="evenodd"
         id="path45" />
      <path
         fill="#000000"
         fill-opacity="0"
         d="M 213.51443,88.41732 195.37269,59.472442"
         fill-rule="evenodd"
         id="path47" />
      <path
         stroke="#595959"
         stroke-width="1"
         stroke-linejoin="round"
         stroke-linecap="butt"
         d="M 213.51443,88.41732 195.37269,59.472442"
         fill-rule="evenodd"
         id="path49" />
      <path
         fill="#000000"
         fill-opacity="0"
         d="M 333.97638,54.82677 312.2756,87.645667"
         fill-rule="evenodd"
         id="path51" />
      <path
         stroke="#595959"
         stroke-width="1"
         stroke-linejoin="round"
         stroke-linecap="butt"
         d="M 333.97638,54.82677 312.2756,87.645667"
         fill-rule="evenodd"
         id="path53" />
      <path
         fill="#000000"
         fill-opacity="0"
         d="M 410.03937,59.459316 390.00788,95.616798"
         fill-rule="evenodd"
         id="path55" />
      <path
         stroke="#595959"
         stroke-width="1"
         stroke-linejoin="round"
         stroke-linecap="butt"
         d="M 410.03937,59.459316 390.00788,95.616798"
         fill-rule="evenodd"
         id="path57" />
      <path
         fill="#000000"
         fill-opacity="0"
         d="M 389.5748,94.5958 439.37009,83.005247"
         fill-rule="evenodd"
         id="path59" />
      <path
         stroke="#595959"
         stroke-width="1"
         stroke-linejoin="round"
         stroke-linecap="butt"
         d="M 389.5748,94.5958 439.37009,83.005247"
         fill-rule="evenodd"
         id="path61" />
      <path
         fill="#000000"
         fill-opacity="0"
         d="m 336.29398,273.7454 3.77951,-29.79526"
         fill-rule="evenodd"
         id="path63" />
      <path
         stroke="#595959"
         stroke-width="1"
         stroke-linejoin="round"
         stroke-linecap="butt"
         d="m 336.29398,273.7454 3.77951,-29.79526"
         fill-rule="evenodd"
         id="path65" />
      <path
         fill="#000000"
         fill-opacity="0"
         d="M 362.9344,271.81366 342.33598,245.04199"
         fill-rule="evenodd"
         id="path67" />
      <path
         stroke="#595959"
         stroke-width="1"
         stroke-linejoin="round"
         stroke-linecap="butt"
         d="M 362.9344,271.81366 342.33598,245.04199"
         fill-rule="evenodd"
         id="path69" />
      <path
         fill="#000000"
         fill-opacity="0"
         d="M 342.46982,246.71916 321.8714,203.16011"
         fill-rule="evenodd"
         id="path71" />
      <path
         stroke="#595959"
         stroke-width="1"
         stroke-linejoin="round"
         stroke-linecap="butt"
         d="M 342.46982,246.71916 321.8714,203.16011"
         fill-rule="evenodd"
         id="path73" />
      <path
         fill="#000000"
         fill-opacity="0"
         d="m 277.22046,223.16536 -18.70865,-41.6693"
         fill-rule="evenodd"
         id="path75" />
      <path
         stroke="#595959"
         stroke-width="1"
         stroke-linejoin="round"
         stroke-linecap="butt"
         d="m 277.22046,223.16536 -18.70865,-41.6693"
         fill-rule="evenodd"
         id="path77" />
      <path
         fill="#000000"
         fill-opacity="0"
         d="M 304.63254,256.75592 277.8924,222.99213"
         fill-rule="evenodd"
         id="path79" />
      <path
         stroke="#595959"
         stroke-width="1"
         stroke-linejoin="round"
         stroke-linecap="butt"
         d="M 304.63254,256.75592 277.8924,222.99213"
         fill-rule="evenodd"
         id="path81" />
      <path
         fill="#000000"
         fill-opacity="0"
         d="m 397.2966,242.85826 -3.49606,-44"
         fill-rule="evenodd"
         id="path83" />
      <path
         stroke="#595959"
         stroke-width="1"
         stroke-linejoin="round"
         stroke-linecap="butt"
         d="m 397.2966,242.85826 -3.49606,-44"
         fill-rule="evenodd"
         id="path85" />
      <path
         fill="#000000"
         fill-opacity="0"
         d="M 434.74802,232.04724 393.83466,198.06299"
         fill-rule="evenodd"
         id="path87" />
      <path
         stroke="#595959"
         stroke-width="1"
         stroke-linejoin="round"
         stroke-linecap="butt"
         d="M 434.74802,232.04724 393.83466,198.06299"
         fill-rule="evenodd"
         id="path89" />
      <path
         fill="#000000"
         fill-opacity="0"
         d="M 471.042,179.14961 437.15223,150.92914"
         fill-rule="evenodd"
         id="path91" />
      <path
         stroke="#595959"
         stroke-width="1"
         stroke-linejoin="round"
         stroke-linecap="butt"
         d="M 471.042,179.14961 437.15223,150.92914"
         fill-rule="evenodd"
         id="path93" />
      <path
         fill="#000000"
         fill-opacity="0"
         d="m 483.39896,146.71916 -46.23624,4.22047"
         fill-rule="evenodd"
         id="path95" />
      <path
         stroke="#595959"
         stroke-width="1"
         stroke-linejoin="round"
         stroke-linecap="butt"
         d="m 483.39896,146.71916 -46.23624,4.22047"
         fill-rule="evenodd"
         id="path97" />
      <path
         fill="#000000"
         fill-opacity="0"
         d="M 490.34647,221.62204 468.86615,176.74016"
         fill-rule="evenodd"
         id="path99" />
      <path
         stroke="#595959"
         stroke-width="1"
         stroke-linejoin="round"
         stroke-linecap="butt"
         d="M 490.34647,221.62204 468.86615,176.74016"
         fill-rule="evenodd"
         id="path101" />
      <path
         fill="#000000"
         fill-opacity="0"
         d="m 232.43307,264.86615 13.29134,-43.87402"
         fill-rule="evenodd"
         id="path103" />
      <path
         stroke="#595959"
         stroke-width="1"
         stroke-linejoin="round"
         stroke-linecap="butt"
         d="m 232.43307,264.86615 13.29134,-43.87402"
         fill-rule="evenodd"
         id="path105" />
      <path
         fill="#000000"
         fill-opacity="0"
         d="M 266.40945,265.25198 278.8189,223.92913"
         fill-rule="evenodd"
         id="path107" />
      <path
         stroke="#595959"
         stroke-width="1"
         stroke-linejoin="round"
         stroke-linecap="butt"
         d="M 266.40945,265.25198 278.8189,223.92913"
         fill-rule="evenodd"
         id="path109" />
      <path
         fill="#000000"
         fill-opacity="0"
         d="M 244.54855,224.26772 257.8399,180.39371"
         fill-rule="evenodd"
         id="path111" />
      <path
         stroke="#595959"
         stroke-width="1"
         stroke-linejoin="round"
         stroke-linecap="butt"
         d="M 244.54855,224.26772 257.8399,180.39371"
         fill-rule="evenodd"
         id="path113" />
      <path
         fill="#000000"
         fill-opacity="0"
         d="M 211.20341,224.26772 256.7467,181.46457"
         fill-rule="evenodd"
         id="path115" />
      <path
         stroke="#595959"
         stroke-width="1"
         stroke-linejoin="round"
         stroke-linecap="butt"
         d="M 211.20341,224.26772 256.7467,181.46457"
         fill-rule="evenodd"
         id="path117" />
      <path
         fill="#000000"
         fill-opacity="0"
         d="m 470.65616,178.76378 42.67715,20.15749"
         fill-rule="evenodd"
         id="path119" />
      <path
         stroke="#595959"
         stroke-width="1"
         stroke-linejoin="round"
         stroke-linecap="butt"
         d="m 470.65616,178.76378 42.67715,20.15749"
         fill-rule="evenodd"
         id="path121" />
      <path
         fill="#000000"
         fill-opacity="0"
         d="m 489.5748,223.16536 22.80313,33.19685"
         fill-rule="evenodd"
         id="path123" />
      <path
         stroke="#595959"
         stroke-width="1"
         stroke-linejoin="round"
         stroke-linecap="butt"
         d="m 489.5748,223.16536 22.80313,33.19685"
         fill-rule="evenodd"
         id="path125" />
      <path
         fill="#eeeeee"
         d="m 229.40683,115.30446 v 0 c 0,-7.85374 6.36671,-14.22047 14.22047,-14.22047 v 0 c 3.7715,0 7.38854,1.49823 10.05539,4.16508 2.66686,2.66685 4.16509,6.28389 4.16509,10.05539 v 0 c 0,7.85375 -6.36673,14.22047 -14.22048,14.22047 v 0 c -7.85376,0 -14.22047,-6.36672 -14.22047,-14.22047 z"
         fill-rule="evenodd"
         id="path127" />
      <path
         stroke="#595959"
         stroke-width="1"
         stroke-linejoin="round"
         stroke-linecap="butt"
         d="m 229.40683,115.30446 v 0 c 0,-7.85374 6.36671,-14.22047 14.22047,-14.22047 v 0 c 3.7715,0 7.38854,1.49823 10.05539,4.16508 2.66686,2.66685 4.16509,6.28389 4.16509,10.05539 v 0 c 0,7.85375 -6.36673,14.22047 -14.22048,14.22047 v 0 c -7.85376,0 -14.22047,-6.36672 -14.22047,-14.22047 z"
         fill-rule="evenodd"
         id="path129" />
      <path
         fill="#eeeeee"
         d="m 242.38058,182.7559 v 0 c 0,-7.85374 6.36671,-14.22047 14.22046,-14.22047 v 0 c 3.77151,0 7.38855,1.49823 10.05539,4.16508 2.66687,2.66686 4.1651,6.28389 4.1651,10.05539 v 0 c 0,7.85374 -6.36673,14.22047 -14.22049,14.22047 v 0 c -7.85375,0 -14.22046,-6.36673 -14.22046,-14.22047 z"
         fill-rule="evenodd"
         id="path131" />
      <path
         stroke="#595959"
         stroke-width="1"
         stroke-linejoin="round"
         stroke-linecap="butt"
         d="m 242.38058,182.7559 v 0 c 0,-7.85374 6.36671,-14.22047 14.22046,-14.22047 v 0 c 3.77151,0 7.38855,1.49823 10.05539,4.16508 2.66687,2.66686 4.1651,6.28389 4.1651,10.05539 v 0 c 0,7.85374 -6.36673,14.22047 -14.22049,14.22047 v 0 c -7.85375,0 -14.22046,-6.36673 -14.22046,-14.22047 z"
         fill-rule="evenodd"
         id="path133" />
      <path
         fill="#eeeeee"
         d="m 308.01575,204.2021 v 0 c 0,-7.85376 6.36673,-14.22047 14.22046,-14.22047 v 0 c 3.77151,0 7.38855,1.49823 10.05542,4.16508 2.66684,2.66686 4.16507,6.28389 4.16507,10.05539 v 0 c 0,7.85374 -6.36673,14.22047 -14.22049,14.22047 v 0 c -7.85373,0 -14.22046,-6.36673 -14.22046,-14.22047 z"
         fill-rule="evenodd"
         id="path135" />
      <path
         stroke="#595959"
         stroke-width="1"
         stroke-linejoin="round"
         stroke-linecap="butt"
         d="m 308.01575,204.2021 v 0 c 0,-7.85376 6.36673,-14.22047 14.22046,-14.22047 v 0 c 3.77151,0 7.38855,1.49823 10.05542,4.16508 2.66684,2.66686 4.16507,6.28389 4.16507,10.05539 v 0 c 0,7.85374 -6.36673,14.22047 -14.22049,14.22047 v 0 c -7.85373,0 -14.22046,-6.36673 -14.22046,-14.22047 z"
         fill-rule="evenodd"
         id="path137" />
      <path
         fill="#eeeeee"
         d="m 379.7034,198.41208 v 0 c 0,-7.85376 6.36673,-14.22047 14.22049,-14.22047 v 0 c 3.77148,0 7.38852,1.49821 10.05539,4.16507 2.66684,2.66687 4.16507,6.28389 4.16507,10.0554 v 0 c 0,7.85375 -6.3667,14.22047 -14.22046,14.22047 v 0 c -7.85376,0 -14.22049,-6.36673 -14.22049,-14.22047 z"
         fill-rule="evenodd"
         id="path139" />
      <path
         stroke="#595959"
         stroke-width="1"
         stroke-linejoin="round"
         stroke-linecap="butt"
         d="m 379.7034,198.41208 v 0 c 0,-7.85376 6.36673,-14.22047 14.22049,-14.22047 v 0 c 3.77148,0 7.38852,1.49821 10.05539,4.16507 2.66684,2.66687 4.16507,6.28389 4.16507,10.0554 v 0 c 0,7.85375 -6.3667,14.22047 -14.22046,14.22047 v 0 c -7.85376,0 -14.22049,-6.36673 -14.22049,-14.22047 z"
         fill-rule="evenodd"
         id="path141" />
      <path
         fill="#eeeeee"
         d="m 298.85565,86.86352 v 0 c 0,-7.853752 6.3667,-14.220474 14.22046,-14.220474 v 0 c 3.77151,0 7.38855,1.498222 10.05539,4.165085 2.66687,2.666855 4.1651,6.283882 4.1651,10.055389 v 0 c 0,7.853752 -6.36673,14.22047 -14.22049,14.22047 v 0 c -7.85376,0 -14.22046,-6.366718 -14.22046,-14.22047 z"
         fill-rule="evenodd"
         id="path143" />
      <path
         stroke="#595959"
         stroke-width="1"
         stroke-linejoin="round"
         stroke-linecap="butt"
         d="m 298.85565,86.86352 v 0 c 0,-7.853752 6.3667,-14.220474 14.22046,-14.220474 v 0 c 3.77151,0 7.38855,1.498222 10.05539,4.165085 2.66687,2.666855 4.1651,6.283882 4.1651,10.055389 v 0 c 0,7.853752 -6.36673,14.22047 -14.22049,14.22047 v 0 c -7.85376,0 -14.22046,-6.366718 -14.22046,-14.22047 z"
         fill-rule="evenodd"
         id="path145" />
      <path
         fill="#eeeeee"
         d="m 376.5958,94.21785 v 0 c 0,-7.853752 6.36673,-14.220474 14.22049,-14.220474 v 0 c 3.77148,0 7.38852,1.498222 10.05539,4.165077 2.66684,2.666855 4.16507,6.28389 4.16507,10.055397 v 0 c 0,7.85374 -6.36673,14.22047 -14.22046,14.22047 v 0 c -7.85376,0 -14.22049,-6.36673 -14.22049,-14.22047 z"
         fill-rule="evenodd"
         id="path147" />
      <path
         stroke="#595959"
         stroke-width="1"
         stroke-linejoin="round"
         stroke-linecap="butt"
         d="m 376.5958,94.21785 v 0 c 0,-7.853752 6.36673,-14.220474 14.22049,-14.220474 v 0 c 3.77148,0 7.38852,1.498222 10.05539,4.165077 2.66684,2.666855 4.16507,6.28389 4.16507,10.055397 v 0 c 0,7.85374 -6.36673,14.22047 -14.22046,14.22047 v 0 c -7.85376,0 -14.22049,-6.36673 -14.22049,-14.22047 z"
         fill-rule="evenodd"
         id="path149" />
      <path
         fill="#eeeeee"
         d="m 424.67453,150.77428 v 0 c 0,-7.85374 6.36673,-14.22047 14.22049,-14.22047 v 0 c 3.77148,0 7.38852,1.49823 10.05539,4.16508 2.66684,2.66686 4.16507,6.28389 4.16507,10.05539 v 0 c 0,7.85374 -6.36673,14.22047 -14.22046,14.22047 v 0 c -7.85376,0 -14.22049,-6.36673 -14.22049,-14.22047 z"
         fill-rule="evenodd"
         id="path151" />
      <path
         stroke="#595959"
         stroke-width="1"
         stroke-linejoin="round"
         stroke-linecap="butt"
         d="m 424.67453,150.77428 v 0 c 0,-7.85374 6.36673,-14.22047 14.22049,-14.22047 v 0 c 3.77148,0 7.38852,1.49823 10.05539,4.16508 2.66684,2.66686 4.16507,6.28389 4.16507,10.05539 v 0 c 0,7.85374 -6.36673,14.22047 -14.22046,14.22047 v 0 c -7.85376,0 -14.22049,-6.36673 -14.22049,-14.22047 z"
         fill-rule="evenodd"
         id="path153" />
      <path
         fill="#eeeeee"
         d="m 172.76903,126.82153 v 0 c 0,-5.375 4.3573,-9.73229 9.73228,-9.73229 v 0 c 2.58117,0 5.05661,1.02536 6.88176,2.85052 1.82517,1.82516 2.85053,4.3006 2.85053,6.88177 v 0 c 0,5.37499 -4.3573,9.73227 -9.73229,9.73227 v 0 c -5.37498,0 -9.73228,-4.35728 -9.73228,-9.73227 z"
         fill-rule="evenodd"
         id="path155" />
      <path
         stroke="#595959"
         stroke-width="1"
         stroke-linejoin="round"
         stroke-linecap="butt"
         d="m 172.76903,126.82153 v 0 c 0,-5.375 4.3573,-9.73229 9.73228,-9.73229 v 0 c 2.58117,0 5.05661,1.02536 6.88176,2.85052 1.82517,1.82516 2.85053,4.3006 2.85053,6.88177 v 0 c 0,5.37499 -4.3573,9.73227 -9.73229,9.73227 v 0 c -5.37498,0 -9.73228,-4.35728 -9.73228,-9.73227 z"
         fill-rule="evenodd"
         id="path157" />
      <path
         fill="#eeeeee"
         d="m 204.76903,86.86352 v 0 c 0,-5.374992 4.3573,-9.732285 9.73228,-9.732285 v 0 c 2.58117,0 5.05661,1.02536 6.88176,2.850517 1.82517,1.825157 2.85053,4.300606 2.85053,6.881768 v 0 c 0,5.374992 -4.3573,9.732285 -9.73229,9.732285 v 0 c -5.37498,0 -9.73228,-4.357292 -9.73228,-9.732285 z"
         fill-rule="evenodd"
         id="path159" />
      <path
         stroke="#595959"
         stroke-width="1"
         stroke-linejoin="round"
         stroke-linecap="butt"
         d="m 204.76903,86.86352 v 0 c 0,-5.374992 4.3573,-9.732285 9.73228,-9.732285 v 0 c 2.58117,0 5.05661,1.02536 6.88176,2.850517 1.82517,1.825157 2.85053,4.300606 2.85053,6.881768 v 0 c 0,5.374992 -4.3573,9.732285 -9.73229,9.732285 v 0 c -5.37498,0 -9.73228,-4.357292 -9.73228,-9.732285 z"
         fill-rule="evenodd"
         id="path161" />
      <path
         fill="#eeeeee"
         d="m 185.30446,58.947506 v 0 c 0,-5.374992 4.3573,-9.732285 9.73228,-9.732285 v 0 c 2.58117,0 5.05661,1.025364 6.88176,2.850521 1.82517,1.825157 2.85053,4.300602 2.85053,6.881763 v 0 c 0,5.374989 -4.35728,9.732282 -9.73229,9.732282 v 0 c -5.37498,0 -9.73228,-4.357292 -9.73228,-9.732281 z"
         fill-rule="evenodd"
         id="path163" />
      <path
         stroke="#595959"
         stroke-width="1"
         stroke-linejoin="round"
         stroke-linecap="butt"
         d="m 185.30446,58.947506 v 0 c 0,-5.374992 4.3573,-9.732285 9.73228,-9.732285 v 0 c 2.58117,0 5.05661,1.025364 6.88176,2.850521 1.82517,1.825157 2.85053,4.300602 2.85053,6.881763 v 0 c 0,5.374989 -4.35728,9.732282 -9.73229,9.732282 v 0 c -5.37498,0 -9.73228,-4.357292 -9.73228,-9.732281 z"
         fill-rule="evenodd"
         id="path165" />
      <path
         fill="#eeeeee"
         d="m 165.83989,82.37533 v 0 c 0,-5.374992 4.3573,-9.732285 9.73228,-9.732285 v 0 c 2.58117,0 5.05661,1.02536 6.88178,2.850517 1.82515,1.825158 2.85051,4.300606 2.85051,6.881768 v 0 c 0,5.374992 -4.35728,9.732285 -9.73229,9.732285 v 0 c -5.37498,0 -9.73228,-4.357292 -9.73228,-9.732285 z"
         fill-rule="evenodd"
         id="path167" />
      <path
         stroke="#595959"
         stroke-width="1"
         stroke-linejoin="round"
         stroke-linecap="butt"
         d="m 165.83989,82.37533 v 0 c 0,-5.374992 4.3573,-9.732285 9.73228,-9.732285 v 0 c 2.58117,0 5.05661,1.02536 6.88178,2.850517 1.82515,1.825158 2.85051,4.300606 2.85051,6.881768 v 0 c 0,5.374992 -4.35728,9.732285 -9.73229,9.732285 v 0 c -5.37498,0 -9.73228,-4.357292 -9.73228,-9.732285 z"
         fill-rule="evenodd"
         id="path169" />
      <path
         fill="#eeeeee"
         d="m 201.74278,222.36482 v 0 c 0,-5.37498 4.35728,-9.73227 9.73228,-9.73227 v 0 c 2.58117,0 5.05661,1.02536 6.88176,2.85051 1.82517,1.82517 2.85053,4.3006 2.85053,6.88176 v 0 c 0,5.375 -4.3573,9.73229 -9.73229,9.73229 v 0 c -5.375,0 -9.73228,-4.35729 -9.73228,-9.73229 z"
         fill-rule="evenodd"
         id="path171" />
      <path
         stroke="#595959"
         stroke-width="1"
         stroke-linejoin="round"
         stroke-linecap="butt"
         d="m 201.74278,222.36482 v 0 c 0,-5.37498 4.35728,-9.73227 9.73228,-9.73227 v 0 c 2.58117,0 5.05661,1.02536 6.88176,2.85051 1.82517,1.82517 2.85053,4.3006 2.85053,6.88176 v 0 c 0,5.375 -4.3573,9.73229 -9.73229,9.73229 v 0 c -5.375,0 -9.73228,-4.35729 -9.73228,-9.73229 z"
         fill-rule="evenodd"
         id="path173" />
      <path
         fill="#eeeeee"
         d="m 235.03674,222.36482 v 0 c 0,-5.37498 4.3573,-9.73227 9.73228,-9.73227 v 0 c 2.58117,0 5.05661,1.02536 6.88176,2.85051 1.82517,1.82517 2.85053,4.3006 2.85053,6.88176 v 0 c 0,5.375 -4.35728,9.73229 -9.73229,9.73229 v 0 c -5.37498,0 -9.73228,-4.35729 -9.73228,-9.73229 z"
         fill-rule="evenodd"
         id="path175" />
      <path
         stroke="#595959"
         stroke-width="1"
         stroke-linejoin="round"
         stroke-linecap="butt"
         d="m 235.03674,222.36482 v 0 c 0,-5.37498 4.3573,-9.73227 9.73228,-9.73227 v 0 c 2.58117,0 5.05661,1.02536 6.88176,2.85051 1.82517,1.82517 2.85053,4.3006 2.85053,6.88176 v 0 c 0,5.375 -4.35728,9.73229 -9.73229,9.73229 v 0 c -5.37498,0 -9.73228,-4.35729 -9.73228,-9.73229 z"
         fill-rule="evenodd"
         id="path177" />
      <path
         fill="#eeeeee"
         d="m 268.33072,222.36482 v 0 c 0,-5.37498 4.35727,-9.73227 9.73227,-9.73227 v 0 c 2.58118,0 5.05661,1.02536 6.88177,2.85051 1.82517,1.82517 2.85053,4.3006 2.85053,6.88176 v 0 c 0,5.375 -4.3573,9.73229 -9.7323,9.73229 v 0 c -5.375,0 -9.73227,-4.35729 -9.73227,-9.73229 z"
         fill-rule="evenodd"
         id="path179" />
      <path
         stroke="#595959"
         stroke-width="1"
         stroke-linejoin="round"
         stroke-linecap="butt"
         d="m 268.33072,222.36482 v 0 c 0,-5.37498 4.35727,-9.73227 9.73227,-9.73227 v 0 c 2.58118,0 5.05661,1.02536 6.88177,2.85051 1.82517,1.82517 2.85053,4.3006 2.85053,6.88176 v 0 c 0,5.375 -4.3573,9.73229 -9.7323,9.73229 v 0 c -5.375,0 -9.73227,-4.35729 -9.73227,-9.73229 z"
         fill-rule="evenodd"
         id="path181" />
      <path
         fill="#eeeeee"
         d="m 224.2336,264.24408 v 0 c 0,-5.37497 4.35728,-9.73227 9.73228,-9.73227 v 0 c 2.58117,0 5.05661,1.02536 6.88176,2.85053 1.82517,1.82516 2.85053,4.30059 2.85053,6.88174 v 0 c 0,5.375 -4.3573,9.7323 -9.73229,9.7323 v 0 c -5.375,0 -9.73228,-4.3573 -9.73228,-9.7323 z"
         fill-rule="evenodd"
         id="path183" />
      <path
         stroke="#595959"
         stroke-width="1"
         stroke-linejoin="round"
         stroke-linecap="butt"
         d="m 224.2336,264.24408 v 0 c 0,-5.37497 4.35728,-9.73227 9.73228,-9.73227 v 0 c 2.58117,0 5.05661,1.02536 6.88176,2.85053 1.82517,1.82516 2.85053,4.30059 2.85053,6.88174 v 0 c 0,5.375 -4.3573,9.7323 -9.73229,9.7323 v 0 c -5.375,0 -9.73228,-4.3573 -9.73228,-9.7323 z"
         fill-rule="evenodd"
         id="path185" />
      <path
         fill="#eeeeee"
         d="m 257.84778,264.24408 v 0 c 0,-5.37497 4.35727,-9.73227 9.73227,-9.73227 v 0 c 2.58118,0 5.05661,1.02536 6.88177,2.85053 1.82517,1.82516 2.85053,4.30059 2.85053,6.88174 v 0 c 0,5.375 -4.3573,9.7323 -9.7323,9.7323 v 0 c -5.375,0 -9.73227,-4.3573 -9.73227,-9.7323 z"
         fill-rule="evenodd"
         id="path187" />
      <path
         stroke="#595959"
         stroke-width="1"
         stroke-linejoin="round"
         stroke-linecap="butt"
         d="m 257.84778,264.24408 v 0 c 0,-5.37497 4.35727,-9.73227 9.73227,-9.73227 v 0 c 2.58118,0 5.05661,1.02536 6.88177,2.85053 1.82517,1.82516 2.85053,4.30059 2.85053,6.88174 v 0 c 0,5.375 -4.3573,9.7323 -9.7323,9.7323 v 0 c -5.375,0 -9.73227,-4.3573 -9.73227,-9.7323 z"
         fill-rule="evenodd"
         id="path189" />
      <path
         fill="#eeeeee"
         d="m 295.5538,255.68767 v 0 c 0,-5.375 4.3573,-9.73229 9.7323,-9.73229 v 0 c 2.58115,0 5.05658,1.02537 6.88174,2.85051 1.82517,1.82517 2.85053,4.30062 2.85053,6.88178 v 0 c 0,5.37498 -4.3573,9.73228 -9.73227,9.73228 v 0 c -5.375,0 -9.7323,-4.3573 -9.7323,-9.73228 z"
         fill-rule="evenodd"
         id="path191" />
      <path
         stroke="#595959"
         stroke-width="1"
         stroke-linejoin="round"
         stroke-linecap="butt"
         d="m 295.5538,255.68767 v 0 c 0,-5.375 4.3573,-9.73229 9.7323,-9.73229 v 0 c 2.58115,0 5.05658,1.02537 6.88174,2.85051 1.82517,1.82517 2.85053,4.30062 2.85053,6.88178 v 0 c 0,5.37498 -4.3573,9.73228 -9.73227,9.73228 v 0 c -5.375,0 -9.7323,-4.3573 -9.7323,-9.73228 z"
         fill-rule="evenodd"
         id="path193" />
      <path
         fill="#eeeeee"
         d="m 333.25986,244.77953 v 0 c 0,-5.37498 4.35727,-9.73229 9.73227,-9.73229 v 0 c 2.58118,0 5.05661,1.02537 6.88177,2.85053 1.82514,1.82515 2.8505,4.3006 2.8505,6.88176 v 0 c 0,5.375 -4.35727,9.73228 -9.73227,9.73228 v 0 c -5.375,0 -9.73227,-4.35728 -9.73227,-9.73228 z"
         fill-rule="evenodd"
         id="path195" />
      <path
         stroke="#595959"
         stroke-width="1"
         stroke-linejoin="round"
         stroke-linecap="butt"
         d="m 333.25986,244.77953 v 0 c 0,-5.37498 4.35727,-9.73229 9.73227,-9.73229 v 0 c 2.58118,0 5.05661,1.02537 6.88177,2.85053 1.82514,1.82515 2.8505,4.3006 2.8505,6.88176 v 0 c 0,5.375 -4.35727,9.73228 -9.73227,9.73228 v 0 c -5.375,0 -9.73227,-4.35728 -9.73227,-9.73228 z"
         fill-rule="evenodd"
         id="path197" />
      <path
         fill="#eeeeee"
         d="m 327.2966,272.71652 v 0 c 0,-5.37497 4.35727,-9.73227 9.73227,-9.73227 v 0 c 2.58118,0 5.05661,1.02536 6.88177,2.85053 1.82514,1.82516 2.85053,4.30059 2.85053,6.88174 v 0 c 0,5.375 -4.3573,9.7323 -9.7323,9.7323 v 0 c -5.375,0 -9.73227,-4.3573 -9.73227,-9.7323 z"
         fill-rule="evenodd"
         id="path199" />
      <path
         stroke="#595959"
         stroke-width="1"
         stroke-linejoin="round"
         stroke-linecap="butt"
         d="m 327.2966,272.71652 v 0 c 0,-5.37497 4.35727,-9.73227 9.73227,-9.73227 v 0 c 2.58118,0 5.05661,1.02536 6.88177,2.85053 1.82514,1.82516 2.85053,4.30059 2.85053,6.88174 v 0 c 0,5.375 -4.3573,9.7323 -9.7323,9.7323 v 0 c -5.375,0 -9.73227,-4.3573 -9.73227,-9.7323 z"
         fill-rule="evenodd"
         id="path201" />
      <path
         fill="#eeeeee"
         d="m 352.7244,270 v 0 c 0,-5.375 4.3573,-9.73227 9.7323,-9.73227 v 0 c 2.58115,0 5.05661,1.02536 6.88178,2.8505 1.82513,1.82516 2.85049,4.30059 2.85049,6.88177 v 0 c 0,5.375 -4.35727,9.73227 -9.73227,9.73227 v 0 c -5.375,0 -9.7323,-4.35727 -9.7323,-9.73227 z"
         fill-rule="evenodd"
         id="path203" />
      <path
         stroke="#595959"
         stroke-width="1"
         stroke-linejoin="round"
         stroke-linecap="butt"
         d="m 352.7244,270 v 0 c 0,-5.375 4.3573,-9.73227 9.7323,-9.73227 v 0 c 2.58115,0 5.05661,1.02536 6.88178,2.8505 1.82513,1.82516 2.85049,4.30059 2.85049,6.88177 v 0 c 0,5.375 -4.35727,9.73227 -9.73227,9.73227 v 0 c -5.375,0 -9.7323,-4.35727 -9.7323,-9.73227 z"
         fill-rule="evenodd"
         id="path205" />
      <path
         fill="#eeeeee"
         d="m 505.24933,198.41208 v 0 c 0,-5.375 4.3573,-9.73228 9.7323,-9.73228 v 0 c 2.58118,0 5.05658,1.02536 6.88177,2.8505 1.82514,1.82517 2.85053,4.30062 2.85053,6.88178 v 0 c 0,5.37498 -4.3573,9.73228 -9.7323,9.73228 v 0 c -5.375,0 -9.7323,-4.3573 -9.7323,-9.73228 z"
         fill-rule="evenodd"
         id="path207" />
      <path
         stroke="#595959"
         stroke-width="1"
         stroke-linejoin="round"
         stroke-linecap="butt"
         d="m 505.24933,198.41208 v 0 c 0,-5.375 4.3573,-9.73228 9.7323,-9.73228 v 0 c 2.58118,0 5.05658,1.02536 6.88177,2.8505 1.82514,1.82517 2.85053,4.30062 2.85053,6.88178 v 0 c 0,5.37498 -4.3573,9.73228 -9.7323,9.73228 v 0 c -5.375,0 -9.7323,-4.3573 -9.7323,-9.73228 z"
         fill-rule="evenodd"
         id="path209" />
      <path
         fill="#eeeeee"
         d="m 480,222.36482 v 0 c 0,-5.37498 4.3573,-9.73227 9.73227,-9.73227 v 0 c 2.58118,0 5.05661,1.02536 6.88177,2.85051 1.82517,1.82517 2.85053,4.3006 2.85053,6.88176 v 0 c 0,5.375 -4.3573,9.73229 -9.7323,9.73229 v 0 c -5.37497,0 -9.73227,-4.35729 -9.73227,-9.73229 z"
         fill-rule="evenodd"
         id="path211" />
      <path
         stroke="#595959"
         stroke-width="1"
         stroke-linejoin="round"
         stroke-linecap="butt"
         d="m 480,222.36482 v 0 c 0,-5.37498 4.3573,-9.73227 9.73227,-9.73227 v 0 c 2.58118,0 5.05661,1.02536 6.88177,2.85051 1.82517,1.82517 2.85053,4.3006 2.85053,6.88176 v 0 c 0,5.375 -4.3573,9.73229 -9.7323,9.73229 v 0 c -5.37497,0 -9.73227,-4.35729 -9.73227,-9.73229 z"
         fill-rule="evenodd"
         id="path213" />
      <path
         fill="#eeeeee"
         d="m 474.29922,146.28609 v 0 c 0,-5.37498 4.35727,-9.73229 9.73227,-9.73229 v 0 c 2.58118,0 5.05661,1.02537 6.88177,2.85053 1.82514,1.82515 2.85053,4.3006 2.85053,6.88176 v 0 c 0,5.375 -4.3573,9.73228 -9.7323,9.73228 v 0 c -5.375,0 -9.73227,-4.35728 -9.73227,-9.73228 z"
         fill-rule="evenodd"
         id="path215" />
      <path
         stroke="#595959"
         stroke-width="1"
         stroke-linejoin="round"
         stroke-linecap="butt"
         d="m 474.29922,146.28609 v 0 c 0,-5.37498 4.35727,-9.73229 9.73227,-9.73229 v 0 c 2.58118,0 5.05661,1.02537 6.88177,2.85053 1.82514,1.82515 2.85053,4.3006 2.85053,6.88176 v 0 c 0,5.375 -4.3573,9.73228 -9.7323,9.73228 v 0 c -5.375,0 -9.73227,-4.35728 -9.73227,-9.73228 z"
         fill-rule="evenodd"
         id="path217" />
      <path
         fill="#eeeeee"
         d="m 460.53543,178.26772 v 0 c 0,-5.37498 4.3573,-9.73229 9.7323,-9.73229 v 0 c 2.58115,0 5.05658,1.02537 6.88174,2.85053 1.82517,1.82515 2.85053,4.3006 2.85053,6.88176 v 0 c 0,5.375 -4.3573,9.73228 -9.73227,9.73228 v 0 c -5.375,0 -9.7323,-4.35728 -9.7323,-9.73228 z"
         fill-rule="evenodd"
         id="path219" />
      <path
         stroke="#595959"
         stroke-width="1"
         stroke-linejoin="round"
         stroke-linecap="butt"
         d="m 460.53543,178.26772 v 0 c 0,-5.37498 4.3573,-9.73229 9.7323,-9.73229 v 0 c 2.58115,0 5.05658,1.02537 6.88174,2.85053 1.82517,1.82515 2.85053,4.3006 2.85053,6.88176 v 0 c 0,5.375 -4.3573,9.73228 -9.73227,9.73228 v 0 c -5.375,0 -9.7323,-4.35728 -9.7323,-9.73228 z"
         fill-rule="evenodd"
         id="path221" />
      <path
         fill="#eeeeee"
         d="m 401.48032,58.947506 v 0 c 0,-5.374992 4.3573,-9.732285 9.73227,-9.732285 v 0 c 2.58118,0 5.05661,1.025364 6.88177,2.850521 1.82517,1.825157 2.85053,4.300602 2.85053,6.881763 v 0 c 0,5.374989 -4.3573,9.732282 -9.7323,9.732282 v 0 c -5.37497,0 -9.73227,-4.357292 -9.73227,-9.732281 z"
         fill-rule="evenodd"
         id="path223" />
      <path
         stroke="#595959"
         stroke-width="1"
         stroke-linejoin="round"
         stroke-linecap="butt"
         d="m 401.48032,58.947506 v 0 c 0,-5.374992 4.3573,-9.732285 9.73227,-9.732285 v 0 c 2.58118,0 5.05661,1.025364 6.88177,2.850521 1.82517,1.825157 2.85053,4.300602 2.85053,6.881763 v 0 c 0,5.374989 -4.3573,9.732282 -9.7323,9.732282 v 0 c -5.37497,0 -9.73227,-4.357292 -9.73227,-9.732281 z"
         fill-rule="evenodd"
         id="path225" />
      <path
         fill="#eeeeee"
         d="m 429.16272,82.37533 v 0 c 0,-5.374992 4.3573,-9.732285 9.7323,-9.732285 v 0 c 2.58115,0 5.05661,1.02536 6.88174,2.850517 1.82517,1.825158 2.85053,4.300606 2.85053,6.881768 v 0 c 0,5.374992 -4.35727,9.732285 -9.73227,9.732285 v 0 c -5.375,0 -9.7323,-4.357292 -9.7323,-9.732285 z"
         fill-rule="evenodd"
         id="path227" />
      <path
         stroke="#595959"
         stroke-width="1"
         stroke-linejoin="round"
         stroke-linecap="butt"
         d="m 429.16272,82.37533 v 0 c 0,-5.374992 4.3573,-9.732285 9.7323,-9.732285 v 0 c 2.58115,0 5.05661,1.02536 6.88174,2.850517 1.82517,1.825158 2.85053,4.300606 2.85053,6.881768 v 0 c 0,5.374992 -4.35727,9.732285 -9.73227,9.732285 v 0 c -5.375,0 -9.7323,-4.357292 -9.7323,-9.732285 z"
         fill-rule="evenodd"
         id="path229" />
      <path
         fill="#eeeeee"
         d="m 323.91864,53.15223 v 0 c 0,-5.374989 4.3573,-9.732281 9.73227,-9.732281 v 0 c 2.58118,0 5.05661,1.02536 6.88177,2.850517 1.82517,1.825158 2.85053,4.300602 2.85053,6.881764 v 0 c 0,5.374992 -4.3573,9.732285 -9.7323,9.732285 v 0 c -5.37497,0 -9.73227,-4.357292 -9.73227,-9.732285 z"
         fill-rule="evenodd"
         id="path231" />
      <path
         stroke="#595959"
         stroke-width="1"
         stroke-linejoin="round"
         stroke-linecap="butt"
         d="m 323.91864,53.15223 v 0 c 0,-5.374989 4.3573,-9.732281 9.73227,-9.732281 v 0 c 2.58118,0 5.05661,1.02536 6.88177,2.850517 1.82517,1.825158 2.85053,4.300602 2.85053,6.881764 v 0 c 0,5.374992 -4.3573,9.732285 -9.7323,9.732285 v 0 c -5.37497,0 -9.73227,-4.357292 -9.73227,-9.732285 z"
         fill-rule="evenodd"
         id="path233" />
      <path
         fill="#eeeeee"
         d="m 502.7454,255.68767 v 0 c 0,-5.375 4.3573,-9.73229 9.73227,-9.73229 v 0 c 2.58118,0 5.05664,1.02537 6.88177,2.85051 1.8252,1.82517 2.85053,4.30062 2.85053,6.88178 v 0 c 0,5.37498 -4.3573,9.73228 -9.7323,9.73228 v 0 c -5.37497,0 -9.73227,-4.3573 -9.73227,-9.73228 z"
         fill-rule="evenodd"
         id="path235" />
      <path
         stroke="#595959"
         stroke-width="1"
         stroke-linejoin="round"
         stroke-linecap="butt"
         d="m 502.7454,255.68767 v 0 c 0,-5.375 4.3573,-9.73229 9.73227,-9.73229 v 0 c 2.58118,0 5.05664,1.02537 6.88177,2.85051 1.8252,1.82517 2.85053,4.30062 2.85053,6.88178 v 0 c 0,5.37498 -4.3573,9.73228 -9.7323,9.73228 v 0 c -5.37497,0 -9.73227,-4.3573 -9.73227,-9.73228 z"
         fill-rule="evenodd"
         id="path237" />
      <path
         fill="#eeeeee"
         d="m 387.77692,241.82939 v 0 c 0,-5.37498 4.35727,-9.73229 9.73227,-9.73229 v 0 c 2.58118,0 5.05661,1.02538 6.88177,2.85053 1.82514,1.82516 2.8505,4.3006 2.8505,6.88176 v 0 c 0,5.375 -4.35727,9.73228 -9.73227,9.73228 v 0 c -5.375,0 -9.73227,-4.35728 -9.73227,-9.73228 z"
         fill-rule="evenodd"
         id="path239" />
      <path
         stroke="#595959"
         stroke-width="1"
         stroke-linejoin="round"
         stroke-linecap="butt"
         d="m 387.77692,241.82939 v 0 c 0,-5.37498 4.35727,-9.73229 9.73227,-9.73229 v 0 c 2.58118,0 5.05661,1.02538 6.88177,2.85053 1.82514,1.82516 2.8505,4.3006 2.8505,6.88176 v 0 c 0,5.375 -4.35727,9.73228 -9.73227,9.73228 v 0 c -5.375,0 -9.73227,-4.35728 -9.73227,-9.73228 z"
         fill-rule="evenodd"
         id="path241" />
      <path
         fill="#eeeeee"
         d="m 424.67453,231.89764 v 0 c 0,-5.375 4.3573,-9.73229 9.7323,-9.73229 v 0 c 2.58115,0 5.05661,1.02537 6.88174,2.85051 1.82517,1.82517 2.85053,4.30062 2.85053,6.88178 v 0 c 0,5.37498 -4.35727,9.73228 -9.73227,9.73228 v 0 c -5.375,0 -9.7323,-4.3573 -9.7323,-9.73228 z"
         fill-rule="evenodd"
         id="path243" />
      <path
         stroke="#595959"
         stroke-width="1"
         stroke-linejoin="round"
         stroke-linecap="butt"
         d="m 424.67453,231.89764 v 0 c 0,-5.375 4.3573,-9.73229 9.7323,-9.73229 v 0 c 2.58115,0 5.05661,1.02537 6.88174,2.85051 1.82517,1.82517 2.85053,4.30062 2.85053,6.88178 v 0 c 0,5.37498 -4.35727,9.73228 -9.73227,9.73228 v 0 c -5.375,0 -9.7323,-4.3573 -9.7323,-9.73228 z"
         fill-rule="evenodd"
         id="path245" />
      <path
         fill="#000000"
         fill-opacity="0"
         d="m 236.06561,265.7246 c 3.63167,-10.39064 15.63605,-55.18111 21.79004,-62.34384 6.15396,-7.16272 13.82239,9.38014 15.13385,19.36746 1.31146,9.98731 -6.05423,33.79703 -7.26511,40.55643"
         fill-rule="evenodd"
         id="path247" />
      <path
         stroke="#38761d"
         stroke-width="2"
         stroke-linejoin="round"
         stroke-linecap="butt"
         d="m 236.06561,265.7246 c 3.63167,-10.39064 15.63605,-55.18111 21.79004,-62.34384 6.15396,-7.16272 13.82239,9.38014 15.13385,19.36746 1.31146,9.98731 -6.05423,33.79703 -7.26511,40.55643"
         fill-rule="evenodd"
         id="path249" />
      <path
         fill="#000000"
         fill-opacity="0"
         d="m 307.4901,248.77625 c -5.64963,-9.07962 -35.31015,-49.23184 -33.89764,-54.47769 1.4125,-5.24583 22.49868,21.08574 42.37271,23.00262 19.87399,1.91689 55.888,-1.00962 76.87137,-11.50131 20.98339,-10.49168 34.80447,-53.76903 49.02887,-51.44882 14.22442,2.32022 25.32153,47.71567 36.31759,65.37009 10.99606,17.65442 24.71567,33.79703 29.65878,40.55643"
         fill-rule="evenodd"
         id="path251" />
      <path
         stroke="#980000"
         stroke-width="2"
         stroke-linejoin="round"
         stroke-linecap="butt"
         d="m 307.4901,248.77625 c -5.64963,-9.07962 -35.31015,-49.23184 -33.89764,-54.47769 1.4125,-5.24583 22.49868,21.08574 42.37271,23.00262 19.87399,1.91689 55.888,-1.00962 76.87137,-11.50131 20.98339,-10.49168 34.80447,-53.76903 49.02887,-51.44882 14.22442,2.32022 25.32153,47.71567 36.31759,65.37009 10.99606,17.65442 24.71567,33.79703 29.65878,40.55643"
         fill-rule="evenodd"
         id="path253" />
      <path
         fill="#000000"
         fill-opacity="0"
         d="m 243.95013,161.73097 h 21.48032 v 24.94489 h -21.48032 z"
         fill-rule="evenodd"
         id="path255" />
      <path
         fill="#595959"
         d="m 255.90326,177.1666 0.40625,-1.875 h 1.625 l -0.39063,1.875 z m -2.39063,11.48437 2.01563,-9.67187 h 1.65625 l -2.03125,9.67187 z"
         fill-rule="nonzero"
         id="path257" />
      <path
         fill="#000000"
         fill-opacity="0"
         d="m 428.22247,128.01999 h 21.48032 v 24.94488 h -21.48032 z"
         fill-rule="evenodd"
         id="path259" />
      <path
         fill="#595959"
         d="m 440.1756,143.45561 0.40625,-1.875 h 1.625 l -0.39063,1.875 z m -5.21875,15.125 0.29687,-1.40625 q 0.5625,0.15625 1,0.15625 0.53125,0 0.84375,-0.35938 0.3125,-0.34375 0.65625,-1.9375 l 2.03125,-9.76562 h 1.64063 l -2.09375,10.0625 q -0.39063,1.89062 -0.89063,2.5625 -0.6875,0.92187 -1.90625,0.92187 -0.65625,0 -1.57812,-0.23437 z"
         fill-rule="nonzero"
         id="path261" />
    </g>
  </g>
</svg>
