<svg version="1.1" viewBox="0.0 0.0 546.1102362204724 109.7217847769029" fill="none" stroke="none" stroke-linecap="square" stroke-miterlimit="10" xmlns:xlink="http://www.w3.org/1999/xlink" xmlns="http://www.w3.org/2000/svg"><clipPath id="p.0"><path d="m0 0l546.1102 0l0 109.72179l-546.1102 0l0 -109.72179z" clip-rule="nonzero"/></clipPath><g clip-path="url(#p.0)"><path fill="#000000" fill-opacity="0.0" d="m0 0l546.1102 0l0 109.72179l-546.1102 0z" fill-rule="evenodd"/><path fill="#000000" fill-opacity="0.0" d="m501.57935 44.870094l-24.692902 22.456688l35.118134 38.614174l24.692871 -22.456688z" fill-rule="evenodd"/><path fill="#000000" d="m503.26392 79.72571l-1.2615356 -1.3871307l1.387146 -1.261528l1.2615356 1.3871307l-1.387146 1.261528zm4.612274 -4.1945724l-1.2615356 -1.3871384l1.3755798 -1.2510071l1.2615356 1.3871307l-1.3755798 1.2510147zm4.589142 -4.1735535l-1.2615356 -1.3871307l1.387146 -1.2615204l1.2615356 1.3871307l-1.387146 1.2615204z" fill-rule="nonzero"/><path fill="#000000" fill-opacity="0.0" d="m473.37732 87.48738l-11.716522 -32.440945" fill-rule="evenodd"/><path stroke="#000000" stroke-width="1.0" stroke-linejoin="round" stroke-linecap="butt" d="m473.37732 87.48738l-11.716522 -32.440945" fill-rule="evenodd"/><path fill="#000000" fill-opacity="0.0" d="m484.0099 31.65011l-22.362213 24.47244" fill-rule="evenodd"/><path stroke="#000000" stroke-width="1.0" stroke-linejoin="round" stroke-linecap="butt" d="m484.0099 31.65011l-22.362213 24.47244" fill-rule="evenodd"/><path fill="#000000" fill-opacity="0.0" d="m510.0755 47.075306l-26.582672 -14.897636" fill-rule="evenodd"/><path stroke="#000000" stroke-width="1.0" stroke-linejoin="round" stroke-linecap="butt" d="m510.0755 47.075306l-26.582672 -14.897636" fill-rule="evenodd"/><path fill="#f4cccc" d="m493.2356 32.038563c0 -5.7663765 -4.6745605 -10.440947 -10.4409485 -10.440947c-2.769104 0 -5.4248047 1.1000252 -7.382843 3.0580826c-1.9580688 1.9580574 -3.0581055 4.6137524 -3.0581055 7.382864c0 5.7663727 4.674591 10.440945 10.4409485 10.440945c5.766388 0 10.4409485 -4.674572 10.4409485 -10.440945z" fill-rule="evenodd"/><path stroke="#000000" stroke-width="1.0" stroke-linejoin="round" stroke-linecap="butt" d="m493.2356 32.038563c0 -5.7663765 -4.6745605 -10.440947 -10.4409485 -10.440947c-2.769104 0 -5.4248047 1.1000252 -7.382843 3.0580826c-1.9580688 1.9580574 -3.0581055 4.6137524 -3.0581055 7.382864c0 5.7663727 4.674591 10.440945 10.4409485 10.440945c5.766388 0 10.4409485 -4.674572 10.4409485 -10.440945z" fill-rule="evenodd"/><path fill="#f4cccc" d="m520.3668 46.668484c0 -5.7663765 -4.6745605 -10.440945 -10.440918 -10.440945c-2.7691345 0 -5.424835 1.1000252 -7.3828735 3.0580826c-1.9580688 1.9580536 -3.058075 4.6137505 -3.058075 7.382862c0 5.7663727 4.6745605 10.440945 10.4409485 10.440945c5.7663574 0 10.440918 -4.674572 10.440918 -10.440945z" fill-rule="evenodd"/><path stroke="#000000" stroke-width="1.0" stroke-linejoin="round" stroke-linecap="butt" d="m520.3668 46.668484c0 -5.7663765 -4.6745605 -10.440945 -10.440918 -10.440945c-2.7691345 0 -5.424835 1.1000252 -7.3828735 3.0580826c-1.9580688 1.9580536 -3.058075 4.6137505 -3.058075 7.382862c0 5.7663727 4.6745605 10.440945 10.4409485 10.440945c5.7663574 0 10.440918 -4.674572 10.440918 -10.440945z" fill-rule="evenodd"/><path fill="#f4cccc" d="m483.48495 86.29053c0 -5.7663727 -4.674591 -10.440941 -10.4409485 -10.440941c-2.769104 0 -5.4248047 1.1000214 -7.3828735 3.0580826c-1.9580688 1.9580536 -3.058075 4.6137466 -3.058075 7.3828583c0 5.7663803 4.6745605 10.4409485 10.4409485 10.4409485c5.7663574 0 10.4409485 -4.674568 10.4409485 -10.4409485z" fill-rule="evenodd"/><path stroke="#000000" stroke-width="1.0" stroke-linejoin="round" stroke-linecap="butt" d="m483.48495 86.29053c0 -5.7663727 -4.674591 -10.440941 -10.4409485 -10.440941c-2.769104 0 -5.4248047 1.1000214 -7.3828735 3.0580826c-1.9580688 1.9580536 -3.058075 4.6137466 -3.058075 7.3828583c0 5.7663803 4.6745605 10.4409485 10.4409485 10.4409485c5.7663574 0 10.4409485 -4.674568 10.4409485 -10.4409485z" fill-rule="evenodd"/><path fill="#a61c00" d="m470.2135 56.12861c0 -9.219242 -7.473694 -16.692913 -16.692932 -16.692913c-4.4272156 0 -8.673126 1.7587128 -11.80365 4.8892403c-3.1305542 3.1305275 -4.8892517 7.376438 -4.8892517 11.803673c0 9.219238 7.4736633 16.692917 16.692902 16.692917c9.219238 0 16.692932 -7.4736786 16.692932 -16.692917z" fill-rule="evenodd"/><path stroke="#000000" stroke-width="1.0" stroke-linejoin="round" stroke-linecap="butt" d="m470.2135 56.12861c0 -9.219242 -7.473694 -16.692913 -16.692932 -16.692913c-4.4272156 0 -8.673126 1.7587128 -11.80365 4.8892403c-3.1305542 3.1305275 -4.8892517 7.376438 -4.8892517 11.803673c0 9.219238 7.4736633 16.692917 16.692902 16.692917c9.219238 0 16.692932 -7.4736786 16.692932 -16.692917z" fill-rule="evenodd"/><path fill="#a61c00" d="m350.6414 57.63597c0 -9.219242 -7.4736633 -16.692913 -16.692902 -16.692913c-4.427246 0 -8.673157 1.758709 -11.80368 4.8892403c-3.1305237 3.1305275 -4.8892517 7.3764343 -4.8892517 11.803673c0 9.219238 7.473694 16.69291 16.692932 16.69291c9.219238 0 16.692902 -7.473671 16.692902 -16.69291z" fill-rule="evenodd"/><path stroke="#000000" stroke-width="1.0" stroke-linejoin="round" stroke-linecap="butt" d="m350.6414 57.63597c0 -9.219242 -7.4736633 -16.692913 -16.692902 -16.692913c-4.427246 0 -8.673157 1.758709 -11.80368 4.8892403c-3.1305237 3.1305275 -4.8892517 7.3764343 -4.8892517 11.803673c0 9.219238 7.473694 16.69291 16.692932 16.69291c9.219238 0 16.692902 -7.473671 16.692902 -16.69291z" fill-rule="evenodd"/><path fill="#000000" fill-opacity="0.0" d="m317.25555 57.63597l-18.078735 0" fill-rule="evenodd"/><path stroke="#000000" stroke-width="4.0" stroke-linejoin="round" stroke-linecap="butt" d="m317.25555 57.63597l-18.078735 0" fill-rule="evenodd"/><path fill="#000000" fill-opacity="0.0" d="m433.133 31.541025l-65.322815 0l0 33.385826l65.322815 0z" fill-rule="evenodd"/><path fill="#000000" d="m378.98206 58.46102l0 -1.875l1.875 0l0 1.875l-1.875 0zm6.234375 0l0 -1.875l1.859375 0l0 1.875l-1.859375 0zm6.203125 0l0 -1.875l1.875 0l0 1.875l-1.875 0z" fill-rule="nonzero"/><path fill="#000000" fill-opacity="0.0" d="m368.43582 57.63597l-18.078735 0" fill-rule="evenodd"/><path stroke="#000000" stroke-width="4.0" stroke-linejoin="round" stroke-linecap="butt" d="m368.43582 57.63597l-18.078735 0" fill-rule="evenodd"/><path fill="#000000" fill-opacity="0.0" d="m436.8599 56.066414l-18.078735 0" fill-rule="evenodd"/><path stroke="#000000" stroke-width="4.0" stroke-linejoin="round" stroke-linecap="butt" d="m436.8599 56.066414l-18.078735 0" fill-rule="evenodd"/><path fill="#000000" fill-opacity="0.0" d="m48.168045 59.23445l-18.078741 0" fill-rule="evenodd"/><path stroke="#000000" stroke-width="1.0" stroke-linejoin="round" stroke-linecap="butt" d="m48.168045 59.23445l-18.078741 0" fill-rule="evenodd"/><path fill="#000000" fill-opacity="0.0" d="m170.42847 33.139507l-65.32284 0l0 33.385822l65.32284 0z" fill-rule="evenodd"/><path fill="#000000" d="m116.277504 60.059505l0 -1.875l1.875 0l0 1.875l-1.875 0zm6.234375 0l0 -1.875l1.859375 0l0 1.875l-1.859375 0zm6.2031174 0l0 -1.875l1.875 0l0 1.875l-1.875 0z" fill-rule="nonzero"/><path fill="#000000" fill-opacity="0.0" d="m99.34831 59.23445l-18.078743 0" fill-rule="evenodd"/><path stroke="#000000" stroke-width="1.0" stroke-linejoin="round" stroke-linecap="butt" d="m99.34831 59.23445l-18.078743 0" fill-rule="evenodd"/><path fill="#000000" fill-opacity="0.0" d="m167.77238 57.664898l-18.078735 0" fill-rule="evenodd"/><path stroke="#000000" stroke-width="1.0" stroke-linejoin="round" stroke-linecap="butt" d="m167.77238 57.664898l-18.078735 0" fill-rule="evenodd"/><path fill="#000000" fill-opacity="0.0" d="m214.51027 57.66484l-18.07875 0" fill-rule="evenodd"/><path stroke="#000000" stroke-width="1.0" stroke-linejoin="round" stroke-linecap="butt" d="m214.51027 57.66484l-18.07875 0" fill-rule="evenodd"/><path fill="#000000" fill-opacity="0.0" d="m265.05627 57.66484l-18.078735 0" fill-rule="evenodd"/><path stroke="#000000" stroke-width="1.0" stroke-linejoin="round" stroke-linecap="butt" d="m265.05627 57.66484l-18.078735 0" fill-rule="evenodd"/><path fill="#000000" fill-opacity="0.0" d="m281.266 56.204723l-26.07875 -38.834644" fill-rule="evenodd"/><path stroke="#000000" stroke-width="1.0" stroke-linejoin="round" stroke-linecap="butt" d="m281.266 56.204723l-26.07875 -38.834644" fill-rule="evenodd"/><path fill="#000000" fill-opacity="0.0" d="m231.26598 58.333332l23.937012 -41.480316" fill-rule="evenodd"/><path stroke="#000000" stroke-width="1.0" stroke-linejoin="round" stroke-linecap="butt" d="m231.26598 58.333332l23.937012 -41.480316" fill-rule="evenodd"/><path fill="#f4cccc" d="m266.45767 17.297386c0 -5.7663736 -4.674591 -10.440945 -10.4409485 -10.440945c-2.7691193 0 -5.4248047 1.1000252 -7.3828735 3.058082c-1.9580536 1.9580564 -3.058075 4.6137524 -3.058075 7.382862c0 5.7663746 4.674576 10.440945 10.4409485 10.440945c5.7663574 0 10.4409485 -4.67457 10.4409485 -10.440945z" fill-rule="evenodd"/><path stroke="#000000" stroke-width="1.0" stroke-linejoin="round" stroke-linecap="butt" d="m266.45767 17.297386c0 -5.7663736 -4.674591 -10.440945 -10.4409485 -10.440945c-2.7691193 0 -5.4248047 1.1000252 -7.3828735 3.058082c-1.9580536 1.9580564 -3.058075 4.6137524 -3.058075 7.382862c0 5.7663746 4.674576 10.440945 10.4409485 10.440945c5.7663574 0 10.4409485 -4.67457 10.4409485 -10.440945z" fill-rule="evenodd"/><path fill="#000000" fill-opacity="0.0" d="m230.60326 57.24535l-26.078735 -38.834644" fill-rule="evenodd"/><path stroke="#000000" stroke-width="1.0" stroke-linejoin="round" stroke-linecap="butt" d="m230.60326 57.24535l-26.078735 -38.834644" fill-rule="evenodd"/><path fill="#000000" fill-opacity="0.0" d="m180.60326 59.37396l23.937012 -41.480316" fill-rule="evenodd"/><path stroke="#000000" stroke-width="1.0" stroke-linejoin="round" stroke-linecap="butt" d="m180.60326 59.37396l23.937012 -41.480316" fill-rule="evenodd"/><path fill="#f4cccc" d="m215.79494 18.338013c0 -5.7663736 -4.674576 -10.440944 -10.4409485 -10.440944c-2.769104 0 -5.4248047 1.1000252 -7.3828583 3.0580816c-1.9580536 1.9580574 -3.0580902 4.6137524 -3.0580902 7.382862c0 5.7663765 4.674576 10.440947 10.4409485 10.440947c5.7663727 0 10.4409485 -4.67457 10.4409485 -10.440947z" fill-rule="evenodd"/><path stroke="#000000" stroke-width="1.0" stroke-linejoin="round" stroke-linecap="butt" d="m215.79494 18.338013c0 -5.7663736 -4.674576 -10.440944 -10.4409485 -10.440944c-2.769104 0 -5.4248047 1.1000252 -7.3828583 3.0580816c-1.9580536 1.9580574 -3.0580902 4.6137524 -3.0580902 7.382862c0 5.7663765 4.674576 10.440947 10.4409485 10.440947c5.7663727 0 10.4409485 -4.67457 10.4409485 -10.440947z" fill-rule="evenodd"/><path fill="#000000" fill-opacity="0.0" d="m66.779526 57.777267l-26.07874 -38.83465" fill-rule="evenodd"/><path stroke="#000000" stroke-width="1.0" stroke-linejoin="round" stroke-linecap="butt" d="m66.779526 57.777267l-26.07874 -38.83465" fill-rule="evenodd"/><path fill="#000000" fill-opacity="0.0" d="m16.779526 59.905876l23.937008 -41.480316" fill-rule="evenodd"/><path stroke="#000000" stroke-width="1.0" stroke-linejoin="round" stroke-linecap="butt" d="m16.779526 59.905876l23.937008 -41.480316" fill-rule="evenodd"/><path fill="#f4cccc" d="m51.971207 18.869928c0 -5.7663746 -4.674572 -10.440945 -10.440945 -10.440945c-2.7691116 0 -5.4248047 1.1000252 -7.382862 3.0580816c-1.9580574 1.9580574 -3.0580826 4.6137533 -3.0580826 7.382863c0 5.7663746 4.674568 10.440945 10.440945 10.440945c5.7663727 0 10.440945 -4.67457 10.440945 -10.440945z" fill-rule="evenodd"/><path stroke="#000000" stroke-width="1.0" stroke-linejoin="round" stroke-linecap="butt" d="m51.971207 18.869928c0 -5.7663746 -4.674572 -10.440945 -10.440945 -10.440945c-2.7691116 0 -5.4248047 1.1000252 -7.382862 3.0580816c-1.9580574 1.9580574 -3.0580826 4.6137533 -3.0580826 7.382863c0 5.7663746 4.674568 10.440945 10.440945 10.440945c5.7663727 0 10.440945 -4.67457 10.440945 -10.440945z" fill-rule="evenodd"/><path fill="#a61c00" d="m299.1637 57.63597c0 -9.219242 -7.4736633 -16.692913 -16.692902 -16.692913c-4.427246 0 -8.673157 1.758709 -11.80368 4.8892403c-3.1305237 3.1305275 -4.8892517 7.3764343 -4.8892517 11.803673c0 9.219238 7.473694 16.69291 16.692932 16.69291c9.219238 0 16.692902 -7.473671 16.692902 -16.69291z" fill-rule="evenodd"/><path stroke="#000000" stroke-width="1.0" stroke-linejoin="round" stroke-linecap="butt" d="m299.1637 57.63597c0 -9.219242 -7.4736633 -16.692913 -16.692902 -16.692913c-4.427246 0 -8.673157 1.758709 -11.80368 4.8892403c-3.1305237 3.1305275 -4.8892517 7.3764343 -4.8892517 11.803673c0 9.219238 7.473694 16.69291 16.692932 16.69291c9.219238 0 16.692902 -7.473671 16.692902 -16.69291z" fill-rule="evenodd"/><path fill="#a61c00" d="m81.55387 59.23445c0 -9.219242 -7.473671 -16.692913 -16.692917 -16.692913c-4.427231 0 -8.6731415 1.7587128 -11.803669 4.8892403c-3.1305275 3.1305275 -4.8892403 7.3764343 -4.8892403 11.803673c0 9.219238 7.473671 16.69291 16.69291 16.69291c9.219246 0 16.692917 -7.473671 16.692917 -16.69291z" fill-rule="evenodd"/><path stroke="#000000" stroke-width="1.0" stroke-linejoin="round" stroke-linecap="butt" d="m81.55387 59.23445c0 -9.219242 -7.473671 -16.692913 -16.692917 -16.692913c-4.427231 0 -8.6731415 1.7587128 -11.803669 4.8892403c-3.1305275 3.1305275 -4.8892403 7.3764343 -4.8892403 11.803673c0 9.219238 7.473671 16.69291 16.69291 16.69291c9.219246 0 16.692917 -7.473671 16.692917 -16.69291z" fill-rule="evenodd"/><path fill="#a61c00" d="m196.43152 57.66484c0 -9.219242 -7.4736633 -16.692913 -16.692917 -16.692913c-4.427231 0 -8.6731415 1.7587128 -11.803665 4.8892403c-3.1305237 3.1305275 -4.8892365 7.376438 -4.8892365 11.803673c0 9.219238 7.4736633 16.692917 16.692902 16.692917c9.219254 0 16.692917 -7.4736786 16.692917 -16.692917z" fill-rule="evenodd"/><path stroke="#000000" stroke-width="1.0" stroke-linejoin="round" stroke-linecap="butt" d="m196.43152 57.66484c0 -9.219242 -7.4736633 -16.692913 -16.692917 -16.692913c-4.427231 0 -8.6731415 1.7587128 -11.803665 4.8892403c-3.1305237 3.1305275 -4.8892365 7.376438 -4.8892365 11.803673c0 9.219238 7.4736633 16.692917 16.692902 16.692917c9.219254 0 16.692917 -7.4736786 16.692917 -16.692917z" fill-rule="evenodd"/><path fill="#a61c00" d="m246.97754 57.66484c0 -9.219242 -7.4736786 -16.692913 -16.692917 -16.692913c-4.427231 0 -8.6731415 1.7587128 -11.803665 4.8892403c-3.130539 3.1305275 -4.8892517 7.376438 -4.8892517 11.803673c0 9.219238 7.4736786 16.692917 16.692917 16.692917c9.219238 0 16.692917 -7.4736786 16.692917 -16.692917z" fill-rule="evenodd"/><path stroke="#000000" stroke-width="1.0" stroke-linejoin="round" stroke-linecap="butt" d="m246.97754 57.66484c0 -9.219242 -7.4736786 -16.692913 -16.692917 -16.692913c-4.427231 0 -8.6731415 1.7587128 -11.803665 4.8892403c-3.130539 3.1305275 -4.8892517 7.376438 -4.8892517 11.803673c0 9.219238 7.4736786 16.692917 16.692917 16.692917c9.219238 0 16.692917 -7.4736786 16.692917 -16.692917z" fill-rule="evenodd"/><path fill="#f4cccc" d="m29.103333 59.234394c0 -5.7663727 -4.67457 -10.440945 -10.440945 -10.440945c-2.7691097 0 -5.4248056 1.1000252 -7.382862 3.0580826c-1.9580574 1.9580574 -3.0580826 4.6137505 -3.0580826 7.382862c0 5.7663765 4.674571 10.440945 10.440945 10.440945c5.7663746 0 10.440945 -4.674568 10.440945 -10.440945z" fill-rule="evenodd"/><path stroke="#000000" stroke-width="1.0" stroke-linejoin="round" stroke-linecap="butt" d="m29.103333 59.234394c0 -5.7663727 -4.67457 -10.440945 -10.440945 -10.440945c-2.7691097 0 -5.4248056 1.1000252 -7.382862 3.0580826c-1.9580574 1.9580574 -3.0580826 4.6137505 -3.0580826 7.382862c0 5.7663765 4.674571 10.440945 10.440945 10.440945c5.7663746 0 10.440945 -4.674568 10.440945 -10.440945z" fill-rule="evenodd"/></g></svg>