<svg version="1.1" viewBox="0.0 0.0 575.4356955380578 144.73490813648294" fill="none" stroke="none" stroke-linecap="square" stroke-miterlimit="10" xmlns:xlink="http://www.w3.org/1999/xlink" xmlns="http://www.w3.org/2000/svg"><clipPath id="p.0"><path d="m0 0l575.43567 0l0 144.73491l-575.43567 0l0 -144.73491z" clip-rule="nonzero"/></clipPath><g clip-path="url(#p.0)"><path fill="#000000" fill-opacity="0.0" d="m0 0l575.43567 0l0 144.73491l-575.43567 0z" fill-rule="evenodd"/><path fill="#a61c00" d="m470.9265 38.097115c0 -9.219244 7.4736633 -16.692915 16.692902 -16.692915c4.427246 0 8.673157 1.7587128 11.80368 4.8892403c3.1305237 3.1305294 4.8892517 7.376436 4.8892517 11.803675c0 9.219238 -7.473694 16.692913 -16.692932 16.692913c-9.219238 0 -16.692902 -7.473675 -16.692902 -16.692913z" fill-rule="evenodd"/><path stroke="#000000" stroke-width="1.0" stroke-linejoin="round" stroke-linecap="butt" d="m470.9265 38.097115c0 -9.219244 7.4736633 -16.692915 16.692902 -16.692915c4.427246 0 8.673157 1.7587128 11.80368 4.8892403c3.1305237 3.1305294 4.8892517 7.376436 4.8892517 11.803675c0 9.219238 -7.473694 16.692913 -16.692932 16.692913c-9.219238 0 -16.692902 -7.473675 -16.692902 -16.692913z" fill-rule="evenodd"/><path fill="#a61c00" d="m117.18635 38.097115c0 -9.219244 7.4736786 -16.692915 16.692924 -16.692915c4.427231 0 8.6731415 1.7587128 11.803665 4.8892403c3.1305237 3.1305294 4.8892365 7.376436 4.8892365 11.803675c0 9.219238 -7.4736633 16.692913 -16.692902 16.692913c-9.219246 0 -16.692924 -7.473675 -16.692924 -16.692913z" fill-rule="evenodd"/><path stroke="#000000" stroke-width="1.0" stroke-linejoin="round" stroke-linecap="butt" d="m117.18635 38.097115c0 -9.219244 7.4736786 -16.692915 16.692924 -16.692915c4.427231 0 8.6731415 1.7587128 11.803665 4.8892403c3.1305237 3.1305294 4.8892365 7.376436 4.8892365 11.803675c0 9.219238 -7.4736633 16.692913 -16.692902 16.692913c-9.219246 0 -16.692924 -7.473675 -16.692924 -16.692913z" fill-rule="evenodd"/><path fill="#a61c00" d="m170.75328 38.097115c0 -9.219244 7.4736786 -16.692915 16.692917 -16.692915c4.427231 0 8.6731415 1.7587128 11.803665 4.8892403c3.130539 3.1305294 4.8892517 7.376436 4.8892517 11.803675c0 9.219238 -7.4736786 16.692913 -16.692917 16.692913c-9.219238 0 -16.692917 -7.473675 -16.692917 -16.692913z" fill-rule="evenodd"/><path stroke="#000000" stroke-width="1.0" stroke-linejoin="round" stroke-linecap="butt" d="m170.75328 38.097115c0 -9.219244 7.4736786 -16.692915 16.692917 -16.692915c4.427231 0 8.6731415 1.7587128 11.803665 4.8892403c3.130539 3.1305294 4.8892517 7.376436 4.8892517 11.803675c0 9.219238 -7.4736786 16.692913 -16.692917 16.692913c-9.219238 0 -16.692917 -7.473675 -16.692917 -16.692913z" fill-rule="evenodd"/><path fill="#a61c00" d="m410.05774 38.097115c0 -9.219244 7.4736633 -16.692915 16.692932 -16.692915c4.4272156 0 8.673126 1.7587128 11.80365 4.8892403c3.1305237 3.1305294 4.8892517 7.376436 4.8892517 11.803675c0 9.219238 -7.4736633 16.692913 -16.692902 16.692913c-9.219269 0 -16.692932 -7.473675 -16.692932 -16.692913z" fill-rule="evenodd"/><path stroke="#000000" stroke-width="1.0" stroke-linejoin="round" stroke-linecap="butt" d="m410.05774 38.097115c0 -9.219244 7.4736633 -16.692915 16.692932 -16.692915c4.4272156 0 8.673126 1.7587128 11.80365 4.8892403c3.1305237 3.1305294 4.8892517 7.376436 4.8892517 11.803675c0 9.219238 -7.4736633 16.692913 -16.692902 16.692913c-9.219269 0 -16.692932 -7.473675 -16.692932 -16.692913z" fill-rule="evenodd"/><path fill="#a61c00" d="m358.58005 38.097115c0 -9.219244 7.4736633 -16.692915 16.692932 -16.692915c4.4272156 0 8.673126 1.7587128 11.80365 4.8892403c3.1305237 3.1305294 4.8892517 7.376436 4.8892517 11.803675c0 9.219238 -7.4736633 16.692913 -16.692902 16.692913c-9.219269 0 -16.692932 -7.473675 -16.692932 -16.692913z" fill-rule="evenodd"/><path stroke="#000000" stroke-width="1.0" stroke-linejoin="round" stroke-linecap="butt" d="m358.58005 38.097115c0 -9.219244 7.4736633 -16.692915 16.692932 -16.692915c4.4272156 0 8.673126 1.7587128 11.80365 4.8892403c3.1305237 3.1305294 4.8892517 7.376436 4.8892517 11.803675c0 9.219238 -7.4736633 16.692913 -16.692902 16.692913c-9.219269 0 -16.692932 -7.473675 -16.692932 -16.692913z" fill-rule="evenodd"/><path fill="#000000" fill-opacity="0.0" d="m41.71399 26.865652l24.69291 22.456694l-35.118107 38.61417l-24.692913 -22.456688z" fill-rule="evenodd"/><path fill="#000000" d="m31.866682 54.297752l1.2615452 -1.3871307l1.387146 1.2615242l-1.2615433 1.3871307l-1.3871479 -1.2615242zm4.6122646 4.1945724l1.2615433 -1.3871307l1.3755875 1.2510109l-1.2615433 1.3871346l-1.3755875 -1.2510147zm4.5891457 4.173546l1.2615433 -1.3871307l1.3871498 1.261528l-1.2615433 1.3871307l-1.3871498 -1.261528z" fill-rule="nonzero"/><path fill="#f4cccc" d="m522.0656 38.097115c0 -5.7663765 4.6745605 -10.440947 10.440979 -10.440947c2.769104 0 5.4248047 1.1000252 7.3828125 3.0580826c1.9580688 1.9580555 3.0581055 4.6137524 3.0581055 7.382864c0 5.7663727 -4.6745605 10.440945 -10.440918 10.440945c-5.7664185 0 -10.440979 -4.674572 -10.440979 -10.440945z" fill-rule="evenodd"/><path stroke="#000000" stroke-width="1.0" stroke-linejoin="round" stroke-linecap="butt" d="m522.0656 38.097115c0 -5.7663765 4.6745605 -10.440947 10.440979 -10.440947c2.769104 0 5.4248047 1.1000252 7.3828125 3.0580826c1.9580688 1.9580555 3.0581055 4.6137524 3.0581055 7.382864c0 5.7663727 -4.6745605 10.440945 -10.440918 10.440945c-5.7664185 0 -10.440979 -4.674572 -10.440979 -10.440945z" fill-rule="evenodd"/><path fill="#f4cccc" d="m80.68767 128.17323c0 -5.7663803 4.674568 -10.4409485 10.440941 -10.4409485c2.7691116 0 5.4248047 1.1000214 7.382866 3.0580826c1.9580536 1.9580536 3.0580826 4.6137543 3.0580826 7.382866c0 5.7663727 -4.674576 10.440933 -10.4409485 10.440933c-5.7663727 0 -10.440941 -4.6745605 -10.440941 -10.440933z" fill-rule="evenodd"/><path stroke="#000000" stroke-width="1.0" stroke-linejoin="round" stroke-linecap="butt" d="m80.68767 128.17323c0 -5.7663803 4.674568 -10.4409485 10.440941 -10.4409485c2.7691116 0 5.4248047 1.1000214 7.382866 3.0580826c1.9580536 1.9580536 3.0580826 4.6137543 3.0580826 7.382866c0 5.7663727 -4.674576 10.440933 -10.4409485 10.440933c-5.7663727 0 -10.440941 -4.6745605 -10.440941 -10.440933z" fill-rule="evenodd"/><path fill="#f4cccc" d="m110.25197 128.17323c0 -5.7663803 4.674568 -10.4409485 10.4409485 -10.4409485c2.769104 0 5.4248047 1.1000214 7.3828583 3.0580826c1.9580536 1.9580536 3.0580902 4.6137543 3.0580902 7.382866c0 5.7663727 -4.674576 10.440933 -10.4409485 10.440933c-5.7663803 0 -10.4409485 -4.6745605 -10.4409485 -10.440933z" fill-rule="evenodd"/><path stroke="#000000" stroke-width="1.0" stroke-linejoin="round" stroke-linecap="butt" d="m110.25197 128.17323c0 -5.7663803 4.674568 -10.4409485 10.4409485 -10.4409485c2.769104 0 5.4248047 1.1000214 7.3828583 3.0580826c1.9580536 1.9580536 3.0580902 4.6137543 3.0580902 7.382866c0 5.7663727 -4.674576 10.440933 -10.4409485 10.440933c-5.7663803 0 -10.4409485 -4.6745605 -10.4409485 -10.440933z" fill-rule="evenodd"/><path fill="#f4cccc" d="m155.77428 128.17323c0 -5.7663803 4.674576 -10.4409485 10.4409485 -10.4409485c2.769104 0 5.4248047 1.1000214 7.3828583 3.0580826c1.9580536 1.9580536 3.0580902 4.6137543 3.0580902 7.382866c0 5.7663727 -4.674576 10.440933 -10.4409485 10.440933c-5.7663727 0 -10.4409485 -4.6745605 -10.4409485 -10.440933z" fill-rule="evenodd"/><path stroke="#000000" stroke-width="1.0" stroke-linejoin="round" stroke-linecap="butt" d="m155.77428 128.17323c0 -5.7663803 4.674576 -10.4409485 10.4409485 -10.4409485c2.769104 0 5.4248047 1.1000214 7.3828583 3.0580826c1.9580536 1.9580536 3.0580902 4.6137543 3.0580902 7.382866c0 5.7663727 -4.674576 10.440933 -10.4409485 10.440933c-5.7663727 0 -10.4409485 -4.6745605 -10.4409485 -10.440933z" fill-rule="evenodd"/><path fill="#000000" fill-opacity="0.0" d="m150.57217 38.097115l20.18898 0" fill-rule="evenodd"/><path stroke="#000000" stroke-width="4.0" stroke-linejoin="round" stroke-linecap="butt" d="m150.57217 38.097115l20.18898 0" fill-rule="evenodd"/><path fill="#000000" fill-opacity="0.0" d="m391.96588 38.097115l18.078735 0" fill-rule="evenodd"/><path stroke="#000000" stroke-width="4.0" stroke-linejoin="round" stroke-linecap="butt" d="m391.96588 38.097115l18.078735 0" fill-rule="evenodd"/><path fill="#000000" fill-opacity="0.0" d="m443.44357 38.097115l27.496063 0" fill-rule="evenodd"/><path stroke="#000000" stroke-width="4.0" stroke-linejoin="round" stroke-linecap="butt" d="m443.44357 38.097115l27.496063 0" fill-rule="evenodd"/><path fill="#000000" fill-opacity="0.0" d="m504.30185 38.097115l17.763763 0" fill-rule="evenodd"/><path stroke="#000000" stroke-width="4.0" stroke-linejoin="round" stroke-linecap="butt" d="m504.30185 38.097115l17.763763 0" fill-rule="evenodd"/><path fill="#a61c00" d="m234.2454 38.097115c0 -9.219244 7.4736786 -16.692915 16.692917 -16.692915c4.427231 0 8.673126 1.7587128 11.80368 4.8892403c3.1305237 3.1305294 4.889221 7.376436 4.889221 11.803675c0 9.219238 -7.4736633 16.692913 -16.692902 16.692913c-9.219238 0 -16.692917 -7.473675 -16.692917 -16.692913z" fill-rule="evenodd"/><path stroke="#000000" stroke-width="1.0" stroke-linejoin="round" stroke-linecap="butt" d="m234.2454 38.097115c0 -9.219244 7.4736786 -16.692915 16.692917 -16.692915c4.427231 0 8.673126 1.7587128 11.80368 4.8892403c3.1305237 3.1305294 4.889221 7.376436 4.889221 11.803675c0 9.219238 -7.4736633 16.692913 -16.692902 16.692913c-9.219238 0 -16.692917 -7.473675 -16.692917 -16.692913z" fill-rule="evenodd"/><path fill="#000000" fill-opacity="0.0" d="m204.13911 38.097115l30.11023 0" fill-rule="evenodd"/><path stroke="#000000" stroke-width="4.0" stroke-linejoin="round" stroke-linecap="butt" d="m204.13911 38.097115l30.11023 0" fill-rule="evenodd"/><path fill="#000000" fill-opacity="0.0" d="m294.70547 12.002168l65.322815 0l0 33.385826l-65.322815 0z" fill-rule="evenodd"/><path fill="#000000" d="m305.87735 38.922165l0 -1.875l1.875 0l0 1.875l-1.875 0zm6.234375 0l0 -1.875l1.859375 0l0 1.875l-1.859375 0zm6.203125 0l0 -1.875l1.875 0l0 1.875l-1.875 0z" fill-rule="nonzero"/><path fill="#000000" fill-opacity="0.0" d="m91.12861 117.732285l42.74015 -62.929134" fill-rule="evenodd"/><path stroke="#000000" stroke-width="4.0" stroke-linejoin="round" stroke-linecap="butt" d="m91.12861 117.732285l42.74015 -62.929134" fill-rule="evenodd"/><path fill="#000000" fill-opacity="0.0" d="m120.69292 117.732285l13.196854 -62.929134" fill-rule="evenodd"/><path stroke="#000000" stroke-width="4.0" stroke-linejoin="round" stroke-linecap="butt" d="m120.69292 117.732285l13.196854 -62.929134" fill-rule="evenodd"/><path fill="#000000" fill-opacity="0.0" d="m166.21523 117.732285l-32.346466 -62.929134" fill-rule="evenodd"/><path stroke="#000000" stroke-width="4.0" stroke-linejoin="round" stroke-linecap="butt" d="m166.21523 117.732285l-32.346466 -62.929134" fill-rule="evenodd"/><path fill="#000000" fill-opacity="0.0" d="m69.91601 69.48294l11.716537 -32.440945" fill-rule="evenodd"/><path stroke="#000000" stroke-width="1.0" stroke-linejoin="round" stroke-linecap="butt" d="m69.91601 69.48294l11.716537 -32.440945" fill-rule="evenodd"/><path fill="#000000" fill-opacity="0.0" d="m59.283466 13.645669l22.362202 24.472443" fill-rule="evenodd"/><path stroke="#000000" stroke-width="1.0" stroke-linejoin="round" stroke-linecap="butt" d="m59.283466 13.645669l22.362202 24.472443" fill-rule="evenodd"/><path fill="#000000" fill-opacity="0.0" d="m33.217846 29.070866l26.58268 -14.897637" fill-rule="evenodd"/><path stroke="#000000" stroke-width="1.0" stroke-linejoin="round" stroke-linecap="butt" d="m33.217846 29.070866l26.58268 -14.897637" fill-rule="evenodd"/><path fill="#f4cccc" d="m50.057743 14.034121c0 -5.7663746 4.674568 -10.440945 10.440945 -10.440945c2.7691116 0 5.4248047 1.1000247 7.382866 3.058082c1.9580536 1.9580569 3.0580826 4.613752 3.0580826 7.3828626c0 5.7663746 -4.674576 10.440945 -10.4409485 10.440945c-5.7663765 0 -10.440945 -4.67457 -10.440945 -10.440945z" fill-rule="evenodd"/><path stroke="#000000" stroke-width="1.0" stroke-linejoin="round" stroke-linecap="butt" d="m50.057743 14.034121c0 -5.7663746 4.674568 -10.440945 10.440945 -10.440945c2.7691116 0 5.4248047 1.1000247 7.382866 3.058082c1.9580536 1.9580569 3.0580826 4.613752 3.0580826 7.3828626c0 5.7663746 -4.674576 10.440945 -10.4409485 10.440945c-5.7663765 0 -10.440945 -4.67457 -10.440945 -10.440945z" fill-rule="evenodd"/><path fill="#f4cccc" d="m22.92651 28.664042c0 -5.7663746 4.67457 -10.440945 10.440945 -10.440945c2.7691116 0 5.4248047 1.1000252 7.382862 3.0580826c1.9580574 1.9580574 3.0580826 4.6137524 3.0580826 7.382862c0 5.7663746 -4.674572 10.440947 -10.440945 10.440947c-5.7663746 0 -10.440945 -4.674572 -10.440945 -10.440947z" fill-rule="evenodd"/><path stroke="#000000" stroke-width="1.0" stroke-linejoin="round" stroke-linecap="butt" d="m22.92651 28.664042c0 -5.7663746 4.67457 -10.440945 10.440945 -10.440945c2.7691116 0 5.4248047 1.1000252 7.382862 3.0580826c1.9580574 1.9580574 3.0580826 4.6137524 3.0580826 7.382862c0 5.7663746 -4.674572 10.440947 -10.440945 10.440947c-5.7663746 0 -10.440945 -4.674572 -10.440945 -10.440947z" fill-rule="evenodd"/><path fill="#f4cccc" d="m59.8084 68.28609c0 -5.7663727 4.674572 -10.440941 10.440945 -10.440941c2.7691116 0 5.4248047 1.1000214 7.382866 3.0580788c1.9580536 1.9580574 3.0580826 4.6137505 3.0580826 7.382862c0 5.7663803 -4.674576 10.4409485 -10.4409485 10.4409485c-5.7663727 0 -10.440945 -4.674568 -10.440945 -10.4409485z" fill-rule="evenodd"/><path stroke="#000000" stroke-width="1.0" stroke-linejoin="round" stroke-linecap="butt" d="m59.8084 68.28609c0 -5.7663727 4.674572 -10.440941 10.440945 -10.440941c2.7691116 0 5.4248047 1.1000214 7.382866 3.0580788c1.9580536 1.9580574 3.0580826 4.6137505 3.0580826 7.382862c0 5.7663803 -4.674576 10.4409485 -10.4409485 10.4409485c-5.7663727 0 -10.440945 -4.674568 -10.440945 -10.4409485z" fill-rule="evenodd"/><path fill="#f4cccc" d="m70.93964 38.034122c0 -5.7663765 4.674568 -10.440947 10.440941 -10.440947c2.7691116 0 5.4248047 1.1000252 7.382866 3.0580826c1.9580536 1.9580555 3.0580826 4.6137524 3.0580826 7.382864c0 5.7663727 -4.674576 10.440945 -10.4409485 10.440945c-5.7663727 0 -10.440941 -4.674572 -10.440941 -10.440945z" fill-rule="evenodd"/><path stroke="#000000" stroke-width="1.0" stroke-linejoin="round" stroke-linecap="butt" d="m70.93964 38.034122c0 -5.7663765 4.674568 -10.440947 10.440941 -10.440947c2.7691116 0 5.4248047 1.1000252 7.382866 3.0580826c1.9580536 1.9580555 3.0580826 4.6137524 3.0580826 7.382864c0 5.7663727 -4.674576 10.440945 -10.4409485 10.440945c-5.7663727 0 -10.440941 -4.674572 -10.440941 -10.440945z" fill-rule="evenodd"/><path fill="#000000" fill-opacity="0.0" d="m126.66163 105.22789l65.32284 0l0 33.385834l-65.32284 0z" fill-rule="evenodd"/><path fill="#000000" d="m137.36476 128.30789l0 -1.46875l1.46875 0l0 1.46875l-1.46875 0zm4.890625 0l0 -1.46875l1.46875 0l0 1.46875l-1.46875 0zm4.890625 0l0 -1.46875l1.46875 0l0 1.46875l-1.46875 0z" fill-rule="nonzero"/><path fill="#000000" fill-opacity="0.0" d="m117.18635 38.097115l-25.354324 -0.062992096" fill-rule="evenodd"/><path stroke="#000000" stroke-width="1.0" stroke-linejoin="round" stroke-linecap="butt" d="m117.18635 38.097115l-25.354324 -0.062992096" fill-rule="evenodd"/><path fill="#000000" fill-opacity="0.0" d="m117.18635 38.097115l-46.236214 -24.062994" fill-rule="evenodd"/><path stroke="#000000" stroke-width="1.0" stroke-linejoin="round" stroke-linecap="butt" d="m117.18635 38.097115l-46.236214 -24.062994" fill-rule="evenodd"/></g></svg>