<svg version="1.1" viewBox="0.0 0.0 321.6666666666667 219.7217847769029" fill="none" stroke="none" stroke-linecap="square" stroke-miterlimit="10" xmlns:xlink="http://www.w3.org/1999/xlink" xmlns="http://www.w3.org/2000/svg"><clipPath id="p.0"><path d="m0 0l321.66666 0l0 219.72179l-321.66666 0l0 -219.72179z" clip-rule="nonzero"/></clipPath><g clip-path="url(#p.0)"><path fill="#000000" fill-opacity="0.0" d="m0 0l321.66666 0l0 219.72179l-321.66666 0z" fill-rule="evenodd"/><path fill="#f4cccc" d="m70.25992 191.19801c0 -5.7663727 -4.674568 -10.4409485 -10.440945 -10.4409485c-2.7691078 0 -5.4248047 1.1000214 -7.382862 3.0580902c-1.9580574 1.9580536 -3.0580826 4.6137543 -3.0580826 7.3828583c0 5.7663727 4.674572 10.4409485 10.440945 10.4409485c5.7663765 0 10.440945 -4.674576 10.440945 -10.4409485z" fill-rule="evenodd"/><path stroke="#000000" stroke-width="1.0" stroke-linejoin="round" stroke-linecap="butt" d="m70.25992 191.19801c0 -5.7663727 -4.674568 -10.4409485 -10.440945 -10.4409485c-2.7691078 0 -5.4248047 1.1000214 -7.382862 3.0580902c-1.9580574 1.9580536 -3.0580826 4.6137543 -3.0580826 7.3828583c0 5.7663727 4.674572 10.4409485 10.440945 10.4409485c5.7663765 0 10.440945 -4.674576 10.440945 -10.4409485z" fill-rule="evenodd"/><path fill="#f4cccc" d="m129.04207 191.19801c0 -5.7663727 -4.674568 -10.4409485 -10.440941 -10.4409485c-2.7691116 0 -5.4248047 1.1000214 -7.382866 3.0580902c-1.9580536 1.9580536 -3.0580826 4.6137543 -3.0580826 7.3828583c0 5.7663727 4.674576 10.4409485 10.4409485 10.4409485c5.7663727 0 10.440941 -4.674576 10.440941 -10.4409485z" fill-rule="evenodd"/><path stroke="#000000" stroke-width="1.0" stroke-linejoin="round" stroke-linecap="butt" d="m129.04207 191.19801c0 -5.7663727 -4.674568 -10.4409485 -10.440941 -10.4409485c-2.7691116 0 -5.4248047 1.1000214 -7.382866 3.0580902c-1.9580536 1.9580536 -3.0580826 4.6137543 -3.0580826 7.3828583c0 5.7663727 4.674576 10.4409485 10.4409485 10.4409485c5.7663727 0 10.440941 -4.674576 10.440941 -10.4409485z" fill-rule="evenodd"/><path fill="#f4cccc" d="m197.2153 143.89355c0 -5.7663727 -4.674576 -10.4409485 -10.4409485 -10.4409485c-2.769104 0 -5.4248047 1.1000214 -7.3828583 3.058075c-1.9580536 1.9580688 -3.0580902 4.6137543 -3.0580902 7.3828735c0 5.7663727 4.674576 10.440933 10.4409485 10.440933c5.7663727 0 10.4409485 -4.6745605 10.4409485 -10.440933z" fill-rule="evenodd"/><path stroke="#000000" stroke-width="1.0" stroke-linejoin="round" stroke-linecap="butt" d="m197.2153 143.89355c0 -5.7663727 -4.674576 -10.4409485 -10.4409485 -10.4409485c-2.769104 0 -5.4248047 1.1000214 -7.3828583 3.058075c-1.9580536 1.9580688 -3.0580902 4.6137543 -3.0580902 7.3828735c0 5.7663727 4.674576 10.440933 10.4409485 10.440933c5.7663727 0 10.4409485 -4.6745605 10.4409485 -10.440933z" fill-rule="evenodd"/><path fill="#f4cccc" d="m257.04208 191.19801c0 -5.7663727 -4.674576 -10.4409485 -10.440964 -10.4409485c-2.769104 0 -5.4248047 1.1000214 -7.3828583 3.0580902c-1.9580536 1.9580536 -3.058075 4.6137543 -3.058075 7.3828583c0 5.7663727 4.6745605 10.4409485 10.440933 10.4409485c5.766388 0 10.440964 -4.674576 10.440964 -10.4409485z" fill-rule="evenodd"/><path stroke="#000000" stroke-width="1.0" stroke-linejoin="round" stroke-linecap="butt" d="m257.04208 191.19801c0 -5.7663727 -4.674576 -10.4409485 -10.440964 -10.4409485c-2.769104 0 -5.4248047 1.1000214 -7.3828583 3.0580902c-1.9580536 1.9580536 -3.058075 4.6137543 -3.058075 7.3828583c0 5.7663727 4.6745605 10.4409485 10.440933 10.4409485c5.766388 0 10.440964 -4.674576 10.440964 -10.4409485z" fill-rule="evenodd"/><path fill="#990000" d="m257.04208 143.89355c0 -5.7663727 -4.674576 -10.4409485 -10.440964 -10.4409485c-2.769104 0 -5.4248047 1.1000214 -7.3828583 3.058075c-1.9580536 1.9580688 -3.058075 4.6137543 -3.058075 7.3828735c0 5.7663727 4.6745605 10.440933 10.440933 10.440933c5.766388 0 10.440964 -4.6745605 10.440964 -10.440933z" fill-rule="evenodd"/><path stroke="#000000" stroke-width="1.0" stroke-linejoin="round" stroke-linecap="butt" d="m257.04208 143.89355c0 -5.7663727 -4.674576 -10.4409485 -10.440964 -10.4409485c-2.769104 0 -5.4248047 1.1000214 -7.3828583 3.058075c-1.9580536 1.9580688 -3.058075 4.6137543 -3.058075 7.3828735c0 5.7663727 4.6745605 10.440933 10.440933 10.440933c5.766388 0 10.440964 -4.6745605 10.440964 -10.440933z" fill-rule="evenodd"/><path fill="#f4cccc" d="m312.693 143.89355c0 -5.7663727 -4.6745605 -10.4409485 -10.4409485 -10.4409485c-2.769104 0 -5.4248047 1.1000214 -7.3828735 3.058075c-1.9580383 1.9580688 -3.058075 4.6137543 -3.058075 7.3828735c0 5.7663727 4.6745605 10.440933 10.4409485 10.440933c5.766388 0 10.4409485 -4.6745605 10.4409485 -10.440933z" fill-rule="evenodd"/><path stroke="#000000" stroke-width="1.0" stroke-linejoin="round" stroke-linecap="butt" d="m312.693 143.89355c0 -5.7663727 -4.6745605 -10.4409485 -10.4409485 -10.4409485c-2.769104 0 -5.4248047 1.1000214 -7.3828735 3.058075c-1.9580383 1.9580688 -3.058075 4.6137543 -3.058075 7.3828735c0 5.7663727 4.6745605 10.440933 10.4409485 10.440933c5.766388 0 10.4409485 -4.6745605 10.4409485 -10.440933z" fill-rule="evenodd"/><path fill="#990000" d="m102.25992 143.89355c0 -5.7663727 -4.674568 -10.4409485 -10.440941 -10.4409485c-2.7691116 0 -5.4248047 1.1000214 -7.382866 3.058075c-1.9580536 1.9580688 -3.0580826 4.6137543 -3.0580826 7.3828735c0 5.7663727 4.674568 10.440933 10.4409485 10.440933c5.7663727 0 10.440941 -4.6745605 10.440941 -10.440933z" fill-rule="evenodd"/><path stroke="#000000" stroke-width="1.0" stroke-linejoin="round" stroke-linecap="butt" d="m102.25992 143.89355c0 -5.7663727 -4.674568 -10.4409485 -10.440941 -10.4409485c-2.7691116 0 -5.4248047 1.1000214 -7.382866 3.058075c-1.9580536 1.9580688 -3.0580826 4.6137543 -3.0580826 7.3828735c0 5.7663727 4.674568 10.440933 10.4409485 10.440933c5.7663727 0 10.440941 -4.6745605 10.440941 -10.440933z" fill-rule="evenodd"/><path fill="#990000" d="m257.04208 72.93555c0 -5.7663727 -4.674576 -10.440945 -10.440964 -10.440945c-2.769104 0 -5.4248047 1.1000252 -7.3828583 3.0580788c-1.9580536 1.9580612 -3.058075 4.6137543 -3.058075 7.382866c0 5.7663727 4.6745605 10.440941 10.440933 10.440941c5.766388 0 10.440964 -4.674568 10.440964 -10.440941z" fill-rule="evenodd"/><path stroke="#000000" stroke-width="1.0" stroke-linejoin="round" stroke-linecap="butt" d="m257.04208 72.93555c0 -5.7663727 -4.674576 -10.440945 -10.440964 -10.440945c-2.769104 0 -5.4248047 1.1000252 -7.3828583 3.0580788c-1.9580536 1.9580612 -3.058075 4.6137543 -3.058075 7.382866c0 5.7663727 4.6745605 10.440941 10.440933 10.440941c5.766388 0 10.440964 -4.674568 10.440964 -10.440941z" fill-rule="evenodd"/><path fill="#f4cccc" d="m27.824224 143.89355c0 -5.7663727 -4.67457 -10.4409485 -10.440945 -10.4409485c-2.7691107 0 -5.4248056 1.1000214 -7.382863 3.058075c-1.9580564 1.9580688 -3.0580816 4.6137543 -3.0580816 7.3828735c0 5.7663727 4.67457 10.440933 10.440945 10.440933c5.7663746 0 10.440945 -4.6745605 10.440945 -10.440933z" fill-rule="evenodd"/><path stroke="#000000" stroke-width="1.0" stroke-linejoin="round" stroke-linecap="butt" d="m27.824224 143.89355c0 -5.7663727 -4.67457 -10.4409485 -10.440945 -10.4409485c-2.7691107 0 -5.4248056 1.1000214 -7.382863 3.058075c-1.9580564 1.9580688 -3.0580816 4.6137543 -3.0580816 7.3828735c0 5.7663727 4.67457 10.440933 10.440945 10.440933c5.7663746 0 10.440945 -4.6745605 10.440945 -10.440933z" fill-rule="evenodd"/><path fill="#a61c00" d="m70.25992 72.93555c0 -5.7663727 -4.674568 -10.440945 -10.440945 -10.440945c-2.7691078 0 -5.4248047 1.1000252 -7.382862 3.0580788c-1.9580574 1.9580612 -3.0580826 4.6137543 -3.0580826 7.382866c0 5.7663727 4.674572 10.440941 10.440945 10.440941c5.7663765 0 10.440945 -4.674568 10.440945 -10.440941z" fill-rule="evenodd"/><path stroke="#000000" stroke-width="1.0" stroke-linejoin="round" stroke-linecap="butt" d="m70.25992 72.93555c0 -5.7663727 -4.674568 -10.440945 -10.440945 -10.440945c-2.7691078 0 -5.4248047 1.1000252 -7.382862 3.0580788c-1.9580574 1.9580612 -3.0580826 4.6137543 -3.0580826 7.382866c0 5.7663727 4.674572 10.440941 10.440945 10.440941c5.7663765 0 10.440945 -4.674568 10.440945 -10.440941z" fill-rule="evenodd"/><path fill="#a61c00" d="m162.44627 18.678328c0 -5.7663746 -4.674576 -10.440945 -10.4409485 -10.440945c-2.769104 0 -5.4248047 1.1000252 -7.3828583 3.0580816c-1.9580536 1.9580574 -3.0580902 4.6137524 -3.0580902 7.382863c0 5.7663746 4.674576 10.440945 10.4409485 10.440945c5.7663727 0 10.4409485 -4.67457 10.4409485 -10.440945z" fill-rule="evenodd"/><path stroke="#000000" stroke-width="1.0" stroke-linejoin="round" stroke-linecap="butt" d="m162.44627 18.678328c0 -5.7663746 -4.674576 -10.440945 -10.4409485 -10.440945c-2.769104 0 -5.4248047 1.1000252 -7.3828583 3.0580816c-1.9580536 1.9580574 -3.0580902 4.6137524 -3.0580902 7.382863c0 5.7663746 4.674576 10.440945 10.4409485 10.440945c5.7663727 0 10.4409485 -4.67457 10.4409485 -10.440945z" fill-rule="evenodd"/><path fill="#000000" fill-opacity="0.0" d="m239.21826 65.55268l-79.842514 -39.496063" fill-rule="evenodd"/><path stroke="#000000" stroke-width="4.0" stroke-linejoin="round" stroke-linecap="butt" d="m239.21826 65.55268l-79.842514 -39.496063" fill-rule="evenodd"/><path fill="#000000" fill-opacity="0.0" d="m67.201836 65.55268l77.41732 -39.496063" fill-rule="evenodd"/><path stroke="#000000" stroke-width="4.0" stroke-linejoin="round" stroke-linecap="butt" d="m67.201836 65.55268l77.41732 -39.496063" fill-rule="evenodd"/><path fill="#000000" fill-opacity="0.0" d="m17.38328 133.4526l35.055115 -53.133858" fill-rule="evenodd"/><path stroke="#000000" stroke-width="4.0" stroke-linejoin="round" stroke-linecap="butt" d="m17.38328 133.4526l35.055115 -53.133858" fill-rule="evenodd"/><path fill="#000000" fill-opacity="0.0" d="m67.201836 80.318405l24.629921 53.133865" fill-rule="evenodd"/><path stroke="#000000" stroke-width="4.0" stroke-linejoin="round" stroke-linecap="butt" d="m67.201836 80.318405l24.629921 53.133865" fill-rule="evenodd"/><path fill="#000000" fill-opacity="0.0" d="m84.43611 151.27641l-24.629921 29.480316" fill-rule="evenodd"/><path stroke="#000000" stroke-width="4.0" stroke-linejoin="round" stroke-linecap="butt" d="m84.43611 151.27641l-24.629921 29.480316" fill-rule="evenodd"/><path fill="#000000" fill-opacity="0.0" d="m99.201836 151.27641l19.40158 29.480316" fill-rule="evenodd"/><path stroke="#000000" stroke-width="4.0" stroke-linejoin="round" stroke-linecap="butt" d="m99.201836 151.27641l19.40158 29.480316" fill-rule="evenodd"/><path fill="#000000" fill-opacity="0.0" d="m239.21826 80.318405l-45.07086 56.18898" fill-rule="evenodd"/><path stroke="#000000" stroke-width="4.0" stroke-linejoin="round" stroke-linecap="butt" d="m239.21826 80.318405l-45.07086 56.18898" fill-rule="evenodd"/><path fill="#000000" fill-opacity="0.0" d="m246.60112 133.4526l0 -50.078743" fill-rule="evenodd"/><path stroke="#000000" stroke-width="4.0" stroke-linejoin="round" stroke-linecap="butt" d="m246.60112 133.4526l0 -50.078743" fill-rule="evenodd"/><path fill="#000000" fill-opacity="0.0" d="m294.86917 136.51068l-40.88188 -56.188972" fill-rule="evenodd"/><path stroke="#000000" stroke-width="4.0" stroke-linejoin="round" stroke-linecap="butt" d="m294.86917 136.51068l-40.88188 -56.188972" fill-rule="evenodd"/><path fill="#000000" fill-opacity="0.0" d="m246.60112 154.33449l0 26.425201" fill-rule="evenodd"/><path stroke="#000000" stroke-width="4.0" stroke-linejoin="round" stroke-linecap="butt" d="m246.60112 154.33449l0 26.425201" fill-rule="evenodd"/><path fill="#000000" fill-opacity="0.0" d="m24.766142 151.27641l83.40157 39.93701" fill-rule="evenodd"/><path stroke="#38761d" stroke-width="1.0" stroke-linejoin="round" stroke-linecap="butt" d="m24.766142 151.27641l83.40157 39.93701" fill-rule="evenodd"/><path fill="#000000" fill-opacity="0.0" d="m35.277424 150.55725c11.3888855 7.777771 62.08224 32.22223 69.16536 28.333328c7.0831146 -3.8888855 -19.861336 -37.360886 -26.666672 -51.666664c-6.805336 -14.305771 -7.220909 -35.001312 -14.165352 -34.167976c-6.9444466 0.8333359 -22.77909 29.584427 -27.501312 39.167984c-4.7222233 9.583542 -12.220911 10.555557 -0.8320198 18.333328z" fill-rule="evenodd"/><path stroke="#ff0000" stroke-width="2.0" stroke-linejoin="round" stroke-linecap="butt" d="m35.277424 150.55725c11.3888855 7.777771 62.08224 32.22223 69.16536 28.333328c7.0831146 -3.8888855 -19.861336 -37.360886 -26.666672 -51.666664c-6.805336 -14.305771 -7.220909 -35.001312 -14.165352 -34.167976c-6.9444466 0.8333359 -22.77909 29.584427 -27.501312 39.167984c-4.7222233 9.583542 -12.220911 10.555557 -0.8320198 18.333328z" fill-rule="evenodd"/></g></svg>