<svg version="1.1" viewBox="0.0 0.0 122.33333333333333 100.0" fill="none" stroke="none" stroke-linecap="square" stroke-miterlimit="10" xmlns:xlink="http://www.w3.org/1999/xlink" xmlns="http://www.w3.org/2000/svg"><clipPath id="p.0"><path d="m0 0l122.333336 0l0 100.0l-122.333336 0l0 -100.0z" clip-rule="nonzero"/></clipPath><g clip-path="url(#p.0)"><path fill="#000000" fill-opacity="0.0" d="m0 0l122.333336 0l0 100.0l-122.333336 0z" fill-rule="evenodd"/><path fill="#000000" fill-opacity="0.0" d="m31.709484 62.12861l2.1102371 -33.41732" fill-rule="evenodd"/><path stroke="#000000" stroke-width="1.0" stroke-linejoin="round" stroke-linecap="butt" d="m31.709484 62.12861l2.1102371 -33.41732" fill-rule="evenodd"/><path fill="#000000" fill-opacity="0.0" d="m53.671917 82.70604l35.874012 -10.960632" fill-rule="evenodd"/><path stroke="#000000" stroke-width="1.0" stroke-linejoin="round" stroke-linecap="butt" d="m53.671917 82.70604l35.874012 -10.960632" fill-rule="evenodd"/><path fill="#000000" fill-opacity="0.0" d="m45.48245 44.03324l24.692913 22.456696l-35.11811 38.614174l-24.692913 -22.456696z" fill-rule="evenodd"/><path fill="#000000" d="m35.635143 71.46534l1.2615433 -1.3871307l1.387146 1.261528l-1.2615433 1.3871307l-1.387146 -1.261528zm4.6122627 4.19458l1.2615433 -1.3871384l1.3755875 1.2510147l-1.2615395 1.3871307l-1.3755913 -1.2510071zm4.5891495 4.173546l1.2615395 -1.3871307l1.3871498 1.2615204l-1.2615433 1.3871307l-1.387146 -1.2615204z" fill-rule="nonzero"/><path fill="#000000" fill-opacity="0.0" d="m82.367455 74.59055l17.543304 -35.401577" fill-rule="evenodd"/><path stroke="#000000" stroke-width="1.0" stroke-linejoin="round" stroke-linecap="butt" d="m82.367455 74.59055l17.543304 -35.401577" fill-rule="evenodd"/><path fill="#000000" fill-opacity="0.0" d="m73.091866 17.343832l26.83464 22.929132" fill-rule="evenodd"/><path stroke="#000000" stroke-width="1.0" stroke-linejoin="round" stroke-linecap="butt" d="m73.091866 17.343832l26.83464 22.929132" fill-rule="evenodd"/><path fill="#000000" fill-opacity="0.0" d="m33.23622 28.79265l44.850395 -12.472441" fill-rule="evenodd"/><path stroke="#000000" stroke-width="1.0" stroke-linejoin="round" stroke-linecap="butt" d="m33.23622 28.79265l44.850395 -12.472441" fill-rule="evenodd"/><path fill="#f4cccc" d="m61.1688 16.461943c0 -5.7663746 4.674576 -10.440945 10.4409485 -10.440945c2.7691116 0 5.4248047 1.1000247 7.3828583 3.058082c1.9580612 1.9580564 3.0580826 4.6137514 3.0580826 7.382863c0 5.7663746 -4.674568 10.440945 -10.440941 10.440945c-5.7663727 0 -10.4409485 -4.67457 -10.4409485 -10.440945z" fill-rule="evenodd"/><path stroke="#000000" stroke-width="1.0" stroke-linejoin="round" stroke-linecap="butt" d="m61.1688 16.461943c0 -5.7663746 4.674576 -10.440945 10.4409485 -10.440945c2.7691116 0 5.4248047 1.1000247 7.3828583 3.058082c1.9580612 1.9580564 3.0580826 4.6137514 3.0580826 7.382863c0 5.7663746 -4.674568 10.440945 -10.440941 10.440945c-5.7663727 0 -10.4409485 -4.67457 -10.4409485 -10.440945z" fill-rule="evenodd"/><path fill="#f4cccc" d="m23.538881 28.020998c0 -5.7663746 4.67457 -10.440945 10.440943 -10.440945c2.7691116 0 5.4248085 1.1000233 7.382866 3.0580807c1.9580574 1.9580574 3.0580788 4.6137524 3.0580788 7.382864c0 5.7663746 -4.674568 10.440943 -10.440945 10.440943c-5.7663727 0 -10.440943 -4.674568 -10.440943 -10.440943z" fill-rule="evenodd"/><path stroke="#000000" stroke-width="1.0" stroke-linejoin="round" stroke-linecap="butt" d="m23.538881 28.020998c0 -5.7663746 4.67457 -10.440945 10.440943 -10.440945c2.7691116 0 5.4248085 1.1000233 7.382866 3.0580807c1.9580574 1.9580574 3.0580788 4.6137524 3.0580788 7.382864c0 5.7663746 -4.674568 10.440943 -10.440945 10.440943c-5.7663727 0 -10.440943 -4.674568 -10.440943 -10.440943z" fill-rule="evenodd"/><path fill="#f4cccc" d="m70.85384 73.61155c0 -5.7663727 4.674568 -10.440945 10.440941 -10.440945c2.7691116 0 5.4248047 1.1000252 7.382866 3.0580788c1.9580536 1.9580612 3.0580826 4.6137543 3.0580826 7.382866c0 5.7663727 -4.674576 10.440941 -10.4409485 10.440941c-5.7663727 0 -10.440941 -4.674568 -10.440941 -10.440941z" fill-rule="evenodd"/><path stroke="#000000" stroke-width="1.0" stroke-linejoin="round" stroke-linecap="butt" d="m70.85384 73.61155c0 -5.7663727 4.674568 -10.440945 10.440941 -10.440945c2.7691116 0 5.4248047 1.1000252 7.382866 3.0580788c1.9580536 1.9580612 3.0580826 4.6137543 3.0580826 7.382866c0 5.7663727 -4.674576 10.440941 -10.4409485 10.440941c-5.7663727 0 -10.440941 -4.674568 -10.440941 -10.440941z" fill-rule="evenodd"/><path fill="#f4cccc" d="m89.2318 40.17323c0 -5.7663765 4.674568 -10.440947 10.440941 -10.440947c2.7691116 0 5.4248047 1.1000252 7.382866 3.0580845c1.9580536 1.9580536 3.0580826 4.6137505 3.0580826 7.382862c0 5.7663727 -4.674568 10.440945 -10.4409485 10.440945c-5.7663727 0 -10.440941 -4.674572 -10.440941 -10.440945z" fill-rule="evenodd"/><path stroke="#000000" stroke-width="1.0" stroke-linejoin="round" stroke-linecap="butt" d="m89.2318 40.17323c0 -5.7663765 4.674568 -10.440947 10.440941 -10.440947c2.7691116 0 5.4248047 1.1000252 7.382866 3.0580845c1.9580536 1.9580536 3.0580826 4.6137505 3.0580826 7.382862c0 5.7663727 -4.674568 10.440945 -10.4409485 10.440945c-5.7663727 0 -10.440941 -4.674572 -10.440941 -10.440945z" fill-rule="evenodd"/></g></svg>