<svg version="1.1" viewBox="0.0 0.0 129.61417322834646 100.0" fill="none" stroke="none" stroke-linecap="square" stroke-miterlimit="10" xmlns:xlink="http://www.w3.org/1999/xlink" xmlns="http://www.w3.org/2000/svg"><clipPath id="p.0"><path d="m0 0l129.61417 0l0 100.0l-129.61417 0l0 -100.0z" clip-rule="nonzero"/></clipPath><g clip-path="url(#p.0)"><path fill="#000000" fill-opacity="0.0" d="m0 0l129.61417 0l0 100.0l-129.61417 0z" fill-rule="evenodd"/><path fill="#000000" fill-opacity="0.0" d="m20.627296 63.007874l77.385826 -32.031494" fill-rule="evenodd"/><path stroke="#000000" stroke-width="4.0" stroke-linejoin="round" stroke-linecap="butt" d="m20.627296 63.007874l77.385826 -32.031494" fill-rule="evenodd"/><path fill="#f4cccc" d="m10.35958 62.771652c0 -5.7663727 4.67457 -10.440945 10.440946 -10.440945c2.7691097 0 5.4248047 1.1000252 7.382862 3.0580826c1.9580574 1.9580574 3.0580826 4.6137543 3.0580826 7.382862c0 5.7663727 -4.67457 10.4409485 -10.440945 10.4409485c-5.7663755 0 -10.440946 -4.674576 -10.440946 -10.4409485z" fill-rule="evenodd"/><path stroke="#000000" stroke-width="1.0" stroke-linejoin="round" stroke-linecap="butt" d="m10.35958 62.771652c0 -5.7663727 4.67457 -10.440945 10.440946 -10.440945c2.7691097 0 5.4248047 1.1000252 7.382862 3.0580826c1.9580574 1.9580574 3.0580826 4.6137543 3.0580826 7.382862c0 5.7663727 -4.67457 10.4409485 -10.440945 10.4409485c-5.7663755 0 -10.440946 -4.674576 -10.440946 -10.4409485z" fill-rule="evenodd"/><path fill="#f4cccc" d="m86.86352 31.322834c0 -5.7663746 4.674568 -10.440945 10.440941 -10.440945c2.7691116 0 5.4248123 1.1000252 7.382866 3.0580826c1.9580536 1.9580574 3.0580826 4.6137524 3.0580826 7.382862c0 5.7663765 -4.674568 10.440945 -10.4409485 10.440945c-5.7663727 0 -10.440941 -4.674568 -10.440941 -10.440945z" fill-rule="evenodd"/><path stroke="#000000" stroke-width="1.0" stroke-linejoin="round" stroke-linecap="butt" d="m86.86352 31.322834c0 -5.7663746 4.674568 -10.440945 10.440941 -10.440945c2.7691116 0 5.4248123 1.1000252 7.382866 3.0580826c1.9580536 1.9580574 3.0580826 4.6137524 3.0580826 7.382862c0 5.7663765 -4.674568 10.440945 -10.4409485 10.440945c-5.7663727 0 -10.440941 -4.674568 -10.440941 -10.440945z" fill-rule="evenodd"/></g></svg>